<svg width="30" height="30" viewBox="0 0 30 30" fill="none" xmlns="http://www.w3.org/2000/svg">
<rect width="30" height="30" rx="6" fill="black"/>
<g clip-path="url(#clip0_6684_145027)">
<path fill-rule="evenodd" clip-rule="evenodd" d="M8.63915 6.38965C10.1431 6.38854 11.6469 6.38073 13.1497 6.39635C13.5504 6.39858 13.9523 6.38965 14.3531 6.40416C15.8661 6.40528 17.3802 6.40304 18.8944 6.40528C18.9558 6.39523 19.0002 6.43986 19.0424 6.4778C19.6423 7.06917 20.2434 7.66053 20.8468 8.24743C20.9094 8.31438 21.0073 8.37352 20.9902 8.47728C20.9902 12.7608 20.9891 17.0443 20.9902 21.3278C20.9766 21.4427 21.0324 21.5888 20.9322 21.677C20.3038 22.2851 19.6867 22.9044 19.064 23.518C19.023 23.5504 18.9866 23.6028 18.9285 23.6028C17.2777 23.614 15.6258 23.6251 13.9751 23.6207C13.4024 23.6028 12.8287 23.6173 12.256 23.614C11.0515 23.6051 9.84705 23.6028 8.64143 23.5984C9.69678 23.5917 10.7533 23.5973 11.8097 23.595C12.1012 23.5917 12.3938 23.6062 12.6852 23.5861C12.6875 22.5071 12.6852 21.4282 12.6864 20.3492C12.6841 20.1116 12.6932 19.8728 12.6784 19.6351C11.3327 19.6318 9.98594 19.6318 8.64029 19.634C8.6346 15.22 8.63688 10.8037 8.63915 6.38965ZM12.6966 10.3685C12.6921 11.9753 12.6955 13.582 12.6943 15.1898C12.6977 16.6705 12.6898 18.15 12.6989 19.6306C13.5129 19.6585 14.3291 19.6251 15.1443 19.6496C15.7397 19.6463 16.3362 19.6385 16.9317 19.6407C16.9317 16.5544 16.9373 13.4693 16.9294 10.383C16.2657 10.3819 15.6019 10.392 14.9382 10.3752C14.1914 10.3752 13.4434 10.3786 12.6966 10.3685Z" fill="white"/>
<path d="M8.64062 19.6344C9.98628 19.6321 11.3331 19.6321 12.6787 19.6355C12.6935 19.8731 12.6844 20.1119 12.6867 20.3496C12.6856 21.4285 12.6878 22.5075 12.6856 23.5865C12.3941 23.6066 12.1015 23.592 11.8101 23.5954C10.7536 23.5976 9.69711 23.592 8.64176 23.5987C8.63949 22.2777 8.6429 20.9555 8.64062 19.6344Z" fill="#EF4136"/>
</g>
<defs>
<clipPath id="clip0_6684_145027">
<rect width="12.375" height="17.25" fill="white" transform="translate(8.625 6.375)"/>
</clipPath>
</defs>
</svg>
