<svg width="30" height="30" viewBox="0 0 30 30" fill="none" xmlns="http://www.w3.org/2000/svg">
<rect width="30" height="30" rx="6" fill="#07287F"/>
<path d="M10.3817 8.63748C11.294 8.72599 12.1393 8.27783 13.0428 8.25231C15.2852 8.25151 17.5268 8.2567 19.7692 8.25032C20.6787 8.24434 21.6097 8.32089 22.459 8.66778C23.2868 9.03221 24.1093 9.54058 24.5974 10.3245C24.8669 10.8707 25.1137 11.4544 25.1249 12.0733C25.134 13.7287 24.6679 15.3436 24.036 16.8591C23.4582 18.2363 22.3988 19.3814 21.1452 20.1757C19.6325 21.082 17.8534 21.4759 16.1006 21.4759C13.5512 21.5026 11.0002 21.4779 8.44954 21.4883C7.89332 21.5006 7.34707 21.377 6.82036 21.2076C6.22308 21.0166 5.58632 21.1649 4.97787 21.0636L4.875 20.9504C5.5935 20.8635 6.3415 21.025 7.03767 20.7769C7.48184 20.635 7.93599 20.5174 8.40568 20.5206C8.4292 20.4452 8.47585 20.2941 8.50057 20.2183C8.07673 20.2092 7.66645 20.1083 7.26653 19.9767C6.63336 19.7542 5.95155 19.9285 5.30243 19.8112C5.31678 19.7837 5.3435 19.7287 5.35745 19.7C6.04365 19.6254 6.75697 19.7662 7.42163 19.5274C7.87977 19.3723 8.35464 19.2786 8.83829 19.261C8.86501 19.2028 8.91804 19.0876 8.94355 19.0294C8.54962 18.9783 8.16366 18.8822 7.78168 18.7722C7.1194 18.5648 6.41725 18.6825 5.73743 18.5995C5.84668 18.4384 6.04166 18.4811 6.20274 18.4699C6.70593 18.4484 7.22028 18.517 7.7115 18.3762C8.22506 18.2383 8.7422 18.1119 9.2733 18.0617C9.3048 17.9811 9.3355 17.9026 9.367 17.8228C8.96389 17.7483 8.56278 17.6637 8.16565 17.5645C7.5584 17.4054 6.92562 17.4779 6.30482 17.4512L6.32316 17.2857C6.91007 17.2686 7.50616 17.3164 8.0859 17.2072C8.60863 17.0533 9.13534 16.8727 9.68956 16.9074C9.72943 16.7981 9.7701 16.6889 9.80998 16.5808C9.33948 16.5298 8.89451 16.3611 8.43718 16.2491C7.87179 16.155 7.29404 16.212 6.72347 16.1845C6.74181 16.151 6.7773 16.0836 6.79604 16.0497C7.46031 15.9632 8.15329 16.1099 8.80041 15.8775C9.23143 15.7244 9.68438 15.6621 10.1365 15.6111C10.1644 15.5649 10.2195 15.4732 10.247 15.4273C9.79164 15.3946 9.37816 15.1976 8.94435 15.082C8.35743 15.0047 7.76135 15.0497 7.17243 14.9943C7.2131 14.966 7.29404 14.9066 7.33392 14.8779C7.97267 14.8201 8.63614 14.9425 9.25456 14.722C9.6764 14.586 10.111 14.4831 10.5584 14.4799C10.5867 14.4046 10.6166 14.328 10.6449 14.2523C10.1704 14.1574 9.73462 13.9317 9.25894 13.8432C8.73024 13.7941 8.19834 13.8061 7.66844 13.7642C7.6828 13.7287 7.71031 13.6582 7.72347 13.6227C8.41565 13.5521 9.14371 13.6941 9.80081 13.4094C10.1947 13.2447 10.6186 13.1817 11.042 13.153C11.0624 13.0856 11.1034 12.95 11.1238 12.8815C10.6748 12.8324 10.2522 12.6721 9.82034 12.5497C9.24658 12.4568 8.65966 12.5346 8.08511 12.4417C8.12578 12.4162 8.20751 12.3671 8.24818 12.3416C8.9599 12.2611 9.70511 12.3803 10.3897 12.1179C10.7318 11.9804 11.097 11.9365 11.4587 11.8843C11.4914 11.832 11.5544 11.7272 11.5871 11.6741C11.2278 11.6048 10.8746 11.5107 10.5277 11.3954C9.89171 11.1901 9.21588 11.3241 8.56357 11.23C8.68837 11.0872 8.88414 11.1103 9.0528 11.1012C9.60184 11.0828 10.1684 11.1299 10.6971 10.9473C11.0879 10.8073 11.4962 10.7288 11.9108 10.7084C11.9443 10.6123 11.977 10.5174 12.0105 10.4226C11.4563 10.35 10.9531 10.0521 10.3889 10.0482C9.93557 10.0202 9.47944 10.0489 9.02808 9.98675C9.37338 9.77742 9.804 9.91099 10.1856 9.86952C10.936 9.91099 11.6118 9.51426 12.3518 9.4712C12.375 9.40382 12.42 9.26905 12.4435 9.20167C12.0484 9.12431 11.6708 8.98636 11.2848 8.88109C10.6959 8.79058 10.0959 8.84042 9.50575 8.7547C9.73741 8.53022 10.0939 8.67216 10.3817 8.63748Z" fill="white"/>
<path d="M16.4507 11.6016C17.6999 11.6402 19.0452 11.4616 20.1935 12.0661C19.719 12.1865 19.2525 12.3528 18.7633 12.4038C18.2214 12.4476 17.6763 12.415 17.1353 12.46C17.0894 12.4915 16.9985 12.5537 16.9527 12.5844C17.6181 12.653 18.294 12.5764 18.9543 12.6857C19.5105 12.852 20.0711 13.0254 20.658 13.0266C20.6568 13.0888 20.654 13.2152 20.6516 13.2786C20.2333 13.3113 19.8167 13.3858 19.4267 13.5489C18.794 13.8177 18.095 13.6777 17.4315 13.7574C17.3925 13.7858 17.3171 13.8432 17.2784 13.8715C17.9766 13.9939 18.7134 13.838 19.3881 14.096C19.7106 14.2156 20.0384 14.3248 20.3805 14.3739C20.355 14.4484 20.3282 14.5238 20.3027 14.5995C19.8107 14.5972 19.3318 14.7108 18.8677 14.8627C18.1979 15.0936 17.4774 14.9006 16.7964 15.0525C17.4244 15.2854 18.1253 15.0433 18.7625 15.2527C19.1492 15.3862 19.5372 15.5314 19.9527 15.5457C19.918 15.5995 19.8474 15.708 19.8127 15.763C19.3167 15.7479 18.8299 15.8499 18.3614 16.003C17.6987 16.2263 16.9933 16.1059 16.3107 16.1693C16.3127 16.2072 16.3187 16.2814 16.3219 16.3192C16.725 16.3212 17.1281 16.3172 17.5324 16.3256C18.1245 16.3316 18.6656 16.6011 19.2413 16.7032C19.1277 16.8125 19.0165 16.9245 18.9052 17.0377C18.4072 17.0166 17.9092 17.0776 17.4407 17.2502C16.7924 17.4923 16.0922 17.3531 15.4216 17.4369C15.3889 17.4687 15.3247 17.5329 15.292 17.5644C16.0759 17.6107 16.8813 17.5218 17.6357 17.7961C17.0089 18.021 16.3362 17.9544 15.6851 18.0098C15.1481 18.0577 14.609 18.0353 14.0703 18.0413C14.8642 15.8946 15.6441 13.7431 16.4507 11.6016Z" fill="#07287F"/>
</svg>
