<svg width="786" height="208" viewBox="0 0 786 208" fill="none" xmlns="http://www.w3.org/2000/svg">
<g opacity="0.34">
<rect width="279.25" height="70" rx="12" fill="white"/>
<path d="M16 24C16 19.5817 19.5817 16 24 16H44C48.4183 16 52 19.5817 52 24V44C52 48.4183 48.4183 52 44 52H24C19.5817 52 16 48.4183 16 44V24Z" fill="#07287F"/>
<path d="M28.4597 26.3634C29.5544 26.4696 30.5687 25.9318 31.6529 25.9012C34.3438 25.9003 37.0338 25.9065 39.7247 25.8988C40.816 25.8916 41.9333 25.9835 42.9524 26.3998C43.9457 26.8371 44.9328 27.4471 45.5184 28.3878C45.8418 29.0433 46.138 29.7438 46.1514 30.4863C46.1624 32.4729 45.6031 34.4107 44.8447 36.2294C44.1514 37.882 42.8801 39.2561 41.3758 40.2092C39.5605 41.2968 37.4256 41.7695 35.3223 41.7695C32.263 41.8016 29.2018 41.7719 26.141 41.7844C25.4735 41.7992 24.8181 41.6509 24.186 41.4475C23.4693 41.2183 22.7051 41.3963 21.975 41.2748L21.8516 41.1389C22.7138 41.0346 23.6114 41.2284 24.4468 40.9308C24.9798 40.7604 25.5247 40.6193 26.0884 40.6231C26.1166 40.5327 26.1726 40.3514 26.2023 40.2604C25.6936 40.2494 25.2013 40.1284 24.7214 39.9705C23.9616 39.7035 23.1434 39.9126 22.3645 39.7719C22.3817 39.7389 22.4138 39.6729 22.4305 39.6384C23.2539 39.549 24.1099 39.7179 24.9075 39.4313C25.4573 39.2451 26.0271 39.1327 26.6075 39.1116C26.6396 39.0418 26.7032 38.9035 26.7338 38.8337C26.2611 38.7724 25.7979 38.6571 25.3396 38.525C24.5448 38.2762 23.7023 38.4174 22.8865 38.3179C23.0176 38.1246 23.2516 38.1758 23.4449 38.1624C24.0487 38.1365 24.6659 38.2188 25.2554 38.0499C25.8716 37.8844 26.4922 37.7327 27.1295 37.6724C27.1673 37.5758 27.2042 37.4815 27.242 37.3858C26.7582 37.2963 26.2769 37.1949 25.8003 37.0758C25.0716 36.8849 24.3123 36.972 23.5673 36.9399L23.5894 36.7413C24.2937 36.7208 25.009 36.7782 25.7046 36.6471C26.3319 36.4624 26.964 36.2456 27.629 36.2873C27.6769 36.1562 27.7257 36.0251 27.7735 35.8954C27.2089 35.8342 26.675 35.6318 26.1262 35.4973C25.4477 35.3844 24.7544 35.4528 24.0697 35.4198C24.0917 35.3796 24.1343 35.2988 24.1568 35.2581C24.9539 35.1543 25.7855 35.3303 26.5621 35.0514C27.0793 34.8677 27.6228 34.793 28.1654 34.7318C28.1989 34.6763 28.2649 34.5662 28.2979 34.5112C27.7515 34.472 27.2554 34.2356 26.7348 34.0968C26.0305 34.004 25.3152 34.0581 24.6085 33.9916C24.6573 33.9576 24.7544 33.8863 24.8023 33.8519C25.5688 33.7825 26.3649 33.9294 27.107 33.6648C27.6132 33.5016 28.1348 33.3782 28.6716 33.3744C28.7056 33.2839 28.7415 33.1921 28.7754 33.1012C28.2061 32.9873 27.6831 32.7165 27.1123 32.6103C26.4778 32.5514 25.8396 32.5658 25.2037 32.5155C25.2209 32.4729 25.2539 32.3882 25.2697 32.3457C26.1003 32.261 26.974 32.4313 27.7625 32.0897C28.2353 31.8921 28.7439 31.8165 29.252 31.782C29.2764 31.7012 29.3257 31.5385 29.3501 31.4562C28.8113 31.3973 28.3042 31.205 27.786 31.0581C27.0975 30.9466 26.3932 31.0399 25.7037 30.9284C25.7525 30.8978 25.8506 30.839 25.8994 30.8084C26.7534 30.7117 27.6477 30.8548 28.4692 30.5399C28.8797 30.3749 29.318 30.3222 29.752 30.2596C29.7912 30.1969 29.8668 30.071 29.9061 30.0074C29.475 29.9241 29.051 29.8112 28.6348 29.673C27.8716 29.4265 27.0606 29.5873 26.2778 29.4744C26.4276 29.3031 26.6625 29.3309 26.8649 29.3198C27.5238 29.2978 28.2037 29.3543 28.8381 29.1352C29.307 28.9672 29.797 28.873 30.2946 28.8486C30.3348 28.7332 30.374 28.6194 30.4142 28.5055C29.7491 28.4184 29.1453 28.061 28.4683 28.0562C27.9242 28.0227 27.3769 28.0572 26.8353 27.9825C27.2496 27.7313 27.7664 27.8916 28.2242 27.8419C29.1247 27.8916 29.9357 27.4156 30.8238 27.3639C30.8515 27.283 30.9056 27.1213 30.9338 27.0404C30.4596 26.9476 30.0065 26.7821 29.5434 26.6558C28.8367 26.5471 28.1166 26.6069 27.4085 26.5041C27.6865 26.2347 28.1142 26.405 28.4597 26.3634Z" fill="white"/>
<path d="M35.7432 29.9219C37.2422 29.9683 38.8565 29.7539 40.2345 30.4793C39.6651 30.6238 39.1053 30.8233 38.5183 30.8845C37.868 30.9372 37.214 30.8979 36.5647 30.952C36.5097 30.9898 36.4006 31.0645 36.3455 31.1013C37.1441 31.1836 37.9551 31.0917 38.7474 31.2228C39.4149 31.4223 40.0876 31.6305 40.7919 31.6319C40.7905 31.7066 40.7871 31.8582 40.7843 31.9343C40.2824 31.9735 39.7824 32.063 39.3144 32.2587C38.5551 32.5812 37.7164 32.4132 36.9202 32.5089C36.8733 32.5429 36.7829 32.6118 36.7365 32.6458C37.5742 32.7927 38.4585 32.6056 39.268 32.9152C39.6551 33.0587 40.0484 33.1898 40.4589 33.2486C40.4283 33.3381 40.3962 33.4286 40.3656 33.5195C39.7752 33.5166 39.2006 33.653 38.6436 33.8352C37.8398 34.1123 36.9752 33.8807 36.158 34.063C36.9116 34.3424 37.7527 34.052 38.5173 34.3032C38.9814 34.4635 39.447 34.6376 39.9455 34.6549C39.9039 34.7195 39.8192 34.8496 39.7776 34.9156C39.1824 34.8974 38.5982 35.0199 38.036 35.2037C37.2408 35.4716 36.3944 35.3271 35.5752 35.4032C35.5776 35.4486 35.5848 35.5376 35.5886 35.5831C36.0723 35.5855 36.5561 35.5807 37.0412 35.5907C37.7518 35.5979 38.401 35.9214 39.0919 36.0438C38.9556 36.1749 38.8221 36.3094 38.6886 36.4453C38.091 36.4199 37.4934 36.4931 36.9312 36.7003C36.1532 36.9907 35.313 36.8237 34.5082 36.9242C34.469 36.9625 34.392 37.0395 34.3527 37.0773C35.2934 37.1328 36.2599 37.0261 37.1652 37.3553C36.413 37.6252 35.6058 37.5453 34.8245 37.6118C34.18 37.6692 33.5331 37.6424 32.8867 37.6496C33.8393 35.0735 34.7752 32.4917 35.7432 29.9219Z" fill="#07287F"/>
<path d="M63.078 30V20.13H66.746C67.8473 20.13 68.7807 20.3213 69.546 20.704C70.3207 21.0867 70.9087 21.6467 71.31 22.384C71.7207 23.112 71.926 24.0033 71.926 25.058C71.926 26.1127 71.7207 27.0087 71.31 27.746C70.9087 28.4833 70.3207 29.0433 69.546 29.426C68.7807 29.8087 67.8473 30 66.746 30H63.078ZM64.87 28.516H66.634C67.782 28.516 68.636 28.2313 69.196 27.662C69.7653 27.0833 70.05 26.2153 70.05 25.058C70.05 23.9007 69.7653 23.0373 69.196 22.468C68.6267 21.8987 67.7727 21.614 66.634 21.614H64.87V28.516ZM75.5205 30V21.628H72.1325V20.13H80.7005V21.628H77.3125V30H75.5205ZM81.8358 30V20.13H85.5038C86.6051 20.13 87.5385 20.3213 88.3038 20.704C89.0785 21.0867 89.6665 21.6467 90.0678 22.384C90.4785 23.112 90.6838 24.0033 90.6838 25.058C90.6838 26.1127 90.4785 27.0087 90.0678 27.746C89.6665 28.4833 89.0785 29.0433 88.3038 29.426C87.5385 29.8087 86.6051 30 85.5038 30H81.8358ZM83.6278 28.516H85.3918C86.5398 28.516 87.3938 28.2313 87.9538 27.662C88.5231 27.0833 88.8078 26.2153 88.8078 25.058C88.8078 23.9007 88.5231 23.0373 87.9538 22.468C87.3845 21.8987 86.5305 21.614 85.3918 21.614H83.6278V28.516ZM97.0919 30.14C96.0652 30.14 95.1832 29.9347 94.4459 29.524C93.7179 29.104 93.1579 28.516 92.7659 27.76C92.3739 26.9947 92.1779 26.094 92.1779 25.058C92.1779 24.022 92.3739 23.126 92.7659 22.37C93.1579 21.614 93.7179 21.0307 94.4459 20.62C95.1832 20.2 96.0652 19.99 97.0919 19.99C97.7545 19.99 98.3799 20.0927 98.9679 20.298C99.5652 20.5033 100.055 20.7973 100.438 21.18L99.8499 22.608C99.4299 22.2533 99.0005 21.9967 98.5619 21.838C98.1232 21.67 97.6519 21.586 97.1479 21.586C96.1492 21.586 95.3885 21.8893 94.8659 22.496C94.3432 23.0933 94.0819 23.9473 94.0819 25.058C94.0819 26.1687 94.3432 27.0273 94.8659 27.634C95.3885 28.2407 96.1492 28.544 97.1479 28.544C97.6519 28.544 98.1232 28.4647 98.5619 28.306C99.0005 28.138 99.4299 27.8767 99.8499 27.522L100.438 28.95C100.055 29.3233 99.5652 29.6173 98.9679 29.832C98.3799 30.0373 97.7545 30.14 97.0919 30.14Z" fill="black"/>
<path d="M62.984 48V39.54H66.488C67.4 39.54 68.104 39.756 68.6 40.188C69.096 40.62 69.344 41.232 69.344 42.024C69.344 42.536 69.232 42.976 69.008 43.344C68.784 43.712 68.456 43.992 68.024 44.184C67.6 44.376 67.088 44.472 66.488 44.472L66.596 44.304H66.908C67.228 44.304 67.504 44.384 67.736 44.544C67.976 44.704 68.192 44.96 68.384 45.312L69.848 48H68.48L67.016 45.3C66.904 45.092 66.78 44.932 66.644 44.82C66.516 44.7 66.364 44.62 66.188 44.58C66.02 44.532 65.82 44.508 65.588 44.508H64.232V48H62.984ZM64.232 43.572H66.284C66.892 43.572 67.352 43.444 67.664 43.188C67.976 42.932 68.132 42.552 68.132 42.048C68.132 41.552 67.976 41.176 67.664 40.92C67.352 40.664 66.892 40.536 66.284 40.536H64.232V43.572ZM72.8099 48.108C72.4019 48.108 72.0339 48.028 71.7059 47.868C71.3859 47.708 71.1339 47.492 70.9499 47.22C70.7659 46.948 70.6739 46.64 70.6739 46.296C70.6739 45.864 70.7819 45.524 70.9979 45.276C71.2219 45.02 71.5859 44.84 72.0899 44.736C72.6019 44.624 73.2899 44.568 74.1539 44.568H74.7179V45.312H74.1659C73.7339 45.312 73.3699 45.328 73.0739 45.36C72.7779 45.392 72.5419 45.444 72.3659 45.516C72.1899 45.58 72.0619 45.672 71.9819 45.792C71.9099 45.912 71.8739 46.056 71.8739 46.224C71.8739 46.528 71.9779 46.776 72.1859 46.968C72.3939 47.152 72.6819 47.244 73.0499 47.244C73.3459 47.244 73.6059 47.176 73.8299 47.04C74.0539 46.896 74.2299 46.704 74.3579 46.464C74.4939 46.224 74.5619 45.948 74.5619 45.636V44.256C74.5619 43.8 74.4659 43.472 74.2739 43.272C74.0819 43.072 73.7659 42.972 73.3259 42.972C72.9899 42.972 72.6539 43.024 72.3179 43.128C71.9819 43.224 71.6379 43.38 71.2859 43.596L70.9139 42.744C71.1219 42.6 71.3619 42.476 71.6339 42.372C71.9059 42.268 72.1899 42.188 72.4859 42.132C72.7899 42.068 73.0819 42.036 73.3619 42.036C73.8979 42.036 74.3379 42.12 74.6819 42.288C75.0339 42.456 75.2939 42.712 75.4619 43.056C75.6299 43.4 75.7139 43.844 75.7139 44.388V48H74.5739V46.692H74.6819C74.6179 46.988 74.4979 47.244 74.3219 47.46C74.1539 47.668 73.9419 47.828 73.6859 47.94C73.4299 48.052 73.1379 48.108 72.8099 48.108ZM77.3833 48V42.144H78.5593V43.392H78.4273C78.6033 42.944 78.8793 42.608 79.2553 42.384C79.6313 42.152 80.0633 42.036 80.5513 42.036C81.0153 42.036 81.3993 42.124 81.7033 42.3C82.0153 42.468 82.2473 42.728 82.3993 43.08C82.5513 43.424 82.6273 43.86 82.6273 44.388V48H81.4153V44.46C81.4153 44.124 81.3713 43.852 81.2833 43.644C81.1953 43.428 81.0633 43.268 80.8873 43.164C80.7113 43.06 80.4833 43.008 80.2033 43.008C79.8833 43.008 79.5993 43.076 79.3513 43.212C79.1113 43.348 78.9233 43.544 78.7873 43.8C78.6593 44.056 78.5953 44.352 78.5953 44.688V48H77.3833ZM84.2973 48V39.54H85.5093V44.7H85.5333L88.0773 42.144H89.5773L86.4933 45.24V44.676L89.7933 48H88.2813L85.5333 45.324H85.5093V48H84.2973ZM93.8052 48L94.2252 45.876H93.2532V45.048H94.3812L94.8972 42.396H93.5052V41.568H95.0412L95.4492 39.54H96.3372L95.9292 41.568H97.6572L98.0652 39.54H98.9532L98.5452 41.568H99.5172V42.396H98.3892L97.8732 45.048H99.2652V45.876H97.7292L97.3092 48H96.4212L96.8412 45.876H95.1132L94.6932 48H93.8052ZM95.2692 45.048H96.9852L97.5012 42.396H95.7852L95.2692 45.048ZM101.384 48V46.956H103.304V40.596H103.928L101.804 41.916L101.3 40.992L103.664 39.54H104.54V46.956H106.34V48H101.384Z" fill="#737682"/>
<rect x="173.25" y="16" width="90" height="24" rx="12" fill="#F5F5F6"/>
<circle cx="187.25" cy="28" r="4" fill="#FF9F43"/>
<path d="M199.054 32.108C198.614 32.108 198.194 32.072 197.794 32C197.402 31.92 197.038 31.808 196.702 31.664C196.374 31.512 196.082 31.332 195.826 31.124L196.222 30.14C196.494 30.34 196.774 30.508 197.062 30.644C197.35 30.78 197.658 30.884 197.986 30.956C198.314 31.02 198.67 31.052 199.054 31.052C199.734 31.052 200.234 30.932 200.554 30.692C200.882 30.444 201.046 30.124 201.046 29.732C201.046 29.516 200.994 29.332 200.89 29.18C200.794 29.028 200.634 28.9 200.41 28.796C200.186 28.684 199.894 28.592 199.534 28.52L198.25 28.256C197.49 28.096 196.922 27.832 196.546 27.464C196.178 27.096 195.994 26.6 195.994 25.976C195.994 25.464 196.13 25.016 196.402 24.632C196.674 24.248 197.046 23.952 197.518 23.744C197.998 23.536 198.55 23.432 199.174 23.432C199.558 23.432 199.922 23.472 200.266 23.552C200.618 23.624 200.942 23.736 201.238 23.888C201.542 24.04 201.806 24.224 202.03 24.44L201.622 25.388C201.278 25.084 200.906 24.86 200.506 24.716C200.106 24.564 199.658 24.488 199.162 24.488C198.77 24.488 198.426 24.548 198.13 24.668C197.842 24.788 197.618 24.956 197.458 25.172C197.306 25.388 197.23 25.644 197.23 25.94C197.23 26.276 197.338 26.544 197.554 26.744C197.77 26.944 198.13 27.096 198.634 27.2L199.906 27.464C200.706 27.632 201.302 27.892 201.694 28.244C202.086 28.596 202.282 29.064 202.282 29.648C202.282 30.136 202.15 30.568 201.886 30.944C201.622 31.312 201.25 31.6 200.77 31.808C200.29 32.008 199.718 32.108 199.054 32.108ZM206.147 32.108C205.547 32.108 205.027 31.984 204.587 31.736C204.155 31.48 203.819 31.124 203.579 30.668C203.339 30.204 203.219 29.66 203.219 29.036C203.219 28.42 203.339 27.888 203.579 27.44C203.819 26.992 204.155 26.648 204.587 26.408C205.027 26.16 205.547 26.036 206.147 26.036C206.515 26.036 206.879 26.1 207.239 26.228C207.599 26.348 207.895 26.524 208.127 26.756L207.743 27.608C207.527 27.4 207.283 27.248 207.011 27.152C206.739 27.048 206.483 26.996 206.243 26.996C205.675 26.996 205.235 27.176 204.923 27.536C204.619 27.888 204.467 28.392 204.467 29.048C204.467 29.704 204.619 30.22 204.923 30.596C205.235 30.964 205.675 31.148 206.243 31.148C206.483 31.148 206.739 31.1 207.011 31.004C207.283 30.9 207.527 30.744 207.743 30.536L208.127 31.4C207.895 31.616 207.595 31.788 207.227 31.916C206.867 32.044 206.507 32.108 206.147 32.108ZM209.168 32V23.54H210.38V27.392H210.212C210.388 26.944 210.664 26.608 211.04 26.384C211.416 26.152 211.848 26.036 212.336 26.036C212.8 26.036 213.184 26.124 213.488 26.3C213.8 26.468 214.032 26.728 214.184 27.08C214.336 27.424 214.412 27.86 214.412 28.388V32H213.2V28.46C213.2 28.124 213.156 27.852 213.068 27.644C212.98 27.428 212.848 27.268 212.672 27.164C212.496 27.06 212.268 27.008 211.988 27.008C211.668 27.008 211.384 27.076 211.136 27.212C210.896 27.348 210.708 27.544 210.572 27.8C210.444 28.056 210.38 28.352 210.38 28.688V32H209.168ZM218.83 32.108C218.19 32.108 217.638 31.988 217.174 31.748C216.718 31.5 216.362 31.152 216.106 30.704C215.858 30.248 215.734 29.708 215.734 29.084C215.734 28.476 215.858 27.944 216.106 27.488C216.354 27.032 216.694 26.676 217.126 26.42C217.558 26.164 218.05 26.036 218.602 26.036C219.146 26.036 219.61 26.156 219.994 26.396C220.386 26.628 220.686 26.96 220.894 27.392C221.102 27.824 221.206 28.34 221.206 28.94V29.348H216.694V28.604H220.39L220.186 28.772C220.186 28.172 220.054 27.708 219.79 27.38C219.526 27.052 219.146 26.888 218.65 26.888C218.274 26.888 217.954 26.976 217.69 27.152C217.434 27.328 217.238 27.572 217.102 27.884C216.966 28.196 216.898 28.56 216.898 28.976V29.048C216.898 29.512 216.97 29.904 217.114 30.224C217.266 30.536 217.486 30.772 217.774 30.932C218.062 31.092 218.418 31.172 218.842 31.172C219.178 31.172 219.506 31.12 219.826 31.016C220.154 30.904 220.462 30.732 220.75 30.5L221.11 31.34C220.846 31.58 220.506 31.768 220.09 31.904C219.674 32.04 219.254 32.108 218.83 32.108ZM224.76 32.108C224.248 32.108 223.796 31.988 223.404 31.748C223.02 31.5 222.72 31.148 222.504 30.692C222.288 30.228 222.18 29.688 222.18 29.072C222.18 28.44 222.288 27.9 222.504 27.452C222.72 27.004 223.02 26.656 223.404 26.408C223.796 26.16 224.248 26.036 224.76 26.036C225.272 26.036 225.712 26.164 226.08 26.42C226.456 26.668 226.708 27.004 226.836 27.428H226.704V23.54H227.916V32H226.728V30.68H226.848C226.72 31.112 226.468 31.46 226.092 31.724C225.724 31.98 225.28 32.108 224.76 32.108ZM225.072 31.172C225.568 31.172 225.968 30.992 226.272 30.632C226.576 30.272 226.728 29.752 226.728 29.072C226.728 28.384 226.576 27.864 226.272 27.512C225.968 27.16 225.568 26.984 225.072 26.984C224.568 26.984 224.164 27.16 223.86 27.512C223.556 27.864 223.404 28.384 223.404 29.072C223.404 29.752 223.556 30.272 223.86 30.632C224.164 30.992 224.568 31.172 225.072 31.172ZM231.706 32.108C231.234 32.108 230.838 32.02 230.518 31.844C230.206 31.668 229.97 31.408 229.81 31.064C229.658 30.712 229.582 30.272 229.582 29.744V26.144H230.794V29.756C230.794 30.068 230.834 30.328 230.914 30.536C231.002 30.744 231.134 30.896 231.31 30.992C231.494 31.088 231.722 31.136 231.994 31.136C232.298 31.136 232.566 31.068 232.798 30.932C233.03 30.796 233.21 30.6 233.338 30.344C233.466 30.088 233.53 29.792 233.53 29.456V26.144H234.742V32H233.566V30.716H233.722C233.562 31.164 233.306 31.508 232.954 31.748C232.602 31.988 232.186 32.108 231.706 32.108ZM238.358 32.108C237.718 32.108 237.238 31.928 236.918 31.568C236.606 31.2 236.45 30.672 236.45 29.984V23.54H237.662V29.912C237.662 30.168 237.698 30.388 237.77 30.572C237.842 30.748 237.95 30.88 238.094 30.968C238.238 31.056 238.418 31.1 238.634 31.1C238.73 31.1 238.822 31.096 238.91 31.088C238.998 31.08 239.082 31.064 239.162 31.04L239.138 32.012C239.002 32.044 238.87 32.068 238.742 32.084C238.614 32.1 238.486 32.108 238.358 32.108ZM242.807 32.108C242.167 32.108 241.615 31.988 241.151 31.748C240.695 31.5 240.339 31.152 240.083 30.704C239.835 30.248 239.711 29.708 239.711 29.084C239.711 28.476 239.835 27.944 240.083 27.488C240.331 27.032 240.671 26.676 241.103 26.42C241.535 26.164 242.027 26.036 242.579 26.036C243.123 26.036 243.587 26.156 243.971 26.396C244.363 26.628 244.663 26.96 244.871 27.392C245.079 27.824 245.183 28.34 245.183 28.94V29.348H240.671V28.604H244.367L244.163 28.772C244.163 28.172 244.031 27.708 243.767 27.38C243.503 27.052 243.123 26.888 242.627 26.888C242.251 26.888 241.931 26.976 241.667 27.152C241.411 27.328 241.215 27.572 241.079 27.884C240.943 28.196 240.875 28.56 240.875 28.976V29.048C240.875 29.512 240.947 29.904 241.091 30.224C241.243 30.536 241.463 30.772 241.751 30.932C242.039 31.092 242.395 31.172 242.819 31.172C243.155 31.172 243.483 31.12 243.803 31.016C244.131 30.904 244.439 30.732 244.727 30.5L245.087 31.34C244.823 31.58 244.483 31.768 244.067 31.904C243.651 32.04 243.231 32.108 242.807 32.108ZM248.736 32.108C248.224 32.108 247.772 31.988 247.38 31.748C246.996 31.5 246.696 31.148 246.48 30.692C246.264 30.228 246.156 29.688 246.156 29.072C246.156 28.44 246.264 27.9 246.48 27.452C246.696 27.004 246.996 26.656 247.38 26.408C247.772 26.16 248.224 26.036 248.736 26.036C249.248 26.036 249.688 26.164 250.056 26.42C250.432 26.668 250.684 27.004 250.812 27.428H250.68V23.54H251.892V32H250.704V30.68H250.824C250.696 31.112 250.444 31.46 250.068 31.724C249.7 31.98 249.256 32.108 248.736 32.108ZM249.048 31.172C249.544 31.172 249.944 30.992 250.248 30.632C250.552 30.272 250.704 29.752 250.704 29.072C250.704 28.384 250.552 27.864 250.248 27.512C249.944 27.16 249.544 26.984 249.048 26.984C248.544 26.984 248.14 27.16 247.836 27.512C247.532 27.864 247.38 28.384 247.38 29.072C247.38 29.752 247.532 30.272 247.836 30.632C248.14 30.992 248.544 31.172 249.048 31.172Z" fill="black"/>
</g>
<rect x="299.25" width="279.25" height="70" rx="12" fill="white"/>
<g filter="url(#filter0_di_7044_28062)">
<path d="M315.25 24C315.25 19.5817 318.832 16 323.25 16H343.25C347.668 16 351.25 19.5817 351.25 24V44C351.25 48.4183 347.668 52 343.25 52H323.25C318.832 52 315.25 48.4183 315.25 44V24Z" fill="url(#paint0_linear_7044_28062)"/>
<path d="M322.469 44.5494L323.952 39.1311C323.037 37.545 322.556 35.7471 322.557 33.9035C322.559 28.1396 327.25 23.4492 333.013 23.4492C335.809 23.4501 338.435 24.5394 340.409 26.5158C342.383 28.4922 343.47 31.1192 343.469 33.9132C343.466 39.6779 338.776 44.3683 333.013 44.3683C331.263 44.3675 329.539 43.9287 328.012 43.0953L322.469 44.5494ZM328.269 41.2024C329.742 42.0772 331.149 42.6012 333.009 42.6021C337.799 42.6021 341.701 38.7038 341.703 33.9114C341.705 29.1094 337.822 25.2164 333.016 25.2146C328.223 25.2146 324.324 29.1129 324.322 33.9044C324.321 35.8605 324.894 37.3253 325.857 38.8577L324.979 42.0649L328.269 41.2024ZM338.28 36.3986C338.215 36.2896 338.041 36.2245 337.779 36.0935C337.518 35.9625 336.233 35.3304 335.993 35.2434C335.754 35.1563 335.58 35.1124 335.405 35.3744C335.231 35.6355 334.73 36.2245 334.578 36.3986C334.426 36.5727 334.273 36.5947 334.011 36.4637C333.75 36.3327 332.908 36.0575 331.91 35.1669C331.134 34.4741 330.609 33.6186 330.457 33.3567C330.305 33.0955 330.441 32.954 330.571 32.8239C330.689 32.7069 330.832 32.5188 330.963 32.3658C331.096 32.2146 331.139 32.1056 331.227 31.9306C331.314 31.7566 331.271 31.6036 331.205 31.4726C331.139 31.3425 330.617 30.0562 330.4 29.5331C330.187 29.0241 329.972 29.0926 329.812 29.0847L329.31 29.0759C329.136 29.0759 328.853 29.141 328.614 29.403C328.375 29.665 327.7 30.2962 327.7 31.5825C327.7 32.8687 328.636 34.111 328.766 34.2851C328.897 34.4591 330.608 37.0984 333.229 38.2299C333.852 38.499 334.339 38.6598 334.718 38.7803C335.344 38.979 335.914 38.9509 336.364 38.884C336.866 38.8093 337.91 38.2519 338.128 37.6418C338.346 37.0307 338.346 36.5076 338.28 36.3986Z" fill="white"/>
</g>
<path d="M365.044 30L361.558 20.13H363.406L366.136 28.222H365.576L368.432 20.13H369.762L372.52 28.222H372.03L374.802 20.13H376.552L373.038 30H371.554L368.894 22.412H369.216L366.528 30H365.044ZM377.746 30V20.13H379.496V24.526H379.3C379.505 24.0313 379.823 23.658 380.252 23.406C380.691 23.1447 381.185 23.014 381.736 23.014C382.287 23.014 382.739 23.1167 383.094 23.322C383.449 23.5273 383.715 23.84 383.892 24.26C384.069 24.6707 384.158 25.1933 384.158 25.828V30H382.408V25.912C382.408 25.5573 382.361 25.268 382.268 25.044C382.184 24.82 382.049 24.6567 381.862 24.554C381.685 24.442 381.456 24.386 381.176 24.386C380.84 24.386 380.546 24.4607 380.294 24.61C380.042 24.75 379.846 24.9553 379.706 25.226C379.566 25.4873 379.496 25.7953 379.496 26.15V30H377.746ZM388.189 30.14C387.695 30.14 387.251 30.0467 386.859 29.86C386.477 29.664 386.173 29.4027 385.949 29.076C385.735 28.7493 385.627 28.3807 385.627 27.97C385.627 27.466 385.758 27.0693 386.019 26.78C386.281 26.4813 386.705 26.2667 387.293 26.136C387.881 26.0053 388.67 25.94 389.659 25.94H390.359V26.948H389.673C389.235 26.948 388.866 26.9667 388.567 27.004C388.269 27.032 388.026 27.0833 387.839 27.158C387.662 27.2233 387.531 27.3167 387.447 27.438C387.373 27.5593 387.335 27.7087 387.335 27.886C387.335 28.194 387.443 28.446 387.657 28.642C387.872 28.838 388.171 28.936 388.553 28.936C388.861 28.936 389.132 28.866 389.365 28.726C389.608 28.5767 389.799 28.376 389.939 28.124C390.079 27.872 390.149 27.5827 390.149 27.256V25.646C390.149 25.1793 390.047 24.8433 389.841 24.638C389.636 24.4327 389.291 24.33 388.805 24.33C388.423 24.33 388.031 24.3907 387.629 24.512C387.228 24.624 386.822 24.8013 386.411 25.044L385.907 23.854C386.15 23.686 386.435 23.5413 386.761 23.42C387.097 23.2893 387.447 23.1913 387.811 23.126C388.185 23.0513 388.535 23.014 388.861 23.014C389.533 23.014 390.084 23.1167 390.513 23.322C390.952 23.5273 391.279 23.84 391.493 24.26C391.708 24.6707 391.815 25.2027 391.815 25.856V30H390.177V28.544H390.289C390.224 28.8707 390.093 29.1553 389.897 29.398C389.711 29.6313 389.473 29.8133 389.183 29.944C388.894 30.0747 388.563 30.14 388.189 30.14ZM396.728 30.14C395.813 30.14 395.132 29.9113 394.684 29.454C394.236 28.9967 394.012 28.3293 394.012 27.452V24.47H392.696V23.154H394.012V21.11H395.762V23.154H397.834V24.47H395.762V27.354C395.762 27.802 395.86 28.138 396.056 28.362C396.252 28.586 396.569 28.698 397.008 28.698C397.138 28.698 397.274 28.684 397.414 28.656C397.554 28.6187 397.698 28.5813 397.848 28.544L398.114 29.832C397.946 29.9253 397.731 30 397.47 30.056C397.218 30.112 396.97 30.14 396.728 30.14ZM401.471 30.14C401.088 30.14 400.715 30.1073 400.351 30.042C399.996 29.9767 399.669 29.888 399.371 29.776C399.072 29.6547 398.811 29.5053 398.587 29.328L399.035 28.18C399.268 28.3293 399.52 28.46 399.791 28.572C400.061 28.684 400.341 28.768 400.631 28.824C400.92 28.88 401.205 28.908 401.485 28.908C401.933 28.908 402.264 28.8333 402.479 28.684C402.703 28.5253 402.815 28.32 402.815 28.068C402.815 27.8533 402.74 27.69 402.591 27.578C402.451 27.4567 402.236 27.368 401.947 27.312L400.547 27.046C399.968 26.934 399.525 26.724 399.217 26.416C398.918 26.0987 398.769 25.6927 398.769 25.198C398.769 24.75 398.89 24.3627 399.133 24.036C399.385 23.7093 399.73 23.4573 400.169 23.28C400.607 23.1027 401.111 23.014 401.681 23.014C402.007 23.014 402.325 23.0467 402.633 23.112C402.941 23.168 403.23 23.2567 403.501 23.378C403.781 23.49 404.023 23.6393 404.229 23.826L403.753 24.974C403.575 24.8247 403.37 24.6987 403.137 24.596C402.903 24.484 402.661 24.4 402.409 24.344C402.166 24.2787 401.928 24.246 401.695 24.246C401.237 24.246 400.897 24.3253 400.673 24.484C400.458 24.6427 400.351 24.8527 400.351 25.114C400.351 25.31 400.416 25.4733 400.547 25.604C400.677 25.7347 400.878 25.8233 401.149 25.87L402.549 26.136C403.155 26.248 403.613 26.4533 403.921 26.752C404.238 27.0507 404.397 27.452 404.397 27.956C404.397 28.4133 404.275 28.8053 404.033 29.132C403.79 29.4587 403.449 29.7107 403.011 29.888C402.572 30.056 402.059 30.14 401.471 30.14ZM404.905 30L409.371 20.13H410.841L415.307 30H413.487L412.297 27.228L413.053 27.718H407.145L407.901 27.228L406.725 30H404.905ZM410.085 22.076L408.125 26.738L407.761 26.29H412.437L412.087 26.738L410.113 22.076H410.085ZM416.219 32.52V23.154H417.927V24.596H417.787C417.927 24.12 418.211 23.7373 418.641 23.448C419.079 23.1587 419.588 23.014 420.167 23.014C420.764 23.014 421.287 23.1587 421.735 23.448C422.192 23.7373 422.547 24.148 422.799 24.68C423.051 25.2027 423.177 25.8327 423.177 26.57C423.177 27.298 423.051 27.9327 422.799 28.474C422.547 29.006 422.197 29.4167 421.749 29.706C421.301 29.9953 420.773 30.14 420.167 30.14C419.597 30.14 419.098 30 418.669 29.72C418.239 29.4307 417.95 29.0573 417.801 28.6H417.969V32.52H416.219ZM419.677 28.81C420.199 28.81 420.619 28.6233 420.937 28.25C421.254 27.8673 421.413 27.3073 421.413 26.57C421.413 25.8233 421.254 25.268 420.937 24.904C420.619 24.5307 420.199 24.344 419.677 24.344C419.154 24.344 418.734 24.5307 418.417 24.904C418.099 25.268 417.941 25.8233 417.941 26.57C417.941 27.3073 418.099 27.8673 418.417 28.25C418.734 28.6233 419.154 28.81 419.677 28.81ZM424.613 32.52V23.154H426.321V24.596H426.181C426.321 24.12 426.606 23.7373 427.035 23.448C427.474 23.1587 427.982 23.014 428.561 23.014C429.158 23.014 429.681 23.1587 430.129 23.448C430.586 23.7373 430.941 24.148 431.193 24.68C431.445 25.2027 431.571 25.8327 431.571 26.57C431.571 27.298 431.445 27.9327 431.193 28.474C430.941 29.006 430.591 29.4167 430.143 29.706C429.695 29.9953 429.168 30.14 428.561 30.14C427.992 30.14 427.492 30 427.063 29.72C426.634 29.4307 426.344 29.0573 426.195 28.6H426.363V32.52H424.613ZM428.071 28.81C428.594 28.81 429.014 28.6233 429.331 28.25C429.648 27.8673 429.807 27.3073 429.807 26.57C429.807 25.8233 429.648 25.268 429.331 24.904C429.014 24.5307 428.594 24.344 428.071 24.344C427.548 24.344 427.128 24.5307 426.811 24.904C426.494 25.268 426.335 25.8233 426.335 26.57C426.335 27.3073 426.494 27.8673 426.811 28.25C427.128 28.6233 427.548 28.81 428.071 28.81Z" fill="black"/>
<path d="M362.654 48V46.956H364.574V40.596H365.198L363.074 41.916L362.57 40.992L364.934 39.54H365.81V46.956H367.61V48H362.654ZM372.045 48.108C371.389 48.108 370.837 47.94 370.389 47.604C369.941 47.268 369.601 46.78 369.369 46.14C369.137 45.492 369.021 44.7 369.021 43.764C369.021 42.812 369.137 42.016 369.369 41.376C369.601 40.736 369.941 40.252 370.389 39.924C370.837 39.596 371.389 39.432 372.045 39.432C372.709 39.432 373.265 39.596 373.713 39.924C374.161 40.244 374.497 40.724 374.721 41.364C374.953 42.004 375.069 42.8 375.069 43.752C375.069 44.688 374.953 45.48 374.721 46.128C374.489 46.776 374.149 47.268 373.701 47.604C373.253 47.94 372.701 48.108 372.045 48.108ZM372.045 47.076C372.661 47.076 373.113 46.808 373.401 46.272C373.697 45.736 373.845 44.896 373.845 43.752C373.845 42.608 373.697 41.776 373.401 41.256C373.113 40.728 372.661 40.464 372.045 40.464C371.437 40.464 370.985 40.728 370.689 41.256C370.393 41.776 370.245 42.608 370.245 43.752C370.245 44.896 370.393 45.736 370.689 46.272C370.985 46.808 371.437 47.076 372.045 47.076ZM376.349 43.572V42.144H377.777V43.572H376.349ZM376.349 48V46.572H377.777V48H376.349ZM382.856 48V46.284H379.052V45.36L383.072 39.54H384.092V45.24H385.328V46.284H384.092V48H382.856ZM382.856 45.24V41.028H383.18L380.06 45.576V45.24H382.856ZM386.884 48L391.012 40.116V40.584H386.428V39.54H392.152V40.464L388.252 48H386.884ZM396.163 48L399.931 39.54H400.963L404.743 48H403.471L402.439 45.6L403.003 45.936H397.891L398.443 45.6L397.423 48H396.163ZM400.435 40.92L398.623 45.216L398.323 44.928H402.559L402.283 45.216L400.459 40.92H400.435ZM405.875 48V39.54H406.919L410.243 45.732H409.871L413.171 39.54H414.191V48H413.075V41.304H413.339L410.423 46.704H409.667L406.715 41.292H407.003V48H405.875Z" fill="#737682"/>
<rect x="477.5" y="16" width="85" height="24" rx="12" fill="#F5F5F6"/>
<circle cx="491.5" cy="28" r="4" fill="#28C76F"/>
<path d="M500.484 32V23.54H503.472C504.4 23.54 505.188 23.704 505.836 24.032C506.484 24.352 506.976 24.828 507.312 25.46C507.656 26.084 507.828 26.852 507.828 27.764C507.828 28.676 507.656 29.448 507.312 30.08C506.976 30.704 506.484 31.18 505.836 31.508C505.188 31.836 504.4 32 503.472 32H500.484ZM501.732 30.956H503.4C504.448 30.956 505.232 30.692 505.752 30.164C506.272 29.628 506.532 28.828 506.532 27.764C506.532 26.7 506.268 25.904 505.74 25.376C505.22 24.848 504.44 24.584 503.4 24.584H501.732V30.956ZM512.112 32.108C511.472 32.108 510.92 31.988 510.456 31.748C510 31.5 509.644 31.152 509.388 30.704C509.14 30.248 509.016 29.708 509.016 29.084C509.016 28.476 509.14 27.944 509.388 27.488C509.636 27.032 509.976 26.676 510.408 26.42C510.84 26.164 511.332 26.036 511.884 26.036C512.428 26.036 512.892 26.156 513.276 26.396C513.668 26.628 513.968 26.96 514.176 27.392C514.384 27.824 514.488 28.34 514.488 28.94V29.348H509.976V28.604H513.672L513.468 28.772C513.468 28.172 513.336 27.708 513.072 27.38C512.808 27.052 512.428 26.888 511.932 26.888C511.556 26.888 511.236 26.976 510.972 27.152C510.716 27.328 510.52 27.572 510.384 27.884C510.248 28.196 510.18 28.56 510.18 28.976V29.048C510.18 29.512 510.252 29.904 510.396 30.224C510.548 30.536 510.768 30.772 511.056 30.932C511.344 31.092 511.7 31.172 512.124 31.172C512.46 31.172 512.788 31.12 513.108 31.016C513.436 30.904 513.744 30.732 514.032 30.5L514.392 31.34C514.128 31.58 513.788 31.768 513.372 31.904C512.956 32.04 512.536 32.108 512.112 32.108ZM517.717 32.108C517.077 32.108 516.597 31.928 516.277 31.568C515.965 31.2 515.809 30.672 515.809 29.984V23.54H517.021V29.912C517.021 30.168 517.057 30.388 517.129 30.572C517.201 30.748 517.309 30.88 517.453 30.968C517.597 31.056 517.777 31.1 517.993 31.1C518.089 31.1 518.181 31.096 518.269 31.088C518.357 31.08 518.441 31.064 518.521 31.04L518.497 32.012C518.361 32.044 518.229 32.068 518.101 32.084C517.973 32.1 517.845 32.108 517.717 32.108ZM519.369 24.788V23.528H520.785V24.788H519.369ZM519.477 32V26.144H520.689V32H519.477ZM524.111 32L521.591 26.144H522.899L524.855 31.004H524.519L526.523 26.144H527.759L525.203 32H524.111ZM531.272 32.108C530.632 32.108 530.08 31.988 529.616 31.748C529.16 31.5 528.804 31.152 528.548 30.704C528.3 30.248 528.176 29.708 528.176 29.084C528.176 28.476 528.3 27.944 528.548 27.488C528.796 27.032 529.136 26.676 529.568 26.42C530 26.164 530.492 26.036 531.044 26.036C531.588 26.036 532.052 26.156 532.436 26.396C532.828 26.628 533.128 26.96 533.336 27.392C533.544 27.824 533.648 28.34 533.648 28.94V29.348H529.136V28.604H532.832L532.628 28.772C532.628 28.172 532.496 27.708 532.232 27.38C531.968 27.052 531.588 26.888 531.092 26.888C530.716 26.888 530.396 26.976 530.132 27.152C529.876 27.328 529.68 27.572 529.544 27.884C529.408 28.196 529.34 28.56 529.34 28.976V29.048C529.34 29.512 529.412 29.904 529.556 30.224C529.708 30.536 529.928 30.772 530.216 30.932C530.504 31.092 530.86 31.172 531.284 31.172C531.62 31.172 531.948 31.12 532.268 31.016C532.596 30.904 532.904 30.732 533.192 30.5L533.552 31.34C533.288 31.58 532.948 31.768 532.532 31.904C532.116 32.04 531.696 32.108 531.272 32.108ZM534.969 32V26.144H536.145V27.548H536.025C536.153 27.068 536.381 26.704 536.709 26.456C537.045 26.208 537.489 26.064 538.041 26.024L538.437 26L538.521 27.032L537.789 27.104C537.269 27.152 536.873 27.316 536.601 27.596C536.329 27.876 536.193 28.26 536.193 28.748V32H534.969ZM542.112 32.108C541.472 32.108 540.92 31.988 540.456 31.748C540 31.5 539.644 31.152 539.388 30.704C539.14 30.248 539.016 29.708 539.016 29.084C539.016 28.476 539.14 27.944 539.388 27.488C539.636 27.032 539.976 26.676 540.408 26.42C540.84 26.164 541.332 26.036 541.884 26.036C542.428 26.036 542.892 26.156 543.276 26.396C543.668 26.628 543.968 26.96 544.176 27.392C544.384 27.824 544.488 28.34 544.488 28.94V29.348H539.976V28.604H543.672L543.468 28.772C543.468 28.172 543.336 27.708 543.072 27.38C542.808 27.052 542.428 26.888 541.932 26.888C541.556 26.888 541.236 26.976 540.972 27.152C540.716 27.328 540.52 27.572 540.384 27.884C540.248 28.196 540.18 28.56 540.18 28.976V29.048C540.18 29.512 540.252 29.904 540.396 30.224C540.548 30.536 540.768 30.772 541.056 30.932C541.344 31.092 541.7 31.172 542.124 31.172C542.46 31.172 542.788 31.12 543.108 31.016C543.436 30.904 543.744 30.732 544.032 30.5L544.392 31.34C544.128 31.58 543.788 31.768 543.372 31.904C542.956 32.04 542.536 32.108 542.112 32.108ZM548.041 32.108C547.529 32.108 547.077 31.988 546.685 31.748C546.301 31.5 546.001 31.148 545.785 30.692C545.569 30.228 545.461 29.688 545.461 29.072C545.461 28.44 545.569 27.9 545.785 27.452C546.001 27.004 546.301 26.656 546.685 26.408C547.077 26.16 547.529 26.036 548.041 26.036C548.553 26.036 548.993 26.164 549.361 26.42C549.737 26.668 549.989 27.004 550.117 27.428H549.985V23.54H551.197V32H550.009V30.68H550.129C550.001 31.112 549.749 31.46 549.373 31.724C549.005 31.98 548.561 32.108 548.041 32.108ZM548.353 31.172C548.849 31.172 549.249 30.992 549.553 30.632C549.857 30.272 550.009 29.752 550.009 29.072C550.009 28.384 549.857 27.864 549.553 27.512C549.249 27.16 548.849 26.984 548.353 26.984C547.849 26.984 547.445 27.16 547.141 27.512C546.837 27.864 546.685 28.384 546.685 29.072C546.685 29.752 546.837 30.272 547.141 30.632C547.445 30.992 547.849 31.172 548.353 31.172Z" fill="black"/>
<rect x="207" y="90" width="279.25" height="70" rx="12" fill="white"/>
<g filter="url(#filter1_di_7044_28062)">
<path d="M223 114C223 109.582 226.582 106 231 106H251C255.418 106 259 109.582 259 114V134C259 138.418 255.418 142 251 142H231C226.582 142 223 138.418 223 134V114Z" fill="url(#paint1_linear_7044_28062)"/>
<path fill-rule="evenodd" clip-rule="evenodd" d="M241.156 115.062C238.894 115.062 236.724 115.961 235.124 117.561C233.524 119.161 232.625 121.331 232.625 123.594V132.125H241.156C242.277 132.125 243.386 131.904 244.421 131.476C245.456 131.047 246.397 130.418 247.189 129.626C247.981 128.834 248.609 127.894 249.038 126.859C249.467 125.823 249.688 124.714 249.688 123.594C249.688 122.473 249.467 121.364 249.038 120.329C248.609 119.294 247.981 118.353 247.189 117.561C246.397 116.769 245.456 116.141 244.421 115.712C243.386 115.283 242.277 115.062 241.156 115.062ZM241.156 133.75H232.599C232.39 133.752 232.182 133.712 231.988 133.633C231.792 133.554 231.614 133.436 231.464 133.286C231.314 133.136 231.196 132.958 231.117 132.762C231.038 132.568 230.998 132.36 231 132.151V123.594C231 120.9 232.07 118.317 233.975 116.412C235.879 114.508 238.463 113.438 241.156 113.438C242.49 113.438 243.811 113.7 245.043 114.211C246.275 114.721 247.395 115.469 248.338 116.412C249.281 117.355 250.029 118.475 250.539 119.707C251.05 120.939 251.313 122.26 251.313 123.594C251.313 124.927 251.05 126.248 250.539 127.48C250.029 128.713 249.281 129.832 248.338 130.775C247.395 131.718 246.275 132.467 245.043 132.977C243.811 133.487 242.49 133.75 241.156 133.75Z" fill="white"/>
<path d="M236.281 122.781C236.954 122.781 237.5 123.327 237.5 124C237.5 124.673 236.954 125.219 236.281 125.219C235.608 125.219 235.063 124.673 235.063 124C235.063 123.327 235.608 122.781 236.281 122.781Z" fill="white"/>
<path d="M241.156 122.781C241.829 122.781 242.375 123.327 242.375 124C242.375 124.673 241.829 125.219 241.156 125.219C240.483 125.219 239.938 124.673 239.938 124C239.938 123.327 240.483 122.781 241.156 122.781Z" fill="white"/>
<path d="M246.031 122.781C246.704 122.781 247.25 123.327 247.25 124C247.25 124.673 246.704 125.219 246.031 125.219C245.358 125.219 244.813 124.673 244.813 124C244.813 123.327 245.358 122.781 246.031 122.781Z" fill="white"/>
</g>
<path d="M273.48 120.14C272.967 120.14 272.472 120.093 271.996 120C271.529 119.916 271.095 119.79 270.694 119.622C270.302 119.454 269.952 119.253 269.644 119.02L270.19 117.606C270.498 117.821 270.82 118.007 271.156 118.166C271.501 118.315 271.865 118.432 272.248 118.516C272.64 118.591 273.051 118.628 273.48 118.628C274.217 118.628 274.754 118.507 275.09 118.264C275.426 118.012 275.594 117.69 275.594 117.298C275.594 117.083 275.543 116.901 275.44 116.752C275.337 116.593 275.169 116.458 274.936 116.346C274.703 116.234 274.395 116.141 274.012 116.066L272.472 115.744C271.585 115.557 270.923 115.245 270.484 114.806C270.055 114.358 269.84 113.77 269.84 113.042C269.84 112.426 270.003 111.889 270.33 111.432C270.657 110.975 271.109 110.62 271.688 110.368C272.267 110.116 272.934 109.99 273.69 109.99C274.138 109.99 274.567 110.037 274.978 110.13C275.398 110.214 275.781 110.345 276.126 110.522C276.481 110.69 276.789 110.895 277.05 111.138L276.504 112.482C276.112 112.155 275.683 111.913 275.216 111.754C274.749 111.586 274.236 111.502 273.676 111.502C273.247 111.502 272.878 111.563 272.57 111.684C272.262 111.805 272.024 111.978 271.856 112.202C271.697 112.417 271.618 112.673 271.618 112.972C271.618 113.308 271.73 113.579 271.954 113.784C272.178 113.98 272.561 114.134 273.102 114.246L274.628 114.568C275.552 114.764 276.238 115.072 276.686 115.492C277.143 115.912 277.372 116.472 277.372 117.172C277.372 117.76 277.213 118.278 276.896 118.726C276.579 119.174 276.126 119.524 275.538 119.776C274.959 120.019 274.273 120.14 273.48 120.14ZM278.938 120V110.13H280.436L284.16 117.004H283.712L287.422 110.13H288.892V120H287.268V112.79H287.576L284.44 118.502H283.39L280.226 112.776H280.562V120H278.938ZM294.466 120.14C293.953 120.14 293.458 120.093 292.982 120C292.516 119.916 292.082 119.79 291.68 119.622C291.288 119.454 290.938 119.253 290.63 119.02L291.176 117.606C291.484 117.821 291.806 118.007 292.142 118.166C292.488 118.315 292.852 118.432 293.234 118.516C293.626 118.591 294.037 118.628 294.466 118.628C295.204 118.628 295.74 118.507 296.076 118.264C296.412 118.012 296.58 117.69 296.58 117.298C296.58 117.083 296.529 116.901 296.426 116.752C296.324 116.593 296.156 116.458 295.922 116.346C295.689 116.234 295.381 116.141 294.998 116.066L293.458 115.744C292.572 115.557 291.909 115.245 291.47 114.806C291.041 114.358 290.826 113.77 290.826 113.042C290.826 112.426 290.99 111.889 291.316 111.432C291.643 110.975 292.096 110.62 292.674 110.368C293.253 110.116 293.92 109.99 294.676 109.99C295.124 109.99 295.554 110.037 295.964 110.13C296.384 110.214 296.767 110.345 297.112 110.522C297.467 110.69 297.775 110.895 298.036 111.138L297.49 112.482C297.098 112.155 296.669 111.913 296.202 111.754C295.736 111.586 295.222 111.502 294.662 111.502C294.233 111.502 293.864 111.563 293.556 111.684C293.248 111.805 293.01 111.978 292.842 112.202C292.684 112.417 292.604 112.673 292.604 112.972C292.604 113.308 292.716 113.579 292.94 113.784C293.164 113.98 293.547 114.134 294.088 114.246L295.614 114.568C296.538 114.764 297.224 115.072 297.672 115.492C298.13 115.912 298.358 116.472 298.358 117.172C298.358 117.76 298.2 118.278 297.882 118.726C297.565 119.174 297.112 119.524 296.524 119.776C295.946 120.019 295.26 120.14 294.466 120.14Z" fill="black"/>
<path d="M270.404 138V136.956H272.324V130.596H272.948L270.824 131.916L270.32 130.992L272.684 129.54H273.56V136.956H275.36V138H270.404ZM279.795 138.108C279.139 138.108 278.587 137.94 278.139 137.604C277.691 137.268 277.351 136.78 277.119 136.14C276.887 135.492 276.771 134.7 276.771 133.764C276.771 132.812 276.887 132.016 277.119 131.376C277.351 130.736 277.691 130.252 278.139 129.924C278.587 129.596 279.139 129.432 279.795 129.432C280.459 129.432 281.015 129.596 281.463 129.924C281.911 130.244 282.247 130.724 282.471 131.364C282.703 132.004 282.819 132.8 282.819 133.752C282.819 134.688 282.703 135.48 282.471 136.128C282.239 136.776 281.899 137.268 281.451 137.604C281.003 137.94 280.451 138.108 279.795 138.108ZM279.795 137.076C280.411 137.076 280.863 136.808 281.151 136.272C281.447 135.736 281.595 134.896 281.595 133.752C281.595 132.608 281.447 131.776 281.151 131.256C280.863 130.728 280.411 130.464 279.795 130.464C279.187 130.464 278.735 130.728 278.439 131.256C278.143 131.776 277.995 132.608 277.995 133.752C277.995 134.896 278.143 135.736 278.439 136.272C278.735 136.808 279.187 137.076 279.795 137.076ZM284.099 133.572V132.144H285.527V133.572H284.099ZM284.099 138V136.572H285.527V138H284.099ZM290.606 138V136.284H286.802V135.36L290.822 129.54H291.842V135.24H293.078V136.284H291.842V138H290.606ZM290.606 135.24V131.028H290.93L287.81 135.576V135.24H290.606ZM296.422 138.108C296.134 138.108 295.838 138.072 295.534 138C295.238 137.92 294.958 137.804 294.694 137.652C294.43 137.5 294.198 137.324 293.998 137.124L294.43 136.176C294.726 136.464 295.046 136.684 295.39 136.836C295.734 136.98 296.082 137.052 296.434 137.052C296.81 137.052 297.142 136.984 297.43 136.848C297.718 136.712 297.958 136.508 298.15 136.236C298.35 135.964 298.498 135.628 298.594 135.228C298.698 134.82 298.75 134.352 298.75 133.824V132.804H298.87C298.814 133.228 298.678 133.6 298.462 133.92C298.254 134.24 297.982 134.484 297.646 134.652C297.318 134.82 296.946 134.904 296.53 134.904C296.042 134.904 295.606 134.788 295.222 134.556C294.846 134.324 294.546 134.004 294.322 133.596C294.106 133.188 293.998 132.728 293.998 132.216C293.998 131.672 294.114 131.192 294.346 130.776C294.586 130.352 294.91 130.024 295.318 129.792C295.726 129.552 296.198 129.432 296.734 129.432C297.422 129.432 298.002 129.596 298.474 129.924C298.946 130.244 299.306 130.716 299.554 131.34C299.81 131.964 299.938 132.712 299.938 133.584C299.938 134.552 299.798 135.372 299.518 136.044C299.238 136.716 298.838 137.228 298.318 137.58C297.798 137.932 297.166 138.108 296.422 138.108ZM296.818 133.884C297.138 133.884 297.422 133.812 297.67 133.668C297.918 133.524 298.11 133.324 298.246 133.068C298.39 132.804 298.462 132.5 298.462 132.156C298.462 131.82 298.39 131.524 298.246 131.268C298.11 131.004 297.918 130.8 297.67 130.656C297.422 130.504 297.138 130.428 296.818 130.428C296.49 130.428 296.202 130.504 295.954 130.656C295.714 130.8 295.522 131.004 295.378 131.268C295.242 131.524 295.174 131.82 295.174 132.156C295.174 132.5 295.242 132.804 295.378 133.068C295.522 133.324 295.714 133.524 295.954 133.668C296.202 133.812 296.49 133.884 296.818 133.884ZM303.913 138L307.681 129.54H308.713L312.493 138H311.221L310.189 135.6L310.753 135.936H305.641L306.193 135.6L305.173 138H303.913ZM308.185 130.92L306.373 135.216L306.073 134.928H310.309L310.033 135.216L308.209 130.92H308.185ZM313.625 138V129.54H314.669L317.993 135.732H317.621L320.921 129.54H321.941V138H320.825V131.304H321.089L318.173 136.704H317.417L314.465 131.292H314.753V138H313.625Z" fill="#737682"/>
<rect x="394.25" y="106" width="76" height="24" rx="12" fill="#F5F5F6"/>
<circle cx="408.25" cy="118" r="4" fill="#FBC942"/>
<path d="M420.906 122.108C420.306 122.108 419.762 122.008 419.274 121.808C418.786 121.608 418.366 121.316 418.014 120.932C417.67 120.548 417.406 120.092 417.222 119.564C417.038 119.028 416.946 118.428 416.946 117.764C416.946 117.1 417.038 116.504 417.222 115.976C417.406 115.44 417.67 114.984 418.014 114.608C418.358 114.224 418.774 113.932 419.262 113.732C419.75 113.532 420.298 113.432 420.906 113.432C421.506 113.432 422.05 113.532 422.538 113.732C423.026 113.932 423.442 114.22 423.786 114.596C424.138 114.972 424.406 115.428 424.59 115.964C424.774 116.492 424.866 117.088 424.866 117.752C424.866 118.416 424.774 119.016 424.59 119.552C424.406 120.088 424.138 120.548 423.786 120.932C423.442 121.316 423.026 121.608 422.538 121.808C422.05 122.008 421.506 122.108 420.906 122.108ZM420.906 121.028C421.466 121.028 421.942 120.9 422.334 120.644C422.734 120.388 423.038 120.016 423.246 119.528C423.462 119.04 423.57 118.452 423.57 117.764C423.57 117.076 423.466 116.488 423.258 116C423.05 115.512 422.746 115.144 422.346 114.896C421.954 114.64 421.474 114.512 420.906 114.512C420.346 114.512 419.866 114.64 419.466 114.896C419.074 115.144 418.77 115.512 418.554 116C418.346 116.488 418.242 117.076 418.242 117.764C418.242 118.444 418.346 119.032 418.554 119.528C418.77 120.016 419.074 120.388 419.466 120.644C419.866 120.9 420.346 121.028 420.906 121.028ZM426.407 124.16V116.144H427.595V117.464H427.463C427.591 117.032 427.843 116.688 428.219 116.432C428.595 116.168 429.039 116.036 429.551 116.036C430.071 116.036 430.523 116.16 430.907 116.408C431.299 116.656 431.599 117.004 431.807 117.452C432.023 117.9 432.131 118.44 432.131 119.072C432.131 119.688 432.023 120.228 431.807 120.692C431.599 121.148 431.303 121.5 430.919 121.748C430.535 121.988 430.079 122.108 429.551 122.108C429.047 122.108 428.607 121.98 428.231 121.724C427.855 121.468 427.603 121.128 427.475 120.704H427.619V124.16H426.407ZM429.251 121.172C429.755 121.172 430.155 120.992 430.451 120.632C430.755 120.272 430.907 119.752 430.907 119.072C430.907 118.384 430.755 117.864 430.451 117.512C430.155 117.16 429.755 116.984 429.251 116.984C428.755 116.984 428.355 117.16 428.051 117.512C427.747 117.864 427.595 118.384 427.595 119.072C427.595 119.752 427.747 120.272 428.051 120.632C428.355 120.992 428.755 121.172 429.251 121.172ZM436.245 122.108C435.605 122.108 435.053 121.988 434.589 121.748C434.133 121.5 433.777 121.152 433.521 120.704C433.273 120.248 433.149 119.708 433.149 119.084C433.149 118.476 433.273 117.944 433.521 117.488C433.769 117.032 434.109 116.676 434.541 116.42C434.973 116.164 435.465 116.036 436.017 116.036C436.561 116.036 437.025 116.156 437.409 116.396C437.801 116.628 438.101 116.96 438.309 117.392C438.517 117.824 438.621 118.34 438.621 118.94V119.348H434.109V118.604H437.805L437.601 118.772C437.601 118.172 437.469 117.708 437.205 117.38C436.941 117.052 436.561 116.888 436.065 116.888C435.689 116.888 435.369 116.976 435.105 117.152C434.849 117.328 434.653 117.572 434.517 117.884C434.381 118.196 434.313 118.56 434.313 118.976V119.048C434.313 119.512 434.385 119.904 434.529 120.224C434.681 120.536 434.901 120.772 435.189 120.932C435.477 121.092 435.833 121.172 436.257 121.172C436.593 121.172 436.921 121.12 437.241 121.016C437.569 120.904 437.877 120.732 438.165 120.5L438.525 121.34C438.261 121.58 437.921 121.768 437.505 121.904C437.089 122.04 436.669 122.108 436.245 122.108ZM439.942 122V116.144H441.118V117.392H440.986C441.162 116.944 441.438 116.608 441.814 116.384C442.19 116.152 442.622 116.036 443.11 116.036C443.574 116.036 443.958 116.124 444.262 116.3C444.574 116.468 444.806 116.728 444.958 117.08C445.11 117.424 445.186 117.86 445.186 118.388V122H443.974V118.46C443.974 118.124 443.93 117.852 443.842 117.644C443.754 117.428 443.622 117.268 443.446 117.164C443.27 117.06 443.042 117.008 442.762 117.008C442.442 117.008 442.158 117.076 441.91 117.212C441.67 117.348 441.482 117.544 441.346 117.8C441.218 118.056 441.154 118.352 441.154 118.688V122H439.942ZM449.604 122.108C448.964 122.108 448.412 121.988 447.948 121.748C447.492 121.5 447.136 121.152 446.88 120.704C446.632 120.248 446.508 119.708 446.508 119.084C446.508 118.476 446.632 117.944 446.88 117.488C447.128 117.032 447.468 116.676 447.9 116.42C448.332 116.164 448.824 116.036 449.376 116.036C449.92 116.036 450.384 116.156 450.768 116.396C451.16 116.628 451.46 116.96 451.668 117.392C451.876 117.824 451.98 118.34 451.98 118.94V119.348H447.468V118.604H451.164L450.96 118.772C450.96 118.172 450.828 117.708 450.564 117.38C450.3 117.052 449.92 116.888 449.424 116.888C449.048 116.888 448.728 116.976 448.464 117.152C448.208 117.328 448.012 117.572 447.876 117.884C447.74 118.196 447.672 118.56 447.672 118.976V119.048C447.672 119.512 447.744 119.904 447.888 120.224C448.04 120.536 448.26 120.772 448.548 120.932C448.836 121.092 449.192 121.172 449.616 121.172C449.952 121.172 450.28 121.12 450.6 121.016C450.928 120.904 451.236 120.732 451.524 120.5L451.884 121.34C451.62 121.58 451.28 121.768 450.864 121.904C450.448 122.04 450.028 122.108 449.604 122.108ZM455.533 122.108C455.021 122.108 454.569 121.988 454.177 121.748C453.793 121.5 453.493 121.148 453.277 120.692C453.061 120.228 452.953 119.688 452.953 119.072C452.953 118.44 453.061 117.9 453.277 117.452C453.493 117.004 453.793 116.656 454.177 116.408C454.569 116.16 455.021 116.036 455.533 116.036C456.045 116.036 456.485 116.164 456.853 116.42C457.229 116.668 457.481 117.004 457.609 117.428H457.477V113.54H458.689V122H457.501V120.68H457.621C457.493 121.112 457.241 121.46 456.865 121.724C456.497 121.98 456.053 122.108 455.533 122.108ZM455.845 121.172C456.341 121.172 456.741 120.992 457.045 120.632C457.349 120.272 457.501 119.752 457.501 119.072C457.501 118.384 457.349 117.864 457.045 117.512C456.741 117.16 456.341 116.984 455.845 116.984C455.341 116.984 454.937 117.16 454.633 117.512C454.329 117.864 454.177 118.384 454.177 119.072C454.177 119.752 454.329 120.272 454.633 120.632C454.937 120.992 455.341 121.172 455.845 121.172Z" fill="black"/>
<g opacity="0.34">
<rect x="506.25" y="90" width="279.25" height="70" rx="12" fill="white"/>
<g filter="url(#filter2_di_7044_28062)">
<path d="M522.25 114C522.25 109.582 525.832 106 530.25 106H550.25C554.668 106 558.25 109.582 558.25 114V134C558.25 138.418 554.668 142 550.25 142H530.25C525.832 142 522.25 138.418 522.25 134V114Z" fill="url(#paint2_linear_7044_28062)"/>
<path fill-rule="evenodd" clip-rule="evenodd" d="M542.405 114.802C542.521 114.369 542.967 114.112 543.4 114.228C544.916 114.635 546.298 115.433 547.408 116.543C548.517 117.653 549.316 119.035 549.722 120.551C549.839 120.984 549.582 121.43 549.148 121.546C548.715 121.663 548.269 121.405 548.153 120.972C547.82 119.732 547.167 118.6 546.259 117.692C545.35 116.784 544.219 116.131 542.979 115.798C542.545 115.681 542.288 115.236 542.405 114.802Z" fill="white"/>
<path fill-rule="evenodd" clip-rule="evenodd" d="M541.561 117.943C541.676 117.509 542.121 117.251 542.555 117.366C543.522 117.623 544.404 118.131 545.112 118.839C545.82 119.546 546.328 120.429 546.585 121.396C546.7 121.83 546.442 122.275 546.008 122.39C545.574 122.505 545.129 122.247 545.014 121.813C544.831 121.123 544.468 120.493 543.963 119.988C543.458 119.483 542.828 119.12 542.138 118.937C541.704 118.821 541.446 118.376 541.561 117.943Z" fill="white"/>
<path fill-rule="evenodd" clip-rule="evenodd" d="M535.408 115.069C535.401 115.067 535.36 115.054 535.261 115.071C533.57 115.359 532.224 116.732 531.933 118.402C531.859 118.831 531.866 119.306 531.898 119.84C532.084 123.009 533.426 126.011 535.683 128.268C537.942 130.528 540.948 131.869 544.121 132.054C544.651 132.084 545.123 132.091 545.548 132.017C547.218 131.727 548.592 130.38 548.88 128.689C548.889 128.632 548.89 128.591 548.887 128.565C548.886 128.553 548.885 128.544 548.883 128.539C548.883 128.537 548.882 128.535 548.882 128.534C548.877 128.53 548.863 128.52 548.832 128.506L544.149 126.495L541.613 128.189C541.612 128.189 541.611 128.19 541.611 128.19C541.377 128.347 541.107 128.441 540.826 128.462C540.545 128.484 540.263 128.431 540.008 128.311L540.003 128.309C538.109 127.397 536.58 125.871 535.663 123.98L535.662 123.976C535.542 123.726 535.488 123.448 535.506 123.171C535.524 122.893 535.612 122.625 535.763 122.392L535.767 122.387L537.457 119.816L537.456 119.812L535.46 115.154C535.439 115.105 535.421 115.083 535.414 115.075C535.411 115.072 535.409 115.07 535.408 115.069ZM535.409 115.07C535.41 115.07 535.409 115.07 535.409 115.07ZM536.134 113.615C536.517 113.806 536.788 114.129 536.953 114.514L538.948 119.168C538.948 119.169 538.948 119.17 538.949 119.17C539.054 119.414 539.098 119.68 539.077 119.945C539.056 120.211 538.97 120.467 538.826 120.692L538.821 120.7L537.128 123.275C537.883 124.833 539.143 126.09 540.703 126.842L540.707 126.84L543.244 125.145C543.469 124.993 543.729 124.9 543.999 124.875C544.27 124.85 544.542 124.894 544.791 125.002C544.792 125.003 544.793 125.003 544.794 125.004L549.473 127.013C549.871 127.184 550.183 127.471 550.359 127.855C550.528 128.225 550.541 128.616 550.482 128.962C550.076 131.345 548.161 133.212 545.827 133.618C545.206 133.726 544.576 133.708 544.027 133.676C540.457 133.469 537.076 131.959 534.534 129.417C531.994 126.878 530.485 123.501 530.275 119.936C530.243 119.383 530.224 118.749 530.333 118.124C530.739 115.79 532.606 113.875 534.989 113.469C535.355 113.407 535.758 113.428 536.134 113.615Z" fill="white"/>
</g>
<path d="M569.328 120V110.13H571.12V120H569.328ZM576.43 120L572.033 110.13H573.952L577.522 118.404H576.92L580.476 110.13H582.324L577.928 120H576.43ZM583.246 120V110.13H587.53C588.613 110.13 589.448 110.391 590.036 110.914C590.624 111.427 590.918 112.151 590.918 113.084C590.918 113.691 590.783 114.213 590.512 114.652C590.251 115.091 589.868 115.427 589.364 115.66C588.86 115.893 588.249 116.01 587.53 116.01L587.656 115.8H588.118C588.501 115.8 588.832 115.893 589.112 116.08C589.401 116.267 589.653 116.561 589.868 116.962L591.52 120H589.546L587.838 116.85C587.726 116.645 587.6 116.486 587.46 116.374C587.32 116.253 587.161 116.169 586.984 116.122C586.807 116.075 586.601 116.052 586.368 116.052H585.038V120H583.246ZM585.038 114.722H587.222C587.866 114.722 588.351 114.591 588.678 114.33C589.014 114.059 589.182 113.658 589.182 113.126C589.182 112.603 589.014 112.211 588.678 111.95C588.351 111.679 587.866 111.544 587.222 111.544H585.038V114.722ZM601.209 120.14C600.182 120.14 599.3 119.935 598.563 119.524C597.835 119.104 597.275 118.516 596.883 117.76C596.491 116.995 596.295 116.094 596.295 115.058C596.295 114.022 596.491 113.126 596.883 112.37C597.275 111.614 597.835 111.031 598.563 110.62C599.3 110.2 600.182 109.99 601.209 109.99C601.872 109.99 602.497 110.093 603.085 110.298C603.682 110.503 604.172 110.797 604.555 111.18L603.967 112.608C603.547 112.253 603.118 111.997 602.679 111.838C602.24 111.67 601.769 111.586 601.265 111.586C600.266 111.586 599.506 111.889 598.983 112.496C598.46 113.093 598.199 113.947 598.199 115.058C598.199 116.169 598.46 117.027 598.983 117.634C599.506 118.241 600.266 118.544 601.265 118.544C601.769 118.544 602.24 118.465 602.679 118.306C603.118 118.138 603.547 117.877 603.967 117.522L604.555 118.95C604.172 119.323 603.682 119.617 603.085 119.832C602.497 120.037 601.872 120.14 601.209 120.14ZM607.959 120.14C607.464 120.14 607.021 120.047 606.629 119.86C606.246 119.664 605.943 119.403 605.719 119.076C605.504 118.749 605.397 118.381 605.397 117.97C605.397 117.466 605.528 117.069 605.789 116.78C606.05 116.481 606.475 116.267 607.063 116.136C607.651 116.005 608.44 115.94 609.429 115.94H610.129V116.948H609.443C609.004 116.948 608.636 116.967 608.337 117.004C608.038 117.032 607.796 117.083 607.609 117.158C607.432 117.223 607.301 117.317 607.217 117.438C607.142 117.559 607.105 117.709 607.105 117.886C607.105 118.194 607.212 118.446 607.427 118.642C607.642 118.838 607.94 118.936 608.323 118.936C608.631 118.936 608.902 118.866 609.135 118.726C609.378 118.577 609.569 118.376 609.709 118.124C609.849 117.872 609.919 117.583 609.919 117.256V115.646C609.919 115.179 609.816 114.843 609.611 114.638C609.406 114.433 609.06 114.33 608.575 114.33C608.192 114.33 607.8 114.391 607.399 114.512C606.998 114.624 606.592 114.801 606.181 115.044L605.677 113.854C605.92 113.686 606.204 113.541 606.531 113.42C606.867 113.289 607.217 113.191 607.581 113.126C607.954 113.051 608.304 113.014 608.631 113.014C609.303 113.014 609.854 113.117 610.283 113.322C610.722 113.527 611.048 113.84 611.263 114.26C611.478 114.671 611.585 115.203 611.585 115.856V120H609.947V118.544H610.059C609.994 118.871 609.863 119.155 609.667 119.398C609.48 119.631 609.242 119.813 608.953 119.944C608.664 120.075 608.332 120.14 607.959 120.14ZM615.741 120.14C614.929 120.14 614.327 119.921 613.935 119.482C613.553 119.034 613.361 118.381 613.361 117.522V110.13H615.111V117.438C615.111 117.709 615.149 117.942 615.223 118.138C615.307 118.325 615.429 118.465 615.587 118.558C615.746 118.651 615.942 118.698 616.175 118.698C616.278 118.698 616.381 118.693 616.483 118.684C616.586 118.675 616.684 118.656 616.777 118.628L616.749 120.014C616.581 120.051 616.413 120.079 616.245 120.098C616.087 120.126 615.919 120.14 615.741 120.14ZM620.212 120.14C619.4 120.14 618.798 119.921 618.406 119.482C618.023 119.034 617.832 118.381 617.832 117.522V110.13H619.582V117.438C619.582 117.709 619.619 117.942 619.694 118.138C619.778 118.325 619.899 118.465 620.058 118.558C620.217 118.651 620.413 118.698 620.646 118.698C620.749 118.698 620.851 118.693 620.954 118.684C621.057 118.675 621.155 118.656 621.248 118.628L621.22 120.014C621.052 120.051 620.884 120.079 620.716 120.098C620.557 120.126 620.389 120.14 620.212 120.14Z" fill="black"/>
<path d="M569.234 138V129.54H572.222C573.15 129.54 573.938 129.704 574.586 130.032C575.234 130.352 575.726 130.828 576.062 131.46C576.406 132.084 576.578 132.852 576.578 133.764C576.578 134.676 576.406 135.448 576.062 136.08C575.726 136.704 575.234 137.18 574.586 137.508C573.938 137.836 573.15 138 572.222 138H569.234ZM570.482 136.956H572.15C573.198 136.956 573.982 136.692 574.502 136.164C575.022 135.628 575.282 134.828 575.282 133.764C575.282 132.7 575.018 131.904 574.49 131.376C573.97 130.848 573.19 130.584 572.15 130.584H570.482V136.956ZM580.862 138.108C580.222 138.108 579.67 137.988 579.206 137.748C578.75 137.5 578.394 137.152 578.138 136.704C577.89 136.248 577.766 135.708 577.766 135.084C577.766 134.476 577.89 133.944 578.138 133.488C578.386 133.032 578.726 132.676 579.158 132.42C579.59 132.164 580.082 132.036 580.634 132.036C581.178 132.036 581.642 132.156 582.026 132.396C582.418 132.628 582.718 132.96 582.926 133.392C583.134 133.824 583.238 134.34 583.238 134.94V135.348H578.726V134.604H582.422L582.218 134.772C582.218 134.172 582.086 133.708 581.822 133.38C581.558 133.052 581.178 132.888 580.682 132.888C580.306 132.888 579.986 132.976 579.722 133.152C579.466 133.328 579.27 133.572 579.134 133.884C578.998 134.196 578.93 134.56 578.93 134.976V135.048C578.93 135.512 579.002 135.904 579.146 136.224C579.298 136.536 579.518 136.772 579.806 136.932C580.094 137.092 580.45 137.172 580.874 137.172C581.21 137.172 581.538 137.12 581.858 137.016C582.186 136.904 582.494 136.732 582.782 136.5L583.142 137.34C582.878 137.58 582.538 137.768 582.122 137.904C581.706 138.04 581.286 138.108 580.862 138.108ZM586.467 138.108C585.827 138.108 585.347 137.928 585.027 137.568C584.715 137.2 584.559 136.672 584.559 135.984V129.54H585.771V135.912C585.771 136.168 585.807 136.388 585.879 136.572C585.951 136.748 586.059 136.88 586.203 136.968C586.347 137.056 586.527 137.1 586.743 137.1C586.839 137.1 586.931 137.096 587.019 137.088C587.107 137.08 587.191 137.064 587.271 137.04L587.247 138.012C587.111 138.044 586.979 138.068 586.851 138.084C586.723 138.1 586.595 138.108 586.467 138.108ZM588.119 130.788V129.528H589.535V130.788H588.119ZM588.227 138V132.144H589.439V138H588.227ZM592.861 138L590.341 132.144H591.649L593.605 137.004H593.269L595.273 132.144H596.509L593.953 138H592.861ZM600.022 138.108C599.382 138.108 598.83 137.988 598.366 137.748C597.91 137.5 597.554 137.152 597.298 136.704C597.05 136.248 596.926 135.708 596.926 135.084C596.926 134.476 597.05 133.944 597.298 133.488C597.546 133.032 597.886 132.676 598.318 132.42C598.75 132.164 599.242 132.036 599.794 132.036C600.338 132.036 600.802 132.156 601.186 132.396C601.578 132.628 601.878 132.96 602.086 133.392C602.294 133.824 602.398 134.34 602.398 134.94V135.348H597.886V134.604H601.582L601.378 134.772C601.378 134.172 601.246 133.708 600.982 133.38C600.718 133.052 600.338 132.888 599.842 132.888C599.466 132.888 599.146 132.976 598.882 133.152C598.626 133.328 598.43 133.572 598.294 133.884C598.158 134.196 598.09 134.56 598.09 134.976V135.048C598.09 135.512 598.162 135.904 598.306 136.224C598.458 136.536 598.678 136.772 598.966 136.932C599.254 137.092 599.61 137.172 600.034 137.172C600.37 137.172 600.698 137.12 601.018 137.016C601.346 136.904 601.654 136.732 601.942 136.5L602.302 137.34C602.038 137.58 601.698 137.768 601.282 137.904C600.866 138.04 600.446 138.108 600.022 138.108ZM603.719 138V132.144H604.895V133.548H604.775C604.903 133.068 605.131 132.704 605.459 132.456C605.795 132.208 606.239 132.064 606.791 132.024L607.187 132L607.271 133.032L606.539 133.104C606.019 133.152 605.623 133.316 605.351 133.596C605.079 133.876 604.943 134.26 604.943 134.748V138H603.719ZM610.862 138.108C610.222 138.108 609.67 137.988 609.206 137.748C608.75 137.5 608.394 137.152 608.138 136.704C607.89 136.248 607.766 135.708 607.766 135.084C607.766 134.476 607.89 133.944 608.138 133.488C608.386 133.032 608.726 132.676 609.158 132.42C609.59 132.164 610.082 132.036 610.634 132.036C611.178 132.036 611.642 132.156 612.026 132.396C612.418 132.628 612.718 132.96 612.926 133.392C613.134 133.824 613.238 134.34 613.238 134.94V135.348H608.726V134.604H612.422L612.218 134.772C612.218 134.172 612.086 133.708 611.822 133.38C611.558 133.052 611.178 132.888 610.682 132.888C610.306 132.888 609.986 132.976 609.722 133.152C609.466 133.328 609.27 133.572 609.134 133.884C608.998 134.196 608.93 134.56 608.93 134.976V135.048C608.93 135.512 609.002 135.904 609.146 136.224C609.298 136.536 609.518 136.772 609.806 136.932C610.094 137.092 610.45 137.172 610.874 137.172C611.21 137.172 611.538 137.12 611.858 137.016C612.186 136.904 612.494 136.732 612.782 136.5L613.142 137.34C612.878 137.58 612.538 137.768 612.122 137.904C611.706 138.04 611.286 138.108 610.862 138.108ZM616.791 138.108C616.279 138.108 615.827 137.988 615.435 137.748C615.051 137.5 614.751 137.148 614.535 136.692C614.319 136.228 614.211 135.688 614.211 135.072C614.211 134.44 614.319 133.9 614.535 133.452C614.751 133.004 615.051 132.656 615.435 132.408C615.827 132.16 616.279 132.036 616.791 132.036C617.303 132.036 617.743 132.164 618.111 132.42C618.487 132.668 618.739 133.004 618.867 133.428H618.735V129.54H619.947V138H618.759V136.68H618.879C618.751 137.112 618.499 137.46 618.123 137.724C617.755 137.98 617.311 138.108 616.791 138.108ZM617.103 137.172C617.599 137.172 617.999 136.992 618.303 136.632C618.607 136.272 618.759 135.752 618.759 135.072C618.759 134.384 618.607 133.864 618.303 133.512C617.999 133.16 617.599 132.984 617.103 132.984C616.599 132.984 616.195 133.16 615.891 133.512C615.587 133.864 615.435 134.384 615.435 135.072C615.435 135.752 615.587 136.272 615.891 136.632C616.195 136.992 616.599 137.172 617.103 137.172ZM625.353 138V136.956H627.273V130.596H627.897L625.773 131.916L625.269 130.992L627.633 129.54H628.509V136.956H630.309V138H625.353ZM634.745 138.108C634.089 138.108 633.537 137.94 633.089 137.604C632.641 137.268 632.301 136.78 632.069 136.14C631.837 135.492 631.721 134.7 631.721 133.764C631.721 132.812 631.837 132.016 632.069 131.376C632.301 130.736 632.641 130.252 633.089 129.924C633.537 129.596 634.089 129.432 634.745 129.432C635.409 129.432 635.965 129.596 636.413 129.924C636.861 130.244 637.197 130.724 637.421 131.364C637.653 132.004 637.769 132.8 637.769 133.752C637.769 134.688 637.653 135.48 637.421 136.128C637.189 136.776 636.849 137.268 636.401 137.604C635.953 137.94 635.401 138.108 634.745 138.108ZM634.745 137.076C635.361 137.076 635.813 136.808 636.101 136.272C636.397 135.736 636.545 134.896 636.545 133.752C636.545 132.608 636.397 131.776 636.101 131.256C635.813 130.728 635.361 130.464 634.745 130.464C634.137 130.464 633.685 130.728 633.389 131.256C633.093 131.776 632.945 132.608 632.945 133.752C632.945 134.896 633.093 135.736 633.389 136.272C633.685 136.808 634.137 137.076 634.745 137.076ZM639.048 133.572V132.144H640.476V133.572H639.048ZM639.048 138V136.572H640.476V138H639.048ZM644.92 138.108C644.552 138.108 644.192 138.068 643.84 137.988C643.496 137.908 643.172 137.796 642.868 137.652C642.564 137.508 642.3 137.332 642.076 137.124L642.496 136.164C642.88 136.468 643.268 136.692 643.66 136.836C644.052 136.98 644.464 137.052 644.896 137.052C645.448 137.052 645.88 136.904 646.192 136.608C646.504 136.312 646.66 135.916 646.66 135.42C646.66 134.916 646.512 134.504 646.216 134.184C645.92 133.864 645.508 133.704 644.98 133.704C644.604 133.704 644.268 133.78 643.972 133.932C643.684 134.084 643.424 134.316 643.192 134.628H642.328V129.54H647.368V130.584H643.54V133.632H643.204C643.42 133.328 643.704 133.092 644.056 132.924C644.416 132.756 644.812 132.672 645.244 132.672C645.78 132.672 646.244 132.784 646.636 133.008C647.028 133.232 647.332 133.548 647.548 133.956C647.764 134.356 647.872 134.824 647.872 135.36C647.872 135.904 647.752 136.384 647.512 136.8C647.272 137.208 646.932 137.528 646.492 137.76C646.052 137.992 645.528 138.108 644.92 138.108ZM651.851 138.108C651.475 138.108 651.107 138.072 650.747 138C650.395 137.92 650.063 137.808 649.751 137.664C649.447 137.512 649.179 137.332 648.947 137.124L649.379 136.164C649.755 136.468 650.143 136.692 650.543 136.836C650.943 136.98 651.367 137.052 651.815 137.052C652.199 137.052 652.523 136.996 652.787 136.884C653.051 136.772 653.247 136.608 653.375 136.392C653.511 136.176 653.579 135.916 653.579 135.612C653.579 135.156 653.427 134.816 653.123 134.592C652.827 134.36 652.395 134.244 651.827 134.244H650.519V133.2H651.707C652.051 133.2 652.343 133.144 652.583 133.032C652.823 132.912 653.007 132.748 653.135 132.54C653.271 132.324 653.339 132.064 653.339 131.76C653.339 131.352 653.203 131.04 652.931 130.824C652.667 130.6 652.279 130.488 651.767 130.488C651.335 130.488 650.935 130.564 650.567 130.716C650.199 130.868 649.851 131.1 649.523 131.412L649.091 130.464C649.419 130.136 649.827 129.884 650.315 129.708C650.811 129.524 651.327 129.432 651.863 129.432C652.423 129.432 652.903 129.52 653.303 129.696C653.711 129.872 654.019 130.124 654.227 130.452C654.443 130.78 654.551 131.172 654.551 131.628C654.551 132.14 654.407 132.584 654.119 132.96C653.839 133.328 653.451 133.572 652.955 133.692V133.56C653.347 133.624 653.679 133.752 653.951 133.944C654.223 134.136 654.431 134.38 654.575 134.676C654.719 134.972 654.791 135.312 654.791 135.696C654.791 136.192 654.671 136.624 654.431 136.992C654.199 137.352 653.863 137.628 653.423 137.82C652.983 138.012 652.459 138.108 651.851 138.108ZM658.862 138L662.63 129.54H663.662L667.442 138H666.17L665.138 135.6L665.702 135.936H660.59L661.142 135.6L660.122 138H658.862ZM663.134 130.92L661.322 135.216L661.022 134.928H665.258L664.982 135.216L663.158 130.92H663.134ZM668.574 138V129.54H669.618L672.942 135.732H672.57L675.87 129.54H676.89V138H675.774V131.304H676.038L673.122 136.704H672.366L669.414 131.292H669.702V138H668.574Z" fill="#737682"/>
<rect x="698.5" y="106" width="71" height="24" rx="12" fill="#F5F5F6"/>
<circle cx="712.5" cy="118" r="4" fill="#FF7074"/>
<path d="M725.276 122.108C724.42 122.108 723.688 121.932 723.08 121.58C722.472 121.228 722.004 120.728 721.676 120.08C721.356 119.424 721.196 118.652 721.196 117.764C721.196 116.876 721.356 116.108 721.676 115.46C722.004 114.812 722.472 114.312 723.08 113.96C723.688 113.608 724.42 113.432 725.276 113.432C725.852 113.432 726.388 113.524 726.884 113.708C727.388 113.884 727.808 114.14 728.144 114.476L727.712 115.472C727.344 115.144 726.964 114.908 726.572 114.764C726.188 114.612 725.768 114.536 725.312 114.536C724.4 114.536 723.704 114.816 723.224 115.376C722.744 115.936 722.504 116.732 722.504 117.764C722.504 118.796 722.744 119.596 723.224 120.164C723.704 120.724 724.4 121.004 725.312 121.004C725.768 121.004 726.188 120.932 726.572 120.788C726.964 120.636 727.344 120.396 727.712 120.068L728.144 121.064C727.808 121.4 727.388 121.66 726.884 121.844C726.388 122.02 725.852 122.108 725.276 122.108ZM729.461 122V116.144H730.637V117.548H730.517C730.645 117.068 730.873 116.704 731.201 116.456C731.537 116.208 731.981 116.064 732.533 116.024L732.929 116L733.013 117.032L732.281 117.104C731.761 117.152 731.365 117.316 731.093 117.596C730.821 117.876 730.685 118.26 730.685 118.748V122H729.461ZM733.83 114.788V113.528H735.246V114.788H733.83ZM733.938 122V116.144H735.15V122H733.938ZM739.352 122.108C738.624 122.108 738.076 121.92 737.708 121.544C737.348 121.168 737.168 120.624 737.168 119.912V117.08H736.028V116.144H737.168V114.38H738.38V116.144H740.192V117.08H738.38V119.816C738.38 120.24 738.468 120.56 738.644 120.776C738.828 120.992 739.124 121.1 739.532 121.1C739.652 121.1 739.772 121.084 739.892 121.052C740.02 121.02 740.144 120.988 740.264 120.956L740.456 121.868C740.336 121.94 740.168 121.996 739.952 122.036C739.744 122.084 739.544 122.108 739.352 122.108ZM741.131 114.788V113.528H742.547V114.788H741.131ZM741.239 122V116.144H742.451V122H741.239ZM746.737 122.108C746.137 122.108 745.617 121.984 745.177 121.736C744.745 121.48 744.409 121.124 744.169 120.668C743.929 120.204 743.809 119.66 743.809 119.036C743.809 118.42 743.929 117.888 744.169 117.44C744.409 116.992 744.745 116.648 745.177 116.408C745.617 116.16 746.137 116.036 746.737 116.036C747.105 116.036 747.469 116.1 747.829 116.228C748.189 116.348 748.485 116.524 748.717 116.756L748.333 117.608C748.117 117.4 747.873 117.248 747.601 117.152C747.329 117.048 747.073 116.996 746.833 116.996C746.265 116.996 745.825 117.176 745.513 117.536C745.209 117.888 745.057 118.392 745.057 119.048C745.057 119.704 745.209 120.22 745.513 120.596C745.825 120.964 746.265 121.148 746.833 121.148C747.073 121.148 747.329 121.1 747.601 121.004C747.873 120.9 748.117 120.744 748.333 120.536L748.717 121.4C748.485 121.616 748.185 121.788 747.817 121.916C747.457 122.044 747.097 122.108 746.737 122.108ZM751.583 122.108C751.175 122.108 750.807 122.028 750.479 121.868C750.159 121.708 749.907 121.492 749.723 121.22C749.539 120.948 749.447 120.64 749.447 120.296C749.447 119.864 749.555 119.524 749.771 119.276C749.995 119.02 750.359 118.84 750.863 118.736C751.375 118.624 752.063 118.568 752.927 118.568H753.491V119.312H752.939C752.507 119.312 752.143 119.328 751.847 119.36C751.551 119.392 751.315 119.444 751.139 119.516C750.963 119.58 750.835 119.672 750.755 119.792C750.683 119.912 750.647 120.056 750.647 120.224C750.647 120.528 750.751 120.776 750.959 120.968C751.167 121.152 751.455 121.244 751.823 121.244C752.119 121.244 752.379 121.176 752.603 121.04C752.827 120.896 753.003 120.704 753.131 120.464C753.267 120.224 753.335 119.948 753.335 119.636V118.256C753.335 117.8 753.239 117.472 753.047 117.272C752.855 117.072 752.539 116.972 752.099 116.972C751.763 116.972 751.427 117.024 751.091 117.128C750.755 117.224 750.411 117.38 750.059 117.596L749.687 116.744C749.895 116.6 750.135 116.476 750.407 116.372C750.679 116.268 750.963 116.188 751.259 116.132C751.563 116.068 751.855 116.036 752.135 116.036C752.671 116.036 753.111 116.12 753.455 116.288C753.807 116.456 754.067 116.712 754.235 117.056C754.403 117.4 754.487 117.844 754.487 118.388V122H753.347V120.692H753.455C753.391 120.988 753.271 121.244 753.095 121.46C752.927 121.668 752.715 121.828 752.459 121.94C752.203 122.052 751.911 122.108 751.583 122.108ZM758.065 122.108C757.425 122.108 756.945 121.928 756.625 121.568C756.313 121.2 756.157 120.672 756.157 119.984V113.54H757.369V119.912C757.369 120.168 757.405 120.388 757.477 120.572C757.549 120.748 757.657 120.88 757.801 120.968C757.945 121.056 758.125 121.1 758.341 121.1C758.437 121.1 758.529 121.096 758.617 121.088C758.705 121.08 758.789 121.064 758.869 121.04L758.845 122.012C758.709 122.044 758.577 122.068 758.449 122.084C758.321 122.1 758.193 122.108 758.065 122.108Z" fill="black"/>
</g>
<defs>
<filter id="filter0_di_7044_28062" x="281.25" y="14" width="104" height="104" filterUnits="userSpaceOnUse" color-interpolation-filters="sRGB">
<feFlood flood-opacity="0" result="BackgroundImageFix"/>
<feColorMatrix in="SourceAlpha" type="matrix" values="0 0 0 0 0 0 0 0 0 0 0 0 0 0 0 0 0 0 127 0" result="hardAlpha"/>
<feOffset dy="32"/>
<feGaussianBlur stdDeviation="17"/>
<feComposite in2="hardAlpha" operator="out"/>
<feColorMatrix type="matrix" values="0 0 0 0 0.927807 0 0 0 0 1 0 0 0 0 0.901555 0 0 0 1 0"/>
<feBlend mode="normal" in2="BackgroundImageFix" result="effect1_dropShadow_7044_28062"/>
<feBlend mode="normal" in="SourceGraphic" in2="effect1_dropShadow_7044_28062" result="shape"/>
<feColorMatrix in="SourceAlpha" type="matrix" values="0 0 0 0 0 0 0 0 0 0 0 0 0 0 0 0 0 0 127 0" result="hardAlpha"/>
<feOffset/>
<feGaussianBlur stdDeviation="2"/>
<feComposite in2="hardAlpha" operator="arithmetic" k2="-1" k3="1"/>
<feColorMatrix type="matrix" values="0 0 0 0 1 0 0 0 0 1 0 0 0 0 1 0 0 0 1 0"/>
<feBlend mode="normal" in2="shape" result="effect2_innerShadow_7044_28062"/>
</filter>
<filter id="filter1_di_7044_28062" x="189" y="104" width="104" height="104" filterUnits="userSpaceOnUse" color-interpolation-filters="sRGB">
<feFlood flood-opacity="0" result="BackgroundImageFix"/>
<feColorMatrix in="SourceAlpha" type="matrix" values="0 0 0 0 0 0 0 0 0 0 0 0 0 0 0 0 0 0 127 0" result="hardAlpha"/>
<feOffset dy="32"/>
<feGaussianBlur stdDeviation="17"/>
<feComposite in2="hardAlpha" operator="out"/>
<feColorMatrix type="matrix" values="0 0 0 0 0.921462 0 0 0 0 0.980365 0 0 0 0 1 0 0 0 1 0"/>
<feBlend mode="normal" in2="BackgroundImageFix" result="effect1_dropShadow_7044_28062"/>
<feBlend mode="normal" in="SourceGraphic" in2="effect1_dropShadow_7044_28062" result="shape"/>
<feColorMatrix in="SourceAlpha" type="matrix" values="0 0 0 0 0 0 0 0 0 0 0 0 0 0 0 0 0 0 127 0" result="hardAlpha"/>
<feOffset/>
<feGaussianBlur stdDeviation="2"/>
<feComposite in2="hardAlpha" operator="arithmetic" k2="-1" k3="1"/>
<feColorMatrix type="matrix" values="0 0 0 0 1 0 0 0 0 1 0 0 0 0 1 0 0 0 1 0"/>
<feBlend mode="normal" in2="shape" result="effect2_innerShadow_7044_28062"/>
</filter>
<filter id="filter2_di_7044_28062" x="488.25" y="104" width="104" height="104" filterUnits="userSpaceOnUse" color-interpolation-filters="sRGB">
<feFlood flood-opacity="0" result="BackgroundImageFix"/>
<feColorMatrix in="SourceAlpha" type="matrix" values="0 0 0 0 0 0 0 0 0 0 0 0 0 0 0 0 0 0 127 0" result="hardAlpha"/>
<feOffset dy="32"/>
<feGaussianBlur stdDeviation="17"/>
<feComposite in2="hardAlpha" operator="out"/>
<feColorMatrix type="matrix" values="0 0 0 0 0.778114 0 0 0 0 0.778114 0 0 0 0 0.778114 0 0 0 0.3 0"/>
<feBlend mode="normal" in2="BackgroundImageFix" result="effect1_dropShadow_7044_28062"/>
<feBlend mode="normal" in="SourceGraphic" in2="effect1_dropShadow_7044_28062" result="shape"/>
<feColorMatrix in="SourceAlpha" type="matrix" values="0 0 0 0 0 0 0 0 0 0 0 0 0 0 0 0 0 0 127 0" result="hardAlpha"/>
<feOffset/>
<feGaussianBlur stdDeviation="2"/>
<feComposite in2="hardAlpha" operator="arithmetic" k2="-1" k3="1"/>
<feColorMatrix type="matrix" values="0 0 0 0 1 0 0 0 0 1 0 0 0 0 1 0 0 0 1 0"/>
<feBlend mode="normal" in2="shape" result="effect2_innerShadow_7044_28062"/>
</filter>
<linearGradient id="paint0_linear_7044_28062" x1="333.25" y1="16" x2="333.25" y2="52" gradientUnits="userSpaceOnUse">
<stop stop-color="#28C76F"/>
<stop offset="1" stop-color="#08851D"/>
</linearGradient>
<linearGradient id="paint1_linear_7044_28062" x1="241" y1="106" x2="241" y2="142" gradientUnits="userSpaceOnUse">
<stop stop-color="#4A9BD4"/>
<stop offset="1" stop-color="#26506E"/>
</linearGradient>
<linearGradient id="paint2_linear_7044_28062" x1="540.25" y1="106" x2="540.25" y2="142" gradientUnits="userSpaceOnUse">
<stop/>
<stop offset="1" stop-color="#8D8A94"/>
</linearGradient>
</defs>
</svg>
