<svg width="108" height="70" viewBox="0 0 108 70" fill="none" xmlns="http://www.w3.org/2000/svg">
<g clip-path="url(#clip0_7452_160805)">
<g clip-path="url(#clip1_7452_160805)">
<path d="M24.7876 28.5025L14.7848 33.9303L13.9319 35.4812V46.8797L3.85156 40.909V29.5105L4.93713 28.0372L14.7848 22.6094L24.7876 28.5025Z" fill="white"/>
<path d="M24.7876 28.5025L14.7848 33.9303L13.9319 35.4812V46.8797L3.85156 40.909V29.5105L4.93713 28.0372L14.7848 22.6094L24.7876 28.5025Z" fill="url(#paint0_linear_7452_160805)"/>
<path d="M25.8732 41.8395L15.6378 46.8797V36.0554L16.1335 35.2107L25.8732 29.8982V32.6121L17.8089 36.9544V43.3903L23.702 40.4438V38.7379L20.2902 40.2111V38.1175L25.8732 35.4812V41.8395Z" fill="white"/>
<path d="M25.8732 41.8395L15.6378 46.8797V36.0554L16.1335 35.2107L25.8732 29.8982V32.6121L17.8089 36.9544V43.3903L23.702 40.4438V38.7379L20.2902 40.2111V38.1175L25.8732 35.4812V41.8395Z" fill="url(#paint1_linear_7452_160805)"/>
</g>
</g>
<path d="M39.6795 35.9534C38.4169 35.9534 37.3421 35.7186 36.4551 35.2491C35.5786 34.7795 34.9108 34.1221 34.4517 33.2769C33.9925 32.4317 33.763 31.4456 33.763 30.3186C33.763 29.1499 34.003 28.1378 34.483 27.2821C34.9734 26.416 35.6725 25.7482 36.5804 25.2786C37.4882 24.8091 38.5838 24.5743 39.8673 24.5743C40.3786 24.5743 40.8795 24.6212 41.3699 24.7152C41.8604 24.7986 42.3091 24.9291 42.716 25.1065C43.1334 25.2734 43.4882 25.4717 43.7804 25.7012L42.9038 27.9239C42.4134 27.6108 41.9282 27.3865 41.4482 27.2508C40.9682 27.1047 40.4464 27.0317 39.883 27.0317C38.8291 27.0317 38.0412 27.3134 37.5195 27.8769C37.0082 28.4299 36.7525 29.2439 36.7525 30.3186C36.7525 31.383 37.0134 32.1865 37.5351 32.7291C38.0569 33.2717 38.8291 33.543 39.8517 33.543C40.1647 33.543 40.5038 33.5117 40.8691 33.4491C41.2447 33.3865 41.6204 33.2978 41.996 33.183L41.4638 34.263V31.5865H39.2569V29.5673H43.8117V35.1082C43.4256 35.2856 43.003 35.4369 42.5438 35.5621C42.0951 35.6873 41.6256 35.7812 41.1351 35.8439C40.6551 35.9169 40.1699 35.9534 39.6795 35.9534ZM45.738 35.7812V24.7465H51.0441C52.2962 24.7465 53.2615 25.0543 53.9397 25.6699C54.6284 26.2752 54.9728 27.1204 54.9728 28.2056C54.9728 28.9047 54.8162 29.5152 54.5032 30.0369C54.2006 30.5482 53.7571 30.9447 53.1728 31.2265C52.5989 31.4978 51.8893 31.6334 51.0441 31.6334L51.1693 31.3517H51.9206C52.3693 31.3517 52.7658 31.4612 53.1102 31.6804C53.4545 31.8891 53.7415 32.2126 53.971 32.6508L55.6928 35.7812H52.531L50.6215 32.2752C50.538 32.1186 50.4389 31.9986 50.3241 31.9152C50.2093 31.8317 50.0789 31.7691 49.9328 31.7273C49.7971 31.6856 49.6458 31.6647 49.4789 31.6647H48.618V35.7812H45.738ZM48.618 29.6299H50.5275C51.0806 29.6299 51.5032 29.5204 51.7954 29.3012C52.0875 29.0821 52.2336 28.743 52.2336 28.2839C52.2336 27.8456 52.0875 27.5169 51.7954 27.2978C51.5032 27.0682 51.0806 26.9534 50.5275 26.9534H48.618V29.6299ZM62.0346 35.9534C61.1998 35.9534 60.4381 35.8178 59.7494 35.5465C59.0607 35.2752 58.4659 34.8891 57.965 34.3882C57.4746 33.8769 57.0937 33.2717 56.8224 32.5726C56.5615 31.8734 56.4311 31.1012 56.4311 30.256C56.4311 29.4004 56.5615 28.623 56.8224 27.9239C57.0937 27.2247 57.4746 26.6247 57.965 26.1239C58.4659 25.623 59.0607 25.2421 59.7494 24.9812C60.4381 24.7099 61.1998 24.5743 62.0346 24.5743C62.8694 24.5743 63.6311 24.7099 64.3198 24.9812C65.0085 25.2421 65.5981 25.623 66.0885 26.1239C66.5894 26.6247 66.9702 27.2247 67.2311 27.9239C67.5024 28.6126 67.6381 29.3847 67.6381 30.2404C67.6381 31.1065 67.5024 31.8891 67.2311 32.5882C66.9702 33.2873 66.5894 33.8926 66.0885 34.4039C65.5981 34.9047 65.0085 35.2908 64.3198 35.5621C63.6311 35.823 62.8694 35.9534 62.0346 35.9534ZM62.0346 33.543C62.5876 33.543 63.0572 33.4126 63.4433 33.1517C63.8294 32.8908 64.1268 32.5152 64.3355 32.0247C64.5442 31.5343 64.6485 30.9447 64.6485 30.256C64.6485 29.5673 64.5442 28.9778 64.3355 28.4873C64.1372 27.9969 63.8398 27.6265 63.4433 27.376C63.0572 27.1152 62.5876 26.9847 62.0346 26.9847C61.492 26.9847 61.0224 27.1152 60.6259 27.376C60.2398 27.6265 59.9424 27.9969 59.7337 28.4873C59.525 28.9778 59.4207 29.5673 59.4207 30.256C59.4207 30.9447 59.5198 31.5343 59.7181 32.0247C59.9268 32.5152 60.2294 32.8908 60.6259 33.1517C61.0224 33.4126 61.492 33.543 62.0346 33.543ZM72.1785 35.7812L68.2185 24.7465H71.1611L73.822 32.7291H73.0864L75.9507 24.7465H77.9855L80.6777 32.7291H80.0516L82.7751 24.7465H85.5455L81.5542 35.7812H79.2533L76.702 28.5969H77.0933L74.4794 35.7812H72.1785ZM90.3653 35.7812L85.3409 24.7465H88.4087L92.0087 33.1047H91.1322L94.7322 24.7465H97.6905L92.6505 35.7812H90.3653ZM98.3195 35.7812V24.7465H106.114V26.9691H101.074V29.0665H105.754V31.2891H101.074V33.5586H106.114V35.7812H98.3195Z" fill="white"/>
<path d="M39.6795 35.9534C38.4169 35.9534 37.3421 35.7186 36.4551 35.2491C35.5786 34.7795 34.9108 34.1221 34.4517 33.2769C33.9925 32.4317 33.763 31.4456 33.763 30.3186C33.763 29.1499 34.003 28.1378 34.483 27.2821C34.9734 26.416 35.6725 25.7482 36.5804 25.2786C37.4882 24.8091 38.5838 24.5743 39.8673 24.5743C40.3786 24.5743 40.8795 24.6212 41.3699 24.7152C41.8604 24.7986 42.3091 24.9291 42.716 25.1065C43.1334 25.2734 43.4882 25.4717 43.7804 25.7012L42.9038 27.9239C42.4134 27.6108 41.9282 27.3865 41.4482 27.2508C40.9682 27.1047 40.4464 27.0317 39.883 27.0317C38.8291 27.0317 38.0412 27.3134 37.5195 27.8769C37.0082 28.4299 36.7525 29.2439 36.7525 30.3186C36.7525 31.383 37.0134 32.1865 37.5351 32.7291C38.0569 33.2717 38.8291 33.543 39.8517 33.543C40.1647 33.543 40.5038 33.5117 40.8691 33.4491C41.2447 33.3865 41.6204 33.2978 41.996 33.183L41.4638 34.263V31.5865H39.2569V29.5673H43.8117V35.1082C43.4256 35.2856 43.003 35.4369 42.5438 35.5621C42.0951 35.6873 41.6256 35.7812 41.1351 35.8439C40.6551 35.9169 40.1699 35.9534 39.6795 35.9534ZM45.738 35.7812V24.7465H51.0441C52.2962 24.7465 53.2615 25.0543 53.9397 25.6699C54.6284 26.2752 54.9728 27.1204 54.9728 28.2056C54.9728 28.9047 54.8162 29.5152 54.5032 30.0369C54.2006 30.5482 53.7571 30.9447 53.1728 31.2265C52.5989 31.4978 51.8893 31.6334 51.0441 31.6334L51.1693 31.3517H51.9206C52.3693 31.3517 52.7658 31.4612 53.1102 31.6804C53.4545 31.8891 53.7415 32.2126 53.971 32.6508L55.6928 35.7812H52.531L50.6215 32.2752C50.538 32.1186 50.4389 31.9986 50.3241 31.9152C50.2093 31.8317 50.0789 31.7691 49.9328 31.7273C49.7971 31.6856 49.6458 31.6647 49.4789 31.6647H48.618V35.7812H45.738ZM48.618 29.6299H50.5275C51.0806 29.6299 51.5032 29.5204 51.7954 29.3012C52.0875 29.0821 52.2336 28.743 52.2336 28.2839C52.2336 27.8456 52.0875 27.5169 51.7954 27.2978C51.5032 27.0682 51.0806 26.9534 50.5275 26.9534H48.618V29.6299ZM62.0346 35.9534C61.1998 35.9534 60.4381 35.8178 59.7494 35.5465C59.0607 35.2752 58.4659 34.8891 57.965 34.3882C57.4746 33.8769 57.0937 33.2717 56.8224 32.5726C56.5615 31.8734 56.4311 31.1012 56.4311 30.256C56.4311 29.4004 56.5615 28.623 56.8224 27.9239C57.0937 27.2247 57.4746 26.6247 57.965 26.1239C58.4659 25.623 59.0607 25.2421 59.7494 24.9812C60.4381 24.7099 61.1998 24.5743 62.0346 24.5743C62.8694 24.5743 63.6311 24.7099 64.3198 24.9812C65.0085 25.2421 65.5981 25.623 66.0885 26.1239C66.5894 26.6247 66.9702 27.2247 67.2311 27.9239C67.5024 28.6126 67.6381 29.3847 67.6381 30.2404C67.6381 31.1065 67.5024 31.8891 67.2311 32.5882C66.9702 33.2873 66.5894 33.8926 66.0885 34.4039C65.5981 34.9047 65.0085 35.2908 64.3198 35.5621C63.6311 35.823 62.8694 35.9534 62.0346 35.9534ZM62.0346 33.543C62.5876 33.543 63.0572 33.4126 63.4433 33.1517C63.8294 32.8908 64.1268 32.5152 64.3355 32.0247C64.5442 31.5343 64.6485 30.9447 64.6485 30.256C64.6485 29.5673 64.5442 28.9778 64.3355 28.4873C64.1372 27.9969 63.8398 27.6265 63.4433 27.376C63.0572 27.1152 62.5876 26.9847 62.0346 26.9847C61.492 26.9847 61.0224 27.1152 60.6259 27.376C60.2398 27.6265 59.9424 27.9969 59.7337 28.4873C59.525 28.9778 59.4207 29.5673 59.4207 30.256C59.4207 30.9447 59.5198 31.5343 59.7181 32.0247C59.9268 32.5152 60.2294 32.8908 60.6259 33.1517C61.0224 33.4126 61.492 33.543 62.0346 33.543ZM72.1785 35.7812L68.2185 24.7465H71.1611L73.822 32.7291H73.0864L75.9507 24.7465H77.9855L80.6777 32.7291H80.0516L82.7751 24.7465H85.5455L81.5542 35.7812H79.2533L76.702 28.5969H77.0933L74.4794 35.7812H72.1785ZM90.3653 35.7812L85.3409 24.7465H88.4087L92.0087 33.1047H91.1322L94.7322 24.7465H97.6905L92.6505 35.7812H90.3653ZM98.3195 35.7812V24.7465H106.114V26.9691H101.074V29.0665H105.754V31.2891H101.074V33.5586H106.114V35.7812H98.3195Z" fill="url(#paint2_linear_7452_160805)"/>
<path d="M35.5326 46.7812V41.8769H36.1656V46.2178H38.656V46.7812H35.5326ZM43.1546 46.8439C42.8021 46.8439 42.4844 46.7859 42.2015 46.6699C41.9186 46.554 41.6775 46.387 41.478 46.1691C41.2786 45.9511 41.1256 45.6891 41.0189 45.383C40.9169 45.0723 40.8659 44.7198 40.8659 44.3256C40.8659 43.936 40.9169 43.5882 41.0189 43.2821C41.1256 42.9714 41.2786 42.707 41.478 42.4891C41.6775 42.2711 41.9163 42.1041 42.1946 41.9882C42.4775 41.8723 42.7975 41.8143 43.1546 41.8143C43.507 41.8143 43.8247 41.8723 44.1076 41.9882C44.3905 42.1041 44.6317 42.2711 44.8311 42.4891C45.0305 42.7024 45.1812 42.9644 45.2833 43.2752C45.3899 43.5859 45.4433 43.9337 45.4433 44.3186C45.4433 44.7128 45.3899 45.0653 45.2833 45.376C45.1766 45.6868 45.0236 45.9511 44.8241 46.1691C44.6293 46.387 44.3905 46.554 44.1076 46.6699C43.8247 46.7859 43.507 46.8439 43.1546 46.8439ZM43.1546 46.2734C43.4978 46.2734 43.7899 46.1992 44.0311 46.0508C44.2769 45.9024 44.4647 45.6844 44.5946 45.3969C44.7244 45.1047 44.7893 44.7476 44.7893 44.3256C44.7893 43.8989 44.7244 43.5441 44.5946 43.2612C44.4693 42.9737 44.2838 42.7557 44.038 42.6073C43.7969 42.4589 43.5024 42.3847 43.1546 42.3847C42.8114 42.3847 42.5169 42.4589 42.2711 42.6073C42.0299 42.7557 41.8444 42.9737 41.7146 43.2612C41.5847 43.5441 41.5198 43.8989 41.5198 44.3256C41.5198 44.7476 41.5847 45.1024 41.7146 45.3899C41.8444 45.6775 42.0299 45.8978 42.2711 46.0508C42.5169 46.1992 42.8114 46.2734 43.1546 46.2734ZM50.6496 46.8439C50.1394 46.8439 49.7012 46.7441 49.3348 46.5447C48.973 46.3453 48.6948 46.0601 48.5 45.6891C48.3099 45.3134 48.2148 44.8589 48.2148 44.3256C48.2148 43.8015 48.3075 43.3517 48.493 42.976C48.6832 42.6004 48.9545 42.3128 49.307 42.1134C49.6641 41.914 50.0861 41.8143 50.573 41.8143C50.8188 41.8143 51.0507 41.8375 51.2687 41.8839C51.4913 41.9302 51.6954 41.9998 51.8809 42.0926C52.071 42.1807 52.231 42.292 52.3609 42.4265L52.1243 42.9134C51.9064 42.7279 51.6699 42.5934 51.4148 42.5099C51.1597 42.4265 50.8791 42.3847 50.573 42.3847C50.0351 42.3847 49.6154 42.5494 49.3139 42.8786C49.0171 43.2079 48.8687 43.6902 48.8687 44.3256C48.8687 44.9841 49.0241 45.4757 49.3348 45.8004C49.6455 46.1204 50.0907 46.2804 50.6704 46.2804C50.9394 46.2804 51.1875 46.2618 51.4148 46.2247C51.6467 46.183 51.853 46.1227 52.0339 46.0439L51.8461 46.4126V44.7152H50.6217V44.1656H52.4235V46.496C52.2936 46.561 52.129 46.6212 51.9296 46.6769C51.7348 46.7279 51.5261 46.7673 51.3035 46.7952C51.0809 46.8276 50.8629 46.8439 50.6496 46.8439ZM55.5277 46.7812V41.8769H56.1607V46.7812H55.5277ZM60.993 46.8439C60.7194 46.8439 60.4597 46.823 60.2139 46.7812C59.9681 46.7441 59.7431 46.6839 59.5391 46.6004C59.3397 46.5169 59.1657 46.4149 59.0173 46.2943L59.2469 45.7656C59.4092 45.8955 59.5808 45.9975 59.7617 46.0717C59.9472 46.1459 60.142 46.1992 60.346 46.2317C60.5501 46.2595 60.7657 46.2734 60.993 46.2734C61.3686 46.2734 61.6585 46.1992 61.8626 46.0508C62.0713 45.8978 62.1756 45.6868 62.1756 45.4178C62.1756 45.274 62.1408 45.1581 62.0713 45.0699C62.0063 44.9772 61.902 44.903 61.7582 44.8473C61.6191 44.787 61.4359 44.736 61.2086 44.6943L60.4017 44.5343C59.9472 44.4462 59.6202 44.2908 59.4208 44.0682C59.2214 43.8456 59.1217 43.565 59.1217 43.2265C59.1217 42.9389 59.2052 42.6908 59.3721 42.4821C59.5391 42.2688 59.7663 42.1041 60.0539 41.9882C60.3414 41.8723 60.6684 41.8143 61.0347 41.8143C61.2713 41.8143 61.4915 41.8375 61.6956 41.8839C61.8997 41.9256 62.0852 41.9905 62.2521 42.0786C62.4237 42.1621 62.5768 42.2665 62.7113 42.3917L62.4747 42.9134C62.2753 42.7186 62.0573 42.5818 61.8208 42.503C61.5843 42.4241 61.3223 42.3847 61.0347 42.3847C60.7936 42.3847 60.5756 42.4172 60.3808 42.4821C60.1907 42.547 60.0399 42.6421 59.9286 42.7673C59.8173 42.8926 59.7617 43.0479 59.7617 43.2334C59.7617 43.4328 59.8243 43.5905 59.9495 43.7065C60.0747 43.8224 60.295 43.9105 60.6104 43.9708L61.4173 44.1239C61.895 44.212 62.2475 44.3627 62.4747 44.576C62.702 44.7847 62.8156 45.056 62.8156 45.3899C62.8156 45.6728 62.7391 45.9233 62.586 46.1412C62.4376 46.3592 62.2266 46.5308 61.953 46.656C61.6794 46.7812 61.3594 46.8439 60.993 46.8439ZM66.7345 46.7812V42.4404H64.9676V41.8769H69.1276V42.4404H67.3676V46.7812H66.7345ZM71.732 46.7812V41.8769H72.3651V46.7812H71.732ZM77.6286 46.8439C77.1602 46.8439 76.7521 46.7441 76.4043 46.5447C76.0611 46.3407 75.7968 46.0508 75.6113 45.6752C75.4257 45.2995 75.333 44.8497 75.333 44.3256C75.333 43.8015 75.4257 43.354 75.6113 42.983C75.7968 42.6073 76.0611 42.3198 76.4043 42.1204C76.7475 41.9163 77.1556 41.8143 77.6286 41.8143C77.9718 41.8143 78.2826 41.8653 78.5608 41.9673C78.8437 42.0694 79.0872 42.2224 79.2913 42.4265L79.0478 42.9204C78.8344 42.7302 78.6141 42.5957 78.3869 42.5169C78.1643 42.4334 77.9162 42.3917 77.6426 42.3917C77.1278 42.3917 76.722 42.5563 76.4252 42.8856C76.133 43.2102 75.9869 43.6902 75.9869 44.3256C75.9869 44.9563 76.133 45.4386 76.4252 45.7726C76.7173 46.1018 77.1231 46.2665 77.6426 46.2665C77.9162 46.2665 78.1643 46.227 78.3869 46.1482C78.6141 46.0647 78.8344 45.9279 79.0478 45.7378L79.2913 46.2317C79.0872 46.4357 78.8437 46.5888 78.5608 46.6908C78.2826 46.7928 77.9718 46.8439 77.6286 46.8439ZM83.7446 46.8439C83.471 46.8439 83.2113 46.823 82.9655 46.7812C82.7197 46.7441 82.4948 46.6839 82.2907 46.6004C82.0913 46.5169 81.9174 46.4149 81.769 46.2943L81.9985 45.7656C82.1609 45.8955 82.3324 45.9975 82.5133 46.0717C82.6988 46.1459 82.8936 46.1992 83.0977 46.2317C83.3017 46.2595 83.5174 46.2734 83.7446 46.2734C84.1203 46.2734 84.4101 46.1992 84.6142 46.0508C84.8229 45.8978 84.9272 45.6868 84.9272 45.4178C84.9272 45.274 84.8924 45.1581 84.8229 45.0699C84.758 44.9772 84.6536 44.903 84.5098 44.8473C84.3707 44.787 84.1875 44.736 83.9603 44.6943L83.1533 44.5343C82.6988 44.4462 82.3719 44.2908 82.1724 44.0682C81.973 43.8456 81.8733 43.565 81.8733 43.2265C81.8733 42.9389 81.9568 42.6908 82.1238 42.4821C82.2907 42.2688 82.518 42.1041 82.8055 41.9882C83.093 41.8723 83.42 41.8143 83.7864 41.8143C84.0229 41.8143 84.2432 41.8375 84.4472 41.8839C84.6513 41.9256 84.8368 41.9905 85.0038 42.0786C85.1753 42.1621 85.3284 42.2665 85.4629 42.3917L85.2264 42.9134C85.0269 42.7186 84.809 42.5818 84.5724 42.503C84.3359 42.4241 84.0739 42.3847 83.7864 42.3847C83.5452 42.3847 83.3272 42.4172 83.1324 42.4821C82.9423 42.547 82.7916 42.6421 82.6803 42.7673C82.569 42.8926 82.5133 43.0479 82.5133 43.2334C82.5133 43.4328 82.5759 43.5905 82.7011 43.7065C82.8264 43.8224 83.0466 43.9105 83.362 43.9708L84.169 44.1239C84.6466 44.212 84.9991 44.3627 85.2264 44.576C85.4536 44.7847 85.5672 45.056 85.5672 45.3899C85.5672 45.6728 85.4907 45.9233 85.3377 46.1412C85.1893 46.3592 84.9782 46.5308 84.7046 46.656C84.431 46.7812 84.111 46.8439 83.7446 46.8439Z" fill="#ACABC1"/>
<defs>
<linearGradient id="paint0_linear_7452_160805" x1="-15" y1="13.5" x2="82.1431" y2="-6.6639" gradientUnits="userSpaceOnUse">
<stop stop-color="#717171"/>
<stop offset="0.230387" stop-color="#CBCBCB"/>
<stop offset="0.461876" stop-color="#F8F8F8"/>
<stop offset="0.678823" stop-color="#D1D1D1"/>
<stop offset="1" stop-color="#717171"/>
</linearGradient>
<linearGradient id="paint1_linear_7452_160805" x1="-15" y1="13.5" x2="82.1431" y2="-6.6639" gradientUnits="userSpaceOnUse">
<stop stop-color="#717171"/>
<stop offset="0.230387" stop-color="#CBCBCB"/>
<stop offset="0.461876" stop-color="#F8F8F8"/>
<stop offset="0.678823" stop-color="#D1D1D1"/>
<stop offset="1" stop-color="#717171"/>
</linearGradient>
<linearGradient id="paint2_linear_7452_160805" x1="16" y1="21" x2="114.183" y2="56.5826" gradientUnits="userSpaceOnUse">
<stop stop-color="#717171"/>
<stop offset="0.230387" stop-color="#CBCBCB"/>
<stop offset="0.461876" stop-color="#F8F8F8"/>
<stop offset="0.678823" stop-color="#D1D1D1"/>
<stop offset="1" stop-color="#717171"/>
</linearGradient>
<clipPath id="clip0_7452_160805">
<rect width="29.5652" height="29.5652" fill="white" transform="translate(0 20)"/>
</clipPath>
<clipPath id="clip1_7452_160805">
<rect width="24.3478" height="24.3478" fill="white" transform="translate(2.60938 22.6094)"/>
</clipPath>
</defs>
</svg>
