<svg width="338" height="280" viewBox="0 0 338 280" fill="none" xmlns="http://www.w3.org/2000/svg">
<rect x="0.5" y="0.5" width="336.333" height="279" rx="11.5" fill="white"/>
<rect x="0.5" y="0.5" width="336.333" height="279" rx="11.5" stroke="#EAEAEC"/>
<rect x="19.4323" y="67.4323" width="299.135" height="146.11" rx="9.94236" fill="#F5F5F6"/>
<rect x="19.4323" y="67.4323" width="299.135" height="146.11" rx="9.94236" stroke="white" stroke-width="0.864553"/>
<rect x="32.832" y="84.291" width="34.5821" height="34.5821" rx="5.18732" fill="white"/>
<path fill-rule="evenodd" clip-rule="evenodd" d="M49.5916 93.9674C49.7531 93.8749 49.936 93.8262 50.1222 93.8262C50.3083 93.8262 50.4912 93.8749 50.6527 93.9674L56.5962 97.3106C56.7625 97.405 56.9009 97.5416 56.9975 97.7066C57.0942 97.8716 57.1456 98.0592 57.1466 98.2504L57.1467 98.2533L57.1466 104.913H56.6063L57.1466 104.916C57.1456 105.107 57.0942 105.295 56.9975 105.46C56.9009 105.625 56.7625 105.761 56.5962 105.856L56.5943 105.857L50.6527 109.199C50.4912 109.291 50.3083 109.34 50.1222 109.34C49.936 109.34 49.7531 109.291 49.5917 109.199L43.65 105.857L43.6481 105.856C43.4818 105.761 43.3434 105.625 43.2468 105.46C43.1501 105.295 43.0987 105.107 43.0977 104.916L43.0977 104.913V98.2504C43.0987 98.0592 43.1501 97.8716 43.2468 97.7066C43.3434 97.5416 43.4818 97.405 43.6481 97.3106L43.65 97.3095L49.5916 93.9674ZM56.066 104.91V98.2559C56.0659 98.2548 56.0656 98.2538 56.065 98.2528C56.0645 98.2519 56.0637 98.251 56.0627 98.2505C56.0627 98.2504 56.0628 98.2505 56.0627 98.2505L50.1222 94.9089L44.1818 98.2504C44.1817 98.2504 44.1818 98.2503 44.1818 98.2504C44.1808 98.2509 44.1798 98.2519 44.1793 98.2528C44.1787 98.2538 44.1784 98.2548 44.1783 98.2559V104.91C44.1784 104.912 44.1787 104.913 44.1793 104.914C44.1798 104.914 44.1806 104.915 44.1816 104.916C44.1815 104.916 44.1816 104.916 44.1816 104.916L50.1222 108.257L56.0625 104.916C56.0625 104.916 56.0626 104.916 56.0625 104.916C56.0635 104.915 56.0645 104.914 56.065 104.914C56.0656 104.913 56.0659 104.912 56.066 104.91Z" fill="#FBC942"/>
<path fill-rule="evenodd" clip-rule="evenodd" d="M46.4069 95.8512C46.5511 95.5899 46.8797 95.4949 47.141 95.639L53.6927 99.2526C53.8651 99.3476 53.9721 99.5289 53.9721 99.7257V103.238C53.9721 103.536 53.7302 103.778 53.4318 103.778C53.1333 103.778 52.8914 103.536 52.8914 103.238V100.045L46.6191 96.5853C46.3578 96.4412 46.2628 96.1125 46.4069 95.8512Z" fill="#FBC942"/>
<path d="M43.9754 97.5044C43.7147 97.3591 43.3856 97.4526 43.2403 97.7133C43.095 97.9739 43.1886 98.303 43.4492 98.4483L49.6399 101.899L49.5818 108.792C49.5793 109.091 49.8192 109.335 50.1176 109.337C50.416 109.34 50.66 109.1 50.6625 108.801L50.7206 101.899L56.7989 98.4462C57.0584 98.2988 57.1492 97.9689 57.0018 97.7095C56.8544 97.45 56.5246 97.3591 56.2651 97.5065L50.1804 100.963L43.9754 97.5044Z" fill="#FBC942"/>
<path d="M77.039 96.8535L77.4505 94.7717H76.5912V93.8034H77.6321L78.1283 91.2737H76.8453V90.3054H78.2978L78.6972 88.3204H79.7502L79.3508 90.3054H80.8759L81.2753 88.3204H82.3283L81.9289 90.3054H82.7883V91.2737H81.7474L81.2511 93.8034H82.5341V94.7717H81.0816L80.6701 96.8535H79.6171L80.0286 94.7717H78.5036L78.092 96.8535H77.039ZM78.6851 93.8034H80.1981L80.6943 91.2737H79.1814L78.6851 93.8034ZM88.3513 96.9746C87.4072 96.9746 86.6083 96.797 85.9547 96.442C85.3092 96.0869 84.817 95.5826 84.4781 94.929C84.1392 94.2754 83.9697 93.5008 83.9697 92.6051C83.9697 91.7014 84.1432 90.9227 84.4902 90.2691C84.8372 89.6074 85.3374 89.099 85.991 88.744C86.6446 88.3809 87.4274 88.1993 88.3392 88.1993C88.7426 88.1993 89.1259 88.2397 89.489 88.3204C89.8602 88.393 90.2031 88.5019 90.5178 88.6472C90.8325 88.7924 91.1029 88.9699 91.3288 89.1797L90.8083 90.3901C90.4291 90.0916 90.0418 89.8777 89.6464 89.7486C89.251 89.6195 88.8152 89.555 88.3392 89.555C87.4354 89.555 86.7495 89.8172 86.2815 90.3417C85.8216 90.8662 85.5916 91.6207 85.5916 92.6051C85.5916 93.5976 85.8297 94.3521 86.3057 94.8685C86.7818 95.3849 87.4879 95.6431 88.4239 95.6431C88.7467 95.6431 89.0735 95.6109 89.4043 95.5463C89.7351 95.4818 90.0579 95.393 90.3726 95.28L90.07 95.9699V93.3918H88.1092V92.242H91.3651V96.3452C91.1069 96.4743 90.8083 96.5872 90.4694 96.6841C90.1386 96.7728 89.7916 96.8414 89.4285 96.8898C89.0654 96.9463 88.7063 96.9746 88.3513 96.9746ZM93.1604 96.8535V88.3204H96.8642C97.8002 88.3204 98.5224 88.5463 99.0307 88.9982C99.5391 89.442 99.7933 90.0673 99.7933 90.8743C99.7933 91.3988 99.6763 91.8506 99.4423 92.2299C99.2163 92.6091 98.8855 92.8996 98.4498 93.1014C98.014 93.3031 97.4855 93.4039 96.8642 93.4039L96.9731 93.2224H97.3725C97.7034 93.2224 97.9898 93.3031 98.2319 93.4645C98.482 93.6258 98.6999 93.88 98.8855 94.227L100.314 96.8535H98.6071L97.1305 94.1302C97.0336 93.9527 96.9247 93.8155 96.8037 93.7186C96.6826 93.6137 96.5454 93.5411 96.3921 93.5008C96.2388 93.4604 96.0613 93.4403 95.8596 93.4403H94.7097V96.8535H93.1604ZM94.7097 92.2904H96.5979C97.1547 92.2904 97.5743 92.1774 97.8567 91.9515C98.1472 91.7175 98.2924 91.3705 98.2924 90.9106C98.2924 90.4587 98.1472 90.1198 97.8567 89.8939C97.5743 89.6599 97.1547 89.5429 96.5979 89.5429H94.7097V92.2904ZM104.04 96.8535L100.239 88.3204H101.898L104.984 95.4737H104.464L107.538 88.3204H109.136L105.335 96.8535H104.04ZM109.221 94.2149V93.0045H112.828V94.2149H109.221ZM117.35 96.9746C116.979 96.9746 116.612 96.9342 116.249 96.8535C115.894 96.7728 115.559 96.6599 115.244 96.5146C114.937 96.3694 114.671 96.1999 114.445 96.0063L114.954 94.8201C115.325 95.1025 115.708 95.3163 116.103 95.4616C116.499 95.5988 116.906 95.6673 117.326 95.6673C117.834 95.6673 118.23 95.5382 118.512 95.28C118.803 95.0137 118.948 94.6587 118.948 94.2149C118.948 93.763 118.811 93.3999 118.536 93.1256C118.262 92.8431 117.887 92.7019 117.411 92.7019C117.064 92.7019 116.753 92.7705 116.479 92.9077C116.204 93.0368 115.954 93.2385 115.728 93.5129H114.687V88.3204H119.928V89.6034H116.2V92.3146H115.801C116.011 92.0322 116.285 91.8143 116.624 91.661C116.971 91.5077 117.354 91.431 117.774 91.431C118.314 91.431 118.782 91.548 119.178 91.782C119.581 92.008 119.892 92.3267 120.11 92.7382C120.336 93.1417 120.449 93.6137 120.449 94.1544C120.449 94.7112 120.324 95.2034 120.073 95.631C119.823 96.0506 119.464 96.3815 118.996 96.6235C118.536 96.8576 117.988 96.9746 117.35 96.9746ZM122.223 96.8535V95.5705H124.148V89.6276H124.898L122.659 90.9832L122.054 89.8454L124.596 88.3204H125.697V95.5705H127.5V96.8535H122.223ZM131.793 96.9746C131.123 96.9746 130.554 96.8051 130.086 96.4662C129.626 96.1192 129.275 95.6189 129.033 94.9653C128.799 94.3117 128.682 93.5129 128.682 92.5688C128.682 91.6166 128.799 90.8178 129.033 90.1722C129.275 89.5186 129.626 89.0264 130.086 88.6956C130.554 88.3648 131.123 88.1993 131.793 88.1993C132.47 88.1993 133.039 88.3648 133.499 88.6956C133.967 89.0264 134.318 89.5146 134.552 90.1601C134.786 90.8057 134.903 91.6045 134.903 92.5567C134.903 93.5008 134.782 94.3037 134.54 94.9653C134.306 95.6189 133.959 96.1192 133.499 96.4662C133.039 96.8051 132.47 96.9746 131.793 96.9746ZM131.793 95.7037C132.341 95.7037 132.745 95.4535 133.003 94.9532C133.269 94.4449 133.402 93.646 133.402 92.5567C133.402 91.4754 133.269 90.6927 133.003 90.2086C132.745 89.7163 132.341 89.4702 131.793 89.4702C131.252 89.4702 130.848 89.7163 130.582 90.2086C130.316 90.6927 130.183 91.4795 130.183 92.5688C130.183 93.6501 130.316 94.4449 130.582 94.9532C130.848 95.4535 131.252 95.7037 131.793 95.7037ZM139.05 96.9746C138.38 96.9746 137.811 96.8051 137.343 96.4662C136.884 96.1192 136.533 95.6189 136.29 94.9653C136.056 94.3117 135.939 93.5129 135.939 92.5688C135.939 91.6166 136.056 90.8178 136.29 90.1722C136.533 89.5186 136.884 89.0264 137.343 88.6956C137.811 88.3648 138.38 88.1993 139.05 88.1993C139.728 88.1993 140.297 88.3648 140.757 88.6956C141.225 89.0264 141.576 89.5146 141.81 90.1601C142.044 90.8057 142.161 91.6045 142.161 92.5567C142.161 93.5008 142.04 94.3037 141.798 94.9653C141.564 95.6189 141.217 96.1192 140.757 96.4662C140.297 96.8051 139.728 96.9746 139.05 96.9746ZM139.05 95.7037C139.599 95.7037 140.002 95.4535 140.26 94.9532C140.527 94.4449 140.66 93.646 140.66 92.5567C140.66 91.4754 140.527 90.6927 140.26 90.2086C140.002 89.7163 139.599 89.4702 139.05 89.4702C138.509 89.4702 138.106 89.7163 137.84 90.2086C137.573 90.6927 137.44 91.4795 137.44 92.5688C137.44 93.6501 137.573 94.4449 137.84 94.9532C138.106 95.4535 138.509 95.7037 139.05 95.7037ZM143.645 96.8535V95.7037L146.404 92.7624C146.655 92.4962 146.852 92.2501 146.998 92.0241C147.151 91.7982 147.264 91.5803 147.336 91.3705C147.409 91.1607 147.445 90.9509 147.445 90.7411C147.445 90.3377 147.316 90.031 147.058 89.8212C146.808 89.6114 146.441 89.5065 145.957 89.5065C145.577 89.5065 145.206 89.5792 144.843 89.7244C144.488 89.8616 144.145 90.0795 143.814 90.378L143.294 89.2161C143.633 88.9094 144.056 88.6633 144.565 88.4777C145.073 88.2921 145.602 88.1993 146.15 88.1993C146.764 88.1993 147.28 88.2921 147.7 88.4777C148.119 88.6633 148.438 88.9336 148.656 89.2887C148.874 89.6437 148.983 90.0754 148.983 90.5838C148.983 90.842 148.95 91.0962 148.886 91.3463C148.829 91.5884 148.736 91.8305 148.607 92.0725C148.486 92.3146 148.329 92.5648 148.135 92.823C147.95 93.0731 147.724 93.3354 147.457 93.6097L145.182 95.982V95.5705H149.309V96.8535H143.645Z" fill="black"/>
<path d="M154.438 96.3535V89.6489H158.708V90.3527H155.265V92.6351H158.518V93.3388H155.265V96.3535H154.438ZM161.879 96.4391C161.366 96.4391 160.922 96.344 160.548 96.1538C160.18 95.9573 159.895 95.6783 159.692 95.3169C159.495 94.9555 159.397 94.5244 159.397 94.0235C159.397 93.548 159.492 93.1296 159.682 92.7682C159.873 92.4005 160.139 92.1152 160.481 91.9123C160.824 91.7031 161.226 91.5985 161.689 91.5985C162.139 91.5985 162.52 91.6936 162.83 91.8838C163.141 92.074 163.379 92.3434 163.544 92.6921C163.708 93.0408 163.791 93.4593 163.791 93.9475V94.2233H160.015V93.6622H163.258L163.087 93.8238C163.087 93.3103 162.967 92.914 162.726 92.6351C162.491 92.3561 162.149 92.2166 161.699 92.2166C161.394 92.2166 161.128 92.2895 160.9 92.4354C160.672 92.5748 160.494 92.7714 160.367 93.025C160.247 93.2786 160.187 93.5797 160.187 93.9284V94.0045C160.187 94.3913 160.253 94.7178 160.386 94.9841C160.519 95.244 160.713 95.4405 160.966 95.5737C161.22 95.7068 161.524 95.7734 161.879 95.7734C162.146 95.7734 162.412 95.7354 162.678 95.6593C162.944 95.5769 163.192 95.4405 163.42 95.2503L163.696 95.84C163.474 96.0365 163.195 96.1855 162.859 96.2869C162.529 96.3884 162.203 96.4391 161.879 96.4391ZM166.914 96.4391C166.489 96.4391 166.115 96.3408 165.792 96.1443C165.475 95.9414 165.227 95.6593 165.05 95.2979C164.879 94.9302 164.793 94.5022 164.793 94.014C164.793 93.5258 164.879 93.1011 165.05 92.7397C165.227 92.3783 165.475 92.0993 165.792 91.9028C166.109 91.6999 166.479 91.5985 166.904 91.5985C167.31 91.5985 167.659 91.6967 167.95 91.8933C168.248 92.0898 168.458 92.3593 168.578 92.7016H168.53V89.6489H169.348V96.3535H168.578V95.2979H168.616C168.489 95.6529 168.277 95.9319 167.979 96.1348C167.681 96.3377 167.326 96.4391 166.914 96.4391ZM167.085 95.7734C167.535 95.7734 167.89 95.6181 168.15 95.3074C168.416 94.9967 168.55 94.5656 168.55 94.014C168.55 93.4624 168.416 93.0345 168.15 92.7302C167.89 92.4195 167.535 92.2642 167.085 92.2642C166.635 92.2642 166.277 92.4195 166.01 92.7302C165.75 93.0345 165.62 93.4624 165.62 94.014C165.62 94.5656 165.75 94.9967 166.01 95.3074C166.277 95.6181 166.635 95.7734 167.085 95.7734ZM171.071 96.3535V89.6489H175.399V90.3527H171.889V92.597H175.199V93.3103H171.889V95.6498H175.399V96.3535H171.071ZM176.228 96.3535L178.215 93.7382L178.225 94.1662L176.323 91.6841H177.264L178.643 93.5195H178.51L179.899 91.6841H180.831L178.938 94.1472L178.948 93.7573L180.935 96.3535H179.984L178.501 94.4039H178.643L177.16 96.3535H176.228Z" fill="#6D6B77"/>
<path d="M76.9318 114.312V108.217H79.4217C80.0788 108.217 80.586 108.367 80.9433 108.667C81.3007 108.967 81.4793 109.402 81.4793 109.972C81.4793 110.301 81.4102 110.586 81.2719 110.828C81.1393 111.07 80.9491 111.261 80.7012 111.399C80.4592 111.537 80.1681 111.624 79.828 111.658L79.8713 111.632L79.975 111.65C80.1306 111.667 80.269 111.727 80.39 111.831C80.511 111.929 80.6292 112.085 80.7445 112.298L81.8165 114.312H80.9779L79.9577 112.393C79.8713 112.232 79.7762 112.108 79.6724 112.021C79.5744 111.929 79.4563 111.866 79.318 111.831C79.1854 111.797 79.024 111.779 78.8338 111.779H77.6926V114.312H76.9318ZM77.6926 111.148H79.3612C79.828 111.148 80.171 111.053 80.39 110.863C80.609 110.667 80.7185 110.376 80.7185 109.99C80.7185 109.604 80.6033 109.321 80.3727 109.142C80.1479 108.958 79.8021 108.866 79.3353 108.866H77.6926V111.148ZM84.8791 114.39C84.4065 114.39 83.9973 114.304 83.6515 114.131C83.3114 113.952 83.0492 113.699 82.8647 113.37C82.6803 113.036 82.5881 112.641 82.5881 112.186C82.5881 111.753 82.6745 111.373 82.8474 111.044C83.0203 110.71 83.2624 110.448 83.5737 110.258C83.8907 110.068 84.2653 109.972 84.6976 109.972C85.1068 109.972 85.4555 110.062 85.7437 110.24C86.0319 110.413 86.2509 110.661 86.4007 110.984C86.5564 111.307 86.6342 111.69 86.6342 112.134V112.385H83.1587V111.857H86.1327L85.9771 112.021C85.9771 111.549 85.8676 111.186 85.6486 110.932C85.4296 110.678 85.1126 110.552 84.6976 110.552C84.4209 110.552 84.1788 110.615 83.9714 110.742C83.7639 110.869 83.6025 111.047 83.4872 111.278C83.3777 111.503 83.3229 111.774 83.3229 112.091V112.168C83.3229 112.52 83.3835 112.814 83.5045 113.05C83.6255 113.287 83.8042 113.465 84.0405 113.586C84.2768 113.707 84.5592 113.768 84.8878 113.768C85.1241 113.768 85.3633 113.736 85.6054 113.673C85.8474 113.604 86.0751 113.483 86.2884 113.31L86.5477 113.846C86.3345 114.03 86.0751 114.168 85.7696 114.261C85.4699 114.347 85.1731 114.39 84.8791 114.39ZM89.2633 114.39C88.9636 114.39 88.6927 114.336 88.4506 114.226C88.2143 114.111 88.027 113.955 87.8887 113.759C87.7503 113.563 87.6812 113.344 87.6812 113.102C87.6812 112.779 87.7705 112.526 87.9492 112.341C88.1278 112.151 88.4074 112.016 88.7878 111.935C89.174 111.854 89.6668 111.814 90.2662 111.814H90.8454V112.333H90.3008C89.9607 112.333 89.6725 112.344 89.4362 112.367C89.1999 112.39 89.0068 112.428 88.857 112.48C88.7129 112.532 88.6062 112.606 88.5371 112.704C88.4679 112.797 88.4333 112.915 88.4333 113.059C88.4333 113.295 88.5227 113.48 88.7013 113.612C88.8858 113.739 89.1192 113.802 89.4016 113.802C89.6437 113.802 89.8627 113.745 90.0587 113.63C90.2604 113.514 90.4218 113.361 90.5428 113.171C90.6639 112.981 90.7244 112.771 90.7244 112.54V111.563C90.7244 111.223 90.6322 110.975 90.4477 110.82C90.2691 110.664 89.9953 110.586 89.6264 110.586C89.3728 110.586 89.1221 110.621 88.8742 110.69C88.6264 110.759 88.3699 110.874 88.1048 111.036L87.8541 110.483C88.027 110.373 88.2143 110.281 88.416 110.206C88.6178 110.131 88.8281 110.073 89.0472 110.033C89.2662 109.993 89.4794 109.972 89.6869 109.972C90.0558 109.972 90.3728 110.033 90.6379 110.154C90.9031 110.269 91.1048 110.448 91.2431 110.69C91.3872 110.932 91.4593 111.243 91.4593 111.624V114.312H90.7849V113.37H90.7936C90.7244 113.56 90.6178 113.733 90.4737 113.889C90.3353 114.039 90.1624 114.16 89.9549 114.252C89.7532 114.344 89.5227 114.39 89.2633 114.39ZM94.4927 114.39C94.2564 114.39 94.0258 114.367 93.8011 114.321C93.582 114.281 93.3774 114.223 93.1872 114.148C92.997 114.068 92.8328 113.97 92.6944 113.854L92.9365 113.318C93.0864 113.428 93.2477 113.517 93.4206 113.586C93.5936 113.655 93.7694 113.707 93.948 113.742C94.1325 113.771 94.314 113.785 94.4927 113.785C94.8385 113.785 95.1065 113.73 95.2967 113.621C95.4927 113.511 95.5907 113.359 95.5907 113.163C95.5907 112.995 95.533 112.866 95.4178 112.774C95.3025 112.681 95.1181 112.612 94.8645 112.566L93.9913 112.41C93.5993 112.336 93.3054 112.2 93.1094 112.004C92.9134 111.808 92.8155 111.555 92.8155 111.243C92.8155 110.99 92.8846 110.768 93.023 110.578C93.167 110.387 93.3688 110.24 93.6281 110.137C93.8933 110.027 94.2045 109.972 94.5619 109.972C94.7694 109.972 94.974 109.993 95.1757 110.033C95.3832 110.073 95.5763 110.134 95.7549 110.215C95.9336 110.289 96.0777 110.385 96.1872 110.5L95.9365 111.036C95.8212 110.932 95.6858 110.846 95.5302 110.776C95.3745 110.707 95.2132 110.658 95.046 110.63C94.8846 110.595 94.7232 110.578 94.5619 110.578C94.2333 110.578 93.9768 110.635 93.7924 110.751C93.608 110.866 93.5158 111.024 93.5158 111.226C93.5158 111.387 93.5676 111.514 93.6714 111.606C93.7809 111.699 93.9538 111.768 94.1901 111.814L95.046 111.978C95.4668 112.059 95.778 112.191 95.9797 112.376C96.1872 112.56 96.291 112.814 96.291 113.137C96.291 113.39 96.216 113.612 96.0662 113.802C95.9163 113.993 95.706 114.14 95.4351 114.243C95.1699 114.341 94.8558 114.39 94.4927 114.39ZM99.3627 114.39C98.9362 114.39 98.5644 114.298 98.2474 114.114C97.9362 113.929 97.6941 113.673 97.5212 113.344C97.3483 113.01 97.2618 112.621 97.2618 112.177C97.2618 111.733 97.3483 111.347 97.5212 111.019C97.6941 110.684 97.9362 110.428 98.2474 110.249C98.5644 110.065 98.9362 109.972 99.3627 109.972C99.7892 109.972 100.158 110.065 100.469 110.249C100.786 110.428 101.028 110.684 101.196 111.019C101.368 111.347 101.455 111.733 101.455 112.177C101.455 112.621 101.368 113.01 101.196 113.344C101.028 113.673 100.786 113.929 100.469 114.114C100.158 114.298 99.7892 114.39 99.3627 114.39ZM99.3541 113.751C99.7748 113.751 100.103 113.612 100.34 113.336C100.582 113.053 100.703 112.667 100.703 112.177C100.703 111.687 100.582 111.304 100.34 111.027C100.103 110.751 99.7777 110.612 99.3627 110.612C98.9477 110.612 98.6192 110.751 98.3771 111.027C98.135 111.304 98.014 111.687 98.014 112.177C98.014 112.667 98.135 113.053 98.3771 113.336C98.6192 113.612 98.9448 113.751 99.3541 113.751ZM102.697 114.312V110.05H103.406V110.975H103.388C103.527 110.658 103.734 110.413 104.011 110.24C104.287 110.062 104.599 109.972 104.945 109.972C105.296 109.972 105.587 110.036 105.818 110.163C106.054 110.284 106.23 110.471 106.345 110.725C106.46 110.978 106.518 111.298 106.518 111.684V114.312H105.766V111.719C105.766 111.488 105.731 111.292 105.662 111.131C105.599 110.964 105.495 110.837 105.351 110.751C105.207 110.658 105.017 110.612 104.78 110.612C104.521 110.612 104.29 110.67 104.089 110.785C103.887 110.9 103.728 111.056 103.613 111.252C103.504 111.448 103.449 111.67 103.449 111.918V114.312H102.697ZM107.86 110.967V110.05H108.837V110.967H107.86ZM107.86 114.312V113.396H108.837V114.312H107.86Z" fill="#6D6B77"/>
<path d="M117.697 114.416C116.97 114.416 116.341 114.264 115.808 113.96C115.283 113.655 114.878 113.223 114.595 112.663C114.311 112.096 114.169 111.425 114.169 110.65C114.169 109.876 114.311 109.208 114.595 108.648C114.878 108.088 115.283 107.659 115.808 107.361C116.334 107.057 116.963 106.905 117.697 106.905C118.202 106.905 118.668 106.981 119.097 107.133C119.526 107.285 119.886 107.507 120.176 107.797L119.792 108.669C119.474 108.392 119.149 108.195 118.817 108.077C118.485 107.953 118.122 107.891 117.728 107.891C116.96 107.891 116.369 108.129 115.954 108.606C115.539 109.077 115.331 109.758 115.331 110.65C115.331 111.542 115.539 112.227 115.954 112.704C116.369 113.182 116.96 113.42 117.728 113.42C118.122 113.42 118.485 113.361 118.817 113.244C119.149 113.119 119.474 112.919 119.792 112.642L120.176 113.514C119.886 113.804 119.526 114.029 119.097 114.188C118.668 114.34 118.202 114.416 117.697 114.416ZM123.193 114.406C122.771 114.406 122.418 114.33 122.134 114.178C121.858 114.025 121.65 113.797 121.512 113.493C121.374 113.182 121.304 112.798 121.304 112.341V109.219H122.383V112.321C122.383 112.583 122.418 112.805 122.487 112.985C122.563 113.164 122.681 113.299 122.84 113.389C122.999 113.479 123.203 113.524 123.452 113.524C123.715 113.524 123.947 113.465 124.147 113.348C124.355 113.223 124.517 113.05 124.635 112.829C124.752 112.608 124.811 112.359 124.811 112.082V109.219H125.9V114.312H124.863V113.202H124.946C124.794 113.59 124.566 113.887 124.261 114.095C123.964 114.302 123.608 114.406 123.193 114.406ZM129.322 114.406C129.045 114.406 128.772 114.382 128.502 114.333C128.239 114.285 127.994 114.216 127.766 114.126C127.544 114.036 127.354 113.925 127.195 113.794L127.496 113.047C127.669 113.171 127.855 113.275 128.056 113.358C128.263 113.441 128.474 113.503 128.689 113.545C128.903 113.579 129.114 113.597 129.322 113.597C129.702 113.597 129.989 113.538 130.183 113.42C130.383 113.296 130.484 113.123 130.484 112.902C130.484 112.722 130.421 112.583 130.297 112.487C130.179 112.39 129.989 112.317 129.726 112.269L128.689 112.072C128.232 111.989 127.89 111.83 127.662 111.594C127.44 111.359 127.33 111.058 127.33 110.692C127.33 110.374 127.416 110.097 127.589 109.862C127.762 109.627 128.008 109.447 128.326 109.322C128.644 109.191 129.017 109.125 129.446 109.125C129.695 109.125 129.937 109.149 130.172 109.198C130.408 109.239 130.625 109.305 130.826 109.395C131.034 109.485 131.21 109.599 131.355 109.737L131.034 110.474C130.895 110.356 130.736 110.259 130.556 110.183C130.383 110.1 130.2 110.038 130.006 109.997C129.82 109.955 129.636 109.934 129.457 109.934C129.083 109.934 128.8 110 128.606 110.132C128.412 110.256 128.315 110.429 128.315 110.65C128.315 110.823 128.371 110.961 128.481 111.065C128.599 111.169 128.779 111.242 129.021 111.283L130.048 111.48C130.525 111.577 130.881 111.736 131.117 111.957C131.359 112.179 131.48 112.48 131.48 112.86C131.48 113.178 131.39 113.455 131.21 113.69C131.03 113.918 130.778 114.095 130.453 114.219C130.134 114.344 129.757 114.406 129.322 114.406ZM134.903 114.406C134.253 114.406 133.768 114.24 133.45 113.908C133.132 113.576 132.973 113.099 132.973 112.476V110.069H131.977V109.219H132.994V107.704H134.052V109.219H135.722V110.069H134.052V112.404C134.052 112.763 134.132 113.036 134.291 113.223C134.457 113.403 134.716 113.493 135.069 113.493C135.186 113.493 135.304 113.483 135.422 113.462C135.539 113.434 135.653 113.403 135.764 113.368L135.93 114.188C135.805 114.257 135.646 114.309 135.453 114.344C135.266 114.385 135.083 114.406 134.903 114.406ZM138.946 114.406C138.427 114.406 137.978 114.299 137.597 114.084C137.217 113.87 136.923 113.566 136.715 113.171C136.508 112.77 136.404 112.3 136.404 111.76C136.404 111.221 136.508 110.754 136.715 110.36C136.923 109.966 137.217 109.661 137.597 109.447C137.978 109.232 138.427 109.125 138.946 109.125C139.465 109.125 139.911 109.232 140.284 109.447C140.665 109.661 140.959 109.969 141.166 110.37C141.381 110.764 141.488 111.228 141.488 111.76C141.488 112.3 141.384 112.77 141.177 113.171C140.969 113.566 140.675 113.87 140.295 114.084C139.914 114.299 139.465 114.406 138.946 114.406ZM138.946 113.545C139.389 113.545 139.741 113.389 140.004 113.078C140.274 112.767 140.409 112.327 140.409 111.76C140.409 111.186 140.277 110.747 140.015 110.443C139.752 110.138 139.396 109.986 138.946 109.986C138.496 109.986 138.14 110.138 137.877 110.443C137.615 110.747 137.483 111.186 137.483 111.76C137.483 112.327 137.615 112.767 137.877 113.078C138.14 113.389 138.496 113.545 138.946 113.545ZM142.784 114.312V109.219H143.811V110.298H143.749C143.839 110.062 143.963 109.858 144.123 109.685C144.289 109.506 144.482 109.367 144.703 109.27C144.932 109.174 145.184 109.125 145.461 109.125C145.89 109.125 146.239 109.229 146.509 109.436C146.785 109.637 146.969 109.934 147.059 110.329H146.965C147.097 109.969 147.318 109.678 147.629 109.457C147.947 109.236 148.324 109.125 148.76 109.125C149.14 109.125 149.459 109.201 149.714 109.353C149.977 109.499 150.174 109.727 150.306 110.038C150.437 110.342 150.503 110.726 150.503 111.19V114.312H149.424V111.242C149.424 110.82 149.351 110.508 149.206 110.308C149.061 110.107 148.808 110.007 148.449 110.007C148.186 110.007 147.958 110.069 147.764 110.194C147.577 110.311 147.432 110.481 147.328 110.702C147.225 110.923 147.173 111.179 147.173 111.47V114.312H146.104V111.242C146.104 110.827 146.025 110.519 145.865 110.318C145.713 110.111 145.471 110.007 145.139 110.007C144.876 110.007 144.648 110.069 144.455 110.194C144.268 110.318 144.123 110.491 144.019 110.713C143.915 110.934 143.863 111.186 143.863 111.47V114.312H142.784ZM154.543 114.406C153.969 114.406 153.475 114.302 153.06 114.095C152.652 113.88 152.337 113.576 152.116 113.182C151.901 112.787 151.794 112.317 151.794 111.771C151.794 111.252 151.898 110.795 152.105 110.401C152.32 110 152.617 109.689 152.997 109.468C153.378 109.239 153.82 109.125 154.325 109.125C154.809 109.125 155.221 109.229 155.56 109.436C155.906 109.644 156.172 109.938 156.359 110.318C156.545 110.699 156.639 111.152 156.639 111.677V112.03H152.634V111.356H155.902L155.726 111.522C155.726 110.996 155.608 110.595 155.373 110.318C155.138 110.042 154.796 109.903 154.346 109.903C154.035 109.903 153.762 109.976 153.526 110.121C153.298 110.259 153.122 110.46 152.997 110.723C152.88 110.986 152.821 111.297 152.821 111.657V111.75C152.821 112.151 152.887 112.487 153.018 112.756C153.156 113.019 153.354 113.22 153.609 113.358C153.872 113.489 154.19 113.555 154.564 113.555C154.848 113.555 155.131 113.514 155.415 113.431C155.705 113.348 155.971 113.206 156.214 113.005L156.545 113.763C156.297 113.97 155.989 114.129 155.622 114.24C155.262 114.351 154.903 114.406 154.543 114.406ZM157.89 114.312V109.219H158.917V110.432H158.855C158.972 110.031 159.176 109.723 159.467 109.509C159.757 109.288 160.134 109.16 160.598 109.125L161.013 109.094L161.096 110.049L160.38 110.111C159.93 110.152 159.584 110.298 159.342 110.547C159.107 110.795 158.989 111.124 158.989 111.532V114.312H157.89ZM167.921 114.406C166.946 114.406 166.199 114.153 165.68 113.649C165.168 113.137 164.913 112.386 164.913 111.397V106.998H166.012V111.366C166.012 112.065 166.175 112.583 166.5 112.922C166.825 113.261 167.299 113.431 167.921 113.431C168.544 113.431 169.014 113.261 169.332 112.922C169.657 112.583 169.82 112.065 169.82 111.366V106.998H170.919V111.397C170.919 112.386 170.664 113.137 170.152 113.649C169.64 114.153 168.896 114.406 167.921 114.406ZM172.56 114.312V109.219H173.598V110.298H173.525C173.684 109.917 173.926 109.627 174.251 109.426C174.583 109.225 174.957 109.125 175.372 109.125C175.787 109.125 176.129 109.201 176.399 109.353C176.675 109.499 176.879 109.727 177.011 110.038C177.149 110.342 177.218 110.726 177.218 111.19V114.312H176.129V111.252C176.129 110.968 176.091 110.737 176.015 110.557C175.946 110.37 175.832 110.232 175.673 110.142C175.52 110.052 175.32 110.007 175.071 110.007C174.787 110.007 174.538 110.069 174.324 110.194C174.109 110.311 173.943 110.481 173.826 110.702C173.708 110.917 173.649 111.169 173.649 111.459V114.312H172.56ZM180.451 114.406C180.085 114.406 179.76 114.337 179.476 114.198C179.193 114.06 178.968 113.873 178.802 113.638C178.643 113.396 178.563 113.126 178.563 112.829C178.563 112.455 178.664 112.158 178.864 111.937C179.065 111.708 179.39 111.546 179.839 111.449C180.289 111.352 180.88 111.304 181.613 111.304H182.205V111.978H181.645C181.271 111.978 180.956 111.992 180.7 112.02C180.445 112.047 180.237 112.092 180.078 112.155C179.919 112.21 179.805 112.289 179.736 112.393C179.666 112.49 179.632 112.618 179.632 112.777C179.632 113.033 179.725 113.237 179.912 113.389C180.099 113.541 180.351 113.617 180.669 113.617C180.932 113.617 181.164 113.559 181.364 113.441C181.572 113.317 181.738 113.151 181.862 112.943C181.987 112.729 182.049 112.49 182.049 112.227V111.044C182.049 110.664 181.956 110.391 181.769 110.225C181.582 110.052 181.288 109.966 180.887 109.966C180.597 109.966 180.303 110.007 180.005 110.09C179.715 110.173 179.414 110.308 179.103 110.495L178.771 109.737C178.964 109.606 179.182 109.495 179.424 109.405C179.666 109.315 179.919 109.246 180.182 109.198C180.451 109.149 180.711 109.125 180.96 109.125C181.423 109.125 181.814 109.198 182.132 109.343C182.45 109.488 182.689 109.71 182.848 110.007C183.007 110.304 183.087 110.688 183.087 111.159V114.312H182.111V113.192H182.163C182.087 113.434 181.97 113.649 181.81 113.835C181.658 114.015 181.468 114.157 181.24 114.261C181.012 114.357 180.749 114.406 180.451 114.406ZM186.059 114.312L183.891 109.219H185.053L186.682 113.348H186.495L188.155 109.219H189.265L187.076 114.312H186.059ZM191.697 114.406C191.331 114.406 191.006 114.337 190.722 114.198C190.439 114.06 190.214 113.873 190.048 113.638C189.889 113.396 189.809 113.126 189.809 112.829C189.809 112.455 189.909 112.158 190.11 111.937C190.311 111.708 190.636 111.546 191.085 111.449C191.535 111.352 192.126 111.304 192.859 111.304H193.451V111.978H192.89C192.517 111.978 192.202 111.992 191.946 112.02C191.69 112.047 191.483 112.092 191.324 112.155C191.165 112.21 191.051 112.289 190.982 112.393C190.912 112.49 190.878 112.618 190.878 112.777C190.878 113.033 190.971 113.237 191.158 113.389C191.345 113.541 191.597 113.617 191.915 113.617C192.178 113.617 192.41 113.559 192.61 113.441C192.818 113.317 192.984 113.151 193.108 112.943C193.233 112.729 193.295 112.49 193.295 112.227V111.044C193.295 110.664 193.202 110.391 193.015 110.225C192.828 110.052 192.534 109.966 192.133 109.966C191.843 109.966 191.549 110.007 191.251 110.09C190.961 110.173 190.66 110.308 190.349 110.495L190.017 109.737C190.21 109.606 190.428 109.495 190.67 109.405C190.912 109.315 191.165 109.246 191.428 109.198C191.697 109.149 191.957 109.125 192.206 109.125C192.669 109.125 193.06 109.198 193.378 109.343C193.696 109.488 193.935 109.71 194.094 110.007C194.253 110.304 194.333 110.688 194.333 111.159V114.312H193.357V113.192H193.409C193.333 113.434 193.216 113.649 193.056 113.835C192.904 114.015 192.714 114.157 192.486 114.261C192.258 114.357 191.995 114.406 191.697 114.406ZM195.8 108.057V106.926H197.065V108.057H195.8ZM195.893 114.312V109.219H196.982V114.312H195.893ZM200.217 114.406C199.664 114.406 199.249 114.254 198.973 113.949C198.696 113.638 198.558 113.192 198.558 112.611V106.998H199.647V112.528C199.647 112.742 199.675 112.926 199.73 113.078C199.792 113.223 199.882 113.334 200 113.41C200.124 113.479 200.273 113.514 200.446 113.514C200.536 113.514 200.622 113.51 200.705 113.503C200.788 113.496 200.868 113.483 200.944 113.462L200.954 114.312C200.83 114.34 200.709 114.361 200.591 114.375C200.473 114.395 200.349 114.406 200.217 114.406ZM203.541 114.406C203.175 114.406 202.849 114.337 202.566 114.198C202.282 114.06 202.057 113.873 201.892 113.638C201.732 113.396 201.653 113.126 201.653 112.829C201.653 112.455 201.753 112.158 201.954 111.937C202.154 111.708 202.479 111.546 202.929 111.449C203.379 111.352 203.97 111.304 204.703 111.304H205.294V111.978H204.734C204.361 111.978 204.046 111.992 203.79 112.02C203.534 112.047 203.327 112.092 203.168 112.155C203.009 112.21 202.894 112.289 202.825 112.393C202.756 112.49 202.721 112.618 202.721 112.777C202.721 113.033 202.815 113.237 203.002 113.389C203.188 113.541 203.441 113.617 203.759 113.617C204.022 113.617 204.253 113.559 204.454 113.441C204.662 113.317 204.828 113.151 204.952 112.943C205.077 112.729 205.139 112.49 205.139 112.227V111.044C205.139 110.664 205.045 110.391 204.859 110.225C204.672 110.052 204.378 109.966 203.977 109.966C203.686 109.966 203.392 110.007 203.095 110.09C202.804 110.173 202.504 110.308 202.192 110.495L201.86 109.737C202.054 109.606 202.272 109.495 202.514 109.405C202.756 109.315 203.009 109.246 203.271 109.198C203.541 109.149 203.8 109.125 204.049 109.125C204.513 109.125 204.904 109.198 205.222 109.343C205.54 109.488 205.779 109.71 205.938 110.007C206.097 110.304 206.176 110.688 206.176 111.159V114.312H205.201V113.192H205.253C205.177 113.434 205.059 113.649 204.9 113.835C204.748 114.015 204.558 114.157 204.33 114.261C204.101 114.357 203.838 114.406 203.541 114.406ZM210.527 114.406C210.092 114.406 209.711 114.299 209.386 114.084C209.061 113.863 208.836 113.566 208.712 113.192H208.764V114.312H207.737V106.998H208.826V110.287H208.753C208.878 109.934 209.096 109.654 209.407 109.447C209.725 109.232 210.102 109.125 210.538 109.125C211.001 109.125 211.402 109.236 211.741 109.457C212.08 109.672 212.343 109.976 212.53 110.37C212.716 110.757 212.81 111.221 212.81 111.76C212.81 112.293 212.716 112.76 212.53 113.161C212.343 113.562 212.077 113.87 211.731 114.084C211.392 114.299 210.991 114.406 210.527 114.406ZM210.268 113.555C210.718 113.555 211.07 113.4 211.326 113.088C211.589 112.777 211.721 112.334 211.721 111.76C211.721 111.186 211.589 110.747 211.326 110.443C211.063 110.132 210.711 109.976 210.268 109.976C209.818 109.976 209.462 110.132 209.199 110.443C208.937 110.747 208.805 111.186 208.805 111.76C208.805 112.334 208.937 112.777 209.199 113.088C209.462 113.4 209.818 113.555 210.268 113.555ZM215.759 114.406C215.206 114.406 214.791 114.254 214.514 113.949C214.238 113.638 214.099 113.192 214.099 112.611V106.998H215.189V112.528C215.189 112.742 215.216 112.926 215.272 113.078C215.334 113.223 215.424 113.334 215.541 113.41C215.666 113.479 215.814 113.514 215.987 113.514C216.077 113.514 216.164 113.51 216.247 113.503C216.33 113.496 216.409 113.483 216.485 113.462L216.496 114.312C216.371 114.34 216.25 114.361 216.133 114.375C216.015 114.395 215.891 114.406 215.759 114.406ZM219.81 114.406C219.236 114.406 218.742 114.302 218.327 114.095C217.919 113.88 217.604 113.576 217.383 113.182C217.168 112.787 217.061 112.317 217.061 111.771C217.061 111.252 217.165 110.795 217.372 110.401C217.587 110 217.884 109.689 218.264 109.468C218.645 109.239 219.087 109.125 219.592 109.125C220.076 109.125 220.488 109.229 220.827 109.436C221.173 109.644 221.439 109.938 221.626 110.318C221.813 110.699 221.906 111.152 221.906 111.677V112.03H217.901V111.356H221.169L220.993 111.522C220.993 110.996 220.875 110.595 220.64 110.318C220.405 110.042 220.063 109.903 219.613 109.903C219.302 109.903 219.029 109.976 218.793 110.121C218.565 110.259 218.389 110.46 218.264 110.723C218.147 110.986 218.088 111.297 218.088 111.657V111.75C218.088 112.151 218.154 112.487 218.285 112.756C218.423 113.019 218.621 113.22 218.876 113.358C219.139 113.489 219.457 113.555 219.831 113.555C220.115 113.555 220.398 113.514 220.682 113.431C220.972 113.348 221.238 113.206 221.481 113.005L221.813 113.763C221.564 113.97 221.256 114.129 220.889 114.24C220.53 114.351 220.17 114.406 219.81 114.406Z" fill="black"/>
<rect x="269.332" y="84.291" width="35.8329" height="17.1873" rx="7.78098" fill="#FFD4D5"/>
<path d="M277.134 95.8848V89.1802H277.971L281.937 94.4202H281.823V89.1802H282.793V95.8848H281.928L277.99 90.6637H278.104V95.8848H277.134ZM284.564 95.8848V89.1802H286.989C287.718 89.1802 288.337 89.3101 288.844 89.5701C289.357 89.83 289.747 90.2104 290.013 90.7113C290.28 91.2058 290.413 91.8113 290.413 92.5277C290.413 93.2441 290.28 93.8528 290.013 94.3536C289.747 94.8545 289.357 95.2349 288.844 95.4949C288.337 95.7548 287.718 95.8848 286.989 95.8848H284.564ZM285.582 95.0193H286.923C287.728 95.0193 288.333 94.8133 288.739 94.4012C289.145 93.9827 289.348 93.3583 289.348 92.5277C289.348 91.6972 289.142 91.0758 288.73 90.6637C288.324 90.2516 287.722 90.0456 286.923 90.0456H285.582V95.0193ZM291.929 95.8848V89.1802H294.753C295.489 89.1802 296.053 89.3513 296.446 89.6937C296.846 90.0297 297.045 90.5116 297.045 91.1392C297.045 91.5196 296.966 91.8461 296.808 92.1188C296.655 92.3914 296.434 92.607 296.142 92.7655C295.857 92.9176 295.514 93.0064 295.115 93.0317L295.172 92.9747L295.334 92.9842C295.53 93.0032 295.704 93.0698 295.857 93.1839C296.009 93.298 296.148 93.4787 296.275 93.726L297.435 95.8848H296.313L295.181 93.783C295.099 93.6182 295.004 93.4914 294.896 93.4026C294.795 93.3139 294.674 93.2536 294.535 93.2219C294.402 93.1839 294.24 93.1649 294.05 93.1649H292.947V95.8848H291.929ZM292.947 92.3565H294.639C295.115 92.3565 295.467 92.2583 295.695 92.0617C295.923 91.8652 296.037 91.5704 296.037 91.1773C296.037 90.7842 295.92 90.4957 295.685 90.3119C295.451 90.1217 295.096 90.0266 294.62 90.0266H292.947V92.3565Z" fill="black"/>
<rect x="32.832" y="130.977" width="272.334" height="13.8329" rx="5.18732" fill="#F5F5F6"/>
<circle cx="38.8853" cy="137.893" r="5.18732" fill="#FEF2D2" stroke="#FBC942" stroke-width="1.72911"/>
<rect x="43.207" y="136.164" width="142.651" height="3.45821" fill="#FBC942"/>
<rect x="200.34" y="130.328" width="15.1297" height="15.1297" rx="7.56484" transform="rotate(90 200.34 130.328)" fill="#FBC942"/>
<rect x="200.34" y="130.328" width="15.1297" height="15.1297" rx="7.56484" transform="rotate(90 200.34 130.328)" stroke="#FEF2D2" stroke-width="1.29683"/>
<path d="M189.886 133.873C189.408 133.634 188.898 134.124 189.12 134.611C189.642 135.755 190.259 137.097 190.51 137.642C190.583 137.8 190.579 137.981 190.501 138.136C190.216 138.705 189.497 140.158 188.97 141.354C188.767 141.817 189.232 142.237 189.685 142.011L196.914 138.401C197.334 138.191 197.334 137.592 196.914 137.382L189.886 133.873Z" fill="white"/>
<rect x="199.691" y="136.164" width="95.1009" height="3.45821" fill="#E1E1E4"/>
<circle cx="299.116" cy="137.893" r="5.18732" fill="white" stroke="#E1E1E4" stroke-width="1.72911"/>
<path d="M36.2902 163.781C35.8522 163.781 35.4603 163.709 35.1145 163.565C34.7686 163.421 34.4718 163.213 34.224 162.942C33.9761 162.671 33.7859 162.343 33.6534 161.957C33.5266 161.571 33.4632 161.135 33.4632 160.651C33.4632 160.167 33.5266 159.735 33.6534 159.354C33.7859 158.968 33.9732 158.64 34.2153 158.369C34.4632 158.098 34.76 157.89 35.1058 157.746C35.4574 157.602 35.8522 157.53 36.2902 157.53C36.7225 157.53 37.1116 157.602 37.4574 157.746C37.809 157.89 38.1087 158.098 38.3565 158.369C38.6044 158.634 38.7917 158.96 38.9185 159.346C39.0511 159.732 39.1173 160.164 39.1173 160.643C39.1173 161.127 39.0511 161.562 38.9185 161.948C38.7859 162.334 38.5957 162.666 38.3479 162.942C38.1058 163.213 37.809 163.421 37.4574 163.565C37.1116 163.709 36.7225 163.781 36.2902 163.781ZM36.2902 163.098C36.7168 163.098 37.0799 163.006 37.3796 162.821C37.6851 162.631 37.9185 162.354 38.0799 161.991C38.2413 161.622 38.3219 161.176 38.3219 160.651C38.3219 160.121 38.2413 159.677 38.0799 159.32C37.9243 158.957 37.6937 158.683 37.3882 158.499C37.0885 158.308 36.7225 158.213 36.2902 158.213C35.8637 158.213 35.4977 158.308 35.1923 158.499C34.8868 158.683 34.6534 158.957 34.492 159.32C34.3364 159.683 34.2585 160.127 34.2585 160.651C34.2585 161.176 34.3364 161.62 34.492 161.983C34.6534 162.346 34.8868 162.622 35.1923 162.813C35.4977 163.003 35.8637 163.098 36.2902 163.098ZM40.4989 163.703V159.441H41.1906V160.426H41.1819C41.2914 160.109 41.473 159.862 41.7266 159.683C41.9802 159.499 42.2972 159.395 42.6776 159.372L43.0407 159.354L43.1099 160.037L42.522 160.089C42.1243 160.124 41.8131 160.254 41.5883 160.478C41.3692 160.703 41.2597 160.988 41.2597 161.334V163.703H40.4989ZM43.9416 158.412V157.565H44.8667V158.412H43.9416ZM44.0281 163.703V159.441H44.7802V163.703H44.0281ZM48.1411 165.337C47.7953 165.337 47.4552 165.288 47.1209 165.19C46.7924 165.092 46.5071 164.954 46.265 164.775L46.5071 164.187C46.6685 164.297 46.8385 164.389 47.0172 164.464C47.1959 164.545 47.3774 164.602 47.5619 164.637C47.7463 164.677 47.9307 164.697 48.1152 164.697C48.559 164.697 48.9019 164.585 49.144 164.36C49.3861 164.135 49.5071 163.816 49.5071 163.401V162.588C49.4091 162.888 49.2218 163.13 48.9451 163.314C48.6743 163.493 48.3601 163.582 48.0028 163.582C47.5993 163.582 47.2506 163.496 46.9567 163.323C46.6627 163.144 46.4322 162.896 46.265 162.579C46.1036 162.262 46.023 161.893 46.023 161.473C46.023 161.052 46.1036 160.683 46.265 160.366C46.4322 160.049 46.6627 159.804 46.9567 159.631C47.2506 159.452 47.5993 159.363 48.0028 159.363C48.3659 159.363 48.6829 159.458 48.9538 159.648C49.2247 159.833 49.412 160.081 49.5158 160.392H49.5071V159.441H50.2247V163.331C50.2247 163.746 50.1411 164.104 49.974 164.403C49.8126 164.703 49.5763 164.934 49.265 165.095C48.9538 165.256 48.5792 165.337 48.1411 165.337ZM48.1325 162.968C48.5475 162.968 48.876 162.833 49.1181 162.562C49.3601 162.285 49.4812 161.922 49.4812 161.473C49.4812 161.017 49.3601 160.657 49.1181 160.392C48.876 160.121 48.5475 159.986 48.1325 159.986C47.7175 159.986 47.3889 160.121 47.1469 160.392C46.9048 160.657 46.7838 161.017 46.7838 161.473C46.7838 161.922 46.9048 162.285 47.1469 162.562C47.3889 162.833 47.7175 162.968 48.1325 162.968ZM51.6415 158.412V157.565H52.5666V158.412H51.6415ZM51.728 163.703V159.441H52.4802V163.703H51.728ZM53.9822 163.703V159.441H54.6912V160.366H54.6739C54.8122 160.049 55.0197 159.804 55.2964 159.631C55.573 159.452 55.8843 159.363 56.2301 159.363C56.5817 159.363 56.8727 159.426 57.1033 159.553C57.3396 159.674 57.5154 159.862 57.6307 160.115C57.7459 160.369 57.8036 160.689 57.8036 161.075V163.703H57.0514V161.109C57.0514 160.879 57.0168 160.683 56.9477 160.522C56.8843 160.354 56.7805 160.228 56.6364 160.141C56.4923 160.049 56.3021 160.003 56.0658 160.003C55.8065 160.003 55.5759 160.06 55.3742 160.176C55.1725 160.291 55.0139 160.447 54.8987 160.643C54.7892 160.839 54.7344 161.06 54.7344 161.308V163.703H53.9822Z" fill="#6D6B77"/>
<path d="M33.8245 179.432V170.898H35.0833V178.354H39.3075V179.432H33.8245ZM42.8766 179.541C42.2795 179.541 41.7631 179.416 41.3273 179.165C40.8997 178.915 40.5648 178.56 40.3227 178.1C40.0807 177.64 39.9596 177.1 39.9596 176.478C39.9596 175.849 40.0807 175.308 40.3227 174.856C40.5648 174.396 40.8997 174.041 41.3273 173.791C41.7631 173.541 42.2795 173.416 42.8766 173.416C43.4657 173.416 43.974 173.541 44.4017 173.791C44.8374 174.041 45.1763 174.396 45.4184 174.856C45.6605 175.316 45.7815 175.857 45.7815 176.478C45.7815 177.1 45.6605 177.64 45.4184 178.1C45.1763 178.56 44.8374 178.915 44.4017 179.165C43.974 179.416 43.4657 179.541 42.8766 179.541ZM42.8645 178.596C43.3729 178.596 43.7804 178.415 44.087 178.052C44.3936 177.689 44.5469 177.164 44.5469 176.478C44.5469 175.784 44.3936 175.26 44.087 174.905C43.7804 174.55 43.3729 174.372 42.8645 174.372C42.3642 174.372 41.9608 174.55 41.6541 174.905C41.3475 175.26 41.1942 175.784 41.1942 176.478C41.1942 177.164 41.3475 177.689 41.6541 178.052C41.9608 178.415 42.3642 178.596 42.8645 178.596ZM48.6458 179.432L46.3945 173.525H47.6533L49.3841 178.403H49.0936L50.8729 173.525H51.8169L53.5599 178.403H53.2936L55.0365 173.525H56.2348L53.9835 179.432H52.87L51.006 174.396H51.6112L49.7593 179.432H48.6458ZM59.9496 179.541C59.3041 179.541 58.7473 179.42 58.2793 179.177C57.8194 178.927 57.4603 178.576 57.2021 178.124C56.9519 177.664 56.8269 177.12 56.8269 176.49C56.8269 175.877 56.9519 175.341 57.2021 174.881C57.4522 174.421 57.7952 174.062 58.2309 173.803C58.6666 173.545 59.1629 173.416 59.7197 173.416C60.2684 173.416 60.7364 173.537 61.1237 173.779C61.5191 174.013 61.8217 174.348 62.0315 174.784C62.2413 175.22 62.3462 175.74 62.3462 176.345V176.757H57.7952V176.006H61.5231L61.3173 176.176C61.3173 175.571 61.1842 175.103 60.9179 174.772C60.6516 174.441 60.2684 174.275 59.7681 174.275C59.3888 174.275 59.0661 174.364 58.7998 174.542C58.5416 174.719 58.3439 174.965 58.2067 175.28C58.0695 175.595 58.0009 175.962 58.0009 176.381V176.454C58.0009 176.922 58.0735 177.318 58.2188 177.64C58.3721 177.955 58.594 178.193 58.8845 178.354C59.175 178.516 59.5341 178.596 59.9617 178.596C60.3006 178.596 60.6315 178.544 60.9542 178.439C61.2851 178.326 61.5957 178.153 61.8862 177.919L62.2493 178.766C61.9831 179.008 61.6401 179.198 61.2205 179.335C60.8009 179.472 60.3773 179.541 59.9496 179.541ZM63.6789 179.432V173.525H64.8651V174.941H64.744C64.8731 174.457 65.1031 174.09 65.4339 173.84C65.7729 173.59 66.2207 173.444 66.7775 173.404L67.1769 173.38L67.2616 174.421L66.5233 174.493C65.9988 174.542 65.5994 174.707 65.325 174.99C65.0507 175.272 64.9135 175.659 64.9135 176.152V179.432H63.6789ZM71.5069 179.432V170.898H75.0412C75.6625 170.898 76.187 171.003 76.6147 171.213C77.0424 171.415 77.3651 171.709 77.583 172.097C77.8089 172.484 77.9219 172.952 77.9219 173.501C77.9219 174.05 77.8089 174.522 77.583 174.917C77.3651 175.304 77.0424 175.603 76.6147 175.813C76.187 176.014 75.6625 176.115 75.0412 176.115H72.7657V179.432H71.5069ZM72.7657 175.111H74.8596C75.4648 175.111 75.9207 174.977 76.2274 174.711C76.5421 174.437 76.6994 174.033 76.6994 173.501C76.6994 172.976 76.5421 172.581 76.2274 172.315C75.9207 172.04 75.4648 171.903 74.8596 171.903H72.7657V175.111ZM80.7322 179.541C80.3207 179.541 79.9495 179.46 79.6187 179.298C79.2959 179.137 79.0417 178.919 78.8561 178.645C78.6706 178.371 78.5778 178.06 78.5778 177.713C78.5778 177.277 78.6867 176.934 78.9046 176.684C79.1305 176.426 79.4976 176.244 80.006 176.139C80.5224 176.026 81.2164 175.97 82.0879 175.97H82.6567V176.72H82.1C81.6642 176.72 81.2971 176.737 80.9985 176.769C80.7 176.801 80.4619 176.854 80.2844 176.926C80.1069 176.991 79.9778 177.084 79.8971 177.205C79.8244 177.326 79.7881 177.471 79.7881 177.64C79.7881 177.947 79.893 178.197 80.1028 178.391C80.3126 178.576 80.6031 178.669 80.9743 178.669C81.2729 178.669 81.5351 178.601 81.761 178.463C81.987 178.318 82.1645 178.124 82.2936 177.882C82.4308 177.64 82.4994 177.362 82.4994 177.047V175.655C82.4994 175.195 82.4025 174.864 82.2089 174.663C82.0152 174.461 81.6965 174.36 81.2527 174.36C80.9138 174.36 80.5749 174.413 80.236 174.518C79.8971 174.614 79.5501 174.772 79.1951 174.99L78.8198 174.13C79.0296 173.985 79.2717 173.86 79.5461 173.755C79.8204 173.65 80.1069 173.569 80.4054 173.513C80.7121 173.448 81.0066 173.416 81.289 173.416C81.8296 173.416 82.2734 173.501 82.6204 173.67C82.9755 173.84 83.2377 174.098 83.4072 174.445C83.5766 174.792 83.6613 175.24 83.6613 175.788V179.432H82.5115V178.112H82.6204C82.5559 178.411 82.4348 178.669 82.2573 178.887C82.0879 179.097 81.874 179.258 81.6158 179.371C81.3576 179.484 81.0631 179.541 80.7322 179.541ZM85.3451 179.432V173.525H86.5312V174.941H86.4102C86.5393 174.457 86.7693 174.09 87.1001 173.84C87.439 173.59 87.8869 173.444 88.4436 173.404L88.8431 173.38L88.9278 174.421L88.1895 174.493C87.665 174.542 87.2655 174.707 86.9912 174.99C86.7168 175.272 86.5797 175.659 86.5797 176.152V179.432H85.3451ZM92.5494 179.541C91.9038 179.541 91.3471 179.42 90.879 179.177C90.4191 178.927 90.06 178.576 89.8018 178.124C89.5517 177.664 89.4266 177.12 89.4266 176.49C89.4266 175.877 89.5517 175.341 89.8018 174.881C90.052 174.421 90.3949 174.062 90.8306 173.803C91.2664 173.545 91.7626 173.416 92.3194 173.416C92.8681 173.416 93.3361 173.537 93.7234 173.779C94.1188 174.013 94.4214 174.348 94.6312 174.784C94.841 175.22 94.9459 175.74 94.9459 176.345V176.757H90.3949V176.006H94.1229L93.9171 176.176C93.9171 175.571 93.7839 175.103 93.5177 174.772C93.2514 174.441 92.8681 174.275 92.3678 174.275C91.9886 174.275 91.6658 174.364 91.3995 174.542C91.1413 174.719 90.9436 174.965 90.8064 175.28C90.6692 175.595 90.6007 175.962 90.6007 176.381V176.454C90.6007 176.922 90.6733 177.318 90.8185 177.64C90.9718 177.955 91.1937 178.193 91.4842 178.354C91.7747 178.516 92.1338 178.596 92.5615 178.596C92.9004 178.596 93.2312 178.544 93.554 178.439C93.8848 178.326 94.1955 178.153 94.486 177.919L94.8491 178.766C94.5828 179.008 94.2399 179.198 93.8203 179.335C93.4007 179.472 92.977 179.541 92.5494 179.541ZM98.2031 179.541C97.5576 179.541 97.0735 179.359 96.7507 178.996C96.436 178.625 96.2786 178.092 96.2786 177.398V170.898H97.5011V177.326C97.5011 177.584 97.5374 177.806 97.6101 177.991C97.6827 178.169 97.7916 178.302 97.9369 178.391C98.0821 178.479 98.2637 178.524 98.4815 178.524C98.5784 178.524 98.6711 178.52 98.7599 178.512C98.8487 178.504 98.9334 178.488 99.0141 178.463L98.9899 179.444C98.8527 179.476 98.7196 179.5 98.5905 179.516C98.4613 179.533 98.3322 179.541 98.2031 179.541ZM100.569 180.92L100.036 180.509C100.197 180.339 100.318 180.182 100.399 180.037C100.488 179.892 100.548 179.746 100.581 179.601C100.621 179.456 100.641 179.311 100.641 179.165L100.907 179.432H99.9513V177.991H101.392V178.972C101.392 179.214 101.363 179.444 101.307 179.662C101.258 179.879 101.174 180.089 101.053 180.291C100.94 180.501 100.778 180.711 100.569 180.92ZM106.306 179.432V170.898H107.359L110.712 177.144H110.336L113.665 170.898H114.694V179.432H113.568V172.678H113.834L110.893 178.124H110.131L107.153 172.666H107.443V179.432H106.306ZM118.68 179.541C118.204 179.541 117.804 179.452 117.481 179.274C117.167 179.097 116.929 178.835 116.767 178.488C116.614 178.133 116.537 177.689 116.537 177.156V173.525H117.76V177.168C117.76 177.483 117.8 177.745 117.881 177.955C117.97 178.165 118.103 178.318 118.28 178.415C118.466 178.512 118.696 178.56 118.97 178.56C119.277 178.56 119.547 178.492 119.781 178.354C120.015 178.217 120.197 178.02 120.326 177.761C120.455 177.503 120.52 177.205 120.52 176.866V173.525H121.742V179.432H120.556V178.137H120.713C120.552 178.588 120.294 178.935 119.939 179.177C119.583 179.42 119.164 179.541 118.68 179.541ZM123.489 179.432V173.525H124.675V174.784H124.542C124.647 174.493 124.792 174.247 124.978 174.045C125.163 173.844 125.385 173.69 125.643 173.586C125.91 173.473 126.2 173.416 126.515 173.416C127.007 173.416 127.407 173.533 127.713 173.767C128.02 174.001 128.23 174.36 128.343 174.844H128.173C128.326 174.401 128.589 174.054 128.96 173.803C129.331 173.545 129.763 173.416 130.255 173.416C130.707 173.416 131.078 173.505 131.369 173.682C131.659 173.852 131.877 174.114 132.022 174.469C132.167 174.816 132.24 175.256 132.24 175.788V179.432H131.018V175.849C131.018 175.349 130.929 174.981 130.751 174.747C130.582 174.513 130.299 174.396 129.904 174.396C129.613 174.396 129.359 174.465 129.141 174.602C128.924 174.739 128.754 174.941 128.633 175.207C128.52 175.466 128.464 175.772 128.464 176.127V179.432H127.241V175.849C127.241 175.349 127.156 174.981 126.987 174.747C126.818 174.513 126.535 174.396 126.14 174.396C125.841 174.396 125.583 174.465 125.365 174.602C125.155 174.739 124.994 174.941 124.881 175.207C124.768 175.466 124.711 175.772 124.711 176.127V179.432H123.489ZM137.12 179.541C136.604 179.541 136.156 179.411 135.777 179.153C135.398 178.887 135.143 178.536 135.014 178.1H135.147V179.432H133.949V170.898H135.172V174.82H135.026C135.156 174.392 135.41 174.054 135.789 173.803C136.168 173.545 136.612 173.416 137.12 173.416C137.653 173.416 138.113 173.541 138.5 173.791C138.888 174.041 139.186 174.392 139.396 174.844C139.614 175.296 139.723 175.841 139.723 176.478C139.723 177.1 139.614 177.644 139.396 178.112C139.186 178.572 138.883 178.927 138.488 179.177C138.101 179.42 137.645 179.541 137.12 179.541ZM136.818 178.596C137.326 178.596 137.73 178.415 138.028 178.052C138.335 177.689 138.488 177.164 138.488 176.478C138.488 175.784 138.335 175.26 138.028 174.905C137.73 174.55 137.326 174.372 136.818 174.372C136.317 174.372 135.914 174.55 135.607 174.905C135.301 175.26 135.147 175.784 135.147 176.478C135.147 177.164 135.301 177.689 135.607 178.052C135.914 178.415 136.317 178.596 136.818 178.596ZM142.989 179.541C142.577 179.541 142.206 179.46 141.875 179.298C141.552 179.137 141.298 178.919 141.112 178.645C140.927 178.371 140.834 178.06 140.834 177.713C140.834 177.277 140.943 176.934 141.161 176.684C141.387 176.426 141.754 176.244 142.262 176.139C142.779 176.026 143.473 175.97 144.344 175.97H144.913V176.72H144.356C143.92 176.72 143.553 176.737 143.255 176.769C142.956 176.801 142.718 176.854 142.541 176.926C142.363 176.991 142.234 177.084 142.153 177.205C142.081 177.326 142.044 177.471 142.044 177.64C142.044 177.947 142.149 178.197 142.359 178.391C142.569 178.576 142.859 178.669 143.231 178.669C143.529 178.669 143.791 178.601 144.017 178.463C144.243 178.318 144.421 178.124 144.55 177.882C144.687 177.64 144.756 177.362 144.756 177.047V175.655C144.756 175.195 144.659 174.864 144.465 174.663C144.272 174.461 143.953 174.36 143.509 174.36C143.17 174.36 142.831 174.413 142.492 174.518C142.153 174.614 141.806 174.772 141.451 174.99L141.076 174.13C141.286 173.985 141.528 173.86 141.802 173.755C142.077 173.65 142.363 173.569 142.662 173.513C142.968 173.448 143.263 173.416 143.545 173.416C144.086 173.416 144.53 173.501 144.877 173.67C145.232 173.84 145.494 174.098 145.663 174.445C145.833 174.792 145.918 175.24 145.918 175.788V179.432H144.768V178.112H144.877C144.812 178.411 144.691 178.669 144.514 178.887C144.344 179.097 144.13 179.258 143.872 179.371C143.614 179.484 143.319 179.541 142.989 179.541ZM147.492 172.157V170.886H148.921V172.157H147.492ZM147.601 179.432V173.525H148.824V179.432H147.601Z" fill="black"/>
<path d="M33.7225 193.16V187.065H34.5438L36.783 191.457H36.6879L38.9185 187.065H39.7312V193.16H39.0136V188.137H39.0741L37.0078 192.201H36.4632L34.3709 188.128H34.4487V193.16H33.7225ZM42.7862 193.238C42.4865 193.238 42.2156 193.183 41.9735 193.074C41.7372 192.958 41.5499 192.803 41.4116 192.607C41.2732 192.411 41.2041 192.192 41.2041 191.95C41.2041 191.627 41.2934 191.373 41.4721 191.189C41.6508 190.999 41.9303 190.863 42.3107 190.783C42.6969 190.702 43.1897 190.662 43.7891 190.662H44.3683V191.18H43.8237C43.4836 191.18 43.1954 191.192 42.9591 191.215C42.7228 191.238 42.5297 191.275 42.3799 191.327C42.2358 191.379 42.1292 191.454 42.06 191.552C41.9908 191.644 41.9562 191.762 41.9562 191.907C41.9562 192.143 42.0456 192.327 42.2243 192.46C42.4087 192.587 42.6421 192.65 42.9245 192.65C43.1666 192.65 43.3856 192.592 43.5816 192.477C43.7833 192.362 43.9447 192.209 44.0658 192.019C44.1868 191.829 44.2473 191.618 44.2473 191.388V190.411C44.2473 190.071 44.1551 189.823 43.9707 189.667C43.792 189.512 43.5182 189.434 43.1493 189.434C42.8957 189.434 42.645 189.469 42.3972 189.538C42.1493 189.607 41.8928 189.722 41.6277 189.883L41.377 189.33C41.5499 189.221 41.7372 189.128 41.939 189.054C42.1407 188.979 42.3511 188.921 42.5701 188.881C42.7891 188.84 43.0024 188.82 43.2098 188.82C43.5787 188.82 43.8957 188.881 44.1609 189.002C44.426 189.117 44.6277 189.296 44.766 189.538C44.9101 189.78 44.9822 190.091 44.9822 190.471V193.16H44.3078V192.218H44.3165C44.2473 192.408 44.1407 192.581 43.9966 192.737C43.8583 192.886 43.6854 193.007 43.4779 193.1C43.2761 193.192 43.0456 193.238 42.7862 193.238ZM46.4681 193.16V188.898H47.1597V189.883H47.1511C47.2606 189.566 47.4421 189.319 47.6957 189.14C47.9493 188.956 48.2663 188.852 48.6467 188.829L49.0099 188.811L49.079 189.494L48.4911 189.546C48.0934 189.581 47.7822 189.711 47.5574 189.935C47.3384 190.16 47.2289 190.445 47.2289 190.791V193.16H46.4681ZM52.352 193.16V192.598L54.4874 190.35C54.6949 190.131 54.8563 189.932 54.9716 189.754C55.0926 189.569 55.1762 189.394 55.2223 189.226C55.2741 189.059 55.3001 188.886 55.3001 188.708C55.3001 188.373 55.1935 188.114 54.9802 187.93C54.7669 187.745 54.4672 187.653 54.0811 187.653C53.7929 187.653 53.5076 187.711 53.2252 187.826C52.9485 187.935 52.6863 188.111 52.4384 188.353L52.1445 187.757C52.3981 187.515 52.6978 187.327 53.0436 187.195C53.3952 187.056 53.7612 186.987 54.1416 186.987C54.5393 186.987 54.8793 187.056 55.1618 187.195C55.4499 187.327 55.669 187.518 55.8188 187.765C55.9744 188.013 56.0522 188.313 56.0522 188.664C56.0522 188.843 56.0321 189.019 55.9917 189.192C55.9514 189.365 55.888 189.538 55.8015 189.711C55.7151 189.878 55.6056 190.051 55.473 190.229C55.3404 190.402 55.1819 190.587 54.9975 190.783L53.2857 192.572V192.503H56.303V193.16H52.352ZM59.412 193.238C58.9451 193.238 58.5503 193.12 58.2275 192.883C57.9105 192.641 57.6685 192.29 57.5013 191.829C57.3399 191.362 57.2592 190.788 57.2592 190.108C57.2592 189.428 57.3399 188.858 57.5013 188.396C57.6685 187.93 57.9105 187.578 58.2275 187.342C58.5503 187.105 58.9451 186.987 59.412 186.987C59.8846 186.987 60.2794 187.105 60.5964 187.342C60.9192 187.578 61.1613 187.927 61.3226 188.388C61.484 188.849 61.5647 189.42 61.5647 190.1C61.5647 190.78 61.4811 191.353 61.314 191.82C61.1526 192.287 60.9105 192.641 60.5878 192.883C60.2708 193.12 59.8788 193.238 59.412 193.238ZM59.412 192.572C59.8846 192.572 60.2362 192.373 60.4667 191.976C60.703 191.572 60.8212 190.947 60.8212 190.1C60.8212 189.258 60.7059 188.641 60.4754 188.249C60.2448 187.852 59.8904 187.653 59.412 187.653C58.9394 187.653 58.5849 187.852 58.3486 188.249C58.118 188.641 58.0028 189.261 58.0028 190.108C58.0028 190.95 58.118 191.572 58.3486 191.976C58.5849 192.373 58.9394 192.572 59.412 192.572ZM63.0397 194.371L62.668 194.068C62.7717 193.97 62.8524 193.86 62.91 193.739C62.9677 193.624 63.0109 193.503 63.0397 193.376C63.0685 193.255 63.083 193.137 63.083 193.022L63.2299 193.16H62.6075V192.226H63.5844V192.918C63.5844 193.091 63.5671 193.264 63.5325 193.437C63.4979 193.61 63.4403 193.774 63.3596 193.93C63.2789 194.091 63.1723 194.238 63.0397 194.371ZM67.2959 193.16V192.598L69.4313 190.35C69.6388 190.131 69.8002 189.932 69.9155 189.754C70.0365 189.569 70.1201 189.394 70.1662 189.226C70.2181 189.059 70.244 188.886 70.244 188.708C70.244 188.373 70.1374 188.114 69.9241 187.93C69.7109 187.745 69.4112 187.653 69.025 187.653C68.7368 187.653 68.4515 187.711 68.1691 187.826C67.8924 187.935 67.6302 188.111 67.3824 188.353L67.0884 187.757C67.342 187.515 67.6417 187.327 67.9875 187.195C68.3391 187.056 68.7051 186.987 69.0855 186.987C69.4832 186.987 69.8233 187.056 70.1057 187.195C70.3939 187.327 70.6129 187.518 70.7628 187.765C70.9184 188.013 70.9962 188.313 70.9962 188.664C70.9962 188.843 70.976 189.019 70.9357 189.192C70.8953 189.365 70.8319 189.538 70.7455 189.711C70.659 189.878 70.5495 190.051 70.4169 190.229C70.2844 190.402 70.1259 190.587 69.9414 190.783L68.2296 192.572V192.503H71.2469V193.16H67.2959ZM74.3559 193.238C73.8891 193.238 73.4942 193.12 73.1715 192.883C72.8545 192.641 72.6124 192.29 72.4453 191.829C72.2839 191.362 72.2032 190.788 72.2032 190.108C72.2032 189.428 72.2839 188.858 72.4453 188.396C72.6124 187.93 72.8545 187.578 73.1715 187.342C73.4942 187.105 73.8891 186.987 74.3559 186.987C74.8285 186.987 75.2234 187.105 75.5404 187.342C75.8631 187.578 76.1052 187.927 76.2666 188.388C76.428 188.849 76.5087 189.42 76.5087 190.1C76.5087 190.78 76.4251 191.353 76.2579 191.82C76.0966 192.287 75.8545 192.641 75.5317 192.883C75.2147 193.12 74.8228 193.238 74.3559 193.238ZM74.3559 192.572C74.8285 192.572 75.1801 192.373 75.4107 191.976C75.647 191.572 75.7651 190.947 75.7651 190.1C75.7651 189.258 75.6499 188.641 75.4193 188.249C75.1888 187.852 74.8343 187.653 74.3559 187.653C73.8833 187.653 73.5288 187.852 73.2925 188.249C73.062 188.641 72.9467 189.261 72.9467 190.108C72.9467 190.95 73.062 191.572 73.2925 191.976C73.5288 192.373 73.8833 192.572 74.3559 192.572ZM79.4621 193.238C79.2027 193.238 78.9462 193.212 78.6926 193.16C78.4448 193.108 78.2113 193.028 77.9923 192.918C77.7733 192.809 77.5744 192.673 77.3958 192.512L77.6811 191.915C77.9577 192.152 78.243 192.322 78.537 192.425C78.8367 192.523 79.1422 192.572 79.4534 192.572C79.7128 192.572 79.9433 192.535 80.1451 192.46C80.3525 192.379 80.5139 192.258 80.6292 192.097C80.7445 191.935 80.8021 191.728 80.8021 191.474C80.8021 191.123 80.684 190.855 80.4476 190.67C80.2113 190.486 79.8684 190.394 79.4188 190.394H78.5024V189.745H79.3151C79.5744 189.745 79.805 189.702 80.0067 189.615C80.2085 189.529 80.3641 189.402 80.4736 189.235C80.5889 189.068 80.6465 188.86 80.6465 188.613C80.6465 188.29 80.537 188.051 80.318 187.895C80.1047 187.734 79.8223 187.653 79.4707 187.653C79.1652 187.653 78.8684 187.708 78.5802 187.817C78.292 187.921 78.0269 188.097 77.7848 188.345L77.4995 187.757C77.7416 187.503 78.0384 187.313 78.39 187.186C78.7474 187.054 79.1191 186.987 79.5053 186.987C79.8915 186.987 80.2257 187.051 80.5082 187.177C80.7906 187.298 81.0067 187.477 81.1566 187.713C81.3122 187.944 81.39 188.224 81.39 188.552C81.39 188.904 81.292 189.212 81.0961 189.477C80.9001 189.742 80.6321 189.927 80.292 190.03V190.013C80.5399 190.059 80.756 190.149 80.9404 190.281C81.1306 190.414 81.2776 190.584 81.3814 190.791C81.4909 190.993 81.5456 191.232 81.5456 191.509C81.5456 191.872 81.4592 192.183 81.2863 192.443C81.1134 192.702 80.8713 192.901 80.56 193.039C80.2488 193.172 79.8828 193.238 79.4621 193.238ZM84.9313 193.238C84.4414 193.238 84.0264 193.12 83.6863 192.883C83.3463 192.647 83.0869 192.307 82.9082 191.863C82.7353 191.414 82.6489 190.875 82.6489 190.247C82.6489 189.549 82.7469 188.958 82.9428 188.474C83.1388 187.99 83.4212 187.621 83.7901 187.368C84.159 187.114 84.6028 186.987 85.1215 186.987C85.3463 186.987 85.5624 187.016 85.7699 187.074C85.9774 187.131 86.1734 187.215 86.3578 187.324C86.548 187.428 86.718 187.561 86.8679 187.722L86.5912 188.31C86.3665 188.074 86.1301 187.907 85.8823 187.809C85.6402 187.705 85.3837 187.653 85.1129 187.653C84.8304 187.653 84.5797 187.708 84.3607 187.817C84.1417 187.921 83.9572 188.079 83.8074 188.293C83.6575 188.5 83.5451 188.76 83.4702 189.071C83.3953 189.382 83.3578 189.739 83.3578 190.143V190.705H83.3492C83.3953 190.417 83.4961 190.172 83.6518 189.97C83.8074 189.762 84.0033 189.604 84.2397 189.494C84.476 189.379 84.7325 189.322 85.0091 189.322C85.378 189.322 85.7008 189.405 85.9774 189.572C86.2598 189.734 86.4788 189.961 86.6345 190.255C86.7959 190.543 86.8765 190.878 86.8765 191.258C86.8765 191.639 86.793 191.979 86.6258 192.278C86.4644 192.578 86.2368 192.814 85.9428 192.987C85.6489 193.154 85.3117 193.238 84.9313 193.238ZM84.8881 192.59C85.1417 192.59 85.3636 192.535 85.5538 192.425C85.7497 192.316 85.8996 192.163 86.0033 191.967C86.1129 191.765 86.1676 191.535 86.1676 191.275C86.1676 191.016 86.1129 190.788 86.0033 190.592C85.8938 190.396 85.744 190.244 85.5538 190.134C85.3636 190.025 85.1417 189.97 84.8881 189.97C84.6287 189.97 84.401 190.025 84.2051 190.134C84.0149 190.244 83.8621 190.396 83.7469 190.592C83.6374 190.788 83.5826 191.016 83.5826 191.275C83.5826 191.535 83.6374 191.765 83.7469 191.967C83.8564 192.163 84.0091 192.316 84.2051 192.425C84.401 192.535 84.6287 192.59 84.8881 192.59ZM89.7034 191.094V190.575H94.0262V191.094H89.7034ZM97.2542 193.16V192.503H98.8795V187.679L99.2859 187.722L97.5567 188.837L97.2196 188.249L99.0784 187.065H99.6317V192.503H101.136V193.16H97.2542ZM104.193 193.238C103.726 193.238 103.331 193.12 103.009 192.883C102.692 192.641 102.45 192.29 102.282 191.829C102.121 191.362 102.04 190.788 102.04 190.108C102.04 189.428 102.121 188.858 102.282 188.396C102.45 187.93 102.692 187.578 103.009 187.342C103.331 187.105 103.726 186.987 104.193 186.987C104.666 186.987 105.061 187.105 105.378 187.342C105.7 187.578 105.942 187.927 106.104 188.388C106.265 188.849 106.346 189.42 106.346 190.1C106.346 190.78 106.262 191.353 106.095 191.82C105.934 192.287 105.692 192.641 105.369 192.883C105.052 193.12 104.66 193.238 104.193 193.238ZM104.193 192.572C104.666 192.572 105.017 192.373 105.248 191.976C105.484 191.572 105.602 190.947 105.602 190.1C105.602 189.258 105.487 188.641 105.257 188.249C105.026 187.852 104.672 187.653 104.193 187.653C103.721 187.653 103.366 187.852 103.13 188.249C102.899 188.641 102.784 189.261 102.784 190.108C102.784 190.95 102.899 191.572 103.13 191.976C103.366 192.373 103.721 192.572 104.193 192.572ZM107.389 189.814V188.898H108.366V189.814H107.389ZM107.389 193.16V192.244H108.366V193.16H107.389ZM111.564 193.238C111.097 193.238 110.702 193.12 110.379 192.883C110.062 192.641 109.82 192.29 109.653 191.829C109.492 191.362 109.411 190.788 109.411 190.108C109.411 189.428 109.492 188.858 109.653 188.396C109.82 187.93 110.062 187.578 110.379 187.342C110.702 187.105 111.097 186.987 111.564 186.987C112.036 186.987 112.431 187.105 112.748 187.342C113.071 187.578 113.313 187.927 113.474 188.388C113.636 188.849 113.717 189.42 113.717 190.1C113.717 190.78 113.633 191.353 113.466 191.82C113.304 192.287 113.062 192.641 112.74 192.883C112.423 193.12 112.031 193.238 111.564 193.238ZM111.564 192.572C112.036 192.572 112.388 192.373 112.619 191.976C112.855 191.572 112.973 190.947 112.973 190.1C112.973 189.258 112.858 188.641 112.627 188.249C112.397 187.852 112.042 187.653 111.564 187.653C111.091 187.653 110.737 187.852 110.5 188.249C110.27 188.641 110.155 189.261 110.155 190.108C110.155 190.95 110.27 191.572 110.5 191.976C110.737 192.373 111.091 192.572 111.564 192.572ZM116.748 193.238C116.281 193.238 115.886 193.12 115.563 192.883C115.246 192.641 115.004 192.29 114.837 191.829C114.676 191.362 114.595 190.788 114.595 190.108C114.595 189.428 114.676 188.858 114.837 188.396C115.004 187.93 115.246 187.578 115.563 187.342C115.886 187.105 116.281 186.987 116.748 186.987C117.22 186.987 117.615 187.105 117.932 187.342C118.255 187.578 118.497 187.927 118.658 188.388C118.82 188.849 118.9 189.42 118.9 190.1C118.9 190.78 118.817 191.353 118.65 191.82C118.488 192.287 118.246 192.641 117.924 192.883C117.607 193.12 117.215 193.238 116.748 193.238ZM116.748 192.572C117.22 192.572 117.572 192.373 117.802 191.976C118.039 191.572 118.157 190.947 118.157 190.1C118.157 189.258 118.042 188.641 117.811 188.249C117.581 187.852 117.226 187.653 116.748 187.653C116.275 187.653 115.921 187.852 115.684 188.249C115.454 188.641 115.339 189.261 115.339 190.108C115.339 190.95 115.454 191.572 115.684 191.976C115.921 192.373 116.275 192.572 116.748 192.572ZM121.987 193.16L124.667 187.065H125.35L128.03 193.16H127.235L126.482 191.422L126.863 191.656H123.145L123.517 191.422L122.782 193.16H121.987ZM124.987 187.938L123.621 191.172L123.405 191.007H126.603L126.387 191.172L125.021 187.938H124.987ZM129.178 193.16V187.065H129.999L132.239 191.457H132.143L134.374 187.065H135.187V193.16H134.469V188.137H134.53L132.463 192.201H131.919L129.826 188.128H129.904V193.16H129.178Z" fill="#6D6B77"/>
<path d="M187.162 163.703V157.608H189.289C189.94 157.608 190.494 157.726 190.949 157.962C191.41 158.199 191.759 158.545 191.995 159C192.231 159.45 192.35 160 192.35 160.651C192.35 161.303 192.229 161.856 191.986 162.311C191.75 162.767 191.404 163.112 190.949 163.349C190.494 163.585 189.94 163.703 189.289 163.703H187.162ZM187.923 163.037H189.246C190.007 163.037 190.58 162.841 190.966 162.45C191.358 162.052 191.554 161.452 191.554 160.651C191.554 159.85 191.358 159.254 190.966 158.862C190.58 158.47 190.007 158.274 189.246 158.274H187.923V163.037ZM195.768 163.781C195.296 163.781 194.886 163.694 194.54 163.522C194.2 163.343 193.938 163.089 193.754 162.761C193.569 162.426 193.477 162.032 193.477 161.576C193.477 161.144 193.564 160.764 193.736 160.435C193.909 160.101 194.151 159.839 194.463 159.648C194.78 159.458 195.154 159.363 195.587 159.363C195.996 159.363 196.345 159.452 196.633 159.631C196.921 159.804 197.14 160.052 197.29 160.375C197.445 160.697 197.523 161.081 197.523 161.524V161.775H194.048V161.248H197.022L196.866 161.412C196.866 160.939 196.757 160.576 196.538 160.323C196.319 160.069 196.002 159.942 195.587 159.942C195.31 159.942 195.068 160.006 194.86 160.133C194.653 160.259 194.491 160.438 194.376 160.669C194.267 160.893 194.212 161.164 194.212 161.481V161.559C194.212 161.911 194.272 162.205 194.394 162.441C194.515 162.677 194.693 162.856 194.93 162.977C195.166 163.098 195.448 163.158 195.777 163.158C196.013 163.158 196.252 163.127 196.494 163.063C196.736 162.994 196.964 162.873 197.177 162.7L197.437 163.236C197.223 163.421 196.964 163.559 196.659 163.651C196.359 163.738 196.062 163.781 195.768 163.781ZM200.291 163.781C200.054 163.781 199.824 163.758 199.599 163.712C199.38 163.671 199.175 163.614 198.985 163.539C198.795 163.458 198.631 163.36 198.492 163.245L198.734 162.709C198.884 162.818 199.046 162.908 199.219 162.977C199.392 163.046 199.567 163.098 199.746 163.133C199.93 163.161 200.112 163.176 200.291 163.176C200.636 163.176 200.904 163.121 201.095 163.011C201.291 162.902 201.389 162.749 201.389 162.553C201.389 162.386 201.331 162.256 201.216 162.164C201.1 162.072 200.916 162.003 200.662 161.957L199.789 161.801C199.397 161.726 199.103 161.591 198.907 161.395C198.711 161.199 198.613 160.945 198.613 160.634C198.613 160.38 198.683 160.158 198.821 159.968C198.965 159.778 199.167 159.631 199.426 159.527C199.691 159.418 200.002 159.363 200.36 159.363C200.567 159.363 200.772 159.383 200.974 159.424C201.181 159.464 201.374 159.524 201.553 159.605C201.732 159.68 201.876 159.775 201.985 159.89L201.734 160.426C201.619 160.323 201.484 160.236 201.328 160.167C201.172 160.098 201.011 160.049 200.844 160.02C200.683 159.986 200.521 159.968 200.36 159.968C200.031 159.968 199.775 160.026 199.59 160.141C199.406 160.256 199.314 160.415 199.314 160.617C199.314 160.778 199.366 160.905 199.469 160.997C199.579 161.089 199.752 161.158 199.988 161.205L200.844 161.369C201.265 161.45 201.576 161.582 201.778 161.767C201.985 161.951 202.089 162.205 202.089 162.527C202.089 162.781 202.014 163.003 201.864 163.193C201.714 163.383 201.504 163.53 201.233 163.634C200.968 163.732 200.654 163.781 200.291 163.781ZM205.058 163.781C204.545 163.781 204.159 163.645 203.899 163.375C203.64 163.104 203.51 162.718 203.51 162.216V160.063H202.654V159.441H203.536V158.17H204.263V159.441H205.767V160.063H204.271V162.156C204.271 162.478 204.343 162.72 204.487 162.882C204.631 163.043 204.856 163.124 205.162 163.124C205.277 163.124 205.389 163.112 205.499 163.089C205.608 163.066 205.715 163.035 205.819 162.994L205.94 163.591C205.83 163.648 205.695 163.694 205.533 163.729C205.372 163.764 205.214 163.781 205.058 163.781ZM206.711 158.412V157.565H207.636V158.412H206.711ZM206.798 163.703V159.441H207.55V163.703H206.798ZM209.052 163.703V159.441H209.761V160.366H209.744C209.882 160.049 210.089 159.804 210.366 159.631C210.643 159.452 210.954 159.363 211.3 159.363C211.651 159.363 211.942 159.426 212.173 159.553C212.409 159.674 212.585 159.862 212.7 160.115C212.816 160.369 212.873 160.689 212.873 161.075V163.703H212.121V161.109C212.121 160.879 212.086 160.683 212.017 160.522C211.954 160.354 211.85 160.228 211.706 160.141C211.562 160.049 211.372 160.003 211.135 160.003C210.876 160.003 210.646 160.06 210.444 160.176C210.242 160.291 210.084 160.447 209.968 160.643C209.859 160.839 209.804 161.06 209.804 161.308V163.703H209.052ZM215.772 163.781C215.472 163.781 215.201 163.726 214.959 163.617C214.723 163.501 214.535 163.346 214.397 163.15C214.259 162.954 214.19 162.735 214.19 162.493C214.19 162.17 214.279 161.916 214.458 161.732C214.636 161.542 214.916 161.406 215.296 161.326C215.682 161.245 216.175 161.205 216.775 161.205H217.354V161.723H216.809C216.469 161.723 216.181 161.735 215.945 161.758C215.708 161.781 215.515 161.818 215.365 161.87C215.221 161.922 215.115 161.997 215.045 162.095C214.976 162.187 214.942 162.305 214.942 162.45C214.942 162.686 215.031 162.87 215.21 163.003C215.394 163.13 215.628 163.193 215.91 163.193C216.152 163.193 216.371 163.135 216.567 163.02C216.769 162.905 216.93 162.752 217.051 162.562C217.172 162.372 217.233 162.161 217.233 161.931V160.954C217.233 160.614 217.141 160.366 216.956 160.21C216.777 160.055 216.504 159.977 216.135 159.977C215.881 159.977 215.63 160.011 215.383 160.081C215.135 160.15 214.878 160.265 214.613 160.426L214.362 159.873C214.535 159.764 214.723 159.671 214.924 159.596C215.126 159.522 215.337 159.464 215.556 159.424C215.775 159.383 215.988 159.363 216.195 159.363C216.564 159.363 216.881 159.424 217.146 159.545C217.411 159.66 217.613 159.839 217.752 160.081C217.896 160.323 217.968 160.634 217.968 161.014V163.703H217.293V162.761H217.302C217.233 162.951 217.126 163.124 216.982 163.279C216.844 163.429 216.671 163.55 216.463 163.643C216.262 163.735 216.031 163.781 215.772 163.781ZM221.235 163.781C220.722 163.781 220.335 163.645 220.076 163.375C219.817 163.104 219.687 162.718 219.687 162.216V160.063H218.831V159.441H219.713V158.17H220.439V159.441H221.943V160.063H220.448V162.156C220.448 162.478 220.52 162.72 220.664 162.882C220.808 163.043 221.033 163.124 221.338 163.124C221.454 163.124 221.566 163.112 221.675 163.089C221.785 163.066 221.892 163.035 221.995 162.994L222.116 163.591C222.007 163.648 221.871 163.694 221.71 163.729C221.549 163.764 221.39 163.781 221.235 163.781ZM222.888 158.412V157.565H223.813V158.412H222.888ZM222.974 163.703V159.441H223.726V163.703H222.974ZM227.07 163.781C226.643 163.781 226.272 163.689 225.955 163.504C225.643 163.32 225.401 163.063 225.228 162.735C225.056 162.401 224.969 162.011 224.969 161.568C224.969 161.124 225.056 160.738 225.228 160.409C225.401 160.075 225.643 159.818 225.955 159.64C226.272 159.455 226.643 159.363 227.07 159.363C227.496 159.363 227.865 159.455 228.177 159.64C228.494 159.818 228.736 160.075 228.903 160.409C229.076 160.738 229.162 161.124 229.162 161.568C229.162 162.011 229.076 162.401 228.903 162.735C228.736 163.063 228.494 163.32 228.177 163.504C227.865 163.689 227.496 163.781 227.07 163.781ZM227.061 163.141C227.482 163.141 227.811 163.003 228.047 162.726C228.289 162.444 228.41 162.058 228.41 161.568C228.41 161.078 228.289 160.694 228.047 160.418C227.811 160.141 227.485 160.003 227.07 160.003C226.655 160.003 226.326 160.141 226.084 160.418C225.842 160.694 225.721 161.078 225.721 161.568C225.721 162.058 225.842 162.444 226.084 162.726C226.326 163.003 226.652 163.141 227.061 163.141ZM230.404 163.703V159.441H231.113V160.366H231.096C231.234 160.049 231.441 159.804 231.718 159.631C231.995 159.452 232.306 159.363 232.652 159.363C233.003 159.363 233.294 159.426 233.525 159.553C233.761 159.674 233.937 159.862 234.052 160.115C234.168 160.369 234.225 160.689 234.225 161.075V163.703H233.473V161.109C233.473 160.879 233.439 160.683 233.369 160.522C233.306 160.354 233.202 160.228 233.058 160.141C232.914 160.049 232.724 160.003 232.488 160.003C232.228 160.003 231.998 160.06 231.796 160.176C231.594 160.291 231.436 160.447 231.32 160.643C231.211 160.839 231.156 161.06 231.156 161.308V163.703H230.404Z" fill="#6D6B77"/>
<path d="M187.282 179.432V170.898H188.238L193.43 177.749H193.128V170.898H194.29V179.432H193.358L188.165 172.581H188.444V179.432H187.282ZM198.915 179.541C198.27 179.541 197.713 179.42 197.245 179.177C196.785 178.927 196.426 178.576 196.168 178.124C195.918 177.664 195.792 177.12 195.792 176.49C195.792 175.877 195.918 175.341 196.168 174.881C196.418 174.421 196.761 174.062 197.197 173.803C197.632 173.545 198.129 173.416 198.685 173.416C199.234 173.416 199.702 173.537 200.089 173.779C200.485 174.013 200.787 174.348 200.997 174.784C201.207 175.22 201.312 175.74 201.312 176.345V176.757H196.761V176.006H200.489L200.283 176.176C200.283 175.571 200.15 175.103 199.884 174.772C199.617 174.441 199.234 174.275 198.734 174.275C198.354 174.275 198.032 174.364 197.765 174.542C197.507 174.719 197.309 174.965 197.172 175.28C197.035 175.595 196.967 175.962 196.967 176.381V176.454C196.967 176.922 197.039 177.318 197.184 177.64C197.338 177.955 197.56 178.193 197.85 178.354C198.141 178.516 198.5 178.596 198.927 178.596C199.266 178.596 199.597 178.544 199.92 178.439C200.251 178.326 200.561 178.153 200.852 177.919L201.215 178.766C200.949 179.008 200.606 179.198 200.186 179.335C199.767 179.472 199.343 179.541 198.915 179.541ZM204.159 179.432L201.908 173.525H203.167L204.898 178.403H204.607L206.387 173.525H207.331L209.074 178.403H208.807L210.55 173.525H211.749L209.497 179.432H208.384L206.52 174.396H207.125L205.273 179.432H204.159ZM216.111 179.432V170.898H219.125C220.061 170.898 220.855 171.064 221.509 171.395C222.163 171.718 222.659 172.198 222.998 172.835C223.345 173.464 223.518 174.239 223.518 175.159C223.518 176.079 223.345 176.858 222.998 177.495C222.659 178.124 222.163 178.605 221.509 178.935C220.855 179.266 220.061 179.432 219.125 179.432H216.111ZM217.369 178.379H219.052C220.109 178.379 220.9 178.112 221.424 177.58C221.949 177.039 222.211 176.232 222.211 175.159C222.211 174.086 221.945 173.283 221.412 172.75C220.888 172.218 220.101 171.952 219.052 171.952H217.369V178.379ZM227.839 179.541C227.193 179.541 226.637 179.42 226.169 179.177C225.709 178.927 225.35 178.576 225.091 178.124C224.841 177.664 224.716 177.12 224.716 176.49C224.716 175.877 224.841 175.341 225.091 174.881C225.342 174.421 225.684 174.062 226.12 173.803C226.556 173.545 227.052 173.416 227.609 173.416C228.158 173.416 228.626 173.537 229.013 173.779C229.408 174.013 229.711 174.348 229.921 174.784C230.131 175.22 230.235 175.74 230.235 176.345V176.757H225.684V176.006H229.412L229.207 176.176C229.207 175.571 229.074 175.103 228.807 174.772C228.541 174.441 228.158 174.275 227.657 174.275C227.278 174.275 226.955 174.364 226.689 174.542C226.431 174.719 226.233 174.965 226.096 175.28C225.959 175.595 225.89 175.962 225.89 176.381V176.454C225.89 176.922 225.963 177.318 226.108 177.64C226.261 177.955 226.483 178.193 226.774 178.354C227.064 178.516 227.423 178.596 227.851 178.596C228.19 178.596 228.521 178.544 228.844 178.439C229.174 178.326 229.485 178.153 229.776 177.919L230.139 178.766C229.872 179.008 229.529 179.198 229.11 179.335C228.69 179.472 228.267 179.541 227.839 179.541ZM233.493 179.541C232.847 179.541 232.363 179.359 232.04 178.996C231.726 178.625 231.568 178.092 231.568 177.398V170.898H232.791V177.326C232.791 177.584 232.827 177.806 232.9 177.991C232.972 178.169 233.081 178.302 233.226 178.391C233.372 178.479 233.553 178.524 233.771 178.524C233.868 178.524 233.961 178.52 234.05 178.512C234.138 178.504 234.223 178.488 234.304 178.463L234.279 179.444C234.142 179.476 234.009 179.5 233.88 179.516C233.751 179.533 233.622 179.541 233.493 179.541ZM235.268 179.432V170.898H236.49V174.784H236.321C236.498 174.332 236.777 173.993 237.156 173.767C237.535 173.533 237.971 173.416 238.463 173.416C238.931 173.416 239.319 173.505 239.625 173.682C239.94 173.852 240.174 174.114 240.327 174.469C240.481 174.816 240.557 175.256 240.557 175.788V179.432H239.335V175.861C239.335 175.522 239.29 175.248 239.202 175.038C239.113 174.82 238.98 174.659 238.802 174.554C238.625 174.449 238.395 174.396 238.112 174.396C237.79 174.396 237.503 174.465 237.253 174.602C237.011 174.739 236.821 174.937 236.684 175.195C236.555 175.454 236.49 175.752 236.49 176.091V179.432H235.268ZM242.133 172.157V170.886H243.561V172.157H242.133ZM242.242 179.432V173.525H243.464V179.432H242.242ZM245.657 180.92L245.124 180.509C245.286 180.339 245.407 180.182 245.488 180.037C245.576 179.892 245.637 179.746 245.669 179.601C245.709 179.456 245.73 179.311 245.73 179.165L245.996 179.432H245.04V177.991H246.48V178.972C246.48 179.214 246.452 179.444 246.395 179.662C246.347 179.879 246.262 180.089 246.141 180.291C246.028 180.501 245.867 180.711 245.657 180.92ZM251.37 179.432V170.898H252.629V179.432H251.37ZM254.464 179.432V173.525H255.65V174.784H255.517C255.694 174.332 255.973 173.993 256.352 173.767C256.731 173.533 257.167 173.416 257.659 173.416C258.127 173.416 258.514 173.505 258.821 173.682C259.136 173.852 259.37 174.114 259.523 174.469C259.676 174.816 259.753 175.256 259.753 175.788V179.432H258.531V175.861C258.531 175.522 258.486 175.248 258.397 175.038C258.309 174.82 258.176 174.659 257.998 174.554C257.82 174.449 257.59 174.396 257.308 174.396C256.985 174.396 256.699 174.465 256.449 174.602C256.207 174.739 256.017 174.937 255.88 175.195C255.751 175.454 255.686 175.752 255.686 176.091V179.432H254.464ZM263.689 179.541C263.172 179.541 262.716 179.42 262.321 179.177C261.934 178.927 261.631 178.572 261.413 178.112C261.195 177.644 261.087 177.1 261.087 176.478C261.087 175.841 261.195 175.296 261.413 174.844C261.631 174.392 261.934 174.041 262.321 173.791C262.716 173.541 263.172 173.416 263.689 173.416C264.205 173.416 264.649 173.545 265.02 173.803C265.399 174.054 265.654 174.392 265.783 174.82H265.65V170.898H266.872V179.432H265.674V178.1H265.795C265.666 178.536 265.412 178.887 265.032 179.153C264.661 179.411 264.213 179.541 263.689 179.541ZM264.004 178.596C264.504 178.596 264.907 178.415 265.214 178.052C265.521 177.689 265.674 177.164 265.674 176.478C265.674 175.784 265.521 175.26 265.214 174.905C264.907 174.55 264.504 174.372 264.004 174.372C263.495 174.372 263.088 174.55 262.781 174.905C262.474 175.26 262.321 175.784 262.321 176.478C262.321 177.164 262.474 177.689 262.781 178.052C263.088 178.415 263.495 178.596 264.004 178.596ZM268.48 172.157V170.886H269.908V172.157H268.48ZM268.589 179.432V173.525H269.811V179.432H268.589ZM273.42 179.541C273.009 179.541 272.637 179.46 272.307 179.298C271.984 179.137 271.73 178.919 271.544 178.645C271.358 178.371 271.266 178.06 271.266 177.713C271.266 177.277 271.375 176.934 271.592 176.684C271.818 176.426 272.185 176.244 272.694 176.139C273.21 176.026 273.904 175.97 274.776 175.97H275.345V176.72H274.788C274.352 176.72 273.985 176.737 273.686 176.769C273.388 176.801 273.15 176.854 272.972 176.926C272.795 176.991 272.666 177.084 272.585 177.205C272.512 177.326 272.476 177.471 272.476 177.64C272.476 177.947 272.581 178.197 272.791 178.391C273 178.576 273.291 178.669 273.662 178.669C273.961 178.669 274.223 178.601 274.449 178.463C274.675 178.318 274.852 178.124 274.981 177.882C275.119 177.64 275.187 177.362 275.187 177.047V175.655C275.187 175.195 275.09 174.864 274.897 174.663C274.703 174.461 274.384 174.36 273.941 174.36C273.602 174.36 273.263 174.413 272.924 174.518C272.585 174.614 272.238 174.772 271.883 174.99L271.508 174.13C271.717 173.985 271.96 173.86 272.234 173.755C272.508 173.65 272.795 173.569 273.093 173.513C273.4 173.448 273.694 173.416 273.977 173.416C274.517 173.416 274.961 173.501 275.308 173.67C275.663 173.84 275.926 174.098 276.095 174.445C276.264 174.792 276.349 175.24 276.349 175.788V179.432H275.199V178.112H275.308C275.244 178.411 275.123 178.669 274.945 178.887C274.776 179.097 274.562 179.258 274.304 179.371C274.045 179.484 273.751 179.541 273.42 179.541Z" fill="black"/>
<path d="M188.088 193.162V187.067H188.909L191.148 191.459H191.053L193.284 187.067H194.097V193.162H193.379V188.139H193.44L191.373 192.202H190.829L188.736 188.13H188.814V193.162H188.088ZM197.152 193.24C196.852 193.24 196.581 193.185 196.339 193.076C196.103 192.96 195.915 192.805 195.777 192.609C195.639 192.413 195.57 192.194 195.57 191.952C195.57 191.629 195.659 191.375 195.838 191.191C196.016 191.001 196.296 190.865 196.676 190.785C197.062 190.704 197.555 190.664 198.155 190.664H198.734V191.182H198.189C197.849 191.182 197.561 191.194 197.325 191.217C197.088 191.24 196.895 191.277 196.745 191.329C196.601 191.381 196.495 191.456 196.425 191.554C196.356 191.646 196.322 191.764 196.322 191.909C196.322 192.145 196.411 192.329 196.59 192.462C196.774 192.589 197.008 192.652 197.29 192.652C197.532 192.652 197.751 192.594 197.947 192.479C198.149 192.364 198.31 192.211 198.431 192.021C198.552 191.831 198.613 191.62 198.613 191.39V190.413C198.613 190.073 198.521 189.825 198.336 189.669C198.157 189.514 197.884 189.436 197.515 189.436C197.261 189.436 197.01 189.47 196.763 189.54C196.515 189.609 196.258 189.724 195.993 189.885L195.742 189.332C195.915 189.223 196.103 189.13 196.304 189.055C196.506 188.981 196.716 188.923 196.936 188.883C197.155 188.842 197.368 188.822 197.575 188.822C197.944 188.822 198.261 188.883 198.526 189.004C198.791 189.119 198.993 189.298 199.131 189.54C199.276 189.782 199.348 190.093 199.348 190.473V193.162H198.673V192.22H198.682C198.613 192.41 198.506 192.583 198.362 192.738C198.224 192.888 198.051 193.009 197.843 193.102C197.642 193.194 197.411 193.24 197.152 193.24ZM200.834 193.162V188.9H201.525V189.885H201.517C201.626 189.568 201.808 189.321 202.061 189.142C202.315 188.957 202.632 188.854 203.012 188.831L203.375 188.813L203.444 189.496L202.857 189.548C202.459 189.583 202.148 189.713 201.923 189.937C201.704 190.162 201.594 190.447 201.594 190.793V193.162H200.834ZM206.717 193.162V192.6L208.853 190.352C209.06 190.133 209.222 189.934 209.337 189.756C209.458 189.571 209.542 189.396 209.588 189.228C209.64 189.061 209.666 188.888 209.666 188.71C209.666 188.375 209.559 188.116 209.346 187.932C209.132 187.747 208.833 187.655 208.447 187.655C208.158 187.655 207.873 187.713 207.591 187.828C207.314 187.937 207.052 188.113 206.804 188.355L206.51 187.759C206.764 187.517 207.063 187.329 207.409 187.197C207.761 187.058 208.127 186.989 208.507 186.989C208.905 186.989 209.245 187.058 209.527 187.197C209.815 187.329 210.034 187.519 210.184 187.767C210.34 188.015 210.418 188.315 210.418 188.666C210.418 188.845 210.398 189.021 210.357 189.194C210.317 189.367 210.253 189.54 210.167 189.713C210.081 189.88 209.971 190.053 209.838 190.231C209.706 190.404 209.547 190.589 209.363 190.785L207.651 192.574V192.505H210.668V193.162H206.717ZM213.7 193.24C213.44 193.24 213.184 193.214 212.93 193.162C212.682 193.11 212.449 193.03 212.23 192.92C212.011 192.811 211.812 192.675 211.633 192.514L211.919 191.917C212.195 192.153 212.481 192.323 212.775 192.427C213.074 192.525 213.38 192.574 213.691 192.574C213.95 192.574 214.181 192.537 214.383 192.462C214.59 192.381 214.751 192.26 214.867 192.099C214.982 191.937 215.04 191.73 215.04 191.476C215.04 191.125 214.922 190.857 214.685 190.672C214.449 190.488 214.106 190.396 213.656 190.396H212.74V189.747H213.553C213.812 189.747 214.043 189.704 214.244 189.617C214.446 189.531 214.602 189.404 214.711 189.237C214.826 189.07 214.884 188.862 214.884 188.615C214.884 188.292 214.775 188.053 214.556 187.897C214.342 187.736 214.06 187.655 213.708 187.655C213.403 187.655 213.106 187.71 212.818 187.819C212.53 187.923 212.264 188.099 212.022 188.347L211.737 187.759C211.979 187.505 212.276 187.315 212.628 187.188C212.985 187.055 213.357 186.989 213.743 186.989C214.129 186.989 214.463 187.053 214.746 187.179C215.028 187.3 215.244 187.479 215.394 187.715C215.55 187.946 215.628 188.226 215.628 188.554C215.628 188.906 215.53 189.214 215.334 189.479C215.138 189.744 214.87 189.929 214.53 190.032V190.015C214.777 190.061 214.994 190.151 215.178 190.283C215.368 190.416 215.515 190.586 215.619 190.793C215.728 190.995 215.783 191.234 215.783 191.511C215.783 191.874 215.697 192.185 215.524 192.445C215.351 192.704 215.109 192.903 214.798 193.041C214.486 193.174 214.12 193.24 213.7 193.24ZM218.757 191.096V190.577H223.08V191.096H218.757ZM228.063 193.24C227.596 193.24 227.201 193.122 226.878 192.885C226.561 192.643 226.319 192.292 226.152 191.831C225.991 191.364 225.91 190.79 225.91 190.11C225.91 189.43 225.991 188.86 226.152 188.398C226.319 187.932 226.561 187.58 226.878 187.344C227.201 187.107 227.596 186.989 228.063 186.989C228.535 186.989 228.93 187.107 229.247 187.344C229.57 187.58 229.812 187.929 229.973 188.39C230.135 188.851 230.216 189.421 230.216 190.102C230.216 190.782 230.132 191.355 229.965 191.822C229.803 192.289 229.561 192.643 229.239 192.885C228.922 193.122 228.53 193.24 228.063 193.24ZM228.063 192.574C228.535 192.574 228.887 192.375 229.118 191.978C229.354 191.574 229.472 190.949 229.472 190.102C229.472 189.26 229.357 188.643 229.126 188.251C228.896 187.854 228.541 187.655 228.063 187.655C227.59 187.655 227.236 187.854 226.999 188.251C226.769 188.643 226.654 189.263 226.654 190.11C226.654 190.952 226.769 191.574 226.999 191.978C227.236 192.375 227.59 192.574 228.063 192.574ZM233.169 193.24C232.91 193.24 232.653 193.214 232.399 193.162C232.152 193.11 231.918 193.03 231.699 192.92C231.48 192.811 231.281 192.675 231.103 192.514L231.388 191.917C231.665 192.153 231.95 192.323 232.244 192.427C232.544 192.525 232.849 192.574 233.16 192.574C233.42 192.574 233.65 192.537 233.852 192.462C234.059 192.381 234.221 192.26 234.336 192.099C234.451 191.937 234.509 191.73 234.509 191.476C234.509 191.125 234.391 190.857 234.155 190.672C233.918 190.488 233.575 190.396 233.126 190.396H232.209V189.747H233.022C233.281 189.747 233.512 189.704 233.714 189.617C233.915 189.531 234.071 189.404 234.18 189.237C234.296 189.07 234.353 188.862 234.353 188.615C234.353 188.292 234.244 188.053 234.025 187.897C233.812 187.736 233.529 187.655 233.178 187.655C232.872 187.655 232.575 187.71 232.287 187.819C231.999 187.923 231.734 188.099 231.492 188.347L231.206 187.759C231.448 187.505 231.745 187.315 232.097 187.188C232.454 187.055 232.826 186.989 233.212 186.989C233.598 186.989 233.933 187.053 234.215 187.179C234.497 187.3 234.714 187.479 234.863 187.715C235.019 187.946 235.097 188.226 235.097 188.554C235.097 188.906 234.999 189.214 234.803 189.479C234.607 189.744 234.339 189.929 233.999 190.032V190.015C234.247 190.061 234.463 190.151 234.647 190.283C234.838 190.416 234.985 190.586 235.088 190.793C235.198 190.995 235.253 191.234 235.253 191.511C235.253 191.874 235.166 192.185 234.993 192.445C234.82 192.704 234.578 192.903 234.267 193.041C233.956 193.174 233.59 193.24 233.169 193.24ZM236.442 189.816V188.9H237.419V189.816H236.442ZM236.442 193.162V192.246H237.419V193.162H236.442ZM240.617 193.24C240.151 193.24 239.756 193.122 239.433 192.885C239.116 192.643 238.874 192.292 238.707 191.831C238.545 191.364 238.465 190.79 238.465 190.11C238.465 189.43 238.545 188.86 238.707 188.398C238.874 187.932 239.116 187.58 239.433 187.344C239.756 187.107 240.151 186.989 240.617 186.989C241.09 186.989 241.485 187.107 241.802 187.344C242.125 187.58 242.367 187.929 242.528 188.39C242.689 188.851 242.77 189.421 242.77 190.102C242.77 190.782 242.687 191.355 242.519 191.822C242.358 192.289 242.116 192.643 241.793 192.885C241.476 193.122 241.084 193.24 240.617 193.24ZM240.617 192.574C241.09 192.574 241.442 192.375 241.672 191.978C241.908 191.574 242.027 190.949 242.027 190.102C242.027 189.26 241.911 188.643 241.681 188.251C241.45 187.854 241.096 187.655 240.617 187.655C240.145 187.655 239.79 187.854 239.554 188.251C239.323 188.643 239.208 189.263 239.208 190.11C239.208 190.952 239.323 191.574 239.554 191.978C239.79 192.375 240.145 192.574 240.617 192.574ZM245.801 193.24C245.334 193.24 244.94 193.122 244.617 192.885C244.3 192.643 244.058 192.292 243.891 191.831C243.729 191.364 243.649 190.79 243.649 190.11C243.649 189.43 243.729 188.86 243.891 188.398C244.058 187.932 244.3 187.58 244.617 187.344C244.94 187.107 245.334 186.989 245.801 186.989C246.274 186.989 246.669 187.107 246.986 187.344C247.309 187.58 247.551 187.929 247.712 188.39C247.873 188.851 247.954 189.421 247.954 190.102C247.954 190.782 247.871 191.355 247.703 191.822C247.542 192.289 247.3 192.643 246.977 192.885C246.66 193.122 246.268 193.24 245.801 193.24ZM245.801 192.574C246.274 192.574 246.626 192.375 246.856 191.978C247.092 191.574 247.211 190.949 247.211 190.102C247.211 189.26 247.095 188.643 246.865 188.251C246.634 187.854 246.28 187.655 245.801 187.655C245.329 187.655 244.974 187.854 244.738 188.251C244.507 188.643 244.392 189.263 244.392 190.11C244.392 190.952 244.507 191.574 244.738 191.978C244.974 192.375 245.329 192.574 245.801 192.574ZM251.654 193.162V187.067H254.144C254.582 187.067 254.954 187.139 255.259 187.283C255.571 187.427 255.807 187.638 255.968 187.914C256.13 188.185 256.21 188.514 256.21 188.9C256.21 189.286 256.127 189.617 255.96 189.894C255.798 190.171 255.565 190.384 255.259 190.534C254.954 190.684 254.582 190.759 254.144 190.759H252.415V193.162H251.654ZM252.415 190.102H254.04C254.501 190.102 254.85 190.004 255.086 189.808C255.323 189.606 255.441 189.306 255.441 188.909C255.441 188.505 255.323 188.205 255.086 188.009C254.85 187.813 254.501 187.715 254.04 187.715H252.415V190.102ZM257.531 193.162V187.067H258.352L260.591 191.459H260.496L262.727 187.067H263.539V193.162H262.822V188.139H262.882L260.816 192.202H260.271L258.179 188.13H258.257V193.162H257.531ZM268.846 194.822C268.442 194.194 268.145 193.557 267.955 192.911C267.771 192.26 267.678 191.586 267.678 190.888C267.678 190.191 267.771 189.519 267.955 188.874C268.145 188.223 268.442 187.583 268.846 186.955L269.39 187.153C269.177 187.568 268.998 187.983 268.854 188.398C268.716 188.808 268.612 189.22 268.543 189.635C268.474 190.044 268.439 190.462 268.439 190.888C268.439 191.309 268.474 191.727 268.543 192.142C268.612 192.557 268.716 192.969 268.854 193.378C268.998 193.787 269.177 194.202 269.39 194.623L268.846 194.822ZM270.575 193.162V187.067H274.526V187.724H271.327V189.747H274.353V190.404H271.327V192.505H274.526V193.162H270.575ZM277.389 193.162V187.741H275.193V187.067H280.355V187.741H278.15V193.162H277.389ZM280.109 193.162L282.789 187.067H283.472L286.152 193.162H285.357L284.605 191.424L284.985 191.658H281.268L281.64 191.424L280.905 193.162H280.109ZM283.109 187.94L281.743 191.174L281.527 191.009H284.726L284.51 191.174L283.144 187.94H283.109ZM287.266 194.822L286.721 194.623C286.94 194.202 287.119 193.785 287.257 193.37C287.396 192.96 287.499 192.551 287.569 192.142C287.638 191.727 287.672 191.309 287.672 190.888C287.672 190.468 287.638 190.053 287.569 189.643C287.499 189.228 287.396 188.813 287.257 188.398C287.119 187.983 286.94 187.568 286.721 187.153L287.266 186.955C287.669 187.583 287.963 188.223 288.148 188.874C288.338 189.519 288.433 190.191 288.433 190.888C288.433 191.586 288.338 192.26 288.148 192.911C287.963 193.557 287.669 194.194 287.266 194.822Z" fill="#6D6B77"/>
</svg>
