<svg width="338" height="280" viewBox="0 0 338 280" fill="none" xmlns="http://www.w3.org/2000/svg">
<g clip-path="url(#clip0_6932_179250)">
<rect width="337.333" height="280" rx="12" fill="white"/>
<g opacity="0.4">
<rect x="67.5" y="125.5" width="1144" height="89" rx="7.5" fill="#EEFBF3"/>
<rect x="67.5" y="125.5" width="1144" height="89" rx="7.5" stroke="#CBF2DC"/>
<rect x="87" y="156" width="28" height="28" rx="8" fill="white"/>
<path d="M100.999 163.334C97.3187 163.334 94.332 166.321 94.332 170.001C94.332 173.681 97.3187 176.667 100.999 176.667C104.679 176.667 107.665 173.681 107.665 170.001C107.665 166.321 104.679 163.334 100.999 163.334ZM99.192 172.861L96.7987 170.467C96.5387 170.207 96.5387 169.787 96.7987 169.527C97.0587 169.267 97.4787 169.267 97.7387 169.527L99.6654 171.447L104.252 166.861C104.512 166.601 104.932 166.601 105.192 166.861C105.452 167.121 105.452 167.541 105.192 167.801L100.132 172.861C99.8787 173.121 99.452 173.121 99.192 172.861Z" fill="#28C76F"/>
<path d="M130.078 165V155.13H134.362C135.445 155.13 136.28 155.391 136.868 155.914C137.456 156.427 137.75 157.151 137.75 158.084C137.75 158.691 137.615 159.213 137.344 159.652C137.083 160.091 136.7 160.427 136.196 160.66C135.692 160.893 135.081 161.01 134.362 161.01L134.488 160.8H134.95C135.333 160.8 135.664 160.893 135.944 161.08C136.233 161.267 136.485 161.561 136.7 161.962L138.352 165H136.378L134.67 161.85C134.558 161.645 134.432 161.486 134.292 161.374C134.152 161.253 133.993 161.169 133.816 161.122C133.639 161.075 133.433 161.052 133.2 161.052H131.87V165H130.078ZM131.87 159.722H134.054C134.698 159.722 135.183 159.591 135.51 159.33C135.846 159.059 136.014 158.658 136.014 158.126C136.014 157.603 135.846 157.211 135.51 156.95C135.183 156.679 134.698 156.544 134.054 156.544H131.87V159.722ZM142.704 165.14C141.929 165.14 141.262 164.995 140.702 164.706C140.142 164.417 139.708 164.006 139.4 163.474C139.101 162.942 138.952 162.312 138.952 161.584C138.952 160.875 139.097 160.254 139.386 159.722C139.685 159.19 140.091 158.775 140.604 158.476C141.127 158.168 141.719 158.014 142.382 158.014C143.035 158.014 143.595 158.154 144.062 158.434C144.529 158.714 144.888 159.111 145.14 159.624C145.401 160.137 145.532 160.749 145.532 161.458V161.976H140.366V160.968H144.3L144.076 161.178C144.076 160.543 143.936 160.058 143.656 159.722C143.376 159.377 142.975 159.204 142.452 159.204C142.06 159.204 141.724 159.297 141.444 159.484C141.173 159.661 140.963 159.918 140.814 160.254C140.674 160.581 140.604 160.973 140.604 161.43V161.528C140.604 162.041 140.683 162.466 140.842 162.802C141.001 163.138 141.239 163.39 141.556 163.558C141.873 163.726 142.265 163.81 142.732 163.81C143.115 163.81 143.497 163.754 143.88 163.642C144.263 163.521 144.613 163.334 144.93 163.082L145.42 164.258C145.093 164.529 144.683 164.743 144.188 164.902C143.693 165.061 143.199 165.14 142.704 165.14ZM147.138 161.948V160.548H151.31V161.948H147.138ZM155.42 165.14C154.925 165.14 154.482 165.047 154.09 164.86C153.707 164.664 153.404 164.403 153.18 164.076C152.965 163.749 152.858 163.381 152.858 162.97C152.858 162.466 152.989 162.069 153.25 161.78C153.511 161.481 153.936 161.267 154.524 161.136C155.112 161.005 155.901 160.94 156.89 160.94H157.59V161.948H156.904C156.465 161.948 156.097 161.967 155.798 162.004C155.499 162.032 155.257 162.083 155.07 162.158C154.893 162.223 154.762 162.317 154.678 162.438C154.603 162.559 154.566 162.709 154.566 162.886C154.566 163.194 154.673 163.446 154.888 163.642C155.103 163.838 155.401 163.936 155.784 163.936C156.092 163.936 156.363 163.866 156.596 163.726C156.839 163.577 157.03 163.376 157.17 163.124C157.31 162.872 157.38 162.583 157.38 162.256V160.646C157.38 160.179 157.277 159.843 157.072 159.638C156.867 159.433 156.521 159.33 156.036 159.33C155.653 159.33 155.261 159.391 154.86 159.512C154.459 159.624 154.053 159.801 153.642 160.044L153.138 158.854C153.381 158.686 153.665 158.541 153.992 158.42C154.328 158.289 154.678 158.191 155.042 158.126C155.415 158.051 155.765 158.014 156.092 158.014C156.764 158.014 157.315 158.117 157.744 158.322C158.183 158.527 158.509 158.84 158.724 159.26C158.939 159.671 159.046 160.203 159.046 160.856V165H157.408V163.544H157.52C157.455 163.871 157.324 164.155 157.128 164.398C156.941 164.631 156.703 164.813 156.414 164.944C156.125 165.075 155.793 165.14 155.42 165.14ZM163.958 165.14C163.043 165.14 162.362 164.911 161.914 164.454C161.466 163.997 161.242 163.329 161.242 162.452V159.47H159.926V158.154H161.242V156.11H162.992V158.154H165.064V159.47H162.992V162.354C162.992 162.802 163.09 163.138 163.286 163.362C163.482 163.586 163.799 163.698 164.238 163.698C164.369 163.698 164.504 163.684 164.644 163.656C164.784 163.619 164.929 163.581 165.078 163.544L165.344 164.832C165.176 164.925 164.961 165 164.7 165.056C164.448 165.112 164.201 165.14 163.958 165.14ZM168.935 165.14C168.02 165.14 167.339 164.911 166.891 164.454C166.443 163.997 166.219 163.329 166.219 162.452V159.47H164.903V158.154H166.219V156.11H167.969V158.154H170.041V159.47H167.969V162.354C167.969 162.802 168.067 163.138 168.263 163.362C168.459 163.586 168.776 163.698 169.215 163.698C169.345 163.698 169.481 163.684 169.621 163.656C169.761 163.619 169.905 163.581 170.055 163.544L170.321 164.832C170.153 164.925 169.938 165 169.677 165.056C169.425 165.112 169.177 165.14 168.935 165.14ZM174.477 165.14C173.703 165.14 173.035 164.995 172.475 164.706C171.915 164.417 171.481 164.006 171.173 163.474C170.875 162.942 170.725 162.312 170.725 161.584C170.725 160.875 170.87 160.254 171.159 159.722C171.458 159.19 171.864 158.775 172.377 158.476C172.9 158.168 173.493 158.014 174.155 158.014C174.809 158.014 175.369 158.154 175.835 158.434C176.302 158.714 176.661 159.111 176.913 159.624C177.175 160.137 177.305 160.749 177.305 161.458V161.976H172.139V160.968H176.073L175.849 161.178C175.849 160.543 175.709 160.058 175.429 159.722C175.149 159.377 174.748 159.204 174.225 159.204C173.833 159.204 173.497 159.297 173.217 159.484C172.947 159.661 172.737 159.918 172.587 160.254C172.447 160.581 172.377 160.973 172.377 161.43V161.528C172.377 162.041 172.457 162.466 172.615 162.802C172.774 163.138 173.012 163.39 173.329 163.558C173.647 163.726 174.039 163.81 174.505 163.81C174.888 163.81 175.271 163.754 175.653 163.642C176.036 163.521 176.386 163.334 176.703 163.082L177.193 164.258C176.867 164.529 176.456 164.743 175.961 164.902C175.467 165.061 174.972 165.14 174.477 165.14ZM178.719 165V158.154H180.427V159.526H180.273C180.395 159.209 180.563 158.938 180.777 158.714C180.992 158.49 181.249 158.317 181.547 158.196C181.846 158.075 182.177 158.014 182.541 158.014C183.092 158.014 183.545 158.145 183.899 158.406C184.254 158.667 184.501 159.069 184.641 159.61H184.445C184.632 159.115 184.94 158.728 185.369 158.448C185.799 158.159 186.293 158.014 186.853 158.014C187.376 158.014 187.805 158.117 188.141 158.322C188.487 158.527 188.743 158.84 188.911 159.26C189.079 159.671 189.163 160.193 189.163 160.828V165H187.413V160.898C187.413 160.375 187.325 159.993 187.147 159.75C186.979 159.507 186.69 159.386 186.279 159.386C185.981 159.386 185.719 159.461 185.495 159.61C185.271 159.75 185.099 159.955 184.977 160.226C184.865 160.497 184.809 160.823 184.809 161.206V165H183.059V160.898C183.059 160.375 182.971 159.993 182.793 159.75C182.625 159.507 182.341 159.386 181.939 159.386C181.631 159.386 181.365 159.461 181.141 159.61C180.927 159.75 180.759 159.955 180.637 160.226C180.525 160.497 180.469 160.823 180.469 161.206V165H178.719ZM190.969 167.52V158.154H192.677V159.596H192.537C192.677 159.12 192.961 158.737 193.391 158.448C193.829 158.159 194.338 158.014 194.917 158.014C195.514 158.014 196.037 158.159 196.485 158.448C196.942 158.737 197.297 159.148 197.549 159.68C197.801 160.203 197.927 160.833 197.927 161.57C197.927 162.298 197.801 162.933 197.549 163.474C197.297 164.006 196.947 164.417 196.499 164.706C196.051 164.995 195.523 165.14 194.917 165.14C194.347 165.14 193.848 165 193.419 164.72C192.989 164.431 192.7 164.057 192.551 163.6H192.719V167.52H190.969ZM194.427 163.81C194.949 163.81 195.369 163.623 195.687 163.25C196.004 162.867 196.163 162.307 196.163 161.57C196.163 160.823 196.004 160.268 195.687 159.904C195.369 159.531 194.949 159.344 194.427 159.344C193.904 159.344 193.484 159.531 193.167 159.904C192.849 160.268 192.691 160.823 192.691 161.57C192.691 162.307 192.849 162.867 193.167 163.25C193.484 163.623 193.904 163.81 194.427 163.81ZM202.431 165.14C201.516 165.14 200.835 164.911 200.387 164.454C199.939 163.997 199.715 163.329 199.715 162.452V159.47H198.399V158.154H199.715V156.11H201.465V158.154H203.537V159.47H201.465V162.354C201.465 162.802 201.563 163.138 201.759 163.362C201.955 163.586 202.272 163.698 202.711 163.698C202.841 163.698 202.977 163.684 203.117 163.656C203.257 163.619 203.401 163.581 203.551 163.544L203.817 164.832C203.649 164.925 203.434 165 203.173 165.056C202.921 165.112 202.673 165.14 202.431 165.14ZM210.947 165.14C210.565 165.14 210.191 165.107 209.827 165.042C209.473 164.977 209.146 164.888 208.847 164.776C208.549 164.655 208.287 164.505 208.063 164.328L208.511 163.18C208.745 163.329 208.997 163.46 209.267 163.572C209.538 163.684 209.818 163.768 210.107 163.824C210.397 163.88 210.681 163.908 210.961 163.908C211.409 163.908 211.741 163.833 211.955 163.684C212.179 163.525 212.291 163.32 212.291 163.068C212.291 162.853 212.217 162.69 212.067 162.578C211.927 162.457 211.713 162.368 211.423 162.312L210.023 162.046C209.445 161.934 209.001 161.724 208.693 161.416C208.395 161.099 208.245 160.693 208.245 160.198C208.245 159.75 208.367 159.363 208.609 159.036C208.861 158.709 209.207 158.457 209.645 158.28C210.084 158.103 210.588 158.014 211.157 158.014C211.484 158.014 211.801 158.047 212.109 158.112C212.417 158.168 212.707 158.257 212.977 158.378C213.257 158.49 213.5 158.639 213.705 158.826L213.229 159.974C213.052 159.825 212.847 159.699 212.613 159.596C212.38 159.484 212.137 159.4 211.885 159.344C211.643 159.279 211.405 159.246 211.171 159.246C210.714 159.246 210.373 159.325 210.149 159.484C209.935 159.643 209.827 159.853 209.827 160.114C209.827 160.31 209.893 160.473 210.023 160.604C210.154 160.735 210.355 160.823 210.625 160.87L212.025 161.136C212.632 161.248 213.089 161.453 213.397 161.752C213.715 162.051 213.873 162.452 213.873 162.956C213.873 163.413 213.752 163.805 213.509 164.132C213.267 164.459 212.926 164.711 212.487 164.888C212.049 165.056 211.535 165.14 210.947 165.14ZM218.441 165.14C217.723 165.14 217.097 164.995 216.565 164.706C216.033 164.407 215.623 163.987 215.333 163.446C215.044 162.905 214.899 162.27 214.899 161.542C214.899 160.814 215.044 160.189 215.333 159.666C215.623 159.134 216.033 158.728 216.565 158.448C217.097 158.159 217.723 158.014 218.441 158.014C218.88 158.014 219.314 158.084 219.743 158.224C220.173 158.364 220.527 158.56 220.807 158.812L220.289 160.03C220.047 159.815 219.771 159.652 219.463 159.54C219.165 159.428 218.875 159.372 218.595 159.372C217.989 159.372 217.517 159.563 217.181 159.946C216.855 160.319 216.691 160.856 216.691 161.556C216.691 162.247 216.855 162.793 217.181 163.194C217.517 163.586 217.989 163.782 218.595 163.782C218.866 163.782 219.155 163.726 219.463 163.614C219.771 163.502 220.047 163.334 220.289 163.11L220.807 164.342C220.527 164.585 220.168 164.781 219.729 164.93C219.3 165.07 218.871 165.14 218.441 165.14ZM221.881 165V155.13H223.631V159.526H223.435C223.64 159.031 223.957 158.658 224.387 158.406C224.825 158.145 225.32 158.014 225.871 158.014C226.421 158.014 226.874 158.117 227.229 158.322C227.583 158.527 227.849 158.84 228.027 159.26C228.204 159.671 228.293 160.193 228.293 160.828V165H226.543V160.912C226.543 160.557 226.496 160.268 226.403 160.044C226.319 159.82 226.183 159.657 225.997 159.554C225.819 159.442 225.591 159.386 225.311 159.386C224.975 159.386 224.681 159.461 224.429 159.61C224.177 159.75 223.981 159.955 223.841 160.226C223.701 160.487 223.631 160.795 223.631 161.15V165H221.881ZM233.444 165.14C232.669 165.14 232.002 164.995 231.442 164.706C230.882 164.417 230.448 164.006 230.14 163.474C229.841 162.942 229.692 162.312 229.692 161.584C229.692 160.875 229.837 160.254 230.126 159.722C230.425 159.19 230.831 158.775 231.344 158.476C231.867 158.168 232.459 158.014 233.122 158.014C233.775 158.014 234.335 158.154 234.802 158.434C235.269 158.714 235.628 159.111 235.88 159.624C236.141 160.137 236.272 160.749 236.272 161.458V161.976H231.106V160.968H235.04L234.816 161.178C234.816 160.543 234.676 160.058 234.396 159.722C234.116 159.377 233.715 159.204 233.192 159.204C232.8 159.204 232.464 159.297 232.184 159.484C231.913 159.661 231.703 159.918 231.554 160.254C231.414 160.581 231.344 160.973 231.344 161.43V161.528C231.344 162.041 231.423 162.466 231.582 162.802C231.741 163.138 231.979 163.39 232.296 163.558C232.613 163.726 233.005 163.81 233.472 163.81C233.855 163.81 234.237 163.754 234.62 163.642C235.003 163.521 235.353 163.334 235.67 163.082L236.16 164.258C235.833 164.529 235.423 164.743 234.928 164.902C234.433 165.061 233.939 165.14 233.444 165.14ZM240.29 165.14C239.693 165.14 239.165 164.995 238.708 164.706C238.26 164.417 237.91 164.006 237.658 163.474C237.406 162.933 237.28 162.298 237.28 161.57C237.28 160.833 237.406 160.203 237.658 159.68C237.91 159.148 238.26 158.737 238.708 158.448C239.165 158.159 239.693 158.014 240.29 158.014C240.859 158.014 241.354 158.154 241.774 158.434C242.203 158.714 242.493 159.083 242.642 159.54H242.488V155.13H244.238V165H242.53V163.544H242.656C242.516 164.029 242.231 164.417 241.802 164.706C241.373 164.995 240.869 165.14 240.29 165.14ZM240.78 163.81C241.303 163.81 241.723 163.623 242.04 163.25C242.357 162.867 242.516 162.307 242.516 161.57C242.516 160.823 242.357 160.268 242.04 159.904C241.723 159.531 241.303 159.344 240.78 159.344C240.257 159.344 239.837 159.531 239.52 159.904C239.203 160.268 239.044 160.823 239.044 161.57C239.044 162.307 239.203 162.867 239.52 163.25C239.837 163.623 240.257 163.81 240.78 163.81ZM248.531 165.14C247.961 165.14 247.49 165.037 247.117 164.832C246.743 164.617 246.463 164.3 246.277 163.88C246.099 163.46 246.011 162.937 246.011 162.312V158.154H247.761V162.34C247.761 162.657 247.803 162.923 247.887 163.138C247.98 163.353 248.115 163.511 248.293 163.614C248.479 163.717 248.713 163.768 248.993 163.768C249.31 163.768 249.585 163.698 249.819 163.558C250.061 163.409 250.248 163.203 250.379 162.942C250.519 162.671 250.589 162.359 250.589 162.004V158.154H252.339V165H250.631V163.572H250.827C250.631 164.076 250.332 164.463 249.931 164.734C249.539 165.005 249.072 165.14 248.531 165.14ZM256.54 165.14C255.728 165.14 255.126 164.921 254.734 164.482C254.351 164.034 254.16 163.381 254.16 162.522V155.13H255.91V162.438C255.91 162.709 255.947 162.942 256.022 163.138C256.106 163.325 256.227 163.465 256.386 163.558C256.545 163.651 256.741 163.698 256.974 163.698C257.077 163.698 257.179 163.693 257.282 163.684C257.385 163.675 257.483 163.656 257.576 163.628L257.548 165.014C257.38 165.051 257.212 165.079 257.044 165.098C256.885 165.126 256.717 165.14 256.54 165.14ZM261.936 165.14C261.162 165.14 260.494 164.995 259.934 164.706C259.374 164.417 258.94 164.006 258.632 163.474C258.334 162.942 258.184 162.312 258.184 161.584C258.184 160.875 258.329 160.254 258.618 159.722C258.917 159.19 259.323 158.775 259.836 158.476C260.359 158.168 260.952 158.014 261.614 158.014C262.268 158.014 262.828 158.154 263.294 158.434C263.761 158.714 264.12 159.111 264.372 159.624C264.634 160.137 264.764 160.749 264.764 161.458V161.976H259.598V160.968H263.532L263.308 161.178C263.308 160.543 263.168 160.058 262.888 159.722C262.608 159.377 262.207 159.204 261.684 159.204C261.292 159.204 260.956 159.297 260.676 159.484C260.406 159.661 260.196 159.918 260.046 160.254C259.906 160.581 259.836 160.973 259.836 161.43V161.528C259.836 162.041 259.916 162.466 260.074 162.802C260.233 163.138 260.471 163.39 260.788 163.558C261.106 163.726 261.498 163.81 261.964 163.81C262.347 163.81 262.73 163.754 263.112 163.642C263.495 163.521 263.845 163.334 264.162 163.082L264.652 164.258C264.326 164.529 263.915 164.743 263.42 164.902C262.926 165.061 262.431 165.14 261.936 165.14ZM268.782 165.14C268.185 165.14 267.658 164.995 267.2 164.706C266.752 164.417 266.402 164.006 266.15 163.474C265.898 162.933 265.772 162.298 265.772 161.57C265.772 160.833 265.898 160.203 266.15 159.68C266.402 159.148 266.752 158.737 267.2 158.448C267.658 158.159 268.185 158.014 268.782 158.014C269.352 158.014 269.846 158.154 270.266 158.434C270.696 158.714 270.985 159.083 271.134 159.54H270.98V155.13H272.73V165H271.022V163.544H271.148C271.008 164.029 270.724 164.417 270.294 164.706C269.865 164.995 269.361 165.14 268.782 165.14ZM269.272 163.81C269.795 163.81 270.215 163.623 270.532 163.25C270.85 162.867 271.008 162.307 271.008 161.57C271.008 160.823 270.85 160.268 270.532 159.904C270.215 159.531 269.795 159.344 269.272 159.344C268.75 159.344 268.33 159.531 268.012 159.904C267.695 160.268 267.536 160.823 267.536 161.57C267.536 162.307 267.695 162.867 268.012 163.25C268.33 163.623 268.75 163.81 269.272 163.81Z" fill="black"/>
<path d="M129.984 185V176.54H133.488C134.4 176.54 135.104 176.756 135.6 177.188C136.096 177.62 136.344 178.232 136.344 179.024C136.344 179.536 136.232 179.976 136.008 180.344C135.784 180.712 135.456 180.992 135.024 181.184C134.6 181.376 134.088 181.472 133.488 181.472L133.596 181.304H133.908C134.228 181.304 134.504 181.384 134.736 181.544C134.976 181.704 135.192 181.96 135.384 182.312L136.848 185H135.48L134.016 182.3C133.904 182.092 133.78 181.932 133.644 181.82C133.516 181.7 133.364 181.62 133.188 181.58C133.02 181.532 132.82 181.508 132.588 181.508H131.232V185H129.984ZM131.232 180.572H133.284C133.892 180.572 134.352 180.444 134.664 180.188C134.976 179.932 135.132 179.552 135.132 179.048C135.132 178.552 134.976 178.176 134.664 177.92C134.352 177.664 133.892 177.536 133.284 177.536H131.232V180.572ZM139.935 185V177.584H136.935V176.54H144.171V177.584H141.171V185H139.935ZM148.351 185.108C147.751 185.108 147.207 185.008 146.719 184.808C146.231 184.608 145.811 184.316 145.459 183.932C145.115 183.548 144.851 183.092 144.667 182.564C144.483 182.028 144.391 181.428 144.391 180.764C144.391 180.1 144.483 179.504 144.667 178.976C144.851 178.44 145.115 177.984 145.459 177.608C145.803 177.224 146.219 176.932 146.707 176.732C147.195 176.532 147.743 176.432 148.351 176.432C148.951 176.432 149.495 176.532 149.983 176.732C150.471 176.932 150.887 177.22 151.231 177.596C151.583 177.972 151.851 178.428 152.035 178.964C152.219 179.492 152.311 180.088 152.311 180.752C152.311 181.416 152.219 182.016 152.035 182.552C151.851 183.088 151.583 183.548 151.231 183.932C150.887 184.316 150.471 184.608 149.983 184.808C149.495 185.008 148.951 185.108 148.351 185.108ZM148.351 184.028C148.911 184.028 149.387 183.9 149.779 183.644C150.179 183.388 150.483 183.016 150.691 182.528C150.907 182.04 151.015 181.452 151.015 180.764C151.015 180.076 150.911 179.488 150.703 179C150.495 178.512 150.191 178.144 149.791 177.896C149.399 177.64 148.919 177.512 148.351 177.512C147.791 177.512 147.311 177.64 146.911 177.896C146.519 178.144 146.215 178.512 145.999 179C145.791 179.488 145.687 180.076 145.687 180.764C145.687 181.444 145.791 182.032 145.999 182.528C146.215 183.016 146.519 183.388 146.911 183.644C147.311 183.9 147.791 184.028 148.351 184.028ZM158.876 185.108C158.468 185.108 158.1 185.028 157.772 184.868C157.452 184.708 157.2 184.492 157.016 184.22C156.832 183.948 156.74 183.64 156.74 183.296C156.74 182.864 156.848 182.524 157.064 182.276C157.288 182.02 157.652 181.84 158.156 181.736C158.668 181.624 159.356 181.568 160.22 181.568H160.784V182.312H160.232C159.8 182.312 159.436 182.328 159.14 182.36C158.844 182.392 158.608 182.444 158.432 182.516C158.256 182.58 158.128 182.672 158.048 182.792C157.976 182.912 157.94 183.056 157.94 183.224C157.94 183.528 158.044 183.776 158.252 183.968C158.46 184.152 158.748 184.244 159.116 184.244C159.412 184.244 159.672 184.176 159.896 184.04C160.12 183.896 160.296 183.704 160.424 183.464C160.56 183.224 160.628 182.948 160.628 182.636V181.256C160.628 180.8 160.532 180.472 160.34 180.272C160.148 180.072 159.832 179.972 159.392 179.972C159.056 179.972 158.72 180.024 158.384 180.128C158.048 180.224 157.704 180.38 157.352 180.596L156.98 179.744C157.188 179.6 157.428 179.476 157.7 179.372C157.972 179.268 158.256 179.188 158.552 179.132C158.856 179.068 159.148 179.036 159.428 179.036C159.964 179.036 160.404 179.12 160.748 179.288C161.1 179.456 161.36 179.712 161.528 180.056C161.696 180.4 161.78 180.844 161.78 181.388V185H160.64V183.692H160.748C160.684 183.988 160.564 184.244 160.388 184.46C160.22 184.668 160.008 184.828 159.752 184.94C159.496 185.052 159.204 185.108 158.876 185.108ZM165.107 185L162.587 179.144H163.895L165.851 184.004H165.515L167.519 179.144H168.755L166.199 185H165.107ZM172.064 185.108C171.472 185.108 170.96 184.984 170.528 184.736C170.104 184.488 169.772 184.136 169.532 183.68C169.292 183.224 169.172 182.688 169.172 182.072C169.172 181.448 169.292 180.912 169.532 180.464C169.772 180.008 170.104 179.656 170.528 179.408C170.96 179.16 171.472 179.036 172.064 179.036C172.648 179.036 173.152 179.16 173.576 179.408C174.008 179.656 174.344 180.008 174.584 180.464C174.824 180.92 174.944 181.456 174.944 182.072C174.944 182.688 174.824 183.224 174.584 183.68C174.344 184.136 174.008 184.488 173.576 184.736C173.152 184.984 172.648 185.108 172.064 185.108ZM172.052 184.172C172.556 184.172 172.96 183.992 173.264 183.632C173.568 183.272 173.72 182.752 173.72 182.072C173.72 181.384 173.568 180.864 173.264 180.512C172.96 180.16 172.556 179.984 172.052 179.984C171.556 179.984 171.156 180.16 170.852 180.512C170.548 180.864 170.396 181.384 170.396 182.072C170.396 182.752 170.548 183.272 170.852 183.632C171.156 183.992 171.556 184.172 172.052 184.172ZM176.197 177.788V176.528H177.613V177.788H176.197ZM176.305 185V179.144H177.517V185H176.305ZM181.455 185.108C180.943 185.108 180.491 184.988 180.099 184.748C179.715 184.5 179.415 184.148 179.199 183.692C178.983 183.228 178.875 182.688 178.875 182.072C178.875 181.44 178.983 180.9 179.199 180.452C179.415 180.004 179.715 179.656 180.099 179.408C180.491 179.16 180.943 179.036 181.455 179.036C181.967 179.036 182.407 179.164 182.775 179.42C183.151 179.668 183.403 180.004 183.531 180.428H183.399V176.54H184.611V185H183.423V183.68H183.543C183.415 184.112 183.163 184.46 182.787 184.724C182.419 184.98 181.975 185.108 181.455 185.108ZM181.767 184.172C182.263 184.172 182.663 183.992 182.967 183.632C183.271 183.272 183.423 182.752 183.423 182.072C183.423 181.384 183.271 180.864 182.967 180.512C182.663 180.16 182.263 179.984 181.767 179.984C181.263 179.984 180.859 180.16 180.555 180.512C180.251 180.864 180.099 181.384 180.099 182.072C180.099 182.752 180.251 183.272 180.555 183.632C180.859 183.992 181.263 184.172 181.767 184.172ZM189.061 185.108C188.421 185.108 187.869 184.988 187.405 184.748C186.949 184.5 186.593 184.152 186.337 183.704C186.089 183.248 185.965 182.708 185.965 182.084C185.965 181.476 186.089 180.944 186.337 180.488C186.585 180.032 186.925 179.676 187.357 179.42C187.789 179.164 188.281 179.036 188.833 179.036C189.377 179.036 189.841 179.156 190.225 179.396C190.617 179.628 190.917 179.96 191.125 180.392C191.333 180.824 191.437 181.34 191.437 181.94V182.348H186.925V181.604H190.621L190.417 181.772C190.417 181.172 190.285 180.708 190.021 180.38C189.757 180.052 189.377 179.888 188.881 179.888C188.505 179.888 188.185 179.976 187.921 180.152C187.665 180.328 187.469 180.572 187.333 180.884C187.197 181.196 187.129 181.56 187.129 181.976V182.048C187.129 182.512 187.201 182.904 187.345 183.224C187.497 183.536 187.717 183.772 188.005 183.932C188.293 184.092 188.649 184.172 189.073 184.172C189.409 184.172 189.737 184.12 190.057 184.016C190.385 183.904 190.693 183.732 190.981 183.5L191.341 184.34C191.077 184.58 190.737 184.768 190.321 184.904C189.905 185.04 189.485 185.108 189.061 185.108ZM194.99 185.108C194.478 185.108 194.026 184.988 193.634 184.748C193.25 184.5 192.95 184.148 192.734 183.692C192.518 183.228 192.41 182.688 192.41 182.072C192.41 181.44 192.518 180.9 192.734 180.452C192.95 180.004 193.25 179.656 193.634 179.408C194.026 179.16 194.478 179.036 194.99 179.036C195.502 179.036 195.942 179.164 196.31 179.42C196.686 179.668 196.938 180.004 197.066 180.428H196.934V176.54H198.146V185H196.958V183.68H197.078C196.95 184.112 196.698 184.46 196.322 184.724C195.954 184.98 195.51 185.108 194.99 185.108ZM195.302 184.172C195.798 184.172 196.198 183.992 196.502 183.632C196.806 183.272 196.958 182.752 196.958 182.072C196.958 181.384 196.806 180.864 196.502 180.512C196.198 180.16 195.798 179.984 195.302 179.984C194.798 179.984 194.394 180.16 194.09 180.512C193.786 180.864 193.634 181.384 193.634 182.072C193.634 182.752 193.786 183.272 194.09 183.632C194.394 183.992 194.798 184.172 195.302 184.172Z" fill="#737682"/>
<path d="M211.998 183.944C211.606 183.944 211.246 183.852 210.918 183.668C210.59 183.476 210.326 183.22 210.126 182.9C209.926 182.58 209.826 182.22 209.826 181.82C209.826 181.452 209.918 181.108 210.102 180.788C210.294 180.46 210.554 180.196 210.882 179.996C211.21 179.788 211.582 179.684 211.998 179.684C212.382 179.684 212.738 179.776 213.066 179.96C213.402 180.144 213.67 180.4 213.87 180.728C214.07 181.048 214.17 181.412 214.17 181.82C214.17 182.212 214.07 182.568 213.87 182.888C213.678 183.208 213.418 183.464 213.09 183.656C212.762 183.848 212.398 183.944 211.998 183.944ZM224.048 185V177.584H221.048V176.54H228.284V177.584H225.284V185H224.048ZM230.385 185.108C229.913 185.108 229.517 185.02 229.197 184.844C228.885 184.668 228.649 184.408 228.489 184.064C228.337 183.712 228.261 183.272 228.261 182.744V179.144H229.473V182.756C229.473 183.068 229.513 183.328 229.593 183.536C229.681 183.744 229.813 183.896 229.989 183.992C230.173 184.088 230.401 184.136 230.673 184.136C230.977 184.136 231.245 184.068 231.477 183.932C231.709 183.796 231.889 183.6 232.017 183.344C232.145 183.088 232.209 182.792 232.209 182.456V179.144H233.421V185H232.245V183.716H232.401C232.241 184.164 231.985 184.508 231.633 184.748C231.281 184.988 230.865 185.108 230.385 185.108ZM237.877 185.108C237.237 185.108 236.685 184.988 236.221 184.748C235.765 184.5 235.409 184.152 235.153 183.704C234.905 183.248 234.781 182.708 234.781 182.084C234.781 181.476 234.905 180.944 235.153 180.488C235.401 180.032 235.741 179.676 236.173 179.42C236.605 179.164 237.097 179.036 237.649 179.036C238.193 179.036 238.657 179.156 239.041 179.396C239.433 179.628 239.733 179.96 239.941 180.392C240.149 180.824 240.253 181.34 240.253 181.94V182.348H235.741V181.604H239.437L239.233 181.772C239.233 181.172 239.101 180.708 238.837 180.38C238.573 180.052 238.193 179.888 237.697 179.888C237.321 179.888 237.001 179.976 236.737 180.152C236.481 180.328 236.285 180.572 236.149 180.884C236.013 181.196 235.945 181.56 235.945 181.976V182.048C235.945 182.512 236.017 182.904 236.161 183.224C236.313 183.536 236.533 183.772 236.821 183.932C237.109 184.092 237.465 184.172 237.889 184.172C238.225 184.172 238.553 184.12 238.873 184.016C239.201 183.904 239.509 183.732 239.797 183.5L240.157 184.34C239.893 184.58 239.553 184.768 239.137 184.904C238.721 185.04 238.301 185.108 237.877 185.108ZM248.243 185V183.284H244.439V182.36L248.459 176.54H249.479V182.24H250.715V183.284H249.479V185H248.243ZM248.243 182.24V178.028H248.567L245.447 182.576V182.24H248.243ZM251.922 187.16V179.144H253.11V180.464H252.978C253.106 180.032 253.358 179.688 253.734 179.432C254.11 179.168 254.554 179.036 255.066 179.036C255.586 179.036 256.038 179.16 256.422 179.408C256.814 179.656 257.114 180.004 257.322 180.452C257.538 180.9 257.646 181.44 257.646 182.072C257.646 182.688 257.538 183.228 257.322 183.692C257.114 184.148 256.818 184.5 256.434 184.748C256.05 184.988 255.594 185.108 255.066 185.108C254.562 185.108 254.122 184.98 253.746 184.724C253.37 184.468 253.118 184.128 252.99 183.704H253.134V187.16H251.922ZM254.766 184.172C255.27 184.172 255.67 183.992 255.966 183.632C256.27 183.272 256.422 182.752 256.422 182.072C256.422 181.384 256.27 180.864 255.966 180.512C255.67 180.16 255.27 179.984 254.766 179.984C254.27 179.984 253.87 180.16 253.566 180.512C253.262 180.864 253.11 181.384 253.11 182.072C253.11 182.752 253.262 183.272 253.566 183.632C253.87 183.992 254.27 184.172 254.766 184.172ZM259.036 185V179.144H260.212V180.392H260.08C260.184 180.104 260.328 179.86 260.512 179.66C260.696 179.46 260.916 179.308 261.172 179.204C261.436 179.092 261.724 179.036 262.036 179.036C262.524 179.036 262.92 179.152 263.224 179.384C263.528 179.616 263.736 179.972 263.848 180.452H263.68C263.832 180.012 264.092 179.668 264.46 179.42C264.828 179.164 265.256 179.036 265.744 179.036C266.192 179.036 266.56 179.124 266.848 179.3C267.136 179.468 267.352 179.728 267.496 180.08C267.64 180.424 267.712 180.86 267.712 181.388V185H266.5V181.448C266.5 180.952 266.412 180.588 266.236 180.356C266.068 180.124 265.788 180.008 265.396 180.008C265.108 180.008 264.856 180.076 264.64 180.212C264.424 180.348 264.256 180.548 264.136 180.812C264.024 181.068 263.968 181.372 263.968 181.724V185H262.756V181.448C262.756 180.952 262.672 180.588 262.504 180.356C262.336 180.124 262.056 180.008 261.664 180.008C261.368 180.008 261.112 180.076 260.896 180.212C260.688 180.348 260.528 180.548 260.416 180.812C260.304 181.068 260.248 181.372 260.248 181.724V185H259.036Z" fill="#737682"/>
</g>
<g opacity="0.7">
<rect x="52.5" y="110.5" width="1144" height="89" rx="7.5" fill="#EEFBF3"/>
<rect x="52.5" y="110.5" width="1144" height="89" rx="7.5" stroke="#CBF2DC"/>
<rect x="72" y="141" width="28" height="28" rx="8" fill="white"/>
<path d="M85.9987 148.334C82.3187 148.334 79.332 151.321 79.332 155.001C79.332 158.681 82.3187 161.667 85.9987 161.667C89.6787 161.667 92.6654 158.681 92.6654 155.001C92.6654 151.321 89.6787 148.334 85.9987 148.334ZM84.192 157.861L81.7987 155.467C81.5387 155.207 81.5387 154.787 81.7987 154.527C82.0587 154.267 82.4787 154.267 82.7387 154.527L84.6654 156.447L89.252 151.861C89.512 151.601 89.932 151.601 90.192 151.861C90.452 152.121 90.452 152.541 90.192 152.801L85.132 157.861C84.8787 158.121 84.452 158.121 84.192 157.861Z" fill="#28C76F"/>
<path d="M115.078 150V140.13H119.362C120.445 140.13 121.28 140.391 121.868 140.914C122.456 141.427 122.75 142.151 122.75 143.084C122.75 143.691 122.615 144.213 122.344 144.652C122.083 145.091 121.7 145.427 121.196 145.66C120.692 145.893 120.081 146.01 119.362 146.01L119.488 145.8H119.95C120.333 145.8 120.664 145.893 120.944 146.08C121.233 146.267 121.485 146.561 121.7 146.962L123.352 150H121.378L119.67 146.85C119.558 146.645 119.432 146.486 119.292 146.374C119.152 146.253 118.993 146.169 118.816 146.122C118.639 146.075 118.433 146.052 118.2 146.052H116.87V150H115.078ZM116.87 144.722H119.054C119.698 144.722 120.183 144.591 120.51 144.33C120.846 144.059 121.014 143.658 121.014 143.126C121.014 142.603 120.846 142.211 120.51 141.95C120.183 141.679 119.698 141.544 119.054 141.544H116.87V144.722ZM127.704 150.14C126.929 150.14 126.262 149.995 125.702 149.706C125.142 149.417 124.708 149.006 124.4 148.474C124.101 147.942 123.952 147.312 123.952 146.584C123.952 145.875 124.097 145.254 124.386 144.722C124.685 144.19 125.091 143.775 125.604 143.476C126.127 143.168 126.719 143.014 127.382 143.014C128.035 143.014 128.595 143.154 129.062 143.434C129.529 143.714 129.888 144.111 130.14 144.624C130.401 145.137 130.532 145.749 130.532 146.458V146.976H125.366V145.968H129.3L129.076 146.178C129.076 145.543 128.936 145.058 128.656 144.722C128.376 144.377 127.975 144.204 127.452 144.204C127.06 144.204 126.724 144.297 126.444 144.484C126.173 144.661 125.963 144.918 125.814 145.254C125.674 145.581 125.604 145.973 125.604 146.43V146.528C125.604 147.041 125.683 147.466 125.842 147.802C126.001 148.138 126.239 148.39 126.556 148.558C126.873 148.726 127.265 148.81 127.732 148.81C128.115 148.81 128.497 148.754 128.88 148.642C129.263 148.521 129.613 148.334 129.93 148.082L130.42 149.258C130.093 149.529 129.683 149.743 129.188 149.902C128.693 150.061 128.199 150.14 127.704 150.14ZM132.138 146.948V145.548H136.31V146.948H132.138ZM140.42 150.14C139.925 150.14 139.482 150.047 139.09 149.86C138.707 149.664 138.404 149.403 138.18 149.076C137.965 148.749 137.858 148.381 137.858 147.97C137.858 147.466 137.989 147.069 138.25 146.78C138.511 146.481 138.936 146.267 139.524 146.136C140.112 146.005 140.901 145.94 141.89 145.94H142.59V146.948H141.904C141.465 146.948 141.097 146.967 140.798 147.004C140.499 147.032 140.257 147.083 140.07 147.158C139.893 147.223 139.762 147.317 139.678 147.438C139.603 147.559 139.566 147.709 139.566 147.886C139.566 148.194 139.673 148.446 139.888 148.642C140.103 148.838 140.401 148.936 140.784 148.936C141.092 148.936 141.363 148.866 141.596 148.726C141.839 148.577 142.03 148.376 142.17 148.124C142.31 147.872 142.38 147.583 142.38 147.256V145.646C142.38 145.179 142.277 144.843 142.072 144.638C141.867 144.433 141.521 144.33 141.036 144.33C140.653 144.33 140.261 144.391 139.86 144.512C139.459 144.624 139.053 144.801 138.642 145.044L138.138 143.854C138.381 143.686 138.665 143.541 138.992 143.42C139.328 143.289 139.678 143.191 140.042 143.126C140.415 143.051 140.765 143.014 141.092 143.014C141.764 143.014 142.315 143.117 142.744 143.322C143.183 143.527 143.509 143.84 143.724 144.26C143.939 144.671 144.046 145.203 144.046 145.856V150H142.408V148.544H142.52C142.455 148.871 142.324 149.155 142.128 149.398C141.941 149.631 141.703 149.813 141.414 149.944C141.125 150.075 140.793 150.14 140.42 150.14ZM148.958 150.14C148.043 150.14 147.362 149.911 146.914 149.454C146.466 148.997 146.242 148.329 146.242 147.452V144.47H144.926V143.154H146.242V141.11H147.992V143.154H150.064V144.47H147.992V147.354C147.992 147.802 148.09 148.138 148.286 148.362C148.482 148.586 148.799 148.698 149.238 148.698C149.369 148.698 149.504 148.684 149.644 148.656C149.784 148.619 149.929 148.581 150.078 148.544L150.344 149.832C150.176 149.925 149.961 150 149.7 150.056C149.448 150.112 149.201 150.14 148.958 150.14ZM153.935 150.14C153.02 150.14 152.339 149.911 151.891 149.454C151.443 148.997 151.219 148.329 151.219 147.452V144.47H149.903V143.154H151.219V141.11H152.969V143.154H155.041V144.47H152.969V147.354C152.969 147.802 153.067 148.138 153.263 148.362C153.459 148.586 153.776 148.698 154.215 148.698C154.345 148.698 154.481 148.684 154.621 148.656C154.761 148.619 154.905 148.581 155.055 148.544L155.321 149.832C155.153 149.925 154.938 150 154.677 150.056C154.425 150.112 154.177 150.14 153.935 150.14ZM159.477 150.14C158.703 150.14 158.035 149.995 157.475 149.706C156.915 149.417 156.481 149.006 156.173 148.474C155.875 147.942 155.725 147.312 155.725 146.584C155.725 145.875 155.87 145.254 156.159 144.722C156.458 144.19 156.864 143.775 157.377 143.476C157.9 143.168 158.493 143.014 159.155 143.014C159.809 143.014 160.369 143.154 160.835 143.434C161.302 143.714 161.661 144.111 161.913 144.624C162.175 145.137 162.305 145.749 162.305 146.458V146.976H157.139V145.968H161.073L160.849 146.178C160.849 145.543 160.709 145.058 160.429 144.722C160.149 144.377 159.748 144.204 159.225 144.204C158.833 144.204 158.497 144.297 158.217 144.484C157.947 144.661 157.737 144.918 157.587 145.254C157.447 145.581 157.377 145.973 157.377 146.43V146.528C157.377 147.041 157.457 147.466 157.615 147.802C157.774 148.138 158.012 148.39 158.329 148.558C158.647 148.726 159.039 148.81 159.505 148.81C159.888 148.81 160.271 148.754 160.653 148.642C161.036 148.521 161.386 148.334 161.703 148.082L162.193 149.258C161.867 149.529 161.456 149.743 160.961 149.902C160.467 150.061 159.972 150.14 159.477 150.14ZM163.719 150V143.154H165.427V144.526H165.273C165.395 144.209 165.563 143.938 165.777 143.714C165.992 143.49 166.249 143.317 166.547 143.196C166.846 143.075 167.177 143.014 167.541 143.014C168.092 143.014 168.545 143.145 168.899 143.406C169.254 143.667 169.501 144.069 169.641 144.61H169.445C169.632 144.115 169.94 143.728 170.369 143.448C170.799 143.159 171.293 143.014 171.853 143.014C172.376 143.014 172.805 143.117 173.141 143.322C173.487 143.527 173.743 143.84 173.911 144.26C174.079 144.671 174.163 145.193 174.163 145.828V150H172.413V145.898C172.413 145.375 172.325 144.993 172.147 144.75C171.979 144.507 171.69 144.386 171.279 144.386C170.981 144.386 170.719 144.461 170.495 144.61C170.271 144.75 170.099 144.955 169.977 145.226C169.865 145.497 169.809 145.823 169.809 146.206V150H168.059V145.898C168.059 145.375 167.971 144.993 167.793 144.75C167.625 144.507 167.341 144.386 166.939 144.386C166.631 144.386 166.365 144.461 166.141 144.61C165.927 144.75 165.759 144.955 165.637 145.226C165.525 145.497 165.469 145.823 165.469 146.206V150H163.719ZM175.969 152.52V143.154H177.677V144.596H177.537C177.677 144.12 177.961 143.737 178.391 143.448C178.829 143.159 179.338 143.014 179.917 143.014C180.514 143.014 181.037 143.159 181.485 143.448C181.942 143.737 182.297 144.148 182.549 144.68C182.801 145.203 182.927 145.833 182.927 146.57C182.927 147.298 182.801 147.933 182.549 148.474C182.297 149.006 181.947 149.417 181.499 149.706C181.051 149.995 180.523 150.14 179.917 150.14C179.347 150.14 178.848 150 178.419 149.72C177.989 149.431 177.7 149.057 177.551 148.6H177.719V152.52H175.969ZM179.427 148.81C179.949 148.81 180.369 148.623 180.687 148.25C181.004 147.867 181.163 147.307 181.163 146.57C181.163 145.823 181.004 145.268 180.687 144.904C180.369 144.531 179.949 144.344 179.427 144.344C178.904 144.344 178.484 144.531 178.167 144.904C177.849 145.268 177.691 145.823 177.691 146.57C177.691 147.307 177.849 147.867 178.167 148.25C178.484 148.623 178.904 148.81 179.427 148.81ZM187.431 150.14C186.516 150.14 185.835 149.911 185.387 149.454C184.939 148.997 184.715 148.329 184.715 147.452V144.47H183.399V143.154H184.715V141.11H186.465V143.154H188.537V144.47H186.465V147.354C186.465 147.802 186.563 148.138 186.759 148.362C186.955 148.586 187.272 148.698 187.711 148.698C187.841 148.698 187.977 148.684 188.117 148.656C188.257 148.619 188.401 148.581 188.551 148.544L188.817 149.832C188.649 149.925 188.434 150 188.173 150.056C187.921 150.112 187.673 150.14 187.431 150.14ZM195.947 150.14C195.565 150.14 195.191 150.107 194.827 150.042C194.473 149.977 194.146 149.888 193.847 149.776C193.549 149.655 193.287 149.505 193.063 149.328L193.511 148.18C193.745 148.329 193.997 148.46 194.267 148.572C194.538 148.684 194.818 148.768 195.107 148.824C195.397 148.88 195.681 148.908 195.961 148.908C196.409 148.908 196.741 148.833 196.955 148.684C197.179 148.525 197.291 148.32 197.291 148.068C197.291 147.853 197.217 147.69 197.067 147.578C196.927 147.457 196.713 147.368 196.423 147.312L195.023 147.046C194.445 146.934 194.001 146.724 193.693 146.416C193.395 146.099 193.245 145.693 193.245 145.198C193.245 144.75 193.367 144.363 193.609 144.036C193.861 143.709 194.207 143.457 194.645 143.28C195.084 143.103 195.588 143.014 196.157 143.014C196.484 143.014 196.801 143.047 197.109 143.112C197.417 143.168 197.707 143.257 197.977 143.378C198.257 143.49 198.5 143.639 198.705 143.826L198.229 144.974C198.052 144.825 197.847 144.699 197.613 144.596C197.38 144.484 197.137 144.4 196.885 144.344C196.643 144.279 196.405 144.246 196.171 144.246C195.714 144.246 195.373 144.325 195.149 144.484C194.935 144.643 194.827 144.853 194.827 145.114C194.827 145.31 194.893 145.473 195.023 145.604C195.154 145.735 195.355 145.823 195.625 145.87L197.025 146.136C197.632 146.248 198.089 146.453 198.397 146.752C198.715 147.051 198.873 147.452 198.873 147.956C198.873 148.413 198.752 148.805 198.509 149.132C198.267 149.459 197.926 149.711 197.487 149.888C197.049 150.056 196.535 150.14 195.947 150.14ZM203.441 150.14C202.723 150.14 202.097 149.995 201.565 149.706C201.033 149.407 200.623 148.987 200.333 148.446C200.044 147.905 199.899 147.27 199.899 146.542C199.899 145.814 200.044 145.189 200.333 144.666C200.623 144.134 201.033 143.728 201.565 143.448C202.097 143.159 202.723 143.014 203.441 143.014C203.88 143.014 204.314 143.084 204.743 143.224C205.173 143.364 205.527 143.56 205.807 143.812L205.289 145.03C205.047 144.815 204.771 144.652 204.463 144.54C204.165 144.428 203.875 144.372 203.595 144.372C202.989 144.372 202.517 144.563 202.181 144.946C201.855 145.319 201.691 145.856 201.691 146.556C201.691 147.247 201.855 147.793 202.181 148.194C202.517 148.586 202.989 148.782 203.595 148.782C203.866 148.782 204.155 148.726 204.463 148.614C204.771 148.502 205.047 148.334 205.289 148.11L205.807 149.342C205.527 149.585 205.168 149.781 204.729 149.93C204.3 150.07 203.871 150.14 203.441 150.14ZM206.881 150V140.13H208.631V144.526H208.435C208.64 144.031 208.957 143.658 209.387 143.406C209.825 143.145 210.32 143.014 210.871 143.014C211.421 143.014 211.874 143.117 212.229 143.322C212.583 143.527 212.849 143.84 213.027 144.26C213.204 144.671 213.293 145.193 213.293 145.828V150H211.543V145.912C211.543 145.557 211.496 145.268 211.403 145.044C211.319 144.82 211.183 144.657 210.997 144.554C210.819 144.442 210.591 144.386 210.311 144.386C209.975 144.386 209.681 144.461 209.429 144.61C209.177 144.75 208.981 144.955 208.841 145.226C208.701 145.487 208.631 145.795 208.631 146.15V150H206.881ZM218.444 150.14C217.669 150.14 217.002 149.995 216.442 149.706C215.882 149.417 215.448 149.006 215.14 148.474C214.841 147.942 214.692 147.312 214.692 146.584C214.692 145.875 214.837 145.254 215.126 144.722C215.425 144.19 215.831 143.775 216.344 143.476C216.867 143.168 217.459 143.014 218.122 143.014C218.775 143.014 219.335 143.154 219.802 143.434C220.269 143.714 220.628 144.111 220.88 144.624C221.141 145.137 221.272 145.749 221.272 146.458V146.976H216.106V145.968H220.04L219.816 146.178C219.816 145.543 219.676 145.058 219.396 144.722C219.116 144.377 218.715 144.204 218.192 144.204C217.8 144.204 217.464 144.297 217.184 144.484C216.913 144.661 216.703 144.918 216.554 145.254C216.414 145.581 216.344 145.973 216.344 146.43V146.528C216.344 147.041 216.423 147.466 216.582 147.802C216.741 148.138 216.979 148.39 217.296 148.558C217.613 148.726 218.005 148.81 218.472 148.81C218.855 148.81 219.237 148.754 219.62 148.642C220.003 148.521 220.353 148.334 220.67 148.082L221.16 149.258C220.833 149.529 220.423 149.743 219.928 149.902C219.433 150.061 218.939 150.14 218.444 150.14ZM225.29 150.14C224.693 150.14 224.165 149.995 223.708 149.706C223.26 149.417 222.91 149.006 222.658 148.474C222.406 147.933 222.28 147.298 222.28 146.57C222.28 145.833 222.406 145.203 222.658 144.68C222.91 144.148 223.26 143.737 223.708 143.448C224.165 143.159 224.693 143.014 225.29 143.014C225.859 143.014 226.354 143.154 226.774 143.434C227.203 143.714 227.493 144.083 227.642 144.54H227.488V140.13H229.238V150H227.53V148.544H227.656C227.516 149.029 227.231 149.417 226.802 149.706C226.373 149.995 225.869 150.14 225.29 150.14ZM225.78 148.81C226.303 148.81 226.723 148.623 227.04 148.25C227.357 147.867 227.516 147.307 227.516 146.57C227.516 145.823 227.357 145.268 227.04 144.904C226.723 144.531 226.303 144.344 225.78 144.344C225.257 144.344 224.837 144.531 224.52 144.904C224.203 145.268 224.044 145.823 224.044 146.57C224.044 147.307 224.203 147.867 224.52 148.25C224.837 148.623 225.257 148.81 225.78 148.81ZM233.531 150.14C232.961 150.14 232.49 150.037 232.117 149.832C231.743 149.617 231.463 149.3 231.277 148.88C231.099 148.46 231.011 147.937 231.011 147.312V143.154H232.761V147.34C232.761 147.657 232.803 147.923 232.887 148.138C232.98 148.353 233.115 148.511 233.293 148.614C233.479 148.717 233.713 148.768 233.993 148.768C234.31 148.768 234.585 148.698 234.819 148.558C235.061 148.409 235.248 148.203 235.379 147.942C235.519 147.671 235.589 147.359 235.589 147.004V143.154H237.339V150H235.631V148.572H235.827C235.631 149.076 235.332 149.463 234.931 149.734C234.539 150.005 234.072 150.14 233.531 150.14ZM241.54 150.14C240.728 150.14 240.126 149.921 239.734 149.482C239.351 149.034 239.16 148.381 239.16 147.522V140.13H240.91V147.438C240.91 147.709 240.947 147.942 241.022 148.138C241.106 148.325 241.227 148.465 241.386 148.558C241.545 148.651 241.741 148.698 241.974 148.698C242.077 148.698 242.179 148.693 242.282 148.684C242.385 148.675 242.483 148.656 242.576 148.628L242.548 150.014C242.38 150.051 242.212 150.079 242.044 150.098C241.885 150.126 241.717 150.14 241.54 150.14ZM246.936 150.14C246.162 150.14 245.494 149.995 244.934 149.706C244.374 149.417 243.94 149.006 243.632 148.474C243.334 147.942 243.184 147.312 243.184 146.584C243.184 145.875 243.329 145.254 243.618 144.722C243.917 144.19 244.323 143.775 244.836 143.476C245.359 143.168 245.952 143.014 246.614 143.014C247.268 143.014 247.828 143.154 248.294 143.434C248.761 143.714 249.12 144.111 249.372 144.624C249.634 145.137 249.764 145.749 249.764 146.458V146.976H244.598V145.968H248.532L248.308 146.178C248.308 145.543 248.168 145.058 247.888 144.722C247.608 144.377 247.207 144.204 246.684 144.204C246.292 144.204 245.956 144.297 245.676 144.484C245.406 144.661 245.196 144.918 245.046 145.254C244.906 145.581 244.836 145.973 244.836 146.43V146.528C244.836 147.041 244.916 147.466 245.074 147.802C245.233 148.138 245.471 148.39 245.788 148.558C246.106 148.726 246.498 148.81 246.964 148.81C247.347 148.81 247.73 148.754 248.112 148.642C248.495 148.521 248.845 148.334 249.162 148.082L249.652 149.258C249.326 149.529 248.915 149.743 248.42 149.902C247.926 150.061 247.431 150.14 246.936 150.14ZM253.782 150.14C253.185 150.14 252.658 149.995 252.2 149.706C251.752 149.417 251.402 149.006 251.15 148.474C250.898 147.933 250.772 147.298 250.772 146.57C250.772 145.833 250.898 145.203 251.15 144.68C251.402 144.148 251.752 143.737 252.2 143.448C252.658 143.159 253.185 143.014 253.782 143.014C254.352 143.014 254.846 143.154 255.266 143.434C255.696 143.714 255.985 144.083 256.134 144.54H255.98V140.13H257.73V150H256.022V148.544H256.148C256.008 149.029 255.724 149.417 255.294 149.706C254.865 149.995 254.361 150.14 253.782 150.14ZM254.272 148.81C254.795 148.81 255.215 148.623 255.532 148.25C255.85 147.867 256.008 147.307 256.008 146.57C256.008 145.823 255.85 145.268 255.532 144.904C255.215 144.531 254.795 144.344 254.272 144.344C253.75 144.344 253.33 144.531 253.012 144.904C252.695 145.268 252.536 145.823 252.536 146.57C252.536 147.307 252.695 147.867 253.012 148.25C253.33 148.623 253.75 148.81 254.272 148.81Z" fill="black"/>
<path d="M114.984 170V161.54H118.488C119.4 161.54 120.104 161.756 120.6 162.188C121.096 162.62 121.344 163.232 121.344 164.024C121.344 164.536 121.232 164.976 121.008 165.344C120.784 165.712 120.456 165.992 120.024 166.184C119.6 166.376 119.088 166.472 118.488 166.472L118.596 166.304H118.908C119.228 166.304 119.504 166.384 119.736 166.544C119.976 166.704 120.192 166.96 120.384 167.312L121.848 170H120.48L119.016 167.3C118.904 167.092 118.78 166.932 118.644 166.82C118.516 166.7 118.364 166.62 118.188 166.58C118.02 166.532 117.82 166.508 117.588 166.508H116.232V170H114.984ZM116.232 165.572H118.284C118.892 165.572 119.352 165.444 119.664 165.188C119.976 164.932 120.132 164.552 120.132 164.048C120.132 163.552 119.976 163.176 119.664 162.92C119.352 162.664 118.892 162.536 118.284 162.536H116.232V165.572ZM124.935 170V162.584H121.935V161.54H129.171V162.584H126.171V170H124.935ZM133.351 170.108C132.751 170.108 132.207 170.008 131.719 169.808C131.231 169.608 130.811 169.316 130.459 168.932C130.115 168.548 129.851 168.092 129.667 167.564C129.483 167.028 129.391 166.428 129.391 165.764C129.391 165.1 129.483 164.504 129.667 163.976C129.851 163.44 130.115 162.984 130.459 162.608C130.803 162.224 131.219 161.932 131.707 161.732C132.195 161.532 132.743 161.432 133.351 161.432C133.951 161.432 134.495 161.532 134.983 161.732C135.471 161.932 135.887 162.22 136.231 162.596C136.583 162.972 136.851 163.428 137.035 163.964C137.219 164.492 137.311 165.088 137.311 165.752C137.311 166.416 137.219 167.016 137.035 167.552C136.851 168.088 136.583 168.548 136.231 168.932C135.887 169.316 135.471 169.608 134.983 169.808C134.495 170.008 133.951 170.108 133.351 170.108ZM133.351 169.028C133.911 169.028 134.387 168.9 134.779 168.644C135.179 168.388 135.483 168.016 135.691 167.528C135.907 167.04 136.015 166.452 136.015 165.764C136.015 165.076 135.911 164.488 135.703 164C135.495 163.512 135.191 163.144 134.791 162.896C134.399 162.64 133.919 162.512 133.351 162.512C132.791 162.512 132.311 162.64 131.911 162.896C131.519 163.144 131.215 163.512 130.999 164C130.791 164.488 130.687 165.076 130.687 165.764C130.687 166.444 130.791 167.032 130.999 167.528C131.215 168.016 131.519 168.388 131.911 168.644C132.311 168.9 132.791 169.028 133.351 169.028ZM143.876 170.108C143.468 170.108 143.1 170.028 142.772 169.868C142.452 169.708 142.2 169.492 142.016 169.22C141.832 168.948 141.74 168.64 141.74 168.296C141.74 167.864 141.848 167.524 142.064 167.276C142.288 167.02 142.652 166.84 143.156 166.736C143.668 166.624 144.356 166.568 145.22 166.568H145.784V167.312H145.232C144.8 167.312 144.436 167.328 144.14 167.36C143.844 167.392 143.608 167.444 143.432 167.516C143.256 167.58 143.128 167.672 143.048 167.792C142.976 167.912 142.94 168.056 142.94 168.224C142.94 168.528 143.044 168.776 143.252 168.968C143.46 169.152 143.748 169.244 144.116 169.244C144.412 169.244 144.672 169.176 144.896 169.04C145.12 168.896 145.296 168.704 145.424 168.464C145.56 168.224 145.628 167.948 145.628 167.636V166.256C145.628 165.8 145.532 165.472 145.34 165.272C145.148 165.072 144.832 164.972 144.392 164.972C144.056 164.972 143.72 165.024 143.384 165.128C143.048 165.224 142.704 165.38 142.352 165.596L141.98 164.744C142.188 164.6 142.428 164.476 142.7 164.372C142.972 164.268 143.256 164.188 143.552 164.132C143.856 164.068 144.148 164.036 144.428 164.036C144.964 164.036 145.404 164.12 145.748 164.288C146.1 164.456 146.36 164.712 146.528 165.056C146.696 165.4 146.78 165.844 146.78 166.388V170H145.64V168.692H145.748C145.684 168.988 145.564 169.244 145.388 169.46C145.22 169.668 145.008 169.828 144.752 169.94C144.496 170.052 144.204 170.108 143.876 170.108ZM150.107 170L147.587 164.144H148.895L150.851 169.004H150.515L152.519 164.144H153.755L151.199 170H150.107ZM157.064 170.108C156.472 170.108 155.96 169.984 155.528 169.736C155.104 169.488 154.772 169.136 154.532 168.68C154.292 168.224 154.172 167.688 154.172 167.072C154.172 166.448 154.292 165.912 154.532 165.464C154.772 165.008 155.104 164.656 155.528 164.408C155.96 164.16 156.472 164.036 157.064 164.036C157.648 164.036 158.152 164.16 158.576 164.408C159.008 164.656 159.344 165.008 159.584 165.464C159.824 165.92 159.944 166.456 159.944 167.072C159.944 167.688 159.824 168.224 159.584 168.68C159.344 169.136 159.008 169.488 158.576 169.736C158.152 169.984 157.648 170.108 157.064 170.108ZM157.052 169.172C157.556 169.172 157.96 168.992 158.264 168.632C158.568 168.272 158.72 167.752 158.72 167.072C158.72 166.384 158.568 165.864 158.264 165.512C157.96 165.16 157.556 164.984 157.052 164.984C156.556 164.984 156.156 165.16 155.852 165.512C155.548 165.864 155.396 166.384 155.396 167.072C155.396 167.752 155.548 168.272 155.852 168.632C156.156 168.992 156.556 169.172 157.052 169.172ZM161.197 162.788V161.528H162.613V162.788H161.197ZM161.305 170V164.144H162.517V170H161.305ZM166.455 170.108C165.943 170.108 165.491 169.988 165.099 169.748C164.715 169.5 164.415 169.148 164.199 168.692C163.983 168.228 163.875 167.688 163.875 167.072C163.875 166.44 163.983 165.9 164.199 165.452C164.415 165.004 164.715 164.656 165.099 164.408C165.491 164.16 165.943 164.036 166.455 164.036C166.967 164.036 167.407 164.164 167.775 164.42C168.151 164.668 168.403 165.004 168.531 165.428H168.399V161.54H169.611V170H168.423V168.68H168.543C168.415 169.112 168.163 169.46 167.787 169.724C167.419 169.98 166.975 170.108 166.455 170.108ZM166.767 169.172C167.263 169.172 167.663 168.992 167.967 168.632C168.271 168.272 168.423 167.752 168.423 167.072C168.423 166.384 168.271 165.864 167.967 165.512C167.663 165.16 167.263 164.984 166.767 164.984C166.263 164.984 165.859 165.16 165.555 165.512C165.251 165.864 165.099 166.384 165.099 167.072C165.099 167.752 165.251 168.272 165.555 168.632C165.859 168.992 166.263 169.172 166.767 169.172ZM174.061 170.108C173.421 170.108 172.869 169.988 172.405 169.748C171.949 169.5 171.593 169.152 171.337 168.704C171.089 168.248 170.965 167.708 170.965 167.084C170.965 166.476 171.089 165.944 171.337 165.488C171.585 165.032 171.925 164.676 172.357 164.42C172.789 164.164 173.281 164.036 173.833 164.036C174.377 164.036 174.841 164.156 175.225 164.396C175.617 164.628 175.917 164.96 176.125 165.392C176.333 165.824 176.437 166.34 176.437 166.94V167.348H171.925V166.604H175.621L175.417 166.772C175.417 166.172 175.285 165.708 175.021 165.38C174.757 165.052 174.377 164.888 173.881 164.888C173.505 164.888 173.185 164.976 172.921 165.152C172.665 165.328 172.469 165.572 172.333 165.884C172.197 166.196 172.129 166.56 172.129 166.976V167.048C172.129 167.512 172.201 167.904 172.345 168.224C172.497 168.536 172.717 168.772 173.005 168.932C173.293 169.092 173.649 169.172 174.073 169.172C174.409 169.172 174.737 169.12 175.057 169.016C175.385 168.904 175.693 168.732 175.981 168.5L176.341 169.34C176.077 169.58 175.737 169.768 175.321 169.904C174.905 170.04 174.485 170.108 174.061 170.108ZM179.99 170.108C179.478 170.108 179.026 169.988 178.634 169.748C178.25 169.5 177.95 169.148 177.734 168.692C177.518 168.228 177.41 167.688 177.41 167.072C177.41 166.44 177.518 165.9 177.734 165.452C177.95 165.004 178.25 164.656 178.634 164.408C179.026 164.16 179.478 164.036 179.99 164.036C180.502 164.036 180.942 164.164 181.31 164.42C181.686 164.668 181.938 165.004 182.066 165.428H181.934V161.54H183.146V170H181.958V168.68H182.078C181.95 169.112 181.698 169.46 181.322 169.724C180.954 169.98 180.51 170.108 179.99 170.108ZM180.302 169.172C180.798 169.172 181.198 168.992 181.502 168.632C181.806 168.272 181.958 167.752 181.958 167.072C181.958 166.384 181.806 165.864 181.502 165.512C181.198 165.16 180.798 164.984 180.302 164.984C179.798 164.984 179.394 165.16 179.09 165.512C178.786 165.864 178.634 166.384 178.634 167.072C178.634 167.752 178.786 168.272 179.09 168.632C179.394 168.992 179.798 169.172 180.302 169.172Z" fill="#737682"/>
<path d="M196.998 168.944C196.606 168.944 196.246 168.852 195.918 168.668C195.59 168.476 195.326 168.22 195.126 167.9C194.926 167.58 194.826 167.22 194.826 166.82C194.826 166.452 194.918 166.108 195.102 165.788C195.294 165.46 195.554 165.196 195.882 164.996C196.21 164.788 196.582 164.684 196.998 164.684C197.382 164.684 197.738 164.776 198.066 164.96C198.402 165.144 198.67 165.4 198.87 165.728C199.07 166.048 199.17 166.412 199.17 166.82C199.17 167.212 199.07 167.568 198.87 167.888C198.678 168.208 198.418 168.464 198.09 168.656C197.762 168.848 197.398 168.944 196.998 168.944ZM209.048 170V162.584H206.048V161.54H213.284V162.584H210.284V170H209.048ZM215.385 170.108C214.913 170.108 214.517 170.02 214.197 169.844C213.885 169.668 213.649 169.408 213.489 169.064C213.337 168.712 213.261 168.272 213.261 167.744V164.144H214.473V167.756C214.473 168.068 214.513 168.328 214.593 168.536C214.681 168.744 214.813 168.896 214.989 168.992C215.173 169.088 215.401 169.136 215.673 169.136C215.977 169.136 216.245 169.068 216.477 168.932C216.709 168.796 216.889 168.6 217.017 168.344C217.145 168.088 217.209 167.792 217.209 167.456V164.144H218.421V170H217.245V168.716H217.401C217.241 169.164 216.985 169.508 216.633 169.748C216.281 169.988 215.865 170.108 215.385 170.108ZM222.877 170.108C222.237 170.108 221.685 169.988 221.221 169.748C220.765 169.5 220.409 169.152 220.153 168.704C219.905 168.248 219.781 167.708 219.781 167.084C219.781 166.476 219.905 165.944 220.153 165.488C220.401 165.032 220.741 164.676 221.173 164.42C221.605 164.164 222.097 164.036 222.649 164.036C223.193 164.036 223.657 164.156 224.041 164.396C224.433 164.628 224.733 164.96 224.941 165.392C225.149 165.824 225.253 166.34 225.253 166.94V167.348H220.741V166.604H224.437L224.233 166.772C224.233 166.172 224.101 165.708 223.837 165.38C223.573 165.052 223.193 164.888 222.697 164.888C222.321 164.888 222.001 164.976 221.737 165.152C221.481 165.328 221.285 165.572 221.149 165.884C221.013 166.196 220.945 166.56 220.945 166.976V167.048C220.945 167.512 221.017 167.904 221.161 168.224C221.313 168.536 221.533 168.772 221.821 168.932C222.109 169.092 222.465 169.172 222.889 169.172C223.225 169.172 223.553 169.12 223.873 169.016C224.201 168.904 224.509 168.732 224.797 168.5L225.157 169.34C224.893 169.58 224.553 169.768 224.137 169.904C223.721 170.04 223.301 170.108 222.877 170.108ZM233.243 170V168.284H229.439V167.36L233.459 161.54H234.479V167.24H235.715V168.284H234.479V170H233.243ZM233.243 167.24V163.028H233.567L230.447 167.576V167.24H233.243ZM236.922 172.16V164.144H238.11V165.464H237.978C238.106 165.032 238.358 164.688 238.734 164.432C239.11 164.168 239.554 164.036 240.066 164.036C240.586 164.036 241.038 164.16 241.422 164.408C241.814 164.656 242.114 165.004 242.322 165.452C242.538 165.9 242.646 166.44 242.646 167.072C242.646 167.688 242.538 168.228 242.322 168.692C242.114 169.148 241.818 169.5 241.434 169.748C241.05 169.988 240.594 170.108 240.066 170.108C239.562 170.108 239.122 169.98 238.746 169.724C238.37 169.468 238.118 169.128 237.99 168.704H238.134V172.16H236.922ZM239.766 169.172C240.27 169.172 240.67 168.992 240.966 168.632C241.27 168.272 241.422 167.752 241.422 167.072C241.422 166.384 241.27 165.864 240.966 165.512C240.67 165.16 240.27 164.984 239.766 164.984C239.27 164.984 238.87 165.16 238.566 165.512C238.262 165.864 238.11 166.384 238.11 167.072C238.11 167.752 238.262 168.272 238.566 168.632C238.87 168.992 239.27 169.172 239.766 169.172ZM244.036 170V164.144H245.212V165.392H245.08C245.184 165.104 245.328 164.86 245.512 164.66C245.696 164.46 245.916 164.308 246.172 164.204C246.436 164.092 246.724 164.036 247.036 164.036C247.524 164.036 247.92 164.152 248.224 164.384C248.528 164.616 248.736 164.972 248.848 165.452H248.68C248.832 165.012 249.092 164.668 249.46 164.42C249.828 164.164 250.256 164.036 250.744 164.036C251.192 164.036 251.56 164.124 251.848 164.3C252.136 164.468 252.352 164.728 252.496 165.08C252.64 165.424 252.712 165.86 252.712 166.388V170H251.5V166.448C251.5 165.952 251.412 165.588 251.236 165.356C251.068 165.124 250.788 165.008 250.396 165.008C250.108 165.008 249.856 165.076 249.64 165.212C249.424 165.348 249.256 165.548 249.136 165.812C249.024 166.068 248.968 166.372 248.968 166.724V170H247.756V166.448C247.756 165.952 247.672 165.588 247.504 165.356C247.336 165.124 247.056 165.008 246.664 165.008C246.368 165.008 246.112 165.076 245.896 165.212C245.688 165.348 245.528 165.548 245.416 165.812C245.304 166.068 245.248 166.372 245.248 166.724V170H244.036Z" fill="#737682"/>
</g>
<rect x="37.5" y="95.5" width="1144" height="89" rx="7.5" fill="#EEFBF3"/>
<rect x="37.5" y="95.5" width="1144" height="89" rx="7.5" stroke="#CBF2DC"/>
<rect x="57" y="126" width="28" height="28" rx="8" fill="white"/>
<path d="M70.9987 133.334C67.3187 133.334 64.332 136.321 64.332 140.001C64.332 143.681 67.3187 146.667 70.9987 146.667C74.6787 146.667 77.6654 143.681 77.6654 140.001C77.6654 136.321 74.6787 133.334 70.9987 133.334ZM69.192 142.861L66.7987 140.467C66.5387 140.207 66.5387 139.787 66.7987 139.527C67.0587 139.267 67.4787 139.267 67.7387 139.527L69.6654 141.447L74.252 136.861C74.512 136.601 74.932 136.601 75.192 136.861C75.452 137.121 75.452 137.541 75.192 137.801L70.132 142.861C69.8787 143.121 69.452 143.121 69.192 142.861Z" fill="#28C76F"/>
<path d="M100.078 135V125.13H104.362C105.445 125.13 106.28 125.391 106.868 125.914C107.456 126.427 107.75 127.151 107.75 128.084C107.75 128.691 107.615 129.213 107.344 129.652C107.083 130.091 106.7 130.427 106.196 130.66C105.692 130.893 105.081 131.01 104.362 131.01L104.488 130.8H104.95C105.333 130.8 105.664 130.893 105.944 131.08C106.233 131.267 106.485 131.561 106.7 131.962L108.352 135H106.378L104.67 131.85C104.558 131.645 104.432 131.486 104.292 131.374C104.152 131.253 103.993 131.169 103.816 131.122C103.639 131.075 103.433 131.052 103.2 131.052H101.87V135H100.078ZM101.87 129.722H104.054C104.698 129.722 105.183 129.591 105.51 129.33C105.846 129.059 106.014 128.658 106.014 128.126C106.014 127.603 105.846 127.211 105.51 126.95C105.183 126.679 104.698 126.544 104.054 126.544H101.87V129.722ZM112.704 135.14C111.929 135.14 111.262 134.995 110.702 134.706C110.142 134.417 109.708 134.006 109.4 133.474C109.101 132.942 108.952 132.312 108.952 131.584C108.952 130.875 109.097 130.254 109.386 129.722C109.685 129.19 110.091 128.775 110.604 128.476C111.127 128.168 111.719 128.014 112.382 128.014C113.035 128.014 113.595 128.154 114.062 128.434C114.529 128.714 114.888 129.111 115.14 129.624C115.401 130.137 115.532 130.749 115.532 131.458V131.976H110.366V130.968H114.3L114.076 131.178C114.076 130.543 113.936 130.058 113.656 129.722C113.376 129.377 112.975 129.204 112.452 129.204C112.06 129.204 111.724 129.297 111.444 129.484C111.173 129.661 110.963 129.918 110.814 130.254C110.674 130.581 110.604 130.973 110.604 131.43V131.528C110.604 132.041 110.683 132.466 110.842 132.802C111.001 133.138 111.239 133.39 111.556 133.558C111.873 133.726 112.265 133.81 112.732 133.81C113.115 133.81 113.497 133.754 113.88 133.642C114.263 133.521 114.613 133.334 114.93 133.082L115.42 134.258C115.093 134.529 114.683 134.743 114.188 134.902C113.693 135.061 113.199 135.14 112.704 135.14ZM117.138 131.948V130.548H121.31V131.948H117.138ZM125.42 135.14C124.925 135.14 124.482 135.047 124.09 134.86C123.707 134.664 123.404 134.403 123.18 134.076C122.965 133.749 122.858 133.381 122.858 132.97C122.858 132.466 122.989 132.069 123.25 131.78C123.511 131.481 123.936 131.267 124.524 131.136C125.112 131.005 125.901 130.94 126.89 130.94H127.59V131.948H126.904C126.465 131.948 126.097 131.967 125.798 132.004C125.499 132.032 125.257 132.083 125.07 132.158C124.893 132.223 124.762 132.317 124.678 132.438C124.603 132.559 124.566 132.709 124.566 132.886C124.566 133.194 124.673 133.446 124.888 133.642C125.103 133.838 125.401 133.936 125.784 133.936C126.092 133.936 126.363 133.866 126.596 133.726C126.839 133.577 127.03 133.376 127.17 133.124C127.31 132.872 127.38 132.583 127.38 132.256V130.646C127.38 130.179 127.277 129.843 127.072 129.638C126.867 129.433 126.521 129.33 126.036 129.33C125.653 129.33 125.261 129.391 124.86 129.512C124.459 129.624 124.053 129.801 123.642 130.044L123.138 128.854C123.381 128.686 123.665 128.541 123.992 128.42C124.328 128.289 124.678 128.191 125.042 128.126C125.415 128.051 125.765 128.014 126.092 128.014C126.764 128.014 127.315 128.117 127.744 128.322C128.183 128.527 128.509 128.84 128.724 129.26C128.939 129.671 129.046 130.203 129.046 130.856V135H127.408V133.544H127.52C127.455 133.871 127.324 134.155 127.128 134.398C126.941 134.631 126.703 134.813 126.414 134.944C126.125 135.075 125.793 135.14 125.42 135.14ZM133.958 135.14C133.043 135.14 132.362 134.911 131.914 134.454C131.466 133.997 131.242 133.329 131.242 132.452V129.47H129.926V128.154H131.242V126.11H132.992V128.154H135.064V129.47H132.992V132.354C132.992 132.802 133.09 133.138 133.286 133.362C133.482 133.586 133.799 133.698 134.238 133.698C134.369 133.698 134.504 133.684 134.644 133.656C134.784 133.619 134.929 133.581 135.078 133.544L135.344 134.832C135.176 134.925 134.961 135 134.7 135.056C134.448 135.112 134.201 135.14 133.958 135.14ZM138.935 135.14C138.02 135.14 137.339 134.911 136.891 134.454C136.443 133.997 136.219 133.329 136.219 132.452V129.47H134.903V128.154H136.219V126.11H137.969V128.154H140.041V129.47H137.969V132.354C137.969 132.802 138.067 133.138 138.263 133.362C138.459 133.586 138.776 133.698 139.215 133.698C139.345 133.698 139.481 133.684 139.621 133.656C139.761 133.619 139.905 133.581 140.055 133.544L140.321 134.832C140.153 134.925 139.938 135 139.677 135.056C139.425 135.112 139.177 135.14 138.935 135.14ZM144.477 135.14C143.703 135.14 143.035 134.995 142.475 134.706C141.915 134.417 141.481 134.006 141.173 133.474C140.875 132.942 140.725 132.312 140.725 131.584C140.725 130.875 140.87 130.254 141.159 129.722C141.458 129.19 141.864 128.775 142.377 128.476C142.9 128.168 143.493 128.014 144.155 128.014C144.809 128.014 145.369 128.154 145.835 128.434C146.302 128.714 146.661 129.111 146.913 129.624C147.175 130.137 147.305 130.749 147.305 131.458V131.976H142.139V130.968H146.073L145.849 131.178C145.849 130.543 145.709 130.058 145.429 129.722C145.149 129.377 144.748 129.204 144.225 129.204C143.833 129.204 143.497 129.297 143.217 129.484C142.947 129.661 142.737 129.918 142.587 130.254C142.447 130.581 142.377 130.973 142.377 131.43V131.528C142.377 132.041 142.457 132.466 142.615 132.802C142.774 133.138 143.012 133.39 143.329 133.558C143.647 133.726 144.039 133.81 144.505 133.81C144.888 133.81 145.271 133.754 145.653 133.642C146.036 133.521 146.386 133.334 146.703 133.082L147.193 134.258C146.867 134.529 146.456 134.743 145.961 134.902C145.467 135.061 144.972 135.14 144.477 135.14ZM148.719 135V128.154H150.427V129.526H150.273C150.395 129.209 150.563 128.938 150.777 128.714C150.992 128.49 151.249 128.317 151.547 128.196C151.846 128.075 152.177 128.014 152.541 128.014C153.092 128.014 153.545 128.145 153.899 128.406C154.254 128.667 154.501 129.069 154.641 129.61H154.445C154.632 129.115 154.94 128.728 155.369 128.448C155.799 128.159 156.293 128.014 156.853 128.014C157.376 128.014 157.805 128.117 158.141 128.322C158.487 128.527 158.743 128.84 158.911 129.26C159.079 129.671 159.163 130.193 159.163 130.828V135H157.413V130.898C157.413 130.375 157.325 129.993 157.147 129.75C156.979 129.507 156.69 129.386 156.279 129.386C155.981 129.386 155.719 129.461 155.495 129.61C155.271 129.75 155.099 129.955 154.977 130.226C154.865 130.497 154.809 130.823 154.809 131.206V135H153.059V130.898C153.059 130.375 152.971 129.993 152.793 129.75C152.625 129.507 152.341 129.386 151.939 129.386C151.631 129.386 151.365 129.461 151.141 129.61C150.927 129.75 150.759 129.955 150.637 130.226C150.525 130.497 150.469 130.823 150.469 131.206V135H148.719ZM160.969 137.52V128.154H162.677V129.596H162.537C162.677 129.12 162.961 128.737 163.391 128.448C163.829 128.159 164.338 128.014 164.917 128.014C165.514 128.014 166.037 128.159 166.485 128.448C166.942 128.737 167.297 129.148 167.549 129.68C167.801 130.203 167.927 130.833 167.927 131.57C167.927 132.298 167.801 132.933 167.549 133.474C167.297 134.006 166.947 134.417 166.499 134.706C166.051 134.995 165.523 135.14 164.917 135.14C164.347 135.14 163.848 135 163.419 134.72C162.989 134.431 162.7 134.057 162.551 133.6H162.719V137.52H160.969ZM164.427 133.81C164.949 133.81 165.369 133.623 165.687 133.25C166.004 132.867 166.163 132.307 166.163 131.57C166.163 130.823 166.004 130.268 165.687 129.904C165.369 129.531 164.949 129.344 164.427 129.344C163.904 129.344 163.484 129.531 163.167 129.904C162.849 130.268 162.691 130.823 162.691 131.57C162.691 132.307 162.849 132.867 163.167 133.25C163.484 133.623 163.904 133.81 164.427 133.81ZM172.431 135.14C171.516 135.14 170.835 134.911 170.387 134.454C169.939 133.997 169.715 133.329 169.715 132.452V129.47H168.399V128.154H169.715V126.11H171.465V128.154H173.537V129.47H171.465V132.354C171.465 132.802 171.563 133.138 171.759 133.362C171.955 133.586 172.272 133.698 172.711 133.698C172.841 133.698 172.977 133.684 173.117 133.656C173.257 133.619 173.401 133.581 173.551 133.544L173.817 134.832C173.649 134.925 173.434 135 173.173 135.056C172.921 135.112 172.673 135.14 172.431 135.14ZM180.947 135.14C180.565 135.14 180.191 135.107 179.827 135.042C179.473 134.977 179.146 134.888 178.847 134.776C178.549 134.655 178.287 134.505 178.063 134.328L178.511 133.18C178.745 133.329 178.997 133.46 179.267 133.572C179.538 133.684 179.818 133.768 180.107 133.824C180.397 133.88 180.681 133.908 180.961 133.908C181.409 133.908 181.741 133.833 181.955 133.684C182.179 133.525 182.291 133.32 182.291 133.068C182.291 132.853 182.217 132.69 182.067 132.578C181.927 132.457 181.713 132.368 181.423 132.312L180.023 132.046C179.445 131.934 179.001 131.724 178.693 131.416C178.395 131.099 178.245 130.693 178.245 130.198C178.245 129.75 178.367 129.363 178.609 129.036C178.861 128.709 179.207 128.457 179.645 128.28C180.084 128.103 180.588 128.014 181.157 128.014C181.484 128.014 181.801 128.047 182.109 128.112C182.417 128.168 182.707 128.257 182.977 128.378C183.257 128.49 183.5 128.639 183.705 128.826L183.229 129.974C183.052 129.825 182.847 129.699 182.613 129.596C182.38 129.484 182.137 129.4 181.885 129.344C181.643 129.279 181.405 129.246 181.171 129.246C180.714 129.246 180.373 129.325 180.149 129.484C179.935 129.643 179.827 129.853 179.827 130.114C179.827 130.31 179.893 130.473 180.023 130.604C180.154 130.735 180.355 130.823 180.625 130.87L182.025 131.136C182.632 131.248 183.089 131.453 183.397 131.752C183.715 132.051 183.873 132.452 183.873 132.956C183.873 133.413 183.752 133.805 183.509 134.132C183.267 134.459 182.926 134.711 182.487 134.888C182.049 135.056 181.535 135.14 180.947 135.14ZM188.441 135.14C187.723 135.14 187.097 134.995 186.565 134.706C186.033 134.407 185.623 133.987 185.333 133.446C185.044 132.905 184.899 132.27 184.899 131.542C184.899 130.814 185.044 130.189 185.333 129.666C185.623 129.134 186.033 128.728 186.565 128.448C187.097 128.159 187.723 128.014 188.441 128.014C188.88 128.014 189.314 128.084 189.743 128.224C190.173 128.364 190.527 128.56 190.807 128.812L190.289 130.03C190.047 129.815 189.771 129.652 189.463 129.54C189.165 129.428 188.875 129.372 188.595 129.372C187.989 129.372 187.517 129.563 187.181 129.946C186.855 130.319 186.691 130.856 186.691 131.556C186.691 132.247 186.855 132.793 187.181 133.194C187.517 133.586 187.989 133.782 188.595 133.782C188.866 133.782 189.155 133.726 189.463 133.614C189.771 133.502 190.047 133.334 190.289 133.11L190.807 134.342C190.527 134.585 190.168 134.781 189.729 134.93C189.3 135.07 188.871 135.14 188.441 135.14ZM191.881 135V125.13H193.631V129.526H193.435C193.64 129.031 193.957 128.658 194.387 128.406C194.825 128.145 195.32 128.014 195.871 128.014C196.421 128.014 196.874 128.117 197.229 128.322C197.583 128.527 197.849 128.84 198.027 129.26C198.204 129.671 198.293 130.193 198.293 130.828V135H196.543V130.912C196.543 130.557 196.496 130.268 196.403 130.044C196.319 129.82 196.183 129.657 195.997 129.554C195.819 129.442 195.591 129.386 195.311 129.386C194.975 129.386 194.681 129.461 194.429 129.61C194.177 129.75 193.981 129.955 193.841 130.226C193.701 130.487 193.631 130.795 193.631 131.15V135H191.881ZM203.444 135.14C202.669 135.14 202.002 134.995 201.442 134.706C200.882 134.417 200.448 134.006 200.14 133.474C199.841 132.942 199.692 132.312 199.692 131.584C199.692 130.875 199.837 130.254 200.126 129.722C200.425 129.19 200.831 128.775 201.344 128.476C201.867 128.168 202.459 128.014 203.122 128.014C203.775 128.014 204.335 128.154 204.802 128.434C205.269 128.714 205.628 129.111 205.88 129.624C206.141 130.137 206.272 130.749 206.272 131.458V131.976H201.106V130.968H205.04L204.816 131.178C204.816 130.543 204.676 130.058 204.396 129.722C204.116 129.377 203.715 129.204 203.192 129.204C202.8 129.204 202.464 129.297 202.184 129.484C201.913 129.661 201.703 129.918 201.554 130.254C201.414 130.581 201.344 130.973 201.344 131.43V131.528C201.344 132.041 201.423 132.466 201.582 132.802C201.741 133.138 201.979 133.39 202.296 133.558C202.613 133.726 203.005 133.81 203.472 133.81C203.855 133.81 204.237 133.754 204.62 133.642C205.003 133.521 205.353 133.334 205.67 133.082L206.16 134.258C205.833 134.529 205.423 134.743 204.928 134.902C204.433 135.061 203.939 135.14 203.444 135.14ZM210.29 135.14C209.693 135.14 209.165 134.995 208.708 134.706C208.26 134.417 207.91 134.006 207.658 133.474C207.406 132.933 207.28 132.298 207.28 131.57C207.28 130.833 207.406 130.203 207.658 129.68C207.91 129.148 208.26 128.737 208.708 128.448C209.165 128.159 209.693 128.014 210.29 128.014C210.859 128.014 211.354 128.154 211.774 128.434C212.203 128.714 212.493 129.083 212.642 129.54H212.488V125.13H214.238V135H212.53V133.544H212.656C212.516 134.029 212.231 134.417 211.802 134.706C211.373 134.995 210.869 135.14 210.29 135.14ZM210.78 133.81C211.303 133.81 211.723 133.623 212.04 133.25C212.357 132.867 212.516 132.307 212.516 131.57C212.516 130.823 212.357 130.268 212.04 129.904C211.723 129.531 211.303 129.344 210.78 129.344C210.257 129.344 209.837 129.531 209.52 129.904C209.203 130.268 209.044 130.823 209.044 131.57C209.044 132.307 209.203 132.867 209.52 133.25C209.837 133.623 210.257 133.81 210.78 133.81ZM218.531 135.14C217.961 135.14 217.49 135.037 217.117 134.832C216.743 134.617 216.463 134.3 216.277 133.88C216.099 133.46 216.011 132.937 216.011 132.312V128.154H217.761V132.34C217.761 132.657 217.803 132.923 217.887 133.138C217.98 133.353 218.115 133.511 218.293 133.614C218.479 133.717 218.713 133.768 218.993 133.768C219.31 133.768 219.585 133.698 219.819 133.558C220.061 133.409 220.248 133.203 220.379 132.942C220.519 132.671 220.589 132.359 220.589 132.004V128.154H222.339V135H220.631V133.572H220.827C220.631 134.076 220.332 134.463 219.931 134.734C219.539 135.005 219.072 135.14 218.531 135.14ZM226.54 135.14C225.728 135.14 225.126 134.921 224.734 134.482C224.351 134.034 224.16 133.381 224.16 132.522V125.13H225.91V132.438C225.91 132.709 225.947 132.942 226.022 133.138C226.106 133.325 226.227 133.465 226.386 133.558C226.545 133.651 226.741 133.698 226.974 133.698C227.077 133.698 227.179 133.693 227.282 133.684C227.385 133.675 227.483 133.656 227.576 133.628L227.548 135.014C227.38 135.051 227.212 135.079 227.044 135.098C226.885 135.126 226.717 135.14 226.54 135.14ZM231.936 135.14C231.162 135.14 230.494 134.995 229.934 134.706C229.374 134.417 228.94 134.006 228.632 133.474C228.334 132.942 228.184 132.312 228.184 131.584C228.184 130.875 228.329 130.254 228.618 129.722C228.917 129.19 229.323 128.775 229.836 128.476C230.359 128.168 230.952 128.014 231.614 128.014C232.268 128.014 232.828 128.154 233.294 128.434C233.761 128.714 234.12 129.111 234.372 129.624C234.634 130.137 234.764 130.749 234.764 131.458V131.976H229.598V130.968H233.532L233.308 131.178C233.308 130.543 233.168 130.058 232.888 129.722C232.608 129.377 232.207 129.204 231.684 129.204C231.292 129.204 230.956 129.297 230.676 129.484C230.406 129.661 230.196 129.918 230.046 130.254C229.906 130.581 229.836 130.973 229.836 131.43V131.528C229.836 132.041 229.916 132.466 230.074 132.802C230.233 133.138 230.471 133.39 230.788 133.558C231.106 133.726 231.498 133.81 231.964 133.81C232.347 133.81 232.73 133.754 233.112 133.642C233.495 133.521 233.845 133.334 234.162 133.082L234.652 134.258C234.326 134.529 233.915 134.743 233.42 134.902C232.926 135.061 232.431 135.14 231.936 135.14ZM238.782 135.14C238.185 135.14 237.658 134.995 237.2 134.706C236.752 134.417 236.402 134.006 236.15 133.474C235.898 132.933 235.772 132.298 235.772 131.57C235.772 130.833 235.898 130.203 236.15 129.68C236.402 129.148 236.752 128.737 237.2 128.448C237.658 128.159 238.185 128.014 238.782 128.014C239.352 128.014 239.846 128.154 240.266 128.434C240.696 128.714 240.985 129.083 241.134 129.54H240.98V125.13H242.73V135H241.022V133.544H241.148C241.008 134.029 240.724 134.417 240.294 134.706C239.865 134.995 239.361 135.14 238.782 135.14ZM239.272 133.81C239.795 133.81 240.215 133.623 240.532 133.25C240.85 132.867 241.008 132.307 241.008 131.57C241.008 130.823 240.85 130.268 240.532 129.904C240.215 129.531 239.795 129.344 239.272 129.344C238.75 129.344 238.33 129.531 238.012 129.904C237.695 130.268 237.536 130.823 237.536 131.57C237.536 132.307 237.695 132.867 238.012 133.25C238.33 133.623 238.75 133.81 239.272 133.81Z" fill="black"/>
<path d="M99.984 155V146.54H103.488C104.4 146.54 105.104 146.756 105.6 147.188C106.096 147.62 106.344 148.232 106.344 149.024C106.344 149.536 106.232 149.976 106.008 150.344C105.784 150.712 105.456 150.992 105.024 151.184C104.6 151.376 104.088 151.472 103.488 151.472L103.596 151.304H103.908C104.228 151.304 104.504 151.384 104.736 151.544C104.976 151.704 105.192 151.96 105.384 152.312L106.848 155H105.48L104.016 152.3C103.904 152.092 103.78 151.932 103.644 151.82C103.516 151.7 103.364 151.62 103.188 151.58C103.02 151.532 102.82 151.508 102.588 151.508H101.232V155H99.984ZM101.232 150.572H103.284C103.892 150.572 104.352 150.444 104.664 150.188C104.976 149.932 105.132 149.552 105.132 149.048C105.132 148.552 104.976 148.176 104.664 147.92C104.352 147.664 103.892 147.536 103.284 147.536H101.232V150.572ZM109.935 155V147.584H106.935V146.54H114.171V147.584H111.171V155H109.935ZM118.351 155.108C117.751 155.108 117.207 155.008 116.719 154.808C116.231 154.608 115.811 154.316 115.459 153.932C115.115 153.548 114.851 153.092 114.667 152.564C114.483 152.028 114.391 151.428 114.391 150.764C114.391 150.1 114.483 149.504 114.667 148.976C114.851 148.44 115.115 147.984 115.459 147.608C115.803 147.224 116.219 146.932 116.707 146.732C117.195 146.532 117.743 146.432 118.351 146.432C118.951 146.432 119.495 146.532 119.983 146.732C120.471 146.932 120.887 147.22 121.231 147.596C121.583 147.972 121.851 148.428 122.035 148.964C122.219 149.492 122.311 150.088 122.311 150.752C122.311 151.416 122.219 152.016 122.035 152.552C121.851 153.088 121.583 153.548 121.231 153.932C120.887 154.316 120.471 154.608 119.983 154.808C119.495 155.008 118.951 155.108 118.351 155.108ZM118.351 154.028C118.911 154.028 119.387 153.9 119.779 153.644C120.179 153.388 120.483 153.016 120.691 152.528C120.907 152.04 121.015 151.452 121.015 150.764C121.015 150.076 120.911 149.488 120.703 149C120.495 148.512 120.191 148.144 119.791 147.896C119.399 147.64 118.919 147.512 118.351 147.512C117.791 147.512 117.311 147.64 116.911 147.896C116.519 148.144 116.215 148.512 115.999 149C115.791 149.488 115.687 150.076 115.687 150.764C115.687 151.444 115.791 152.032 115.999 152.528C116.215 153.016 116.519 153.388 116.911 153.644C117.311 153.9 117.791 154.028 118.351 154.028ZM128.876 155.108C128.468 155.108 128.1 155.028 127.772 154.868C127.452 154.708 127.2 154.492 127.016 154.22C126.832 153.948 126.74 153.64 126.74 153.296C126.74 152.864 126.848 152.524 127.064 152.276C127.288 152.02 127.652 151.84 128.156 151.736C128.668 151.624 129.356 151.568 130.22 151.568H130.784V152.312H130.232C129.8 152.312 129.436 152.328 129.14 152.36C128.844 152.392 128.608 152.444 128.432 152.516C128.256 152.58 128.128 152.672 128.048 152.792C127.976 152.912 127.94 153.056 127.94 153.224C127.94 153.528 128.044 153.776 128.252 153.968C128.46 154.152 128.748 154.244 129.116 154.244C129.412 154.244 129.672 154.176 129.896 154.04C130.12 153.896 130.296 153.704 130.424 153.464C130.56 153.224 130.628 152.948 130.628 152.636V151.256C130.628 150.8 130.532 150.472 130.34 150.272C130.148 150.072 129.832 149.972 129.392 149.972C129.056 149.972 128.72 150.024 128.384 150.128C128.048 150.224 127.704 150.38 127.352 150.596L126.98 149.744C127.188 149.6 127.428 149.476 127.7 149.372C127.972 149.268 128.256 149.188 128.552 149.132C128.856 149.068 129.148 149.036 129.428 149.036C129.964 149.036 130.404 149.12 130.748 149.288C131.1 149.456 131.36 149.712 131.528 150.056C131.696 150.4 131.78 150.844 131.78 151.388V155H130.64V153.692H130.748C130.684 153.988 130.564 154.244 130.388 154.46C130.22 154.668 130.008 154.828 129.752 154.94C129.496 155.052 129.204 155.108 128.876 155.108ZM135.107 155L132.587 149.144H133.895L135.851 154.004H135.515L137.519 149.144H138.755L136.199 155H135.107ZM142.064 155.108C141.472 155.108 140.96 154.984 140.528 154.736C140.104 154.488 139.772 154.136 139.532 153.68C139.292 153.224 139.172 152.688 139.172 152.072C139.172 151.448 139.292 150.912 139.532 150.464C139.772 150.008 140.104 149.656 140.528 149.408C140.96 149.16 141.472 149.036 142.064 149.036C142.648 149.036 143.152 149.16 143.576 149.408C144.008 149.656 144.344 150.008 144.584 150.464C144.824 150.92 144.944 151.456 144.944 152.072C144.944 152.688 144.824 153.224 144.584 153.68C144.344 154.136 144.008 154.488 143.576 154.736C143.152 154.984 142.648 155.108 142.064 155.108ZM142.052 154.172C142.556 154.172 142.96 153.992 143.264 153.632C143.568 153.272 143.72 152.752 143.72 152.072C143.72 151.384 143.568 150.864 143.264 150.512C142.96 150.16 142.556 149.984 142.052 149.984C141.556 149.984 141.156 150.16 140.852 150.512C140.548 150.864 140.396 151.384 140.396 152.072C140.396 152.752 140.548 153.272 140.852 153.632C141.156 153.992 141.556 154.172 142.052 154.172ZM146.197 147.788V146.528H147.613V147.788H146.197ZM146.305 155V149.144H147.517V155H146.305ZM151.455 155.108C150.943 155.108 150.491 154.988 150.099 154.748C149.715 154.5 149.415 154.148 149.199 153.692C148.983 153.228 148.875 152.688 148.875 152.072C148.875 151.44 148.983 150.9 149.199 150.452C149.415 150.004 149.715 149.656 150.099 149.408C150.491 149.16 150.943 149.036 151.455 149.036C151.967 149.036 152.407 149.164 152.775 149.42C153.151 149.668 153.403 150.004 153.531 150.428H153.399V146.54H154.611V155H153.423V153.68H153.543C153.415 154.112 153.163 154.46 152.787 154.724C152.419 154.98 151.975 155.108 151.455 155.108ZM151.767 154.172C152.263 154.172 152.663 153.992 152.967 153.632C153.271 153.272 153.423 152.752 153.423 152.072C153.423 151.384 153.271 150.864 152.967 150.512C152.663 150.16 152.263 149.984 151.767 149.984C151.263 149.984 150.859 150.16 150.555 150.512C150.251 150.864 150.099 151.384 150.099 152.072C150.099 152.752 150.251 153.272 150.555 153.632C150.859 153.992 151.263 154.172 151.767 154.172ZM159.061 155.108C158.421 155.108 157.869 154.988 157.405 154.748C156.949 154.5 156.593 154.152 156.337 153.704C156.089 153.248 155.965 152.708 155.965 152.084C155.965 151.476 156.089 150.944 156.337 150.488C156.585 150.032 156.925 149.676 157.357 149.42C157.789 149.164 158.281 149.036 158.833 149.036C159.377 149.036 159.841 149.156 160.225 149.396C160.617 149.628 160.917 149.96 161.125 150.392C161.333 150.824 161.437 151.34 161.437 151.94V152.348H156.925V151.604H160.621L160.417 151.772C160.417 151.172 160.285 150.708 160.021 150.38C159.757 150.052 159.377 149.888 158.881 149.888C158.505 149.888 158.185 149.976 157.921 150.152C157.665 150.328 157.469 150.572 157.333 150.884C157.197 151.196 157.129 151.56 157.129 151.976V152.048C157.129 152.512 157.201 152.904 157.345 153.224C157.497 153.536 157.717 153.772 158.005 153.932C158.293 154.092 158.649 154.172 159.073 154.172C159.409 154.172 159.737 154.12 160.057 154.016C160.385 153.904 160.693 153.732 160.981 153.5L161.341 154.34C161.077 154.58 160.737 154.768 160.321 154.904C159.905 155.04 159.485 155.108 159.061 155.108ZM164.99 155.108C164.478 155.108 164.026 154.988 163.634 154.748C163.25 154.5 162.95 154.148 162.734 153.692C162.518 153.228 162.41 152.688 162.41 152.072C162.41 151.44 162.518 150.9 162.734 150.452C162.95 150.004 163.25 149.656 163.634 149.408C164.026 149.16 164.478 149.036 164.99 149.036C165.502 149.036 165.942 149.164 166.31 149.42C166.686 149.668 166.938 150.004 167.066 150.428H166.934V146.54H168.146V155H166.958V153.68H167.078C166.95 154.112 166.698 154.46 166.322 154.724C165.954 154.98 165.51 155.108 164.99 155.108ZM165.302 154.172C165.798 154.172 166.198 153.992 166.502 153.632C166.806 153.272 166.958 152.752 166.958 152.072C166.958 151.384 166.806 150.864 166.502 150.512C166.198 150.16 165.798 149.984 165.302 149.984C164.798 149.984 164.394 150.16 164.09 150.512C163.786 150.864 163.634 151.384 163.634 152.072C163.634 152.752 163.786 153.272 164.09 153.632C164.394 153.992 164.798 154.172 165.302 154.172Z" fill="#737682"/>
<path d="M181.998 153.944C181.606 153.944 181.246 153.852 180.918 153.668C180.59 153.476 180.326 153.22 180.126 152.9C179.926 152.58 179.826 152.22 179.826 151.82C179.826 151.452 179.918 151.108 180.102 150.788C180.294 150.46 180.554 150.196 180.882 149.996C181.21 149.788 181.582 149.684 181.998 149.684C182.382 149.684 182.738 149.776 183.066 149.96C183.402 150.144 183.67 150.4 183.87 150.728C184.07 151.048 184.17 151.412 184.17 151.82C184.17 152.212 184.07 152.568 183.87 152.888C183.678 153.208 183.418 153.464 183.09 153.656C182.762 153.848 182.398 153.944 181.998 153.944ZM194.048 155V147.584H191.048V146.54H198.284V147.584H195.284V155H194.048ZM200.385 155.108C199.913 155.108 199.517 155.02 199.197 154.844C198.885 154.668 198.649 154.408 198.489 154.064C198.337 153.712 198.261 153.272 198.261 152.744V149.144H199.473V152.756C199.473 153.068 199.513 153.328 199.593 153.536C199.681 153.744 199.813 153.896 199.989 153.992C200.173 154.088 200.401 154.136 200.673 154.136C200.977 154.136 201.245 154.068 201.477 153.932C201.709 153.796 201.889 153.6 202.017 153.344C202.145 153.088 202.209 152.792 202.209 152.456V149.144H203.421V155H202.245V153.716H202.401C202.241 154.164 201.985 154.508 201.633 154.748C201.281 154.988 200.865 155.108 200.385 155.108ZM207.877 155.108C207.237 155.108 206.685 154.988 206.221 154.748C205.765 154.5 205.409 154.152 205.153 153.704C204.905 153.248 204.781 152.708 204.781 152.084C204.781 151.476 204.905 150.944 205.153 150.488C205.401 150.032 205.741 149.676 206.173 149.42C206.605 149.164 207.097 149.036 207.649 149.036C208.193 149.036 208.657 149.156 209.041 149.396C209.433 149.628 209.733 149.96 209.941 150.392C210.149 150.824 210.253 151.34 210.253 151.94V152.348H205.741V151.604H209.437L209.233 151.772C209.233 151.172 209.101 150.708 208.837 150.38C208.573 150.052 208.193 149.888 207.697 149.888C207.321 149.888 207.001 149.976 206.737 150.152C206.481 150.328 206.285 150.572 206.149 150.884C206.013 151.196 205.945 151.56 205.945 151.976V152.048C205.945 152.512 206.017 152.904 206.161 153.224C206.313 153.536 206.533 153.772 206.821 153.932C207.109 154.092 207.465 154.172 207.889 154.172C208.225 154.172 208.553 154.12 208.873 154.016C209.201 153.904 209.509 153.732 209.797 153.5L210.157 154.34C209.893 154.58 209.553 154.768 209.137 154.904C208.721 155.04 208.301 155.108 207.877 155.108ZM218.243 155V153.284H214.439V152.36L218.459 146.54H219.479V152.24H220.715V153.284H219.479V155H218.243ZM218.243 152.24V148.028H218.567L215.447 152.576V152.24H218.243ZM221.922 157.16V149.144H223.11V150.464H222.978C223.106 150.032 223.358 149.688 223.734 149.432C224.11 149.168 224.554 149.036 225.066 149.036C225.586 149.036 226.038 149.16 226.422 149.408C226.814 149.656 227.114 150.004 227.322 150.452C227.538 150.9 227.646 151.44 227.646 152.072C227.646 152.688 227.538 153.228 227.322 153.692C227.114 154.148 226.818 154.5 226.434 154.748C226.05 154.988 225.594 155.108 225.066 155.108C224.562 155.108 224.122 154.98 223.746 154.724C223.37 154.468 223.118 154.128 222.99 153.704H223.134V157.16H221.922ZM224.766 154.172C225.27 154.172 225.67 153.992 225.966 153.632C226.27 153.272 226.422 152.752 226.422 152.072C226.422 151.384 226.27 150.864 225.966 150.512C225.67 150.16 225.27 149.984 224.766 149.984C224.27 149.984 223.87 150.16 223.566 150.512C223.262 150.864 223.11 151.384 223.11 152.072C223.11 152.752 223.262 153.272 223.566 153.632C223.87 153.992 224.27 154.172 224.766 154.172ZM229.036 155V149.144H230.212V150.392H230.08C230.184 150.104 230.328 149.86 230.512 149.66C230.696 149.46 230.916 149.308 231.172 149.204C231.436 149.092 231.724 149.036 232.036 149.036C232.524 149.036 232.92 149.152 233.224 149.384C233.528 149.616 233.736 149.972 233.848 150.452H233.68C233.832 150.012 234.092 149.668 234.46 149.42C234.828 149.164 235.256 149.036 235.744 149.036C236.192 149.036 236.56 149.124 236.848 149.3C237.136 149.468 237.352 149.728 237.496 150.08C237.64 150.424 237.712 150.86 237.712 151.388V155H236.5V151.448C236.5 150.952 236.412 150.588 236.236 150.356C236.068 150.124 235.788 150.008 235.396 150.008C235.108 150.008 234.856 150.076 234.64 150.212C234.424 150.348 234.256 150.548 234.136 150.812C234.024 151.068 233.968 151.372 233.968 151.724V155H232.756V151.448C232.756 150.952 232.672 150.588 232.504 150.356C232.336 150.124 232.056 150.008 231.664 150.008C231.368 150.008 231.112 150.076 230.896 150.212C230.688 150.348 230.528 150.548 230.416 150.812C230.304 151.068 230.248 151.372 230.248 151.724V155H229.036Z" fill="#737682"/>
</g>
<rect x="0.5" y="0.5" width="336.333" height="279" rx="11.5" stroke="#EAEAEC"/>
<defs>
<clipPath id="clip0_6932_179250">
<rect width="337.333" height="280" rx="12" fill="white"/>
</clipPath>
</defs>
</svg>
