<svg width="338" height="244" viewBox="0 0 338 244" fill="none" xmlns="http://www.w3.org/2000/svg">
<g id="Card Summary v4">
<rect x="0.5" y="0.5" width="336.333" height="243" rx="11.5" fill="#F5F5F6"/>
<rect x="0.5" y="0.5" width="336.333" height="243" rx="11.5" stroke="#EAEAEC"/>
<g id="Chart">
<rect x="34.668" y="35" width="267" height="174" rx="12" fill="white"/>
<g id="Main info">
<path id="Category" d="M146.928 124L150.028 116.95H150.778L153.878 124H152.988L152.128 121.99L152.548 122.24H148.248L148.668 121.99L147.808 124H146.928ZM150.388 117.94L148.788 121.7L148.548 121.51H152.248L152.008 121.7L150.418 117.94H150.388ZM157.05 124.09C156.55 124.09 156.117 123.983 155.75 123.77C155.39 123.557 155.11 123.26 154.91 122.88C154.717 122.493 154.62 122.043 154.62 121.53C154.62 121.01 154.717 120.563 154.91 120.19C155.11 119.81 155.393 119.52 155.76 119.32C156.127 119.113 156.557 119.01 157.05 119.01C157.37 119.01 157.68 119.067 157.98 119.18C158.28 119.287 158.527 119.437 158.72 119.63L158.43 120.26C158.237 120.08 158.023 119.947 157.79 119.86C157.557 119.767 157.33 119.72 157.11 119.72C156.597 119.72 156.197 119.877 155.91 120.19C155.623 120.503 155.48 120.953 155.48 121.54C155.48 122.113 155.623 122.563 155.91 122.89C156.197 123.217 156.597 123.38 157.11 123.38C157.323 123.38 157.547 123.337 157.78 123.25C158.013 123.157 158.227 123.023 158.42 122.85L158.71 123.47C158.517 123.663 158.27 123.817 157.97 123.93C157.67 124.037 157.363 124.09 157.05 124.09ZM161.806 124.09C161.306 124.09 160.872 123.983 160.506 123.77C160.146 123.557 159.866 123.26 159.666 122.88C159.472 122.493 159.376 122.043 159.376 121.53C159.376 121.01 159.472 120.563 159.666 120.19C159.866 119.81 160.149 119.52 160.516 119.32C160.882 119.113 161.312 119.01 161.806 119.01C162.126 119.01 162.436 119.067 162.736 119.18C163.036 119.287 163.282 119.437 163.476 119.63L163.186 120.26C162.992 120.08 162.779 119.947 162.546 119.86C162.312 119.767 162.086 119.72 161.866 119.72C161.352 119.72 160.952 119.877 160.666 120.19C160.379 120.503 160.236 120.953 160.236 121.54C160.236 122.113 160.379 122.563 160.666 122.89C160.952 123.217 161.352 123.38 161.866 123.38C162.079 123.38 162.302 123.337 162.536 123.25C162.769 123.157 162.982 123.023 163.176 122.85L163.466 123.47C163.272 123.663 163.026 123.817 162.726 123.93C162.426 124.037 162.119 124.09 161.806 124.09ZM166.309 124.09C165.909 124.09 165.573 124.017 165.299 123.87C165.033 123.723 164.833 123.507 164.699 123.22C164.566 122.927 164.499 122.567 164.499 122.14V119.1H165.349V122.11C165.349 122.383 165.386 122.617 165.459 122.81C165.539 122.997 165.663 123.14 165.829 123.24C165.996 123.333 166.213 123.38 166.479 123.38C166.759 123.38 167.006 123.313 167.219 123.18C167.439 123.047 167.609 122.867 167.729 122.64C167.856 122.413 167.919 122.157 167.919 121.87V119.1H168.769V124H167.969V122.9H168.029C167.883 123.28 167.659 123.573 167.359 123.78C167.066 123.987 166.716 124.09 166.309 124.09ZM170.418 124V119.1H171.218V120.24H171.178C171.291 119.86 171.491 119.57 171.778 119.37C172.071 119.163 172.441 119.043 172.888 119.01L173.258 118.98L173.338 119.74L172.718 119.8C172.258 119.84 171.901 119.99 171.648 120.25C171.401 120.503 171.278 120.837 171.278 121.25V124H170.418ZM175.836 124.09C175.496 124.09 175.189 124.027 174.916 123.9C174.649 123.767 174.436 123.587 174.276 123.36C174.122 123.133 174.046 122.88 174.046 122.6C174.046 122.233 174.142 121.943 174.336 121.73C174.536 121.517 174.852 121.367 175.286 121.28C175.719 121.187 176.292 121.14 177.006 121.14H177.586V121.71H177.036C176.636 121.71 176.299 121.723 176.026 121.75C175.752 121.777 175.532 121.823 175.366 121.89C175.199 121.95 175.079 122.033 175.006 122.14C174.932 122.247 174.896 122.383 174.896 122.55C174.896 122.823 174.996 123.04 175.196 123.2C175.396 123.36 175.659 123.44 175.986 123.44C176.266 123.44 176.512 123.377 176.726 123.25C176.946 123.117 177.119 122.94 177.246 122.72C177.379 122.5 177.446 122.253 177.446 121.98V120.84C177.446 120.44 177.349 120.15 177.156 119.97C176.962 119.783 176.662 119.69 176.256 119.69C175.969 119.69 175.682 119.733 175.396 119.82C175.116 119.9 174.826 120.033 174.526 120.22L174.246 119.6C174.432 119.473 174.639 119.367 174.866 119.28C175.099 119.193 175.339 119.127 175.586 119.08C175.832 119.033 176.072 119.01 176.306 119.01C176.732 119.01 177.089 119.077 177.376 119.21C177.669 119.343 177.892 119.55 178.046 119.83C178.199 120.11 178.276 120.47 178.276 120.91V124H177.506V122.89H177.546C177.472 123.123 177.356 123.33 177.196 123.51C177.042 123.69 176.849 123.833 176.616 123.94C176.389 124.04 176.129 124.09 175.836 124.09ZM182.04 124.09C181.54 124.09 181.107 123.983 180.74 123.77C180.38 123.557 180.1 123.26 179.9 122.88C179.707 122.493 179.61 122.043 179.61 121.53C179.61 121.01 179.707 120.563 179.9 120.19C180.1 119.81 180.383 119.52 180.75 119.32C181.117 119.113 181.547 119.01 182.04 119.01C182.36 119.01 182.67 119.067 182.97 119.18C183.27 119.287 183.517 119.437 183.71 119.63L183.42 120.26C183.227 120.08 183.013 119.947 182.78 119.86C182.547 119.767 182.32 119.72 182.1 119.72C181.587 119.72 181.187 119.877 180.9 120.19C180.613 120.503 180.47 120.953 180.47 121.54C180.47 122.113 180.613 122.563 180.9 122.89C181.187 123.217 181.587 123.38 182.1 123.38C182.313 123.38 182.537 123.337 182.77 123.25C183.003 123.157 183.217 123.023 183.41 122.85L183.7 123.47C183.507 123.663 183.26 123.817 182.96 123.93C182.66 124.037 182.353 124.09 182.04 124.09ZM185.383 125.8L186.303 123.72V124.21L184.123 119.1H185.043L186.713 123.27H186.563L188.243 119.1H189.133L186.273 125.8H185.383Z" fill="#757575"/>
<g id="Number">
<path d="M148.072 152.24C147.48 152.24 146.88 152.16 146.272 152C145.68 151.856 145.112 151.64 144.568 151.352C144.04 151.064 143.56 150.72 143.128 150.32L144.16 148.016C144.736 148.56 145.36 148.968 146.032 149.24C146.72 149.512 147.408 149.648 148.096 149.648C148.8 149.648 149.416 149.528 149.944 149.288C150.488 149.032 150.944 148.664 151.312 148.184C151.68 147.688 151.952 147.08 152.128 146.36C152.32 145.624 152.416 144.776 152.416 143.816V142.016H152.68C152.568 142.816 152.304 143.512 151.888 144.104C151.472 144.696 150.944 145.152 150.304 145.472C149.68 145.776 148.968 145.928 148.168 145.928C147.208 145.928 146.352 145.696 145.6 145.232C144.848 144.768 144.248 144.128 143.8 143.312C143.368 142.48 143.152 141.544 143.152 140.504C143.152 139.4 143.392 138.424 143.872 137.576C144.352 136.728 145.008 136.064 145.84 135.584C146.688 135.088 147.656 134.84 148.744 134.84C150.152 134.84 151.344 135.168 152.32 135.824C153.296 136.48 154.04 137.44 154.552 138.704C155.064 139.952 155.32 141.464 155.32 143.24C155.32 145.144 155.032 146.768 154.456 148.112C153.88 149.456 153.048 150.48 151.96 151.184C150.888 151.888 149.592 152.24 148.072 152.24ZM148.936 143.48C149.512 143.48 150.016 143.352 150.448 143.096C150.896 142.84 151.24 142.48 151.48 142.016C151.72 141.536 151.84 140.992 151.84 140.384C151.84 139.76 151.72 139.216 151.48 138.752C151.24 138.288 150.896 137.928 150.448 137.672C150.016 137.4 149.512 137.264 148.936 137.264C148.36 137.264 147.856 137.4 147.424 137.672C146.992 137.928 146.648 138.288 146.392 138.752C146.152 139.216 146.032 139.76 146.032 140.384C146.032 140.992 146.152 141.536 146.392 142.016C146.648 142.48 146.992 142.84 147.424 143.096C147.856 143.352 148.36 143.48 148.936 143.48ZM163.423 152.24C162.655 152.24 161.903 152.16 161.167 152C160.447 151.856 159.775 151.64 159.151 151.352C158.527 151.064 157.983 150.72 157.519 150.32L158.527 147.968C159.279 148.544 160.047 148.968 160.831 149.24C161.615 149.512 162.447 149.648 163.327 149.648C164.031 149.648 164.623 149.552 165.103 149.36C165.583 149.168 165.943 148.88 166.183 148.496C166.439 148.112 166.567 147.648 166.567 147.104C166.567 146.304 166.295 145.712 165.751 145.328C165.223 144.928 164.447 144.728 163.423 144.728H160.711V142.184H163.135C163.743 142.184 164.263 142.088 164.695 141.896C165.127 141.688 165.463 141.4 165.703 141.032C165.943 140.664 166.063 140.216 166.063 139.688C166.063 138.952 165.815 138.392 165.319 138.008C164.839 137.624 164.135 137.432 163.207 137.432C162.375 137.432 161.599 137.576 160.879 137.864C160.159 138.136 159.471 138.568 158.815 139.16L157.807 136.856C158.479 136.216 159.319 135.72 160.327 135.368C161.335 135.016 162.383 134.84 163.471 134.84C164.639 134.84 165.639 135.024 166.471 135.392C167.303 135.744 167.935 136.256 168.367 136.928C168.815 137.584 169.039 138.384 169.039 139.328C169.039 140.336 168.759 141.208 168.199 141.944C167.639 142.664 166.871 143.144 165.895 143.384V143.096C166.663 143.224 167.319 143.48 167.863 143.864C168.407 144.248 168.823 144.736 169.111 145.328C169.399 145.92 169.543 146.6 169.543 147.368C169.543 148.36 169.295 149.224 168.799 149.96C168.303 150.696 167.599 151.264 166.687 151.664C165.775 152.048 164.687 152.24 163.423 152.24ZM178.341 152.672L176.373 151.52L186.261 134.408L188.205 135.56L178.341 152.672ZM176.277 145.184C175.381 145.184 174.613 144.976 173.973 144.56C173.333 144.144 172.845 143.552 172.509 142.784C172.173 142 172.005 141.072 172.005 140C172.005 138.4 172.381 137.144 173.133 136.232C173.885 135.304 174.933 134.84 176.277 134.84C177.173 134.84 177.941 135.048 178.581 135.464C179.221 135.88 179.709 136.472 180.045 137.24C180.381 138.008 180.549 138.928 180.549 140C180.549 141.072 180.381 142 180.045 142.784C179.709 143.552 179.221 144.144 178.581 144.56C177.941 144.976 177.173 145.184 176.277 145.184ZM176.277 143.168C176.853 143.168 177.301 142.912 177.621 142.4C177.941 141.872 178.101 141.072 178.101 140C178.101 138.928 177.941 138.136 177.621 137.624C177.301 137.112 176.853 136.856 176.277 136.856C175.701 136.856 175.253 137.112 174.933 137.624C174.613 138.12 174.453 138.912 174.453 140C174.453 141.088 174.613 141.888 174.933 142.4C175.253 142.912 175.701 143.168 176.277 143.168ZM188.325 152.24C187.429 152.24 186.661 152.032 186.021 151.616C185.381 151.2 184.893 150.608 184.557 149.84C184.221 149.056 184.053 148.128 184.053 147.056C184.053 145.456 184.429 144.2 185.181 143.288C185.933 142.36 186.981 141.896 188.325 141.896C189.221 141.896 189.989 142.104 190.629 142.52C191.269 142.936 191.757 143.528 192.093 144.296C192.429 145.064 192.597 145.984 192.597 147.056C192.597 148.128 192.429 149.056 192.093 149.84C191.757 150.608 191.269 151.2 190.629 151.616C189.989 152.032 189.221 152.24 188.325 152.24ZM188.325 150.224C188.901 150.224 189.349 149.968 189.669 149.456C189.989 148.928 190.149 148.128 190.149 147.056C190.149 145.984 189.989 145.192 189.669 144.68C189.349 144.168 188.901 143.912 188.325 143.912C187.749 143.912 187.301 144.168 186.981 144.68C186.661 145.176 186.501 145.968 186.501 147.056C186.501 148.144 186.661 148.944 186.981 149.456C187.301 149.968 187.749 150.224 188.325 150.224Z" fill="#333333"/>
<path d="M148.072 152.24C147.48 152.24 146.88 152.16 146.272 152C145.68 151.856 145.112 151.64 144.568 151.352C144.04 151.064 143.56 150.72 143.128 150.32L144.16 148.016C144.736 148.56 145.36 148.968 146.032 149.24C146.72 149.512 147.408 149.648 148.096 149.648C148.8 149.648 149.416 149.528 149.944 149.288C150.488 149.032 150.944 148.664 151.312 148.184C151.68 147.688 151.952 147.08 152.128 146.36C152.32 145.624 152.416 144.776 152.416 143.816V142.016H152.68C152.568 142.816 152.304 143.512 151.888 144.104C151.472 144.696 150.944 145.152 150.304 145.472C149.68 145.776 148.968 145.928 148.168 145.928C147.208 145.928 146.352 145.696 145.6 145.232C144.848 144.768 144.248 144.128 143.8 143.312C143.368 142.48 143.152 141.544 143.152 140.504C143.152 139.4 143.392 138.424 143.872 137.576C144.352 136.728 145.008 136.064 145.84 135.584C146.688 135.088 147.656 134.84 148.744 134.84C150.152 134.84 151.344 135.168 152.32 135.824C153.296 136.48 154.04 137.44 154.552 138.704C155.064 139.952 155.32 141.464 155.32 143.24C155.32 145.144 155.032 146.768 154.456 148.112C153.88 149.456 153.048 150.48 151.96 151.184C150.888 151.888 149.592 152.24 148.072 152.24ZM148.936 143.48C149.512 143.48 150.016 143.352 150.448 143.096C150.896 142.84 151.24 142.48 151.48 142.016C151.72 141.536 151.84 140.992 151.84 140.384C151.84 139.76 151.72 139.216 151.48 138.752C151.24 138.288 150.896 137.928 150.448 137.672C150.016 137.4 149.512 137.264 148.936 137.264C148.36 137.264 147.856 137.4 147.424 137.672C146.992 137.928 146.648 138.288 146.392 138.752C146.152 139.216 146.032 139.76 146.032 140.384C146.032 140.992 146.152 141.536 146.392 142.016C146.648 142.48 146.992 142.84 147.424 143.096C147.856 143.352 148.36 143.48 148.936 143.48ZM163.423 152.24C162.655 152.24 161.903 152.16 161.167 152C160.447 151.856 159.775 151.64 159.151 151.352C158.527 151.064 157.983 150.72 157.519 150.32L158.527 147.968C159.279 148.544 160.047 148.968 160.831 149.24C161.615 149.512 162.447 149.648 163.327 149.648C164.031 149.648 164.623 149.552 165.103 149.36C165.583 149.168 165.943 148.88 166.183 148.496C166.439 148.112 166.567 147.648 166.567 147.104C166.567 146.304 166.295 145.712 165.751 145.328C165.223 144.928 164.447 144.728 163.423 144.728H160.711V142.184H163.135C163.743 142.184 164.263 142.088 164.695 141.896C165.127 141.688 165.463 141.4 165.703 141.032C165.943 140.664 166.063 140.216 166.063 139.688C166.063 138.952 165.815 138.392 165.319 138.008C164.839 137.624 164.135 137.432 163.207 137.432C162.375 137.432 161.599 137.576 160.879 137.864C160.159 138.136 159.471 138.568 158.815 139.16L157.807 136.856C158.479 136.216 159.319 135.72 160.327 135.368C161.335 135.016 162.383 134.84 163.471 134.84C164.639 134.84 165.639 135.024 166.471 135.392C167.303 135.744 167.935 136.256 168.367 136.928C168.815 137.584 169.039 138.384 169.039 139.328C169.039 140.336 168.759 141.208 168.199 141.944C167.639 142.664 166.871 143.144 165.895 143.384V143.096C166.663 143.224 167.319 143.48 167.863 143.864C168.407 144.248 168.823 144.736 169.111 145.328C169.399 145.92 169.543 146.6 169.543 147.368C169.543 148.36 169.295 149.224 168.799 149.96C168.303 150.696 167.599 151.264 166.687 151.664C165.775 152.048 164.687 152.24 163.423 152.24ZM178.341 152.672L176.373 151.52L186.261 134.408L188.205 135.56L178.341 152.672ZM176.277 145.184C175.381 145.184 174.613 144.976 173.973 144.56C173.333 144.144 172.845 143.552 172.509 142.784C172.173 142 172.005 141.072 172.005 140C172.005 138.4 172.381 137.144 173.133 136.232C173.885 135.304 174.933 134.84 176.277 134.84C177.173 134.84 177.941 135.048 178.581 135.464C179.221 135.88 179.709 136.472 180.045 137.24C180.381 138.008 180.549 138.928 180.549 140C180.549 141.072 180.381 142 180.045 142.784C179.709 143.552 179.221 144.144 178.581 144.56C177.941 144.976 177.173 145.184 176.277 145.184ZM176.277 143.168C176.853 143.168 177.301 142.912 177.621 142.4C177.941 141.872 178.101 141.072 178.101 140C178.101 138.928 177.941 138.136 177.621 137.624C177.301 137.112 176.853 136.856 176.277 136.856C175.701 136.856 175.253 137.112 174.933 137.624C174.613 138.12 174.453 138.912 174.453 140C174.453 141.088 174.613 141.888 174.933 142.4C175.253 142.912 175.701 143.168 176.277 143.168ZM188.325 152.24C187.429 152.24 186.661 152.032 186.021 151.616C185.381 151.2 184.893 150.608 184.557 149.84C184.221 149.056 184.053 148.128 184.053 147.056C184.053 145.456 184.429 144.2 185.181 143.288C185.933 142.36 186.981 141.896 188.325 141.896C189.221 141.896 189.989 142.104 190.629 142.52C191.269 142.936 191.757 143.528 192.093 144.296C192.429 145.064 192.597 145.984 192.597 147.056C192.597 148.128 192.429 149.056 192.093 149.84C191.757 150.608 191.269 151.2 190.629 151.616C189.989 152.032 189.221 152.24 188.325 152.24ZM188.325 150.224C188.901 150.224 189.349 149.968 189.669 149.456C189.989 148.928 190.149 148.128 190.149 147.056C190.149 145.984 189.989 145.192 189.669 144.68C189.349 144.168 188.901 143.912 188.325 143.912C187.749 143.912 187.301 144.168 186.981 144.68C186.661 145.176 186.501 145.968 186.501 147.056C186.501 148.144 186.661 148.944 186.981 149.456C187.301 149.968 187.749 150.224 188.325 150.224Z" fill="black" fill-opacity="0.2"/>
</g>
<path id="Category_2" d="M124.908 171.09C124.348 171.09 123.871 170.953 123.478 170.68C123.091 170.407 122.795 170.013 122.588 169.5C122.381 168.987 122.278 168.367 122.278 167.64C122.278 166.827 122.391 166.14 122.618 165.58C122.845 165.02 123.171 164.593 123.598 164.3C124.025 164.007 124.538 163.86 125.138 163.86C125.391 163.86 125.638 163.893 125.878 163.96C126.125 164.027 126.355 164.123 126.568 164.25C126.788 164.377 126.981 164.53 127.148 164.71L126.828 165.37C126.575 165.103 126.305 164.91 126.018 164.79C125.731 164.67 125.435 164.61 125.128 164.61C124.801 164.61 124.511 164.673 124.258 164.8C124.005 164.92 123.791 165.103 123.618 165.35C123.445 165.59 123.315 165.89 123.228 166.25C123.141 166.61 123.098 167.027 123.098 167.5V168.26H123.048C123.101 167.913 123.218 167.613 123.398 167.36C123.578 167.107 123.808 166.913 124.088 166.78C124.368 166.64 124.675 166.57 125.008 166.57C125.428 166.57 125.798 166.667 126.118 166.86C126.445 167.047 126.698 167.307 126.878 167.64C127.065 167.973 127.158 168.36 127.158 168.8C127.158 169.24 127.061 169.633 126.868 169.98C126.681 170.327 126.418 170.6 126.078 170.8C125.738 170.993 125.348 171.09 124.908 171.09ZM124.858 170.36C125.151 170.36 125.408 170.297 125.628 170.17C125.855 170.043 126.031 169.863 126.158 169.63C126.285 169.397 126.348 169.127 126.348 168.82C126.348 168.52 126.285 168.257 126.158 168.03C126.031 167.797 125.855 167.617 125.628 167.49C125.408 167.357 125.151 167.29 124.858 167.29C124.558 167.29 124.295 167.357 124.068 167.49C123.848 167.617 123.675 167.797 123.548 168.03C123.421 168.257 123.358 168.52 123.358 168.82C123.358 169.127 123.421 169.397 123.548 169.63C123.675 169.863 123.848 170.043 124.068 170.17C124.295 170.297 124.558 170.36 124.858 170.36ZM131.31 171V163.95H132.16L134.86 169.15H134.67L137.36 163.95H138.19V171H137.39V165.13H137.53L135.06 169.9H134.46L131.97 165.13H132.12V171H131.31ZM142.068 171.09C141.582 171.09 141.158 170.987 140.798 170.78C140.445 170.567 140.172 170.27 139.978 169.89C139.785 169.51 139.688 169.06 139.688 168.54C139.688 168.027 139.785 167.583 139.978 167.21C140.172 166.83 140.445 166.537 140.798 166.33C141.158 166.117 141.582 166.01 142.068 166.01C142.555 166.01 142.975 166.117 143.328 166.33C143.688 166.537 143.965 166.83 144.158 167.21C144.352 167.583 144.448 168.027 144.448 168.54C144.448 169.06 144.352 169.51 144.158 169.89C143.965 170.27 143.688 170.567 143.328 170.78C142.975 170.987 142.555 171.09 142.068 171.09ZM142.068 170.39C142.542 170.39 142.915 170.227 143.188 169.9C143.462 169.573 143.598 169.12 143.598 168.54C143.598 167.96 143.462 167.51 143.188 167.19C142.915 166.87 142.542 166.71 142.068 166.71C141.595 166.71 141.222 166.87 140.948 167.19C140.675 167.51 140.538 167.96 140.538 168.54C140.538 169.12 140.675 169.573 140.948 169.9C141.228 170.227 141.602 170.39 142.068 170.39ZM145.799 171V166.1H146.609V167.18H146.559C146.705 166.8 146.939 166.51 147.259 166.31C147.579 166.11 147.942 166.01 148.349 166.01C148.749 166.01 149.079 166.08 149.339 166.22C149.605 166.36 149.805 166.577 149.939 166.87C150.072 167.157 150.139 167.52 150.139 167.96V171H149.289V168.01C149.289 167.73 149.249 167.493 149.169 167.3C149.095 167.107 148.975 166.963 148.809 166.87C148.642 166.77 148.425 166.72 148.159 166.72C147.859 166.72 147.595 166.787 147.369 166.92C147.142 167.047 146.965 167.223 146.839 167.45C146.712 167.677 146.649 167.937 146.649 168.23V171H145.799ZM153.776 171.09C153.189 171.09 152.749 170.937 152.456 170.63C152.162 170.317 152.016 169.873 152.016 169.3V166.78H151.036V166.1H152.036V164.62H152.866V166.1H154.526V166.78H152.866V169.22C152.866 169.6 152.946 169.887 153.106 170.08C153.272 170.267 153.536 170.36 153.896 170.36C154.016 170.36 154.136 170.347 154.256 170.32C154.376 170.293 154.486 170.26 154.586 170.22L154.736 170.88C154.622 170.94 154.476 170.99 154.296 171.03C154.122 171.07 153.949 171.09 153.776 171.09ZM155.593 171V163.95H156.433V167.16H156.363C156.51 166.793 156.74 166.51 157.053 166.31C157.373 166.11 157.737 166.01 158.143 166.01C158.543 166.01 158.873 166.083 159.133 166.23C159.4 166.37 159.6 166.587 159.733 166.88C159.867 167.167 159.933 167.527 159.933 167.96V171H159.083V168.01C159.083 167.73 159.043 167.493 158.963 167.3C158.89 167.107 158.77 166.963 158.603 166.87C158.437 166.77 158.22 166.72 157.953 166.72C157.653 166.72 157.39 166.787 157.163 166.92C156.937 167.047 156.76 167.223 156.633 167.45C156.507 167.677 156.443 167.937 156.443 168.23V171H155.593ZM166.342 171L169.442 163.95H170.192L173.292 171H172.402L171.542 168.99L171.962 169.24H167.662L168.082 168.99L167.222 171H166.342ZM169.802 164.94L168.202 168.7L167.962 168.51H171.662L171.422 168.7L169.832 164.94H169.802ZM175.873 171.09C175.386 171.09 175.013 170.947 174.753 170.66C174.499 170.373 174.373 169.967 174.373 169.44V163.95H175.223V169.37C175.223 169.583 175.253 169.767 175.313 169.92C175.379 170.073 175.473 170.187 175.593 170.26C175.713 170.333 175.859 170.37 176.033 170.37C176.119 170.37 176.203 170.367 176.283 170.36C176.369 170.353 176.456 170.337 176.543 170.31L176.533 171C176.426 171.027 176.319 171.047 176.213 171.06C176.106 171.08 175.993 171.09 175.873 171.09ZM178.959 171.09C178.472 171.09 178.099 170.947 177.839 170.66C177.585 170.373 177.459 169.967 177.459 169.44V163.95H178.309V169.37C178.309 169.583 178.339 169.767 178.399 169.92C178.465 170.073 178.559 170.187 178.679 170.26C178.799 170.333 178.945 170.37 179.119 170.37C179.205 170.37 179.289 170.367 179.369 170.36C179.455 170.353 179.542 170.337 179.629 170.31L179.619 171C179.512 171.027 179.405 171.047 179.299 171.06C179.192 171.08 179.079 171.09 178.959 171.09ZM182.586 171.09C182.099 171.09 181.676 170.987 181.316 170.78C180.962 170.567 180.689 170.27 180.496 169.89C180.302 169.51 180.206 169.06 180.206 168.54C180.206 168.027 180.302 167.583 180.496 167.21C180.689 166.83 180.962 166.537 181.316 166.33C181.676 166.117 182.099 166.01 182.586 166.01C183.072 166.01 183.492 166.117 183.846 166.33C184.206 166.537 184.482 166.83 184.676 167.21C184.869 167.583 184.966 168.027 184.966 168.54C184.966 169.06 184.869 169.51 184.676 169.89C184.482 170.27 184.206 170.567 183.846 170.78C183.492 170.987 183.072 171.09 182.586 171.09ZM182.586 170.39C183.059 170.39 183.432 170.227 183.706 169.9C183.979 169.573 184.116 169.12 184.116 168.54C184.116 167.96 183.979 167.51 183.706 167.19C183.432 166.87 183.059 166.71 182.586 166.71C182.112 166.71 181.739 166.87 181.466 167.19C181.192 167.51 181.056 167.96 181.056 168.54C181.056 169.12 181.192 169.573 181.466 169.9C181.746 170.227 182.119 170.39 182.586 170.39ZM188.456 171.09C187.956 171.09 187.523 170.983 187.156 170.77C186.796 170.557 186.516 170.26 186.316 169.88C186.123 169.493 186.026 169.043 186.026 168.53C186.026 168.01 186.123 167.563 186.316 167.19C186.516 166.81 186.799 166.52 187.166 166.32C187.533 166.113 187.963 166.01 188.456 166.01C188.776 166.01 189.086 166.067 189.386 166.18C189.686 166.287 189.933 166.437 190.126 166.63L189.836 167.26C189.643 167.08 189.429 166.947 189.196 166.86C188.963 166.767 188.736 166.72 188.516 166.72C188.003 166.72 187.603 166.877 187.316 167.19C187.029 167.503 186.886 167.953 186.886 168.54C186.886 169.113 187.029 169.563 187.316 169.89C187.603 170.217 188.003 170.38 188.516 170.38C188.729 170.38 188.953 170.337 189.186 170.25C189.419 170.157 189.633 170.023 189.826 169.85L190.116 170.47C189.923 170.663 189.676 170.817 189.376 170.93C189.076 171.037 188.769 171.09 188.456 171.09ZM192.721 171.09C192.381 171.09 192.074 171.027 191.801 170.9C191.534 170.767 191.321 170.587 191.161 170.36C191.007 170.133 190.931 169.88 190.931 169.6C190.931 169.233 191.027 168.943 191.221 168.73C191.421 168.517 191.737 168.367 192.171 168.28C192.604 168.187 193.177 168.14 193.891 168.14H194.471V168.71H193.921C193.521 168.71 193.184 168.723 192.911 168.75C192.637 168.777 192.417 168.823 192.251 168.89C192.084 168.95 191.964 169.033 191.891 169.14C191.817 169.247 191.781 169.383 191.781 169.55C191.781 169.823 191.881 170.04 192.081 170.2C192.281 170.36 192.544 170.44 192.871 170.44C193.151 170.44 193.397 170.377 193.611 170.25C193.831 170.117 194.004 169.94 194.131 169.72C194.264 169.5 194.331 169.253 194.331 168.98V167.84C194.331 167.44 194.234 167.15 194.041 166.97C193.847 166.783 193.547 166.69 193.141 166.69C192.854 166.69 192.567 166.733 192.281 166.82C192.001 166.9 191.711 167.033 191.411 167.22L191.131 166.6C191.317 166.473 191.524 166.367 191.751 166.28C191.984 166.193 192.224 166.127 192.471 166.08C192.717 166.033 192.957 166.01 193.191 166.01C193.617 166.01 193.974 166.077 194.261 166.21C194.554 166.343 194.777 166.55 194.931 166.83C195.084 167.11 195.161 167.47 195.161 167.91V171H194.391V169.89H194.431C194.357 170.123 194.241 170.33 194.081 170.51C193.927 170.69 193.734 170.833 193.501 170.94C193.274 171.04 193.014 171.09 192.721 171.09ZM198.805 171.09C198.218 171.09 197.778 170.937 197.485 170.63C197.192 170.317 197.045 169.873 197.045 169.3V166.78H196.065V166.1H197.065V164.62H197.895V166.1H199.555V166.78H197.895V169.22C197.895 169.6 197.975 169.887 198.135 170.08C198.302 170.267 198.565 170.36 198.925 170.36C199.045 170.36 199.165 170.347 199.285 170.32C199.405 170.293 199.515 170.26 199.615 170.22L199.765 170.88C199.652 170.94 199.505 170.99 199.325 171.03C199.152 171.07 198.978 171.09 198.805 171.09ZM200.523 164.9V163.95H201.563V164.9H200.523ZM200.623 171V166.1H201.473V171H200.623ZM205.213 171.09C204.726 171.09 204.303 170.987 203.943 170.78C203.589 170.567 203.316 170.27 203.123 169.89C202.929 169.51 202.833 169.06 202.833 168.54C202.833 168.027 202.929 167.583 203.123 167.21C203.316 166.83 203.589 166.537 203.943 166.33C204.303 166.117 204.726 166.01 205.213 166.01C205.699 166.01 206.119 166.117 206.473 166.33C206.833 166.537 207.109 166.83 207.303 167.21C207.496 167.583 207.593 168.027 207.593 168.54C207.593 169.06 207.496 169.51 207.303 169.89C207.109 170.27 206.833 170.567 206.473 170.78C206.119 170.987 205.699 171.09 205.213 171.09ZM205.213 170.39C205.686 170.39 206.059 170.227 206.333 169.9C206.606 169.573 206.743 169.12 206.743 168.54C206.743 167.96 206.606 167.51 206.333 167.19C206.059 166.87 205.686 166.71 205.213 166.71C204.739 166.71 204.366 166.87 204.093 167.19C203.819 167.51 203.683 167.96 203.683 168.54C203.683 169.12 203.819 169.573 204.093 169.9C204.373 170.227 204.746 170.39 205.213 170.39ZM208.943 171V166.1H209.753V167.18H209.703C209.85 166.8 210.083 166.51 210.403 166.31C210.723 166.11 211.086 166.01 211.493 166.01C211.893 166.01 212.223 166.08 212.483 166.22C212.75 166.36 212.95 166.577 213.083 166.87C213.216 167.157 213.283 167.52 213.283 167.96V171H212.433V168.01C212.433 167.73 212.393 167.493 212.313 167.3C212.24 167.107 212.12 166.963 211.953 166.87C211.786 166.77 211.57 166.72 211.303 166.72C211.003 166.72 210.74 166.787 210.513 166.92C210.286 167.047 210.11 167.223 209.983 167.45C209.856 167.677 209.793 167.937 209.793 168.23V171H208.943Z" fill="#757575"/>
</g>
<path id="Ellipse 1" d="M74.668 172C70.2497 172 66.6353 168.412 66.9815 164.008C68.5574 143.952 76.0376 124.744 88.5656 108.852C102.75 90.8599 122.578 78.1668 144.857 72.8183C167.135 67.4698 190.565 69.7774 211.371 79.3694C229.749 87.8414 245.134 101.56 255.643 118.714C257.951 122.482 256.359 127.319 252.423 129.325L244.813 133.202C240.876 135.208 236.093 133.615 233.692 129.906C225.751 117.639 214.466 107.819 201.097 101.656C185.296 94.3715 167.504 92.619 150.585 96.6807C133.667 100.742 118.609 110.382 107.838 124.045C98.7237 135.606 93.1276 149.479 91.6211 164.014C91.1657 168.409 87.6267 172 83.2085 172H74.668Z" fill="url(#paint0_linear_7779_14675)"/>
<path id="Ellipse 2" d="M262.668 172C267.086 172 270.701 168.413 270.354 164.008C269.7 155.685 268.026 147.473 265.371 139.557C263.966 135.368 259.236 133.482 255.17 135.211L247.311 138.553C243.245 140.283 241.393 144.972 242.694 149.195C244.182 154.024 245.194 158.988 245.715 164.014C246.17 168.409 249.709 172 254.127 172H262.668Z" fill="#E1E1E1"/>
</g>
</g>
<defs>
<linearGradient id="paint0_linear_7779_14675" x1="168.668" y1="70" x2="168.668" y2="274" gradientUnits="userSpaceOnUse">
<stop stop-color="#FFF9DD"/>
<stop offset="0.548077" stop-color="#FCD468"/>
<stop offset="1" stop-color="#FBC942"/>
</linearGradient>
</defs>
</svg>
