<svg width="338" height="244" viewBox="0 0 338 244" fill="none" xmlns="http://www.w3.org/2000/svg">
<g id="Logo">
<g clip-path="url(#clip0_7779_14658)">
<rect width="337.333" height="244" rx="12" fill="#F5F5F6"/>
<g id="Chart Column">
<g id="Lines">
<g id="Row">
<path id="Vector 6" d="M36 48.5H97" stroke="#E1E1E4" stroke-linecap="round" stroke-linejoin="round" stroke-dasharray="2 4"/>
</g>
<g id="Row_2">
<path id="Vector 6_2" d="M36 196.5H97" stroke="#E1E1E4" stroke-linecap="round" stroke-linejoin="round" stroke-dasharray="2 4"/>
</g>
<g id="Div Bar">
<g id="Bar 1">
<path d="M36 72H97V197H36V72Z" fill="url(#paint0_linear_7779_14658)"/>
<path d="M36 72V73H97V72V71H36V72Z" fill="black"/>
</g>
</g>
</g>
</g>
<g id="Chart Column_2">
<g id="Lines_2">
<g id="Row_3">
<path id="Vector 6_3" d="M142 48.5H203" stroke="#E1E1E4" stroke-linecap="round" stroke-linejoin="round" stroke-dasharray="2 4"/>
</g>
<g id="Row_4">
<path id="Vector 6_4" d="M142 196.5H203" stroke="#E1E1E4" stroke-linecap="round" stroke-linejoin="round" stroke-dasharray="2 4"/>
</g>
<g id="Div Bar_2">
<g id="Bar 1_2">
<path d="M142 110H203V197H142V110Z" fill="url(#paint1_linear_7779_14658)"/>
<path d="M142 110V111H203V110V109H142V110Z" fill="#BD8125"/>
</g>
<g id="Dot">
<circle id="Dot_2" cx="173" cy="109" r="4.5" fill="black" stroke="white"/>
</g>
</g>
</g>
</g>
<g id="Chart Column_3">
<g id="Lines_3">
<g id="Row_5">
<path id="Vector 6_5" d="M203 48.5H248" stroke="#E1E1E4" stroke-linecap="round" stroke-linejoin="round" stroke-dasharray="2 4"/>
</g>
<g id="Row_6">
<path id="Vector 6_6" d="M203 85.5H248" stroke="#E1E1E4" stroke-linecap="round" stroke-linejoin="round" stroke-dasharray="2 4"/>
</g>
<g id="Row_7">
<path id="Vector 6_7" d="M203 122.5H248" stroke="#E1E1E4" stroke-linecap="round" stroke-linejoin="round" stroke-dasharray="2 4"/>
</g>
<g id="Row_8">
<path id="Vector 6_8" d="M203 159.5H248" stroke="#E1E1E4" stroke-linecap="round" stroke-linejoin="round" stroke-dasharray="2 4"/>
</g>
<g id="Row_9">
<path id="Vector 6_9" d="M203 196.5H248" stroke="#E1E1E4" stroke-linecap="round" stroke-linejoin="round" stroke-dasharray="2 4"/>
</g>
</g>
</g>
<g id="Chart Column_4">
<g id="Lines_4">
<g id="Row_10">
<path id="Vector 6_10" d="M97 48.5H142" stroke="#E1E1E4" stroke-linecap="round" stroke-linejoin="round" stroke-dasharray="2 4"/>
</g>
<g id="Row_11">
<path id="Vector 6_11" d="M97 85.5H142" stroke="#E1E1E4" stroke-linecap="round" stroke-linejoin="round" stroke-dasharray="2 4"/>
</g>
<g id="Row_12">
<path id="Vector 6_12" d="M97 122.5H142" stroke="#E1E1E4" stroke-linecap="round" stroke-linejoin="round" stroke-dasharray="2 4"/>
</g>
<g id="Row_13">
<path id="Vector 6_13" d="M97 159.5H142" stroke="#E1E1E4" stroke-linecap="round" stroke-linejoin="round" stroke-dasharray="2 4"/>
</g>
<g id="Row_14">
<path id="Vector 6_14" d="M97 196.5H142" stroke="#E1E1E4" stroke-linecap="round" stroke-linejoin="round" stroke-dasharray="2 4"/>
</g>
</g>
</g>
<g id="Chart Column_5">
<g id="Lines_5">
<g id="Row_15">
<path id="Vector 6_15" d="M-9 48.5H36" stroke="#E1E1E4" stroke-linecap="round" stroke-linejoin="round" stroke-dasharray="2 4"/>
</g>
<g id="Row_16">
<path id="Vector 6_16" d="M-9 85.5H36" stroke="#E1E1E4" stroke-linecap="round" stroke-linejoin="round" stroke-dasharray="2 4"/>
</g>
<g id="Row_17">
<path id="Vector 6_17" d="M-9 122.5H36" stroke="#E1E1E4" stroke-linecap="round" stroke-linejoin="round" stroke-dasharray="2 4"/>
</g>
<g id="Row_18">
<path id="Vector 6_18" d="M-9 159.5H36" stroke="#E1E1E4" stroke-linecap="round" stroke-linejoin="round" stroke-dasharray="2 4"/>
</g>
<g id="Row_19">
<path id="Vector 6_19" d="M-9 196.5H36" stroke="#E1E1E4" stroke-linecap="round" stroke-linejoin="round" stroke-dasharray="2 4"/>
</g>
</g>
</g>
<path id="X-label" d="M24.95 215L22.59 207.95H23.48L25.49 214.11H25.27L27.4 207.95H28.09L30.2 214.12H30.01L32.03 207.95H32.89L30.52 215H29.73L27.68 209.04H27.8L25.72 215H24.95ZM33.9846 208.9V207.95H35.0246V208.9H33.9846ZM34.0846 215V210.1H34.9346V215H34.0846ZM38.6046 215.09C38.018 215.09 37.578 214.937 37.2846 214.63C36.9913 214.317 36.8446 213.873 36.8446 213.3V210.78H35.8646V210.1H36.8646V208.62H37.6946V210.1H39.3546V210.78H37.6946V213.22C37.6946 213.6 37.7746 213.887 37.9346 214.08C38.1013 214.267 38.3646 214.36 38.7246 214.36C38.8446 214.36 38.9646 214.347 39.0846 214.32C39.2046 214.293 39.3146 214.26 39.4146 214.22L39.5646 214.88C39.4513 214.94 39.3046 214.99 39.1246 215.03C38.9513 215.07 38.778 215.09 38.6046 215.09ZM40.4225 215V207.95H41.2625V211.16H41.1925C41.3392 210.793 41.5692 210.51 41.8825 210.31C42.2025 210.11 42.5659 210.01 42.9725 210.01C43.3725 210.01 43.7025 210.083 43.9625 210.23C44.2292 210.37 44.4292 210.587 44.5625 210.88C44.6959 211.167 44.7625 211.527 44.7625 211.96V215H43.9125V212.01C43.9125 211.73 43.8725 211.493 43.7925 211.3C43.7192 211.107 43.5992 210.963 43.4325 210.87C43.2659 210.77 43.0492 210.72 42.7825 210.72C42.4825 210.72 42.2192 210.787 41.9925 210.92C41.7659 211.047 41.5892 211.223 41.4625 211.45C41.3359 211.677 41.2725 211.937 41.2725 212.23V215H40.4225ZM48.4696 215.09C47.9829 215.09 47.5596 214.987 47.1996 214.78C46.8462 214.567 46.5729 214.27 46.3796 213.89C46.1862 213.51 46.0896 213.06 46.0896 212.54C46.0896 212.027 46.1862 211.583 46.3796 211.21C46.5729 210.83 46.8462 210.537 47.1996 210.33C47.5596 210.117 47.9829 210.01 48.4696 210.01C48.9562 210.01 49.3762 210.117 49.7296 210.33C50.0896 210.537 50.3662 210.83 50.5596 211.21C50.7529 211.583 50.8496 212.027 50.8496 212.54C50.8496 213.06 50.7529 213.51 50.5596 213.89C50.3662 214.27 50.0896 214.567 49.7296 214.78C49.3762 214.987 48.9562 215.09 48.4696 215.09ZM48.4696 214.39C48.9429 214.39 49.3162 214.227 49.5896 213.9C49.8629 213.573 49.9996 213.12 49.9996 212.54C49.9996 211.96 49.8629 211.51 49.5896 211.19C49.3162 210.87 48.9429 210.71 48.4696 210.71C47.9962 210.71 47.6229 210.87 47.3496 211.19C47.0762 211.51 46.9396 211.96 46.9396 212.54C46.9396 213.12 47.0762 213.573 47.3496 213.9C47.6296 214.227 48.0029 214.39 48.4696 214.39ZM53.9899 215.09C53.5899 215.09 53.2532 215.017 52.9799 214.87C52.7132 214.723 52.5132 214.507 52.3799 214.22C52.2465 213.927 52.1799 213.567 52.1799 213.14V210.1H53.0299V213.11C53.0299 213.383 53.0665 213.617 53.1399 213.81C53.2199 213.997 53.3432 214.14 53.5099 214.24C53.6765 214.333 53.8932 214.38 54.1599 214.38C54.4399 214.38 54.6865 214.313 54.8999 214.18C55.1199 214.047 55.2899 213.867 55.4099 213.64C55.5365 213.413 55.5999 213.157 55.5999 212.87V210.1H56.4499V215H55.6499V213.9H55.7099C55.5632 214.28 55.3399 214.573 55.0399 214.78C54.7465 214.987 54.3965 215.09 53.9899 215.09ZM60.1183 215.09C59.5317 215.09 59.0917 214.937 58.7983 214.63C58.505 214.317 58.3583 213.873 58.3583 213.3V210.78H57.3783V210.1H58.3783V208.62H59.2083V210.1H60.8683V210.78H59.2083V213.22C59.2083 213.6 59.2883 213.887 59.4483 214.08C59.615 214.267 59.8783 214.36 60.2383 214.36C60.3583 214.36 60.4783 214.347 60.5983 214.32C60.7183 214.293 60.8283 214.26 60.9283 214.22L61.0783 214.88C60.965 214.94 60.8183 214.99 60.6383 215.03C60.465 215.07 60.2917 215.09 60.1183 215.09ZM64.052 215L67.152 207.95H67.902L71.002 215H70.112L69.252 212.99L69.672 213.24H65.372L65.792 212.99L64.932 215H64.052ZM67.512 208.94L65.912 212.7L65.672 212.51H69.372L69.132 212.7L67.542 208.94H67.512ZM73.5827 215.09C73.096 215.09 72.7227 214.947 72.4627 214.66C72.2094 214.373 72.0827 213.967 72.0827 213.44V207.95H72.9327V213.37C72.9327 213.583 72.9627 213.767 73.0227 213.92C73.0894 214.073 73.1827 214.187 73.3027 214.26C73.4227 214.333 73.5694 214.37 73.7427 214.37C73.8294 214.37 73.9127 214.367 73.9927 214.36C74.0794 214.353 74.166 214.337 74.2527 214.31L74.2427 215C74.136 215.027 74.0294 215.047 73.9227 215.06C73.816 215.08 73.7027 215.09 73.5827 215.09ZM76.6686 215.09C76.182 215.09 75.8086 214.947 75.5486 214.66C75.2953 214.373 75.1686 213.967 75.1686 213.44V207.95H76.0186V213.37C76.0186 213.583 76.0486 213.767 76.1086 213.92C76.1753 214.073 76.2686 214.187 76.3886 214.26C76.5086 214.333 76.6553 214.37 76.8286 214.37C76.9153 214.37 76.9986 214.367 77.0786 214.36C77.1653 214.353 77.252 214.337 77.3386 214.31L77.3286 215C77.222 215.027 77.1153 215.047 77.0086 215.06C76.902 215.08 76.7886 215.09 76.6686 215.09ZM80.2957 215.09C79.8091 215.09 79.3857 214.987 79.0257 214.78C78.6724 214.567 78.3991 214.27 78.2057 213.89C78.0124 213.51 77.9157 213.06 77.9157 212.54C77.9157 212.027 78.0124 211.583 78.2057 211.21C78.3991 210.83 78.6724 210.537 79.0257 210.33C79.3857 210.117 79.8091 210.01 80.2957 210.01C80.7824 210.01 81.2024 210.117 81.5557 210.33C81.9157 210.537 82.1924 210.83 82.3857 211.21C82.5791 211.583 82.6757 212.027 82.6757 212.54C82.6757 213.06 82.5791 213.51 82.3857 213.89C82.1924 214.27 81.9157 214.567 81.5557 214.78C81.2024 214.987 80.7824 215.09 80.2957 215.09ZM80.2957 214.39C80.7691 214.39 81.1424 214.227 81.4157 213.9C81.6891 213.573 81.8257 213.12 81.8257 212.54C81.8257 211.96 81.6891 211.51 81.4157 211.19C81.1424 210.87 80.7691 210.71 80.2957 210.71C79.8224 210.71 79.4491 210.87 79.1757 211.19C78.9024 211.51 78.7657 211.96 78.7657 212.54C78.7657 213.12 78.9024 213.573 79.1757 213.9C79.4557 214.227 79.8291 214.39 80.2957 214.39ZM86.1661 215.09C85.6661 215.09 85.2327 214.983 84.8661 214.77C84.5061 214.557 84.2261 214.26 84.0261 213.88C83.8327 213.493 83.7361 213.043 83.7361 212.53C83.7361 212.01 83.8327 211.563 84.0261 211.19C84.2261 210.81 84.5094 210.52 84.8761 210.32C85.2427 210.113 85.6727 210.01 86.1661 210.01C86.4861 210.01 86.7961 210.067 87.0961 210.18C87.3961 210.287 87.6427 210.437 87.8361 210.63L87.5461 211.26C87.3527 211.08 87.1394 210.947 86.9061 210.86C86.6727 210.767 86.4461 210.72 86.2261 210.72C85.7127 210.72 85.3127 210.877 85.0261 211.19C84.7394 211.503 84.5961 211.953 84.5961 212.54C84.5961 213.113 84.7394 213.563 85.0261 213.89C85.3127 214.217 85.7127 214.38 86.2261 214.38C86.4394 214.38 86.6627 214.337 86.8961 214.25C87.1294 214.157 87.3427 214.023 87.5361 213.85L87.8261 214.47C87.6327 214.663 87.3861 214.817 87.0861 214.93C86.7861 215.037 86.4794 215.09 86.1661 215.09ZM90.4305 215.09C90.0905 215.09 89.7838 215.027 89.5105 214.9C89.2438 214.767 89.0305 214.587 88.8705 214.36C88.7172 214.133 88.6405 213.88 88.6405 213.6C88.6405 213.233 88.7372 212.943 88.9305 212.73C89.1305 212.517 89.4472 212.367 89.8805 212.28C90.3138 212.187 90.8872 212.14 91.6005 212.14H92.1805V212.71H91.6305C91.2305 212.71 90.8938 212.723 90.6205 212.75C90.3472 212.777 90.1272 212.823 89.9605 212.89C89.7938 212.95 89.6738 213.033 89.6005 213.14C89.5272 213.247 89.4905 213.383 89.4905 213.55C89.4905 213.823 89.5905 214.04 89.7905 214.2C89.9905 214.36 90.2538 214.44 90.5805 214.44C90.8605 214.44 91.1072 214.377 91.3205 214.25C91.5405 214.117 91.7138 213.94 91.8405 213.72C91.9738 213.5 92.0405 213.253 92.0405 212.98V211.84C92.0405 211.44 91.9438 211.15 91.7505 210.97C91.5572 210.783 91.2572 210.69 90.8505 210.69C90.5638 210.69 90.2772 210.733 89.9905 210.82C89.7105 210.9 89.4205 211.033 89.1205 211.22L88.8405 210.6C89.0272 210.473 89.2338 210.367 89.4605 210.28C89.6938 210.193 89.9338 210.127 90.1805 210.08C90.4272 210.033 90.6672 210.01 90.9005 210.01C91.3272 210.01 91.6838 210.077 91.9705 210.21C92.2638 210.343 92.4872 210.55 92.6405 210.83C92.7938 211.11 92.8705 211.47 92.8705 211.91V215H92.1005V213.89H92.1405C92.0672 214.123 91.9505 214.33 91.7905 214.51C91.6372 214.69 91.4438 214.833 91.2105 214.94C90.9838 215.04 90.7238 215.09 90.4305 215.09ZM96.5148 215.09C95.9281 215.09 95.4881 214.937 95.1948 214.63C94.9015 214.317 94.7548 213.873 94.7548 213.3V210.78H93.7748V210.1H94.7748V208.62H95.6048V210.1H97.2648V210.78H95.6048V213.22C95.6048 213.6 95.6848 213.887 95.8448 214.08C96.0115 214.267 96.2748 214.36 96.6348 214.36C96.7548 214.36 96.8748 214.347 96.9948 214.32C97.1148 214.293 97.2248 214.26 97.3248 214.22L97.4748 214.88C97.3615 214.94 97.2148 214.99 97.0348 215.03C96.8615 215.07 96.6881 215.09 96.5148 215.09ZM98.2327 208.9V207.95H99.2727V208.9H98.2327ZM98.3327 215V210.1H99.1827V215H98.3327ZM102.923 215.09C102.436 215.09 102.013 214.987 101.653 214.78C101.299 214.567 101.026 214.27 100.833 213.89C100.639 213.51 100.543 213.06 100.543 212.54C100.543 212.027 100.639 211.583 100.833 211.21C101.026 210.83 101.299 210.537 101.653 210.33C102.013 210.117 102.436 210.01 102.923 210.01C103.409 210.01 103.829 210.117 104.183 210.33C104.543 210.537 104.819 210.83 105.013 211.21C105.206 211.583 105.303 212.027 105.303 212.54C105.303 213.06 105.206 213.51 105.013 213.89C104.819 214.27 104.543 214.567 104.183 214.78C103.829 214.987 103.409 215.09 102.923 215.09ZM102.923 214.39C103.396 214.39 103.769 214.227 104.043 213.9C104.316 213.573 104.453 213.12 104.453 212.54C104.453 211.96 104.316 211.51 104.043 211.19C103.769 210.87 103.396 210.71 102.923 210.71C102.449 210.71 102.076 210.87 101.803 211.19C101.529 211.51 101.393 211.96 101.393 212.54C101.393 213.12 101.529 213.573 101.803 213.9C102.083 214.227 102.456 214.39 102.923 214.39ZM106.653 215V210.1H107.463V211.18H107.413C107.56 210.8 107.793 210.51 108.113 210.31C108.433 210.11 108.796 210.01 109.203 210.01C109.603 210.01 109.933 210.08 110.193 210.22C110.46 210.36 110.66 210.577 110.793 210.87C110.926 211.157 110.993 211.52 110.993 211.96V215H110.143V212.01C110.143 211.73 110.103 211.493 110.023 211.3C109.95 211.107 109.83 210.963 109.663 210.87C109.496 210.77 109.28 210.72 109.013 210.72C108.713 210.72 108.45 210.787 108.223 210.92C107.996 211.047 107.82 211.223 107.693 211.45C107.566 211.677 107.503 211.937 107.503 212.23V215H106.653Z" fill="#737682"/>
<path id="X-label_2" d="M143.928 215L141.548 207.95H142.668L144.568 213.85H144.338L146.378 207.95H147.208L149.208 213.86H149.008L150.938 207.95H151.998L149.618 215H148.668L146.708 209.34H146.838L144.858 215H143.928ZM153.011 208.96V207.86H154.241V208.96H153.011ZM153.101 215V210.08H154.161V215H153.101ZM157.849 215.09C157.222 215.09 156.752 214.93 156.439 214.61C156.132 214.29 155.979 213.827 155.979 213.22V210.91H155.019V210.08H156.009V208.62H157.039V210.08H158.659V210.91H157.039V213.15C157.039 213.503 157.115 213.77 157.269 213.95C157.429 214.123 157.675 214.21 158.009 214.21C158.129 214.21 158.245 214.197 158.359 214.17C158.472 214.143 158.585 214.11 158.699 214.07L158.859 214.87C158.739 214.943 158.585 214.997 158.399 215.03C158.212 215.07 158.029 215.09 157.849 215.09ZM159.683 215V207.95H160.713V211.1H160.653C160.8 210.747 161.03 210.473 161.343 210.28C161.656 210.087 162.013 209.99 162.413 209.99C162.813 209.99 163.143 210.063 163.403 210.21C163.67 210.357 163.87 210.58 164.003 210.88C164.136 211.173 164.203 211.543 164.203 211.99V215H163.143V212.05C163.143 211.783 163.106 211.563 163.033 211.39C162.966 211.21 162.856 211.077 162.703 210.99C162.556 210.897 162.363 210.85 162.123 210.85C161.85 210.85 161.61 210.91 161.403 211.03C161.196 211.15 161.033 211.317 160.913 211.53C160.8 211.737 160.743 211.977 160.743 212.25V215H159.683ZM171.882 215.09C171.129 215.09 170.489 214.947 169.962 214.66C169.436 214.373 169.032 213.96 168.752 213.42C168.479 212.88 168.342 212.233 168.342 211.48C168.342 210.727 168.479 210.08 168.752 209.54C169.032 209 169.432 208.587 169.952 208.3C170.472 208.007 171.092 207.86 171.812 207.86C172.152 207.86 172.476 207.893 172.782 207.96C173.096 208.02 173.382 208.113 173.642 208.24C173.909 208.367 174.136 208.52 174.322 208.7L173.942 209.53C173.629 209.27 173.299 209.083 172.952 208.97C172.612 208.857 172.232 208.8 171.812 208.8C171.052 208.8 170.469 209.03 170.062 209.49C169.656 209.95 169.452 210.613 169.452 211.48C169.452 212.367 169.662 213.037 170.082 213.49C170.502 213.943 171.119 214.17 171.932 214.17C172.259 214.17 172.569 214.143 172.862 214.09C173.162 214.03 173.446 213.947 173.712 213.84L173.452 214.38V212.06H171.762V211.22H174.382V214.59C174.182 214.69 173.942 214.777 173.662 214.85C173.389 214.923 173.099 214.98 172.792 215.02C172.486 215.067 172.182 215.09 171.882 215.09ZM175.992 215V210.08H176.982V211.25H176.932C177.045 210.87 177.242 210.573 177.522 210.36C177.808 210.147 178.175 210.023 178.622 209.99L179.032 209.97L179.112 210.89L178.412 210.96C177.978 211 177.645 211.14 177.412 211.38C177.178 211.62 177.062 211.937 177.062 212.33V215H175.992ZM182.137 215.09C181.637 215.09 181.2 214.987 180.827 214.78C180.46 214.567 180.177 214.27 179.977 213.89C179.777 213.503 179.677 213.053 179.677 212.54C179.677 212.02 179.777 211.57 179.977 211.19C180.177 210.81 180.46 210.517 180.827 210.31C181.2 210.097 181.637 209.99 182.137 209.99C182.643 209.99 183.08 210.097 183.447 210.31C183.813 210.517 184.097 210.81 184.297 211.19C184.497 211.57 184.597 212.02 184.597 212.54C184.597 213.053 184.497 213.503 184.297 213.89C184.097 214.27 183.813 214.567 183.447 214.78C183.08 214.987 182.643 215.09 182.137 215.09ZM182.137 214.25C182.57 214.25 182.913 214.1 183.167 213.8C183.42 213.5 183.547 213.077 183.547 212.53C183.547 211.983 183.42 211.563 183.167 211.27C182.913 210.977 182.57 210.83 182.137 210.83C181.703 210.83 181.36 210.977 181.107 211.27C180.853 211.563 180.727 211.983 180.727 212.53C180.727 213.077 180.853 213.5 181.107 213.8C181.36 214.1 181.703 214.25 182.137 214.25ZM186.997 215L185.187 210.08H186.257L187.597 214H187.457L188.887 210.08H189.707L191.117 214H190.987L192.327 210.08H193.357L191.557 215H190.607L189.117 210.98H189.427L187.947 215H186.997ZM196.054 215L193.964 210.08H195.084L196.654 214.05H196.484L198.074 210.08H199.154L197.044 215H196.054ZM202.298 215.09C201.744 215.09 201.268 214.99 200.868 214.79C200.468 214.583 200.161 214.29 199.948 213.91C199.734 213.523 199.628 213.067 199.628 212.54C199.628 212.04 199.728 211.6 199.928 211.22C200.134 210.833 200.421 210.533 200.788 210.32C201.161 210.1 201.591 209.99 202.078 209.99C202.551 209.99 202.954 210.09 203.288 210.29C203.621 210.49 203.878 210.777 204.058 211.15C204.238 211.517 204.328 211.957 204.328 212.47V212.81H200.448V212.14H203.608L203.438 212.31C203.438 211.803 203.321 211.417 203.088 211.15C202.861 210.883 202.534 210.75 202.108 210.75C201.801 210.75 201.538 210.82 201.318 210.96C201.098 211.093 200.928 211.287 200.808 211.54C200.688 211.787 200.628 212.083 200.628 212.43V212.52C200.628 212.907 200.691 213.23 200.818 213.49C200.951 213.75 201.144 213.943 201.398 214.07C201.651 214.197 201.958 214.26 202.318 214.26C202.591 214.26 202.864 214.223 203.138 214.15C203.418 214.07 203.674 213.933 203.908 213.74L204.238 214.47C203.991 214.67 203.691 214.823 203.338 214.93C202.991 215.037 202.644 215.09 202.298 215.09Z" fill="#444050"/>
<path id="X-label_3" d="M167.766 94L166.296 91.78C166.196 91.62 166.093 91.4933 165.986 91.4C165.879 91.3 165.759 91.23 165.626 91.19C165.493 91.1433 165.329 91.12 165.136 91.12H163.716V90.34H165.706C166.053 90.34 166.339 90.2933 166.566 90.2C166.799 90.1067 166.979 89.9667 167.106 89.78C167.233 89.5867 167.299 89.35 167.306 89.07L167.456 89.27H163.716V88.56H167.456L167.286 88.74C167.239 88.3867 167.086 88.12 166.826 87.94C166.573 87.7533 166.219 87.66 165.766 87.66H163.716V86.95H169.296V87.66H167.436L167.546 87.5C167.773 87.6267 167.946 87.7933 168.066 88C168.193 88.2067 168.273 88.4467 168.306 88.72L168.096 88.56H169.296V89.27H168.126L168.326 89C168.333 89.4133 168.246 89.7733 168.066 90.08C167.893 90.38 167.643 90.6133 167.316 90.78C166.989 90.94 166.606 91.0233 166.166 91.03V90.98L166.336 90.99C166.503 91.0033 166.653 91.0367 166.786 91.09C166.919 91.1433 167.046 91.2267 167.166 91.34C167.293 91.4467 167.416 91.59 167.536 91.77L169.026 94H167.766ZM172.752 94.09C172.179 94.09 171.692 93.9533 171.292 93.68C170.892 93.4067 170.585 93.0133 170.372 92.5C170.165 91.98 170.062 91.3533 170.062 90.62C170.062 89.8133 170.179 89.1333 170.412 88.58C170.645 88.02 170.982 87.5933 171.422 87.3C171.862 87.0067 172.389 86.86 173.002 86.86C173.255 86.86 173.505 86.8933 173.752 86.96C173.999 87.02 174.229 87.11 174.442 87.23C174.662 87.35 174.859 87.5 175.032 87.68L174.662 88.48C174.415 88.2333 174.149 88.0533 173.862 87.94C173.582 87.8267 173.292 87.77 172.992 87.77C172.679 87.77 172.402 87.8267 172.162 87.94C171.922 88.0533 171.719 88.2233 171.552 88.45C171.392 88.67 171.269 88.9467 171.182 89.28C171.095 89.6133 171.052 90 171.052 90.44V91.13H171.002C171.062 90.7967 171.179 90.51 171.352 90.27C171.525 90.03 171.745 89.8467 172.012 89.72C172.285 89.5933 172.585 89.53 172.912 89.53C173.325 89.53 173.692 89.6267 174.012 89.82C174.332 90.0067 174.582 90.27 174.762 90.61C174.949 90.9433 175.042 91.33 175.042 91.77C175.042 92.2167 174.942 92.6167 174.742 92.97C174.549 93.3233 174.279 93.6 173.932 93.8C173.592 93.9933 173.199 94.09 172.752 94.09ZM172.692 93.22C172.959 93.22 173.195 93.1633 173.402 93.05C173.609 92.93 173.769 92.7633 173.882 92.55C173.995 92.3367 174.052 92.0867 174.052 91.8C174.052 91.52 173.995 91.2767 173.882 91.07C173.769 90.8567 173.609 90.6933 173.402 90.58C173.195 90.46 172.959 90.4 172.692 90.4C172.419 90.4 172.179 90.46 171.972 90.58C171.765 90.6933 171.602 90.8567 171.482 91.07C171.369 91.2833 171.312 91.5267 171.312 91.8C171.312 92.0867 171.369 92.3367 171.482 92.55C171.602 92.7633 171.765 92.93 171.972 93.05C172.179 93.1633 172.419 93.22 172.692 93.22ZM178.008 94.09C177.755 94.09 177.505 94.06 177.258 94C177.011 93.94 176.778 93.85 176.558 93.73C176.338 93.6033 176.141 93.4533 175.968 93.28L176.338 92.48C176.591 92.7267 176.858 92.9067 177.138 93.02C177.425 93.1267 177.718 93.18 178.018 93.18C178.331 93.18 178.605 93.1233 178.838 93.01C179.078 92.8967 179.281 92.73 179.448 92.51C179.615 92.2833 179.738 92.0033 179.818 91.67C179.905 91.33 179.948 90.9433 179.948 90.51V89.82H179.998C179.945 90.1467 179.828 90.43 179.648 90.67C179.475 90.91 179.255 91.0933 178.988 91.22C178.721 91.3467 178.421 91.41 178.088 91.41C177.681 91.41 177.318 91.3167 176.998 91.13C176.678 90.9367 176.425 90.6733 176.238 90.34C176.051 90 175.958 89.6133 175.958 89.18C175.958 88.7267 176.055 88.3267 176.248 87.98C176.448 87.6333 176.721 87.36 177.068 87.16C177.415 86.96 177.808 86.86 178.248 86.86C178.828 86.86 179.318 86.9967 179.718 87.27C180.118 87.5367 180.421 87.93 180.628 88.45C180.835 88.97 180.938 89.5967 180.938 90.33C180.938 91.13 180.821 91.81 180.588 92.37C180.355 92.93 180.021 93.3567 179.588 93.65C179.155 93.9433 178.628 94.09 178.008 94.09ZM178.318 90.55C178.591 90.55 178.831 90.49 179.038 90.37C179.245 90.25 179.405 90.0867 179.518 89.88C179.631 89.6667 179.688 89.42 179.688 89.14C179.688 88.8533 179.631 88.6067 179.518 88.4C179.405 88.1867 179.245 88.02 179.038 87.9C178.831 87.78 178.591 87.72 178.318 87.72C178.045 87.72 177.805 87.78 177.598 87.9C177.398 88.02 177.241 88.1867 177.128 88.4C177.015 88.6133 176.958 88.86 176.958 89.14C176.958 89.42 177.015 89.6667 177.128 89.88C177.241 90.0933 177.401 90.26 177.608 90.38C177.815 90.4933 178.051 90.55 178.318 90.55Z" fill="#444050"/>
<path id="X-label_4" d="M61.7659 57L60.2959 54.78C60.1959 54.62 60.0925 54.4933 59.9859 54.4C59.8792 54.3 59.7592 54.23 59.6259 54.19C59.4925 54.1433 59.3292 54.12 59.1359 54.12H57.7159V53.34H59.7059C60.0525 53.34 60.3392 53.2933 60.5659 53.2C60.7992 53.1067 60.9792 52.9667 61.1059 52.78C61.2325 52.5867 61.2992 52.35 61.3059 52.07L61.4559 52.27H57.7159V51.56H61.4559L61.2859 51.74C61.2392 51.3867 61.0859 51.12 60.8259 50.94C60.5725 50.7533 60.2192 50.66 59.7659 50.66H57.7159V49.95H63.2959V50.66H61.4359L61.5459 50.5C61.7725 50.6267 61.9459 50.7933 62.0659 51C62.1925 51.2067 62.2725 51.4467 62.3059 51.72L62.0959 51.56H63.2959V52.27H62.1259L62.3259 52C62.3325 52.4133 62.2459 52.7733 62.0659 53.08C61.8925 53.38 61.6425 53.6133 61.3159 53.78C60.9892 53.94 60.6059 54.0233 60.1659 54.03V53.98L60.3359 53.99C60.5025 54.0033 60.6525 54.0367 60.7859 54.09C60.9192 54.1433 61.0459 54.2267 61.1659 54.34C61.2925 54.4467 61.4159 54.59 61.5359 54.77L63.0259 57H61.7659ZM66.502 57.09C65.6953 57.09 65.0653 56.9167 64.612 56.57C64.1586 56.2233 63.932 55.74 63.932 55.12C63.932 54.7933 63.9953 54.5067 64.122 54.26C64.2553 54.0133 64.4353 53.81 64.662 53.65C64.8953 53.49 65.1586 53.39 65.452 53.35V53.45C65.192 53.3833 64.9586 53.27 64.752 53.11C64.5453 52.95 64.3853 52.7533 64.272 52.52C64.1586 52.2867 64.102 52.03 64.102 51.75C64.102 51.1567 64.3186 50.6933 64.752 50.36C65.1853 50.0267 65.7686 49.86 66.502 49.86C67.2353 49.86 67.8186 50.0267 68.252 50.36C68.6853 50.6933 68.902 51.1567 68.902 51.75C68.902 52.03 68.8453 52.29 68.732 52.53C68.6186 52.7633 68.4586 52.96 68.252 53.12C68.052 53.2733 67.8186 53.38 67.552 53.44V53.35C67.852 53.39 68.1153 53.49 68.342 53.65C68.5686 53.81 68.7453 54.0167 68.872 54.27C69.0053 54.5167 69.072 54.8 69.072 55.12C69.072 55.74 68.8453 56.2233 68.392 56.57C67.9386 56.9167 67.3086 57.09 66.502 57.09ZM66.502 56.24C67.022 56.24 67.4153 56.14 67.682 55.94C67.9486 55.7333 68.082 55.4367 68.082 55.05C68.082 54.6567 67.9486 54.36 67.682 54.16C67.4153 53.96 67.022 53.86 66.502 53.86C65.9886 53.86 65.5953 53.96 65.322 54.16C65.0553 54.36 64.922 54.6567 64.922 55.05C64.922 55.4367 65.0553 55.7333 65.322 55.94C65.5953 56.14 65.9886 56.24 66.502 56.24ZM66.502 53C66.9486 53 67.2953 52.9 67.542 52.7C67.7886 52.4933 67.912 52.21 67.912 51.85C67.912 51.4967 67.7886 51.22 67.542 51.02C67.2953 50.8133 66.9486 50.71 66.502 50.71C66.062 50.71 65.7153 50.8133 65.462 51.02C65.2153 51.22 65.092 51.4967 65.092 51.85C65.092 52.21 65.2153 52.4933 65.462 52.7C65.7153 52.9 66.062 53 66.502 53ZM70.318 57V56.22L72.698 53.69C72.9247 53.45 73.1014 53.2333 73.228 53.04C73.3614 52.84 73.458 52.6467 73.518 52.46C73.578 52.2733 73.608 52.0867 73.608 51.9C73.608 51.5333 73.4914 51.2533 73.258 51.06C73.0314 50.8667 72.7047 50.77 72.278 50.77C71.9514 50.77 71.6314 50.8333 71.318 50.96C71.0047 51.08 70.708 51.27 70.428 51.53L70.048 50.72C70.3347 50.4533 70.6847 50.2433 71.098 50.09C71.5114 49.9367 71.9414 49.86 72.388 49.86C72.868 49.86 73.278 49.9367 73.618 50.09C73.958 50.2433 74.2147 50.4667 74.388 50.76C74.568 51.0533 74.658 51.4033 74.658 51.81C74.658 52.0233 74.6314 52.23 74.578 52.43C74.5314 52.63 74.458 52.83 74.358 53.03C74.258 53.2233 74.128 53.4267 73.968 53.64C73.8147 53.8467 73.6314 54.06 73.418 54.28L71.508 56.27V56.1H74.938V57H70.318Z" fill="#444050"/>
</g>
<rect x="0.5" y="0.5" width="336.333" height="243" rx="11.5" stroke="#EAEAEC"/>
</g>
<defs>
<linearGradient id="paint0_linear_7779_14658" x1="66.5" y1="72" x2="66.5" y2="197" gradientUnits="userSpaceOnUse">
<stop stop-color="#808080" stop-opacity="0.2"/>
<stop offset="1" stop-color="#808080" stop-opacity="0"/>
</linearGradient>
<linearGradient id="paint1_linear_7779_14658" x1="172.5" y1="110" x2="172.5" y2="197" gradientUnits="userSpaceOnUse">
<stop stop-color="#FDEAB7"/>
<stop offset="1" stop-color="#FBC942" stop-opacity="0"/>
</linearGradient>
<clipPath id="clip0_7779_14658">
<rect width="337.333" height="244" rx="12" fill="white"/>
</clipPath>
</defs>
</svg>
