<svg width="338" height="244" viewBox="0 0 338 244" fill="none" xmlns="http://www.w3.org/2000/svg">
<g id="Logo">
<rect x="0.5" y="0.5" width="336.333" height="243" rx="11.5" fill="#F5F5F6"/>
<rect x="0.5" y="0.5" width="336.333" height="243" rx="11.5" stroke="#EAEAEC"/>
<g id="Frame 2147223121">
<g id="Card Shipment Tracking">
<rect x="29" y="42" width="279.25" height="70" rx="12" fill="white"/>
<g id="Header">
<g id="ID &#38; Carrier">
<path id="Ship ID" d="M50.502 72.14C49.7833 72.14 49.13 72.0233 48.542 71.79C47.9633 71.5473 47.464 71.202 47.044 70.754C46.6333 70.306 46.316 69.7693 46.092 69.144C45.868 68.5187 45.756 67.8233 45.756 67.058C45.756 66.2833 45.868 65.588 46.092 64.972C46.316 64.3467 46.6333 63.8147 47.044 63.376C47.464 62.928 47.9633 62.5873 48.542 62.354C49.13 62.1113 49.7833 61.99 50.502 61.99C51.2207 61.99 51.8693 62.1113 52.448 62.354C53.036 62.5873 53.5353 62.9233 53.946 63.362C54.366 63.8007 54.688 64.3327 54.912 64.958C55.136 65.574 55.248 66.2693 55.248 67.044C55.248 67.8187 55.136 68.5187 54.912 69.144C54.688 69.7693 54.366 70.306 53.946 70.754C53.5353 71.202 53.036 71.5473 52.448 71.79C51.8693 72.0233 51.2207 72.14 50.502 72.14ZM50.502 70.6C51.1087 70.6 51.622 70.46 52.042 70.18C52.4713 69.9 52.798 69.494 53.022 68.962C53.2553 68.43 53.372 67.7953 53.372 67.058C53.372 66.3113 53.26 65.6767 53.036 65.154C52.812 64.622 52.4853 64.2207 52.056 63.95C51.6267 63.67 51.1087 63.53 50.502 63.53C49.9047 63.53 49.3913 63.67 48.962 63.95C48.5327 64.2207 48.2013 64.622 47.968 65.154C47.744 65.6767 47.632 66.3113 47.632 67.058C47.632 67.7953 47.744 68.43 47.968 68.962C48.2013 69.494 48.5327 69.9 48.962 70.18C49.3913 70.46 49.9047 70.6 50.502 70.6ZM56.9022 72V65.154H58.6102V66.806H58.4702C58.6009 66.246 58.8575 65.8213 59.2402 65.532C59.6229 65.2333 60.1315 65.0607 60.7662 65.014L61.2982 64.972L61.4102 66.456L60.4022 66.554C59.8329 66.61 59.4035 66.7873 59.1142 67.086C58.8249 67.3753 58.6802 67.786 58.6802 68.318V72H56.9022ZM62.2726 63.684V61.976H64.2326V63.684H62.2726ZM62.3846 72V65.154H64.1346V72H62.3846ZM69.145 74.66C68.5103 74.66 67.913 74.5853 67.353 74.436C66.8023 74.296 66.317 74.0767 65.897 73.778L66.401 72.56C66.6623 72.728 66.9376 72.868 67.227 72.98C67.5163 73.1013 67.8103 73.19 68.109 73.246C68.4076 73.302 68.7063 73.33 69.005 73.33C69.6303 73.33 70.097 73.176 70.405 72.868C70.7223 72.5693 70.881 72.1213 70.881 71.524V70.264H71.007C70.867 70.74 70.573 71.1227 70.125 71.412C69.6863 71.692 69.187 71.832 68.627 71.832C68.011 71.832 67.4743 71.692 67.017 71.412C66.5596 71.1227 66.205 70.7213 65.953 70.208C65.701 69.6947 65.575 69.0973 65.575 68.416C65.575 67.7347 65.701 67.142 65.953 66.638C66.205 66.1247 66.5596 65.728 67.017 65.448C67.4743 65.1587 68.011 65.014 68.627 65.014C69.2056 65.014 69.7096 65.1587 70.139 65.448C70.5776 65.728 70.8623 66.1013 70.993 66.568H70.881V65.154H72.589V71.314C72.589 72.0513 72.4583 72.6673 72.197 73.162C71.9356 73.666 71.5483 74.0393 71.035 74.282C70.5216 74.534 69.8916 74.66 69.145 74.66ZM69.103 70.502C69.6443 70.502 70.0736 70.3153 70.391 69.942C70.7083 69.5687 70.867 69.06 70.867 68.416C70.867 67.772 70.7083 67.268 70.391 66.904C70.0736 66.5307 69.6443 66.344 69.103 66.344C68.5616 66.344 68.1323 66.5307 67.815 66.904C67.4976 67.268 67.339 67.772 67.339 68.416C67.339 69.06 67.4976 69.5687 67.815 69.942C68.1323 70.3153 68.5616 70.502 69.103 70.502ZM74.4022 72V65.154H76.1102V66.526H75.9562C76.1615 66.0313 76.4789 65.658 76.9082 65.406C77.3469 65.1447 77.8415 65.014 78.3922 65.014C78.9429 65.014 79.3955 65.1167 79.7502 65.322C80.1049 65.5273 80.3709 65.84 80.5482 66.26C80.7255 66.6707 80.8142 67.1933 80.8142 67.828V72H79.0642V67.912C79.0642 67.5573 79.0175 67.268 78.9242 67.044C78.8402 66.82 78.7049 66.6567 78.5182 66.554C78.3409 66.442 78.1122 66.386 77.8322 66.386C77.4962 66.386 77.2022 66.4607 76.9502 66.61C76.6982 66.75 76.5022 66.9553 76.3622 67.226C76.2222 67.4873 76.1522 67.7953 76.1522 68.15V72H74.4022ZM84.8456 72.14C84.351 72.14 83.9076 72.0467 83.5156 71.86C83.133 71.664 82.8296 71.4027 82.6056 71.076C82.391 70.7493 82.2836 70.3807 82.2836 69.97C82.2836 69.466 82.4143 69.0693 82.6756 68.78C82.937 68.4813 83.3616 68.2667 83.9496 68.136C84.5376 68.0053 85.3263 67.94 86.3156 67.94H87.0156V68.948H86.3296C85.891 68.948 85.5223 68.9667 85.2236 69.004C84.925 69.032 84.6823 69.0833 84.4956 69.158C84.3183 69.2233 84.1876 69.3167 84.1036 69.438C84.029 69.5593 83.9916 69.7087 83.9916 69.886C83.9916 70.194 84.099 70.446 84.3136 70.642C84.5283 70.838 84.827 70.936 85.2096 70.936C85.5176 70.936 85.7883 70.866 86.0216 70.726C86.2643 70.5767 86.4556 70.376 86.5956 70.124C86.7356 69.872 86.8056 69.5827 86.8056 69.256V67.646C86.8056 67.1793 86.703 66.8433 86.4976 66.638C86.2923 66.4327 85.947 66.33 85.4616 66.33C85.079 66.33 84.687 66.3907 84.2856 66.512C83.8843 66.624 83.4783 66.8013 83.0676 67.044L82.5636 65.854C82.8063 65.686 83.091 65.5413 83.4176 65.42C83.7536 65.2893 84.1036 65.1913 84.4676 65.126C84.841 65.0513 85.191 65.014 85.5176 65.014C86.1896 65.014 86.7403 65.1167 87.1696 65.322C87.6083 65.5273 87.935 65.84 88.1496 66.26C88.3643 66.6707 88.4716 67.2027 88.4716 67.856V72H86.8336V70.544H86.9456C86.8803 70.8707 86.7496 71.1553 86.5536 71.398C86.367 71.6313 86.129 71.8133 85.8396 71.944C85.5503 72.0747 85.219 72.14 84.8456 72.14ZM92.6279 72.14C91.8159 72.14 91.2139 71.9207 90.8219 71.482C90.4392 71.034 90.2479 70.3807 90.2479 69.522V62.13H91.9979V69.438C91.9979 69.7087 92.0352 69.942 92.1099 70.138C92.1939 70.3247 92.3152 70.4647 92.4739 70.558C92.6326 70.6513 92.8286 70.698 93.0619 70.698C93.1646 70.698 93.2672 70.6933 93.3699 70.684C93.4726 70.6747 93.5706 70.656 93.6639 70.628L93.6359 72.014C93.4679 72.0513 93.2999 72.0793 93.1319 72.098C92.9732 72.126 92.8052 72.14 92.6279 72.14ZM97.596 72L102.062 62.13H103.532L107.998 72H106.178L104.988 69.228L105.744 69.718H99.836L100.592 69.228L99.416 72H97.596ZM102.776 64.076L100.816 68.738L100.452 68.29H105.128L104.778 68.738L102.804 64.076H102.776ZM111.29 72.14C110.478 72.14 109.876 71.9207 109.484 71.482C109.101 71.034 108.91 70.3807 108.91 69.522V62.13H110.66V69.438C110.66 69.7087 110.697 69.942 110.772 70.138C110.856 70.3247 110.977 70.4647 111.136 70.558C111.295 70.6513 111.491 70.698 111.724 70.698C111.827 70.698 111.929 70.6933 112.032 70.684C112.135 70.6747 112.233 70.656 112.326 70.628L112.298 72.014C112.13 72.0513 111.962 72.0793 111.794 72.098C111.635 72.126 111.467 72.14 111.29 72.14ZM115.761 72.14C114.949 72.14 114.347 71.9207 113.955 71.482C113.572 71.034 113.381 70.3807 113.381 69.522V62.13H115.131V69.438C115.131 69.7087 115.168 69.942 115.243 70.138C115.327 70.3247 115.448 70.4647 115.607 70.558C115.765 70.6513 115.961 70.698 116.195 70.698C116.297 70.698 116.4 70.6933 116.503 70.684C116.605 70.6747 116.703 70.656 116.797 70.628L116.769 72.014C116.601 72.0513 116.433 72.0793 116.265 72.098C116.106 72.126 115.938 72.14 115.761 72.14ZM120.905 72.14C120.196 72.14 119.58 71.9953 119.057 71.706C118.534 71.4167 118.128 71.006 117.839 70.474C117.55 69.9327 117.405 69.298 117.405 68.57C117.405 67.842 117.55 67.212 117.839 66.68C118.128 66.148 118.534 65.7373 119.057 65.448C119.58 65.1587 120.196 65.014 120.905 65.014C121.614 65.014 122.23 65.1587 122.753 65.448C123.276 65.7373 123.682 66.148 123.971 66.68C124.26 67.212 124.405 67.842 124.405 68.57C124.405 69.298 124.26 69.9327 123.971 70.474C123.682 71.006 123.276 71.4167 122.753 71.706C122.23 71.9953 121.614 72.14 120.905 72.14ZM120.905 70.81C121.428 70.81 121.848 70.6233 122.165 70.25C122.482 69.8673 122.641 69.3073 122.641 68.57C122.641 67.8233 122.482 67.268 122.165 66.904C121.848 66.5307 121.428 66.344 120.905 66.344C120.382 66.344 119.962 66.5307 119.645 66.904C119.328 67.268 119.169 67.8233 119.169 68.57C119.169 69.3073 119.328 69.8673 119.645 70.25C119.962 70.6233 120.382 70.81 120.905 70.81ZM129.013 72.14C128.295 72.14 127.669 71.9953 127.137 71.706C126.605 71.4073 126.195 70.9873 125.905 70.446C125.616 69.9047 125.471 69.27 125.471 68.542C125.471 67.814 125.616 67.1887 125.905 66.666C126.195 66.134 126.605 65.728 127.137 65.448C127.669 65.1587 128.295 65.014 129.013 65.014C129.452 65.014 129.886 65.084 130.315 65.224C130.745 65.364 131.099 65.56 131.379 65.812L130.861 67.03C130.619 66.8153 130.343 66.652 130.035 66.54C129.737 66.428 129.447 66.372 129.167 66.372C128.561 66.372 128.089 66.5633 127.753 66.946C127.427 67.3193 127.263 67.856 127.263 68.556C127.263 69.2467 127.427 69.7927 127.753 70.194C128.089 70.586 128.561 70.782 129.167 70.782C129.438 70.782 129.727 70.726 130.035 70.614C130.343 70.502 130.619 70.334 130.861 70.11L131.379 71.342C131.099 71.5847 130.74 71.7807 130.301 71.93C129.872 72.07 129.443 72.14 129.013 72.14ZM134.666 72.14C134.171 72.14 133.728 72.0467 133.336 71.86C132.953 71.664 132.65 71.4027 132.426 71.076C132.211 70.7493 132.104 70.3807 132.104 69.97C132.104 69.466 132.235 69.0693 132.496 68.78C132.757 68.4813 133.182 68.2667 133.77 68.136C134.358 68.0053 135.147 67.94 136.136 67.94H136.836V68.948H136.15C135.711 68.948 135.343 68.9667 135.044 69.004C134.745 69.032 134.503 69.0833 134.316 69.158C134.139 69.2233 134.008 69.3167 133.924 69.438C133.849 69.5593 133.812 69.7087 133.812 69.886C133.812 70.194 133.919 70.446 134.134 70.642C134.349 70.838 134.647 70.936 135.03 70.936C135.338 70.936 135.609 70.866 135.842 70.726C136.085 70.5767 136.276 70.376 136.416 70.124C136.556 69.872 136.626 69.5827 136.626 69.256V67.646C136.626 67.1793 136.523 66.8433 136.318 66.638C136.113 66.4327 135.767 66.33 135.282 66.33C134.899 66.33 134.507 66.3907 134.106 66.512C133.705 66.624 133.299 66.8013 132.888 67.044L132.384 65.854C132.627 65.686 132.911 65.5413 133.238 65.42C133.574 65.2893 133.924 65.1913 134.288 65.126C134.661 65.0513 135.011 65.014 135.338 65.014C136.01 65.014 136.561 65.1167 136.99 65.322C137.429 65.5273 137.755 65.84 137.97 66.26C138.185 66.6707 138.292 67.2027 138.292 67.856V72H136.654V70.544H136.766C136.701 70.8707 136.57 71.1553 136.374 71.398C136.187 71.6313 135.949 71.8133 135.66 71.944C135.371 72.0747 135.039 72.14 134.666 72.14ZM143.204 72.14C142.29 72.14 141.608 71.9113 141.16 71.454C140.712 70.9967 140.488 70.3293 140.488 69.452V66.47H139.172V65.154H140.488V63.11H142.238V65.154H144.31V66.47H142.238V69.354C142.238 69.802 142.336 70.138 142.532 70.362C142.728 70.586 143.046 70.698 143.484 70.698C143.615 70.698 143.75 70.684 143.89 70.656C144.03 70.6187 144.175 70.5813 144.324 70.544L144.59 71.832C144.422 71.9253 144.208 72 143.946 72.056C143.694 72.112 143.447 72.14 143.204 72.14ZM145.329 63.684V61.976H147.289V63.684H145.329ZM145.441 72V65.154H147.191V72H145.441ZM152.132 72.14C151.422 72.14 150.806 71.9953 150.284 71.706C149.761 71.4167 149.355 71.006 149.066 70.474C148.776 69.9327 148.632 69.298 148.632 68.57C148.632 67.842 148.776 67.212 149.066 66.68C149.355 66.148 149.761 65.7373 150.284 65.448C150.806 65.1587 151.422 65.014 152.132 65.014C152.841 65.014 153.457 65.1587 153.98 65.448C154.502 65.7373 154.908 66.148 155.198 66.68C155.487 67.212 155.632 67.842 155.632 68.57C155.632 69.298 155.487 69.9327 155.198 70.474C154.908 71.006 154.502 71.4167 153.98 71.706C153.457 71.9953 152.841 72.14 152.132 72.14ZM152.132 70.81C152.654 70.81 153.074 70.6233 153.392 70.25C153.709 69.8673 153.868 69.3073 153.868 68.57C153.868 67.8233 153.709 67.268 153.392 66.904C153.074 66.5307 152.654 66.344 152.132 66.344C151.609 66.344 151.189 66.5307 150.872 66.904C150.554 67.268 150.396 67.8233 150.396 68.57C150.396 69.3073 150.554 69.8673 150.872 70.25C151.189 70.6233 151.609 70.81 152.132 70.81ZM157.076 72V65.154H158.784V66.526H158.63C158.835 66.0313 159.153 65.658 159.582 65.406C160.021 65.1447 160.515 65.014 161.066 65.014C161.617 65.014 162.069 65.1167 162.424 65.322C162.779 65.5273 163.045 65.84 163.222 66.26C163.399 66.6707 163.488 67.1933 163.488 67.828V72H161.738V67.912C161.738 67.5573 161.691 67.268 161.598 67.044C161.514 66.82 161.379 66.6567 161.192 66.554C161.015 66.442 160.786 66.386 160.506 66.386C160.17 66.386 159.876 66.4607 159.624 66.61C159.372 66.75 159.176 66.9553 159.036 67.226C158.896 67.4873 158.826 67.7953 158.826 68.15V72H157.076Z" fill="black"/>
<g id="Detail">
<path id="Carrier" d="M46.02 90L46.44 87.876H45.468V87.048H46.596L47.112 84.396H45.72V83.568H47.256L47.664 81.54H48.552L48.144 83.568H49.872L50.28 81.54H51.168L50.76 83.568H51.732V84.396H50.604L50.088 87.048H51.48V87.876H49.944L49.524 90H48.636L49.056 87.876H47.328L46.908 90H46.02ZM47.484 87.048H49.2L49.716 84.396H48L47.484 87.048ZM57.1393 90.108C56.2193 90.108 55.4433 89.936 54.8113 89.592C54.1793 89.24 53.6993 88.74 53.3713 88.092C53.0513 87.444 52.8913 86.672 52.8913 85.776C52.8913 84.88 53.0553 84.108 53.3833 83.46C53.7193 82.812 54.1953 82.312 54.8113 81.96C55.4353 81.608 56.1833 81.432 57.0553 81.432C57.4553 81.432 57.8353 81.472 58.1953 81.552C58.5553 81.624 58.8873 81.736 59.1913 81.888C59.5033 82.04 59.7753 82.228 60.0073 82.452L59.5633 83.424C59.1873 83.104 58.7953 82.876 58.3873 82.74C57.9873 82.596 57.5433 82.524 57.0553 82.524C56.1193 82.524 55.4073 82.808 54.9193 83.376C54.4313 83.936 54.1873 84.736 54.1873 85.776C54.1873 86.84 54.4393 87.648 54.9433 88.2C55.4473 88.752 56.1953 89.028 57.1873 89.028C57.5473 89.028 57.8993 88.996 58.2433 88.932C58.5953 88.86 58.9313 88.76 59.2513 88.632L58.9993 89.256V86.46H56.9353V85.524H60.0433V89.508C59.8113 89.628 59.5313 89.732 59.2033 89.82C58.8833 89.908 58.5433 89.976 58.1833 90.024C57.8313 90.08 57.4833 90.108 57.1393 90.108ZM61.9567 90V81.54H65.4607C66.3727 81.54 67.0767 81.756 67.5727 82.188C68.0687 82.62 68.3167 83.232 68.3167 84.024C68.3167 84.536 68.2047 84.976 67.9807 85.344C67.7567 85.712 67.4287 85.992 66.9967 86.184C66.5727 86.376 66.0607 86.472 65.4607 86.472L65.5687 86.304H65.8807C66.2007 86.304 66.4767 86.384 66.7087 86.544C66.9487 86.704 67.1647 86.96 67.3567 87.312L68.8207 90H67.4527L65.9887 87.3C65.8767 87.092 65.7527 86.932 65.6167 86.82C65.4887 86.7 65.3367 86.62 65.1607 86.58C64.9927 86.532 64.7927 86.508 64.5607 86.508H63.2047V90H61.9567ZM63.2047 85.572H65.2567C65.8647 85.572 66.3247 85.444 66.6367 85.188C66.9487 84.932 67.1047 84.552 67.1047 84.048C67.1047 83.552 66.9487 83.176 66.6367 82.92C66.3247 82.664 65.8647 82.536 65.2567 82.536H63.2047V85.572ZM72.6131 90L68.8811 81.54H70.2131L73.4051 88.944H72.9611L76.1411 81.54H77.4131L73.6811 90H72.6131ZM77.6095 87.288V86.304H81.0655V87.288H77.6095ZM86.2821 90V88.284H82.4781V87.36L86.4981 81.54H87.5181V87.24H88.7541V88.284H87.5181V90H86.2821ZM86.2821 87.24V83.028H86.6061L83.4861 87.576V87.24H86.2821ZM92.7094 90.108C91.7414 90.108 90.9854 89.9 90.4414 89.484C89.9054 89.068 89.6374 88.488 89.6374 87.744C89.6374 87.344 89.7174 86.992 89.8774 86.688C90.0374 86.376 90.2614 86.124 90.5494 85.932C90.8374 85.74 91.1694 85.62 91.5454 85.572V85.788C91.2014 85.716 90.9014 85.584 90.6454 85.392C90.3894 85.192 90.1894 84.948 90.0454 84.66C89.9094 84.364 89.8414 84.04 89.8414 83.688C89.8414 82.984 90.1014 82.432 90.6214 82.032C91.1414 81.632 91.8374 81.432 92.7094 81.432C93.5894 81.432 94.2894 81.632 94.8094 82.032C95.3294 82.432 95.5894 82.984 95.5894 83.688C95.5894 84.04 95.5174 84.364 95.3734 84.66C95.2374 84.948 95.0414 85.192 94.7854 85.392C94.5294 85.584 94.2294 85.712 93.8854 85.776V85.572C94.2694 85.62 94.6014 85.744 94.8814 85.944C95.1614 86.136 95.3814 86.384 95.5414 86.688C95.7014 86.992 95.7814 87.344 95.7814 87.744C95.7814 88.488 95.5094 89.068 94.9654 89.484C94.4294 89.9 93.6774 90.108 92.7094 90.108ZM92.7094 89.124C93.3414 89.124 93.8174 89.004 94.1374 88.764C94.4574 88.516 94.6174 88.148 94.6174 87.66C94.6174 87.172 94.4574 86.808 94.1374 86.568C93.8174 86.328 93.3414 86.208 92.7094 86.208C92.0854 86.208 91.6094 86.328 91.2814 86.568C90.9614 86.808 90.8014 87.172 90.8014 87.66C90.8014 88.148 90.9614 88.516 91.2814 88.764C91.6094 89.004 92.0854 89.124 92.7094 89.124ZM92.7094 85.224C93.2454 85.224 93.6614 85.1 93.9574 84.852C94.2614 84.596 94.4134 84.248 94.4134 83.808C94.4134 83.376 94.2614 83.036 93.9574 82.788C93.6614 82.54 93.2454 82.416 92.7094 82.416C92.1734 82.416 91.7574 82.54 91.4614 82.788C91.1654 83.036 91.0174 83.376 91.0174 83.808C91.0174 84.248 91.1654 84.596 91.4614 84.852C91.7574 85.1 92.1734 85.224 92.7094 85.224ZM97.3247 90V89.076L100.145 86.052C100.409 85.764 100.621 85.5 100.781 85.26C100.941 85.012 101.057 84.776 101.129 84.552C101.209 84.32 101.249 84.088 101.249 83.856C101.249 83.408 101.113 83.068 100.841 82.836C100.569 82.604 100.169 82.488 99.6407 82.488C99.2327 82.488 98.8447 82.564 98.4767 82.716C98.1167 82.868 97.7727 83.1 97.4447 83.412L97.0007 82.464C97.3207 82.152 97.7287 81.904 98.2247 81.72C98.7207 81.528 99.2367 81.432 99.7727 81.432C100.357 81.432 100.849 81.524 101.249 81.708C101.657 81.884 101.965 82.144 102.173 82.488C102.381 82.832 102.485 83.252 102.485 83.748C102.485 84.004 102.453 84.256 102.389 84.504C102.333 84.744 102.241 84.984 102.113 85.224C101.993 85.464 101.837 85.712 101.645 85.968C101.461 86.224 101.237 86.488 100.973 86.76L98.5607 89.304V88.956H102.821V90H97.3247ZM106.968 90.108C106.592 90.108 106.224 90.072 105.864 90C105.512 89.92 105.18 89.808 104.868 89.664C104.564 89.512 104.296 89.332 104.064 89.124L104.496 88.164C104.872 88.468 105.26 88.692 105.66 88.836C106.06 88.98 106.484 89.052 106.932 89.052C107.316 89.052 107.64 88.996 107.904 88.884C108.168 88.772 108.364 88.608 108.492 88.392C108.628 88.176 108.696 87.916 108.696 87.612C108.696 87.156 108.544 86.816 108.24 86.592C107.944 86.36 107.512 86.244 106.944 86.244H105.636V85.2H106.824C107.168 85.2 107.46 85.144 107.7 85.032C107.94 84.912 108.124 84.748 108.252 84.54C108.388 84.324 108.456 84.064 108.456 83.76C108.456 83.352 108.32 83.04 108.048 82.824C107.784 82.6 107.396 82.488 106.884 82.488C106.452 82.488 106.052 82.564 105.684 82.716C105.316 82.868 104.968 83.1 104.64 83.412L104.208 82.464C104.536 82.136 104.944 81.884 105.432 81.708C105.928 81.524 106.444 81.432 106.98 81.432C107.54 81.432 108.02 81.52 108.42 81.696C108.828 81.872 109.136 82.124 109.344 82.452C109.56 82.78 109.668 83.172 109.668 83.628C109.668 84.14 109.524 84.584 109.236 84.96C108.956 85.328 108.568 85.572 108.072 85.692V85.56C108.464 85.624 108.796 85.752 109.068 85.944C109.34 86.136 109.548 86.38 109.692 86.676C109.836 86.972 109.908 87.312 109.908 87.696C109.908 88.192 109.788 88.624 109.548 88.992C109.316 89.352 108.98 89.628 108.54 89.82C108.1 90.012 107.576 90.108 106.968 90.108ZM112.099 90V88.956H114.019V82.596H114.643L112.519 83.916L112.015 82.992L114.379 81.54H115.255V88.956H117.055V90H112.099Z" fill="#737682"/>
</g>
</g>
<g id="Badge-status-shipment">
<rect x="227.25" y="58" width="65" height="24" rx="12" fill="#F5F5F6"/>
<circle id="Color Indicator" cx="241.25" cy="70" r="4" fill="#FF4C51"/>
<path id="Label" d="M250.234 74V65.54H255.61V66.548H251.482V69.248H255.358V70.256H251.482V74H250.234ZM258.384 74.108C257.976 74.108 257.608 74.028 257.28 73.868C256.96 73.708 256.708 73.492 256.524 73.22C256.34 72.948 256.248 72.64 256.248 72.296C256.248 71.864 256.356 71.524 256.572 71.276C256.796 71.02 257.16 70.84 257.664 70.736C258.176 70.624 258.864 70.568 259.728 70.568H260.292V71.312H259.74C259.308 71.312 258.944 71.328 258.648 71.36C258.352 71.392 258.116 71.444 257.94 71.516C257.764 71.58 257.636 71.672 257.556 71.792C257.484 71.912 257.448 72.056 257.448 72.224C257.448 72.528 257.552 72.776 257.76 72.968C257.968 73.152 258.256 73.244 258.624 73.244C258.92 73.244 259.18 73.176 259.404 73.04C259.628 72.896 259.804 72.704 259.932 72.464C260.068 72.224 260.136 71.948 260.136 71.636V70.256C260.136 69.8 260.04 69.472 259.848 69.272C259.656 69.072 259.34 68.972 258.9 68.972C258.564 68.972 258.228 69.024 257.892 69.128C257.556 69.224 257.212 69.38 256.86 69.596L256.488 68.744C256.696 68.6 256.936 68.476 257.208 68.372C257.48 68.268 257.764 68.188 258.06 68.132C258.364 68.068 258.656 68.036 258.936 68.036C259.472 68.036 259.912 68.12 260.256 68.288C260.608 68.456 260.868 68.712 261.036 69.056C261.204 69.4 261.288 69.844 261.288 70.388V74H260.148V72.692H260.256C260.192 72.988 260.072 73.244 259.896 73.46C259.728 73.668 259.516 73.828 259.26 73.94C259.004 74.052 258.712 74.108 258.384 74.108ZM262.849 66.788V65.528H264.265V66.788H262.849ZM262.957 74V68.144H264.169V74H262.957ZM267.783 74.108C267.143 74.108 266.663 73.928 266.343 73.568C266.031 73.2 265.875 72.672 265.875 71.984V65.54H267.087V71.912C267.087 72.168 267.123 72.388 267.195 72.572C267.267 72.748 267.375 72.88 267.519 72.968C267.663 73.056 267.843 73.1 268.059 73.1C268.155 73.1 268.247 73.096 268.335 73.088C268.423 73.08 268.507 73.064 268.587 73.04L268.563 74.012C268.427 74.044 268.295 74.068 268.167 74.084C268.039 74.1 267.911 74.108 267.783 74.108ZM272.233 74.108C271.593 74.108 271.041 73.988 270.577 73.748C270.121 73.5 269.765 73.152 269.509 72.704C269.261 72.248 269.137 71.708 269.137 71.084C269.137 70.476 269.261 69.944 269.509 69.488C269.757 69.032 270.097 68.676 270.529 68.42C270.961 68.164 271.453 68.036 272.005 68.036C272.549 68.036 273.013 68.156 273.397 68.396C273.789 68.628 274.089 68.96 274.297 69.392C274.505 69.824 274.609 70.34 274.609 70.94V71.348H270.097V70.604H273.793L273.589 70.772C273.589 70.172 273.457 69.708 273.193 69.38C272.929 69.052 272.549 68.888 272.053 68.888C271.677 68.888 271.357 68.976 271.093 69.152C270.837 69.328 270.641 69.572 270.505 69.884C270.369 70.196 270.301 70.56 270.301 70.976V71.048C270.301 71.512 270.373 71.904 270.517 72.224C270.669 72.536 270.889 72.772 271.177 72.932C271.465 73.092 271.821 73.172 272.245 73.172C272.581 73.172 272.909 73.12 273.229 73.016C273.557 72.904 273.865 72.732 274.153 72.5L274.513 73.34C274.249 73.58 273.909 73.768 273.493 73.904C273.077 74.04 272.657 74.108 272.233 74.108ZM278.162 74.108C277.65 74.108 277.198 73.988 276.806 73.748C276.422 73.5 276.122 73.148 275.906 72.692C275.69 72.228 275.582 71.688 275.582 71.072C275.582 70.44 275.69 69.9 275.906 69.452C276.122 69.004 276.422 68.656 276.806 68.408C277.198 68.16 277.65 68.036 278.162 68.036C278.674 68.036 279.114 68.164 279.482 68.42C279.858 68.668 280.11 69.004 280.238 69.428H280.106V65.54H281.318V74H280.13V72.68H280.25C280.122 73.112 279.87 73.46 279.494 73.724C279.126 73.98 278.682 74.108 278.162 74.108ZM278.474 73.172C278.97 73.172 279.37 72.992 279.674 72.632C279.978 72.272 280.13 71.752 280.13 71.072C280.13 70.384 279.978 69.864 279.674 69.512C279.37 69.16 278.97 68.984 278.474 68.984C277.97 68.984 277.566 69.16 277.262 69.512C276.958 69.864 276.806 70.384 276.806 71.072C276.806 71.752 276.958 72.272 277.262 72.632C277.566 72.992 277.97 73.172 278.474 73.172Z" fill="black"/>
</g>
</g>
</g>
<g id="Card Shipment Tracking_2">
<rect x="29" y="132" width="279.25" height="70" rx="12" fill="white"/>
<g id="Header_2">
<g id="ID &#38; Carrier_2">
<path id="Ship ID_2" d="M45.014 162L49.48 152.13H50.95L55.416 162H53.596L52.406 159.228L53.162 159.718H47.254L48.01 159.228L46.834 162H45.014ZM50.194 154.076L48.234 158.738L47.87 158.29H52.546L52.196 158.738L50.222 154.076H50.194ZM58.806 162.14C58.2366 162.14 57.7653 162.037 57.392 161.832C57.0186 161.617 56.7386 161.3 56.552 160.88C56.3746 160.46 56.286 159.937 56.286 159.312V155.154H58.036V159.34C58.036 159.657 58.078 159.923 58.162 160.138C58.2553 160.353 58.3906 160.511 58.568 160.614C58.7546 160.717 58.988 160.768 59.268 160.768C59.5853 160.768 59.8606 160.698 60.094 160.558C60.3366 160.409 60.5233 160.203 60.654 159.942C60.794 159.671 60.864 159.359 60.864 159.004V155.154H62.614V162H60.906V160.572H61.102C60.906 161.076 60.6073 161.463 60.206 161.734C59.814 162.005 59.3473 162.14 58.806 162.14ZM67.5714 162.14C66.6567 162.14 65.9754 161.911 65.5274 161.454C65.0794 160.997 64.8554 160.329 64.8554 159.452V156.47H63.5394V155.154H64.8554V153.11H66.6054V155.154H68.6774V156.47H66.6054V159.354C66.6054 159.802 66.7034 160.138 66.8994 160.362C67.0954 160.586 67.4127 160.698 67.8514 160.698C67.9821 160.698 68.1174 160.684 68.2574 160.656C68.3974 160.619 68.5421 160.581 68.6914 160.544L68.9574 161.832C68.7894 161.925 68.5747 162 68.3134 162.056C68.0614 162.112 67.8141 162.14 67.5714 162.14ZM72.8621 162.14C72.1527 162.14 71.5367 161.995 71.0141 161.706C70.4914 161.417 70.0854 161.006 69.7961 160.474C69.5067 159.933 69.3621 159.298 69.3621 158.57C69.3621 157.842 69.5067 157.212 69.7961 156.68C70.0854 156.148 70.4914 155.737 71.0141 155.448C71.5367 155.159 72.1527 155.014 72.8621 155.014C73.5714 155.014 74.1874 155.159 74.7101 155.448C75.2327 155.737 75.6387 156.148 75.9281 156.68C76.2174 157.212 76.3621 157.842 76.3621 158.57C76.3621 159.298 76.2174 159.933 75.9281 160.474C75.6387 161.006 75.2327 161.417 74.7101 161.706C74.1874 161.995 73.5714 162.14 72.8621 162.14ZM72.8621 160.81C73.3847 160.81 73.8047 160.623 74.1221 160.25C74.4394 159.867 74.5981 159.307 74.5981 158.57C74.5981 157.823 74.4394 157.268 74.1221 156.904C73.8047 156.531 73.3847 156.344 72.8621 156.344C72.3394 156.344 71.9194 156.531 71.6021 156.904C71.2847 157.268 71.1261 157.823 71.1261 158.57C71.1261 159.307 71.2847 159.867 71.6021 160.25C71.9194 160.623 72.3394 160.81 72.8621 160.81ZM81.7479 162V152.13H86.0319C87.1146 152.13 87.9499 152.391 88.5379 152.914C89.1259 153.427 89.4199 154.151 89.4199 155.084C89.4199 155.691 89.2846 156.213 89.0139 156.652C88.7526 157.091 88.3699 157.427 87.8659 157.66C87.3619 157.893 86.7506 158.01 86.0319 158.01L86.1579 157.8H86.6199C87.0026 157.8 87.3339 157.893 87.6139 158.08C87.9033 158.267 88.1553 158.561 88.3699 158.962L90.0219 162H88.0479L86.3399 158.85C86.2279 158.645 86.1019 158.486 85.9619 158.374C85.8219 158.253 85.6633 158.169 85.4859 158.122C85.3086 158.075 85.1033 158.052 84.8699 158.052H83.5399V162H81.7479ZM83.5399 156.722H85.7239C86.3679 156.722 86.8533 156.591 87.1799 156.33C87.5159 156.059 87.6839 155.658 87.6839 155.126C87.6839 154.603 87.5159 154.211 87.1799 153.95C86.8533 153.679 86.3679 153.544 85.7239 153.544H83.5399V156.722ZM94.3738 162.14C93.5992 162.14 92.9318 161.995 92.3718 161.706C91.8118 161.417 91.3778 161.006 91.0698 160.474C90.7712 159.942 90.6218 159.312 90.6218 158.584C90.6218 157.875 90.7665 157.254 91.0558 156.722C91.3545 156.19 91.7605 155.775 92.2738 155.476C92.7965 155.168 93.3892 155.014 94.0518 155.014C94.7052 155.014 95.2652 155.154 95.7318 155.434C96.1985 155.714 96.5578 156.111 96.8098 156.624C97.0712 157.137 97.2018 157.749 97.2018 158.458V158.976H92.0358V157.968H95.9698L95.7458 158.178C95.7458 157.543 95.6058 157.058 95.3258 156.722C95.0458 156.377 94.6445 156.204 94.1218 156.204C93.7298 156.204 93.3938 156.297 93.1138 156.484C92.8432 156.661 92.6332 156.918 92.4838 157.254C92.3438 157.581 92.2738 157.973 92.2738 158.43V158.528C92.2738 159.041 92.3532 159.466 92.5118 159.802C92.6705 160.138 92.9085 160.39 93.2258 160.558C93.5432 160.726 93.9352 160.81 94.4018 160.81C94.7845 160.81 95.1672 160.754 95.5498 160.642C95.9325 160.521 96.2825 160.334 96.5998 160.082L97.0898 161.258C96.7632 161.529 96.3525 161.743 95.8578 161.902C95.3632 162.061 94.8685 162.14 94.3738 162.14ZM100.842 162.14C100.347 162.14 99.9037 162.047 99.5117 161.86C99.1291 161.664 98.8257 161.403 98.6017 161.076C98.3871 160.749 98.2797 160.381 98.2797 159.97C98.2797 159.466 98.4104 159.069 98.6717 158.78C98.9331 158.481 99.3577 158.267 99.9457 158.136C100.534 158.005 101.322 157.94 102.312 157.94H103.012V158.948H102.326C101.887 158.948 101.518 158.967 101.22 159.004C100.921 159.032 100.678 159.083 100.492 159.158C100.314 159.223 100.184 159.317 100.1 159.438C100.025 159.559 99.9877 159.709 99.9877 159.886C99.9877 160.194 100.095 160.446 100.31 160.642C100.524 160.838 100.823 160.936 101.206 160.936C101.514 160.936 101.784 160.866 102.018 160.726C102.26 160.577 102.452 160.376 102.592 160.124C102.732 159.872 102.802 159.583 102.802 159.256V157.646C102.802 157.179 102.699 156.843 102.494 156.638C102.288 156.433 101.943 156.33 101.458 156.33C101.075 156.33 100.683 156.391 100.282 156.512C99.8804 156.624 99.4744 156.801 99.0637 157.044L98.5597 155.854C98.8024 155.686 99.0871 155.541 99.4137 155.42C99.7497 155.289 100.1 155.191 100.464 155.126C100.837 155.051 101.187 155.014 101.514 155.014C102.186 155.014 102.736 155.117 103.166 155.322C103.604 155.527 103.931 155.84 104.146 156.26C104.36 156.671 104.468 157.203 104.468 157.856V162H102.83V160.544H102.942C102.876 160.871 102.746 161.155 102.55 161.398C102.363 161.631 102.125 161.813 101.836 161.944C101.546 162.075 101.215 162.14 100.842 162.14ZM108.75 162.14C108.367 162.14 107.994 162.107 107.63 162.042C107.275 161.977 106.949 161.888 106.65 161.776C106.351 161.655 106.09 161.505 105.866 161.328L106.314 160.18C106.547 160.329 106.799 160.46 107.07 160.572C107.341 160.684 107.621 160.768 107.91 160.824C108.199 160.88 108.484 160.908 108.764 160.908C109.212 160.908 109.543 160.833 109.758 160.684C109.982 160.525 110.094 160.32 110.094 160.068C110.094 159.853 110.019 159.69 109.87 159.578C109.73 159.457 109.515 159.368 109.226 159.312L107.826 159.046C107.247 158.934 106.804 158.724 106.496 158.416C106.197 158.099 106.048 157.693 106.048 157.198C106.048 156.75 106.169 156.363 106.412 156.036C106.664 155.709 107.009 155.457 107.448 155.28C107.887 155.103 108.391 155.014 108.96 155.014C109.287 155.014 109.604 155.047 109.912 155.112C110.22 155.168 110.509 155.257 110.78 155.378C111.06 155.49 111.303 155.639 111.508 155.826L111.032 156.974C110.855 156.825 110.649 156.699 110.416 156.596C110.183 156.484 109.94 156.4 109.688 156.344C109.445 156.279 109.207 156.246 108.974 156.246C108.517 156.246 108.176 156.325 107.952 156.484C107.737 156.643 107.63 156.853 107.63 157.114C107.63 157.31 107.695 157.473 107.826 157.604C107.957 157.735 108.157 157.823 108.428 157.87L109.828 158.136C110.435 158.248 110.892 158.453 111.2 158.752C111.517 159.051 111.676 159.452 111.676 159.956C111.676 160.413 111.555 160.805 111.312 161.132C111.069 161.459 110.729 161.711 110.29 161.888C109.851 162.056 109.338 162.14 108.75 162.14ZM115.586 162.14C115.203 162.14 114.83 162.107 114.466 162.042C114.111 161.977 113.785 161.888 113.486 161.776C113.187 161.655 112.926 161.505 112.702 161.328L113.15 160.18C113.383 160.329 113.635 160.46 113.906 160.572C114.177 160.684 114.457 160.768 114.746 160.824C115.035 160.88 115.32 160.908 115.6 160.908C116.048 160.908 116.379 160.833 116.594 160.684C116.818 160.525 116.93 160.32 116.93 160.068C116.93 159.853 116.855 159.69 116.706 159.578C116.566 159.457 116.351 159.368 116.062 159.312L114.662 159.046C114.083 158.934 113.64 158.724 113.332 158.416C113.033 158.099 112.884 157.693 112.884 157.198C112.884 156.75 113.005 156.363 113.248 156.036C113.5 155.709 113.845 155.457 114.284 155.28C114.723 155.103 115.227 155.014 115.796 155.014C116.123 155.014 116.44 155.047 116.748 155.112C117.056 155.168 117.345 155.257 117.616 155.378C117.896 155.49 118.139 155.639 118.344 155.826L117.868 156.974C117.691 156.825 117.485 156.699 117.252 156.596C117.019 156.484 116.776 156.4 116.524 156.344C116.281 156.279 116.043 156.246 115.81 156.246C115.353 156.246 115.012 156.325 114.788 156.484C114.573 156.643 114.466 156.853 114.466 157.114C114.466 157.31 114.531 157.473 114.662 157.604C114.793 157.735 114.993 157.823 115.264 157.87L116.664 158.136C117.271 158.248 117.728 158.453 118.036 158.752C118.353 159.051 118.512 159.452 118.512 159.956C118.512 160.413 118.391 160.805 118.148 161.132C117.905 161.459 117.565 161.711 117.126 161.888C116.687 162.056 116.174 162.14 115.586 162.14ZM119.804 153.684V151.976H121.764V153.684H119.804ZM119.916 162V155.154H121.666V162H119.916ZM126.676 164.66C126.042 164.66 125.444 164.585 124.884 164.436C124.334 164.296 123.848 164.077 123.428 163.778L123.932 162.56C124.194 162.728 124.469 162.868 124.758 162.98C125.048 163.101 125.342 163.19 125.64 163.246C125.939 163.302 126.238 163.33 126.536 163.33C127.162 163.33 127.628 163.176 127.936 162.868C128.254 162.569 128.412 162.121 128.412 161.524V160.264H128.538C128.398 160.74 128.104 161.123 127.656 161.412C127.218 161.692 126.718 161.832 126.158 161.832C125.542 161.832 125.006 161.692 124.548 161.412C124.091 161.123 123.736 160.721 123.484 160.208C123.232 159.695 123.106 159.097 123.106 158.416C123.106 157.735 123.232 157.142 123.484 156.638C123.736 156.125 124.091 155.728 124.548 155.448C125.006 155.159 125.542 155.014 126.158 155.014C126.737 155.014 127.241 155.159 127.67 155.448C128.109 155.728 128.394 156.101 128.524 156.568H128.412V155.154H130.12V161.314C130.12 162.051 129.99 162.667 129.728 163.162C129.467 163.666 129.08 164.039 128.566 164.282C128.053 164.534 127.423 164.66 126.676 164.66ZM126.634 160.502C127.176 160.502 127.605 160.315 127.922 159.942C128.24 159.569 128.398 159.06 128.398 158.416C128.398 157.772 128.24 157.268 127.922 156.904C127.605 156.531 127.176 156.344 126.634 156.344C126.093 156.344 125.664 156.531 125.346 156.904C125.029 157.268 124.87 157.772 124.87 158.416C124.87 159.06 125.029 159.569 125.346 159.942C125.664 160.315 126.093 160.502 126.634 160.502ZM131.933 162V155.154H133.641V156.526H133.487C133.693 156.031 134.01 155.658 134.439 155.406C134.878 155.145 135.373 155.014 135.923 155.014C136.474 155.014 136.927 155.117 137.281 155.322C137.636 155.527 137.902 155.84 138.079 156.26C138.257 156.671 138.345 157.193 138.345 157.828V162H136.595V157.912C136.595 157.557 136.549 157.268 136.455 157.044C136.371 156.82 136.236 156.657 136.049 156.554C135.872 156.442 135.643 156.386 135.363 156.386C135.027 156.386 134.733 156.461 134.481 156.61C134.229 156.75 134.033 156.955 133.893 157.226C133.753 157.487 133.683 157.795 133.683 158.15V162H131.933ZM143.497 162.14C142.722 162.14 142.055 161.995 141.495 161.706C140.935 161.417 140.501 161.006 140.193 160.474C139.894 159.942 139.745 159.312 139.745 158.584C139.745 157.875 139.89 157.254 140.179 156.722C140.478 156.19 140.884 155.775 141.397 155.476C141.92 155.168 142.512 155.014 143.175 155.014C143.828 155.014 144.388 155.154 144.855 155.434C145.322 155.714 145.681 156.111 145.933 156.624C146.194 157.137 146.325 157.749 146.325 158.458V158.976H141.159V157.968H145.093L144.869 158.178C144.869 157.543 144.729 157.058 144.449 156.722C144.169 156.377 143.768 156.204 143.245 156.204C142.853 156.204 142.517 156.297 142.237 156.484C141.966 156.661 141.756 156.918 141.607 157.254C141.467 157.581 141.397 157.973 141.397 158.43V158.528C141.397 159.041 141.476 159.466 141.635 159.802C141.794 160.138 142.032 160.39 142.349 160.558C142.666 160.726 143.058 160.81 143.525 160.81C143.908 160.81 144.29 160.754 144.673 160.642C145.056 160.521 145.406 160.334 145.723 160.082L146.213 161.258C145.886 161.529 145.476 161.743 144.981 161.902C144.486 162.061 143.992 162.14 143.497 162.14ZM150.343 162.14C149.745 162.14 149.218 161.995 148.761 161.706C148.313 161.417 147.963 161.006 147.711 160.474C147.459 159.933 147.333 159.298 147.333 158.57C147.333 157.833 147.459 157.203 147.711 156.68C147.963 156.148 148.313 155.737 148.761 155.448C149.218 155.159 149.745 155.014 150.343 155.014C150.912 155.014 151.407 155.154 151.827 155.434C152.256 155.714 152.545 156.083 152.695 156.54H152.541V152.13H154.291V162H152.583V160.544H152.709C152.569 161.029 152.284 161.417 151.855 161.706C151.425 161.995 150.921 162.14 150.343 162.14ZM150.833 160.81C151.355 160.81 151.775 160.623 152.093 160.25C152.41 159.867 152.569 159.307 152.569 158.57C152.569 157.823 152.41 157.268 152.093 156.904C151.775 156.531 151.355 156.344 150.833 156.344C150.31 156.344 149.89 156.531 149.573 156.904C149.255 157.268 149.097 157.823 149.097 158.57C149.097 159.307 149.255 159.867 149.573 160.25C149.89 160.623 150.31 160.81 150.833 160.81Z" fill="black"/>
<g id="Detail_2">
<path id="Carrier_2" d="M46.02 180L46.44 177.876H45.468V177.048H46.596L47.112 174.396H45.72V173.568H47.256L47.664 171.54H48.552L48.144 173.568H49.872L50.28 171.54H51.168L50.76 173.568H51.732V174.396H50.604L50.088 177.048H51.48V177.876H49.944L49.524 180H48.636L49.056 177.876H47.328L46.908 180H46.02ZM47.484 177.048H49.2L49.716 174.396H48L47.484 177.048ZM57.1393 180.108C56.2193 180.108 55.4433 179.936 54.8113 179.592C54.1793 179.24 53.6993 178.74 53.3713 178.092C53.0513 177.444 52.8913 176.672 52.8913 175.776C52.8913 174.88 53.0553 174.108 53.3833 173.46C53.7193 172.812 54.1953 172.312 54.8113 171.96C55.4353 171.608 56.1833 171.432 57.0553 171.432C57.4553 171.432 57.8353 171.472 58.1953 171.552C58.5553 171.624 58.8873 171.736 59.1913 171.888C59.5033 172.04 59.7753 172.228 60.0073 172.452L59.5633 173.424C59.1873 173.104 58.7953 172.876 58.3873 172.74C57.9873 172.596 57.5433 172.524 57.0553 172.524C56.1193 172.524 55.4073 172.808 54.9193 173.376C54.4313 173.936 54.1873 174.736 54.1873 175.776C54.1873 176.84 54.4393 177.648 54.9433 178.2C55.4473 178.752 56.1953 179.028 57.1873 179.028C57.5473 179.028 57.8993 178.996 58.2433 178.932C58.5953 178.86 58.9313 178.76 59.2513 178.632L58.9993 179.256V176.46H56.9353V175.524H60.0433V179.508C59.8113 179.628 59.5313 179.732 59.2033 179.82C58.8833 179.908 58.5433 179.976 58.1833 180.024C57.8313 180.08 57.4833 180.108 57.1393 180.108ZM61.9567 180V171.54H65.4607C66.3727 171.54 67.0767 171.756 67.5727 172.188C68.0687 172.62 68.3167 173.232 68.3167 174.024C68.3167 174.536 68.2047 174.976 67.9807 175.344C67.7567 175.712 67.4287 175.992 66.9967 176.184C66.5727 176.376 66.0607 176.472 65.4607 176.472L65.5687 176.304H65.8807C66.2007 176.304 66.4767 176.384 66.7087 176.544C66.9487 176.704 67.1647 176.96 67.3567 177.312L68.8207 180H67.4527L65.9887 177.3C65.8767 177.092 65.7527 176.932 65.6167 176.82C65.4887 176.7 65.3367 176.62 65.1607 176.58C64.9927 176.532 64.7927 176.508 64.5607 176.508H63.2047V180H61.9567ZM63.2047 175.572H65.2567C65.8647 175.572 66.3247 175.444 66.6367 175.188C66.9487 174.932 67.1047 174.552 67.1047 174.048C67.1047 173.552 66.9487 173.176 66.6367 172.92C66.3247 172.664 65.8647 172.536 65.2567 172.536H63.2047V175.572ZM72.6131 180L68.8811 171.54H70.2131L73.4051 178.944H72.9611L76.1411 171.54H77.4131L73.6811 180H72.6131ZM77.6095 177.288V176.304H81.0655V177.288H77.6095ZM86.2821 180V178.284H82.4781V177.36L86.4981 171.54H87.5181V177.24H88.7541V178.284H87.5181V180H86.2821ZM86.2821 177.24V173.028H86.6061L83.4861 177.576V177.24H86.2821ZM92.7094 180.108C91.7414 180.108 90.9854 179.9 90.4414 179.484C89.9054 179.068 89.6374 178.488 89.6374 177.744C89.6374 177.344 89.7174 176.992 89.8774 176.688C90.0374 176.376 90.2614 176.124 90.5494 175.932C90.8374 175.74 91.1694 175.62 91.5454 175.572V175.788C91.2014 175.716 90.9014 175.584 90.6454 175.392C90.3894 175.192 90.1894 174.948 90.0454 174.66C89.9094 174.364 89.8414 174.04 89.8414 173.688C89.8414 172.984 90.1014 172.432 90.6214 172.032C91.1414 171.632 91.8374 171.432 92.7094 171.432C93.5894 171.432 94.2894 171.632 94.8094 172.032C95.3294 172.432 95.5894 172.984 95.5894 173.688C95.5894 174.04 95.5174 174.364 95.3734 174.66C95.2374 174.948 95.0414 175.192 94.7854 175.392C94.5294 175.584 94.2294 175.712 93.8854 175.776V175.572C94.2694 175.62 94.6014 175.744 94.8814 175.944C95.1614 176.136 95.3814 176.384 95.5414 176.688C95.7014 176.992 95.7814 177.344 95.7814 177.744C95.7814 178.488 95.5094 179.068 94.9654 179.484C94.4294 179.9 93.6774 180.108 92.7094 180.108ZM92.7094 179.124C93.3414 179.124 93.8174 179.004 94.1374 178.764C94.4574 178.516 94.6174 178.148 94.6174 177.66C94.6174 177.172 94.4574 176.808 94.1374 176.568C93.8174 176.328 93.3414 176.208 92.7094 176.208C92.0854 176.208 91.6094 176.328 91.2814 176.568C90.9614 176.808 90.8014 177.172 90.8014 177.66C90.8014 178.148 90.9614 178.516 91.2814 178.764C91.6094 179.004 92.0854 179.124 92.7094 179.124ZM92.7094 175.224C93.2454 175.224 93.6614 175.1 93.9574 174.852C94.2614 174.596 94.4134 174.248 94.4134 173.808C94.4134 173.376 94.2614 173.036 93.9574 172.788C93.6614 172.54 93.2454 172.416 92.7094 172.416C92.1734 172.416 91.7574 172.54 91.4614 172.788C91.1654 173.036 91.0174 173.376 91.0174 173.808C91.0174 174.248 91.1654 174.596 91.4614 174.852C91.7574 175.1 92.1734 175.224 92.7094 175.224ZM97.3247 180V179.076L100.145 176.052C100.409 175.764 100.621 175.5 100.781 175.26C100.941 175.012 101.057 174.776 101.129 174.552C101.209 174.32 101.249 174.088 101.249 173.856C101.249 173.408 101.113 173.068 100.841 172.836C100.569 172.604 100.169 172.488 99.6407 172.488C99.2327 172.488 98.8447 172.564 98.4767 172.716C98.1167 172.868 97.7727 173.1 97.4447 173.412L97.0007 172.464C97.3207 172.152 97.7287 171.904 98.2247 171.72C98.7207 171.528 99.2367 171.432 99.7727 171.432C100.357 171.432 100.849 171.524 101.249 171.708C101.657 171.884 101.965 172.144 102.173 172.488C102.381 172.832 102.485 173.252 102.485 173.748C102.485 174.004 102.453 174.256 102.389 174.504C102.333 174.744 102.241 174.984 102.113 175.224C101.993 175.464 101.837 175.712 101.645 175.968C101.461 176.224 101.237 176.488 100.973 176.76L98.5607 179.304V178.956H102.821V180H97.3247ZM106.968 180.108C106.592 180.108 106.224 180.072 105.864 180C105.512 179.92 105.18 179.808 104.868 179.664C104.564 179.512 104.296 179.332 104.064 179.124L104.496 178.164C104.872 178.468 105.26 178.692 105.66 178.836C106.06 178.98 106.484 179.052 106.932 179.052C107.316 179.052 107.64 178.996 107.904 178.884C108.168 178.772 108.364 178.608 108.492 178.392C108.628 178.176 108.696 177.916 108.696 177.612C108.696 177.156 108.544 176.816 108.24 176.592C107.944 176.36 107.512 176.244 106.944 176.244H105.636V175.2H106.824C107.168 175.2 107.46 175.144 107.7 175.032C107.94 174.912 108.124 174.748 108.252 174.54C108.388 174.324 108.456 174.064 108.456 173.76C108.456 173.352 108.32 173.04 108.048 172.824C107.784 172.6 107.396 172.488 106.884 172.488C106.452 172.488 106.052 172.564 105.684 172.716C105.316 172.868 104.968 173.1 104.64 173.412L104.208 172.464C104.536 172.136 104.944 171.884 105.432 171.708C105.928 171.524 106.444 171.432 106.98 171.432C107.54 171.432 108.02 171.52 108.42 171.696C108.828 171.872 109.136 172.124 109.344 172.452C109.56 172.78 109.668 173.172 109.668 173.628C109.668 174.14 109.524 174.584 109.236 174.96C108.956 175.328 108.568 175.572 108.072 175.692V175.56C108.464 175.624 108.796 175.752 109.068 175.944C109.34 176.136 109.548 176.38 109.692 176.676C109.836 176.972 109.908 177.312 109.908 177.696C109.908 178.192 109.788 178.624 109.548 178.992C109.316 179.352 108.98 179.628 108.54 179.82C108.1 180.012 107.576 180.108 106.968 180.108ZM112.099 180V178.956H114.019V172.596H114.643L112.519 173.916L112.015 172.992L114.379 171.54H115.255V178.956H117.055V180H112.099ZM118.731 177.288V176.304H122.187V177.288H118.731ZM122.945 180L126.713 171.54H127.745L131.525 180H130.253L129.221 177.6L129.785 177.936H124.673L125.225 177.6L124.205 180H122.945ZM127.217 172.92L125.405 177.216L125.105 176.928H129.341L129.065 177.216L127.241 172.92H127.217ZM133.052 180V178.956H134.972V172.596H135.596L133.472 173.916L132.968 172.992L135.332 171.54H136.208V178.956H138.008V180H133.052Z" fill="#737682"/>
</g>
</g>
<g id="Badge-status-shipment_2">
<rect x="209.25" y="148" width="83" height="24" rx="12" fill="#F5F5F6"/>
<circle id="Color Indicator_2" cx="223.25" cy="160" r="4" fill="#28C76F"/>
<path id="Label_2" d="M231.382 164L235.15 155.54H236.182L239.962 164H238.69L237.658 161.6L238.222 161.936H233.11L233.662 161.6L232.642 164H231.382ZM235.654 156.92L233.842 161.216L233.542 160.928H237.778L237.502 161.216L235.678 156.92H235.654ZM242.908 164.108C242.596 164.108 242.292 164.08 241.996 164.024C241.7 163.968 241.428 163.888 241.18 163.784C240.932 163.68 240.712 163.552 240.52 163.4L240.868 162.584C241.068 162.72 241.28 162.84 241.504 162.944C241.728 163.04 241.96 163.112 242.2 163.16C242.448 163.208 242.688 163.232 242.92 163.232C243.344 163.232 243.664 163.156 243.88 163.004C244.096 162.852 244.204 162.648 244.204 162.392C244.204 162.184 244.132 162.024 243.988 161.912C243.844 161.792 243.628 161.7 243.34 161.636L242.2 161.408C241.704 161.304 241.328 161.12 241.072 160.856C240.816 160.592 240.688 160.256 240.688 159.848C240.688 159.48 240.788 159.16 240.988 158.888C241.188 158.616 241.468 158.408 241.828 158.264C242.188 158.112 242.604 158.036 243.076 158.036C243.348 158.036 243.612 158.064 243.868 158.12C244.124 158.176 244.364 158.256 244.588 158.36C244.82 158.464 245.016 158.596 245.176 158.756L244.828 159.572C244.676 159.436 244.5 159.32 244.3 159.224C244.108 159.128 243.908 159.056 243.7 159.008C243.492 158.952 243.284 158.924 243.076 158.924C242.652 158.924 242.332 159.004 242.116 159.164C241.908 159.316 241.804 159.524 241.804 159.788C241.804 159.988 241.868 160.152 241.996 160.28C242.124 160.408 242.324 160.5 242.596 160.556L243.736 160.784C244.256 160.888 244.648 161.064 244.912 161.312C245.184 161.56 245.32 161.896 245.32 162.32C245.32 162.688 245.22 163.008 245.02 163.28C244.82 163.552 244.536 163.76 244.168 163.904C243.808 164.04 243.388 164.108 242.908 164.108ZM248.72 164.108C248.408 164.108 248.104 164.08 247.808 164.024C247.512 163.968 247.24 163.888 246.992 163.784C246.744 163.68 246.524 163.552 246.332 163.4L246.68 162.584C246.88 162.72 247.092 162.84 247.316 162.944C247.54 163.04 247.772 163.112 248.012 163.16C248.26 163.208 248.5 163.232 248.732 163.232C249.156 163.232 249.476 163.156 249.692 163.004C249.908 162.852 250.016 162.648 250.016 162.392C250.016 162.184 249.944 162.024 249.8 161.912C249.656 161.792 249.44 161.7 249.152 161.636L248.012 161.408C247.516 161.304 247.14 161.12 246.884 160.856C246.628 160.592 246.5 160.256 246.5 159.848C246.5 159.48 246.6 159.16 246.8 158.888C247 158.616 247.28 158.408 247.64 158.264C248 158.112 248.416 158.036 248.888 158.036C249.16 158.036 249.424 158.064 249.68 158.12C249.936 158.176 250.176 158.256 250.4 158.36C250.632 158.464 250.828 158.596 250.988 158.756L250.64 159.572C250.488 159.436 250.312 159.32 250.112 159.224C249.92 159.128 249.72 159.056 249.512 159.008C249.304 158.952 249.096 158.924 248.888 158.924C248.464 158.924 248.144 159.004 247.928 159.164C247.72 159.316 247.616 159.524 247.616 159.788C247.616 159.988 247.68 160.152 247.808 160.28C247.936 160.408 248.136 160.5 248.408 160.556L249.548 160.784C250.068 160.888 250.46 161.064 250.724 161.312C250.996 161.56 251.132 161.896 251.132 162.32C251.132 162.688 251.032 163.008 250.832 163.28C250.632 163.552 250.348 163.76 249.98 163.904C249.62 164.04 249.2 164.108 248.72 164.108ZM252.373 156.788V155.528H253.789V156.788H252.373ZM252.481 164V158.144H253.693V164H252.481ZM255.399 164V158.144H256.575V159.392H256.443C256.619 158.944 256.895 158.608 257.271 158.384C257.647 158.152 258.079 158.036 258.567 158.036C259.031 158.036 259.415 158.124 259.719 158.3C260.031 158.468 260.263 158.728 260.415 159.08C260.567 159.424 260.643 159.86 260.643 160.388V164H259.431V160.46C259.431 160.124 259.387 159.852 259.299 159.644C259.211 159.428 259.079 159.268 258.903 159.164C258.727 159.06 258.499 159.008 258.219 159.008C257.899 159.008 257.615 159.076 257.367 159.212C257.127 159.348 256.939 159.544 256.803 159.8C256.675 160.056 256.611 160.352 256.611 160.688V164H255.399ZM264.965 166.268C264.437 166.268 263.945 166.204 263.489 166.076C263.033 165.948 262.629 165.756 262.277 165.5L262.649 164.636C262.881 164.788 263.117 164.916 263.357 165.02C263.605 165.132 263.853 165.212 264.101 165.26C264.357 165.308 264.617 165.332 264.881 165.332C265.441 165.332 265.861 165.188 266.141 164.9C266.421 164.62 266.561 164.204 266.561 163.652V162.428H266.669C266.549 162.868 266.297 163.216 265.913 163.472C265.529 163.728 265.085 163.856 264.581 163.856C264.053 163.856 263.593 163.736 263.201 163.496C262.809 163.248 262.505 162.908 262.289 162.476C262.073 162.036 261.965 161.524 261.965 160.94C261.965 160.356 262.073 159.848 262.289 159.416C262.505 158.984 262.809 158.648 263.201 158.408C263.593 158.16 264.053 158.036 264.581 158.036C265.093 158.036 265.537 158.164 265.913 158.42C266.297 158.676 266.545 159.024 266.657 159.464H266.561V158.144H267.737V163.508C267.737 164.116 267.633 164.624 267.425 165.032C267.217 165.448 266.905 165.756 266.489 165.956C266.081 166.164 265.573 166.268 264.965 166.268ZM264.869 162.908C265.389 162.908 265.797 162.732 266.093 162.38C266.397 162.028 266.549 161.548 266.549 160.94C266.549 160.34 266.397 159.864 266.093 159.512C265.797 159.16 265.389 158.984 264.869 158.984C264.357 158.984 263.949 159.16 263.645 159.512C263.341 159.864 263.189 160.34 263.189 160.94C263.189 161.548 263.341 162.028 263.645 162.38C263.949 162.732 264.357 162.908 264.869 162.908ZM272.186 164.108C271.546 164.108 270.994 163.988 270.53 163.748C270.074 163.5 269.718 163.152 269.462 162.704C269.214 162.248 269.09 161.708 269.09 161.084C269.09 160.476 269.214 159.944 269.462 159.488C269.71 159.032 270.05 158.676 270.482 158.42C270.914 158.164 271.406 158.036 271.958 158.036C272.502 158.036 272.966 158.156 273.35 158.396C273.742 158.628 274.042 158.96 274.25 159.392C274.458 159.824 274.562 160.34 274.562 160.94V161.348H270.05V160.604H273.746L273.542 160.772C273.542 160.172 273.41 159.708 273.146 159.38C272.882 159.052 272.502 158.888 272.006 158.888C271.63 158.888 271.31 158.976 271.046 159.152C270.79 159.328 270.594 159.572 270.458 159.884C270.322 160.196 270.254 160.56 270.254 160.976V161.048C270.254 161.512 270.326 161.904 270.47 162.224C270.622 162.536 270.842 162.772 271.13 162.932C271.418 163.092 271.774 163.172 272.198 163.172C272.534 163.172 272.862 163.12 273.182 163.016C273.51 162.904 273.818 162.732 274.106 162.5L274.466 163.34C274.202 163.58 273.862 163.768 273.446 163.904C273.03 164.04 272.61 164.108 272.186 164.108ZM278.115 164.108C277.603 164.108 277.151 163.988 276.759 163.748C276.375 163.5 276.075 163.148 275.859 162.692C275.643 162.228 275.535 161.688 275.535 161.072C275.535 160.44 275.643 159.9 275.859 159.452C276.075 159.004 276.375 158.656 276.759 158.408C277.151 158.16 277.603 158.036 278.115 158.036C278.627 158.036 279.067 158.164 279.435 158.42C279.811 158.668 280.063 159.004 280.191 159.428H280.059V155.54H281.271V164H280.083V162.68H280.203C280.075 163.112 279.823 163.46 279.447 163.724C279.079 163.98 278.635 164.108 278.115 164.108ZM278.427 163.172C278.923 163.172 279.323 162.992 279.627 162.632C279.931 162.272 280.083 161.752 280.083 161.072C280.083 160.384 279.931 159.864 279.627 159.512C279.323 159.16 278.923 158.984 278.427 158.984C277.923 158.984 277.519 159.16 277.215 159.512C276.911 159.864 276.759 160.384 276.759 161.072C276.759 161.752 276.911 162.272 277.215 162.632C277.519 162.992 277.923 163.172 278.427 163.172Z" fill="black"/>
</g>
</g>
</g>
</g>
</g>
</svg>
