<svg width="300" height="200" viewBox="0 0 300 200" fill="none" xmlns="http://www.w3.org/2000/svg">
<g id="Card Shipment">
<rect width="300" height="199.906" rx="14.0625" fill="white"/>
<g id="Body">
<g id="Frame 1707480568">
<g id="Frame 2147223150">
<g id="Info Origin">
<g id="Main">
<g id="Time">
<path d="M22.3172 35.7656V25.8516H23.4703V34.7531H28.5187V35.7656H22.3172ZM31.9496 35.8922C31.4808 35.8922 31.0589 35.8031 30.6839 35.625C30.3183 35.4375 30.0277 35.1844 29.8121 34.8656C29.5964 34.5469 29.4886 34.1906 29.4886 33.7969C29.4886 33.2906 29.6152 32.8922 29.8683 32.6016C30.1308 32.3109 30.5574 32.1047 31.148 31.9828C31.748 31.8609 32.5636 31.8 33.5949 31.8H34.2277V32.5453H33.6089C33.0371 32.5453 32.5589 32.5641 32.1746 32.6016C31.7902 32.6391 31.4855 32.7047 31.2605 32.7984C31.0355 32.8922 30.8761 33.0141 30.7824 33.1641C30.6886 33.3141 30.6417 33.5016 30.6417 33.7266C30.6417 34.1109 30.773 34.425 31.0355 34.6687C31.3074 34.9125 31.673 35.0344 32.1324 35.0344C32.5074 35.0344 32.8355 34.9453 33.1167 34.7672C33.4074 34.5891 33.6324 34.3453 33.7917 34.0359C33.9605 33.7266 34.0449 33.3703 34.0449 32.9672V31.3641C34.0449 30.7828 33.9277 30.3656 33.6933 30.1125C33.4589 29.85 33.0746 29.7187 32.5402 29.7187C32.1277 29.7187 31.7292 29.7797 31.3449 29.9016C30.9605 30.0141 30.5667 30.2016 30.1636 30.4641L29.7699 29.6344C30.0136 29.4656 30.2902 29.3203 30.5996 29.1984C30.9089 29.0672 31.2324 28.9687 31.5699 28.9031C31.9074 28.8375 32.2308 28.8047 32.5402 28.8047C33.1308 28.8047 33.6183 28.9031 34.0027 29.1C34.3871 29.2875 34.673 29.5781 34.8605 29.9719C35.048 30.3562 35.1417 30.8531 35.1417 31.4625V35.7656H34.073V34.1766H34.1996C34.1246 34.5328 33.9792 34.8375 33.7636 35.0906C33.5574 35.3437 33.2996 35.5406 32.9902 35.6812C32.6808 35.8219 32.3339 35.8922 31.9496 35.8922ZM37.255 35.7656V28.9312H38.3659V30.45H38.2112C38.4081 29.9062 38.7268 29.4984 39.1675 29.2266C39.6175 28.9453 40.1331 28.8047 40.7143 28.8047C41.2581 28.8047 41.7081 28.9031 42.0643 29.1C42.43 29.2875 42.7018 29.5828 42.88 29.9859C43.0581 30.3891 43.1472 30.8953 43.1472 31.5047V35.7656H42.0081V31.575C42.0081 31.1531 41.9518 30.8062 41.8393 30.5344C41.7362 30.2625 41.5675 30.0609 41.3331 29.9297C41.1081 29.7984 40.8128 29.7328 40.4472 29.7328C40.0347 29.7328 39.6737 29.8219 39.3643 30C39.055 30.1781 38.8159 30.4266 38.6472 30.7453C38.4784 31.0641 38.394 31.4391 38.394 31.8703V35.7656H37.255ZM48.3272 35.8922C47.6053 35.8922 46.9819 35.7516 46.4569 35.4703C45.9413 35.1797 45.5381 34.7719 45.2475 34.2469C44.9663 33.7219 44.8256 33.0937 44.8256 32.3625C44.8256 31.65 44.9663 31.0312 45.2475 30.5062C45.5288 29.9719 45.9131 29.5547 46.4006 29.2547C46.8975 28.9547 47.4694 28.8047 48.1163 28.8047C48.735 28.8047 49.2647 28.9406 49.7053 29.2125C50.146 29.4844 50.4835 29.8687 50.7178 30.3656C50.9616 30.8625 51.0835 31.4578 51.0835 32.1516V32.5875H45.6975V31.8422H50.3241L50.0991 32.025C50.0991 31.275 49.9303 30.6937 49.5928 30.2812C49.2647 29.8594 48.7819 29.6484 48.1444 29.6484C47.6663 29.6484 47.2585 29.7609 46.921 29.9859C46.5928 30.2016 46.3444 30.5062 46.1756 30.9C46.0069 31.2844 45.9225 31.7344 45.9225 32.25V32.3344C45.9225 32.9062 46.0116 33.3891 46.1897 33.7828C46.3772 34.1766 46.6538 34.4766 47.0194 34.6828C47.385 34.8797 47.821 34.9781 48.3272 34.9781C48.7303 34.9781 49.1194 34.9172 49.4944 34.7953C49.8788 34.6641 50.2397 34.4531 50.5772 34.1625L50.971 34.9641C50.6616 35.2453 50.2678 35.4703 49.7897 35.6391C49.3116 35.8078 48.8241 35.8922 48.3272 35.8922ZM160.98 35.8922C160.23 35.8922 159.592 35.7 159.067 35.3156C158.552 34.9219 158.163 34.3453 157.9 33.5859C157.638 32.8266 157.506 31.8984 157.506 30.8016C157.506 29.6953 157.638 28.7672 157.9 28.0172C158.163 27.2578 158.552 26.6859 159.067 26.3016C159.592 25.9172 160.23 25.725 160.98 25.725C161.739 25.725 162.377 25.9172 162.892 26.3016C163.408 26.6859 163.797 27.2531 164.06 28.0031C164.322 28.7531 164.453 29.6812 164.453 30.7875C164.453 31.8937 164.322 32.8266 164.06 33.5859C163.797 34.3453 163.408 34.9219 162.892 35.3156C162.377 35.7 161.739 35.8922 160.98 35.8922ZM160.98 34.8937C161.767 34.8937 162.349 34.5609 162.724 33.8953C163.108 33.2297 163.3 32.1937 163.3 30.7875C163.3 29.3812 163.113 28.3547 162.738 27.7078C162.363 27.0516 161.777 26.7234 160.98 26.7234C160.202 26.7234 159.621 27.0516 159.236 27.7078C158.852 28.3641 158.66 29.3906 158.66 30.7875C158.66 32.1937 158.847 33.2297 159.222 33.8953C159.606 34.5609 160.192 34.8937 160.98 34.8937ZM166.079 35.7656V34.3312H167.513V35.7656H166.079ZM172.612 35.8922C171.496 35.8922 170.629 35.6531 170.01 35.175C169.391 34.6875 169.082 34.0078 169.082 33.1359C169.082 32.6766 169.176 32.2687 169.363 31.9125C169.551 31.5469 169.813 31.2516 170.151 31.0266C170.488 30.8016 170.877 30.6609 171.318 30.6047V30.8156C170.915 30.7219 170.563 30.5625 170.263 30.3375C169.963 30.1031 169.729 29.8172 169.56 29.4797C169.401 29.1422 169.321 28.7719 169.321 28.3687C169.321 27.5344 169.616 26.8875 170.207 26.4281C170.807 25.9594 171.609 25.725 172.612 25.725C173.624 25.725 174.426 25.9594 175.016 26.4281C175.616 26.8875 175.916 27.5344 175.916 28.3687C175.916 28.7719 175.832 29.1469 175.663 29.4937C175.504 29.8312 175.274 30.1125 174.974 30.3375C174.674 30.5625 174.323 30.7172 173.92 30.8016V30.6047C174.36 30.6609 174.745 30.8062 175.073 31.0406C175.41 31.2656 175.673 31.5562 175.86 31.9125C176.048 32.2687 176.141 32.6766 176.141 33.1359C176.141 34.0078 175.832 34.6875 175.213 35.175C174.595 35.6531 173.727 35.8922 172.612 35.8922ZM172.612 34.9359C173.409 34.9359 174.009 34.7812 174.412 34.4719C174.824 34.1625 175.03 33.6937 175.03 33.0656C175.03 32.4469 174.824 31.9875 174.412 31.6875C174.009 31.3781 173.409 31.2234 172.612 31.2234C171.824 31.2234 171.224 31.3781 170.812 31.6875C170.399 31.9875 170.193 32.4469 170.193 33.0656C170.193 33.6937 170.399 34.1625 170.812 34.4719C171.224 34.7812 171.824 34.9359 172.612 34.9359ZM172.612 30.2672C173.305 30.2672 173.845 30.1078 174.229 29.7891C174.613 29.4703 174.805 29.0297 174.805 28.4672C174.805 27.9047 174.613 27.4687 174.229 27.1594C173.845 26.8406 173.305 26.6812 172.612 26.6812C171.927 26.6812 171.393 26.8406 171.009 27.1594C170.624 27.4687 170.432 27.9047 170.432 28.4672C170.432 29.0297 170.624 29.4703 171.009 29.7891C171.393 30.1078 171.927 30.2672 172.612 30.2672ZM181.505 35.7656V25.8516H182.645V31.9687H182.673L185.837 28.9312H187.285L183.53 32.5312V31.9125L187.58 35.7656H186.132L182.673 32.5594H182.645V35.7656H181.505ZM191.382 38.4234C190.791 38.4234 190.233 38.3438 189.708 38.1844C189.193 38.0344 188.733 37.8047 188.33 37.4953L188.71 36.6656C188.991 36.8625 189.268 37.0219 189.539 37.1438C189.821 37.275 190.107 37.3688 190.397 37.425C190.697 37.4813 191.007 37.5094 191.325 37.5094C191.991 37.5094 192.493 37.3313 192.83 36.975C193.177 36.6188 193.35 36.1031 193.35 35.4281V33.8391H193.491C193.35 34.3828 193.05 34.8141 192.591 35.1328C192.141 35.4516 191.611 35.6109 191.002 35.6109C190.374 35.6109 189.83 35.4703 189.371 35.1891C188.911 34.8984 188.555 34.4953 188.302 33.9797C188.058 33.4641 187.936 32.8687 187.936 32.1937C187.936 31.5187 188.058 30.9281 188.302 30.4219C188.555 29.9062 188.911 29.5078 189.371 29.2266C189.83 28.9453 190.374 28.8047 191.002 28.8047C191.621 28.8047 192.155 28.9641 192.605 29.2828C193.055 29.5922 193.346 30.0141 193.477 30.5484H193.35V28.9312H194.461V35.2734C194.461 35.9672 194.344 36.5484 194.11 37.0172C193.885 37.4859 193.543 37.8375 193.083 38.0719C192.624 38.3063 192.057 38.4234 191.382 38.4234ZM191.213 34.6828C191.869 34.6828 192.389 34.4578 192.774 34.0078C193.158 33.5578 193.35 32.9531 193.35 32.1937C193.35 31.4344 193.158 30.8344 192.774 30.3937C192.389 29.9437 191.869 29.7187 191.213 29.7187C190.566 29.7187 190.05 29.9437 189.666 30.3937C189.282 30.8344 189.089 31.4344 189.089 32.1937C189.089 32.9531 189.282 33.5578 189.666 34.0078C190.05 34.4578 190.566 34.6828 191.213 34.6828Z" fill="#6D6B77"/>
<path d="M56.187 32.8547V31.1812H57.8605V32.8547H56.187ZM63.5699 35.7656V25.8516H64.7933L68.6886 33.1078H68.2527L72.1199 25.8516H73.3152V35.7656H72.0074V27.9187H72.3167L68.8995 34.2469H68.0136L64.5542 27.9047H64.8917V35.7656H63.5699ZM77.9464 35.8922C77.3932 35.8922 76.9292 35.7891 76.5542 35.5828C76.1885 35.3766 75.912 35.0719 75.7245 34.6687C75.5464 34.2562 75.4573 33.7406 75.4573 33.1219V28.9031H76.8776V33.1359C76.8776 33.5016 76.9245 33.8062 77.0182 34.05C77.1214 34.2937 77.276 34.4719 77.4823 34.5844C77.6979 34.6969 77.9651 34.7531 78.2839 34.7531C78.6401 34.7531 78.9542 34.6734 79.226 34.5141C79.4979 34.3547 79.7089 34.125 79.8589 33.825C80.0089 33.525 80.0839 33.1781 80.0839 32.7844V28.9031H81.5042V35.7656H80.126V34.2609H80.3089C80.1214 34.7859 79.8214 35.1891 79.4089 35.4703C78.9964 35.7516 78.5089 35.8922 77.9464 35.8922ZM83.5339 35.7656V28.9031H84.912V30.3656H84.7573C84.8792 30.0281 85.0479 29.7422 85.2636 29.5078C85.4792 29.2734 85.737 29.0953 86.037 28.9734C86.3464 28.8422 86.6839 28.7766 87.0495 28.7766C87.6214 28.7766 88.0854 28.9125 88.4417 29.1844C88.7979 29.4562 89.0417 29.8734 89.1729 30.4359H88.9761C89.1542 29.9203 89.4589 29.5172 89.8901 29.2266C90.3214 28.9266 90.8229 28.7766 91.3948 28.7766C91.9198 28.7766 92.3511 28.8797 92.6886 29.0859C93.0261 29.2828 93.2792 29.5875 93.448 30C93.6167 30.4031 93.7011 30.9141 93.7011 31.5328V35.7656H92.2808V31.6031C92.2808 31.0219 92.1776 30.5953 91.9714 30.3234C91.7745 30.0516 91.4464 29.9156 90.987 29.9156C90.6495 29.9156 90.3542 29.9953 90.1011 30.1547C89.8479 30.3141 89.6511 30.5484 89.5104 30.8578C89.3792 31.1578 89.3136 31.5141 89.3136 31.9266V35.7656H87.8933V31.6031C87.8933 31.0219 87.7948 30.5953 87.5979 30.3234C87.4011 30.0516 87.0729 29.9156 86.6136 29.9156C86.2667 29.9156 85.9667 29.9953 85.7136 30.1547C85.4698 30.3141 85.2823 30.5484 85.1511 30.8578C85.0198 31.1578 84.9542 31.5141 84.9542 31.9266V35.7656H83.5339ZM103.871 32.7281C103.984 32.4656 104.101 32.2266 104.223 32.0109C104.345 31.7953 104.471 31.6031 104.602 31.4344H96.8259V30.4781H104.602C104.471 30.3094 104.345 30.1172 104.223 29.9016C104.101 29.6766 103.984 29.4375 103.871 29.1844H104.729C105.31 29.8687 105.938 30.3797 106.613 30.7172V31.1953C105.948 31.5234 105.32 32.0344 104.729 32.7281H103.871ZM108.723 35.8781L108.61 34.6828L109.524 34.6266C109.834 34.5984 110.087 34.5234 110.284 34.4016C110.481 34.2703 110.631 34.0922 110.734 33.8672C110.846 33.6422 110.902 33.3703 110.902 33.0516V25.8516H112.351V33.0516C112.351 33.6141 112.252 34.0969 112.056 34.5C111.859 34.9031 111.563 35.2125 111.17 35.4281C110.785 35.6437 110.307 35.775 109.735 35.8219L108.723 35.8781ZM116.695 35.8922C116.217 35.8922 115.785 35.7984 115.401 35.6109C115.026 35.4234 114.731 35.1703 114.515 34.8516C114.299 34.5328 114.192 34.1719 114.192 33.7687C114.192 33.2625 114.318 32.8641 114.571 32.5734C114.834 32.2734 115.26 32.0625 115.851 31.9406C116.451 31.8094 117.257 31.7437 118.27 31.7437H118.931V32.6156H118.284C117.778 32.6156 117.351 32.6344 117.004 32.6719C116.657 32.7094 116.381 32.7703 116.174 32.8547C115.968 32.9297 115.818 33.0375 115.724 33.1781C115.64 33.3187 115.598 33.4875 115.598 33.6844C115.598 34.0406 115.72 34.3312 115.963 34.5562C116.207 34.7719 116.545 34.8797 116.976 34.8797C117.323 34.8797 117.628 34.8 117.89 34.6406C118.153 34.4719 118.359 34.2469 118.509 33.9656C118.668 33.6844 118.748 33.3609 118.748 32.9953V31.3781C118.748 30.8437 118.635 30.4594 118.41 30.225C118.185 29.9906 117.815 29.8734 117.299 29.8734C116.906 29.8734 116.512 29.9344 116.118 30.0562C115.724 30.1687 115.321 30.3516 114.909 30.6047L114.473 29.6062C114.717 29.4375 114.998 29.2922 115.317 29.1703C115.635 29.0484 115.968 28.9547 116.315 28.8891C116.671 28.8141 117.013 28.7766 117.342 28.7766C117.97 28.7766 118.485 28.875 118.888 29.0719C119.301 29.2687 119.606 29.5687 119.803 29.9719C119.999 30.375 120.098 30.8953 120.098 31.5328V35.7656H118.762V34.2328H118.888C118.813 34.5797 118.673 34.8797 118.467 35.1328C118.27 35.3766 118.021 35.5641 117.721 35.6953C117.421 35.8266 117.079 35.8922 116.695 35.8922ZM121.927 27.3141V25.8375H123.587V27.3141H121.927ZM122.054 35.7656V28.9031H123.474V35.7656H122.054ZM125.474 38.2969V28.9031H126.866V30.45H126.711C126.861 29.9437 127.156 29.5406 127.597 29.2406C128.038 28.9312 128.558 28.7766 129.158 28.7766C129.767 28.7766 130.297 28.9219 130.747 29.2125C131.206 29.5031 131.558 29.9109 131.802 30.4359C132.055 30.9609 132.181 31.5937 132.181 32.3344C132.181 33.0562 132.055 33.6891 131.802 34.2328C131.558 34.7672 131.211 35.1797 130.761 35.4703C130.311 35.7516 129.777 35.8922 129.158 35.8922C128.567 35.8922 128.052 35.7422 127.611 35.4422C127.17 35.1422 126.875 34.7437 126.725 34.2469H126.894V38.2969H125.474ZM128.806 34.7953C129.397 34.7953 129.866 34.5844 130.213 34.1625C130.569 33.7406 130.747 33.1312 130.747 32.3344C130.747 31.5281 130.569 30.9187 130.213 30.5062C129.866 30.0937 129.397 29.8875 128.806 29.8875C128.225 29.8875 127.756 30.0937 127.4 30.5062C127.044 30.9187 126.866 31.5281 126.866 32.3344C126.866 33.1312 127.044 33.7406 127.4 34.1625C127.756 34.5844 128.225 34.7953 128.806 34.7953ZM136.229 35.8922C135.676 35.8922 135.212 35.7891 134.837 35.5828C134.471 35.3766 134.194 35.0719 134.007 34.6687C133.829 34.2562 133.74 33.7406 133.74 33.1219V28.9031H135.16V33.1359C135.16 33.5016 135.207 33.8062 135.301 34.05C135.404 34.2937 135.559 34.4719 135.765 34.5844C135.98 34.6969 136.248 34.7531 136.566 34.7531C136.923 34.7531 137.237 34.6734 137.509 34.5141C137.78 34.3547 137.991 34.125 138.141 33.825C138.291 33.525 138.366 33.1781 138.366 32.7844V28.9031H139.787V35.7656H138.409V34.2609H138.591C138.404 34.7859 138.104 35.1891 137.691 35.4703C137.279 35.7516 136.791 35.8922 136.229 35.8922ZM141.788 35.7656V28.9031H143.166V30.5484H143.026C143.176 29.9859 143.443 29.5594 143.827 29.2687C144.221 28.9781 144.741 28.8094 145.388 28.7625L145.852 28.7344L145.951 29.9437L145.093 30.0281C144.484 30.0844 144.019 30.2766 143.701 30.6047C143.382 30.9328 143.223 31.3828 143.223 31.9547V35.7656H141.788ZM150.56 32.8547V31.1812H152.233V32.8547H150.56Z" fill="#444050"/>
</g>
<g id="Cell-Status">
<g id="Badge-status-shipment">
<rect x="217.156" y="18.75" width="61.75" height="24.0313" rx="12.0156" fill="#FEF6E1"/>
<path id="Label" d="M227.588 35.2656V26.1777H231.352C232.332 26.1777 233.088 26.4098 233.621 26.8738C234.154 27.3379 234.42 27.9953 234.42 28.8461C234.42 29.3961 234.3 29.8687 234.059 30.2641C233.819 30.6594 233.466 30.9602 233.002 31.1664C232.547 31.3727 231.997 31.4758 231.352 31.4758L231.468 31.2953H231.804C232.147 31.2953 232.444 31.3812 232.693 31.5531C232.951 31.725 233.183 32 233.389 32.3781L234.962 35.2656H233.492L231.92 32.3652C231.799 32.1418 231.666 31.9699 231.52 31.8496C231.382 31.7207 231.219 31.6348 231.03 31.5918C230.85 31.5402 230.635 31.5145 230.386 31.5145H228.929V35.2656H227.588ZM228.929 30.509H231.133C231.786 30.509 232.28 30.3715 232.616 30.0965C232.951 29.8215 233.118 29.4133 233.118 28.8719C233.118 28.3391 232.951 27.9352 232.616 27.6602C232.28 27.3852 231.786 27.2477 231.133 27.2477H228.929V30.509ZM238.752 35.3816C238.116 35.3816 237.566 35.2484 237.102 34.982C236.647 34.7156 236.29 34.3375 236.032 33.8477C235.774 33.3578 235.645 32.782 235.645 32.1203C235.645 31.45 235.774 30.8742 236.032 30.393C236.29 29.9031 236.647 29.525 237.102 29.2586C237.566 28.9922 238.116 28.859 238.752 28.859C239.379 28.859 239.921 28.9922 240.376 29.2586C240.84 29.525 241.201 29.9031 241.459 30.393C241.717 30.8828 241.846 31.4586 241.846 32.1203C241.846 32.782 241.717 33.3578 241.459 33.8477C241.201 34.3375 240.84 34.7156 240.376 34.982C239.921 35.2484 239.379 35.3816 238.752 35.3816ZM238.739 34.3762C239.281 34.3762 239.715 34.1828 240.041 33.7961C240.368 33.4094 240.531 32.8508 240.531 32.1203C240.531 31.3812 240.368 30.8227 240.041 30.4445C239.715 30.0664 239.281 29.8773 238.739 29.8773C238.206 29.8773 237.777 30.0664 237.45 30.4445C237.124 30.8227 236.96 31.3812 236.96 32.1203C236.96 32.8508 237.124 33.4094 237.45 33.7961C237.777 34.1828 238.206 34.3762 238.739 34.3762ZM245.551 35.3816C245.044 35.3816 244.619 35.2871 244.275 35.098C243.94 34.909 243.686 34.6297 243.514 34.2602C243.351 33.882 243.269 33.4094 243.269 32.8422V28.975H244.571V32.8551C244.571 33.1902 244.614 33.4695 244.7 33.693C244.795 33.9164 244.937 34.0797 245.126 34.1828C245.323 34.2859 245.568 34.3375 245.86 34.3375C246.187 34.3375 246.475 34.2645 246.724 34.1184C246.973 33.9723 247.167 33.7617 247.304 33.4867C247.442 33.2117 247.51 32.8937 247.51 32.5328V28.975H248.812V35.2656H247.549V33.8863H247.717C247.545 34.3676 247.27 34.7371 246.892 34.9949C246.513 35.2527 246.067 35.3816 245.551 35.3816ZM253.328 35.3816C252.546 35.3816 251.958 35.1797 251.562 34.7758C251.176 34.3719 250.982 33.7875 250.982 33.0227V29.9805H249.758V28.975H250.982V27.0801H252.284V28.975H254.231V29.9805H252.284V32.9195C252.284 33.375 252.379 33.7187 252.568 33.9508C252.765 34.1828 253.083 34.2988 253.522 34.2988C253.651 34.2988 253.78 34.2816 253.908 34.2473C254.046 34.2129 254.179 34.1785 254.308 34.1441L254.514 35.1238C254.385 35.2012 254.205 35.2613 253.973 35.3043C253.749 35.3559 253.535 35.3816 253.328 35.3816ZM258.244 35.3816C257.557 35.3816 256.964 35.2527 256.465 34.9949C255.975 34.7285 255.593 34.3547 255.318 33.8734C255.052 33.3836 254.918 32.8035 254.918 32.1332C254.918 31.4801 255.052 30.9086 255.318 30.4187C255.584 29.9289 255.95 29.5465 256.414 29.2715C256.878 28.9965 257.406 28.859 257.999 28.859C258.584 28.859 259.082 28.9879 259.495 29.2457C259.916 29.4949 260.238 29.8516 260.461 30.3156C260.685 30.7797 260.797 31.334 260.797 31.9785V32.4168H255.95V31.6176H259.92L259.701 31.798C259.701 31.1535 259.559 30.6551 259.275 30.3027C258.992 29.9504 258.584 29.7742 258.051 29.7742C257.647 29.7742 257.303 29.8687 257.02 30.0578C256.745 30.2469 256.534 30.509 256.388 30.8441C256.242 31.1793 256.169 31.5703 256.169 32.0172V32.0945C256.169 32.593 256.246 33.0141 256.401 33.3578C256.564 33.693 256.8 33.9465 257.11 34.1184C257.419 34.2902 257.802 34.3762 258.257 34.3762C258.618 34.3762 258.97 34.3203 259.314 34.2086C259.666 34.0883 259.997 33.9035 260.307 33.6543L260.693 34.5566C260.41 34.8145 260.045 35.0164 259.598 35.1625C259.151 35.3086 258.7 35.3816 258.244 35.3816ZM264.614 35.3816C264.064 35.3816 263.578 35.2527 263.157 34.9949C262.744 34.7285 262.422 34.3504 262.19 33.8605C261.958 33.3621 261.842 32.782 261.842 32.1203C261.842 31.4414 261.958 30.8613 262.19 30.3801C262.422 29.8988 262.744 29.525 263.157 29.2586C263.578 28.9922 264.064 28.859 264.614 28.859C265.164 28.859 265.636 28.9965 266.032 29.2715C266.435 29.5379 266.706 29.8988 266.844 30.3543H266.702V26.1777H268.004V35.2656H266.728V33.8477H266.857C266.719 34.3117 266.448 34.6855 266.044 34.9691C265.649 35.2441 265.172 35.3816 264.614 35.3816ZM264.949 34.3762C265.482 34.3762 265.911 34.1828 266.238 33.7961C266.564 33.4094 266.728 32.8508 266.728 32.1203C266.728 31.3812 266.564 30.8227 266.238 30.4445C265.911 30.0664 265.482 29.8773 264.949 29.8773C264.407 29.8773 263.973 30.0664 263.647 30.4445C263.32 30.8227 263.157 31.3812 263.157 32.1203C263.157 32.8508 263.32 33.4094 263.647 33.7961C263.973 34.1828 264.407 34.3762 264.949 34.3762Z" fill="#BD8125"/>
</g>
</g>
</g>
</g>
<path id="Line 346" d="M21.0938 56.8438H278.93" stroke="#EAEAEC" stroke-width="1.17187" stroke-linecap="round"/>
<g id="Info Origin_2">
<g id="Main_2">
<path id="Time_2" d="M26.6063 85.0328C25.6313 85.0328 24.7969 84.8266 24.1031 84.4141C23.4094 84.0016 22.875 83.4156 22.5 82.6562C22.1344 81.8969 21.9516 80.9922 21.9516 79.9422C21.9516 78.8922 22.1344 77.9922 22.5 77.2422C22.875 76.4828 23.4094 75.8969 24.1031 75.4844C24.7969 75.0719 25.6313 74.8656 26.6063 74.8656C27.2906 74.8656 27.9234 74.9734 28.5047 75.1891C29.0859 75.4047 29.5734 75.7187 29.9672 76.1312L29.5172 77.0734C29.0859 76.6703 28.6359 76.3797 28.1672 76.2016C27.7078 76.0141 27.1969 75.9203 26.6344 75.9203C25.5188 75.9203 24.6656 76.2719 24.075 76.975C23.4844 77.6781 23.1891 78.6672 23.1891 79.9422C23.1891 81.2172 23.4844 82.2109 24.075 82.9234C24.6656 83.6266 25.5188 83.9781 26.6344 83.9781C27.1969 83.9781 27.7078 83.8891 28.1672 83.7109C28.6359 83.5234 29.0859 83.2281 29.5172 82.825L29.9672 83.7672C29.5734 84.1703 29.0859 84.4844 28.5047 84.7094C27.9234 84.925 27.2906 85.0328 26.6063 85.0328ZM33.9707 85.0328C33.3051 85.0328 32.7285 84.8875 32.241 84.5969C31.7535 84.3062 31.3738 83.8984 31.102 83.3734C30.8395 82.8391 30.7082 82.2109 30.7082 81.4891C30.7082 80.7672 30.8395 80.1437 31.102 79.6187C31.3738 79.0844 31.7535 78.6719 32.241 78.3812C32.7285 78.0906 33.3051 77.9453 33.9707 77.9453C34.6363 77.9453 35.2129 78.0906 35.7004 78.3812C36.1879 78.6719 36.5629 79.0844 36.8254 79.6187C37.0973 80.1437 37.2332 80.7672 37.2332 81.4891C37.2332 82.2109 37.0973 82.8391 36.8254 83.3734C36.5629 83.8984 36.1879 84.3062 35.7004 84.5969C35.2129 84.8875 34.6363 85.0328 33.9707 85.0328ZM33.9707 84.1187C34.6176 84.1187 35.1285 83.8937 35.5035 83.4437C35.8879 82.9844 36.0801 82.3281 36.0801 81.475C36.0801 80.6312 35.8879 79.9844 35.5035 79.5344C35.1285 79.0844 34.6176 78.8594 33.9707 78.8594C33.3332 78.8594 32.8223 79.0844 32.4379 79.5344C32.0535 79.9844 31.8613 80.6312 31.8613 81.475C31.8613 82.3281 32.0535 82.9844 32.4379 83.4437C32.8223 83.8937 33.3332 84.1187 33.9707 84.1187ZM41.3629 85.0328C40.8097 85.0328 40.3504 84.9344 39.9847 84.7375C39.6285 84.5312 39.3566 84.2266 39.1691 83.8234C38.991 83.4203 38.9019 82.9187 38.9019 82.3187V78.0719H40.041V82.3047C40.041 82.7078 40.0926 83.0453 40.1957 83.3172C40.3082 83.5797 40.4816 83.7766 40.716 83.9078C40.9504 84.0297 41.241 84.0906 41.5879 84.0906C41.9816 84.0906 42.3238 84.0016 42.6144 83.8234C42.9051 83.6453 43.1347 83.3969 43.3035 83.0781C43.4722 82.7594 43.5566 82.3844 43.5566 81.9531V78.0719H44.6957V84.9062H43.5847V83.3312H43.7676C43.5801 83.8844 43.2707 84.3062 42.8394 84.5969C42.4176 84.8875 41.9254 85.0328 41.3629 85.0328ZM46.8268 84.9062V78.0719H47.9377V79.6891H47.7971C47.9565 79.1359 48.2331 78.7187 48.6268 78.4375C49.0206 78.1469 49.5409 77.9781 50.1877 77.9312L50.5956 77.8891L50.6799 78.8734L49.9627 78.9578C49.3252 79.0141 48.8331 79.2203 48.4862 79.5766C48.1487 79.9234 47.9799 80.4016 47.9799 81.0109V84.9062H46.8268ZM51.7262 76.3703V75.0906H53.1324V76.3703H51.7262ZM51.8668 84.9062V78.0719H53.0058V84.9062H51.8668ZM58.2149 85.0328C57.493 85.0328 56.8696 84.8922 56.3446 84.6109C55.829 84.3203 55.4258 83.9125 55.1352 83.3875C54.854 82.8625 54.7133 82.2344 54.7133 81.5031C54.7133 80.7906 54.854 80.1719 55.1352 79.6469C55.4165 79.1125 55.8008 78.6953 56.2883 78.3953C56.7852 78.0953 57.3571 77.9453 58.004 77.9453C58.6227 77.9453 59.1524 78.0812 59.593 78.3531C60.0337 78.625 60.3712 79.0094 60.6055 79.5062C60.8493 80.0031 60.9712 80.5984 60.9712 81.2922V81.7281H55.5852V80.9828H60.2118L59.9868 81.1656C59.9868 80.4156 59.818 79.8344 59.4805 79.4219C59.1524 79 58.6696 78.7891 58.0321 78.7891C57.554 78.7891 57.1462 78.9016 56.8087 79.1266C56.4805 79.3422 56.2321 79.6469 56.0633 80.0406C55.8946 80.425 55.8102 80.875 55.8102 81.3906V81.475C55.8102 82.0469 55.8993 82.5297 56.0774 82.9234C56.2649 83.3172 56.5415 83.6172 56.9071 83.8234C57.2727 84.0203 57.7087 84.1187 58.2149 84.1187C58.618 84.1187 59.0071 84.0578 59.3821 83.9359C59.7665 83.8047 60.1274 83.5937 60.4649 83.3031L60.8587 84.1047C60.5493 84.3859 60.1555 84.6109 59.6774 84.7797C59.1993 84.9484 58.7118 85.0328 58.2149 85.0328ZM62.6197 84.9062V78.0719H63.7306V79.6891H63.59C63.7493 79.1359 64.0259 78.7187 64.4197 78.4375C64.8134 78.1469 65.3337 77.9781 65.9806 77.9312L66.3884 77.8891L66.4728 78.8734L65.7556 78.9578C65.1181 79.0141 64.6259 79.2203 64.279 79.5766C63.9415 79.9234 63.7728 80.4016 63.7728 81.0109V84.9062H62.6197ZM70.4698 84.9062L74.8433 74.9922H75.8276L80.2011 84.9062H79.0058L77.7823 82.0797L78.3448 82.375H72.2979L72.8745 82.0797L71.6651 84.9062H70.4698ZM75.3214 76.3422L73.0573 81.6719L72.7198 81.4047H77.9229L77.6136 81.6719L75.3495 76.3422H75.3214Z" fill="#737682"/>
<g id="Bar Chart">
<g clip-path="url(#clip0_7779_14765)">
<rect x="112.5" y="76.3906" width="121.875" height="7.03125" rx="3.51562" fill="#EBEBED"/>
<rect id="Bar Fill" x="112.5" y="76.3906" width="64.4531" height="7.03125" rx="3.51562" fill="#28C76F"/>
</g>
</g>
<path id="Departure" d="M259.643 84.9062L257.548 81.7422C257.407 81.5172 257.257 81.3344 257.098 81.1938C256.948 81.0531 256.779 80.9547 256.591 80.8984C256.404 80.8422 256.179 80.8141 255.916 80.8141H253.906V79.6469H256.718C257.224 79.6469 257.641 79.5812 257.97 79.45C258.298 79.3187 258.546 79.1219 258.715 78.8594C258.893 78.5969 258.991 78.2641 259.01 77.8609L259.221 78.1984H253.906V77.1719H259.221L258.982 77.4953C258.907 77.0078 258.687 76.6422 258.321 76.3984C257.965 76.1453 257.459 76.0187 256.802 76.0187H253.906V74.9922H261.752V76.0187H259.024L259.221 75.6953C259.568 75.8734 259.84 76.1078 260.037 76.3984C260.234 76.6891 260.356 77.0266 260.402 77.4109L260.121 77.1719H261.752V78.1984H260.163L260.431 77.8047C260.449 78.4047 260.323 78.925 260.051 79.3656C259.788 79.8062 259.404 80.1484 258.898 80.3922C258.401 80.6266 257.796 80.7437 257.084 80.7437V80.6031H257.393C257.646 80.6031 257.881 80.6406 258.096 80.7156C258.312 80.7812 258.513 80.8984 258.701 81.0672C258.888 81.2359 259.076 81.4609 259.263 81.7422L261.373 84.9062H259.643ZM263.448 84.9062L268.286 75.6672V76.2156H262.914V74.9922H269.622V76.075L265.052 84.9062H263.448ZM275.593 84.9062V82.8953H271.135V81.8125L275.846 74.9922H277.041V81.6719H278.49V82.8953H277.041V84.9062H275.593ZM275.593 81.6719V76.7359H275.973L272.316 82.0656V81.6719H275.593Z" fill="#444050"/>
</g>
</g>
<path id="Line 344" d="M21.0938 102.969H278.93" stroke="#EAEAEC" stroke-width="1.17187" stroke-linecap="round"/>
<g id="Info Origin_3">
<g id="Main_3">
<path id="Time_3" d="M26.6063 131.158C25.6313 131.158 24.7969 130.952 24.1031 130.539C23.4094 130.127 22.875 129.541 22.5 128.781C22.1344 128.022 21.9516 127.117 21.9516 126.067C21.9516 125.017 22.1344 124.117 22.5 123.367C22.875 122.608 23.4094 122.022 24.1031 121.609C24.7969 121.197 25.6313 120.991 26.6063 120.991C27.2906 120.991 27.9234 121.098 28.5047 121.314C29.0859 121.53 29.5734 121.844 29.9672 122.256L29.5172 123.198C29.0859 122.795 28.6359 122.505 28.1672 122.327C27.7078 122.139 27.1969 122.045 26.6344 122.045C25.5188 122.045 24.6656 122.397 24.075 123.1C23.4844 123.803 23.1891 124.792 23.1891 126.067C23.1891 127.342 23.4844 128.336 24.075 129.048C24.6656 129.752 25.5188 130.103 26.6344 130.103C27.1969 130.103 27.7078 130.014 28.1672 129.836C28.6359 129.648 29.0859 129.353 29.5172 128.95L29.9672 129.892C29.5734 130.295 29.0859 130.609 28.5047 130.834C27.9234 131.05 27.2906 131.158 26.6063 131.158ZM33.9707 131.158C33.3051 131.158 32.7285 131.012 32.241 130.722C31.7535 130.431 31.3738 130.023 31.102 129.498C30.8395 128.964 30.7082 128.336 30.7082 127.614C30.7082 126.892 30.8395 126.269 31.102 125.744C31.3738 125.209 31.7535 124.797 32.241 124.506C32.7285 124.216 33.3051 124.07 33.9707 124.07C34.6363 124.07 35.2129 124.216 35.7004 124.506C36.1879 124.797 36.5629 125.209 36.8254 125.744C37.0973 126.269 37.2332 126.892 37.2332 127.614C37.2332 128.336 37.0973 128.964 36.8254 129.498C36.5629 130.023 36.1879 130.431 35.7004 130.722C35.2129 131.012 34.6363 131.158 33.9707 131.158ZM33.9707 130.244C34.6176 130.244 35.1285 130.019 35.5035 129.569C35.8879 129.109 36.0801 128.453 36.0801 127.6C36.0801 126.756 35.8879 126.109 35.5035 125.659C35.1285 125.209 34.6176 124.984 33.9707 124.984C33.3332 124.984 32.8223 125.209 32.4379 125.659C32.0535 126.109 31.8613 126.756 31.8613 127.6C31.8613 128.453 32.0535 129.109 32.4379 129.569C32.8223 130.019 33.3332 130.244 33.9707 130.244ZM41.3629 131.158C40.8097 131.158 40.3504 131.059 39.9847 130.862C39.6285 130.656 39.3566 130.352 39.1691 129.948C38.991 129.545 38.9019 129.044 38.9019 128.444V124.197H40.041V128.43C40.041 128.833 40.0926 129.17 40.1957 129.442C40.3082 129.705 40.4816 129.902 40.716 130.033C40.9504 130.155 41.241 130.216 41.5879 130.216C41.9816 130.216 42.3238 130.127 42.6144 129.948C42.9051 129.77 43.1347 129.522 43.3035 129.203C43.4722 128.884 43.5566 128.509 43.5566 128.078V124.197H44.6957V131.031H43.5847V129.456H43.7676C43.5801 130.009 43.2707 130.431 42.8394 130.722C42.4176 131.012 41.9254 131.158 41.3629 131.158ZM46.8268 131.031V124.197H47.9377V125.814H47.7971C47.9565 125.261 48.2331 124.844 48.6268 124.562C49.0206 124.272 49.5409 124.103 50.1877 124.056L50.5956 124.014L50.6799 124.998L49.9627 125.083C49.3252 125.139 48.8331 125.345 48.4862 125.702C48.1487 126.048 47.9799 126.527 47.9799 127.136V131.031H46.8268ZM51.7262 122.495V121.216H53.1324V122.495H51.7262ZM51.8668 131.031V124.197H53.0058V131.031H51.8668ZM58.2149 131.158C57.493 131.158 56.8696 131.017 56.3446 130.736C55.829 130.445 55.4258 130.037 55.1352 129.512C54.854 128.987 54.7133 128.359 54.7133 127.628C54.7133 126.916 54.854 126.297 55.1352 125.772C55.4165 125.237 55.8008 124.82 56.2883 124.52C56.7852 124.22 57.3571 124.07 58.004 124.07C58.6227 124.07 59.1524 124.206 59.593 124.478C60.0337 124.75 60.3712 125.134 60.6055 125.631C60.8493 126.128 60.9712 126.723 60.9712 127.417V127.853H55.5852V127.108H60.2118L59.9868 127.291C59.9868 126.541 59.818 125.959 59.4805 125.547C59.1524 125.125 58.6696 124.914 58.0321 124.914C57.554 124.914 57.1462 125.027 56.8087 125.252C56.4805 125.467 56.2321 125.772 56.0633 126.166C55.8946 126.55 55.8102 127 55.8102 127.516V127.6C55.8102 128.172 55.8993 128.655 56.0774 129.048C56.2649 129.442 56.5415 129.742 56.9071 129.948C57.2727 130.145 57.7087 130.244 58.2149 130.244C58.618 130.244 59.0071 130.183 59.3821 130.061C59.7665 129.93 60.1274 129.719 60.4649 129.428L60.8587 130.23C60.5493 130.511 60.1555 130.736 59.6774 130.905C59.1993 131.073 58.7118 131.158 58.2149 131.158ZM62.6197 131.031V124.197H63.7306V125.814H63.59C63.7493 125.261 64.0259 124.844 64.4197 124.562C64.8134 124.272 65.3337 124.103 65.9806 124.056L66.3884 124.014L66.4728 124.998L65.7556 125.083C65.1181 125.139 64.6259 125.345 64.279 125.702C63.9415 126.048 63.7728 126.527 63.7728 127.136V131.031H62.6197ZM71.4261 131.031V121.117H75.3917C76.4042 121.117 77.1917 121.342 77.7542 121.792C78.3167 122.242 78.5979 122.88 78.5979 123.705C78.5979 124.323 78.4151 124.839 78.0495 125.252C77.6933 125.664 77.2058 125.936 76.587 126.067V125.87C77.0558 125.927 77.4589 126.062 77.7964 126.278C78.1339 126.484 78.3917 126.761 78.5698 127.108C78.7479 127.445 78.837 127.844 78.837 128.303C78.837 128.894 78.7058 129.395 78.4433 129.808C78.1901 130.211 77.8198 130.516 77.3323 130.722C76.8448 130.928 76.2542 131.031 75.5604 131.031H71.4261ZM72.5511 130.103H75.4479C75.7479 130.103 76.0151 130.08 76.2495 130.033C76.4933 129.986 76.7042 129.916 76.8823 129.822C77.0604 129.719 77.2104 129.597 77.3323 129.456C77.4542 129.316 77.5433 129.147 77.5995 128.95C77.6651 128.753 77.6979 128.533 77.6979 128.289C77.6979 128.036 77.6651 127.816 77.5995 127.628C77.5433 127.431 77.4542 127.262 77.3323 127.122C77.2104 126.972 77.0604 126.85 76.8823 126.756C76.7042 126.662 76.4933 126.592 76.2495 126.545C76.0151 126.498 75.7479 126.475 75.4479 126.475H72.5511V130.103ZM72.5511 125.547H75.2229C75.9542 125.547 76.5073 125.397 76.8823 125.097C77.2667 124.797 77.4589 124.366 77.4589 123.803C77.4589 123.222 77.2667 122.786 76.8823 122.495C76.5073 122.195 75.9542 122.045 75.2229 122.045H72.5511V125.547Z" fill="#737682"/>
<g id="Bar Chart_2">
<g clip-path="url(#clip1_7779_14765)">
<rect x="112.5" y="122.516" width="121.875" height="7.03125" rx="3.51562" fill="#EBEBED"/>
<rect id="Bar Fill_2" x="112.5" y="122.516" width="82.0312" height="7.03125" rx="3.51562" fill="#FBC942"/>
</g>
</g>
<path id="Departure_2" d="M259.643 131.031L257.548 127.867C257.407 127.642 257.257 127.459 257.098 127.319C256.948 127.178 256.779 127.08 256.591 127.023C256.404 126.967 256.179 126.939 255.916 126.939H253.906V125.772H256.718C257.224 125.772 257.641 125.706 257.97 125.575C258.298 125.444 258.546 125.247 258.715 124.984C258.893 124.722 258.991 124.389 259.01 123.986L259.221 124.323H253.906V123.297H259.221L258.982 123.62C258.907 123.133 258.687 122.767 258.321 122.523C257.965 122.27 257.459 122.144 256.802 122.144H253.906V121.117H261.752V122.144H259.024L259.221 121.82C259.568 121.998 259.84 122.233 260.037 122.523C260.234 122.814 260.356 123.152 260.402 123.536L260.121 123.297H261.752V124.323H260.163L260.431 123.93C260.449 124.53 260.323 125.05 260.051 125.491C259.788 125.931 259.404 126.273 258.898 126.517C258.401 126.752 257.796 126.869 257.084 126.869V126.728H257.393C257.646 126.728 257.881 126.766 258.096 126.841C258.312 126.906 258.513 127.023 258.701 127.192C258.888 127.361 259.076 127.586 259.263 127.867L261.373 131.031H259.643ZM265.544 131.158C265.206 131.158 264.859 131.116 264.503 131.031C264.156 130.937 263.828 130.802 263.519 130.623C263.209 130.445 262.938 130.239 262.703 130.005L263.209 128.894C263.556 129.231 263.931 129.489 264.334 129.667C264.738 129.836 265.145 129.92 265.558 129.92C265.998 129.92 266.388 129.841 266.725 129.681C267.063 129.522 267.344 129.283 267.569 128.964C267.803 128.645 267.977 128.252 268.089 127.783C268.211 127.305 268.272 126.756 268.272 126.137V124.942H268.413C268.347 125.439 268.188 125.875 267.934 126.25C267.691 126.625 267.372 126.911 266.978 127.108C266.594 127.305 266.158 127.403 265.67 127.403C265.098 127.403 264.588 127.267 264.138 126.995C263.697 126.723 263.345 126.348 263.083 125.87C262.83 125.392 262.703 124.853 262.703 124.253C262.703 123.616 262.839 123.053 263.111 122.566C263.392 122.069 263.772 121.684 264.25 121.412C264.728 121.131 265.281 120.991 265.909 120.991C266.716 120.991 267.395 121.183 267.948 121.567C268.502 121.942 268.923 122.495 269.214 123.227C269.514 123.958 269.664 124.834 269.664 125.856C269.664 126.991 269.5 127.952 269.172 128.739C268.844 129.527 268.375 130.127 267.766 130.539C267.156 130.952 266.416 131.158 265.544 131.158ZM266.008 126.208C266.383 126.208 266.716 126.123 267.006 125.955C267.297 125.786 267.522 125.552 267.681 125.252C267.85 124.942 267.934 124.586 267.934 124.183C267.934 123.789 267.85 123.442 267.681 123.142C267.522 122.833 267.297 122.594 267.006 122.425C266.716 122.247 266.383 122.158 266.008 122.158C265.623 122.158 265.286 122.247 264.995 122.425C264.714 122.594 264.489 122.833 264.32 123.142C264.161 123.442 264.081 123.789 264.081 124.183C264.081 124.586 264.161 124.942 264.32 125.252C264.489 125.552 264.714 125.786 264.995 125.955C265.286 126.123 265.623 126.208 266.008 126.208ZM272.12 131.031V129.808H274.37V122.355H275.101L272.612 123.902L272.021 122.819L274.791 121.117H275.818V129.808H277.927V131.031H272.12Z" fill="#444050"/>
</g>
</g>
<path id="Line 345" d="M21.0938 149.094H278.93" stroke="#EAEAEC" stroke-width="1.17187" stroke-linecap="round"/>
<g id="Info Origin_4">
<g id="Main_4">
<path id="Time_4" d="M26.6063 177.283C25.6313 177.283 24.7969 177.077 24.1031 176.664C23.4094 176.252 22.875 175.666 22.5 174.906C22.1344 174.147 21.9516 173.242 21.9516 172.192C21.9516 171.142 22.1344 170.242 22.5 169.492C22.875 168.733 23.4094 168.147 24.1031 167.734C24.7969 167.322 25.6313 167.116 26.6063 167.116C27.2906 167.116 27.9234 167.223 28.5047 167.439C29.0859 167.655 29.5734 167.969 29.9672 168.381L29.5172 169.323C29.0859 168.92 28.6359 168.63 28.1672 168.452C27.7078 168.264 27.1969 168.17 26.6344 168.17C25.5188 168.17 24.6656 168.522 24.075 169.225C23.4844 169.928 23.1891 170.917 23.1891 172.192C23.1891 173.467 23.4844 174.461 24.075 175.173C24.6656 175.877 25.5188 176.228 26.6344 176.228C27.1969 176.228 27.7078 176.139 28.1672 175.961C28.6359 175.773 29.0859 175.478 29.5172 175.075L29.9672 176.017C29.5734 176.42 29.0859 176.734 28.5047 176.959C27.9234 177.175 27.2906 177.283 26.6063 177.283ZM33.9707 177.283C33.3051 177.283 32.7285 177.137 32.241 176.847C31.7535 176.556 31.3738 176.148 31.102 175.623C30.8395 175.089 30.7082 174.461 30.7082 173.739C30.7082 173.017 30.8395 172.394 31.102 171.869C31.3738 171.334 31.7535 170.922 32.241 170.631C32.7285 170.341 33.3051 170.195 33.9707 170.195C34.6363 170.195 35.2129 170.341 35.7004 170.631C36.1879 170.922 36.5629 171.334 36.8254 171.869C37.0973 172.394 37.2332 173.017 37.2332 173.739C37.2332 174.461 37.0973 175.089 36.8254 175.623C36.5629 176.148 36.1879 176.556 35.7004 176.847C35.2129 177.137 34.6363 177.283 33.9707 177.283ZM33.9707 176.369C34.6176 176.369 35.1285 176.144 35.5035 175.694C35.8879 175.234 36.0801 174.578 36.0801 173.725C36.0801 172.881 35.8879 172.234 35.5035 171.784C35.1285 171.334 34.6176 171.109 33.9707 171.109C33.3332 171.109 32.8223 171.334 32.4379 171.784C32.0535 172.234 31.8613 172.881 31.8613 173.725C31.8613 174.578 32.0535 175.234 32.4379 175.694C32.8223 176.144 33.3332 176.369 33.9707 176.369ZM41.3629 177.283C40.8097 177.283 40.3504 177.184 39.9847 176.987C39.6285 176.781 39.3566 176.477 39.1691 176.073C38.991 175.67 38.9019 175.169 38.9019 174.569V170.322H40.041V174.555C40.041 174.958 40.0926 175.295 40.1957 175.567C40.3082 175.83 40.4816 176.027 40.716 176.158C40.9504 176.28 41.241 176.341 41.5879 176.341C41.9816 176.341 42.3238 176.252 42.6144 176.073C42.9051 175.895 43.1347 175.647 43.3035 175.328C43.4722 175.009 43.5566 174.634 43.5566 174.203V170.322H44.6957V177.156H43.5847V175.581H43.7676C43.5801 176.134 43.2707 176.556 42.8394 176.847C42.4176 177.137 41.9254 177.283 41.3629 177.283ZM46.8268 177.156V170.322H47.9377V171.939H47.7971C47.9565 171.386 48.2331 170.969 48.6268 170.687C49.0206 170.397 49.5409 170.228 50.1877 170.181L50.5956 170.139L50.6799 171.123L49.9627 171.208C49.3252 171.264 48.8331 171.47 48.4862 171.827C48.1487 172.173 47.9799 172.652 47.9799 173.261V177.156H46.8268ZM51.7262 168.62V167.341H53.1324V168.62H51.7262ZM51.8668 177.156V170.322H53.0058V177.156H51.8668ZM58.2149 177.283C57.493 177.283 56.8696 177.142 56.3446 176.861C55.829 176.57 55.4258 176.162 55.1352 175.637C54.854 175.112 54.7133 174.484 54.7133 173.753C54.7133 173.041 54.854 172.422 55.1352 171.897C55.4165 171.362 55.8008 170.945 56.2883 170.645C56.7852 170.345 57.3571 170.195 58.004 170.195C58.6227 170.195 59.1524 170.331 59.593 170.603C60.0337 170.875 60.3712 171.259 60.6055 171.756C60.8493 172.253 60.9712 172.848 60.9712 173.542V173.978H55.5852V173.233H60.2118L59.9868 173.416C59.9868 172.666 59.818 172.084 59.4805 171.672C59.1524 171.25 58.6696 171.039 58.0321 171.039C57.554 171.039 57.1462 171.152 56.8087 171.377C56.4805 171.592 56.2321 171.897 56.0633 172.291C55.8946 172.675 55.8102 173.125 55.8102 173.641V173.725C55.8102 174.297 55.8993 174.78 56.0774 175.173C56.2649 175.567 56.5415 175.867 56.9071 176.073C57.2727 176.27 57.7087 176.369 58.2149 176.369C58.618 176.369 59.0071 176.308 59.3821 176.186C59.7665 176.055 60.1274 175.844 60.4649 175.553L60.8587 176.355C60.5493 176.636 60.1555 176.861 59.6774 177.03C59.1993 177.198 58.7118 177.283 58.2149 177.283ZM62.6197 177.156V170.322H63.7306V171.939H63.59C63.7493 171.386 64.0259 170.969 64.4197 170.687C64.8134 170.397 65.3337 170.228 65.9806 170.181L66.3884 170.139L66.4728 171.123L65.7556 171.208C65.1181 171.264 64.6259 171.47 64.279 171.827C63.9415 172.173 63.7728 172.652 63.7728 173.261V177.156H62.6197ZM75.7151 177.283C74.7401 177.283 73.9058 177.077 73.212 176.664C72.5183 176.252 71.9839 175.666 71.6089 174.906C71.2433 174.147 71.0604 173.242 71.0604 172.192C71.0604 171.142 71.2433 170.242 71.6089 169.492C71.9839 168.733 72.5183 168.147 73.212 167.734C73.9058 167.322 74.7401 167.116 75.7151 167.116C76.3995 167.116 77.0323 167.223 77.6136 167.439C78.1948 167.655 78.6823 167.969 79.0761 168.381L78.6261 169.323C78.1948 168.92 77.7448 168.63 77.2761 168.452C76.8167 168.264 76.3058 168.17 75.7433 168.17C74.6276 168.17 73.7745 168.522 73.1839 169.225C72.5933 169.928 72.2979 170.917 72.2979 172.192C72.2979 173.467 72.5933 174.461 73.1839 175.173C73.7745 175.877 74.6276 176.228 75.7433 176.228C76.3058 176.228 76.8167 176.139 77.2761 175.961C77.7448 175.773 78.1948 175.478 78.6261 175.075L79.0761 176.017C78.6823 176.42 78.1948 176.734 77.6136 176.959C77.0323 177.175 76.3995 177.283 75.7151 177.283Z" fill="#737682"/>
<g id="Bar Chart_3">
<g clip-path="url(#clip2_7779_14765)">
<rect x="112.5" y="168.641" width="121.875" height="7.03125" rx="3.51562" fill="#EBEBED"/>
<rect id="Bar Fill_3" x="112.5" y="168.641" width="108.984" height="7.03125" rx="3.51562" fill="#FBC942"/>
</g>
</g>
<path id="Departure_3" d="M251.211 177.156L249.116 173.992C248.975 173.767 248.825 173.584 248.666 173.444C248.516 173.303 248.347 173.205 248.159 173.148C247.972 173.092 247.747 173.064 247.484 173.064H245.474V171.897H248.286C248.792 171.897 249.209 171.831 249.538 171.7C249.866 171.569 250.114 171.372 250.283 171.109C250.461 170.847 250.559 170.514 250.578 170.111L250.789 170.448H245.474V169.422H250.789L250.55 169.745C250.475 169.258 250.255 168.892 249.889 168.648C249.533 168.395 249.027 168.269 248.37 168.269H245.474V167.242H253.32V168.269H250.592L250.789 167.945C251.136 168.123 251.408 168.358 251.605 168.648C251.802 168.939 251.924 169.277 251.97 169.661L251.689 169.422H253.32V170.448H251.731L251.999 170.055C252.017 170.655 251.891 171.175 251.619 171.616C251.356 172.056 250.972 172.398 250.466 172.642C249.969 172.877 249.364 172.994 248.652 172.994V172.853H248.961C249.214 172.853 249.449 172.891 249.664 172.966C249.88 173.031 250.081 173.148 250.269 173.317C250.456 173.486 250.644 173.711 250.831 173.992L252.941 177.156H251.211ZM255.256 177.156V175.933H257.506V168.48H258.237L255.748 170.027L255.157 168.944L257.927 167.242H258.954V175.933H261.063V177.156H255.256ZM266.261 177.283C265.492 177.283 264.845 177.086 264.32 176.692C263.795 176.298 263.397 175.727 263.125 174.977C262.853 174.217 262.717 173.289 262.717 172.192C262.717 171.077 262.853 170.144 263.125 169.394C263.397 168.644 263.795 168.077 264.32 167.692C264.845 167.308 265.492 167.116 266.261 167.116C267.039 167.116 267.691 167.308 268.216 167.692C268.741 168.067 269.134 168.63 269.397 169.38C269.669 170.13 269.805 171.062 269.805 172.178C269.805 173.275 269.669 174.203 269.397 174.962C269.125 175.722 268.727 176.298 268.202 176.692C267.677 177.086 267.03 177.283 266.261 177.283ZM266.261 176.073C266.983 176.073 267.513 175.759 267.85 175.131C268.197 174.503 268.37 173.519 268.37 172.178C268.37 170.837 268.197 169.862 267.85 169.253C267.513 168.634 266.983 168.325 266.261 168.325C265.548 168.325 265.019 168.634 264.672 169.253C264.325 169.862 264.152 170.837 264.152 172.178C264.152 173.519 264.325 174.503 264.672 175.131C265.019 175.759 265.548 176.073 266.261 176.073ZM274.693 177.283C273.559 177.283 272.673 177.039 272.035 176.552C271.407 176.064 271.093 175.384 271.093 174.512C271.093 174.044 271.187 173.631 271.374 173.275C271.562 172.909 271.824 172.614 272.162 172.389C272.499 172.164 272.888 172.023 273.329 171.967V172.22C272.926 172.136 272.574 171.981 272.274 171.756C271.974 171.522 271.74 171.236 271.571 170.898C271.412 170.552 271.332 170.172 271.332 169.759C271.332 168.934 271.637 168.287 272.246 167.819C272.855 167.35 273.671 167.116 274.693 167.116C275.724 167.116 276.545 167.35 277.154 167.819C277.763 168.287 278.068 168.934 278.068 169.759C278.068 170.172 277.984 170.552 277.815 170.898C277.655 171.236 277.426 171.522 277.126 171.756C276.826 171.981 276.474 172.131 276.071 172.206V171.967C276.521 172.023 276.91 172.169 277.238 172.403C277.566 172.628 277.824 172.919 278.012 173.275C278.199 173.631 278.293 174.044 278.293 174.512C278.293 175.384 277.974 176.064 277.337 176.552C276.709 177.039 275.827 177.283 274.693 177.283ZM274.693 176.13C275.434 176.13 275.991 175.989 276.366 175.708C276.741 175.417 276.929 174.986 276.929 174.414C276.929 173.842 276.741 173.416 276.366 173.134C275.991 172.853 275.434 172.712 274.693 172.712C273.962 172.712 273.404 172.853 273.02 173.134C272.645 173.416 272.457 173.842 272.457 174.414C272.457 174.986 272.645 175.417 273.02 175.708C273.404 175.989 273.962 176.13 274.693 176.13ZM274.693 171.559C275.321 171.559 275.809 171.414 276.155 171.123C276.512 170.823 276.69 170.416 276.69 169.9C276.69 169.394 276.512 168.995 276.155 168.705C275.809 168.414 275.321 168.269 274.693 168.269C274.065 168.269 273.577 168.414 273.23 168.705C272.884 168.995 272.71 169.394 272.71 169.9C272.71 170.416 272.884 170.823 273.23 171.123C273.577 171.414 274.065 171.559 274.693 171.559Z" fill="#444050"/>
</g>
</g>
</g>
</g>
</g>
</g>
<defs>
<clipPath id="clip0_7779_14765">
<rect x="112.5" y="76.3906" width="121.875" height="7.03125" rx="3.51562" fill="white"/>
</clipPath>
<clipPath id="clip1_7779_14765">
<rect x="112.5" y="122.516" width="121.875" height="7.03125" rx="3.51562" fill="white"/>
</clipPath>
<clipPath id="clip2_7779_14765">
<rect x="112.5" y="168.641" width="121.875" height="7.03125" rx="3.51562" fill="white"/>
</clipPath>
</defs>
</svg>
