<svg width="287" height="193" viewBox="0 0 287 193" fill="none" xmlns="http://www.w3.org/2000/svg">
<g id="Card Shipment">
<rect width="287" height="193" rx="12" fill="white"/>
<g id="Body">
<g id="Frame 1707480568">
<g id="Frame 2147223150">
<g id="Info Origin">
<g id="Main">
<path id="Time" d="M21.804 30.108C21.364 30.108 20.944 30.072 20.544 30C20.152 29.92 19.788 29.808 19.452 29.664C19.124 29.512 18.832 29.332 18.576 29.124L18.972 28.14C19.244 28.34 19.524 28.508 19.812 28.644C20.1 28.78 20.408 28.884 20.736 28.956C21.064 29.02 21.42 29.052 21.804 29.052C22.484 29.052 22.984 28.932 23.304 28.692C23.632 28.444 23.796 28.124 23.796 27.732C23.796 27.516 23.744 27.332 23.64 27.18C23.544 27.028 23.384 26.9 23.16 26.796C22.936 26.684 22.644 26.592 22.284 26.52L21 26.256C20.24 26.096 19.672 25.832 19.296 25.464C18.928 25.096 18.744 24.6 18.744 23.976C18.744 23.464 18.88 23.016 19.152 22.632C19.424 22.248 19.796 21.952 20.268 21.744C20.748 21.536 21.3 21.432 21.924 21.432C22.308 21.432 22.672 21.472 23.016 21.552C23.368 21.624 23.692 21.736 23.988 21.888C24.292 22.04 24.556 22.224 24.78 22.44L24.372 23.388C24.028 23.084 23.656 22.86 23.256 22.716C22.856 22.564 22.408 22.488 21.912 22.488C21.52 22.488 21.176 22.548 20.88 22.668C20.592 22.788 20.368 22.956 20.208 23.172C20.056 23.388 19.98 23.644 19.98 23.94C19.98 24.276 20.088 24.544 20.304 24.744C20.52 24.944 20.88 25.096 21.384 25.2L22.656 25.464C23.456 25.632 24.052 25.892 24.444 26.244C24.836 26.596 25.032 27.064 25.032 27.648C25.032 28.136 24.9 28.568 24.636 28.944C24.372 29.312 24 29.6 23.52 29.808C23.04 30.008 22.468 30.108 21.804 30.108ZM29.0648 30.108C28.4248 30.108 27.8728 29.988 27.4088 29.748C26.9528 29.5 26.5968 29.152 26.3408 28.704C26.0928 28.248 25.9688 27.708 25.9688 27.084C25.9688 26.476 26.0928 25.944 26.3408 25.488C26.5888 25.032 26.9288 24.676 27.3608 24.42C27.7928 24.164 28.2848 24.036 28.8368 24.036C29.3808 24.036 29.8448 24.156 30.2288 24.396C30.6208 24.628 30.9208 24.96 31.1288 25.392C31.3368 25.824 31.4408 26.34 31.4408 26.94V27.348H26.9288V26.604H30.6248L30.4208 26.772C30.4208 26.172 30.2888 25.708 30.0248 25.38C29.7608 25.052 29.3808 24.888 28.8848 24.888C28.5088 24.888 28.1888 24.976 27.9248 25.152C27.6688 25.328 27.4728 25.572 27.3368 25.884C27.2008 26.196 27.1328 26.56 27.1328 26.976V27.048C27.1328 27.512 27.2048 27.904 27.3488 28.224C27.5008 28.536 27.7208 28.772 28.0088 28.932C28.2968 29.092 28.6528 29.172 29.0768 29.172C29.4128 29.172 29.7408 29.12 30.0608 29.016C30.3888 28.904 30.6968 28.732 30.9848 28.5L31.3448 29.34C31.0808 29.58 30.7408 29.768 30.3248 29.904C29.9088 30.04 29.4888 30.108 29.0648 30.108ZM32.7622 30V24.144H33.9382V25.548H33.8182C33.9462 25.068 34.1742 24.704 34.5022 24.456C34.8382 24.208 35.2822 24.064 35.8342 24.024L36.2302 24L36.3142 25.032L35.5822 25.104C35.0622 25.152 34.6662 25.316 34.3942 25.596C34.1222 25.876 33.9862 26.26 33.9862 26.748V30H32.7622ZM39.318 30L36.798 24.144H38.106L40.062 29.004H39.726L41.73 24.144H42.966L40.41 30H39.318ZM43.7284 22.788V21.528H45.1444V22.788H43.7284ZM43.8364 30V24.144H45.0484V30H43.8364ZM49.3343 30.108C48.7343 30.108 48.2143 29.984 47.7743 29.736C47.3423 29.48 47.0063 29.124 46.7663 28.668C46.5263 28.204 46.4063 27.66 46.4063 27.036C46.4063 26.42 46.5263 25.888 46.7663 25.44C47.0063 24.992 47.3423 24.648 47.7743 24.408C48.2143 24.16 48.7343 24.036 49.3343 24.036C49.7023 24.036 50.0663 24.1 50.4263 24.228C50.7863 24.348 51.0823 24.524 51.3143 24.756L50.9303 25.608C50.7143 25.4 50.4703 25.248 50.1983 25.152C49.9263 25.048 49.6703 24.996 49.4303 24.996C48.8623 24.996 48.4223 25.176 48.1103 25.536C47.8063 25.888 47.6543 26.392 47.6543 27.048C47.6543 27.704 47.8063 28.22 48.1103 28.596C48.4223 28.964 48.8623 29.148 49.4303 29.148C49.6703 29.148 49.9263 29.1 50.1983 29.004C50.4703 28.9 50.7143 28.744 50.9303 28.536L51.3143 29.4C51.0823 29.616 50.7823 29.788 50.4143 29.916C50.0543 30.044 49.6943 30.108 49.3343 30.108ZM54.9867 30.108C54.3467 30.108 53.7947 29.988 53.3307 29.748C52.8747 29.5 52.5187 29.152 52.2627 28.704C52.0147 28.248 51.8907 27.708 51.8907 27.084C51.8907 26.476 52.0147 25.944 52.2627 25.488C52.5107 25.032 52.8507 24.676 53.2827 24.42C53.7147 24.164 54.2067 24.036 54.7587 24.036C55.3027 24.036 55.7667 24.156 56.1507 24.396C56.5427 24.628 56.8427 24.96 57.0507 25.392C57.2587 25.824 57.3627 26.34 57.3627 26.94V27.348H52.8507V26.604H56.5467L56.3427 26.772C56.3427 26.172 56.2107 25.708 55.9467 25.38C55.6827 25.052 55.3027 24.888 54.8067 24.888C54.4307 24.888 54.1107 24.976 53.8467 25.152C53.5907 25.328 53.3947 25.572 53.2587 25.884C53.1227 26.196 53.0547 26.56 53.0547 26.976V27.048C53.0547 27.512 53.1267 27.904 53.2707 28.224C53.4227 28.536 53.6427 28.772 53.9307 28.932C54.2187 29.092 54.5747 29.172 54.9987 29.172C55.3347 29.172 55.6627 29.12 55.9827 29.016C56.3107 28.904 56.6187 28.732 56.9067 28.5L57.2667 29.34C57.0027 29.58 56.6627 29.768 56.2467 29.904C55.8307 30.04 55.4107 30.108 54.9867 30.108ZM64.0324 30V22.584H61.0324V21.54H68.2684V22.584H65.2684V30H64.0324ZM69.0643 22.788V21.528H70.4803V22.788H69.0643ZM69.1723 30V24.144H70.3843V30H69.1723ZM74.8383 30.108C74.1983 30.108 73.6463 29.988 73.1823 29.748C72.7263 29.5 72.3703 29.152 72.1143 28.704C71.8663 28.248 71.7423 27.708 71.7423 27.084C71.7423 26.476 71.8663 25.944 72.1143 25.488C72.3623 25.032 72.7023 24.676 73.1343 24.42C73.5663 24.164 74.0583 24.036 74.6103 24.036C75.1543 24.036 75.6183 24.156 76.0023 24.396C76.3943 24.628 76.6943 24.96 76.9023 25.392C77.1103 25.824 77.2143 26.34 77.2143 26.94V27.348H72.7023V26.604H76.3983L76.1943 26.772C76.1943 26.172 76.0623 25.708 75.7983 25.38C75.5343 25.052 75.1543 24.888 74.6583 24.888C74.2823 24.888 73.9623 24.976 73.6983 25.152C73.4423 25.328 73.2463 25.572 73.1103 25.884C72.9743 26.196 72.9063 26.56 72.9063 26.976V27.048C72.9063 27.512 72.9783 27.904 73.1223 28.224C73.2743 28.536 73.4943 28.772 73.7823 28.932C74.0703 29.092 74.4263 29.172 74.8503 29.172C75.1863 29.172 75.5143 29.12 75.8343 29.016C76.1623 28.904 76.4703 28.732 76.7583 28.5L77.1183 29.34C76.8543 29.58 76.5143 29.768 76.0983 29.904C75.6823 30.04 75.2623 30.108 74.8383 30.108ZM78.5356 30V24.144H79.7116V25.548H79.5916C79.7196 25.068 79.9476 24.704 80.2756 24.456C80.6116 24.208 81.0556 24.064 81.6076 24.024L82.0036 24L82.0876 25.032L81.3556 25.104C80.8356 25.152 80.4396 25.316 80.1676 25.596C79.8956 25.876 79.7596 26.26 79.7596 26.748V30H78.5356Z" fill="#444050"/>
<g id="Cell-Status">
<g id="Badge-status-shipment">
<rect x="200" y="16" width="69" height="20" rx="10" fill="#EEFBF3"/>
<path id="Label" d="M211.553 30.099C211.15 30.099 210.761 30.066 210.387 30C210.02 29.934 209.683 29.835 209.375 29.703C209.067 29.5637 208.792 29.4023 208.55 29.219L208.935 28.295C209.184 28.471 209.441 28.6213 209.705 28.746C209.976 28.8707 210.266 28.9623 210.574 29.021C210.882 29.0797 211.208 29.109 211.553 29.109C212.169 29.109 212.624 28.999 212.917 28.779C213.218 28.559 213.368 28.2657 213.368 27.899C213.368 27.701 213.32 27.536 213.225 27.404C213.137 27.2647 212.99 27.1473 212.785 27.052C212.58 26.9567 212.308 26.876 211.971 26.81L210.783 26.568C210.079 26.4213 209.558 26.1757 209.221 25.831C208.884 25.4863 208.715 25.0317 208.715 24.467C208.715 23.9977 208.84 23.5907 209.089 23.246C209.346 22.894 209.694 22.6227 210.134 22.432C210.581 22.2413 211.095 22.146 211.674 22.146C212.026 22.146 212.363 22.1827 212.686 22.256C213.009 22.322 213.306 22.4247 213.577 22.564C213.848 22.696 214.087 22.861 214.292 23.059L213.918 23.95C213.603 23.6713 213.258 23.466 212.884 23.334C212.517 23.202 212.11 23.136 211.663 23.136C211.296 23.136 210.977 23.191 210.706 23.301C210.442 23.4037 210.237 23.554 210.09 23.752C209.943 23.9427 209.87 24.17 209.87 24.434C209.87 24.742 209.965 24.9877 210.156 25.171C210.354 25.347 210.688 25.4827 211.157 25.578L212.345 25.82C213.078 25.9667 213.625 26.205 213.984 26.535C214.343 26.8577 214.523 27.2903 214.523 27.833C214.523 28.2803 214.402 28.6763 214.16 29.021C213.918 29.3583 213.573 29.6223 213.126 29.813C212.686 30.0037 212.162 30.099 211.553 30.099ZM217.535 30.099C217.154 30.099 216.813 30.0257 216.512 29.879C216.211 29.7323 215.973 29.5343 215.797 29.285C215.628 29.0283 215.544 28.746 215.544 28.438C215.544 28.0347 215.647 27.7193 215.852 27.492C216.065 27.2573 216.406 27.0887 216.875 26.986C217.352 26.8833 217.982 26.832 218.767 26.832H219.35V27.536H218.789C218.393 27.536 218.059 27.5507 217.788 27.58C217.517 27.602 217.297 27.646 217.128 27.712C216.967 27.7707 216.849 27.855 216.776 27.965C216.703 28.075 216.666 28.2107 216.666 28.372C216.666 28.6433 216.761 28.8633 216.952 29.032C217.15 29.2007 217.418 29.285 217.755 29.285C218.034 29.285 218.279 29.219 218.492 29.087C218.705 28.955 218.873 28.779 218.998 28.559C219.123 28.339 219.185 28.086 219.185 27.8V26.546C219.185 26.1353 219.09 25.842 218.899 25.666C218.716 25.4827 218.415 25.391 217.997 25.391C217.689 25.391 217.377 25.4387 217.062 25.534C216.754 25.622 216.439 25.765 216.116 25.963L215.764 25.16C215.969 25.028 216.197 24.9143 216.446 24.819C216.703 24.7163 216.97 24.6393 217.249 24.588C217.528 24.5367 217.799 24.511 218.063 24.511C218.554 24.511 218.961 24.588 219.284 24.742C219.614 24.896 219.863 25.1307 220.032 25.446C220.201 25.7613 220.285 26.1683 220.285 26.667V30H219.24V28.812H219.306C219.24 29.0687 219.123 29.296 218.954 29.494C218.793 29.6847 218.591 29.835 218.349 29.945C218.114 30.0477 217.843 30.099 217.535 30.099ZM221.899 30V24.61H222.988V25.765H222.9C222.995 25.501 223.127 25.2773 223.296 25.094C223.464 24.9107 223.67 24.7677 223.912 24.665C224.154 24.5623 224.418 24.511 224.704 24.511C225.151 24.511 225.518 24.621 225.804 24.841C226.09 25.0537 226.284 25.3727 226.387 25.798H226.266C226.405 25.4093 226.64 25.0977 226.97 24.863C227.307 24.6283 227.703 24.511 228.158 24.511C228.568 24.511 228.909 24.5917 229.181 24.753C229.452 24.907 229.654 25.1453 229.786 25.468C229.925 25.7907 229.995 26.1977 229.995 26.689V30H228.862V26.744C228.862 26.2967 228.785 25.9667 228.631 25.754C228.477 25.534 228.213 25.424 227.839 25.424C227.567 25.424 227.329 25.49 227.123 25.622C226.926 25.7467 226.772 25.9263 226.662 26.161C226.559 26.3957 226.508 26.6743 226.508 26.997V30H225.375V26.744C225.375 26.2967 225.294 25.9667 225.133 25.754C224.979 25.534 224.722 25.424 224.363 25.424C224.084 25.424 223.846 25.49 223.648 25.622C223.45 25.754 223.296 25.9373 223.186 26.172C223.083 26.4067 223.032 26.678 223.032 26.986V30H221.899ZM234.183 30.099C233.589 30.099 233.076 29.989 232.643 29.769C232.21 29.5417 231.877 29.219 231.642 28.801C231.415 28.383 231.301 27.888 231.301 27.316C231.301 26.7587 231.411 26.271 231.631 25.853C231.858 25.435 232.17 25.1087 232.566 24.874C232.969 24.632 233.435 24.511 233.963 24.511C234.469 24.511 234.902 24.621 235.261 24.841C235.62 25.061 235.899 25.3727 236.097 25.776C236.295 26.172 236.394 26.6487 236.394 27.206V27.58H232.181V26.876H235.613L235.437 27.041C235.437 26.491 235.312 26.0693 235.063 25.776C234.814 25.4753 234.458 25.325 233.996 25.325C233.651 25.325 233.358 25.402 233.116 25.556C232.881 25.71 232.698 25.9263 232.566 26.205C232.441 26.4837 232.379 26.8173 232.379 27.206V27.283C232.379 27.7083 232.449 28.064 232.588 28.35C232.727 28.636 232.933 28.8523 233.204 28.999C233.475 29.1383 233.809 29.208 234.205 29.208C234.506 29.208 234.806 29.164 235.107 29.076C235.408 28.9807 235.69 28.8303 235.954 28.625L236.295 29.406C236.038 29.626 235.719 29.7983 235.338 29.923C234.957 30.0403 234.572 30.099 234.183 30.099ZM243.361 30.099C242.957 30.099 242.569 30.066 242.195 30C241.828 29.934 241.491 29.835 241.183 29.703C240.875 29.5637 240.6 29.4023 240.358 29.219L240.743 28.295C240.992 28.471 241.249 28.6213 241.513 28.746C241.784 28.8707 242.074 28.9623 242.382 29.021C242.69 29.0797 243.016 29.109 243.361 29.109C243.977 29.109 244.431 28.999 244.725 28.779C245.025 28.559 245.176 28.2657 245.176 27.899C245.176 27.701 245.128 27.536 245.033 27.404C244.945 27.2647 244.798 27.1473 244.593 27.052C244.387 26.9567 244.116 26.876 243.779 26.81L242.591 26.568C241.887 26.4213 241.366 26.1757 241.029 25.831C240.691 25.4863 240.523 25.0317 240.523 24.467C240.523 23.9977 240.647 23.5907 240.897 23.246C241.153 22.894 241.502 22.6227 241.942 22.432C242.389 22.2413 242.902 22.146 243.482 22.146C243.834 22.146 244.171 22.1827 244.494 22.256C244.816 22.322 245.113 22.4247 245.385 22.564C245.656 22.696 245.894 22.861 246.1 23.059L245.726 23.95C245.41 23.6713 245.066 23.466 244.692 23.334C244.325 23.202 243.918 23.136 243.471 23.136C243.104 23.136 242.785 23.191 242.514 23.301C242.25 23.4037 242.044 23.554 241.898 23.752C241.751 23.9427 241.678 24.17 241.678 24.434C241.678 24.742 241.773 24.9877 241.964 25.171C242.162 25.347 242.495 25.4827 242.965 25.578L244.153 25.82C244.886 25.9667 245.432 26.205 245.792 26.535C246.151 26.8577 246.331 27.2903 246.331 27.833C246.331 28.2803 246.21 28.6763 245.968 29.021C245.726 29.3583 245.381 29.6223 244.934 29.813C244.494 30.0037 243.969 30.099 243.361 30.099ZM247.726 30V22.245H248.881V28.999H252.72V30H247.726ZM252.895 30L256.349 22.245H257.328L260.782 30H259.605L258.659 27.8L259.176 28.13H254.49L255.007 27.8L254.083 30H252.895ZM256.822 23.532L255.161 27.459L254.886 27.184H258.78L258.516 27.459L256.855 23.532H256.822Z" fill="#24B364"/>
</g>
</g>
</g>
</g>
<path id="Line 346" d="M18 48H269" stroke="#EAEAEC" stroke-linecap="round"/>
<g id="Frame 2147223166">
<g id="Tooltip">
<rect x="18.5" y="60.5" width="118.5" height="116" rx="9.5" fill="white"/>
<rect x="18.5" y="60.5" width="118.5" height="116" rx="9.5" stroke="#EAEAEC"/>
<path id="Date" d="M55.751 95V87.245H58.853C59.4103 87.245 59.8797 87.3367 60.261 87.52C60.6497 87.7033 60.943 87.9673 61.141 88.312C61.3463 88.6567 61.449 89.0783 61.449 89.577C61.449 90.061 61.3463 90.479 61.141 90.831C60.943 91.183 60.6497 91.4507 60.261 91.634C59.8797 91.8173 59.4103 91.909 58.853 91.909H56.675V95H55.751ZM56.675 91.139H58.732C59.326 91.139 59.7733 91.007 60.074 90.743C60.3747 90.479 60.525 90.0903 60.525 89.577C60.525 89.0637 60.3747 88.675 60.074 88.411C59.7733 88.147 59.326 88.015 58.732 88.015H56.675V91.139ZM64.958 95.099C64.386 95.099 63.891 94.989 63.473 94.769C63.055 94.5417 62.7323 94.2227 62.505 93.812C62.2777 93.394 62.164 92.899 62.164 92.327C62.164 91.7697 62.274 91.282 62.494 90.864C62.714 90.446 63.0183 90.1197 63.407 89.885C63.803 89.6503 64.2577 89.533 64.771 89.533C65.2697 89.533 65.6913 89.643 66.036 89.863C66.388 90.0757 66.6593 90.38 66.85 90.776C67.0407 91.1647 67.136 91.6377 67.136 92.195V92.525H62.857V91.92H66.531L66.344 92.074C66.344 91.4873 66.212 91.0327 65.948 90.71C65.684 90.38 65.299 90.215 64.793 90.215C64.4263 90.215 64.111 90.2993 63.847 90.468C63.5903 90.6367 63.3923 90.8713 63.253 91.172C63.1137 91.4727 63.044 91.8247 63.044 92.228V92.305C63.044 92.7523 63.1173 93.13 63.264 93.438C63.418 93.7387 63.638 93.9697 63.924 94.131C64.21 94.285 64.5547 94.362 64.958 94.362C65.2733 94.362 65.5813 94.3143 65.882 94.219C66.1827 94.1237 66.465 93.9623 66.729 93.735L67.037 94.384C66.7877 94.6113 66.4723 94.7873 66.091 94.912C65.717 95.0367 65.3393 95.099 64.958 95.099ZM68.4989 95V89.632H69.3679V90.897H69.2909C69.4229 90.4643 69.6429 90.138 69.9509 89.918C70.2662 89.6907 70.6732 89.5587 71.1719 89.522L71.5349 89.5L71.6119 90.303L70.9849 90.358C70.4862 90.4093 70.1012 90.5743 69.8299 90.853C69.5585 91.1317 69.4229 91.502 69.4229 91.964V95H68.4989ZM72.6244 95V89.632H73.5044V90.82H73.4054C73.5007 90.556 73.6327 90.3287 73.8014 90.138C73.9774 89.94 74.1827 89.7897 74.4174 89.687C74.6594 89.5843 74.9271 89.533 75.2204 89.533C75.6824 89.533 76.0564 89.6467 76.3424 89.874C76.6284 90.094 76.8154 90.4203 76.9034 90.853H76.7824C76.9217 90.4497 77.1564 90.1307 77.4864 89.896C77.8237 89.654 78.2234 89.533 78.6854 89.533C79.0887 89.533 79.4224 89.61 79.6864 89.764C79.9577 89.918 80.1594 90.1527 80.2914 90.468C80.4307 90.7833 80.5004 91.1793 80.5004 91.656V95H79.5874V91.711C79.5874 91.227 79.5031 90.8713 79.3344 90.644C79.1657 90.4093 78.8761 90.292 78.4654 90.292C78.1721 90.292 77.9154 90.3617 77.6954 90.501C77.4754 90.6403 77.3067 90.8383 77.1894 91.095C77.0721 91.3443 77.0134 91.6377 77.0134 91.975V95H76.1114V91.711C76.1114 91.227 76.0234 90.8713 75.8474 90.644C75.6714 90.4093 75.3854 90.292 74.9894 90.292C74.6887 90.292 74.4284 90.3653 74.2084 90.512C73.9957 90.6513 73.8307 90.8457 73.7134 91.095C73.5961 91.3443 73.5374 91.634 73.5374 91.964V95H72.6244ZM82.1281 88.301V87.289H83.2501V88.301H82.1281ZM82.2381 95V89.632H83.1511V95H82.2381ZM86.8275 95.099C86.3875 95.099 86.0208 95.0183 85.7275 94.857C85.4415 94.6957 85.2251 94.4573 85.0785 94.142C84.9391 93.8267 84.8695 93.4343 84.8695 92.965V89.632H85.7825V92.943C85.7825 93.251 85.8228 93.5113 85.9035 93.724C85.9915 93.9293 86.1271 94.0833 86.3105 94.186C86.4938 94.2887 86.7248 94.34 87.0035 94.34C87.3115 94.34 87.5828 94.2703 87.8175 94.131C88.0521 93.9843 88.2355 93.7863 88.3675 93.537C88.4995 93.2877 88.5655 92.998 88.5655 92.668V89.632H89.4785V95H88.5985V93.779H88.7085C88.5545 94.2043 88.3125 94.5307 87.9825 94.758C87.6525 94.9853 87.2675 95.099 86.8275 95.099ZM91.2406 95V89.632H92.1206V90.82H92.0216C92.1169 90.556 92.2489 90.3287 92.4176 90.138C92.5936 89.94 92.7989 89.7897 93.0336 89.687C93.2756 89.5843 93.5433 89.533 93.8366 89.533C94.2986 89.533 94.6726 89.6467 94.9586 89.874C95.2446 90.094 95.4316 90.4203 95.5196 90.853H95.3986C95.5379 90.4497 95.7726 90.1307 96.1026 89.896C96.4399 89.654 96.8396 89.533 97.3016 89.533C97.7049 89.533 98.0386 89.61 98.3026 89.764C98.5739 89.918 98.7756 90.1527 98.9076 90.468C99.0469 90.7833 99.1166 91.1793 99.1166 91.656V95H98.2036V91.711C98.2036 91.227 98.1193 90.8713 97.9506 90.644C97.7819 90.4093 97.4923 90.292 97.0816 90.292C96.7883 90.292 96.5316 90.3617 96.3116 90.501C96.0916 90.6403 95.9229 90.8383 95.8056 91.095C95.6883 91.3443 95.6296 91.6377 95.6296 91.975V95H94.7276V91.711C94.7276 91.227 94.6396 90.8713 94.4636 90.644C94.2876 90.4093 94.0016 90.292 93.6056 90.292C93.3049 90.292 93.0446 90.3653 92.8246 90.512C92.6119 90.6513 92.4469 90.8457 92.3296 91.095C92.2123 91.3443 92.1536 91.634 92.1536 91.964V95H91.2406Z" fill="#8D8A94"/>
<path id="Number" d="M65.1705 121L62.7865 117.416C62.6478 117.192 62.4985 117.011 62.3385 116.872C62.1892 116.733 62.0185 116.637 61.8265 116.584C61.6452 116.52 61.4265 116.488 61.1705 116.488H58.8985V114.872H62.0345C62.5465 114.872 62.9678 114.813 63.2985 114.696C63.6292 114.568 63.8852 114.376 64.0665 114.12C64.2585 113.864 64.3812 113.539 64.4345 113.144L64.7065 113.624H58.8985V112.216H64.7065L64.4025 112.664C64.3172 112.152 64.0878 111.768 63.7145 111.512C63.3412 111.256 62.8078 111.128 62.1145 111.128H58.8985V109.72H67.8425V111.128H64.9785L65.1705 110.68C65.5332 110.872 65.8158 111.128 66.0185 111.448C66.2212 111.757 66.3438 112.12 66.3865 112.536L66.0185 112.216H67.8425V113.624H66.0665L66.4185 113.048C66.4292 113.731 66.2798 114.323 65.9705 114.824C65.6612 115.325 65.2185 115.715 64.6425 115.992C64.0772 116.259 63.3945 116.392 62.5945 116.392V116.232H63.0425C63.3625 116.232 63.6505 116.275 63.9065 116.36C64.1625 116.435 64.4025 116.568 64.6265 116.76C64.8505 116.941 65.0638 117.187 65.2665 117.496L67.6345 121H65.1705ZM69.9003 121V119.304H72.4443V111.448H73.4363L70.4763 113.24L69.6763 111.736L73.0363 109.72H74.4923V119.304H76.8763V121H69.9003ZM79.03 121V119.48L82.678 115.592C83.0087 115.24 83.27 114.915 83.462 114.616C83.6647 114.317 83.814 114.029 83.91 113.752C84.006 113.475 84.054 113.197 84.054 112.92C84.054 112.387 83.8833 111.981 83.542 111.704C83.2113 111.427 82.726 111.288 82.086 111.288C81.5847 111.288 81.094 111.384 80.614 111.576C80.1447 111.757 79.6913 112.045 79.254 112.44L78.566 110.904C79.014 110.499 79.574 110.173 80.246 109.928C80.918 109.683 81.6167 109.56 82.342 109.56C83.1527 109.56 83.8353 109.683 84.39 109.928C84.9447 110.173 85.366 110.531 85.654 111C85.942 111.469 86.086 112.04 86.086 112.712C86.086 113.053 86.0433 113.389 85.958 113.72C85.8833 114.04 85.7607 114.36 85.59 114.68C85.43 115 85.222 115.331 84.966 115.672C84.7207 116.003 84.422 116.349 84.07 116.712L81.062 119.848V119.304H86.518V121H79.03ZM92.1438 121.16C91.2584 121.16 90.5064 120.936 89.8878 120.488C89.2798 120.029 88.8158 119.368 88.4958 118.504C88.1864 117.64 88.0318 116.584 88.0318 115.336C88.0318 114.077 88.1864 113.021 88.4958 112.168C88.8158 111.304 89.2798 110.653 89.8878 110.216C90.5064 109.779 91.2584 109.56 92.1438 109.56C93.0398 109.56 93.7918 109.779 94.3998 110.216C95.0184 110.653 95.4824 111.299 95.7917 112.152C96.1011 113.005 96.2558 114.061 96.2558 115.32C96.2558 116.568 96.0958 117.629 95.7758 118.504C95.4664 119.368 95.0078 120.029 94.3998 120.488C93.7918 120.936 93.0398 121.16 92.1438 121.16ZM92.1438 119.48C92.8691 119.48 93.4024 119.149 93.7438 118.488C94.0958 117.816 94.2718 116.76 94.2718 115.32C94.2718 113.891 94.0958 112.856 93.7438 112.216C93.4024 111.565 92.8691 111.24 92.1438 111.24C91.4291 111.24 90.8958 111.565 90.5438 112.216C90.1918 112.856 90.0158 113.896 90.0158 115.336C90.0158 116.765 90.1918 117.816 90.5438 118.488C90.8958 119.149 91.4291 119.48 92.1438 119.48Z" fill="black"/>
<g id="Badge-status-shipment_2">
<rect x="48.75" y="133" width="58" height="20" rx="10" fill="#EBEBED"/>
<path id="Label_2" d="M60.303 147.099C59.8997 147.099 59.511 147.066 59.137 147C58.7703 146.934 58.433 146.835 58.125 146.703C57.817 146.564 57.542 146.402 57.3 146.219L57.685 145.295C57.9343 145.471 58.191 145.621 58.455 145.746C58.7263 145.871 59.016 145.962 59.324 146.021C59.632 146.08 59.9583 146.109 60.303 146.109C60.919 146.109 61.3737 145.999 61.667 145.779C61.9677 145.559 62.118 145.266 62.118 144.899C62.118 144.701 62.0703 144.536 61.975 144.404C61.887 144.265 61.7403 144.147 61.535 144.052C61.3297 143.957 61.0583 143.876 60.721 143.81L59.533 143.568C58.829 143.421 58.3083 143.176 57.971 142.831C57.6337 142.486 57.465 142.032 57.465 141.467C57.465 140.998 57.5897 140.591 57.839 140.246C58.0957 139.894 58.444 139.623 58.884 139.432C59.3313 139.241 59.8447 139.146 60.424 139.146C60.776 139.146 61.1133 139.183 61.436 139.256C61.7587 139.322 62.0557 139.425 62.327 139.564C62.5983 139.696 62.8367 139.861 63.042 140.059L62.668 140.95C62.3527 140.671 62.008 140.466 61.634 140.334C61.2673 140.202 60.8603 140.136 60.413 140.136C60.0463 140.136 59.7273 140.191 59.456 140.301C59.192 140.404 58.9867 140.554 58.84 140.752C58.6933 140.943 58.62 141.17 58.62 141.434C58.62 141.742 58.7153 141.988 58.906 142.171C59.104 142.347 59.4377 142.483 59.907 142.578L61.095 142.82C61.8283 142.967 62.3747 143.205 62.734 143.535C63.0933 143.858 63.273 144.29 63.273 144.833C63.273 145.28 63.152 145.676 62.91 146.021C62.668 146.358 62.3233 146.622 61.876 146.813C61.436 147.004 60.9117 147.099 60.303 147.099ZM64.5249 147V139.245H65.6579V143.964H65.6909L68.0119 141.61H69.3979L66.5819 144.459V143.953L69.6069 147H68.1989L65.6909 144.536H65.6579V147H64.5249ZM70.216 140.367V139.19H71.536V140.367H70.216ZM70.315 147V141.61H71.448V147H70.315ZM73.0757 148.98V141.61H74.1647V142.809H74.0877C74.2124 142.406 74.4471 142.09 74.7917 141.863C75.1364 141.628 75.5434 141.511 76.0127 141.511C76.4967 141.511 76.9184 141.625 77.2777 141.852C77.6371 142.079 77.9157 142.402 78.1137 142.82C78.3117 143.238 78.4107 143.733 78.4107 144.305C78.4107 144.87 78.3117 145.365 78.1137 145.79C77.9157 146.208 77.6371 146.531 77.2777 146.758C76.9257 146.985 76.5041 147.099 76.0127 147.099C75.5507 147.099 75.1511 146.985 74.8137 146.758C74.4764 146.523 74.2417 146.219 74.1097 145.845H74.2087V148.98H73.0757ZM75.7267 146.219C76.1961 146.219 76.5701 146.054 76.8487 145.724C77.1274 145.387 77.2667 144.914 77.2667 144.305C77.2667 143.682 77.1274 143.209 76.8487 142.886C76.5701 142.563 76.1961 142.402 75.7267 142.402C75.2574 142.402 74.8834 142.563 74.6047 142.886C74.3334 143.209 74.1977 143.682 74.1977 144.305C74.1977 144.914 74.3371 145.387 74.6157 145.724C74.8944 146.054 75.2647 146.219 75.7267 146.219ZM79.7144 148.98V141.61H80.8034V142.809H80.7264C80.8511 142.406 81.0857 142.09 81.4304 141.863C81.7751 141.628 82.1821 141.511 82.6514 141.511C83.1354 141.511 83.5571 141.625 83.9164 141.852C84.2757 142.079 84.5544 142.402 84.7524 142.82C84.9504 143.238 85.0494 143.733 85.0494 144.305C85.0494 144.87 84.9504 145.365 84.7524 145.79C84.5544 146.208 84.2757 146.531 83.9164 146.758C83.5644 146.985 83.1427 147.099 82.6514 147.099C82.1894 147.099 81.7897 146.985 81.4524 146.758C81.1151 146.523 80.8804 146.219 80.7484 145.845H80.8474V148.98H79.7144ZM82.3654 146.219C82.8347 146.219 83.2087 146.054 83.4874 145.724C83.7661 145.387 83.9054 144.914 83.9054 144.305C83.9054 143.682 83.7661 143.209 83.4874 142.886C83.2087 142.563 82.8347 142.402 82.3654 142.402C81.8961 142.402 81.5221 142.563 81.2434 142.886C80.9721 143.209 80.8364 143.682 80.8364 144.305C80.8364 144.914 80.9757 145.387 81.2544 145.724C81.5331 146.054 81.9034 146.219 82.3654 146.219ZM88.9271 147.099C88.3331 147.099 87.8197 146.989 87.3871 146.769C86.9544 146.542 86.6207 146.219 86.3861 145.801C86.1587 145.383 86.0451 144.888 86.0451 144.316C86.0451 143.759 86.1551 143.271 86.3751 142.853C86.6024 142.435 86.9141 142.109 87.3101 141.874C87.7134 141.632 88.1791 141.511 88.7071 141.511C89.2131 141.511 89.6457 141.621 90.0051 141.841C90.3644 142.061 90.6431 142.373 90.8411 142.776C91.0391 143.172 91.1381 143.649 91.1381 144.206V144.58H86.9251V143.876H90.3571L90.1811 144.041C90.1811 143.491 90.0564 143.069 89.8071 142.776C89.5577 142.475 89.2021 142.325 88.7401 142.325C88.3954 142.325 88.1021 142.402 87.8601 142.556C87.6254 142.71 87.4421 142.926 87.3101 143.205C87.1854 143.484 87.1231 143.817 87.1231 144.206V144.283C87.1231 144.708 87.1927 145.064 87.3321 145.35C87.4714 145.636 87.6767 145.852 87.9481 145.999C88.2194 146.138 88.5531 146.208 88.9491 146.208C89.2497 146.208 89.5504 146.164 89.8511 146.076C90.1517 145.981 90.4341 145.83 90.6981 145.625L91.0391 146.406C90.7824 146.626 90.4634 146.798 90.0821 146.923C89.7007 147.04 89.3157 147.099 88.9271 147.099ZM94.5017 147.099C94.0177 147.099 93.596 146.985 93.2367 146.758C92.8773 146.531 92.5987 146.208 92.4007 145.79C92.2027 145.365 92.1037 144.87 92.1037 144.305C92.1037 143.733 92.199 143.238 92.3897 142.82C92.5877 142.402 92.8663 142.079 93.2257 141.852C93.5923 141.625 94.014 141.511 94.4907 141.511C94.96 141.511 95.3597 141.625 95.6897 141.852C96.027 142.079 96.258 142.384 96.3827 142.765H96.2947V139.245H97.4277V147H96.3387V145.801H96.4157C96.291 146.204 96.0563 146.523 95.7117 146.758C95.3743 146.985 94.971 147.099 94.5017 147.099ZM94.7767 146.219C95.246 146.219 95.62 146.054 95.8987 145.724C96.1773 145.394 96.3167 144.921 96.3167 144.305C96.3167 143.682 96.1773 143.209 95.8987 142.886C95.62 142.563 95.246 142.402 94.7767 142.402C94.3073 142.402 93.9333 142.563 93.6547 142.886C93.376 143.209 93.2367 143.682 93.2367 144.305C93.2367 144.921 93.376 145.394 93.6547 145.724C93.9333 146.054 94.3073 146.219 94.7767 146.219Z" fill="#444050"/>
</g>
</g>
<g id="Tooltip_2">
<rect x="150" y="60.5" width="118.5" height="116" rx="9.5" fill="#EEFBF3"/>
<rect x="150" y="60.5" width="118.5" height="116" rx="9.5" stroke="#ADEAC8"/>
<path id="Date_2" d="M189.281 95.099C188.87 95.099 188.485 95.066 188.126 95C187.767 94.9267 187.433 94.824 187.125 94.692C186.824 94.5527 186.557 94.384 186.322 94.186L186.652 93.438C186.901 93.6287 187.158 93.7863 187.422 93.911C187.686 94.0357 187.972 94.131 188.28 94.197C188.588 94.2557 188.922 94.285 189.281 94.285C189.926 94.285 190.41 94.164 190.733 93.922C191.056 93.6727 191.217 93.3427 191.217 92.932C191.217 92.712 191.166 92.5287 191.063 92.382C190.968 92.228 190.806 92.0997 190.579 91.997C190.359 91.887 190.069 91.7953 189.71 91.722L188.533 91.491C187.836 91.3443 187.319 91.1023 186.982 90.765C186.652 90.4277 186.487 89.9803 186.487 89.423C186.487 88.9683 186.608 88.5723 186.85 88.235C187.092 87.8903 187.429 87.6227 187.862 87.432C188.295 87.2413 188.79 87.146 189.347 87.146C189.706 87.146 190.044 87.1827 190.359 87.256C190.674 87.322 190.964 87.4283 191.228 87.575C191.499 87.7143 191.738 87.8867 191.943 88.092L191.613 88.818C191.29 88.5173 190.946 88.301 190.579 88.169C190.212 88.0297 189.802 87.96 189.347 87.96C188.958 87.96 188.617 88.0187 188.324 88.136C188.038 88.2533 187.814 88.422 187.653 88.642C187.499 88.8547 187.422 89.1113 187.422 89.412C187.422 89.7493 187.528 90.0207 187.741 90.226C187.954 90.424 188.306 90.5743 188.797 90.677L189.963 90.908C190.704 91.062 191.254 91.2967 191.613 91.612C191.972 91.9273 192.152 92.3527 192.152 92.888C192.152 93.3207 192.035 93.7057 191.8 94.043C191.565 94.373 191.232 94.6333 190.799 94.824C190.374 95.0073 189.868 95.099 189.281 95.099ZM195.662 95.099C195.024 95.099 194.543 94.9303 194.221 94.593C193.905 94.2557 193.748 93.7717 193.748 93.141V90.347H192.681V89.632H193.748V88.004H194.661V89.632H196.41V90.347H194.661V93.053C194.661 93.471 194.749 93.7863 194.925 93.999C195.101 94.2117 195.387 94.318 195.783 94.318C195.907 94.318 196.032 94.3033 196.157 94.274C196.281 94.2447 196.395 94.2117 196.498 94.175L196.652 94.879C196.549 94.9377 196.402 94.989 196.212 95.033C196.021 95.077 195.838 95.099 195.662 95.099ZM199.228 95.099C198.854 95.099 198.52 95.0293 198.227 94.89C197.933 94.7433 197.702 94.5453 197.534 94.296C197.365 94.0467 197.281 93.768 197.281 93.46C197.281 93.064 197.383 92.7523 197.589 92.525C197.801 92.2903 198.142 92.1253 198.612 92.03C199.088 91.9273 199.723 91.876 200.515 91.876H201.087V92.481H200.537C200.097 92.481 199.726 92.4957 199.426 92.525C199.125 92.5543 198.883 92.6057 198.7 92.679C198.524 92.745 198.395 92.8403 198.315 92.965C198.234 93.0823 198.194 93.229 198.194 93.405C198.194 93.7057 198.3 93.9477 198.513 94.131C198.733 94.3143 199.022 94.406 199.382 94.406C199.682 94.406 199.946 94.3363 200.174 94.197C200.408 94.0503 200.592 93.856 200.724 93.614C200.863 93.372 200.933 93.1007 200.933 92.8V91.535C200.933 91.0877 200.834 90.765 200.636 90.567C200.438 90.3617 200.122 90.259 199.69 90.259C199.367 90.259 199.052 90.3067 198.744 90.402C198.443 90.4973 198.131 90.644 197.809 90.842L197.501 90.182C197.699 90.0427 197.919 89.9253 198.161 89.83C198.41 89.7347 198.667 89.6613 198.931 89.61C199.202 89.5587 199.466 89.533 199.723 89.533C200.185 89.533 200.57 89.6063 200.878 89.753C201.193 89.8997 201.428 90.127 201.582 90.435C201.743 90.743 201.824 91.139 201.824 91.623V95H200.977V93.768H201.054C200.98 94.032 200.859 94.2667 200.691 94.472C200.522 94.67 200.313 94.824 200.064 94.934C199.822 95.044 199.543 95.099 199.228 95.099ZM203.527 95V89.632H204.407V90.82H204.319C204.473 90.3947 204.726 90.0757 205.078 89.863C205.43 89.643 205.83 89.533 206.277 89.533C206.717 89.533 207.08 89.61 207.366 89.764C207.652 89.918 207.865 90.1527 208.004 90.468C208.144 90.7833 208.213 91.1793 208.213 91.656V95H207.3V91.711C207.3 91.3957 207.256 91.1317 207.168 90.919C207.088 90.7063 206.956 90.5487 206.772 90.446C206.596 90.3433 206.362 90.292 206.068 90.292C205.746 90.292 205.46 90.3617 205.21 90.501C204.968 90.6403 204.778 90.8347 204.638 91.084C204.506 91.3333 204.44 91.623 204.44 91.953V95H203.527ZM211.998 95.099C211.521 95.099 211.099 94.9853 210.733 94.758C210.373 94.5307 210.095 94.208 209.897 93.79C209.699 93.3647 209.6 92.8733 209.6 92.316C209.6 91.744 209.699 91.2527 209.897 90.842C210.095 90.424 210.373 90.1013 210.733 89.874C211.092 89.6467 211.514 89.533 211.998 89.533C212.474 89.533 212.885 89.6503 213.23 89.885C213.574 90.1197 213.809 90.4387 213.934 90.842H213.846V87.245H214.759V95H213.879V93.746H213.956C213.831 94.164 213.593 94.494 213.241 94.736C212.896 94.978 212.482 95.099 211.998 95.099ZM212.196 94.362C212.702 94.362 213.105 94.1823 213.406 93.823C213.706 93.4637 213.857 92.9613 213.857 92.316C213.857 91.656 213.706 91.15 213.406 90.798C213.105 90.446 212.702 90.27 212.196 90.27C211.682 90.27 211.275 90.446 210.975 90.798C210.674 91.15 210.524 91.656 210.524 92.316C210.524 92.9613 210.674 93.4637 210.975 93.823C211.275 94.1823 211.682 94.362 212.196 94.362ZM218.209 95.099C217.835 95.099 217.501 95.0293 217.208 94.89C216.915 94.7433 216.684 94.5453 216.515 94.296C216.346 94.0467 216.262 93.768 216.262 93.46C216.262 93.064 216.365 92.7523 216.57 92.525C216.783 92.2903 217.124 92.1253 217.593 92.03C218.07 91.9273 218.704 91.876 219.496 91.876H220.068V92.481H219.518C219.078 92.481 218.708 92.4957 218.407 92.525C218.106 92.5543 217.864 92.6057 217.681 92.679C217.505 92.745 217.377 92.8403 217.296 92.965C217.215 93.0823 217.175 93.229 217.175 93.405C217.175 93.7057 217.281 93.9477 217.494 94.131C217.714 94.3143 218.004 94.406 218.363 94.406C218.664 94.406 218.928 94.3363 219.155 94.197C219.39 94.0503 219.573 93.856 219.705 93.614C219.844 93.372 219.914 93.1007 219.914 92.8V91.535C219.914 91.0877 219.815 90.765 219.617 90.567C219.419 90.3617 219.104 90.259 218.671 90.259C218.348 90.259 218.033 90.3067 217.725 90.402C217.424 90.4973 217.113 90.644 216.79 90.842L216.482 90.182C216.68 90.0427 216.9 89.9253 217.142 89.83C217.391 89.7347 217.648 89.6613 217.912 89.61C218.183 89.5587 218.447 89.533 218.704 89.533C219.166 89.533 219.551 89.6063 219.859 89.753C220.174 89.8997 220.409 90.127 220.563 90.435C220.724 90.743 220.805 91.139 220.805 91.623V95H219.958V93.768H220.035C219.962 94.032 219.841 94.2667 219.672 94.472C219.503 94.67 219.294 94.824 219.045 94.934C218.803 95.044 218.524 95.099 218.209 95.099ZM222.509 95V89.632H223.378V90.897H223.301C223.433 90.4643 223.653 90.138 223.961 89.918C224.276 89.6907 224.683 89.5587 225.182 89.522L225.545 89.5L225.622 90.303L224.995 90.358C224.496 90.4093 224.111 90.5743 223.84 90.853C223.568 91.1317 223.433 91.502 223.433 91.964V95H222.509ZM228.616 95.099C228.139 95.099 227.717 94.9853 227.351 94.758C226.991 94.5307 226.713 94.208 226.515 93.79C226.317 93.3647 226.218 92.8733 226.218 92.316C226.218 91.744 226.317 91.2527 226.515 90.842C226.713 90.424 226.991 90.1013 227.351 89.874C227.71 89.6467 228.132 89.533 228.616 89.533C229.092 89.533 229.503 89.6503 229.848 89.885C230.192 90.1197 230.427 90.4387 230.552 90.842H230.464V87.245H231.377V95H230.497V93.746H230.574C230.449 94.164 230.211 94.494 229.859 94.736C229.514 94.978 229.1 95.099 228.616 95.099ZM228.814 94.362C229.32 94.362 229.723 94.1823 230.024 93.823C230.324 93.4637 230.475 92.9613 230.475 92.316C230.475 91.656 230.324 91.15 230.024 90.798C229.723 90.446 229.32 90.27 228.814 90.27C228.3 90.27 227.893 90.446 227.593 90.798C227.292 91.15 227.142 91.656 227.142 92.316C227.142 92.9613 227.292 93.4637 227.593 93.823C227.893 94.1823 228.3 94.362 228.814 94.362Z" fill="#8D8A94"/>
<path id="Number_2" d="M201.467 121L199.083 117.416C198.945 117.192 198.795 117.011 198.635 116.872C198.486 116.733 198.315 116.637 198.123 116.584C197.942 116.52 197.723 116.488 197.467 116.488H195.195V114.872H198.331C198.843 114.872 199.265 114.813 199.595 114.696C199.926 114.568 200.182 114.376 200.363 114.12C200.555 113.864 200.678 113.539 200.731 113.144L201.003 113.624H195.195V112.216H201.003L200.699 112.664C200.614 112.152 200.385 111.768 200.011 111.512C199.638 111.256 199.105 111.128 198.411 111.128H195.195V109.72H204.139V111.128H201.275L201.467 110.68C201.83 110.872 202.113 111.128 202.315 111.448C202.518 111.757 202.641 112.12 202.683 112.536L202.315 112.216H204.139V113.624H202.363L202.715 113.048C202.726 113.731 202.577 114.323 202.267 114.824C201.958 115.325 201.515 115.715 200.939 115.992C200.374 116.259 199.691 116.392 198.891 116.392V116.232H199.339C199.659 116.232 199.947 116.275 200.203 116.36C200.459 116.435 200.699 116.568 200.923 116.76C201.147 116.941 201.361 117.187 201.563 117.496L203.931 121H201.467ZM209.253 121.16C207.941 121.16 206.912 120.877 206.165 120.312C205.429 119.747 205.061 118.963 205.061 117.96C205.061 117.427 205.168 116.957 205.381 116.552C205.605 116.136 205.909 115.8 206.293 115.544C206.677 115.288 207.114 115.128 207.605 115.064V115.4C207.157 115.304 206.762 115.128 206.421 114.872C206.08 114.605 205.813 114.28 205.621 113.896C205.44 113.501 205.349 113.069 205.349 112.6C205.349 111.651 205.701 110.909 206.405 110.376C207.109 109.832 208.064 109.56 209.269 109.56C210.464 109.56 211.413 109.832 212.117 110.376C212.821 110.909 213.173 111.651 213.173 112.6C213.173 113.069 213.077 113.501 212.885 113.896C212.704 114.291 212.442 114.616 212.101 114.872C211.77 115.128 211.381 115.299 210.933 115.384V115.064C211.434 115.128 211.872 115.293 212.245 115.56C212.618 115.816 212.912 116.152 213.125 116.568C213.338 116.973 213.445 117.437 213.445 117.96C213.445 118.963 213.072 119.747 212.325 120.312C211.589 120.877 210.565 121.16 209.253 121.16ZM209.253 119.56C210.01 119.56 210.581 119.416 210.965 119.128C211.349 118.829 211.541 118.392 211.541 117.816C211.541 117.24 211.349 116.808 210.965 116.52C210.581 116.232 210.01 116.088 209.253 116.088C208.506 116.088 207.936 116.232 207.541 116.52C207.157 116.808 206.965 117.24 206.965 117.816C206.965 118.392 207.157 118.829 207.541 119.128C207.936 119.416 208.506 119.56 209.253 119.56ZM209.253 114.488C209.882 114.488 210.373 114.339 210.725 114.04C211.088 113.741 211.269 113.331 211.269 112.808C211.269 112.296 211.088 111.896 210.725 111.608C210.373 111.309 209.882 111.16 209.253 111.16C208.624 111.16 208.133 111.309 207.781 111.608C207.429 111.896 207.253 112.301 207.253 112.824C207.253 113.336 207.429 113.741 207.781 114.04C208.133 114.339 208.624 114.488 209.253 114.488ZM219.263 121.16C218.335 121.16 217.54 120.941 216.879 120.504C216.228 120.056 215.732 119.416 215.391 118.584C215.05 117.752 214.879 116.744 214.879 115.56C214.879 114.28 215.071 113.197 215.455 112.312C215.839 111.416 216.394 110.733 217.119 110.264C217.844 109.795 218.714 109.56 219.727 109.56C220.122 109.56 220.516 109.613 220.911 109.72C221.316 109.816 221.695 109.96 222.047 110.152C222.41 110.333 222.73 110.557 223.007 110.824L222.335 112.36C221.94 111.997 221.519 111.731 221.071 111.56C220.623 111.379 220.164 111.288 219.695 111.288C219.236 111.288 218.826 111.373 218.463 111.544C218.111 111.704 217.812 111.949 217.567 112.28C217.322 112.6 217.135 113.005 217.007 113.496C216.89 113.976 216.831 114.536 216.831 115.176V116.376H216.639C216.724 115.832 216.9 115.368 217.167 114.984C217.444 114.589 217.796 114.291 218.223 114.088C218.65 113.875 219.124 113.768 219.647 113.768C220.298 113.768 220.874 113.923 221.375 114.232C221.876 114.541 222.271 114.968 222.559 115.512C222.847 116.056 222.991 116.68 222.991 117.384C222.991 118.109 222.831 118.76 222.511 119.336C222.202 119.901 221.764 120.349 221.199 120.68C220.644 121 219.999 121.16 219.263 121.16ZM219.151 119.528C219.535 119.528 219.871 119.443 220.159 119.272C220.458 119.101 220.687 118.861 220.847 118.552C221.007 118.232 221.087 117.869 221.087 117.464C221.087 117.048 221.007 116.685 220.847 116.376C220.687 116.067 220.458 115.827 220.159 115.656C219.871 115.475 219.535 115.384 219.151 115.384C218.767 115.384 218.431 115.475 218.143 115.656C217.855 115.827 217.626 116.067 217.455 116.376C217.295 116.685 217.215 117.048 217.215 117.464C217.215 117.869 217.295 118.232 217.455 118.552C217.626 118.861 217.855 119.101 218.143 119.272C218.431 119.443 218.767 119.528 219.151 119.528Z" fill="black"/>
<g id="Badge-status-shipment_3">
<rect x="160.75" y="133" width="97" height="20" rx="9" fill="white"/>
<circle id="Color Indicator" cx="169.75" cy="143" r="4" fill="#28C76F"/>
<path id="Label_3" d="M178.674 147V146.142L181.27 143.37C181.519 143.106 181.714 142.864 181.853 142.644C182 142.424 182.106 142.211 182.172 142.006C182.245 141.793 182.282 141.584 182.282 141.379C182.282 140.976 182.154 140.668 181.897 140.455C181.648 140.242 181.285 140.136 180.808 140.136C180.441 140.136 180.089 140.206 179.752 140.345C179.415 140.477 179.092 140.686 178.784 140.972L178.377 140.092C178.678 139.806 179.055 139.579 179.51 139.41C179.965 139.234 180.438 139.146 180.929 139.146C181.464 139.146 181.915 139.23 182.282 139.399C182.656 139.56 182.938 139.802 183.129 140.125C183.327 140.44 183.426 140.825 183.426 141.28C183.426 141.515 183.397 141.742 183.338 141.962C183.287 142.182 183.202 142.402 183.085 142.622C182.975 142.842 182.832 143.069 182.656 143.304C182.487 143.531 182.282 143.77 182.04 144.019L179.895 146.285V146.032H183.723V147H178.674ZM185.116 144.514V143.601H188.284V144.514H185.116ZM192.127 147.099C191.643 147.099 191.221 146.985 190.862 146.758C190.502 146.531 190.224 146.208 190.026 145.79C189.828 145.365 189.729 144.87 189.729 144.305C189.729 143.733 189.824 143.238 190.015 142.82C190.213 142.402 190.491 142.079 190.851 141.852C191.217 141.625 191.639 141.511 192.116 141.511C192.585 141.511 192.985 141.625 193.315 141.852C193.652 142.079 193.883 142.384 194.008 142.765H193.92V139.245H195.053V147H193.964V145.801H194.041C193.916 146.204 193.681 146.523 193.337 146.758C192.999 146.985 192.596 147.099 192.127 147.099ZM192.402 146.219C192.871 146.219 193.245 146.054 193.524 145.724C193.802 145.394 193.942 144.921 193.942 144.305C193.942 143.682 193.802 143.209 193.524 142.886C193.245 142.563 192.871 142.402 192.402 142.402C191.932 142.402 191.558 142.563 191.28 142.886C191.001 143.209 190.862 143.682 190.862 144.305C190.862 144.921 191.001 145.394 191.28 145.724C191.558 146.054 191.932 146.219 192.402 146.219ZM198.435 147.099C198.054 147.099 197.713 147.026 197.412 146.879C197.112 146.732 196.873 146.534 196.697 146.285C196.529 146.028 196.444 145.746 196.444 145.438C196.444 145.035 196.547 144.719 196.752 144.492C196.965 144.257 197.306 144.089 197.775 143.986C198.252 143.883 198.883 143.832 199.667 143.832H200.25V144.536H199.689C199.293 144.536 198.96 144.551 198.688 144.58C198.417 144.602 198.197 144.646 198.028 144.712C197.867 144.771 197.75 144.855 197.676 144.965C197.603 145.075 197.566 145.211 197.566 145.372C197.566 145.643 197.662 145.863 197.852 146.032C198.05 146.201 198.318 146.285 198.655 146.285C198.934 146.285 199.18 146.219 199.392 146.087C199.605 145.955 199.774 145.779 199.898 145.559C200.023 145.339 200.085 145.086 200.085 144.8V143.546C200.085 143.135 199.99 142.842 199.799 142.666C199.616 142.483 199.315 142.391 198.897 142.391C198.589 142.391 198.278 142.439 197.962 142.534C197.654 142.622 197.339 142.765 197.016 142.963L196.664 142.16C196.87 142.028 197.097 141.914 197.346 141.819C197.603 141.716 197.871 141.639 198.149 141.588C198.428 141.537 198.699 141.511 198.963 141.511C199.455 141.511 199.862 141.588 200.184 141.742C200.514 141.896 200.764 142.131 200.932 142.446C201.101 142.761 201.185 143.168 201.185 143.667V147H200.14V145.812H200.206C200.14 146.069 200.023 146.296 199.854 146.494C199.693 146.685 199.491 146.835 199.249 146.945C199.015 147.048 198.743 147.099 198.435 147.099ZM203.295 148.98L204.362 146.604V147.176L201.975 141.61H203.185L204.956 146.021H204.714L206.496 141.61H207.662L204.483 148.98H203.295ZM211.335 144.712V143.381H212.688V144.712H211.335ZM219.526 147.099C218.976 147.099 218.496 146.985 218.085 146.758C217.682 146.523 217.37 146.193 217.15 145.768C216.93 145.343 216.82 144.848 216.82 144.283C216.82 143.711 216.93 143.22 217.15 142.809C217.37 142.391 217.682 142.072 218.085 141.852C218.496 141.625 218.98 141.511 219.537 141.511C219.882 141.511 220.219 141.57 220.549 141.687C220.887 141.804 221.165 141.966 221.385 142.171L221.022 142.985C220.817 142.794 220.59 142.655 220.34 142.567C220.091 142.472 219.853 142.424 219.625 142.424C219.097 142.424 218.69 142.585 218.404 142.908C218.118 143.231 217.975 143.693 217.975 144.294C217.975 144.888 218.118 145.354 218.404 145.691C218.69 146.021 219.097 146.186 219.625 146.186C219.853 146.186 220.091 146.142 220.34 146.054C220.59 145.959 220.813 145.819 221.011 145.636L221.374 146.45C221.162 146.648 220.887 146.806 220.549 146.923C220.212 147.04 219.871 147.099 219.526 147.099ZM222.381 147V139.245H223.503V142.743H223.393C223.555 142.347 223.808 142.043 224.152 141.83C224.497 141.617 224.889 141.511 225.329 141.511C225.769 141.511 226.129 141.592 226.407 141.753C226.693 141.907 226.906 142.145 227.045 142.468C227.192 142.791 227.265 143.198 227.265 143.689V147H226.132V143.755C226.132 143.454 226.092 143.209 226.011 143.018C225.938 142.82 225.817 142.673 225.648 142.578C225.487 142.475 225.278 142.424 225.021 142.424C224.721 142.424 224.457 142.49 224.229 142.622C224.002 142.754 223.826 142.937 223.701 143.172C223.577 143.399 223.514 143.663 223.514 143.964V147H222.381ZM231.235 147.099C230.692 147.099 230.219 146.985 229.816 146.758C229.42 146.531 229.112 146.208 228.892 145.79C228.672 145.365 228.562 144.87 228.562 144.305C228.562 143.733 228.672 143.238 228.892 142.82C229.112 142.402 229.42 142.079 229.816 141.852C230.219 141.625 230.692 141.511 231.235 141.511C231.777 141.511 232.247 141.625 232.643 141.852C233.046 142.079 233.358 142.402 233.578 142.82C233.798 143.238 233.908 143.733 233.908 144.305C233.908 144.87 233.798 145.365 233.578 145.79C233.358 146.208 233.046 146.531 232.643 146.758C232.247 146.985 231.777 147.099 231.235 147.099ZM231.235 146.208C231.704 146.208 232.078 146.043 232.357 145.713C232.635 145.383 232.775 144.91 232.775 144.294C232.775 143.685 232.635 143.22 232.357 142.897C232.078 142.574 231.704 142.413 231.235 142.413C230.765 142.413 230.391 142.574 230.113 142.897C229.834 143.22 229.695 143.685 229.695 144.294C229.695 144.91 229.834 145.383 230.113 145.713C230.391 146.043 230.765 146.208 231.235 146.208ZM237.154 147.099C236.861 147.099 236.575 147.073 236.296 147.022C236.025 146.971 235.772 146.897 235.537 146.802C235.302 146.707 235.101 146.589 234.932 146.45L235.251 145.68C235.434 145.805 235.632 145.911 235.845 145.999C236.058 146.087 236.274 146.153 236.494 146.197C236.721 146.241 236.945 146.263 237.165 146.263C237.561 146.263 237.862 146.197 238.067 146.065C238.272 145.933 238.375 145.75 238.375 145.515C238.375 145.324 238.309 145.178 238.177 145.075C238.052 144.965 237.851 144.884 237.572 144.833L236.494 144.624C236.025 144.536 235.669 144.367 235.427 144.118C235.192 143.869 235.075 143.553 235.075 143.172C235.075 142.835 235.167 142.541 235.35 142.292C235.533 142.043 235.79 141.852 236.12 141.72C236.457 141.581 236.85 141.511 237.297 141.511C237.554 141.511 237.803 141.537 238.045 141.588C238.294 141.632 238.525 141.705 238.738 141.808C238.951 141.903 239.134 142.024 239.288 142.171L238.947 142.941C238.808 142.809 238.643 142.703 238.452 142.622C238.269 142.534 238.078 142.468 237.88 142.424C237.689 142.373 237.499 142.347 237.308 142.347C236.912 142.347 236.615 142.417 236.417 142.556C236.219 142.695 236.12 142.886 236.12 143.128C236.12 143.311 236.179 143.458 236.296 143.568C236.413 143.678 236.6 143.759 236.857 143.81L237.924 144.019C238.423 144.114 238.793 144.279 239.035 144.514C239.284 144.749 239.409 145.064 239.409 145.46C239.409 145.797 239.314 146.091 239.123 146.34C238.94 146.582 238.679 146.769 238.342 146.901C238.005 147.033 237.609 147.099 237.154 147.099ZM243.282 147.099C242.688 147.099 242.174 146.989 241.742 146.769C241.309 146.542 240.975 146.219 240.741 145.801C240.513 145.383 240.4 144.888 240.4 144.316C240.4 143.759 240.51 143.271 240.73 142.853C240.957 142.435 241.269 142.109 241.665 141.874C242.068 141.632 242.534 141.511 243.062 141.511C243.568 141.511 244 141.621 244.36 141.841C244.719 142.061 244.998 142.373 245.196 142.776C245.394 143.172 245.493 143.649 245.493 144.206V144.58H241.28V143.876H244.712L244.536 144.041C244.536 143.491 244.411 143.069 244.162 142.776C243.912 142.475 243.557 142.325 243.095 142.325C242.75 142.325 242.457 142.402 242.215 142.556C241.98 142.71 241.797 142.926 241.665 143.205C241.54 143.484 241.478 143.817 241.478 144.206V144.283C241.478 144.708 241.547 145.064 241.687 145.35C241.826 145.636 242.031 145.852 242.303 145.999C242.574 146.138 242.908 146.208 243.304 146.208C243.604 146.208 243.905 146.164 244.206 146.076C244.506 145.981 244.789 145.83 245.053 145.625L245.394 146.406C245.137 146.626 244.818 146.798 244.437 146.923C244.055 147.04 243.67 147.099 243.282 147.099ZM246.766 147V141.61H247.855V142.754H247.767C247.928 142.351 248.181 142.043 248.526 141.83C248.878 141.617 249.274 141.511 249.714 141.511C250.154 141.511 250.517 141.592 250.803 141.753C251.089 141.907 251.302 142.145 251.441 142.468C251.58 142.791 251.65 143.198 251.65 143.689V147H250.517V143.755C250.517 143.454 250.477 143.209 250.396 143.018C250.323 142.82 250.202 142.673 250.033 142.578C249.872 142.475 249.663 142.424 249.406 142.424C249.105 142.424 248.841 142.49 248.614 142.622C248.387 142.754 248.211 142.937 248.086 143.172C247.961 143.399 247.899 143.663 247.899 143.964V147H246.766Z" fill="black"/>
</g>
</g>
</g>
</g>
</g>
</g>
</g>
</svg>
