<svg width="256" height="212" viewBox="0 0 256 212" fill="none" xmlns="http://www.w3.org/2000/svg">
<g id="Card Shipment">
<rect width="256" height="212" rx="12" fill="white"/>
<g id="Body">
<g id="Frame 1707480568">
<g id="Frame 2147223150">
<g id="Info Origin">
<g id="Main">
<path id="Time" d="M19.02 30L19.44 27.876H18.468V27.048H19.596L20.112 24.396H18.72V23.568H20.256L20.664 21.54H21.552L21.144 23.568H22.872L23.28 21.54H24.168L23.76 23.568H24.732V24.396H23.604L23.088 27.048H24.48V27.876H22.944L22.524 30H21.636L22.056 27.876H20.328L19.908 30H19.02ZM20.484 27.048H22.2L22.716 24.396H21L20.484 27.048ZM30.1393 30.108C29.2193 30.108 28.4433 29.936 27.8113 29.592C27.1793 29.24 26.6993 28.74 26.3713 28.092C26.0513 27.444 25.8913 26.672 25.8913 25.776C25.8913 24.88 26.0553 24.108 26.3833 23.46C26.7193 22.812 27.1953 22.312 27.8113 21.96C28.4353 21.608 29.1833 21.432 30.0553 21.432C30.4553 21.432 30.8353 21.472 31.1953 21.552C31.5553 21.624 31.8873 21.736 32.1913 21.888C32.5033 22.04 32.7753 22.228 33.0073 22.452L32.5633 23.424C32.1873 23.104 31.7953 22.876 31.3873 22.74C30.9873 22.596 30.5433 22.524 30.0553 22.524C29.1193 22.524 28.4073 22.808 27.9193 23.376C27.4313 23.936 27.1873 24.736 27.1873 25.776C27.1873 26.84 27.4393 27.648 27.9433 28.2C28.4473 28.752 29.1953 29.028 30.1873 29.028C30.5473 29.028 30.8993 28.996 31.2433 28.932C31.5953 28.86 31.9313 28.76 32.2513 28.632L31.9993 29.256V26.46H29.9353V25.524H33.0433V29.508C32.8113 29.628 32.5313 29.732 32.2033 29.82C31.8833 29.908 31.5433 29.976 31.1833 30.024C30.8313 30.08 30.4833 30.108 30.1393 30.108ZM34.9567 30V21.54H38.4607C39.3727 21.54 40.0767 21.756 40.5727 22.188C41.0687 22.62 41.3167 23.232 41.3167 24.024C41.3167 24.536 41.2047 24.976 40.9807 25.344C40.7567 25.712 40.4287 25.992 39.9967 26.184C39.5727 26.376 39.0607 26.472 38.4607 26.472L38.5687 26.304H38.8807C39.2007 26.304 39.4767 26.384 39.7087 26.544C39.9487 26.704 40.1647 26.96 40.3567 27.312L41.8207 30H40.4527L38.9887 27.3C38.8767 27.092 38.7527 26.932 38.6167 26.82C38.4887 26.7 38.3367 26.62 38.1607 26.58C37.9927 26.532 37.7927 26.508 37.5607 26.508H36.2047V30H34.9567ZM36.2047 25.572H38.2567C38.8647 25.572 39.3247 25.444 39.6367 25.188C39.9487 24.932 40.1047 24.552 40.1047 24.048C40.1047 23.552 39.9487 23.176 39.6367 22.92C39.3247 22.664 38.8647 22.536 38.2567 22.536H36.2047V25.572ZM45.6131 30L41.8811 21.54H43.2131L46.4051 28.944H45.9611L49.1411 21.54H50.4131L46.6811 30H45.6131ZM50.6095 27.288V26.304H54.0655V27.288H50.6095ZM58.6461 30.108C58.2781 30.108 57.9181 30.068 57.5661 29.988C57.2221 29.908 56.8981 29.796 56.5941 29.652C56.2901 29.508 56.0261 29.332 55.8021 29.124L56.2221 28.164C56.6061 28.468 56.9941 28.692 57.3861 28.836C57.7781 28.98 58.1901 29.052 58.6221 29.052C59.1741 29.052 59.6061 28.904 59.9181 28.608C60.2301 28.312 60.3861 27.916 60.3861 27.42C60.3861 26.916 60.2381 26.504 59.9421 26.184C59.6461 25.864 59.2341 25.704 58.7061 25.704C58.3301 25.704 57.9941 25.78 57.6981 25.932C57.4101 26.084 57.1501 26.316 56.9181 26.628H56.0541V21.54H61.0941V22.584H57.2661V25.632H56.9301C57.1461 25.328 57.4301 25.092 57.7821 24.924C58.1421 24.756 58.5381 24.672 58.9701 24.672C59.5061 24.672 59.9701 24.784 60.3621 25.008C60.7541 25.232 61.0581 25.548 61.2741 25.956C61.4901 26.356 61.5981 26.824 61.5981 27.36C61.5981 27.904 61.4781 28.384 61.2381 28.8C60.9981 29.208 60.6581 29.528 60.2181 29.76C59.7781 29.992 59.2541 30.108 58.6461 30.108ZM65.7094 30.108C65.0534 30.108 64.5014 29.94 64.0534 29.604C63.6054 29.268 63.2654 28.78 63.0334 28.14C62.8014 27.492 62.6854 26.7 62.6854 25.764C62.6854 24.812 62.8014 24.016 63.0334 23.376C63.2654 22.736 63.6054 22.252 64.0534 21.924C64.5014 21.596 65.0534 21.432 65.7094 21.432C66.3734 21.432 66.9294 21.596 67.3774 21.924C67.8254 22.244 68.1614 22.724 68.3854 23.364C68.6174 24.004 68.7334 24.8 68.7334 25.752C68.7334 26.688 68.6174 27.48 68.3854 28.128C68.1534 28.776 67.8134 29.268 67.3654 29.604C66.9174 29.94 66.3654 30.108 65.7094 30.108ZM65.7094 29.076C66.3254 29.076 66.7774 28.808 67.0654 28.272C67.3614 27.736 67.5094 26.896 67.5094 25.752C67.5094 24.608 67.3614 23.776 67.0654 23.256C66.7774 22.728 66.3254 22.464 65.7094 22.464C65.1014 22.464 64.6494 22.728 64.3534 23.256C64.0574 23.776 63.9094 24.608 63.9094 25.752C63.9094 26.896 64.0574 27.736 64.3534 28.272C64.6494 28.808 65.1014 29.076 65.7094 29.076ZM72.2927 30.108C72.0047 30.108 71.7087 30.072 71.4047 30C71.1087 29.92 70.8287 29.804 70.5647 29.652C70.3007 29.5 70.0687 29.324 69.8687 29.124L70.3007 28.176C70.5967 28.464 70.9167 28.684 71.2607 28.836C71.6047 28.98 71.9527 29.052 72.3047 29.052C72.6807 29.052 73.0127 28.984 73.3007 28.848C73.5887 28.712 73.8287 28.508 74.0207 28.236C74.2207 27.964 74.3687 27.628 74.4647 27.228C74.5687 26.82 74.6207 26.352 74.6207 25.824V24.804H74.7407C74.6847 25.228 74.5487 25.6 74.3327 25.92C74.1247 26.24 73.8527 26.484 73.5167 26.652C73.1887 26.82 72.8167 26.904 72.4007 26.904C71.9127 26.904 71.4767 26.788 71.0927 26.556C70.7167 26.324 70.4167 26.004 70.1927 25.596C69.9767 25.188 69.8687 24.728 69.8687 24.216C69.8687 23.672 69.9847 23.192 70.2167 22.776C70.4567 22.352 70.7807 22.024 71.1887 21.792C71.5967 21.552 72.0687 21.432 72.6047 21.432C73.2927 21.432 73.8727 21.596 74.3447 21.924C74.8167 22.244 75.1767 22.716 75.4247 23.34C75.6807 23.964 75.8087 24.712 75.8087 25.584C75.8087 26.552 75.6687 27.372 75.3887 28.044C75.1087 28.716 74.7087 29.228 74.1887 29.58C73.6687 29.932 73.0367 30.108 72.2927 30.108ZM72.6887 25.884C73.0087 25.884 73.2927 25.812 73.5407 25.668C73.7887 25.524 73.9807 25.324 74.1167 25.068C74.2607 24.804 74.3327 24.5 74.3327 24.156C74.3327 23.82 74.2607 23.524 74.1167 23.268C73.9807 23.004 73.7887 22.8 73.5407 22.656C73.2927 22.504 73.0087 22.428 72.6887 22.428C72.3607 22.428 72.0727 22.504 71.8247 22.656C71.5847 22.8 71.3927 23.004 71.2487 23.268C71.1127 23.524 71.0447 23.82 71.0447 24.156C71.0447 24.5 71.1127 24.804 71.2487 25.068C71.3927 25.324 71.5847 25.524 71.8247 25.668C72.0727 25.812 72.3607 25.884 72.6887 25.884ZM80.1 30.108C79.132 30.108 78.376 29.9 77.832 29.484C77.296 29.068 77.028 28.488 77.028 27.744C77.028 27.344 77.108 26.992 77.268 26.688C77.428 26.376 77.652 26.124 77.94 25.932C78.228 25.74 78.56 25.62 78.936 25.572V25.788C78.592 25.716 78.292 25.584 78.036 25.392C77.78 25.192 77.58 24.948 77.436 24.66C77.3 24.364 77.232 24.04 77.232 23.688C77.232 22.984 77.492 22.432 78.012 22.032C78.532 21.632 79.228 21.432 80.1 21.432C80.98 21.432 81.68 21.632 82.2 22.032C82.72 22.432 82.98 22.984 82.98 23.688C82.98 24.04 82.908 24.364 82.764 24.66C82.628 24.948 82.432 25.192 82.176 25.392C81.92 25.584 81.62 25.712 81.276 25.776V25.572C81.66 25.62 81.992 25.744 82.272 25.944C82.552 26.136 82.772 26.384 82.932 26.688C83.092 26.992 83.172 27.344 83.172 27.744C83.172 28.488 82.9 29.068 82.356 29.484C81.82 29.9 81.068 30.108 80.1 30.108ZM80.1 29.124C80.732 29.124 81.208 29.004 81.528 28.764C81.848 28.516 82.008 28.148 82.008 27.66C82.008 27.172 81.848 26.808 81.528 26.568C81.208 26.328 80.732 26.208 80.1 26.208C79.476 26.208 79 26.328 78.672 26.568C78.352 26.808 78.192 27.172 78.192 27.66C78.192 28.148 78.352 28.516 78.672 28.764C79 29.004 79.476 29.124 80.1 29.124ZM80.1 25.224C80.636 25.224 81.052 25.1 81.348 24.852C81.652 24.596 81.804 24.248 81.804 23.808C81.804 23.376 81.652 23.036 81.348 22.788C81.052 22.54 80.636 22.416 80.1 22.416C79.564 22.416 79.148 22.54 78.852 22.788C78.556 23.036 78.408 23.376 78.408 23.808C78.408 24.248 78.556 24.596 78.852 24.852C79.148 25.1 79.564 25.224 80.1 25.224ZM87.2953 30.108C86.3273 30.108 85.5713 29.9 85.0273 29.484C84.4913 29.068 84.2233 28.488 84.2233 27.744C84.2233 27.344 84.3033 26.992 84.4633 26.688C84.6233 26.376 84.8473 26.124 85.1353 25.932C85.4233 25.74 85.7553 25.62 86.1313 25.572V25.788C85.7873 25.716 85.4873 25.584 85.2313 25.392C84.9753 25.192 84.7753 24.948 84.6313 24.66C84.4953 24.364 84.4273 24.04 84.4273 23.688C84.4273 22.984 84.6873 22.432 85.2073 22.032C85.7273 21.632 86.4233 21.432 87.2953 21.432C88.1753 21.432 88.8753 21.632 89.3953 22.032C89.9153 22.432 90.1753 22.984 90.1753 23.688C90.1753 24.04 90.1033 24.364 89.9593 24.66C89.8233 24.948 89.6273 25.192 89.3713 25.392C89.1153 25.584 88.8153 25.712 88.4713 25.776V25.572C88.8553 25.62 89.1873 25.744 89.4673 25.944C89.7473 26.136 89.9673 26.384 90.1273 26.688C90.2873 26.992 90.3673 27.344 90.3673 27.744C90.3673 28.488 90.0953 29.068 89.5513 29.484C89.0153 29.9 88.2633 30.108 87.2953 30.108ZM87.2953 29.124C87.9273 29.124 88.4033 29.004 88.7233 28.764C89.0433 28.516 89.2033 28.148 89.2033 27.66C89.2033 27.172 89.0433 26.808 88.7233 26.568C88.4033 26.328 87.9273 26.208 87.2953 26.208C86.6713 26.208 86.1953 26.328 85.8673 26.568C85.5473 26.808 85.3873 27.172 85.3873 27.66C85.3873 28.148 85.5473 28.516 85.8673 28.764C86.1953 29.004 86.6713 29.124 87.2953 29.124ZM87.2953 25.224C87.8313 25.224 88.2473 25.1 88.5433 24.852C88.8473 24.596 88.9993 24.248 88.9993 23.808C88.9993 23.376 88.8473 23.036 88.5433 22.788C88.2473 22.54 87.8313 22.416 87.2953 22.416C86.7593 22.416 86.3433 22.54 86.0473 22.788C85.7513 23.036 85.6033 23.376 85.6033 23.808C85.6033 24.248 85.7513 24.596 86.0473 24.852C86.3433 25.1 86.7593 25.224 87.2953 25.224Z" fill="#444050"/>
<g id="Cell-Status">
<g id="Badge-status-shipment">
<rect x="142" y="16" width="96" height="20" rx="10" fill="#FEF6E1"/>
<path id="Label" d="M150.957 30V22.245H154.18C155.031 22.245 155.683 22.443 156.138 22.839C156.593 23.235 156.82 23.796 156.82 24.522C156.82 24.9767 156.721 25.369 156.523 25.699C156.325 26.0217 156.043 26.2747 155.676 26.458C155.309 26.634 154.869 26.7293 154.356 26.744L154.444 26.623H154.686C154.95 26.6377 155.181 26.7147 155.379 26.854C155.584 26.9933 155.768 27.217 155.929 27.525L157.271 30H156.006L154.675 27.536C154.572 27.3527 154.459 27.2097 154.334 27.107C154.217 26.997 154.077 26.9237 153.916 26.887C153.762 26.843 153.579 26.821 153.366 26.821H152.112V30H150.957ZM152.112 25.93H154.015C154.572 25.93 154.99 25.8163 155.269 25.589C155.548 25.3543 155.687 25.006 155.687 24.544C155.687 24.0893 155.548 23.7483 155.269 23.521C154.99 23.2937 154.569 23.18 154.004 23.18H152.112V25.93ZM160.843 30.099C160.249 30.099 159.736 29.989 159.303 29.769C158.87 29.5417 158.537 29.219 158.302 28.801C158.075 28.383 157.961 27.888 157.961 27.316C157.961 26.7587 158.071 26.271 158.291 25.853C158.518 25.435 158.83 25.1087 159.226 24.874C159.629 24.632 160.095 24.511 160.623 24.511C161.129 24.511 161.562 24.621 161.921 24.841C162.28 25.061 162.559 25.3727 162.757 25.776C162.955 26.172 163.054 26.6487 163.054 27.206V27.58H158.841V26.876H162.273L162.097 27.041C162.097 26.491 161.972 26.0693 161.723 25.776C161.474 25.4753 161.118 25.325 160.656 25.325C160.311 25.325 160.018 25.402 159.776 25.556C159.541 25.71 159.358 25.9263 159.226 26.205C159.101 26.4837 159.039 26.8173 159.039 27.206V27.283C159.039 27.7083 159.109 28.064 159.248 28.35C159.387 28.636 159.593 28.8523 159.864 28.999C160.135 29.1383 160.469 29.208 160.865 29.208C161.166 29.208 161.466 29.164 161.767 29.076C162.068 28.9807 162.35 28.8303 162.614 28.625L162.955 29.406C162.698 29.626 162.379 29.7983 161.998 29.923C161.617 30.0403 161.232 30.099 160.843 30.099ZM166.649 30.099C165.967 30.099 165.457 29.9267 165.12 29.582C164.783 29.23 164.614 28.724 164.614 28.064V25.49H163.569V24.61H164.636V23.004H165.747V24.61H167.474V25.49H165.758V27.987C165.758 28.3683 165.839 28.658 166 28.856C166.169 29.054 166.44 29.153 166.814 29.153C166.939 29.153 167.06 29.1383 167.177 29.109C167.294 29.0797 167.412 29.0467 167.529 29.01L167.705 29.868C167.58 29.9413 167.419 29.9963 167.221 30.033C167.023 30.077 166.832 30.099 166.649 30.099ZM170.475 30.099C170.035 30.099 169.665 30.0183 169.364 29.857C169.071 29.6957 168.851 29.4537 168.704 29.131C168.565 28.8083 168.495 28.405 168.495 27.921V24.61H169.628V27.91C169.628 28.1887 169.665 28.4233 169.738 28.614C169.819 28.8047 169.94 28.9477 170.101 29.043C170.27 29.1383 170.482 29.186 170.739 29.186C171.025 29.186 171.274 29.1237 171.487 28.999C171.7 28.867 171.865 28.6837 171.982 28.449C172.107 28.2143 172.169 27.9467 172.169 27.646V24.61H173.313V30H172.213V28.823H172.334C172.173 29.2337 171.931 29.549 171.608 29.769C171.285 29.989 170.908 30.099 170.475 30.099ZM174.941 30V24.61H176.03V25.897H175.942C176.067 25.4643 176.283 25.1343 176.591 24.907C176.899 24.6797 177.299 24.5477 177.79 24.511L178.197 24.478L178.285 25.468L177.559 25.534C177.082 25.578 176.716 25.732 176.459 25.996C176.21 26.2527 176.085 26.601 176.085 27.041V30H174.941ZM179.206 30V24.61H180.295V25.754H180.207C180.368 25.3507 180.621 25.0427 180.966 24.83C181.318 24.6173 181.714 24.511 182.154 24.511C182.594 24.511 182.957 24.5917 183.243 24.753C183.529 24.907 183.741 25.1453 183.881 25.468C184.02 25.7907 184.09 26.1977 184.09 26.689V30H182.957V26.755C182.957 26.4543 182.916 26.2087 182.836 26.018C182.762 25.82 182.641 25.6733 182.473 25.578C182.311 25.4753 182.102 25.424 181.846 25.424C181.545 25.424 181.281 25.49 181.054 25.622C180.826 25.754 180.65 25.9373 180.526 26.172C180.401 26.3993 180.339 26.6633 180.339 26.964V30H179.206ZM187.988 30L191.442 22.245H192.421L195.875 30H194.698L193.752 27.8L194.269 28.13H189.583L190.1 27.8L189.176 30H187.988ZM191.915 23.532L190.254 27.459L189.979 27.184H193.873L193.609 27.459L191.948 23.532H191.915ZM198.105 30L195.795 24.61H197.016L198.776 29.021H198.523L200.327 24.61H201.482L199.15 30H198.105ZM204.623 30.099C204.081 30.099 203.608 29.9853 203.204 29.758C202.808 29.5307 202.5 29.208 202.28 28.79C202.06 28.3647 201.95 27.8697 201.95 27.305C201.95 26.733 202.06 26.238 202.28 25.82C202.5 25.402 202.808 25.0793 203.204 24.852C203.608 24.6247 204.081 24.511 204.623 24.511C205.166 24.511 205.635 24.6247 206.031 24.852C206.435 25.0793 206.746 25.402 206.966 25.82C207.186 26.238 207.296 26.733 207.296 27.305C207.296 27.8697 207.186 28.3647 206.966 28.79C206.746 29.208 206.435 29.5307 206.031 29.758C205.635 29.9853 205.166 30.099 204.623 30.099ZM204.623 29.208C205.093 29.208 205.467 29.043 205.745 28.713C206.024 28.383 206.163 27.91 206.163 27.294C206.163 26.6853 206.024 26.2197 205.745 25.897C205.467 25.5743 205.093 25.413 204.623 25.413C204.154 25.413 203.78 25.5743 203.501 25.897C203.223 26.2197 203.083 26.6853 203.083 27.294C203.083 27.91 203.223 28.383 203.501 28.713C203.78 29.043 204.154 29.208 204.623 29.208ZM208.519 23.367V22.19H209.839V23.367H208.519ZM208.618 30V24.61H209.751V30H208.618ZM213.468 30.099C212.984 30.099 212.563 29.9853 212.203 29.758C211.844 29.5307 211.565 29.208 211.367 28.79C211.169 28.3647 211.07 27.8697 211.07 27.305C211.07 26.733 211.166 26.238 211.356 25.82C211.554 25.402 211.833 25.0793 212.192 24.852C212.559 24.6247 212.981 24.511 213.457 24.511C213.927 24.511 214.326 24.6247 214.656 24.852C214.994 25.0793 215.225 25.3837 215.349 25.765H215.261V22.245H216.394V30H215.305V28.801H215.382C215.258 29.2043 215.023 29.5233 214.678 29.758C214.341 29.9853 213.938 30.099 213.468 30.099ZM213.743 29.219C214.213 29.219 214.587 29.054 214.865 28.724C215.144 28.394 215.283 27.921 215.283 27.305C215.283 26.6817 215.144 26.2087 214.865 25.886C214.587 25.5633 214.213 25.402 213.743 25.402C213.274 25.402 212.9 25.5633 212.621 25.886C212.343 26.2087 212.203 26.6817 212.203 27.305C212.203 27.921 212.343 28.394 212.621 28.724C212.9 29.054 213.274 29.219 213.743 29.219ZM220.591 30.099C219.997 30.099 219.484 29.989 219.051 29.769C218.618 29.5417 218.285 29.219 218.05 28.801C217.823 28.383 217.709 27.888 217.709 27.316C217.709 26.7587 217.819 26.271 218.039 25.853C218.266 25.435 218.578 25.1087 218.974 24.874C219.377 24.632 219.843 24.511 220.371 24.511C220.877 24.511 221.31 24.621 221.669 24.841C222.028 25.061 222.307 25.3727 222.505 25.776C222.703 26.172 222.802 26.6487 222.802 27.206V27.58H218.589V26.876H222.021L221.845 27.041C221.845 26.491 221.72 26.0693 221.471 25.776C221.222 25.4753 220.866 25.325 220.404 25.325C220.059 25.325 219.766 25.402 219.524 25.556C219.289 25.71 219.106 25.9263 218.974 26.205C218.849 26.4837 218.787 26.8173 218.787 27.206V27.283C218.787 27.7083 218.857 28.064 218.996 28.35C219.135 28.636 219.341 28.8523 219.612 28.999C219.883 29.1383 220.217 29.208 220.613 29.208C220.914 29.208 221.214 29.164 221.515 29.076C221.816 28.9807 222.098 28.8303 222.362 28.625L222.703 29.406C222.446 29.626 222.127 29.7983 221.746 29.923C221.365 30.0403 220.98 30.099 220.591 30.099ZM226.166 30.099C225.682 30.099 225.26 29.9853 224.901 29.758C224.541 29.5307 224.263 29.208 224.065 28.79C223.867 28.3647 223.768 27.8697 223.768 27.305C223.768 26.733 223.863 26.238 224.054 25.82C224.252 25.402 224.53 25.0793 224.89 24.852C225.256 24.6247 225.678 24.511 226.155 24.511C226.624 24.511 227.024 24.6247 227.354 24.852C227.691 25.0793 227.922 25.3837 228.047 25.765H227.959V22.245H229.092V30H228.003V28.801H228.08C227.955 29.2043 227.72 29.5233 227.376 29.758C227.038 29.9853 226.635 30.099 226.166 30.099ZM226.441 29.219C226.91 29.219 227.284 29.054 227.563 28.724C227.841 28.394 227.981 27.921 227.981 27.305C227.981 26.6817 227.841 26.2087 227.563 25.886C227.284 25.5633 226.91 25.402 226.441 25.402C225.971 25.402 225.597 25.5633 225.319 25.886C225.04 26.2087 224.901 26.6817 224.901 27.305C224.901 27.921 225.04 28.394 225.319 28.724C225.597 29.054 225.971 29.219 226.441 29.219Z" fill="#BD8125"/>
</g>
</g>
</g>
</g>
<path id="Line 346" d="M18 48H238.02" stroke="#EAEAEC" stroke-linecap="round"/>
<g id="Info Origin_2">
<g id="Main_2">
<path id="Time_2" d="M19.044 72V63.54H24.276V64.368H20.028V67.32H24.036V68.148H20.028V72H19.044ZM27.6876 72.108C27.1196 72.108 26.6276 71.984 26.2116 71.736C25.7956 71.488 25.4716 71.14 25.2396 70.692C25.0156 70.236 24.9036 69.7 24.9036 69.084C24.9036 68.468 25.0156 67.936 25.2396 67.488C25.4716 67.032 25.7956 66.68 26.2116 66.432C26.6276 66.184 27.1196 66.06 27.6876 66.06C28.2556 66.06 28.7476 66.184 29.1636 66.432C29.5796 66.68 29.8996 67.032 30.1236 67.488C30.3556 67.936 30.4716 68.468 30.4716 69.084C30.4716 69.7 30.3556 70.236 30.1236 70.692C29.8996 71.14 29.5796 71.488 29.1636 71.736C28.7476 71.984 28.2556 72.108 27.6876 72.108ZM27.6876 71.328C28.2396 71.328 28.6756 71.136 28.9956 70.752C29.3236 70.36 29.4876 69.8 29.4876 69.072C29.4876 68.352 29.3236 67.8 28.9956 67.416C28.6756 67.032 28.2396 66.84 27.6876 66.84C27.1436 66.84 26.7076 67.032 26.3796 67.416C26.0516 67.8 25.8876 68.352 25.8876 69.072C25.8876 69.8 26.0516 70.36 26.3796 70.752C26.7076 71.136 27.1436 71.328 27.6876 71.328ZM31.9315 72V66.168H32.8795V67.548H32.7595C32.8955 67.076 33.1315 66.72 33.4675 66.48C33.8035 66.232 34.2475 66.088 34.7995 66.048L35.1475 66.012L35.2195 66.852L34.6075 66.924C34.0635 66.972 33.6435 67.148 33.3475 67.452C33.0595 67.748 32.9155 68.156 32.9155 68.676V72H31.9315ZM38.1436 72L35.9716 66.168H36.9916L38.7796 71.28H38.4916L40.3396 66.168H41.1676L42.9796 71.28H42.7036L44.5156 66.168H45.4876L43.3036 72H42.3796L40.4716 66.756H40.9876L39.0796 72H38.1436ZM48.4043 72.108C48.0043 72.108 47.6443 72.032 47.3243 71.88C47.0123 71.72 46.7643 71.504 46.5803 71.232C46.3963 70.96 46.3043 70.656 46.3043 70.32C46.3043 69.888 46.4123 69.548 46.6283 69.3C46.8523 69.052 47.2163 68.876 47.7203 68.772C48.2323 68.668 48.9283 68.616 49.8083 68.616H50.3483V69.252H49.8203C49.3323 69.252 48.9243 69.268 48.5963 69.3C48.2683 69.332 48.0083 69.388 47.8163 69.468C47.6243 69.548 47.4883 69.652 47.4083 69.78C47.3283 69.908 47.2883 70.068 47.2883 70.26C47.2883 70.588 47.4003 70.856 47.6243 71.064C47.8563 71.272 48.1683 71.376 48.5603 71.376C48.8803 71.376 49.1603 71.3 49.4003 71.148C49.6483 70.996 49.8403 70.788 49.9763 70.524C50.1203 70.26 50.1923 69.956 50.1923 69.612V68.244C50.1923 67.748 50.0923 67.392 49.8923 67.176C49.6923 66.952 49.3643 66.84 48.9083 66.84C48.5563 66.84 48.2163 66.892 47.8883 66.996C47.5603 67.092 47.2243 67.252 46.8803 67.476L46.5443 66.768C46.7523 66.624 46.9883 66.5 47.2523 66.396C47.5163 66.284 47.7923 66.2 48.0803 66.144C48.3683 66.088 48.6443 66.06 48.9083 66.06C49.4123 66.06 49.8283 66.144 50.1563 66.312C50.4843 66.472 50.7283 66.72 50.8883 67.056C51.0483 67.384 51.1283 67.808 51.1283 68.328V72H50.2163V70.644H50.3243C50.2603 70.948 50.1363 71.208 49.9523 71.424C49.7763 71.64 49.5563 71.808 49.2923 71.928C49.0283 72.048 48.7323 72.108 48.4043 72.108ZM52.9315 72V66.168H53.8795V67.548H53.7595C53.8955 67.076 54.1315 66.72 54.4675 66.48C54.8035 66.232 55.2475 66.088 55.7995 66.048L56.1475 66.012L56.2195 66.852L55.6075 66.924C55.0635 66.972 54.6435 67.148 54.3475 67.452C54.0595 67.748 53.9155 68.156 53.9155 68.676V72H52.9315ZM59.382 72.108C58.862 72.108 58.406 71.984 58.014 71.736C57.63 71.488 57.33 71.14 57.114 70.692C56.906 70.236 56.802 69.7 56.802 69.084C56.802 68.46 56.906 67.924 57.114 67.476C57.33 67.02 57.63 66.672 58.014 66.432C58.406 66.184 58.862 66.06 59.382 66.06C59.91 66.06 60.362 66.192 60.738 66.456C61.114 66.72 61.366 67.076 61.494 67.524H61.362V63.54H62.334V72H61.386V70.608H61.506C61.378 71.064 61.122 71.428 60.738 71.7C60.362 71.972 59.91 72.108 59.382 72.108ZM59.586 71.328C60.138 71.328 60.574 71.136 60.894 70.752C61.222 70.36 61.386 69.804 61.386 69.084C61.386 68.356 61.222 67.8 60.894 67.416C60.574 67.032 60.138 66.84 59.586 66.84C59.042 66.84 58.606 67.032 58.278 67.416C57.95 67.8 57.786 68.356 57.786 69.084C57.786 69.804 57.95 70.36 58.278 70.752C58.606 71.136 59.042 71.328 59.586 71.328ZM69.0281 72.108C68.4361 72.108 67.9881 71.932 67.6841 71.58C67.3881 71.228 67.2401 70.724 67.2401 70.068V63.54H68.2121V69.996C68.2121 70.276 68.2481 70.512 68.3201 70.704C68.4001 70.896 68.5161 71.04 68.6681 71.136C68.8201 71.232 69.0081 71.28 69.2321 71.28C69.3281 71.28 69.4201 71.276 69.5081 71.268C69.6041 71.252 69.6921 71.232 69.7721 71.208L69.7481 72.024C69.6201 72.048 69.4961 72.068 69.3761 72.084C69.2641 72.1 69.1481 72.108 69.0281 72.108ZM73.3603 72.108C72.7443 72.108 72.2123 71.988 71.7643 71.748C71.3243 71.5 70.9803 71.152 70.7323 70.704C70.4923 70.256 70.3723 69.72 70.3723 69.096C70.3723 68.488 70.4923 67.96 70.7323 67.512C70.9723 67.056 71.3003 66.7 71.7163 66.444C72.1403 66.188 72.6283 66.06 73.1803 66.06C73.7083 66.06 74.1603 66.176 74.5363 66.408C74.9123 66.64 75.2003 66.968 75.4003 67.392C75.6083 67.816 75.7123 68.324 75.7123 68.916V69.288H71.1163V68.652H75.0643L74.8723 68.808C74.8723 68.168 74.7283 67.672 74.4403 67.32C74.1603 66.96 73.7483 66.78 73.2043 66.78C72.7963 66.78 72.4483 66.876 72.1603 67.068C71.8803 67.252 71.6683 67.512 71.5243 67.848C71.3803 68.176 71.3083 68.56 71.3083 69V69.072C71.3083 69.56 71.3843 69.972 71.5363 70.308C71.6963 70.644 71.9323 70.9 72.2443 71.076C72.5563 71.244 72.9283 71.328 73.3603 71.328C73.7043 71.328 74.0363 71.276 74.3563 71.172C74.6843 71.06 74.9923 70.88 75.2803 70.632L75.6163 71.316C75.3523 71.556 75.0163 71.748 74.6083 71.892C74.2003 72.036 73.7843 72.108 73.3603 72.108ZM79.699 74.268C79.195 74.268 78.719 74.2 78.271 74.064C77.831 73.936 77.439 73.74 77.095 73.476L77.419 72.768C77.659 72.936 77.895 73.072 78.127 73.176C78.367 73.288 78.611 73.368 78.859 73.416C79.115 73.464 79.379 73.488 79.651 73.488C80.219 73.488 80.647 73.336 80.935 73.032C81.231 72.728 81.379 72.288 81.379 71.712V70.356H81.499C81.379 70.82 81.123 71.188 80.731 71.46C80.347 71.732 79.895 71.868 79.375 71.868C78.839 71.868 78.375 71.748 77.983 71.508C77.591 71.26 77.287 70.916 77.071 70.476C76.863 70.036 76.759 69.528 76.759 68.952C76.759 68.376 76.863 67.872 77.071 67.44C77.287 67 77.591 66.66 77.983 66.42C78.375 66.18 78.839 66.06 79.375 66.06C79.903 66.06 80.359 66.196 80.743 66.468C81.127 66.732 81.375 67.092 81.487 67.548H81.379V66.168H82.327V71.58C82.327 72.172 82.227 72.668 82.027 73.068C81.835 73.468 81.543 73.768 81.151 73.968C80.759 74.168 80.275 74.268 79.699 74.268ZM79.555 71.076C80.115 71.076 80.559 70.884 80.887 70.5C81.215 70.116 81.379 69.6 81.379 68.952C81.379 68.304 81.215 67.792 80.887 67.416C80.559 67.032 80.115 66.84 79.555 66.84C79.003 66.84 78.563 67.032 78.235 67.416C77.907 67.792 77.743 68.304 77.743 68.952C77.743 69.6 77.907 70.116 78.235 70.5C78.563 70.884 79.003 71.076 79.555 71.076ZM83.9943 67.392V66.168H85.2183V67.392H83.9943ZM83.9943 72V70.776H85.2183V72H83.9943Z" fill="#737682"/>
<path id="Departure" d="M221.148 72L219.36 69.3C219.24 69.108 219.112 68.952 218.976 68.832C218.848 68.712 218.704 68.628 218.544 68.58C218.384 68.532 218.192 68.508 217.968 68.508H216.252V67.512H218.652C219.084 67.512 219.44 67.456 219.72 67.344C220 67.232 220.212 67.064 220.356 66.84C220.508 66.616 220.592 66.332 220.608 65.988L220.788 66.276H216.252V65.4H220.788L220.584 65.676C220.52 65.26 220.332 64.948 220.02 64.74C219.716 64.524 219.284 64.416 218.724 64.416H216.252V63.54H222.948V64.416H220.62L220.788 64.14C221.084 64.292 221.316 64.492 221.484 64.74C221.652 64.988 221.756 65.276 221.796 65.604L221.556 65.4H222.948V66.276H221.592L221.82 65.94C221.836 66.452 221.728 66.896 221.496 67.272C221.272 67.648 220.944 67.94 220.512 68.148C220.088 68.348 219.572 68.448 218.964 68.448V68.328H219.228C219.444 68.328 219.644 68.36 219.828 68.424C220.012 68.48 220.184 68.58 220.344 68.724C220.504 68.868 220.664 69.06 220.824 69.3L222.624 72H221.148ZM224.395 72L228.523 64.116V64.584H223.939V63.54H229.663V64.464L225.763 72H224.395ZM234.759 72V70.284H230.955V69.36L234.975 63.54H235.995V69.24H237.231V70.284H235.995V72H234.759ZM234.759 69.24V65.028H235.083L231.963 69.576V69.24H234.759Z" fill="#444050"/>
</g>
</g>
<path id="Line 344" d="M18 88H238.02" stroke="#EAEAEC" stroke-linecap="round"/>
<g id="Info Origin_3">
<g id="Main_3">
<path id="Time_3" d="M19.044 112V103.54H22.392C23.296 103.54 23.992 103.752 24.48 104.176C24.968 104.6 25.212 105.204 25.212 105.988C25.212 106.484 25.1 106.916 24.876 107.284C24.66 107.644 24.34 107.92 23.916 108.112C23.492 108.296 22.984 108.388 22.392 108.388L22.512 108.232H22.752C23.064 108.232 23.336 108.312 23.568 108.472C23.8 108.632 24.012 108.888 24.204 109.24L25.692 112H24.612L23.148 109.288C23.028 109.064 22.892 108.888 22.74 108.76C22.596 108.632 22.428 108.544 22.236 108.496C22.052 108.448 21.828 108.424 21.564 108.424H20.028V112H19.044ZM20.028 107.644H22.248C22.904 107.644 23.4 107.508 23.736 107.236C24.072 106.956 24.24 106.54 24.24 105.988C24.24 105.452 24.072 105.048 23.736 104.776C23.4 104.496 22.904 104.356 22.248 104.356H20.028V107.644ZM29.4384 112.108C28.8224 112.108 28.2904 111.988 27.8424 111.748C27.4024 111.5 27.0584 111.152 26.8104 110.704C26.5704 110.256 26.4504 109.72 26.4504 109.096C26.4504 108.488 26.5704 107.96 26.8104 107.512C27.0504 107.056 27.3784 106.7 27.7944 106.444C28.2184 106.188 28.7064 106.06 29.2584 106.06C29.7864 106.06 30.2384 106.176 30.6144 106.408C30.9904 106.64 31.2784 106.968 31.4784 107.392C31.6864 107.816 31.7904 108.324 31.7904 108.916V109.288H27.1944V108.652H31.1424L30.9504 108.808C30.9504 108.168 30.8064 107.672 30.5184 107.32C30.2384 106.96 29.8264 106.78 29.2824 106.78C28.8744 106.78 28.5264 106.876 28.2384 107.068C27.9584 107.252 27.7464 107.512 27.6024 107.848C27.4584 108.176 27.3864 108.56 27.3864 109V109.072C27.3864 109.56 27.4624 109.972 27.6144 110.308C27.7744 110.644 28.0104 110.9 28.3224 111.076C28.6344 111.244 29.0064 111.328 29.4384 111.328C29.7824 111.328 30.1144 111.276 30.4344 111.172C30.7624 111.06 31.0704 110.88 31.3584 110.632L31.6944 111.316C31.4304 111.556 31.0944 111.748 30.6864 111.892C30.2784 112.036 29.8624 112.108 29.4384 112.108ZM35.5372 112.108C34.8492 112.108 34.3332 111.924 33.9892 111.556C33.6452 111.188 33.4732 110.664 33.4732 109.984V106.924H32.3332V106.168H33.4732V104.38H34.4452V106.168H36.2932V106.924H34.4452V109.888C34.4452 110.344 34.5412 110.692 34.7332 110.932C34.9252 111.164 35.2372 111.28 35.6692 111.28C35.7972 111.28 35.9252 111.264 36.0532 111.232C36.1812 111.2 36.2972 111.168 36.4012 111.136L36.5692 111.88C36.4652 111.936 36.3132 111.988 36.1132 112.036C35.9132 112.084 35.7212 112.108 35.5372 112.108ZM39.4565 112.108C38.9845 112.108 38.5925 112.024 38.2805 111.856C37.9765 111.68 37.7445 111.42 37.5845 111.076C37.4325 110.732 37.3565 110.304 37.3565 109.792V106.168H38.3285V109.78C38.3285 110.124 38.3725 110.412 38.4605 110.644C38.5565 110.868 38.7045 111.036 38.9045 111.148C39.1045 111.252 39.3525 111.304 39.6485 111.304C39.9845 111.304 40.2765 111.228 40.5245 111.076C40.7725 110.924 40.9685 110.712 41.1125 110.44C41.2565 110.168 41.3285 109.848 41.3285 109.48V106.168H42.3005V112H41.3525V110.656H41.5085C41.3485 111.128 41.0845 111.488 40.7165 111.736C40.3565 111.984 39.9365 112.108 39.4565 112.108ZM44.119 112V106.168H45.067V107.548H44.947C45.083 107.076 45.319 106.72 45.655 106.48C45.991 106.232 46.435 106.088 46.987 106.048L47.335 106.012L47.407 106.852L46.795 106.924C46.251 106.972 45.831 107.148 45.535 107.452C45.247 107.748 45.103 108.156 45.103 108.676V112H44.119ZM48.4198 112V106.168H49.3678V107.464H49.2358C49.4038 107 49.6758 106.652 50.0518 106.42C50.4358 106.18 50.8758 106.06 51.3718 106.06C51.8358 106.06 52.2198 106.144 52.5238 106.312C52.8358 106.472 53.0678 106.724 53.2198 107.068C53.3718 107.412 53.4478 107.844 53.4478 108.364V112H52.4758V108.424C52.4758 108.064 52.4278 107.768 52.3318 107.536C52.2438 107.304 52.0998 107.132 51.8998 107.02C51.7078 106.908 51.4558 106.852 51.1438 106.852C50.7918 106.852 50.4838 106.928 50.2198 107.08C49.9558 107.232 49.7518 107.444 49.6078 107.716C49.4638 107.988 49.3918 108.308 49.3918 108.676V112H48.4198ZM60.1102 112.108C59.5182 112.108 59.0702 111.932 58.7662 111.58C58.4702 111.228 58.3222 110.724 58.3222 110.068V103.54H59.2942V109.996C59.2942 110.276 59.3302 110.512 59.4022 110.704C59.4822 110.896 59.5982 111.04 59.7502 111.136C59.9022 111.232 60.0902 111.28 60.3142 111.28C60.4102 111.28 60.5022 111.276 60.5902 111.268C60.6862 111.252 60.7742 111.232 60.8542 111.208L60.8302 112.024C60.7022 112.048 60.5782 112.068 60.4582 112.084C60.3462 112.1 60.2302 112.108 60.1102 112.108ZM64.4423 112.108C63.8263 112.108 63.2943 111.988 62.8463 111.748C62.4063 111.5 62.0623 111.152 61.8143 110.704C61.5743 110.256 61.4543 109.72 61.4543 109.096C61.4543 108.488 61.5743 107.96 61.8143 107.512C62.0543 107.056 62.3823 106.7 62.7983 106.444C63.2223 106.188 63.7103 106.06 64.2623 106.06C64.7903 106.06 65.2423 106.176 65.6183 106.408C65.9943 106.64 66.2823 106.968 66.4823 107.392C66.6903 107.816 66.7943 108.324 66.7943 108.916V109.288H62.1983V108.652H66.1463L65.9543 108.808C65.9543 108.168 65.8103 107.672 65.5223 107.32C65.2423 106.96 64.8303 106.78 64.2863 106.78C63.8783 106.78 63.5303 106.876 63.2423 107.068C62.9623 107.252 62.7503 107.512 62.6063 107.848C62.4623 108.176 62.3903 108.56 62.3903 109V109.072C62.3903 109.56 62.4663 109.972 62.6183 110.308C62.7783 110.644 63.0143 110.9 63.3263 111.076C63.6383 111.244 64.0103 111.328 64.4423 111.328C64.7863 111.328 65.1183 111.276 65.4383 111.172C65.7663 111.06 66.0743 110.88 66.3623 110.632L66.6983 111.316C66.4343 111.556 66.0983 111.748 65.6903 111.892C65.2823 112.036 64.8663 112.108 64.4423 112.108ZM70.7811 114.268C70.2771 114.268 69.8011 114.2 69.3531 114.064C68.9131 113.936 68.5211 113.74 68.1771 113.476L68.5011 112.768C68.7411 112.936 68.9771 113.072 69.2091 113.176C69.4491 113.288 69.6931 113.368 69.9411 113.416C70.1971 113.464 70.4611 113.488 70.7331 113.488C71.3011 113.488 71.7291 113.336 72.0171 113.032C72.3131 112.728 72.4611 112.288 72.4611 111.712V110.356H72.5811C72.4611 110.82 72.2051 111.188 71.8131 111.46C71.4291 111.732 70.9771 111.868 70.4571 111.868C69.9211 111.868 69.4571 111.748 69.0651 111.508C68.6731 111.26 68.3691 110.916 68.1531 110.476C67.9451 110.036 67.8411 109.528 67.8411 108.952C67.8411 108.376 67.9451 107.872 68.1531 107.44C68.3691 107 68.6731 106.66 69.0651 106.42C69.4571 106.18 69.9211 106.06 70.4571 106.06C70.9851 106.06 71.4411 106.196 71.8251 106.468C72.2091 106.732 72.4571 107.092 72.5691 107.548H72.4611V106.168H73.4091V111.58C73.4091 112.172 73.3091 112.668 73.1091 113.068C72.9171 113.468 72.6251 113.768 72.2331 113.968C71.8411 114.168 71.3571 114.268 70.7811 114.268ZM70.6371 111.076C71.1971 111.076 71.6411 110.884 71.9691 110.5C72.2971 110.116 72.4611 109.6 72.4611 108.952C72.4611 108.304 72.2971 107.792 71.9691 107.416C71.6411 107.032 71.1971 106.84 70.6371 106.84C70.0851 106.84 69.6451 107.032 69.3171 107.416C68.9891 107.792 68.8251 108.304 68.8251 108.952C68.8251 109.6 68.9891 110.116 69.3171 110.5C69.6451 110.884 70.0851 111.076 70.6371 111.076ZM75.0763 107.392V106.168H76.3003V107.392H75.0763ZM75.0763 112V110.776H76.3003V112H75.0763Z" fill="#737682"/>
<path id="Departure_2" d="M221.148 112L219.36 109.3C219.24 109.108 219.112 108.952 218.976 108.832C218.848 108.712 218.704 108.628 218.544 108.58C218.384 108.532 218.192 108.508 217.968 108.508H216.252V107.512H218.652C219.084 107.512 219.44 107.456 219.72 107.344C220 107.232 220.212 107.064 220.356 106.84C220.508 106.616 220.592 106.332 220.608 105.988L220.788 106.276H216.252V105.4H220.788L220.584 105.676C220.52 105.26 220.332 104.948 220.02 104.74C219.716 104.524 219.284 104.416 218.724 104.416H216.252V103.54H222.948V104.416H220.62L220.788 104.14C221.084 104.292 221.316 104.492 221.484 104.74C221.652 104.988 221.756 105.276 221.796 105.604L221.556 105.4H222.948V106.276H221.592L221.82 105.94C221.836 106.452 221.728 106.896 221.496 107.272C221.272 107.648 220.944 107.94 220.512 108.148C220.088 108.348 219.572 108.448 218.964 108.448V108.328H219.228C219.444 108.328 219.644 108.36 219.828 108.424C220.012 108.48 220.184 108.58 220.344 108.724C220.504 108.868 220.664 109.06 220.824 109.3L222.624 112H221.148ZM224.395 112L228.523 104.116V104.584H223.939V103.54H229.663V104.464L225.763 112H224.395ZM234.759 112V110.284H230.955V109.36L234.975 103.54H235.995V109.24H237.231V110.284H235.995V112H234.759ZM234.759 109.24V105.028H235.083L231.963 109.576V109.24H234.759Z" fill="#444050"/>
</g>
</g>
<path id="Line 345" d="M18 128H238.02" stroke="#EAEAEC" stroke-linecap="round"/>
<g id="Info Origin_4">
<g id="Main_4">
<path id="Time_4" d="M19.044 152V143.54H22.392C23.296 143.54 23.992 143.752 24.48 144.176C24.968 144.6 25.212 145.204 25.212 145.988C25.212 146.484 25.1 146.916 24.876 147.284C24.66 147.644 24.34 147.92 23.916 148.112C23.492 148.296 22.984 148.388 22.392 148.388L22.512 148.232H22.752C23.064 148.232 23.336 148.312 23.568 148.472C23.8 148.632 24.012 148.888 24.204 149.24L25.692 152H24.612L23.148 149.288C23.028 149.064 22.892 148.888 22.74 148.76C22.596 148.632 22.428 148.544 22.236 148.496C22.052 148.448 21.828 148.424 21.564 148.424H20.028V152H19.044ZM20.028 147.644H22.248C22.904 147.644 23.4 147.508 23.736 147.236C24.072 146.956 24.24 146.54 24.24 145.988C24.24 145.452 24.072 145.048 23.736 144.776C23.4 144.496 22.904 144.356 22.248 144.356H20.028V147.644ZM29.4384 152.108C28.8224 152.108 28.2904 151.988 27.8424 151.748C27.4024 151.5 27.0584 151.152 26.8104 150.704C26.5704 150.256 26.4504 149.72 26.4504 149.096C26.4504 148.488 26.5704 147.96 26.8104 147.512C27.0504 147.056 27.3784 146.7 27.7944 146.444C28.2184 146.188 28.7064 146.06 29.2584 146.06C29.7864 146.06 30.2384 146.176 30.6144 146.408C30.9904 146.64 31.2784 146.968 31.4784 147.392C31.6864 147.816 31.7904 148.324 31.7904 148.916V149.288H27.1944V148.652H31.1424L30.9504 148.808C30.9504 148.168 30.8064 147.672 30.5184 147.32C30.2384 146.96 29.8264 146.78 29.2824 146.78C28.8744 146.78 28.5264 146.876 28.2384 147.068C27.9584 147.252 27.7464 147.512 27.6024 147.848C27.4584 148.176 27.3864 148.56 27.3864 149V149.072C27.3864 149.56 27.4624 149.972 27.6144 150.308C27.7744 150.644 28.0104 150.9 28.3224 151.076C28.6344 151.244 29.0064 151.328 29.4384 151.328C29.7824 151.328 30.1144 151.276 30.4344 151.172C30.7624 151.06 31.0704 150.88 31.3584 150.632L31.6944 151.316C31.4304 151.556 31.0944 151.748 30.6864 151.892C30.2784 152.036 29.8624 152.108 29.4384 152.108ZM35.1652 152.108C34.8612 152.108 34.5652 152.076 34.2772 152.012C33.9972 151.956 33.7332 151.876 33.4852 151.772C33.2452 151.66 33.0372 151.528 32.8612 151.376L33.1732 150.692C33.3652 150.844 33.5732 150.972 33.7972 151.076C34.0212 151.172 34.2492 151.244 34.4812 151.292C34.7132 151.34 34.9492 151.364 35.1892 151.364C35.6452 151.364 35.9892 151.28 36.2212 151.112C36.4532 150.944 36.5692 150.716 36.5692 150.428C36.5692 150.204 36.4932 150.028 36.3412 149.9C36.1892 149.764 35.9492 149.66 35.6212 149.588L34.5292 149.348C34.0252 149.244 33.6492 149.064 33.4012 148.808C33.1612 148.552 33.0412 148.22 33.0412 147.812C33.0412 147.452 33.1332 147.144 33.3172 146.888C33.5092 146.624 33.7772 146.42 34.1212 146.276C34.4652 146.132 34.8652 146.06 35.3212 146.06C35.5932 146.06 35.8532 146.088 36.1012 146.144C36.3492 146.2 36.5812 146.284 36.7972 146.396C37.0212 146.5 37.2132 146.632 37.3732 146.792L37.0492 147.476C36.8972 147.332 36.7252 147.212 36.5332 147.116C36.3412 147.012 36.1412 146.936 35.9332 146.888C35.7332 146.832 35.5292 146.804 35.3212 146.804C34.8732 146.804 34.5332 146.892 34.3012 147.068C34.0692 147.244 33.9532 147.476 33.9532 147.764C33.9532 147.988 34.0252 148.172 34.1692 148.316C34.3132 148.46 34.5372 148.564 34.8412 148.628L35.9332 148.856C36.4532 148.968 36.8412 149.148 37.0972 149.396C37.3612 149.636 37.4932 149.964 37.4932 150.38C37.4932 150.732 37.3972 151.04 37.2052 151.304C37.0132 151.56 36.7412 151.76 36.3892 151.904C36.0452 152.04 35.6372 152.108 35.1652 152.108ZM41.2559 152.108C40.5679 152.108 40.0519 151.924 39.7079 151.556C39.3639 151.188 39.1919 150.664 39.1919 149.984V146.924H38.0519V146.168H39.1919V144.38H40.1639V146.168H42.0119V146.924H40.1639V149.888C40.1639 150.344 40.2599 150.692 40.4519 150.932C40.6439 151.164 40.9559 151.28 41.3879 151.28C41.5159 151.28 41.6439 151.264 41.7719 151.232C41.8999 151.2 42.0159 151.168 42.1199 151.136L42.2879 151.88C42.1839 151.936 42.0319 151.988 41.8319 152.036C41.6319 152.084 41.4399 152.108 41.2559 152.108ZM45.4766 152.108C44.9086 152.108 44.4166 151.984 44.0006 151.736C43.5846 151.488 43.2606 151.14 43.0286 150.692C42.8046 150.236 42.6926 149.7 42.6926 149.084C42.6926 148.468 42.8046 147.936 43.0286 147.488C43.2606 147.032 43.5846 146.68 44.0006 146.432C44.4166 146.184 44.9086 146.06 45.4766 146.06C46.0446 146.06 46.5366 146.184 46.9526 146.432C47.3686 146.68 47.6886 147.032 47.9126 147.488C48.1446 147.936 48.2606 148.468 48.2606 149.084C48.2606 149.7 48.1446 150.236 47.9126 150.692C47.6886 151.14 47.3686 151.488 46.9526 151.736C46.5366 151.984 46.0446 152.108 45.4766 152.108ZM45.4766 151.328C46.0286 151.328 46.4646 151.136 46.7846 150.752C47.1126 150.36 47.2766 149.8 47.2766 149.072C47.2766 148.352 47.1126 147.8 46.7846 147.416C46.4646 147.032 46.0286 146.84 45.4766 146.84C44.9326 146.84 44.4966 147.032 44.1686 147.416C43.8406 147.8 43.6766 148.352 43.6766 149.072C43.6766 149.8 43.8406 150.36 44.1686 150.752C44.4966 151.136 44.9326 151.328 45.4766 151.328ZM52.1926 152.108C51.6086 152.108 51.1046 151.98 50.6806 151.724C50.2566 151.468 49.9286 151.112 49.6966 150.656C49.4726 150.192 49.3606 149.656 49.3606 149.048C49.3606 148.432 49.4726 147.9 49.6966 147.452C49.9286 147.004 50.2566 146.66 50.6806 146.42C51.1046 146.18 51.6086 146.06 52.1926 146.06C52.5526 146.06 52.9086 146.124 53.2606 146.252C53.6126 146.38 53.9046 146.56 54.1366 146.792L53.8006 147.5C53.5686 147.276 53.3126 147.112 53.0326 147.008C52.7606 146.904 52.5006 146.852 52.2526 146.852C51.6446 146.852 51.1766 147.044 50.8486 147.428C50.5206 147.804 50.3566 148.348 50.3566 149.06C50.3566 149.756 50.5206 150.308 50.8486 150.716C51.1766 151.116 51.6446 151.316 52.2526 151.316C52.5006 151.316 52.7606 151.264 53.0326 151.16C53.3126 151.056 53.5686 150.888 53.8006 150.656L54.1366 151.364C53.9046 151.596 53.6086 151.78 53.2486 151.916C52.8966 152.044 52.5446 152.108 52.1926 152.108ZM55.2753 152V143.54H56.2473V148.76H56.2713L58.9713 146.168H60.2073L57.0033 149.24V148.712L60.4593 152H59.2233L56.2713 149.264H56.2473V152H55.2753ZM61.1553 144.716V143.624H62.3553V144.716H61.1553ZM61.2753 152V146.168H62.2473V152H61.2753ZM64.0643 152V146.168H65.0123V147.464H64.8803C65.0483 147 65.3203 146.652 65.6963 146.42C66.0803 146.18 66.5203 146.06 67.0163 146.06C67.4803 146.06 67.8643 146.144 68.1683 146.312C68.4803 146.472 68.7123 146.724 68.8643 147.068C69.0163 147.412 69.0923 147.844 69.0923 148.364V152H68.1203V148.424C68.1203 148.064 68.0723 147.768 67.9763 147.536C67.8883 147.304 67.7443 147.132 67.5443 147.02C67.3523 146.908 67.1003 146.852 66.7883 146.852C66.4363 146.852 66.1283 146.928 65.8643 147.08C65.6003 147.232 65.3963 147.444 65.2523 147.716C65.1083 147.988 65.0363 148.308 65.0363 148.676V152H64.0643ZM73.4647 154.268C72.9607 154.268 72.4847 154.2 72.0367 154.064C71.5967 153.936 71.2047 153.74 70.8607 153.476L71.1847 152.768C71.4247 152.936 71.6607 153.072 71.8927 153.176C72.1327 153.288 72.3767 153.368 72.6247 153.416C72.8807 153.464 73.1447 153.488 73.4167 153.488C73.9847 153.488 74.4127 153.336 74.7007 153.032C74.9967 152.728 75.1447 152.288 75.1447 151.712V150.356H75.2647C75.1447 150.82 74.8887 151.188 74.4967 151.46C74.1127 151.732 73.6607 151.868 73.1407 151.868C72.6047 151.868 72.1407 151.748 71.7487 151.508C71.3567 151.26 71.0527 150.916 70.8367 150.476C70.6287 150.036 70.5247 149.528 70.5247 148.952C70.5247 148.376 70.6287 147.872 70.8367 147.44C71.0527 147 71.3567 146.66 71.7487 146.42C72.1407 146.18 72.6047 146.06 73.1407 146.06C73.6687 146.06 74.1247 146.196 74.5087 146.468C74.8927 146.732 75.1407 147.092 75.2527 147.548H75.1447V146.168H76.0927V151.58C76.0927 152.172 75.9927 152.668 75.7927 153.068C75.6007 153.468 75.3087 153.768 74.9167 153.968C74.5247 154.168 74.0407 154.268 73.4647 154.268ZM73.3207 151.076C73.8807 151.076 74.3247 150.884 74.6527 150.5C74.9807 150.116 75.1447 149.6 75.1447 148.952C75.1447 148.304 74.9807 147.792 74.6527 147.416C74.3247 147.032 73.8807 146.84 73.3207 146.84C72.7687 146.84 72.3287 147.032 72.0007 147.416C71.6727 147.792 71.5087 148.304 71.5087 148.952C71.5087 149.6 71.6727 150.116 72.0007 150.5C72.3287 150.884 72.7687 151.076 73.3207 151.076ZM77.7599 147.392V146.168H78.9839V147.392H77.7599ZM77.7599 152V150.776H78.9839V152H77.7599Z" fill="#737682"/>
<path id="Departure_3" d="M221.148 152L219.36 149.3C219.24 149.108 219.112 148.952 218.976 148.832C218.848 148.712 218.704 148.628 218.544 148.58C218.384 148.532 218.192 148.508 217.968 148.508H216.252V147.512H218.652C219.084 147.512 219.44 147.456 219.72 147.344C220 147.232 220.212 147.064 220.356 146.84C220.508 146.616 220.592 146.332 220.608 145.988L220.788 146.276H216.252V145.4H220.788L220.584 145.676C220.52 145.26 220.332 144.948 220.02 144.74C219.716 144.524 219.284 144.416 218.724 144.416H216.252V143.54H222.948V144.416H220.62L220.788 144.14C221.084 144.292 221.316 144.492 221.484 144.74C221.652 144.988 221.756 145.276 221.796 145.604L221.556 145.4H222.948V146.276H221.592L221.82 145.94C221.836 146.452 221.728 146.896 221.496 147.272C221.272 147.648 220.944 147.94 220.512 148.148C220.088 148.348 219.572 148.448 218.964 148.448V148.328H219.228C219.444 148.328 219.644 148.36 219.828 148.424C220.012 148.48 220.184 148.58 220.344 148.724C220.504 148.868 220.664 149.06 220.824 149.3L222.624 152H221.148ZM227.563 152V150.284H223.759V149.36L227.779 143.54H228.799V149.24H230.035V150.284H228.799V152H227.563ZM227.563 149.24V145.028H227.887L224.767 149.576V149.24H227.563ZM233.991 152.108C233.335 152.108 232.783 151.94 232.335 151.604C231.887 151.268 231.547 150.78 231.315 150.14C231.083 149.492 230.967 148.7 230.967 147.764C230.967 146.812 231.083 146.016 231.315 145.376C231.547 144.736 231.887 144.252 232.335 143.924C232.783 143.596 233.335 143.432 233.991 143.432C234.655 143.432 235.211 143.596 235.659 143.924C236.107 144.244 236.443 144.724 236.667 145.364C236.899 146.004 237.015 146.8 237.015 147.752C237.015 148.688 236.899 149.48 236.667 150.128C236.435 150.776 236.095 151.268 235.647 151.604C235.199 151.94 234.647 152.108 233.991 152.108ZM233.991 151.076C234.607 151.076 235.059 150.808 235.347 150.272C235.643 149.736 235.791 148.896 235.791 147.752C235.791 146.608 235.643 145.776 235.347 145.256C235.059 144.728 234.607 144.464 233.991 144.464C233.383 144.464 232.931 144.728 232.635 145.256C232.339 145.776 232.191 146.608 232.191 147.752C232.191 148.896 232.339 149.736 232.635 150.272C232.931 150.808 233.383 151.076 233.991 151.076Z" fill="#444050"/>
</g>
</g>
<path id="Line 347" d="M18 168H238.02" stroke="#EAEAEC" stroke-linecap="round"/>
<g id="Info Origin_5">
<g id="Main_5">
<path id="Time_5" d="M21.048 192V184.584H18.048V183.54H25.284V184.584H22.284V192H21.048ZM27.8062 192.108C27.2142 192.108 26.7022 191.984 26.2702 191.736C25.8462 191.488 25.5142 191.136 25.2742 190.68C25.0342 190.224 24.9142 189.688 24.9142 189.072C24.9142 188.448 25.0342 187.912 25.2742 187.464C25.5142 187.008 25.8462 186.656 26.2702 186.408C26.7022 186.16 27.2142 186.036 27.8062 186.036C28.3902 186.036 28.8942 186.16 29.3182 186.408C29.7502 186.656 30.0862 187.008 30.3262 187.464C30.5662 187.92 30.6862 188.456 30.6862 189.072C30.6862 189.688 30.5662 190.224 30.3262 190.68C30.0862 191.136 29.7502 191.488 29.3182 191.736C28.8942 191.984 28.3902 192.108 27.8062 192.108ZM27.7942 191.172C28.2982 191.172 28.7022 190.992 29.0062 190.632C29.3102 190.272 29.4622 189.752 29.4622 189.072C29.4622 188.384 29.3102 187.864 29.0062 187.512C28.7022 187.16 28.2982 186.984 27.7942 186.984C27.2982 186.984 26.8982 187.16 26.5942 187.512C26.2902 187.864 26.1382 188.384 26.1382 189.072C26.1382 189.752 26.2902 190.272 26.5942 190.632C26.8982 190.992 27.2982 191.172 27.7942 191.172ZM34.4847 192.108C33.7567 192.108 33.2087 191.92 32.8407 191.544C32.4807 191.168 32.3007 190.624 32.3007 189.912V187.08H31.1607V186.144H32.3007V184.38H33.5127V186.144H35.3247V187.08H33.5127V189.816C33.5127 190.24 33.6007 190.56 33.7767 190.776C33.9607 190.992 34.2567 191.1 34.6647 191.1C34.7847 191.1 34.9047 191.084 35.0247 191.052C35.1527 191.02 35.2767 190.988 35.3967 190.956L35.5887 191.868C35.4687 191.94 35.3007 191.996 35.0847 192.036C34.8767 192.084 34.6767 192.108 34.4847 192.108ZM38.2435 192.108C37.8355 192.108 37.4675 192.028 37.1395 191.868C36.8195 191.708 36.5675 191.492 36.3835 191.22C36.1995 190.948 36.1075 190.64 36.1075 190.296C36.1075 189.864 36.2155 189.524 36.4315 189.276C36.6555 189.02 37.0195 188.84 37.5235 188.736C38.0355 188.624 38.7235 188.568 39.5875 188.568H40.1515V189.312H39.5995C39.1675 189.312 38.8035 189.328 38.5075 189.36C38.2115 189.392 37.9755 189.444 37.7995 189.516C37.6235 189.58 37.4955 189.672 37.4155 189.792C37.3435 189.912 37.3075 190.056 37.3075 190.224C37.3075 190.528 37.4115 190.776 37.6195 190.968C37.8275 191.152 38.1155 191.244 38.4835 191.244C38.7795 191.244 39.0395 191.176 39.2635 191.04C39.4875 190.896 39.6635 190.704 39.7915 190.464C39.9275 190.224 39.9955 189.948 39.9955 189.636V188.256C39.9955 187.8 39.8995 187.472 39.7075 187.272C39.5155 187.072 39.1995 186.972 38.7595 186.972C38.4235 186.972 38.0875 187.024 37.7515 187.128C37.4155 187.224 37.0715 187.38 36.7195 187.596L36.3475 186.744C36.5555 186.6 36.7955 186.476 37.0675 186.372C37.3395 186.268 37.6235 186.188 37.9195 186.132C38.2235 186.068 38.5155 186.036 38.7955 186.036C39.3315 186.036 39.7715 186.12 40.1155 186.288C40.4675 186.456 40.7275 186.712 40.8955 187.056C41.0635 187.4 41.1475 187.844 41.1475 188.388V192H40.0075V190.692H40.1155C40.0515 190.988 39.9315 191.244 39.7555 191.46C39.5875 191.668 39.3755 191.828 39.1195 191.94C38.8635 192.052 38.5715 192.108 38.2435 192.108ZM44.7248 192.108C44.0848 192.108 43.6048 191.928 43.2848 191.568C42.9728 191.2 42.8168 190.672 42.8168 189.984V183.54H44.0288V189.912C44.0288 190.168 44.0648 190.388 44.1368 190.572C44.2088 190.748 44.3168 190.88 44.4608 190.968C44.6048 191.056 44.7848 191.1 45.0008 191.1C45.0968 191.1 45.1888 191.096 45.2768 191.088C45.3648 191.08 45.4488 191.064 45.5288 191.04L45.5048 192.012C45.3688 192.044 45.2368 192.068 45.1088 192.084C44.9808 192.1 44.8528 192.108 44.7248 192.108ZM51.5092 192.108C51.1012 192.108 50.7332 192.028 50.4052 191.868C50.0852 191.708 49.8332 191.492 49.6492 191.22C49.4652 190.948 49.3732 190.64 49.3732 190.296C49.3732 189.864 49.4812 189.524 49.6972 189.276C49.9212 189.02 50.2852 188.84 50.7892 188.736C51.3012 188.624 51.9892 188.568 52.8532 188.568H53.4172V189.312H52.8652C52.4332 189.312 52.0692 189.328 51.7732 189.36C51.4772 189.392 51.2412 189.444 51.0652 189.516C50.8892 189.58 50.7612 189.672 50.6812 189.792C50.6092 189.912 50.5732 190.056 50.5732 190.224C50.5732 190.528 50.6772 190.776 50.8852 190.968C51.0932 191.152 51.3812 191.244 51.7492 191.244C52.0452 191.244 52.3052 191.176 52.5292 191.04C52.7532 190.896 52.9292 190.704 53.0572 190.464C53.1932 190.224 53.2612 189.948 53.2612 189.636V188.256C53.2612 187.8 53.1652 187.472 52.9732 187.272C52.7812 187.072 52.4652 186.972 52.0252 186.972C51.6892 186.972 51.3532 187.024 51.0172 187.128C50.6812 187.224 50.3372 187.38 49.9852 187.596L49.6132 186.744C49.8212 186.6 50.0612 186.476 50.3332 186.372C50.6052 186.268 50.8892 186.188 51.1852 186.132C51.4892 186.068 51.7812 186.036 52.0612 186.036C52.5972 186.036 53.0372 186.12 53.3812 186.288C53.7332 186.456 53.9932 186.712 54.1612 187.056C54.3292 187.4 54.4132 187.844 54.4132 188.388V192H53.2732V190.692H53.3812C53.3172 190.988 53.1972 191.244 53.0212 191.46C52.8532 191.668 52.6412 191.828 52.3852 191.94C52.1292 192.052 51.8372 192.108 51.5092 192.108ZM57.7399 192L55.2199 186.144H56.5279L58.4839 191.004H58.1479L60.1519 186.144H61.3879L58.8319 192H57.7399ZM64.6968 192.108C64.1048 192.108 63.5928 191.984 63.1608 191.736C62.7368 191.488 62.4048 191.136 62.1648 190.68C61.9248 190.224 61.8048 189.688 61.8048 189.072C61.8048 188.448 61.9248 187.912 62.1648 187.464C62.4048 187.008 62.7368 186.656 63.1608 186.408C63.5928 186.16 64.1048 186.036 64.6968 186.036C65.2808 186.036 65.7848 186.16 66.2088 186.408C66.6408 186.656 66.9768 187.008 67.2168 187.464C67.4568 187.92 67.5768 188.456 67.5768 189.072C67.5768 189.688 67.4568 190.224 67.2168 190.68C66.9768 191.136 66.6408 191.488 66.2088 191.736C65.7848 191.984 65.2808 192.108 64.6968 192.108ZM64.6848 191.172C65.1888 191.172 65.5928 190.992 65.8968 190.632C66.2008 190.272 66.3528 189.752 66.3528 189.072C66.3528 188.384 66.2008 187.864 65.8968 187.512C65.5928 187.16 65.1888 186.984 64.6848 186.984C64.1888 186.984 63.7888 187.16 63.4848 187.512C63.1808 187.864 63.0288 188.384 63.0288 189.072C63.0288 189.752 63.1808 190.272 63.4848 190.632C63.7888 190.992 64.1888 191.172 64.6848 191.172ZM68.8299 184.788V183.528H70.2459V184.788H68.8299ZM68.9379 192V186.144H70.1499V192H68.9379ZM74.0879 192.108C73.5759 192.108 73.1239 191.988 72.7319 191.748C72.3479 191.5 72.0479 191.148 71.8319 190.692C71.6159 190.228 71.5079 189.688 71.5079 189.072C71.5079 188.44 71.6159 187.9 71.8319 187.452C72.0479 187.004 72.3479 186.656 72.7319 186.408C73.1239 186.16 73.5759 186.036 74.0879 186.036C74.5999 186.036 75.0399 186.164 75.4079 186.42C75.7839 186.668 76.0359 187.004 76.1639 187.428H76.0319V183.54H77.2439V192H76.0559V190.68H76.1759C76.0479 191.112 75.7959 191.46 75.4199 191.724C75.0519 191.98 74.6079 192.108 74.0879 192.108ZM74.3999 191.172C74.8959 191.172 75.2959 190.992 75.5999 190.632C75.9039 190.272 76.0559 189.752 76.0559 189.072C76.0559 188.384 75.9039 187.864 75.5999 187.512C75.2959 187.16 74.8959 186.984 74.3999 186.984C73.8959 186.984 73.4919 187.16 73.1879 187.512C72.8839 187.864 72.7319 188.384 72.7319 189.072C72.7319 189.752 72.8839 190.272 73.1879 190.632C73.4919 190.992 73.8959 191.172 74.3999 191.172ZM81.6938 192.108C81.0538 192.108 80.5018 191.988 80.0378 191.748C79.5818 191.5 79.2258 191.152 78.9698 190.704C78.7218 190.248 78.5978 189.708 78.5978 189.084C78.5978 188.476 78.7218 187.944 78.9698 187.488C79.2178 187.032 79.5578 186.676 79.9898 186.42C80.4218 186.164 80.9138 186.036 81.4658 186.036C82.0098 186.036 82.4738 186.156 82.8578 186.396C83.2498 186.628 83.5498 186.96 83.7578 187.392C83.9658 187.824 84.0698 188.34 84.0698 188.94V189.348H79.5578V188.604H83.2538L83.0498 188.772C83.0498 188.172 82.9178 187.708 82.6538 187.38C82.3898 187.052 82.0098 186.888 81.5138 186.888C81.1378 186.888 80.8178 186.976 80.5538 187.152C80.2978 187.328 80.1018 187.572 79.9658 187.884C79.8298 188.196 79.7618 188.56 79.7618 188.976V189.048C79.7618 189.512 79.8338 189.904 79.9778 190.224C80.1298 190.536 80.3498 190.772 80.6378 190.932C80.9258 191.092 81.2818 191.172 81.7058 191.172C82.0418 191.172 82.3698 191.12 82.6898 191.016C83.0178 190.904 83.3258 190.732 83.6138 190.5L83.9738 191.34C83.7098 191.58 83.3698 191.768 82.9538 191.904C82.5378 192.04 82.1178 192.108 81.6938 192.108ZM87.6231 192.108C87.1111 192.108 86.6591 191.988 86.2671 191.748C85.8831 191.5 85.5831 191.148 85.3671 190.692C85.1511 190.228 85.0431 189.688 85.0431 189.072C85.0431 188.44 85.1511 187.9 85.3671 187.452C85.5831 187.004 85.8831 186.656 86.2671 186.408C86.6591 186.16 87.1111 186.036 87.6231 186.036C88.1351 186.036 88.5751 186.164 88.9431 186.42C89.3191 186.668 89.5711 187.004 89.6991 187.428H89.5671V183.54H90.7791V192H89.5911V190.68H89.7111C89.5831 191.112 89.3311 191.46 88.9551 191.724C88.5871 191.98 88.1431 192.108 87.6231 192.108ZM87.9351 191.172C88.4311 191.172 88.8311 190.992 89.1351 190.632C89.4391 190.272 89.5911 189.752 89.5911 189.072C89.5911 188.384 89.4391 187.864 89.1351 187.512C88.8311 187.16 88.4311 186.984 87.9351 186.984C87.4311 186.984 87.0271 187.16 86.7231 187.512C86.4191 187.864 86.2671 188.384 86.2671 189.072C86.2671 189.752 86.4191 190.272 86.7231 190.632C87.0271 190.992 87.4311 191.172 87.9351 191.172Z" fill="black"/>
<path id="Departure_4" d="M214.148 192L212.36 189.3C212.24 189.108 212.112 188.952 211.976 188.832C211.848 188.712 211.704 188.628 211.544 188.58C211.384 188.532 211.192 188.508 210.968 188.508H209.252V187.512H211.652C212.084 187.512 212.44 187.456 212.72 187.344C213 187.232 213.212 187.064 213.356 186.84C213.508 186.616 213.592 186.332 213.608 185.988L213.788 186.276H209.252V185.4H213.788L213.584 185.676C213.52 185.26 213.332 184.948 213.02 184.74C212.716 184.524 212.284 184.416 211.724 184.416H209.252V183.54H215.948V184.416H213.62L213.788 184.14C214.084 184.292 214.316 184.492 214.484 184.74C214.652 184.988 214.756 185.276 214.796 185.604L214.556 185.4H215.948V186.276H214.592L214.82 185.94C214.836 186.452 214.728 186.896 214.496 187.272C214.272 187.648 213.944 187.94 213.512 188.148C213.088 188.348 212.572 188.448 211.964 188.448V188.328H212.228C212.444 188.328 212.644 188.36 212.828 188.424C213.012 188.48 213.184 188.58 213.344 188.724C213.504 188.868 213.664 189.06 213.824 189.3L215.624 192H214.148ZM217.599 192V190.956H219.519V184.596H220.143L218.019 185.916L217.515 184.992L219.879 183.54H220.755V190.956H222.555V192H217.599ZM226.991 192.108C226.023 192.108 225.267 191.9 224.723 191.484C224.187 191.068 223.919 190.488 223.919 189.744C223.919 189.344 223.999 188.992 224.159 188.688C224.319 188.376 224.543 188.124 224.831 187.932C225.119 187.74 225.451 187.62 225.827 187.572V187.788C225.483 187.716 225.183 187.584 224.927 187.392C224.671 187.192 224.471 186.948 224.327 186.66C224.191 186.364 224.123 186.04 224.123 185.688C224.123 184.984 224.383 184.432 224.903 184.032C225.423 183.632 226.119 183.432 226.991 183.432C227.871 183.432 228.571 183.632 229.091 184.032C229.611 184.432 229.871 184.984 229.871 185.688C229.871 186.04 229.799 186.364 229.655 186.66C229.519 186.948 229.323 187.192 229.067 187.392C228.811 187.584 228.511 187.712 228.167 187.776V187.572C228.551 187.62 228.883 187.744 229.163 187.944C229.443 188.136 229.663 188.384 229.823 188.688C229.983 188.992 230.063 189.344 230.063 189.744C230.063 190.488 229.791 191.068 229.247 191.484C228.711 191.9 227.959 192.108 226.991 192.108ZM226.991 191.124C227.623 191.124 228.099 191.004 228.419 190.764C228.739 190.516 228.899 190.148 228.899 189.66C228.899 189.172 228.739 188.808 228.419 188.568C228.099 188.328 227.623 188.208 226.991 188.208C226.367 188.208 225.891 188.328 225.563 188.568C225.243 188.808 225.083 189.172 225.083 189.66C225.083 190.148 225.243 190.516 225.563 190.764C225.891 191.004 226.367 191.124 226.991 191.124ZM226.991 187.224C227.527 187.224 227.943 187.1 228.239 186.852C228.543 186.596 228.695 186.248 228.695 185.808C228.695 185.376 228.543 185.036 228.239 184.788C227.943 184.54 227.527 184.416 226.991 184.416C226.455 184.416 226.039 184.54 225.743 184.788C225.447 185.036 225.299 185.376 225.299 185.808C225.299 186.248 225.447 186.596 225.743 186.852C226.039 187.1 226.455 187.224 226.991 187.224ZM234.186 192.108C233.218 192.108 232.462 191.9 231.918 191.484C231.382 191.068 231.114 190.488 231.114 189.744C231.114 189.344 231.194 188.992 231.354 188.688C231.514 188.376 231.738 188.124 232.026 187.932C232.314 187.74 232.646 187.62 233.022 187.572V187.788C232.678 187.716 232.378 187.584 232.122 187.392C231.866 187.192 231.666 186.948 231.522 186.66C231.386 186.364 231.318 186.04 231.318 185.688C231.318 184.984 231.578 184.432 232.098 184.032C232.618 183.632 233.314 183.432 234.186 183.432C235.066 183.432 235.766 183.632 236.286 184.032C236.806 184.432 237.066 184.984 237.066 185.688C237.066 186.04 236.994 186.364 236.85 186.66C236.714 186.948 236.518 187.192 236.262 187.392C236.006 187.584 235.706 187.712 235.362 187.776V187.572C235.746 187.62 236.078 187.744 236.358 187.944C236.638 188.136 236.858 188.384 237.018 188.688C237.178 188.992 237.258 189.344 237.258 189.744C237.258 190.488 236.986 191.068 236.442 191.484C235.906 191.9 235.154 192.108 234.186 192.108ZM234.186 191.124C234.818 191.124 235.294 191.004 235.614 190.764C235.934 190.516 236.094 190.148 236.094 189.66C236.094 189.172 235.934 188.808 235.614 188.568C235.294 188.328 234.818 188.208 234.186 188.208C233.562 188.208 233.086 188.328 232.758 188.568C232.438 188.808 232.278 189.172 232.278 189.66C232.278 190.148 232.438 190.516 232.758 190.764C233.086 191.004 233.562 191.124 234.186 191.124ZM234.186 187.224C234.722 187.224 235.138 187.1 235.434 186.852C235.738 186.596 235.89 186.248 235.89 185.808C235.89 185.376 235.738 185.036 235.434 184.788C235.138 184.54 234.722 184.416 234.186 184.416C233.65 184.416 233.234 184.54 232.938 184.788C232.642 185.036 232.494 185.376 232.494 185.808C232.494 186.248 232.642 186.596 232.938 186.852C233.234 187.1 233.65 187.224 234.186 187.224Z" fill="#24B364"/>
</g>
</g>
</g>
</g>
</g>
</g>
</svg>
