<svg width="300" height="212" viewBox="0 0 300 212" fill="none" xmlns="http://www.w3.org/2000/svg">
<g id="Card Shipment">
<rect width="300" height="211.875" rx="14.0625" fill="white"/>
<g id="Body">
<g id="Frame 1707480568">
<g id="Frame 2147223150">
<g id="Info Origin">
<g id="Main">
<g id="Time">
<path d="M22.3172 32.75V22.8359H26.2828C27.2953 22.8359 28.0828 23.0609 28.6453 23.5109C29.2078 23.9609 29.4891 24.5984 29.4891 25.4234C29.4891 26.0422 29.3063 26.5578 28.9406 26.9703C28.5844 27.3828 28.0969 27.6547 27.4781 27.7859V27.5891C27.9469 27.6453 28.35 27.7812 28.6875 27.9969C29.025 28.2031 29.2828 28.4797 29.4609 28.8266C29.6391 29.1641 29.7281 29.5625 29.7281 30.0219C29.7281 30.6125 29.5969 31.1141 29.3344 31.5266C29.0813 31.9297 28.7109 32.2344 28.2234 32.4406C27.7359 32.6469 27.1453 32.75 26.4516 32.75H22.3172ZM23.4422 31.8219H26.3391C26.6391 31.8219 26.9063 31.7984 27.1406 31.7516C27.3844 31.7047 27.5953 31.6344 27.7734 31.5406C27.9516 31.4375 28.1016 31.3156 28.2234 31.175C28.3453 31.0344 28.4344 30.8656 28.4906 30.6687C28.5563 30.4719 28.5891 30.2516 28.5891 30.0078C28.5891 29.7547 28.5563 29.5344 28.4906 29.3469C28.4344 29.15 28.3453 28.9812 28.2234 28.8406C28.1016 28.6906 27.9516 28.5687 27.7734 28.475C27.5953 28.3812 27.3844 28.3109 27.1406 28.2641C26.9063 28.2172 26.6391 28.1937 26.3391 28.1937H23.4422V31.8219ZM23.4422 27.2656H26.1141C26.8453 27.2656 27.3984 27.1156 27.7734 26.8156C28.1578 26.5156 28.35 26.0844 28.35 25.5219C28.35 24.9406 28.1578 24.5047 27.7734 24.2141C27.3984 23.9141 26.8453 23.7641 26.1141 23.7641H23.4422V27.2656ZM31.525 24.2141V22.9344H32.9313V24.2141H31.525ZM31.6657 32.75V25.9156H32.8047V32.75H31.6657ZM37.0294 32.8766C36.3357 32.8766 35.8107 32.6703 35.4544 32.2578C35.1075 31.8453 34.9341 31.2547 34.9341 30.4859V22.8359H36.0732V30.4016C36.0732 30.7297 36.1154 31.0062 36.1997 31.2312C36.2935 31.4562 36.4294 31.625 36.6075 31.7375C36.7857 31.85 37.006 31.9062 37.2685 31.9062C37.381 31.9062 37.4888 31.9016 37.5919 31.8922C37.7044 31.8734 37.8075 31.85 37.9013 31.8219L37.8732 32.7781C37.7232 32.8063 37.5779 32.8297 37.4372 32.8484C37.306 32.8672 37.17 32.8766 37.0294 32.8766ZM41.1905 32.8766C40.4967 32.8766 39.9717 32.6703 39.6155 32.2578C39.2686 31.8453 39.0952 31.2547 39.0952 30.4859V22.8359H40.2342V30.4016C40.2342 30.7297 40.2764 31.0062 40.3608 31.2312C40.4546 31.4562 40.5905 31.625 40.7686 31.7375C40.9467 31.85 41.1671 31.9062 41.4296 31.9062C41.5421 31.9062 41.6499 31.9016 41.753 31.8922C41.8655 31.8734 41.9686 31.85 42.0624 31.8219L42.0342 32.7781C41.8842 32.8063 41.7389 32.8297 41.5983 32.8484C41.4671 32.8672 41.3311 32.8766 41.1905 32.8766ZM46.2673 32.8766C45.5454 32.8766 44.922 32.7359 44.397 32.4547C43.8813 32.1641 43.4782 31.7562 43.1876 31.2312C42.9063 30.7062 42.7657 30.0781 42.7657 29.3469C42.7657 28.6344 42.9063 28.0156 43.1876 27.4906C43.4688 26.9562 43.8532 26.5391 44.3407 26.2391C44.8376 25.9391 45.4095 25.7891 46.0563 25.7891C46.6751 25.7891 47.2048 25.925 47.6454 26.1969C48.086 26.4687 48.4235 26.8531 48.6579 27.35C48.9016 27.8469 49.0235 28.4422 49.0235 29.1359V29.5719H43.6376V28.8266H48.2641L48.0391 29.0094C48.0391 28.2594 47.8704 27.6781 47.5329 27.2656C47.2048 26.8437 46.722 26.6328 46.0845 26.6328C45.6063 26.6328 45.1985 26.7453 44.861 26.9703C44.5329 27.1859 44.2845 27.4906 44.1157 27.8844C43.947 28.2687 43.8626 28.7187 43.8626 29.2344V29.3187C43.8626 29.8906 43.9516 30.3734 44.1298 30.7672C44.3173 31.1609 44.5938 31.4609 44.9595 31.6672C45.3251 31.8641 45.761 31.9625 46.2673 31.9625C46.6704 31.9625 47.0595 31.9016 47.4345 31.7797C47.8188 31.6484 48.1798 31.4375 48.5173 31.1469L48.911 31.9484C48.6016 32.2297 48.2079 32.4547 47.7298 32.6234C47.2516 32.7922 46.7641 32.8766 46.2673 32.8766ZM53.2736 32.8766C52.6642 32.8766 52.1298 32.7312 51.6705 32.4406C51.2205 32.15 50.8689 31.7422 50.6158 31.2172C50.372 30.6828 50.2501 30.0547 50.2501 29.3328C50.2501 28.6016 50.372 27.9734 50.6158 27.4484C50.8689 26.9141 51.2205 26.5062 51.6705 26.225C52.1298 25.9344 52.6642 25.7891 53.2736 25.7891C53.8923 25.7891 54.422 25.9437 54.8626 26.2531C55.3033 26.5625 55.5986 26.9797 55.7486 27.5047H55.5939V22.8359H56.733V32.75H55.622V31.1187H55.7626C55.6126 31.6531 55.3126 32.0797 54.8626 32.3984C54.422 32.7172 53.8923 32.8766 53.2736 32.8766ZM53.5126 31.9625C54.1595 31.9625 54.6705 31.7375 55.0455 31.2875C55.4298 30.8281 55.622 30.1766 55.622 29.3328C55.622 28.4797 55.4298 27.8281 55.0455 27.3781C54.6705 26.9281 54.1595 26.7031 53.5126 26.7031C52.8751 26.7031 52.3642 26.9281 51.9798 27.3781C51.5955 27.8281 51.4033 28.4797 51.4033 29.3328C51.4033 30.1766 51.5955 30.8281 51.9798 31.2875C52.3642 31.7375 52.8751 31.9625 53.5126 31.9625ZM66.9261 32.8766C65.9511 32.8766 65.1167 32.6703 64.4229 32.2578C63.7292 31.8453 63.1948 31.2594 62.8198 30.5C62.4542 29.7406 62.2714 28.8359 62.2714 27.7859C62.2714 26.7359 62.4542 25.8359 62.8198 25.0859C63.1948 24.3266 63.7292 23.7406 64.4229 23.3281C65.1167 22.9156 65.9511 22.7094 66.9261 22.7094C67.6104 22.7094 68.2433 22.8172 68.8245 23.0328C69.4058 23.2484 69.8933 23.5625 70.287 23.975L69.837 24.9172C69.4058 24.5141 68.9558 24.2234 68.487 24.0453C68.0276 23.8578 67.5167 23.7641 66.9542 23.7641C65.8386 23.7641 64.9854 24.1156 64.3948 24.8187C63.8042 25.5219 63.5089 26.5109 63.5089 27.7859C63.5089 29.0609 63.8042 30.0547 64.3948 30.7672C64.9854 31.4703 65.8386 31.8219 66.9542 31.8219C67.5167 31.8219 68.0276 31.7328 68.487 31.5547C68.9558 31.3672 69.4058 31.0719 69.837 30.6687L70.287 31.6109C69.8933 32.0141 69.4058 32.3281 68.8245 32.5531C68.2433 32.7688 67.6104 32.8766 66.9261 32.8766ZM74.2905 32.8766C73.6249 32.8766 73.0484 32.7312 72.5609 32.4406C72.0734 32.15 71.6937 31.7422 71.4218 31.2172C71.1593 30.6828 71.028 30.0547 71.028 29.3328C71.028 28.6109 71.1593 27.9875 71.4218 27.4625C71.6937 26.9281 72.0734 26.5156 72.5609 26.225C73.0484 25.9344 73.6249 25.7891 74.2905 25.7891C74.9562 25.7891 75.5327 25.9344 76.0202 26.225C76.5077 26.5156 76.8827 26.9281 77.1452 27.4625C77.4171 27.9875 77.553 28.6109 77.553 29.3328C77.553 30.0547 77.4171 30.6828 77.1452 31.2172C76.8827 31.7422 76.5077 32.15 76.0202 32.4406C75.5327 32.7312 74.9562 32.8766 74.2905 32.8766ZM74.2905 31.9625C74.9374 31.9625 75.4484 31.7375 75.8234 31.2875C76.2077 30.8281 76.3999 30.1719 76.3999 29.3187C76.3999 28.475 76.2077 27.8281 75.8234 27.3781C75.4484 26.9281 74.9374 26.7031 74.2905 26.7031C73.653 26.7031 73.1421 26.9281 72.7577 27.3781C72.3734 27.8281 72.1812 28.475 72.1812 29.3187C72.1812 30.1719 72.3734 30.8281 72.7577 31.2875C73.1421 31.7375 73.653 31.9625 74.2905 31.9625ZM81.5702 32.8766C81.2139 32.8766 80.8671 32.8391 80.5296 32.7641C80.2014 32.6984 79.8921 32.6047 79.6014 32.4828C79.3202 32.3516 79.0764 32.1969 78.8702 32.0187L79.2358 31.2172C79.4608 31.3953 79.7046 31.5453 79.9671 31.6672C80.2296 31.7797 80.4968 31.8641 80.7686 31.9203C81.0405 31.9766 81.3171 32.0047 81.5983 32.0047C82.1327 32.0047 82.5358 31.9062 82.8077 31.7094C83.0796 31.5125 83.2155 31.2453 83.2155 30.9078C83.2155 30.6453 83.1264 30.4391 82.9483 30.2891C82.7702 30.1297 82.4889 30.0078 82.1046 29.9234L80.8249 29.6422C80.2343 29.5203 79.7936 29.3094 79.503 29.0094C79.2218 28.7094 79.0811 28.3203 79.0811 27.8422C79.0811 27.4203 79.1889 27.0594 79.4046 26.7594C79.6296 26.45 79.9436 26.2109 80.3468 26.0422C80.7499 25.8734 81.2186 25.7891 81.753 25.7891C82.0718 25.7891 82.3764 25.8219 82.6671 25.8875C82.9577 25.9531 83.2296 26.0516 83.4827 26.1828C83.7452 26.3047 83.9702 26.4594 84.1577 26.6469L83.778 27.4484C83.5999 27.2797 83.3983 27.1391 83.1733 27.0266C82.9483 26.9047 82.7139 26.8156 82.4702 26.7594C82.2358 26.6937 81.9968 26.6609 81.753 26.6609C81.228 26.6609 80.8296 26.7641 80.5577 26.9703C80.2858 27.1766 80.1499 27.4484 80.1499 27.7859C80.1499 28.0484 80.2343 28.2641 80.403 28.4328C80.5718 28.6016 80.8343 28.7234 81.1905 28.7984L82.4702 29.0656C83.0796 29.1969 83.5343 29.4078 83.8343 29.6984C84.1436 29.9797 84.2983 30.3641 84.2983 30.8516C84.2983 31.2641 84.1858 31.625 83.9608 31.9344C83.7358 32.2344 83.4171 32.4687 83.0046 32.6375C82.6014 32.7969 82.1233 32.8766 81.5702 32.8766ZM88.7078 32.8766C87.9015 32.8766 87.2969 32.6609 86.8937 32.2297C86.4906 31.7984 86.289 31.1844 86.289 30.3875V26.8016H84.9531V25.9156H86.289V23.8203H87.4281V25.9156H89.5937V26.8016H87.4281V30.275C87.4281 30.8094 87.5406 31.2172 87.7656 31.4984C87.9906 31.7703 88.3562 31.9062 88.8625 31.9062C89.0125 31.9062 89.1625 31.8875 89.3125 31.85C89.4625 31.8125 89.5984 31.775 89.7203 31.7375L89.9172 32.6094C89.7953 32.675 89.6172 32.7359 89.3828 32.7922C89.1484 32.8484 88.9234 32.8766 88.7078 32.8766Z" fill="#6D6B77"/>
<path d="M94.3371 29.8391V28.1656H96.0105V29.8391H94.3371ZM101.692 32.75V22.8359H105.826C106.857 22.8359 107.654 23.0656 108.217 23.525C108.789 23.975 109.075 24.6078 109.075 25.4234C109.075 26.0234 108.896 26.5297 108.54 26.9422C108.184 27.3547 107.701 27.6312 107.092 27.7719V27.5609C107.551 27.6266 107.945 27.7672 108.273 27.9828C108.611 28.1891 108.868 28.4656 109.046 28.8125C109.225 29.15 109.314 29.5484 109.314 30.0078C109.314 30.5891 109.182 31.0859 108.92 31.4984C108.657 31.9109 108.278 32.225 107.781 32.4406C107.284 32.6469 106.689 32.75 105.995 32.75H101.692ZM103.098 31.625H105.826C106.107 31.625 106.356 31.6062 106.571 31.5687C106.796 31.5219 106.989 31.4562 107.148 31.3719C107.317 31.2781 107.457 31.1656 107.57 31.0344C107.682 30.8937 107.762 30.7344 107.809 30.5562C107.865 30.3781 107.893 30.1766 107.893 29.9516C107.893 29.7266 107.865 29.525 107.809 29.3469C107.762 29.1687 107.682 29.0141 107.57 28.8828C107.457 28.7516 107.317 28.6437 107.148 28.5594C106.989 28.4656 106.796 28.4 106.571 28.3625C106.356 28.3156 106.107 28.2922 105.826 28.2922H103.098V31.625ZM103.098 27.1672H105.601C106.276 27.1672 106.787 27.0312 107.134 26.7594C107.481 26.4875 107.654 26.0891 107.654 25.5641C107.654 25.0391 107.481 24.6406 107.134 24.3687C106.787 24.0969 106.276 23.9609 105.601 23.9609H103.098V27.1672ZM111.826 35.2813L113.176 32.2719V32.8766L110.18 25.8875H111.699L114.005 31.5828H113.612L115.946 25.8875H117.409L113.316 35.2813H111.826ZM124.977 32.75L121.504 22.8359H122.995L125.906 31.4H125.385L128.381 22.8359H129.491L132.431 31.4H131.966L134.906 22.8359H136.326L132.824 32.75H131.601L128.76 24.6078H129.07L126.201 32.75H124.977ZM140.065 32.8766C139.315 32.8766 138.668 32.7359 138.124 32.4547C137.59 32.1641 137.173 31.7562 136.873 31.2312C136.582 30.6969 136.437 30.0641 136.437 29.3328C136.437 28.6203 136.582 27.9969 136.873 27.4625C137.163 26.9281 137.562 26.5109 138.068 26.2109C138.574 25.9109 139.151 25.7609 139.798 25.7609C140.435 25.7609 140.979 25.9016 141.429 26.1828C141.888 26.4547 142.24 26.8437 142.483 27.35C142.727 27.8562 142.849 28.4609 142.849 29.1641V29.6422H137.562V28.7703H141.893L141.654 28.9672C141.654 28.2641 141.499 27.7203 141.19 27.3359C140.88 26.9516 140.435 26.7594 139.854 26.7594C139.413 26.7594 139.038 26.8625 138.729 27.0687C138.429 27.275 138.199 27.5609 138.04 27.9266C137.88 28.2922 137.801 28.7187 137.801 29.2062V29.2906C137.801 29.8344 137.885 30.2937 138.054 30.6687C138.232 31.0344 138.49 31.3109 138.827 31.4984C139.165 31.6859 139.582 31.7797 140.079 31.7797C140.473 31.7797 140.857 31.7187 141.232 31.5969C141.616 31.4656 141.977 31.2641 142.315 30.9922L142.737 31.9766C142.427 32.2578 142.029 32.4781 141.541 32.6375C141.054 32.7969 140.562 32.8766 140.065 32.8766ZM144.271 24.2984V22.8219H145.93V24.2984H144.271ZM144.397 32.75V25.8875H145.818V32.75H144.397ZM150.925 35.4078C150.306 35.4078 149.729 35.3328 149.195 35.1828C148.661 35.0328 148.187 34.8078 147.775 34.5078L148.211 33.4953C148.483 33.6734 148.759 33.8234 149.04 33.9453C149.331 34.0766 149.622 34.1703 149.912 34.2266C150.212 34.2828 150.517 34.3109 150.826 34.3109C151.483 34.3109 151.975 34.1422 152.303 33.8047C152.631 33.4766 152.795 32.9891 152.795 32.3422V30.9078H152.922C152.781 31.4234 152.486 31.8312 152.036 32.1312C151.586 32.4312 151.065 32.5812 150.475 32.5812C149.856 32.5812 149.317 32.4406 148.858 32.1594C148.398 31.8687 148.042 31.4703 147.789 30.9641C147.536 30.4484 147.409 29.8484 147.409 29.1641C147.409 28.4797 147.536 27.8844 147.789 27.3781C148.042 26.8719 148.398 26.4781 148.858 26.1969C149.317 25.9062 149.856 25.7609 150.475 25.7609C151.075 25.7609 151.595 25.9109 152.036 26.2109C152.486 26.5109 152.776 26.9187 152.908 27.4344H152.795V25.8875H154.173V32.1734C154.173 32.8859 154.051 33.4813 153.808 33.9594C153.564 34.4469 153.198 34.8078 152.711 35.0422C152.233 35.2859 151.637 35.4078 150.925 35.4078ZM150.812 31.4703C151.422 31.4703 151.9 31.2641 152.247 30.8516C152.603 30.4391 152.781 29.8766 152.781 29.1641C152.781 28.4609 152.603 27.9031 152.247 27.4906C151.9 27.0781 151.422 26.8719 150.812 26.8719C150.212 26.8719 149.734 27.0781 149.378 27.4906C149.022 27.9031 148.844 28.4609 148.844 29.1641C148.844 29.8766 149.022 30.4391 149.378 30.8516C149.734 31.2641 150.212 31.4703 150.812 31.4703ZM156.167 32.75V22.8359H157.587V27.35H157.39C157.596 26.825 157.92 26.4312 158.36 26.1687C158.801 25.8969 159.307 25.7609 159.879 25.7609C160.423 25.7609 160.873 25.8641 161.229 26.0703C161.595 26.2672 161.867 26.5719 162.045 26.9844C162.223 27.3875 162.312 27.8984 162.312 28.5172V32.75H160.892V28.6016C160.892 28.2078 160.84 27.8891 160.737 27.6453C160.634 27.3922 160.479 27.2047 160.273 27.0828C160.067 26.9609 159.799 26.9 159.471 26.9C159.096 26.9 158.763 26.9797 158.473 27.1391C158.192 27.2984 157.971 27.5281 157.812 27.8281C157.662 28.1281 157.587 28.475 157.587 28.8687V32.75H156.167ZM167.194 32.8766C166.341 32.8766 165.699 32.6562 165.267 32.2156C164.846 31.775 164.635 31.1375 164.635 30.3031V26.9844H163.299V25.8875H164.635V23.8203H166.055V25.8875H168.178V26.9844H166.055V30.1906C166.055 30.6875 166.158 31.0625 166.364 31.3156C166.58 31.5687 166.927 31.6953 167.405 31.6953C167.546 31.6953 167.686 31.6766 167.827 31.6391C167.977 31.6016 168.122 31.5641 168.263 31.5266L168.488 32.5953C168.347 32.6797 168.15 32.7453 167.897 32.7922C167.653 32.8484 167.419 32.8766 167.194 32.8766ZM25.5516 50.8766C25.0359 50.8766 24.5438 50.8344 24.075 50.75C23.6156 50.6562 23.1891 50.525 22.7953 50.3562C22.4109 50.1781 22.0688 49.9672 21.7688 49.7234L22.2328 48.5703C22.5516 48.8047 22.8797 49.0016 23.2172 49.1609C23.5547 49.3203 23.9156 49.4422 24.3 49.5266C24.6844 49.6016 25.1016 49.6391 25.5516 49.6391C26.3484 49.6391 26.9344 49.4984 27.3094 49.2172C27.6938 48.9266 27.8859 48.5516 27.8859 48.0922C27.8859 47.8391 27.825 47.6234 27.7031 47.4453C27.5906 47.2672 27.4031 47.1172 27.1406 46.9953C26.8781 46.8641 26.5359 46.7562 26.1141 46.6719L24.6094 46.3625C23.7188 46.175 23.0531 45.8656 22.6125 45.4344C22.1813 45.0031 21.9656 44.4219 21.9656 43.6906C21.9656 43.0906 22.125 42.5656 22.4438 42.1156C22.7625 41.6656 23.1984 41.3187 23.7516 41.075C24.3141 40.8312 24.9609 40.7094 25.6922 40.7094C26.1422 40.7094 26.5688 40.7562 26.9719 40.85C27.3844 40.9344 27.7641 41.0656 28.1109 41.2437C28.4672 41.4219 28.7766 41.6375 29.0391 41.8906L28.5609 43.0016C28.1578 42.6453 27.7219 42.3828 27.2531 42.2141C26.7844 42.0359 26.2594 41.9469 25.6781 41.9469C25.2188 41.9469 24.8156 42.0172 24.4688 42.1578C24.1313 42.2984 23.8688 42.4953 23.6813 42.7484C23.5031 43.0016 23.4141 43.3016 23.4141 43.6484C23.4141 44.0422 23.5406 44.3562 23.7938 44.5906C24.0469 44.825 24.4688 45.0031 25.0594 45.125L26.55 45.4344C27.4875 45.6312 28.1859 45.9359 28.6453 46.3484C29.1047 46.7609 29.3344 47.3094 29.3344 47.9937C29.3344 48.5656 29.1797 49.0719 28.8703 49.5125C28.5609 49.9437 28.125 50.2812 27.5625 50.525C27 50.7594 26.3297 50.8766 25.5516 50.8766ZM33.076 50.8766C32.326 50.8766 31.7635 50.6656 31.3885 50.2437C31.0229 49.8125 30.8401 49.1937 30.8401 48.3875V40.8359H32.2604V48.3031C32.2604 48.6031 32.3026 48.8609 32.3869 49.0766C32.4713 49.2828 32.5979 49.4375 32.7666 49.5406C32.9354 49.6437 33.1463 49.6953 33.3994 49.6953C33.5119 49.6953 33.6197 49.6906 33.7229 49.6812C33.826 49.6719 33.9244 49.6531 34.0182 49.625L33.9901 50.7641C33.8307 50.8016 33.676 50.8297 33.526 50.8484C33.376 50.8672 33.226 50.8766 33.076 50.8766ZM37.3322 50.8766C36.8541 50.8766 36.4228 50.7828 36.0385 50.5953C35.6635 50.4078 35.3681 50.1547 35.1525 49.8359C34.9369 49.5172 34.8291 49.1562 34.8291 48.7531C34.8291 48.2469 34.9556 47.8484 35.2088 47.5578C35.4713 47.2578 35.8978 47.0469 36.4885 46.925C37.0885 46.7937 37.8947 46.7281 38.9072 46.7281H39.5681V47.6H38.9213C38.415 47.6 37.9885 47.6187 37.6416 47.6562C37.2947 47.6937 37.0181 47.7547 36.8119 47.8391C36.6056 47.9141 36.4556 48.0219 36.3619 48.1625C36.2775 48.3031 36.2353 48.4719 36.2353 48.6687C36.2353 49.025 36.3572 49.3156 36.601 49.5406C36.8447 49.7562 37.1822 49.8641 37.6135 49.8641C37.9603 49.8641 38.265 49.7844 38.5275 49.625C38.79 49.4562 38.9963 49.2312 39.1463 48.95C39.3056 48.6687 39.3853 48.3453 39.3853 47.9797V46.3625C39.3853 45.8281 39.2728 45.4437 39.0478 45.2094C38.8228 44.975 38.4525 44.8578 37.9369 44.8578C37.5431 44.8578 37.1494 44.9187 36.7556 45.0406C36.3619 45.1531 35.9588 45.3359 35.5463 45.5891L35.1103 44.5906C35.3541 44.4219 35.6353 44.2766 35.9541 44.1547C36.2728 44.0328 36.6056 43.9391 36.9525 43.8734C37.3088 43.7984 37.651 43.7609 37.9791 43.7609C38.6072 43.7609 39.1228 43.8594 39.526 44.0562C39.9385 44.2531 40.2431 44.5531 40.44 44.9562C40.6369 45.3594 40.7353 45.8797 40.7353 46.5172V50.75H39.3994V49.2172H39.526C39.451 49.5641 39.3103 49.8641 39.1041 50.1172C38.9072 50.3609 38.6588 50.5484 38.3588 50.6797C38.0588 50.8109 37.7166 50.8766 37.3322 50.8766ZM46.3759 50.8766C45.7759 50.8766 45.2556 50.7266 44.815 50.4266C44.3744 50.1172 44.0791 49.7094 43.9291 49.2031H44.0837V50.75H42.6916V40.8359H44.1119V45.3922H43.9431C44.0931 44.8953 44.3884 44.5016 44.8291 44.2109C45.2697 43.9109 45.7853 43.7609 46.3759 43.7609C46.9947 43.7609 47.5291 43.9062 47.9791 44.1969C48.4291 44.4875 48.7759 44.8953 49.0197 45.4203C49.2728 45.9453 49.3994 46.5781 49.3994 47.3187C49.3994 48.0406 49.2728 48.6734 49.0197 49.2172C48.7759 49.7516 48.4244 50.1641 47.965 50.4547C47.515 50.7359 46.9853 50.8766 46.3759 50.8766ZM46.0244 49.7797C46.615 49.7797 47.0837 49.5687 47.4306 49.1469C47.7869 48.725 47.965 48.1156 47.965 47.3187C47.965 46.5125 47.7869 45.9031 47.4306 45.4906C47.0837 45.0781 46.615 44.8719 46.0244 44.8719C45.4431 44.8719 44.9744 45.0781 44.6181 45.4906C44.2619 45.9031 44.0837 46.5125 44.0837 47.3187C44.0837 48.1156 44.2619 48.725 44.6181 49.1469C44.9744 49.5687 45.4431 49.7797 46.0244 49.7797Z" fill="#444050"/>
</g>
<g id="Cell-Status">
<g id="Badge-status-shipment">
<rect x="184.156" y="24.7344" width="94.75" height="24.0313" rx="12.0156" fill="#EEFBF3"/>
<path id="Label" d="M194.588 41.25V32.1621H198.352C199.332 32.1621 200.088 32.3941 200.621 32.8582C201.154 33.3223 201.42 33.9797 201.42 34.8305C201.42 35.3805 201.3 35.8531 201.059 36.2484C200.819 36.6437 200.466 36.9445 200.002 37.1508C199.547 37.357 198.997 37.4602 198.352 37.4602L198.468 37.2797H198.804C199.147 37.2797 199.444 37.3656 199.693 37.5375C199.951 37.7094 200.183 37.9844 200.389 38.3625L201.962 41.25H200.492L198.92 38.3496C198.799 38.1262 198.666 37.9543 198.52 37.834C198.382 37.7051 198.219 37.6191 198.03 37.5762C197.85 37.5246 197.635 37.4988 197.386 37.4988H195.929V41.25H194.588ZM195.929 36.4934H198.133C198.786 36.4934 199.28 36.3559 199.616 36.0809C199.951 35.8059 200.118 35.3977 200.118 34.8562C200.118 34.3234 199.951 33.9195 199.616 33.6445C199.28 33.3695 198.786 33.232 198.133 33.232H195.929V36.4934ZM205.971 41.366C205.284 41.366 204.691 41.2371 204.192 40.9793C203.702 40.7129 203.32 40.3391 203.045 39.8578C202.779 39.368 202.645 38.7879 202.645 38.1176C202.645 37.4645 202.779 36.893 203.045 36.4031C203.311 35.9133 203.677 35.5309 204.141 35.2559C204.605 34.9809 205.133 34.8434 205.726 34.8434C206.311 34.8434 206.809 34.9723 207.222 35.2301C207.643 35.4793 207.965 35.8359 208.188 36.3C208.412 36.7641 208.524 37.3184 208.524 37.9629V38.4012H203.677V37.602H207.647L207.428 37.7824C207.428 37.1379 207.286 36.6395 207.002 36.2871C206.719 35.9348 206.311 35.7586 205.778 35.7586C205.374 35.7586 205.03 35.8531 204.747 36.0422C204.472 36.2312 204.261 36.4934 204.115 36.8285C203.969 37.1637 203.896 37.5547 203.896 38.0016V38.0789C203.896 38.5773 203.973 38.9984 204.128 39.3422C204.291 39.6773 204.527 39.9309 204.837 40.1027C205.146 40.2746 205.529 40.3605 205.984 40.3605C206.345 40.3605 206.697 40.3047 207.041 40.193C207.393 40.0727 207.724 39.8879 208.034 39.6387L208.42 40.541C208.137 40.7988 207.772 41.0008 207.325 41.1469C206.878 41.293 206.427 41.366 205.971 41.366ZM212.714 41.366C212.07 41.366 211.511 41.2328 211.039 40.9664C210.575 40.6914 210.214 40.309 209.956 39.8191C209.698 39.3207 209.569 38.7363 209.569 38.066C209.569 37.4043 209.698 36.8328 209.956 36.3516C210.214 35.8703 210.575 35.5008 211.039 35.243C211.511 34.9766 212.07 34.8434 212.714 34.8434C213.11 34.8434 213.501 34.9121 213.887 35.0496C214.274 35.1785 214.592 35.3676 214.841 35.6168L214.429 36.532C214.197 36.3086 213.935 36.1453 213.643 36.0422C213.35 35.9305 213.075 35.8746 212.818 35.8746C212.207 35.8746 211.735 36.068 211.4 36.4547C211.073 36.8328 210.91 37.3742 210.91 38.0789C210.91 38.7836 211.073 39.3379 211.4 39.7418C211.735 40.1371 212.207 40.3348 212.818 40.3348C213.075 40.3348 213.35 40.2832 213.643 40.1801C213.935 40.0684 214.197 39.9008 214.429 39.6773L214.841 40.6055C214.592 40.8375 214.27 41.0223 213.875 41.1598C213.488 41.2973 213.101 41.366 212.714 41.366ZM217.921 41.366C217.483 41.366 217.087 41.2801 216.735 41.1082C216.391 40.9363 216.12 40.7043 215.923 40.4121C215.725 40.1199 215.626 39.7891 215.626 39.4195C215.626 38.9555 215.742 38.5902 215.974 38.3238C216.215 38.0488 216.606 37.8555 217.147 37.7437C217.697 37.6234 218.436 37.5633 219.365 37.5633H219.97V38.3625H219.377C218.913 38.3625 218.522 38.3797 218.204 38.4141C217.886 38.4484 217.633 38.5043 217.444 38.5816C217.255 38.6504 217.117 38.7492 217.031 38.8781C216.954 39.007 216.915 39.1617 216.915 39.3422C216.915 39.6687 217.027 39.9352 217.251 40.1414C217.474 40.3391 217.783 40.4379 218.179 40.4379C218.497 40.4379 218.776 40.3648 219.017 40.2187C219.257 40.0641 219.446 39.8578 219.584 39.6C219.73 39.3422 219.803 39.0457 219.803 38.7105V37.2281C219.803 36.7383 219.7 36.3859 219.493 36.1711C219.287 35.9562 218.948 35.8488 218.475 35.8488C218.114 35.8488 217.753 35.9047 217.392 36.0164C217.031 36.1195 216.662 36.2871 216.284 36.5191L215.884 35.6039C216.108 35.4492 216.365 35.316 216.658 35.2043C216.95 35.0926 217.255 35.0066 217.573 34.9465C217.899 34.8777 218.213 34.8434 218.514 34.8434C219.09 34.8434 219.562 34.9336 219.932 35.1141C220.31 35.2945 220.589 35.5695 220.77 35.9391C220.95 36.3086 221.04 36.7855 221.04 37.3699V41.25H219.816V39.8449H219.932C219.863 40.1629 219.734 40.4379 219.545 40.6699C219.365 40.8934 219.137 41.0652 218.862 41.1855C218.587 41.3059 218.273 41.366 217.921 41.366ZM224.883 41.366C224.196 41.366 223.68 41.1727 223.336 40.7859C223.001 40.3906 222.834 39.8234 222.834 39.0844V32.1621H224.136V39.007C224.136 39.282 224.174 39.5184 224.252 39.716C224.329 39.9051 224.445 40.0469 224.6 40.1414C224.754 40.2359 224.948 40.2832 225.18 40.2832C225.283 40.2832 225.382 40.2789 225.476 40.2703C225.571 40.2617 225.661 40.2445 225.747 40.2187L225.721 41.2629C225.575 41.2973 225.433 41.323 225.296 41.3402C225.158 41.3574 225.021 41.366 224.883 41.366ZM229.482 41.366C228.838 41.366 228.279 41.2328 227.807 40.9664C227.342 40.6914 226.982 40.309 226.724 39.8191C226.466 39.3207 226.337 38.7363 226.337 38.066C226.337 37.4043 226.466 36.8328 226.724 36.3516C226.982 35.8703 227.342 35.5008 227.807 35.243C228.279 34.9766 228.838 34.8434 229.482 34.8434C229.878 34.8434 230.269 34.9121 230.655 35.0496C231.042 35.1785 231.36 35.3676 231.609 35.6168L231.197 36.532C230.965 36.3086 230.703 36.1453 230.41 36.0422C230.118 35.9305 229.843 35.8746 229.585 35.8746C228.975 35.8746 228.503 36.068 228.167 36.4547C227.841 36.8328 227.678 37.3742 227.678 38.0789C227.678 38.7836 227.841 39.3379 228.167 39.7418C228.503 40.1371 228.975 40.3348 229.585 40.3348C229.843 40.3348 230.118 40.2832 230.41 40.1801C230.703 40.0684 230.965 39.9008 231.197 39.6773L231.609 40.6055C231.36 40.8375 231.038 41.0223 230.642 41.1598C230.256 41.2973 229.869 41.366 229.482 41.366ZM234.971 41.366C234.464 41.366 234.039 41.2715 233.695 41.0824C233.36 40.8934 233.106 40.6141 232.934 40.2445C232.771 39.8664 232.689 39.3937 232.689 38.8266V34.9594H233.991V38.8395C233.991 39.1746 234.034 39.4539 234.12 39.6773C234.215 39.9008 234.357 40.0641 234.546 40.1672C234.743 40.2703 234.988 40.3219 235.28 40.3219C235.607 40.3219 235.895 40.2488 236.144 40.1027C236.393 39.9566 236.587 39.7461 236.724 39.4711C236.862 39.1961 236.93 38.8781 236.93 38.5172V34.9594H238.232V41.25H236.969V39.8707H237.137C236.965 40.352 236.69 40.7215 236.312 40.9793C235.934 41.2371 235.487 41.366 234.971 41.366ZM242.117 41.366C241.429 41.366 240.914 41.1727 240.57 40.7859C240.235 40.3906 240.067 39.8234 240.067 39.0844V32.1621H241.369V39.007C241.369 39.282 241.408 39.5184 241.485 39.716C241.563 39.9051 241.679 40.0469 241.833 40.1414C241.988 40.2359 242.181 40.2832 242.413 40.2832C242.516 40.2832 242.615 40.2789 242.71 40.2703C242.804 40.2617 242.895 40.2445 242.98 40.2187L242.955 41.2629C242.809 41.2973 242.667 41.323 242.529 41.3402C242.392 41.3574 242.254 41.366 242.117 41.366ZM246.018 41.366C245.58 41.366 245.185 41.2801 244.832 41.1082C244.489 40.9363 244.218 40.7043 244.02 40.4121C243.823 40.1199 243.724 39.7891 243.724 39.4195C243.724 38.9555 243.84 38.5902 244.072 38.3238C244.312 38.0488 244.704 37.8555 245.245 37.7437C245.795 37.6234 246.534 37.5633 247.462 37.5633H248.068V38.3625H247.475C247.011 38.3625 246.62 38.3797 246.302 38.4141C245.984 38.4484 245.73 38.5043 245.541 38.5816C245.352 38.6504 245.215 38.7492 245.129 38.8781C245.052 39.007 245.013 39.1617 245.013 39.3422C245.013 39.6687 245.125 39.9352 245.348 40.1414C245.571 40.3391 245.881 40.4379 246.276 40.4379C246.594 40.4379 246.873 40.3648 247.114 40.2187C247.355 40.0641 247.544 39.8578 247.681 39.6C247.827 39.3422 247.9 39.0457 247.9 38.7105V37.2281C247.9 36.7383 247.797 36.3859 247.591 36.1711C247.385 35.9562 247.045 35.8488 246.573 35.8488C246.212 35.8488 245.851 35.9047 245.49 36.0164C245.129 36.1195 244.759 36.2871 244.381 36.5191L243.982 35.6039C244.205 35.4492 244.463 35.316 244.755 35.2043C245.047 35.0926 245.352 35.0066 245.67 34.9465C245.997 34.8777 246.311 34.8434 246.611 34.8434C247.187 34.8434 247.66 34.9336 248.029 35.1141C248.407 35.2945 248.687 35.5695 248.867 35.9391C249.048 36.3086 249.138 36.7855 249.138 37.3699V41.25H247.913V39.8449H248.029C247.961 40.1629 247.832 40.4379 247.643 40.6699C247.462 40.8934 247.234 41.0652 246.959 41.1855C246.684 41.3059 246.371 41.366 246.018 41.366ZM253.612 41.366C252.83 41.366 252.242 41.1641 251.846 40.7602C251.46 40.3562 251.266 39.7719 251.266 39.007V35.9648H250.042V34.9594H251.266V33.0645H252.568V34.9594H254.515V35.9648H252.568V38.9039C252.568 39.3594 252.663 39.7031 252.852 39.9352C253.049 40.1672 253.367 40.2832 253.806 40.2832C253.935 40.2832 254.064 40.266 254.192 40.2316C254.33 40.1973 254.463 40.1629 254.592 40.1285L254.798 41.1082C254.669 41.1855 254.489 41.2457 254.257 41.2887C254.033 41.3402 253.819 41.366 253.612 41.366ZM258.528 41.366C257.841 41.366 257.248 41.2371 256.749 40.9793C256.259 40.7129 255.877 40.3391 255.602 39.8578C255.336 39.368 255.202 38.7879 255.202 38.1176C255.202 37.4645 255.336 36.893 255.602 36.4031C255.868 35.9133 256.234 35.5309 256.698 35.2559C257.162 34.9809 257.69 34.8434 258.283 34.8434C258.868 34.8434 259.366 34.9723 259.779 35.2301C260.2 35.4793 260.522 35.8359 260.745 36.3C260.969 36.7641 261.081 37.3184 261.081 37.9629V38.4012H256.234V37.602H260.204L259.985 37.7824C259.985 37.1379 259.843 36.6395 259.559 36.2871C259.276 35.9348 258.868 35.7586 258.335 35.7586C257.931 35.7586 257.587 35.8531 257.304 36.0422C257.029 36.2312 256.818 36.4934 256.672 36.8285C256.526 37.1637 256.453 37.5547 256.453 38.0016V38.0789C256.453 38.5773 256.53 38.9984 256.685 39.3422C256.848 39.6773 257.084 39.9309 257.394 40.1027C257.703 40.2746 258.086 40.3605 258.541 40.3605C258.902 40.3605 259.254 40.3047 259.598 40.193C259.95 40.0727 260.281 39.8879 260.591 39.6387L260.977 40.541C260.694 40.7988 260.329 41.0008 259.882 41.1469C259.435 41.293 258.984 41.366 258.528 41.366ZM264.898 41.366C264.348 41.366 263.862 41.2371 263.441 40.9793C263.028 40.7129 262.706 40.3348 262.474 39.8449C262.242 39.3465 262.126 38.7664 262.126 38.1047C262.126 37.4258 262.242 36.8457 262.474 36.3645C262.706 35.8832 263.028 35.5094 263.441 35.243C263.862 34.9766 264.348 34.8434 264.898 34.8434C265.448 34.8434 265.92 34.9809 266.316 35.2559C266.719 35.5223 266.99 35.8832 267.128 36.3387H266.986V32.1621H268.288V41.25H267.012V39.832H267.141C267.003 40.2961 266.732 40.6699 266.328 40.9535C265.933 41.2285 265.456 41.366 264.898 41.366ZM265.233 40.3605C265.766 40.3605 266.195 40.1672 266.522 39.7805C266.848 39.3937 267.012 38.8352 267.012 38.1047C267.012 37.3656 266.848 36.807 266.522 36.4289C266.195 36.0508 265.766 35.8617 265.233 35.8617C264.691 35.8617 264.257 36.0508 263.931 36.4289C263.604 36.807 263.441 37.3656 263.441 38.1047C263.441 38.8352 263.604 39.3937 263.931 39.7805C264.257 40.1672 264.691 40.3605 265.233 40.3605Z" fill="#24B364"/>
</g>
</g>
</g>
</g>
<path id="Line 346" d="M21.0938 68.8125H278.93" stroke="#EAEAEC" stroke-width="1.17187" stroke-linecap="round"/>
<g id="Info Origin_2">
<g id="Main_2">
<path id="Time_2" d="M25.3125 97.0016C24.5625 97.0016 23.925 96.8094 23.4 96.425C22.8844 96.0312 22.4953 95.4547 22.2328 94.6953C21.9703 93.9359 21.8391 93.0078 21.8391 91.9109C21.8391 90.8047 21.9703 89.8766 22.2328 89.1266C22.4953 88.3672 22.8844 87.7953 23.4 87.4109C23.925 87.0266 24.5625 86.8344 25.3125 86.8344C26.0719 86.8344 26.7094 87.0266 27.225 87.4109C27.7406 87.7953 28.1297 88.3625 28.3922 89.1125C28.6547 89.8625 28.7859 90.7906 28.7859 91.8969C28.7859 93.0031 28.6547 93.9359 28.3922 94.6953C28.1297 95.4547 27.7406 96.0312 27.225 96.425C26.7094 96.8094 26.0719 97.0016 25.3125 97.0016ZM25.3125 96.0031C26.1 96.0031 26.6813 95.6703 27.0563 95.0047C27.4406 94.3391 27.6328 93.3031 27.6328 91.8969C27.6328 90.4906 27.4453 89.4641 27.0703 88.8172C26.6953 88.1609 26.1094 87.8328 25.3125 87.8328C24.5344 87.8328 23.9531 88.1609 23.5688 88.8172C23.1844 89.4734 22.9922 90.5 22.9922 91.8969C22.9922 93.3031 23.1797 94.3391 23.5547 95.0047C23.9391 95.6703 24.525 96.0031 25.3125 96.0031ZM30.4117 96.875V95.4406H31.8461V96.875H30.4117ZM37.1552 97.0016C36.7333 97.0016 36.3208 96.9547 35.9177 96.8609C35.5146 96.7672 35.1349 96.6312 34.7787 96.4531C34.4318 96.275 34.1224 96.0641 33.8505 95.8203L34.2865 94.9062C34.7365 95.2719 35.1912 95.5437 35.6505 95.7219C36.1193 95.8906 36.6162 95.975 37.1412 95.975C37.8349 95.975 38.374 95.7828 38.7583 95.3984C39.1521 95.0141 39.349 94.5078 39.349 93.8797C39.349 93.2328 39.1615 92.7031 38.7865 92.2906C38.4115 91.8781 37.8958 91.6719 37.2396 91.6719C36.7615 91.6719 36.3396 91.7703 35.974 91.9672C35.6177 92.1547 35.2943 92.45 35.0036 92.8531H34.1599V86.9609H39.9115V87.9453H35.299V91.8969H34.9896C35.2333 91.5031 35.5708 91.2031 36.0021 90.9969C36.4333 90.7812 36.9162 90.6734 37.4505 90.6734C38.0787 90.6734 38.6177 90.8047 39.0677 91.0672C39.5271 91.3297 39.8787 91.7 40.1224 92.1781C40.3755 92.6469 40.5021 93.1953 40.5021 93.8234C40.5021 94.4422 40.3662 94.9906 40.0943 95.4687C39.8224 95.9469 39.438 96.3219 38.9412 96.5937C38.4443 96.8656 37.849 97.0016 37.1552 97.0016ZM45.838 96.875V86.9609H46.9771V93.0781H47.0052L50.1693 90.0406H51.6177L47.863 93.6406V93.0219L51.913 96.875H50.4646L47.0052 93.6687H46.9771V96.875H45.838ZM55.7142 99.5328C55.1236 99.5328 54.5658 99.4531 54.0408 99.2938C53.5251 99.1438 53.0658 98.9141 52.6626 98.6047L53.0423 97.775C53.3236 97.9719 53.6001 98.1313 53.872 98.2531C54.1533 98.3844 54.4392 98.4781 54.7298 98.5344C55.0298 98.5906 55.3392 98.6188 55.6579 98.6188C56.3236 98.6188 56.8251 98.4406 57.1626 98.0844C57.5095 97.7281 57.6829 97.2125 57.6829 96.5375V94.9484H57.8236C57.6829 95.4922 57.3829 95.9234 56.9236 96.2422C56.4736 96.5609 55.9439 96.7203 55.3345 96.7203C54.7064 96.7203 54.1626 96.5797 53.7033 96.2984C53.2439 96.0078 52.8876 95.6047 52.6345 95.0891C52.3908 94.5734 52.2689 93.9781 52.2689 93.3031C52.2689 92.6281 52.3908 92.0375 52.6345 91.5312C52.8876 91.0156 53.2439 90.6172 53.7033 90.3359C54.1626 90.0547 54.7064 89.9141 55.3345 89.9141C55.9533 89.9141 56.4876 90.0734 56.9376 90.3922C57.3876 90.7016 57.6783 91.1234 57.8095 91.6578H57.6829V90.0406H58.7939V96.3828C58.7939 97.0766 58.6767 97.6578 58.4423 98.1266C58.2173 98.5953 57.8751 98.9469 57.4158 99.1813C56.9564 99.4156 56.3892 99.5328 55.7142 99.5328ZM55.5454 95.7922C56.2017 95.7922 56.722 95.5672 57.1064 95.1172C57.4908 94.6672 57.6829 94.0625 57.6829 93.3031C57.6829 92.5437 57.4908 91.9437 57.1064 91.5031C56.722 91.0531 56.2017 90.8281 55.5454 90.8281C54.8986 90.8281 54.3829 91.0531 53.9986 91.5031C53.6142 91.9437 53.422 92.5437 53.422 93.3031C53.422 94.0625 53.6142 94.6672 53.9986 95.1172C54.3829 95.5672 54.8986 95.7922 55.5454 95.7922Z" fill="#737682"/>
<g id="Bar Chart">
<g clip-path="url(#clip0_7779_14822)">
<rect x="82.0312" y="88.3594" width="124.219" height="7.03125" rx="3.51562" fill="#EBEBED"/>
<rect id="Bar Fill" x="82.0312" y="88.3594" width="66.7969" height="7.03125" rx="3.51562" fill="#28C76F"/>
</g>
</g>
<path id="Departure" d="M232.685 96.875L237.101 86.9609H238.31L242.74 96.875H241.249L240.04 94.0625L240.701 94.4562H234.71L235.357 94.0625L234.161 96.875H232.685ZM237.691 88.5781L235.568 93.6125L235.216 93.275H240.18L239.857 93.6125L237.719 88.5781H237.691ZM247.409 93.9641V92.2906H249.082V93.9641H247.409ZM259.643 96.875L257.548 93.7109C257.407 93.4859 257.257 93.3031 257.098 93.1625C256.948 93.0219 256.779 92.9234 256.591 92.8672C256.404 92.8109 256.179 92.7828 255.916 92.7828H253.906V91.6156H256.718C257.224 91.6156 257.641 91.55 257.97 91.4187C258.298 91.2875 258.546 91.0906 258.715 90.8281C258.893 90.5656 258.991 90.2328 259.01 89.8297L259.221 90.1672H253.906V89.1406H259.221L258.982 89.4641C258.907 88.9766 258.687 88.6109 258.321 88.3672C257.965 88.1141 257.459 87.9875 256.802 87.9875H253.906V86.9609H261.752V87.9875H259.024L259.221 87.6641C259.568 87.8422 259.84 88.0766 260.037 88.3672C260.234 88.6578 260.356 88.9953 260.402 89.3797L260.121 89.1406H261.752V90.1672H260.163L260.431 89.7734C260.449 90.3734 260.323 90.8937 260.051 91.3344C259.788 91.775 259.404 92.1172 258.898 92.3609C258.401 92.5953 257.796 92.7125 257.084 92.7125V92.5719H257.393C257.646 92.5719 257.881 92.6094 258.096 92.6844C258.312 92.75 258.513 92.8672 258.701 93.0359C258.888 93.2047 259.076 93.4297 259.263 93.7109L261.373 96.875H259.643ZM266.106 97.0016C265.666 97.0016 265.234 96.9594 264.813 96.875C264.4 96.7812 264.011 96.65 263.645 96.4812C263.289 96.3031 262.975 96.0922 262.703 95.8484L263.209 94.7234C263.65 95.0797 264.105 95.3422 264.573 95.5109C265.042 95.6797 265.539 95.7641 266.064 95.7641C266.514 95.7641 266.894 95.6984 267.203 95.5672C267.513 95.4359 267.742 95.2437 267.892 94.9906C268.052 94.7375 268.131 94.4328 268.131 94.0766C268.131 93.5422 267.953 93.1437 267.597 92.8812C267.25 92.6094 266.744 92.4734 266.078 92.4734H264.545V91.25H265.938C266.341 91.25 266.683 91.1844 266.964 91.0531C267.245 90.9125 267.461 90.7203 267.611 90.4766C267.77 90.2234 267.85 89.9187 267.85 89.5625C267.85 89.0844 267.691 88.7187 267.372 88.4656C267.063 88.2031 266.608 88.0719 266.008 88.0719C265.502 88.0719 265.033 88.1609 264.602 88.3391C264.17 88.5172 263.763 88.7891 263.378 89.1547L262.872 88.0437C263.256 87.6594 263.734 87.3641 264.306 87.1578C264.888 86.9422 265.492 86.8344 266.12 86.8344C266.777 86.8344 267.339 86.9375 267.808 87.1437C268.286 87.35 268.647 87.6453 268.891 88.0297C269.144 88.4141 269.27 88.8734 269.27 89.4078C269.27 90.0078 269.102 90.5281 268.764 90.9687C268.436 91.4 267.981 91.6859 267.4 91.8266V91.6719C267.859 91.7469 268.248 91.8969 268.567 92.1219C268.886 92.3469 269.13 92.6328 269.298 92.9797C269.467 93.3266 269.552 93.725 269.552 94.175C269.552 94.7562 269.411 95.2625 269.13 95.6937C268.858 96.1156 268.464 96.4391 267.948 96.6641C267.433 96.8891 266.819 97.0016 266.106 97.0016ZM274.693 97.0016C273.559 97.0016 272.673 96.7578 272.035 96.2703C271.407 95.7828 271.093 95.1031 271.093 94.2312C271.093 93.7625 271.187 93.35 271.374 92.9937C271.562 92.6281 271.824 92.3328 272.162 92.1078C272.499 91.8828 272.888 91.7422 273.329 91.6859V91.9391C272.926 91.8547 272.574 91.7 272.274 91.475C271.974 91.2406 271.74 90.9547 271.571 90.6172C271.412 90.2703 271.332 89.8906 271.332 89.4781C271.332 88.6531 271.637 88.0062 272.246 87.5375C272.855 87.0687 273.671 86.8344 274.693 86.8344C275.724 86.8344 276.545 87.0687 277.154 87.5375C277.763 88.0062 278.068 88.6531 278.068 89.4781C278.068 89.8906 277.984 90.2703 277.815 90.6172C277.655 90.9547 277.426 91.2406 277.126 91.475C276.826 91.7 276.474 91.85 276.071 91.925V91.6859C276.521 91.7422 276.91 91.8875 277.238 92.1219C277.566 92.3469 277.824 92.6375 278.012 92.9937C278.199 93.35 278.293 93.7625 278.293 94.2312C278.293 95.1031 277.974 95.7828 277.337 96.2703C276.709 96.7578 275.827 97.0016 274.693 97.0016ZM274.693 95.8484C275.434 95.8484 275.991 95.7078 276.366 95.4266C276.741 95.1359 276.929 94.7047 276.929 94.1328C276.929 93.5609 276.741 93.1344 276.366 92.8531C275.991 92.5719 275.434 92.4312 274.693 92.4312C273.962 92.4312 273.404 92.5719 273.02 92.8531C272.645 93.1344 272.457 93.5609 272.457 94.1328C272.457 94.7047 272.645 95.1359 273.02 95.4266C273.404 95.7078 273.962 95.8484 274.693 95.8484ZM274.693 91.2781C275.321 91.2781 275.809 91.1328 276.155 90.8422C276.512 90.5422 276.69 90.1344 276.69 89.6187C276.69 89.1125 276.512 88.7141 276.155 88.4234C275.809 88.1328 275.321 87.9875 274.693 87.9875C274.065 87.9875 273.577 88.1328 273.23 88.4234C272.884 88.7141 272.71 89.1125 272.71 89.6187C272.71 90.1344 272.884 90.5422 273.23 90.8422C273.577 91.1328 274.065 91.2781 274.693 91.2781Z" fill="#24B364"/>
</g>
</g>
<path id="Line 344" d="M21.0938 114.938H278.93" stroke="#EAEAEC" stroke-width="1.17187" stroke-linecap="round"/>
<g id="Info Origin_3">
<g id="Main_3">
<path id="Time_3" d="M22.8375 143V142.016H25.1016V134.084H25.7063L23.3156 135.603L22.8234 134.745L25.425 133.086H26.2547V142.016H28.3781V143H22.8375ZM30.4117 143V141.566H31.8461V143H30.4117ZM36.9443 143.127C36.1943 143.127 35.5568 142.934 35.0318 142.55C34.5161 142.156 34.1271 141.58 33.8646 140.82C33.6021 140.061 33.4708 139.133 33.4708 138.036C33.4708 136.93 33.6021 136.002 33.8646 135.252C34.1271 134.492 34.5161 133.92 35.0318 133.536C35.5568 133.152 36.1943 132.959 36.9443 132.959C37.7037 132.959 38.3412 133.152 38.8568 133.536C39.3724 133.92 39.7615 134.487 40.024 135.237C40.2865 135.987 40.4177 136.916 40.4177 138.022C40.4177 139.128 40.2865 140.061 40.024 140.82C39.7615 141.58 39.3724 142.156 38.8568 142.55C38.3412 142.934 37.7037 143.127 36.9443 143.127ZM36.9443 142.128C37.7318 142.128 38.313 141.795 38.688 141.13C39.0724 140.464 39.2646 139.428 39.2646 138.022C39.2646 136.616 39.0771 135.589 38.7021 134.942C38.3271 134.286 37.7412 133.958 36.9443 133.958C36.1662 133.958 35.5849 134.286 35.2005 134.942C34.8162 135.598 34.624 136.625 34.624 138.022C34.624 139.428 34.8115 140.464 35.1865 141.13C35.5708 141.795 36.1568 142.128 36.9443 142.128ZM45.838 143V133.086H46.9771V139.203H47.0052L50.1693 136.166H51.6177L47.863 139.766V139.147L51.913 143H50.4646L47.0052 139.794H46.9771V143H45.838ZM55.7142 145.658C55.1236 145.658 54.5658 145.578 54.0408 145.419C53.5251 145.269 53.0658 145.039 52.6626 144.73L53.0423 143.9C53.3236 144.097 53.6001 144.256 53.872 144.378C54.1533 144.509 54.4392 144.603 54.7298 144.659C55.0298 144.716 55.3392 144.744 55.6579 144.744C56.3236 144.744 56.8251 144.566 57.1626 144.209C57.5095 143.853 57.6829 143.338 57.6829 142.662V141.073H57.8236C57.6829 141.617 57.3829 142.048 56.9236 142.367C56.4736 142.686 55.9439 142.845 55.3345 142.845C54.7064 142.845 54.1626 142.705 53.7033 142.423C53.2439 142.133 52.8876 141.73 52.6345 141.214C52.3908 140.698 52.2689 140.103 52.2689 139.428C52.2689 138.753 52.3908 138.162 52.6345 137.656C52.8876 137.141 53.2439 136.742 53.7033 136.461C54.1626 136.18 54.7064 136.039 55.3345 136.039C55.9533 136.039 56.4876 136.198 56.9376 136.517C57.3876 136.827 57.6783 137.248 57.8095 137.783H57.6829V136.166H58.7939V142.508C58.7939 143.202 58.6767 143.783 58.4423 144.252C58.2173 144.72 57.8751 145.072 57.4158 145.306C56.9564 145.541 56.3892 145.658 55.7142 145.658ZM55.5454 141.917C56.2017 141.917 56.722 141.692 57.1064 141.242C57.4908 140.792 57.6829 140.187 57.6829 139.428C57.6829 138.669 57.4908 138.069 57.1064 137.628C56.722 137.178 56.2017 136.953 55.5454 136.953C54.8986 136.953 54.3829 137.178 53.9986 137.628C53.6142 138.069 53.422 138.669 53.422 139.428C53.422 140.187 53.6142 140.792 53.9986 141.242C54.3829 141.692 54.8986 141.917 55.5454 141.917Z" fill="#737682"/>
<g id="Bar Chart_2">
<g clip-path="url(#clip1_7779_14822)">
<rect x="82.0312" y="134.484" width="124.219" height="7.03125" rx="3.51562" fill="#EBEBED"/>
<rect id="Bar Fill_2" x="82.0312" y="134.484" width="84.375" height="7.03125" rx="3.51562" fill="#28C76F"/>
</g>
</g>
<path id="Departure_2" d="M234.452 143V133.086H238.587C239.618 133.086 240.415 133.316 240.977 133.775C241.549 134.225 241.835 134.858 241.835 135.673C241.835 136.273 241.657 136.78 241.301 137.192C240.945 137.605 240.462 137.881 239.852 138.022V137.811C240.312 137.877 240.706 138.017 241.034 138.233C241.371 138.439 241.629 138.716 241.807 139.062C241.985 139.4 242.074 139.798 242.074 140.258C242.074 140.839 241.943 141.336 241.681 141.748C241.418 142.161 241.038 142.475 240.541 142.691C240.045 142.897 239.449 143 238.756 143H234.452ZM235.859 141.875H238.587C238.868 141.875 239.116 141.856 239.332 141.819C239.557 141.772 239.749 141.706 239.909 141.622C240.077 141.528 240.218 141.416 240.331 141.284C240.443 141.144 240.523 140.984 240.57 140.806C240.626 140.628 240.654 140.427 240.654 140.202C240.654 139.977 240.626 139.775 240.57 139.597C240.523 139.419 240.443 139.264 240.331 139.133C240.218 139.002 240.077 138.894 239.909 138.809C239.749 138.716 239.557 138.65 239.332 138.612C239.116 138.566 238.868 138.542 238.587 138.542H235.859V141.875ZM235.859 137.417H238.362C239.037 137.417 239.548 137.281 239.895 137.009C240.241 136.737 240.415 136.339 240.415 135.814C240.415 135.289 240.241 134.891 239.895 134.619C239.548 134.347 239.037 134.211 238.362 134.211H235.859V137.417ZM247.409 140.089V138.416H249.082V140.089H247.409ZM259.643 143L257.548 139.836C257.407 139.611 257.257 139.428 257.098 139.288C256.948 139.147 256.779 139.048 256.591 138.992C256.404 138.936 256.179 138.908 255.916 138.908H253.906V137.741H256.718C257.224 137.741 257.641 137.675 257.97 137.544C258.298 137.412 258.546 137.216 258.715 136.953C258.893 136.691 258.991 136.358 259.01 135.955L259.221 136.292H253.906V135.266H259.221L258.982 135.589C258.907 135.102 258.687 134.736 258.321 134.492C257.965 134.239 257.459 134.112 256.802 134.112H253.906V133.086H261.752V134.112H259.024L259.221 133.789C259.568 133.967 259.84 134.202 260.037 134.492C260.234 134.783 260.356 135.12 260.402 135.505L260.121 135.266H261.752V136.292H260.163L260.431 135.898C260.449 136.498 260.323 137.019 260.051 137.459C259.788 137.9 259.404 138.242 258.898 138.486C258.401 138.72 257.796 138.837 257.084 138.837V138.697H257.393C257.646 138.697 257.881 138.734 258.096 138.809C258.312 138.875 258.513 138.992 258.701 139.161C258.888 139.33 259.076 139.555 259.263 139.836L261.373 143H259.643ZM266.416 143.127C265.984 143.127 265.563 143.08 265.15 142.986C264.747 142.892 264.367 142.761 264.011 142.592C263.655 142.423 263.345 142.217 263.083 141.973L263.575 140.848C264.025 141.205 264.48 141.467 264.939 141.636C265.398 141.805 265.881 141.889 266.388 141.889C267.034 141.889 267.541 141.716 267.906 141.369C268.272 141.022 268.455 140.558 268.455 139.977C268.455 139.386 268.281 138.903 267.934 138.528C267.588 138.153 267.105 137.966 266.486 137.966C266.045 137.966 265.652 138.055 265.305 138.233C264.967 138.411 264.663 138.683 264.391 139.048H263.378V133.086H269.284V134.309H264.798V137.881H264.405C264.658 137.525 264.991 137.248 265.403 137.052C265.825 136.855 266.289 136.756 266.795 136.756C267.423 136.756 267.967 136.887 268.427 137.15C268.886 137.412 269.242 137.783 269.495 138.261C269.748 138.73 269.875 139.278 269.875 139.906C269.875 140.544 269.734 141.106 269.453 141.594C269.172 142.072 268.773 142.447 268.258 142.719C267.742 142.991 267.128 143.127 266.416 143.127ZM271.67 143V141.917L274.974 138.373C275.284 138.036 275.532 137.727 275.72 137.445C275.907 137.155 276.043 136.878 276.127 136.616C276.221 136.344 276.268 136.072 276.268 135.8C276.268 135.275 276.109 134.877 275.79 134.605C275.471 134.333 275.002 134.197 274.384 134.197C273.905 134.197 273.451 134.286 273.02 134.464C272.598 134.642 272.195 134.914 271.81 135.28L271.29 134.169C271.665 133.803 272.143 133.512 272.724 133.297C273.305 133.072 273.91 132.959 274.538 132.959C275.223 132.959 275.799 133.067 276.268 133.283C276.746 133.489 277.107 133.794 277.351 134.197C277.595 134.6 277.716 135.092 277.716 135.673C277.716 135.973 277.679 136.269 277.604 136.559C277.538 136.841 277.43 137.122 277.28 137.403C277.14 137.684 276.957 137.975 276.732 138.275C276.516 138.575 276.254 138.884 275.945 139.203L273.118 142.184V141.777H278.11V143H271.67Z" fill="#24B364"/>
</g>
</g>
<path id="Line 345" d="M21.0938 161.062H278.93" stroke="#EAEAEC" stroke-width="1.17187" stroke-linecap="round"/>
<g id="Info Origin_4">
<g id="Main_4">
<path id="Time_4" d="M22.3594 189.125V188.253L25.7484 184.597C26.0672 184.25 26.325 183.927 26.5219 183.627C26.7188 183.317 26.8641 183.017 26.9578 182.727C27.0516 182.436 27.0984 182.141 27.0984 181.841C27.0984 181.278 26.925 180.852 26.5781 180.561C26.2406 180.261 25.7438 180.111 25.0875 180.111C24.5813 180.111 24.1078 180.205 23.6672 180.392C23.2359 180.57 22.8234 180.852 22.4297 181.236L21.9938 180.336C22.3594 179.961 22.8234 179.661 23.3859 179.436C23.9578 179.202 24.5578 179.084 25.1859 179.084C25.8516 179.084 26.4141 179.187 26.8734 179.394C27.3328 179.6 27.6797 179.905 27.9141 180.308C28.1484 180.702 28.2656 181.184 28.2656 181.756C28.2656 182.056 28.2281 182.352 28.1531 182.642C28.0875 182.923 27.9797 183.209 27.8297 183.5C27.6891 183.781 27.5063 184.072 27.2813 184.372C27.0656 184.672 26.8031 184.981 26.4938 185.3L23.5125 188.464V188.141H28.6734V189.125H22.3594ZM30.4117 189.125V187.691H31.8461V189.125H30.4117ZM36.9443 189.252C36.1943 189.252 35.5568 189.059 35.0318 188.675C34.5161 188.281 34.1271 187.705 33.8646 186.945C33.6021 186.186 33.4708 185.258 33.4708 184.161C33.4708 183.055 33.6021 182.127 33.8646 181.377C34.1271 180.617 34.5161 180.045 35.0318 179.661C35.5568 179.277 36.1943 179.084 36.9443 179.084C37.7037 179.084 38.3412 179.277 38.8568 179.661C39.3724 180.045 39.7615 180.612 40.024 181.362C40.2865 182.112 40.4177 183.041 40.4177 184.147C40.4177 185.253 40.2865 186.186 40.024 186.945C39.7615 187.705 39.3724 188.281 38.8568 188.675C38.3412 189.059 37.7037 189.252 36.9443 189.252ZM36.9443 188.253C37.7318 188.253 38.313 187.92 38.688 187.255C39.0724 186.589 39.2646 185.553 39.2646 184.147C39.2646 182.741 39.0771 181.714 38.7021 181.067C38.3271 180.411 37.7412 180.083 36.9443 180.083C36.1662 180.083 35.5849 180.411 35.2005 181.067C34.8162 181.723 34.624 182.75 34.624 184.147C34.624 185.553 34.8115 186.589 35.1865 187.255C35.5708 187.92 36.1568 188.253 36.9443 188.253ZM45.838 189.125V179.211H46.9771V185.328H47.0052L50.1693 182.291H51.6177L47.863 185.891V185.272L51.913 189.125H50.4646L47.0052 185.919H46.9771V189.125H45.838ZM55.7142 191.783C55.1236 191.783 54.5658 191.703 54.0408 191.544C53.5251 191.394 53.0658 191.164 52.6626 190.855L53.0423 190.025C53.3236 190.222 53.6001 190.381 53.872 190.503C54.1533 190.634 54.4392 190.728 54.7298 190.784C55.0298 190.841 55.3392 190.869 55.6579 190.869C56.3236 190.869 56.8251 190.691 57.1626 190.334C57.5095 189.978 57.6829 189.463 57.6829 188.787V187.198H57.8236C57.6829 187.742 57.3829 188.173 56.9236 188.492C56.4736 188.811 55.9439 188.97 55.3345 188.97C54.7064 188.97 54.1626 188.83 53.7033 188.548C53.2439 188.258 52.8876 187.855 52.6345 187.339C52.3908 186.823 52.2689 186.228 52.2689 185.553C52.2689 184.878 52.3908 184.287 52.6345 183.781C52.8876 183.266 53.2439 182.867 53.7033 182.586C54.1626 182.305 54.7064 182.164 55.3345 182.164C55.9533 182.164 56.4876 182.323 56.9376 182.642C57.3876 182.952 57.6783 183.373 57.8095 183.908H57.6829V182.291H58.7939V188.633C58.7939 189.327 58.6767 189.908 58.4423 190.377C58.2173 190.845 57.8751 191.197 57.4158 191.431C56.9564 191.666 56.3892 191.783 55.7142 191.783ZM55.5454 188.042C56.2017 188.042 56.722 187.817 57.1064 187.367C57.4908 186.917 57.6829 186.312 57.6829 185.553C57.6829 184.794 57.4908 184.194 57.1064 183.753C56.722 183.303 56.2017 183.078 55.5454 183.078C54.8986 183.078 54.3829 183.303 53.9986 183.753C53.6142 184.194 53.422 184.794 53.422 185.553C53.422 186.312 53.6142 186.917 53.9986 187.367C54.3829 187.817 54.8986 188.042 55.5454 188.042Z" fill="#737682"/>
<g id="Bar Chart_3">
<g clip-path="url(#clip2_7779_14822)">
<rect x="82.0312" y="180.609" width="124.219" height="7.03125" rx="3.51562" fill="#EBEBED"/>
<rect id="Bar Fill_3" x="82.0312" y="180.609" width="111.328" height="7.03125" rx="3.51562" fill="#28C76F"/>
</g>
</g>
<path id="Departure_3" d="M238.979 189.252C237.975 189.252 237.118 189.045 236.405 188.633C235.693 188.22 235.144 187.634 234.76 186.875C234.385 186.106 234.197 185.202 234.197 184.161C234.197 183.12 234.385 182.22 234.76 181.461C235.144 180.702 235.693 180.116 236.405 179.703C237.118 179.291 237.975 179.084 238.979 179.084C239.654 179.084 240.282 179.192 240.863 179.408C241.454 179.614 241.946 179.914 242.339 180.308L241.833 181.475C241.402 181.091 240.957 180.814 240.497 180.645C240.047 180.467 239.555 180.378 239.021 180.378C237.952 180.378 237.136 180.706 236.574 181.362C236.011 182.019 235.73 182.952 235.73 184.161C235.73 185.37 236.011 186.308 236.574 186.973C237.136 187.63 237.952 187.958 239.021 187.958C239.555 187.958 240.047 187.873 240.497 187.705C240.957 187.527 241.402 187.245 241.833 186.861L242.339 188.028C241.946 188.422 241.454 188.727 240.863 188.942C240.282 189.148 239.654 189.252 238.979 189.252ZM247.409 186.214V184.541H249.082V186.214H247.409ZM259.643 189.125L257.548 185.961C257.407 185.736 257.257 185.553 257.098 185.413C256.948 185.272 256.779 185.173 256.591 185.117C256.404 185.061 256.179 185.033 255.916 185.033H253.906V183.866H256.718C257.224 183.866 257.641 183.8 257.97 183.669C258.298 183.537 258.546 183.341 258.715 183.078C258.893 182.816 258.991 182.483 259.01 182.08L259.221 182.417H253.906V181.391H259.221L258.982 181.714C258.907 181.227 258.687 180.861 258.321 180.617C257.965 180.364 257.459 180.237 256.802 180.237H253.906V179.211H261.752V180.237H259.024L259.221 179.914C259.568 180.092 259.84 180.327 260.037 180.617C260.234 180.908 260.356 181.245 260.402 181.63L260.121 181.391H261.752V182.417H260.163L260.431 182.023C260.449 182.623 260.323 183.144 260.051 183.584C259.788 184.025 259.404 184.367 258.898 184.611C258.401 184.845 257.796 184.962 257.084 184.962V184.822H257.393C257.646 184.822 257.881 184.859 258.096 184.934C258.312 185 258.513 185.117 258.701 185.286C258.888 185.455 259.076 185.68 259.263 185.961L261.373 189.125H259.643ZM263.448 189.125L268.286 179.886V180.434H262.914V179.211H269.622V180.294L265.052 189.125H263.448ZM275.593 189.125V187.114H271.135V186.031L275.846 179.211H277.041V185.891H278.49V187.114H277.041V189.125H275.593ZM275.593 185.891V180.955H275.973L272.316 186.284V185.891H275.593Z" fill="#24B364"/>
</g>
</g>
</g>
</g>
</g>
</g>
<defs>
<clipPath id="clip0_7779_14822">
<rect x="82.0312" y="88.3594" width="124.219" height="7.03125" rx="3.51562" fill="white"/>
</clipPath>
<clipPath id="clip1_7779_14822">
<rect x="82.0312" y="134.484" width="124.219" height="7.03125" rx="3.51562" fill="white"/>
</clipPath>
<clipPath id="clip2_7779_14822">
<rect x="82.0312" y="180.609" width="124.219" height="7.03125" rx="3.51562" fill="white"/>
</clipPath>
</defs>
</svg>
