<svg width="220" height="112" viewBox="0 0 220 112" fill="none" xmlns="http://www.w3.org/2000/svg">
<g id="Metric Card">
<rect width="219.4" height="112" rx="12" fill="white"/>
<g id="Head">
<g id="Icon">
<rect x="14" y="14" width="24" height="24" rx="4" fill="#FBC942"/>
<g id="Target">
<path id="Vector" d="M25.9997 32.6668C25.0775 32.6668 24.2108 32.4918 23.3997 32.1418C22.5886 31.7918 21.883 31.3168 21.283 30.7168C20.683 30.1168 20.208 29.4113 19.858 28.6002C19.508 27.7891 19.333 26.9224 19.333 26.0002C19.333 25.0779 19.508 24.2113 19.858 23.4002C20.208 22.5891 20.683 21.8835 21.283 21.2835C21.883 20.6835 22.5886 20.2085 23.3997 19.8585C24.2108 19.5085 25.0775 19.3335 25.9997 19.3335C26.9219 19.3335 27.7886 19.5085 28.5997 19.8585C29.4108 20.2085 30.1163 20.6835 30.7163 21.2835C31.3163 21.8835 31.7913 22.5891 32.1413 23.4002C32.4913 24.2113 32.6663 25.0779 32.6663 26.0002C32.6663 26.9224 32.4913 27.7891 32.1413 28.6002C31.7913 29.4113 31.3163 30.1168 30.7163 30.7168C30.1163 31.3168 29.4108 31.7918 28.5997 32.1418C27.7886 32.4918 26.9219 32.6668 25.9997 32.6668ZM25.9997 31.3335C27.4886 31.3335 28.7497 30.8168 29.783 29.7835C30.8163 28.7502 31.333 27.4891 31.333 26.0002C31.333 24.5113 30.8163 23.2502 29.783 22.2168C28.7497 21.1835 27.4886 20.6668 25.9997 20.6668C24.5108 20.6668 23.2497 21.1835 22.2163 22.2168C21.183 23.2502 20.6663 24.5113 20.6663 26.0002C20.6663 27.4891 21.183 28.7502 22.2163 29.7835C23.2497 30.8168 24.5108 31.3335 25.9997 31.3335ZM25.9997 30.0002C24.8886 30.0002 23.9441 29.6113 23.1663 28.8335C22.3886 28.0557 21.9997 27.1113 21.9997 26.0002C21.9997 24.8891 22.3886 23.9446 23.1663 23.1668C23.9441 22.3891 24.8886 22.0002 25.9997 22.0002C27.1108 22.0002 28.0552 22.3891 28.833 23.1668C29.6108 23.9446 29.9997 24.8891 29.9997 26.0002C29.9997 27.1113 29.6108 28.0557 28.833 28.8335C28.0552 29.6113 27.1108 30.0002 25.9997 30.0002ZM25.9997 28.6668C26.733 28.6668 27.3608 28.4057 27.883 27.8835C28.4052 27.3613 28.6663 26.7335 28.6663 26.0002C28.6663 25.2668 28.4052 24.6391 27.883 24.1168C27.3608 23.5946 26.733 23.3335 25.9997 23.3335C25.2663 23.3335 24.6386 23.5946 24.1163 24.1168C23.5941 24.6391 23.333 25.2668 23.333 26.0002C23.333 26.7335 23.5941 27.3613 24.1163 27.8835C24.6386 28.4057 25.2663 28.6668 25.9997 28.6668ZM25.9997 27.3335C25.633 27.3335 25.3191 27.2029 25.058 26.9418C24.7969 26.6807 24.6663 26.3668 24.6663 26.0002C24.6663 25.6335 24.7969 25.3196 25.058 25.0585C25.3191 24.7974 25.633 24.6668 25.9997 24.6668C26.3663 24.6668 26.6802 24.7974 26.9413 25.0585C27.2025 25.3196 27.333 25.6335 27.333 26.0002C27.333 26.3668 27.2025 26.6807 26.9413 26.9418C26.6802 27.2029 26.3663 27.3335 25.9997 27.3335Z" fill="white"/>
</g>
</g>
<path id="Category" d="M50.776 30.108C49.92 30.108 49.188 29.932 48.58 29.58C47.972 29.228 47.504 28.728 47.176 28.08C46.856 27.424 46.696 26.652 46.696 25.764C46.696 24.876 46.856 24.108 47.176 23.46C47.504 22.812 47.972 22.312 48.58 21.96C49.188 21.608 49.92 21.432 50.776 21.432C51.352 21.432 51.888 21.524 52.384 21.708C52.888 21.884 53.308 22.14 53.644 22.476L53.212 23.472C52.844 23.144 52.464 22.908 52.072 22.764C51.688 22.612 51.268 22.536 50.812 22.536C49.9 22.536 49.204 22.816 48.724 23.376C48.244 23.936 48.004 24.732 48.004 25.764C48.004 26.796 48.244 27.596 48.724 28.164C49.204 28.724 49.9 29.004 50.812 29.004C51.268 29.004 51.688 28.932 52.072 28.788C52.464 28.636 52.844 28.396 53.212 28.068L53.644 29.064C53.308 29.4 52.888 29.66 52.384 29.844C51.888 30.02 51.352 30.108 50.776 30.108ZM57.0835 30.108C56.4915 30.108 55.9795 29.984 55.5475 29.736C55.1235 29.488 54.7915 29.136 54.5515 28.68C54.3115 28.224 54.1915 27.688 54.1915 27.072C54.1915 26.448 54.3115 25.912 54.5515 25.464C54.7915 25.008 55.1235 24.656 55.5475 24.408C55.9795 24.16 56.4915 24.036 57.0835 24.036C57.6675 24.036 58.1715 24.16 58.5955 24.408C59.0275 24.656 59.3635 25.008 59.6035 25.464C59.8435 25.92 59.9635 26.456 59.9635 27.072C59.9635 27.688 59.8435 28.224 59.6035 28.68C59.3635 29.136 59.0275 29.488 58.5955 29.736C58.1715 29.984 57.6675 30.108 57.0835 30.108ZM57.0715 29.172C57.5755 29.172 57.9795 28.992 58.2835 28.632C58.5875 28.272 58.7395 27.752 58.7395 27.072C58.7395 26.384 58.5875 25.864 58.2835 25.512C57.9795 25.16 57.5755 24.984 57.0715 24.984C56.5755 24.984 56.1755 25.16 55.8715 25.512C55.5675 25.864 55.4155 26.384 55.4155 27.072C55.4155 27.752 55.5675 28.272 55.8715 28.632C56.1755 28.992 56.5755 29.172 57.0715 29.172ZM63.4127 30.108C62.9407 30.108 62.5447 30.02 62.2247 29.844C61.9127 29.668 61.6767 29.408 61.5167 29.064C61.3647 28.712 61.2887 28.272 61.2887 27.744V24.144H62.5007V27.756C62.5007 28.068 62.5407 28.328 62.6207 28.536C62.7087 28.744 62.8407 28.896 63.0167 28.992C63.2007 29.088 63.4287 29.136 63.7007 29.136C64.0047 29.136 64.2727 29.068 64.5047 28.932C64.7367 28.796 64.9167 28.6 65.0447 28.344C65.1727 28.088 65.2367 27.792 65.2367 27.456V24.144H66.4487V30H65.2727V28.716H65.4287C65.2687 29.164 65.0127 29.508 64.6607 29.748C64.3087 29.988 63.8927 30.108 63.4127 30.108ZM68.1567 30V24.144H69.3327V25.548H69.2127C69.3407 25.068 69.5687 24.704 69.8967 24.456C70.2327 24.208 70.6767 24.064 71.2287 24.024L71.6247 24L71.7087 25.032L70.9767 25.104C70.4567 25.152 70.0607 25.316 69.7887 25.596C69.5167 25.876 69.3807 26.26 69.3807 26.748V30H68.1567ZM72.5253 22.788V21.528H73.9413V22.788H72.5253ZM72.6333 30V24.144H73.8453V30H72.6333ZM78.2992 30.108C77.6592 30.108 77.1072 29.988 76.6432 29.748C76.1872 29.5 75.8312 29.152 75.5752 28.704C75.3272 28.248 75.2032 27.708 75.2032 27.084C75.2032 26.476 75.3272 25.944 75.5752 25.488C75.8232 25.032 76.1632 24.676 76.5952 24.42C77.0272 24.164 77.5192 24.036 78.0712 24.036C78.6152 24.036 79.0792 24.156 79.4632 24.396C79.8552 24.628 80.1552 24.96 80.3632 25.392C80.5712 25.824 80.6752 26.34 80.6752 26.94V27.348H76.1632V26.604H79.8592L79.6552 26.772C79.6552 26.172 79.5232 25.708 79.2592 25.38C78.9952 25.052 78.6152 24.888 78.1192 24.888C77.7432 24.888 77.4232 24.976 77.1592 25.152C76.9032 25.328 76.7072 25.572 76.5712 25.884C76.4352 26.196 76.3672 26.56 76.3672 26.976V27.048C76.3672 27.512 76.4392 27.904 76.5832 28.224C76.7352 28.536 76.9552 28.772 77.2432 28.932C77.5312 29.092 77.8872 29.172 78.3112 29.172C78.6472 29.172 78.9752 29.12 79.2952 29.016C79.6232 28.904 79.9312 28.732 80.2192 28.5L80.5792 29.34C80.3152 29.58 79.9752 29.768 79.5592 29.904C79.1432 30.04 78.7232 30.108 78.2992 30.108ZM81.9965 30V24.144H83.1725V25.548H83.0525C83.1805 25.068 83.4085 24.704 83.7365 24.456C84.0725 24.208 84.5165 24.064 85.0685 24.024L85.4645 24L85.5485 25.032L84.8165 25.104C84.2965 25.152 83.9005 25.316 83.6285 25.596C83.3565 25.876 83.2205 26.26 83.2205 26.748V30H81.9965ZM89.7574 30V21.54H93.2614C94.1734 21.54 94.8774 21.756 95.3734 22.188C95.8694 22.62 96.1174 23.232 96.1174 24.024C96.1174 24.536 96.0054 24.976 95.7814 25.344C95.5574 25.712 95.2294 25.992 94.7974 26.184C94.3734 26.376 93.8614 26.472 93.2614 26.472L93.3694 26.304H93.6814C94.0014 26.304 94.2774 26.384 94.5094 26.544C94.7494 26.704 94.9654 26.96 95.1574 27.312L96.6214 30H95.2534L93.7894 27.3C93.6774 27.092 93.5534 26.932 93.4174 26.82C93.2894 26.7 93.1374 26.62 92.9614 26.58C92.7934 26.532 92.5934 26.508 92.3614 26.508H91.0054V30H89.7574ZM91.0054 25.572H93.0574C93.6654 25.572 94.1254 25.444 94.4374 25.188C94.7494 24.932 94.9054 24.552 94.9054 24.048C94.9054 23.552 94.7494 23.176 94.4374 22.92C94.1254 22.664 93.6654 22.536 93.0574 22.536H91.0054V25.572ZM99.5834 30.108C99.1754 30.108 98.8074 30.028 98.4794 29.868C98.1594 29.708 97.9074 29.492 97.7234 29.22C97.5394 28.948 97.4474 28.64 97.4474 28.296C97.4474 27.864 97.5554 27.524 97.7714 27.276C97.9954 27.02 98.3594 26.84 98.8634 26.736C99.3754 26.624 100.063 26.568 100.927 26.568H101.491V27.312H100.939C100.507 27.312 100.143 27.328 99.8474 27.36C99.5514 27.392 99.3154 27.444 99.1394 27.516C98.9634 27.58 98.8354 27.672 98.7554 27.792C98.6834 27.912 98.6474 28.056 98.6474 28.224C98.6474 28.528 98.7514 28.776 98.9594 28.968C99.1674 29.152 99.4554 29.244 99.8234 29.244C100.119 29.244 100.379 29.176 100.603 29.04C100.827 28.896 101.003 28.704 101.131 28.464C101.267 28.224 101.335 27.948 101.335 27.636V26.256C101.335 25.8 101.239 25.472 101.047 25.272C100.855 25.072 100.539 24.972 100.099 24.972C99.7634 24.972 99.4274 25.024 99.0914 25.128C98.7554 25.224 98.4114 25.38 98.0594 25.596L97.6874 24.744C97.8954 24.6 98.1354 24.476 98.4074 24.372C98.6794 24.268 98.9634 24.188 99.2594 24.132C99.5634 24.068 99.8554 24.036 100.135 24.036C100.671 24.036 101.111 24.12 101.455 24.288C101.807 24.456 102.067 24.712 102.235 25.056C102.403 25.4 102.487 25.844 102.487 26.388V30H101.347V28.692H101.455C101.391 28.988 101.271 29.244 101.095 29.46C100.927 29.668 100.715 29.828 100.459 29.94C100.203 30.052 99.9114 30.108 99.5834 30.108ZM106.653 30.108C105.925 30.108 105.377 29.92 105.009 29.544C104.649 29.168 104.469 28.624 104.469 27.912V25.08H103.329V24.144H104.469V22.38H105.681V24.144H107.493V25.08H105.681V27.816C105.681 28.24 105.769 28.56 105.945 28.776C106.129 28.992 106.425 29.1 106.833 29.1C106.953 29.1 107.073 29.084 107.193 29.052C107.321 29.02 107.445 28.988 107.565 28.956L107.757 29.868C107.637 29.94 107.469 29.996 107.253 30.036C107.045 30.084 106.845 30.108 106.653 30.108ZM111.229 30.108C110.589 30.108 110.037 29.988 109.573 29.748C109.117 29.5 108.761 29.152 108.505 28.704C108.257 28.248 108.133 27.708 108.133 27.084C108.133 26.476 108.257 25.944 108.505 25.488C108.753 25.032 109.093 24.676 109.525 24.42C109.957 24.164 110.449 24.036 111.001 24.036C111.545 24.036 112.009 24.156 112.393 24.396C112.785 24.628 113.085 24.96 113.293 25.392C113.501 25.824 113.605 26.34 113.605 26.94V27.348H109.093V26.604H112.789L112.585 26.772C112.585 26.172 112.453 25.708 112.189 25.38C111.925 25.052 111.545 24.888 111.049 24.888C110.673 24.888 110.353 24.976 110.089 25.152C109.833 25.328 109.637 25.572 109.501 25.884C109.365 26.196 109.297 26.56 109.297 26.976V27.048C109.297 27.512 109.369 27.904 109.513 28.224C109.665 28.536 109.885 28.772 110.173 28.932C110.461 29.092 110.817 29.172 111.241 29.172C111.577 29.172 111.905 29.12 112.225 29.016C112.553 28.904 112.861 28.732 113.149 28.5L113.509 29.34C113.245 29.58 112.905 29.768 112.489 29.904C112.073 30.04 111.653 30.108 111.229 30.108Z" fill="#6D6B77"/>
</g>
<g id="Number">
<g id="Number_2">
<path d="M23.912 75L20.336 69.624C20.128 69.288 19.904 69.016 19.664 68.808C19.44 68.6 19.184 68.456 18.896 68.376C18.624 68.28 18.296 68.232 17.912 68.232H14.504V65.808H19.208C19.976 65.808 20.608 65.72 21.104 65.544C21.6 65.352 21.984 65.064 22.256 64.68C22.544 64.296 22.728 63.808 22.808 63.216L23.216 63.936H14.504V61.824H23.216L22.76 62.496C22.632 61.728 22.288 61.152 21.728 60.768C21.168 60.384 20.368 60.192 19.328 60.192H14.504V58.08H27.92V60.192H23.624L23.912 59.52C24.456 59.808 24.88 60.192 25.184 60.672C25.488 61.136 25.672 61.68 25.736 62.304L25.184 61.824H27.92V63.936H25.256L25.784 63.072C25.8 64.096 25.576 64.984 25.112 65.736C24.648 66.488 23.984 67.072 23.12 67.488C22.272 67.888 21.248 68.088 20.048 68.088V67.848H20.72C21.2 67.848 21.632 67.912 22.016 68.04C22.4 68.152 22.76 68.352 23.096 68.64C23.432 68.912 23.752 69.28 24.056 69.744L27.608 75H23.912ZM35.5906 75.24C33.6226 75.24 32.0786 74.816 30.9586 73.968C29.8546 73.12 29.3026 71.944 29.3026 70.44C29.3026 69.64 29.4626 68.936 29.7826 68.328C30.1186 67.704 30.5746 67.2 31.1506 66.816C31.7266 66.432 32.3826 66.192 33.1186 66.096V66.6C32.4466 66.456 31.8546 66.192 31.3426 65.808C30.8306 65.408 30.4306 64.92 30.1426 64.344C29.8706 63.752 29.7346 63.104 29.7346 62.4C29.7346 60.976 30.2626 59.864 31.3186 59.064C32.3746 58.248 33.8066 57.84 35.6146 57.84C37.4066 57.84 38.8306 58.248 39.8866 59.064C40.9426 59.864 41.4706 60.976 41.4706 62.4C41.4706 63.104 41.3266 63.752 41.0386 64.344C40.7666 64.936 40.3746 65.424 39.8626 65.808C39.3666 66.192 38.7826 66.448 38.1106 66.576V66.096C38.8626 66.192 39.5186 66.44 40.0786 66.84C40.6386 67.224 41.0786 67.728 41.3986 68.352C41.7186 68.96 41.8786 69.656 41.8786 70.44C41.8786 71.944 41.3186 73.12 40.1986 73.968C39.0946 74.816 37.5586 75.24 35.5906 75.24ZM35.5906 72.84C36.7266 72.84 37.5826 72.624 38.1586 72.192C38.7346 71.744 39.0226 71.088 39.0226 70.224C39.0226 69.36 38.7346 68.712 38.1586 68.28C37.5826 67.848 36.7266 67.632 35.5906 67.632C34.4706 67.632 33.6146 67.848 33.0226 68.28C32.4466 68.712 32.1586 69.36 32.1586 70.224C32.1586 71.088 32.4466 71.744 33.0226 72.192C33.6146 72.624 34.4706 72.84 35.5906 72.84ZM35.5906 65.232C36.5346 65.232 37.2706 65.008 37.7986 64.56C38.3426 64.112 38.6146 63.496 38.6146 62.712C38.6146 61.944 38.3426 61.344 37.7986 60.912C37.2706 60.464 36.5346 60.24 35.5906 60.24C34.6466 60.24 33.9106 60.464 33.3826 60.912C32.8546 61.344 32.5906 61.952 32.5906 62.736C32.5906 63.504 32.8546 64.112 33.3826 64.56C33.9106 65.008 34.6466 65.232 35.5906 65.232ZM50.6053 75.24C49.2133 75.24 48.0213 74.912 47.0293 74.256C46.0533 73.584 45.3093 72.624 44.7973 71.376C44.2853 70.128 44.0293 68.616 44.0293 66.84C44.0293 64.92 44.3173 63.296 44.8933 61.968C45.4693 60.624 46.3013 59.6 47.3893 58.896C48.4773 58.192 49.7813 57.84 51.3013 57.84C51.8933 57.84 52.4853 57.92 53.0773 58.08C53.6853 58.224 54.2533 58.44 54.7812 58.728C55.3253 59 55.8053 59.336 56.2213 59.736L55.2133 62.04C54.6213 61.496 53.9893 61.096 53.3173 60.84C52.6453 60.568 51.9573 60.432 51.2533 60.432C50.5653 60.432 49.9493 60.56 49.4053 60.816C48.8773 61.056 48.4293 61.424 48.0613 61.92C47.6933 62.4 47.4133 63.008 47.2213 63.744C47.0453 64.464 46.9573 65.304 46.9573 66.264V68.064H46.6693C46.7973 67.248 47.0613 66.552 47.4613 65.976C47.8773 65.384 48.4053 64.936 49.0453 64.632C49.6853 64.312 50.3973 64.152 51.1813 64.152C52.1573 64.152 53.0213 64.384 53.7733 64.848C54.5253 65.312 55.1172 65.952 55.5493 66.768C55.9813 67.584 56.1973 68.52 56.1973 69.576C56.1973 70.664 55.9573 71.64 55.4773 72.504C55.0133 73.352 54.3573 74.024 53.5093 74.52C52.6773 75 51.7093 75.24 50.6053 75.24ZM50.4373 72.792C51.0133 72.792 51.5173 72.664 51.9493 72.408C52.3973 72.152 52.7413 71.792 52.9813 71.328C53.2213 70.848 53.3413 70.304 53.3413 69.696C53.3413 69.072 53.2213 68.528 52.9813 68.064C52.7413 67.6 52.3973 67.24 51.9493 66.984C51.5173 66.712 51.0133 66.576 50.4373 66.576C49.8613 66.576 49.3573 66.712 48.9253 66.984C48.4933 67.24 48.1493 67.6 47.8933 68.064C47.6533 68.528 47.5333 69.072 47.5333 69.696C47.5333 70.304 47.6533 70.848 47.8933 71.328C48.1493 71.792 48.4933 72.152 48.9253 72.408C49.3573 72.664 49.8613 72.792 50.4373 72.792Z" fill="black"/>
<path d="M58.9479 76.704L56.6919 76.032L62.9079 56.76L65.1639 57.432L58.9479 76.704ZM73.8929 75.24C72.6609 75.24 71.5409 75.04 70.5329 74.64C69.5409 74.224 68.6849 73.632 67.9649 72.864C67.2609 72.096 66.7169 71.176 66.3329 70.104C65.9489 69.032 65.7569 67.84 65.7569 66.528C65.7569 65.2 65.9489 64.008 66.3329 62.952C66.7169 61.88 67.2609 60.968 67.9649 60.216C68.6849 59.448 69.5409 58.864 70.5329 58.464C71.5409 58.048 72.6609 57.84 73.8929 57.84C75.1249 57.84 76.2369 58.048 77.2289 58.464C78.2369 58.864 79.0929 59.44 79.7969 60.192C80.5169 60.944 81.0689 61.856 81.4529 62.928C81.8369 63.984 82.0289 65.176 82.0289 66.504C82.0289 67.832 81.8369 69.032 81.4529 70.104C81.0689 71.176 80.5169 72.096 79.7969 72.864C79.0929 73.632 78.2369 74.224 77.2289 74.64C76.2369 75.04 75.1249 75.24 73.8929 75.24ZM73.8929 72.6C74.9329 72.6 75.8129 72.36 76.5329 71.88C77.2689 71.4 77.8289 70.704 78.2129 69.792C78.6129 68.88 78.8129 67.792 78.8129 66.528C78.8129 65.248 78.6209 64.16 78.2369 63.264C77.8529 62.352 77.2929 61.664 76.5569 61.2C75.8209 60.72 74.9329 60.48 73.8929 60.48C72.8689 60.48 71.9889 60.72 71.2529 61.2C70.5169 61.664 69.9489 62.352 69.5489 63.264C69.1649 64.16 68.9729 65.248 68.9729 66.528C68.9729 67.792 69.1649 68.88 69.5489 69.792C69.9489 70.704 70.5169 71.4 71.2529 71.88C71.9889 72.36 72.8689 72.6 73.8929 72.6ZM84.8647 75V63.264H87.7927V66.096H87.5527C87.7767 65.136 88.2167 64.408 88.8727 63.912C89.5287 63.4 90.4007 63.104 91.4887 63.024L92.4007 62.952L92.5927 65.496L90.8647 65.664C89.8887 65.76 89.1527 66.064 88.6567 66.576C88.1607 67.072 87.9127 67.776 87.9127 68.688V75H84.8647ZM98.5876 75.24C97.5636 75.24 96.6596 74.992 95.8756 74.496C95.1076 74 94.5076 73.296 94.0756 72.384C93.6436 71.456 93.4276 70.368 93.4276 69.12C93.4276 67.856 93.6436 66.776 94.0756 65.88C94.5076 64.968 95.1076 64.264 95.8756 63.768C96.6596 63.272 97.5636 63.024 98.5876 63.024C99.5636 63.024 100.412 63.264 101.132 63.744C101.868 64.224 102.364 64.856 102.62 65.64H102.356V58.08H105.356V75H102.428V72.504H102.644C102.404 73.336 101.916 74 101.18 74.496C100.444 74.992 99.5796 75.24 98.5876 75.24ZM99.4276 72.96C100.324 72.96 101.044 72.64 101.588 72C102.132 71.344 102.404 70.384 102.404 69.12C102.404 67.84 102.132 66.888 101.588 66.264C101.044 65.624 100.324 65.304 99.4276 65.304C98.5316 65.304 97.8116 65.624 97.2676 66.264C96.7236 66.888 96.4516 67.84 96.4516 69.12C96.4516 70.384 96.7236 71.344 97.2676 72C97.8116 72.64 98.5316 72.96 99.4276 72.96ZM114.25 75.24C112.922 75.24 111.778 74.992 110.818 74.496C109.858 74 109.114 73.296 108.586 72.384C108.074 71.472 107.818 70.392 107.818 69.144C107.818 67.928 108.066 66.864 108.562 65.952C109.074 65.04 109.77 64.328 110.65 63.816C111.546 63.288 112.562 63.024 113.698 63.024C114.818 63.024 115.778 63.264 116.578 63.744C117.378 64.224 117.994 64.904 118.426 65.784C118.874 66.664 119.098 67.712 119.098 68.928V69.816H110.242V68.088H116.986L116.602 68.448C116.602 67.36 116.362 66.528 115.882 65.952C115.402 65.36 114.714 65.064 113.818 65.064C113.146 65.064 112.57 65.224 112.09 65.544C111.626 65.848 111.266 66.288 111.01 66.864C110.77 67.424 110.65 68.096 110.65 68.88V69.048C110.65 69.928 110.786 70.656 111.058 71.232C111.33 71.808 111.738 72.24 112.282 72.528C112.826 72.816 113.498 72.96 114.298 72.96C114.954 72.96 115.61 72.864 116.266 72.672C116.922 72.464 117.522 72.144 118.066 71.712L118.906 73.728C118.346 74.192 117.642 74.56 116.794 74.832C115.946 75.104 115.098 75.24 114.25 75.24ZM121.474 75V63.264H124.402V66.096H124.162C124.386 65.136 124.826 64.408 125.482 63.912C126.138 63.4 127.01 63.104 128.098 63.024L129.01 62.952L129.202 65.496L127.474 65.664C126.498 65.76 125.762 66.064 125.266 66.576C124.77 67.072 124.522 67.776 124.522 68.688V75H121.474Z" fill="#444050"/>
</g>
<g id="Percentage">
<g id="Text">
<path d="M18.4 94.5L16.92 92.27C16.8133 92.09 16.7 91.9467 16.58 91.84C16.46 91.7333 16.3267 91.6567 16.18 91.61C16.0333 91.5633 15.8533 91.54 15.64 91.54H14.21V90.88H16.23C16.61 90.88 16.9267 90.83 17.18 90.73C17.4333 90.6233 17.6233 90.4667 17.75 90.26C17.8833 90.0467 17.95 89.7867 17.95 89.48L18.08 89.65H14.21V89.05H18.08L17.93 89.19C17.8833 88.8167 17.72 88.5333 17.44 88.34C17.1667 88.1467 16.79 88.05 16.31 88.05H14.21V87.45H19.79V88.05H17.83L17.95 87.93C18.1833 88.0567 18.3667 88.2267 18.5 88.44C18.64 88.6467 18.7267 88.8967 18.76 89.19L18.58 89.05H19.79V89.65H18.61L18.78 89.43C18.7933 89.8367 18.71 90.1933 18.53 90.5C18.3567 90.8 18.1033 91.0333 17.77 91.2C17.4433 91.3667 17.0533 91.4533 16.6 91.46V91.41L16.74 91.43C16.8933 91.4367 17.0333 91.47 17.16 91.53C17.2867 91.5833 17.41 91.6667 17.53 91.78C17.65 91.8867 17.77 92.03 17.89 92.21L19.41 94.5H18.4ZM21.0761 94.5V93.77H22.8461V88.16L23.2961 88.19L21.4261 89.39L21.0461 88.74L23.0761 87.45H23.6961V93.77H25.3361V94.5H21.0761ZM28.9922 94.59C28.4522 94.59 27.9955 94.4533 27.6222 94.18C27.2555 93.9 26.9789 93.4933 26.7922 92.96C26.6055 92.42 26.5122 91.7567 26.5122 90.97C26.5122 90.1833 26.6055 89.5233 26.7922 88.99C26.9789 88.45 27.2555 88.0433 27.6222 87.77C27.9955 87.4967 28.4522 87.36 28.9922 87.36C29.5389 87.36 29.9955 87.4967 30.3622 87.77C30.7289 88.0433 31.0055 88.4467 31.1922 88.98C31.3789 89.5133 31.4722 90.1733 31.4722 90.96C31.4722 91.7467 31.3789 92.41 31.1922 92.95C31.0055 93.49 30.7255 93.9 30.3522 94.18C29.9855 94.4533 29.5322 94.59 28.9922 94.59ZM28.9922 93.85C29.5455 93.85 29.9555 93.6167 30.2222 93.15C30.4889 92.6767 30.6222 91.9467 30.6222 90.96C30.6222 89.9733 30.4889 89.25 30.2222 88.79C29.9622 88.33 29.5522 88.1 28.9922 88.1C28.4389 88.1 28.0289 88.3333 27.7622 88.8C27.4955 89.26 27.3622 89.9833 27.3622 90.97C27.3622 91.95 27.4955 92.6767 27.7622 93.15C28.0289 93.6167 28.4389 93.85 28.9922 93.85ZM35.7783 94.5V93.01H32.5083V92.37L35.8283 87.45H36.6183V92.29H37.6283V93.01H36.6183V94.5H35.7783ZM35.7883 92.29V88.5H35.9383L33.2483 92.48L33.2083 92.29H35.7883Z" fill="#737682"/>
<path d="M14 91.59H37.9883V91.95H14V91.59Z" fill="#737682"/>
</g>
<g id="Badge-percentage 2">
<path id="Percentage_2" d="M148.44 94.5V93.6H150.17V88.33L150.71 88.36L148.79 89.56L148.35 88.76L150.46 87.45H151.23V93.6H152.84V94.5H148.44ZM156.396 94.59C155.59 94.59 154.96 94.4167 154.506 94.07C154.053 93.7233 153.826 93.24 153.826 92.62C153.826 92.2933 153.89 92.0067 154.016 91.76C154.15 91.5133 154.33 91.31 154.556 91.15C154.79 90.99 155.053 90.89 155.346 90.85V90.95C155.086 90.8833 154.853 90.77 154.646 90.61C154.44 90.45 154.28 90.2533 154.166 90.02C154.053 89.7867 153.996 89.53 153.996 89.25C153.996 88.6567 154.213 88.1933 154.646 87.86C155.08 87.5267 155.663 87.36 156.396 87.36C157.13 87.36 157.713 87.5267 158.146 87.86C158.58 88.1933 158.796 88.6567 158.796 89.25C158.796 89.53 158.74 89.79 158.626 90.03C158.513 90.2633 158.353 90.46 158.146 90.62C157.946 90.7733 157.713 90.88 157.446 90.94V90.85C157.746 90.89 158.01 90.99 158.236 91.15C158.463 91.31 158.64 91.5167 158.766 91.77C158.9 92.0167 158.966 92.3 158.966 92.62C158.966 93.24 158.74 93.7233 158.286 94.07C157.833 94.4167 157.203 94.59 156.396 94.59ZM156.396 93.74C156.916 93.74 157.31 93.64 157.576 93.44C157.843 93.2333 157.976 92.9367 157.976 92.55C157.976 92.1567 157.843 91.86 157.576 91.66C157.31 91.46 156.916 91.36 156.396 91.36C155.883 91.36 155.49 91.46 155.216 91.66C154.95 91.86 154.816 92.1567 154.816 92.55C154.816 92.9367 154.95 93.2333 155.216 93.44C155.49 93.64 155.883 93.74 156.396 93.74ZM156.396 90.5C156.843 90.5 157.19 90.4 157.436 90.2C157.683 89.9933 157.806 89.71 157.806 89.35C157.806 88.9967 157.683 88.72 157.436 88.52C157.19 88.3133 156.843 88.21 156.396 88.21C155.956 88.21 155.61 88.3133 155.356 88.52C155.11 88.72 154.986 88.9967 154.986 89.35C154.986 89.71 155.11 89.9933 155.356 90.2C155.61 90.4 155.956 90.5 156.396 90.5ZM162.423 94.77L161.733 94.36L165.863 87.18L166.543 87.59L162.423 94.77ZM161.663 91.67C161.303 91.67 160.989 91.5833 160.723 91.41C160.456 91.2367 160.249 90.99 160.103 90.67C159.963 90.3433 159.893 89.9567 159.893 89.51C159.893 88.8367 160.053 88.31 160.373 87.93C160.693 87.55 161.123 87.36 161.663 87.36C162.023 87.36 162.336 87.4467 162.603 87.62C162.869 87.7867 163.073 88.03 163.213 88.35C163.359 88.67 163.433 89.0567 163.433 89.51C163.433 89.9567 163.359 90.3433 163.213 90.67C163.073 90.99 162.869 91.2367 162.603 91.41C162.343 91.5833 162.029 91.67 161.663 91.67ZM161.663 90.96C161.943 90.96 162.163 90.84 162.323 90.6C162.489 90.36 162.573 89.9967 162.573 89.51C162.573 89.0233 162.489 88.6633 162.323 88.43C162.163 88.19 161.943 88.07 161.663 88.07C161.383 88.07 161.159 88.1867 160.993 88.42C160.833 88.6533 160.753 89.0167 160.753 89.51C160.753 90.0033 160.833 90.37 160.993 90.61C161.159 90.8433 161.383 90.96 161.663 90.96ZM166.613 94.59C166.253 94.59 165.939 94.5067 165.673 94.34C165.406 94.1667 165.203 93.92 165.063 93.6C164.923 93.2733 164.853 92.8833 164.853 92.43C164.853 91.7567 165.009 91.23 165.323 90.85C165.643 90.47 166.073 90.28 166.613 90.28C166.979 90.28 167.293 90.3667 167.553 90.54C167.819 90.7133 168.023 90.96 168.163 91.28C168.309 91.6 168.383 91.9833 168.383 92.43C168.383 92.8833 168.313 93.2733 168.173 93.6C168.033 93.92 167.829 94.1667 167.563 94.34C167.296 94.5067 166.979 94.59 166.613 94.59ZM166.613 93.88C166.893 93.88 167.113 93.7633 167.273 93.53C167.439 93.29 167.523 92.9233 167.523 92.43C167.523 91.9433 167.439 91.5833 167.273 91.35C167.113 91.1167 166.893 91 166.613 91C166.333 91 166.109 91.1167 165.943 91.35C165.783 91.5767 165.703 91.9367 165.703 92.43C165.703 92.9233 165.783 93.29 165.943 93.53C166.109 93.7633 166.333 93.88 166.613 93.88ZM175.599 94.59C175.092 94.59 174.636 94.5067 174.229 94.34C173.822 94.1733 173.472 93.9333 173.179 93.62C172.886 93.3 172.662 92.9167 172.509 92.47C172.356 92.0233 172.279 91.5233 172.279 90.97C172.279 90.41 172.356 89.91 172.509 89.47C172.662 89.0233 172.882 88.6433 173.169 88.33C173.462 88.0167 173.812 87.7767 174.219 87.61C174.632 87.4433 175.092 87.36 175.599 87.36C176.112 87.36 176.572 87.4433 176.979 87.61C177.392 87.7767 177.742 88.0167 178.029 88.33C178.322 88.6433 178.546 89.0233 178.699 89.47C178.852 89.91 178.929 90.4067 178.929 90.96C178.929 91.52 178.852 92.0233 178.699 92.47C178.546 92.9167 178.322 93.3 178.029 93.62C177.742 93.9333 177.392 94.1733 176.979 94.34C176.572 94.5067 176.112 94.59 175.599 94.59ZM175.599 93.66C176.072 93.66 176.472 93.5567 176.799 93.35C177.126 93.1367 177.376 92.83 177.549 92.43C177.729 92.03 177.819 91.5433 177.819 90.97C177.819 90.3967 177.732 89.91 177.559 89.51C177.386 89.11 177.132 88.8067 176.799 88.6C176.472 88.3933 176.072 88.29 175.599 88.29C175.139 88.29 174.742 88.3933 174.409 88.6C174.082 88.8067 173.829 89.11 173.649 89.51C173.476 89.91 173.389 90.3967 173.389 90.97C173.389 91.5367 173.476 92.0233 173.649 92.43C173.829 92.83 174.082 93.1367 174.409 93.35C174.742 93.5567 175.139 93.66 175.599 93.66ZM180.658 94.5V90.39H179.678V89.58H180.948L180.658 89.86V89.53C180.658 88.8567 180.835 88.35 181.188 88.01C181.548 87.6633 182.091 87.47 182.818 87.43L183.318 87.4L183.388 88.22L182.838 88.25C182.591 88.2633 182.381 88.31 182.208 88.39C182.041 88.47 181.915 88.59 181.828 88.75C181.748 88.91 181.708 89.12 181.708 89.38V89.71L181.558 89.58H183.148V90.39H181.708V94.5H180.658ZM184.213 94.5V90.39H183.233V89.58H184.503L184.213 89.86V89.53C184.213 88.8567 184.389 88.35 184.743 88.01C185.103 87.6633 185.646 87.47 186.373 87.43L186.873 87.4L186.943 88.22L186.393 88.25C186.146 88.2633 185.936 88.31 185.763 88.39C185.596 88.47 185.469 88.59 185.383 88.75C185.303 88.91 185.263 89.12 185.263 89.38V89.71L185.113 89.58H186.703V90.39H185.263V94.5H184.213Z" fill="#24B364"/>
<g id="Icon_2">
<rect x="191.4" y="84" width="14" height="14" rx="7" fill="#CBF2DC"/>
<g id="trending_down">
<path id="Vector_2" d="M200.421 93.146L201.021 92.546L198.987 90.5126L197.617 91.8835C197.454 92.046 197.192 92.046 197.029 91.8835L194.529 89.3793C194.367 89.2168 194.367 88.9543 194.529 88.7918C194.692 88.6293 194.954 88.6293 195.117 88.7918L197.321 91.0001L198.692 89.6293C198.854 89.4668 199.117 89.4668 199.279 89.6293L201.608 91.9543L202.208 91.3543C202.337 91.2251 202.562 91.3168 202.562 91.5001V93.2876C202.562 93.4043 202.471 93.496 202.354 93.496H200.567C200.383 93.5001 200.292 93.2751 200.421 93.146V93.146Z" fill="#24B364"/>
</g>
</g>
</g>
</g>
</g>
</g>
</svg>
