<svg width="444" height="194" viewBox="0 0 444 194" fill="none" xmlns="http://www.w3.org/2000/svg">
<g filter="url(#filter0_d_7234_33607)">
<rect width="444" height="193.797" rx="14.058" fill="white" shape-rendering="crispEdges"/>
<rect x="18.7422" y="18.7422" width="42.1741" height="42.1741" rx="9.37203" fill="#FEF2D2"/>
<path fill-rule="evenodd" clip-rule="evenodd" d="M45.318 42.0263C46.9355 42.0263 48.2468 43.3375 48.2468 44.955C48.2468 46.5726 46.9355 47.8838 45.318 47.8838C43.9533 47.8838 42.8066 46.9504 42.4815 45.6872H37.1717C36.8466 46.9504 35.6999 47.8838 34.3352 47.8838C32.7177 47.8838 31.4064 46.5726 31.4064 44.955C31.4064 43.3375 32.7177 42.0263 34.3352 42.0263C35.6999 42.0263 36.8466 42.9597 37.1717 44.2229H42.4815C42.8066 42.9597 43.9533 42.0263 45.318 42.0263ZM34.3352 43.4907C33.5264 43.4907 32.8708 44.1463 32.8708 44.955C32.8708 45.7638 33.5264 46.4194 34.3352 46.4194C35.1439 46.4194 35.7996 45.7638 35.7996 44.955C35.7996 44.1463 35.1439 43.4907 34.3352 43.4907ZM45.318 43.4907C44.5093 43.4907 43.8536 44.1463 43.8536 44.955C43.8536 45.7638 44.5093 46.4194 45.318 46.4194C46.1268 46.4194 46.7824 45.7638 46.7824 44.955C46.7824 44.1463 46.1268 43.4907 45.318 43.4907Z" fill="#BD8125"/>
<path fill-rule="evenodd" clip-rule="evenodd" d="M44.2197 32.5078C44.6241 32.5078 44.9519 32.8356 44.9519 33.24V43.0516C44.9518 43.4559 44.624 43.7838 44.2197 43.7838C43.8155 43.7838 43.4877 43.4559 43.4875 43.0516V41.2941H30.3081V44.2229H32.1386C32.543 44.2229 32.8708 44.5507 32.8708 44.955C32.8708 45.3594 32.543 45.6872 32.1386 45.6872H30.3081C29.9198 45.6872 29.5474 45.5328 29.2728 45.2582C28.9981 44.9836 28.8438 44.6112 28.8438 44.2229V33.9722C28.8438 33.5838 28.9981 33.2115 29.2728 32.9368C29.5474 32.6622 29.9198 32.5078 30.3081 32.5078H44.2197ZM30.3081 39.8297H43.4875V33.9722H30.3081V39.8297Z" fill="#BD8125"/>
<path d="M47.6326 33.9666C48.5282 33.9683 49.3271 34.5176 49.6575 35.3437L50.7494 38.0752C50.7609 38.1018 50.7704 38.1293 50.7787 38.1574C50.7818 38.1679 50.7847 38.1783 50.7873 38.1888C50.7904 38.2014 50.7934 38.214 50.7959 38.2267C50.798 38.2379 50.7992 38.2492 50.8009 38.2604C50.8027 38.2734 50.8047 38.2864 50.8059 38.2997C50.8071 38.3138 50.8076 38.3278 50.808 38.3419C50.8083 38.3497 50.8094 38.3576 50.8094 38.3655V44.223C50.8094 44.6113 50.655 44.9837 50.3804 45.2583C50.1058 45.5329 49.7334 45.6874 49.3451 45.6874H47.5146C47.1103 45.6874 46.7825 45.3594 46.7824 44.955C46.7824 44.5507 47.1102 44.223 47.5146 44.223H49.3451V39.0977H44.2197C43.8154 39.0977 43.4876 38.7698 43.4875 38.3655C43.4875 37.9611 43.8154 37.6333 44.2197 37.6333H48.9954L48.2976 35.8879C48.1869 35.6114 47.9217 35.4315 47.6297 35.431C47.0612 35.4299 46.4992 35.4321 45.9351 35.4338C45.4882 35.4352 45.0396 35.4367 44.5858 35.4367C44.1815 35.4367 43.8537 35.1088 43.8536 34.7045C43.8536 34.3001 44.1815 33.9723 44.5858 33.9723C45.0269 33.9723 45.4735 33.9709 45.9215 33.9695C46.4926 33.9677 47.0659 33.9655 47.6326 33.9666Z" fill="#BD8125"/>
<path d="M73.9613 34.7422L74.5189 31.9212H73.3545V30.6091H74.7649L75.4374 27.1813H73.6989V25.8692H75.667L76.2082 23.1794H77.6351L77.0939 25.8692H79.1604L79.7017 23.1794H81.1286L80.5873 25.8692H81.7518V27.1813H80.3413L79.6689 30.6091H81.4074V31.9212H79.4393L78.8816 34.7422H77.4547L78.0124 31.9212H75.9458L75.3882 34.7422H73.9613ZM76.1918 30.6091H78.242L78.9144 27.1813H76.8643L76.1918 30.6091ZM89.2899 34.9062C88.0106 34.9062 86.9281 34.6656 86.0425 34.1846C85.1677 33.7035 84.5008 33.0201 84.0415 32.1344C83.5823 31.2488 83.3527 30.1991 83.3527 28.9854C83.3527 27.7608 83.5878 26.7057 84.0579 25.82C84.5281 24.9234 85.206 24.2346 86.0917 23.7535C86.9773 23.2614 88.0379 23.0154 89.2735 23.0154C89.8202 23.0154 90.3395 23.0701 90.8316 23.1794C91.3345 23.2778 91.7992 23.4255 92.2257 23.6223C92.6521 23.8191 93.0184 24.0596 93.3245 24.3439L92.6193 25.984C92.1054 25.5795 91.5806 25.2897 91.0448 25.1148C90.509 24.9398 89.9186 24.8524 89.2735 24.8524C88.0489 24.8524 87.1195 25.2077 86.4853 25.9184C85.8621 26.6291 85.5504 27.6515 85.5504 28.9854C85.5504 30.3303 85.873 31.3526 86.5181 32.0524C87.1632 32.7522 88.1199 33.1021 89.3883 33.1021C89.8256 33.1021 90.2685 33.0583 90.7168 32.9709C91.1651 32.8834 91.6024 32.7631 92.0289 32.6101L91.6188 33.5449V30.0515H88.9619V28.4934H93.3737V34.0533C93.0239 34.2283 92.6193 34.3814 92.1601 34.5126C91.7118 34.6328 91.2416 34.7258 90.7496 34.7914C90.2575 34.8679 89.771 34.9062 89.2899 34.9062ZM95.8065 34.7422V23.1794H100.825C102.094 23.1794 103.072 23.4856 103.761 24.0979C104.45 24.6993 104.794 25.5467 104.794 26.6401C104.794 27.3508 104.636 27.9631 104.319 28.477C104.012 28.9909 103.564 29.3845 102.974 29.6579C102.383 29.9312 101.667 30.0679 100.825 30.0679L100.973 29.8219H101.514C101.962 29.8219 102.35 29.9312 102.679 30.1499C103.017 30.3686 103.313 30.713 103.564 31.1832L105.499 34.7422H103.187L101.186 31.052C101.055 30.8114 100.907 30.6255 100.743 30.4943C100.579 30.3522 100.393 30.2538 100.186 30.1991C99.9778 30.1444 99.7373 30.1171 99.4639 30.1171H97.9058V34.7422H95.8065ZM97.9058 28.559H100.464C101.219 28.559 101.787 28.4059 102.17 28.0998C102.564 27.7827 102.761 27.3125 102.761 26.6893C102.761 26.077 102.564 25.6177 102.17 25.3116C101.787 24.9945 101.219 24.836 100.464 24.836H97.9058V28.559ZM110.549 34.7422L105.399 23.1794H107.646L111.828 32.8725H111.123L115.288 23.1794H117.453L112.304 34.7422H110.549ZM117.57 31.1668V29.5267H122.457V31.1668H117.57ZM128.584 34.9062C128.082 34.9062 127.584 34.8515 127.092 34.7422C126.611 34.6328 126.157 34.4798 125.731 34.283C125.315 34.0861 124.954 33.8565 124.648 33.5941L125.337 31.9868C125.84 32.3695 126.359 32.6593 126.895 32.8561C127.431 33.0419 127.983 33.1349 128.552 33.1349C129.241 33.1349 129.776 32.9599 130.159 32.6101C130.553 32.2492 130.749 31.7681 130.749 31.1668C130.749 30.5545 130.564 30.0624 130.192 29.6907C129.82 29.308 129.312 29.1166 128.667 29.1166C128.196 29.1166 127.775 29.2096 127.404 29.3954C127.032 29.5704 126.693 29.8437 126.387 30.2155H124.976V23.1794H132.078V24.918H127.026V28.5918H126.485C126.769 28.2091 127.141 27.9139 127.6 27.7061C128.071 27.4984 128.59 27.3945 129.159 27.3945C129.891 27.3945 130.525 27.5531 131.061 27.8701C131.608 28.1763 132.029 28.6082 132.324 29.1658C132.63 29.7125 132.783 30.3522 132.783 31.0848C132.783 31.8392 132.614 32.5062 132.275 33.0857C131.936 33.6543 131.449 34.1025 130.815 34.4306C130.192 34.7477 129.448 34.9062 128.584 34.9062ZM138.091 34.9062C137.566 34.9062 137.052 34.8515 136.549 34.7422C136.057 34.6438 135.598 34.4962 135.171 34.2994C134.745 34.1025 134.373 33.8675 134.056 33.5941L134.745 31.9868C135.259 32.3804 135.784 32.6702 136.319 32.8561C136.855 33.0419 137.424 33.1349 138.025 33.1349C138.506 33.1349 138.911 33.0693 139.239 32.9381C139.567 32.8069 139.813 32.6101 139.977 32.3476C140.152 32.0852 140.239 31.7681 140.239 31.3964C140.239 30.8497 140.053 30.4451 139.682 30.1827C139.321 29.9093 138.79 29.7727 138.091 29.7727H136.237V28.0342H137.894C138.309 28.0342 138.665 27.9686 138.96 27.8373C139.255 27.6952 139.485 27.4984 139.649 27.2469C139.813 26.9954 139.895 26.6893 139.895 26.3284C139.895 25.8255 139.725 25.4428 139.386 25.1804C139.058 24.918 138.577 24.7867 137.943 24.7867C137.375 24.7867 136.844 24.8852 136.352 25.082C135.86 25.2678 135.39 25.5631 134.942 25.9676L134.253 24.3931C134.712 23.9558 135.286 23.6168 135.975 23.3763C136.664 23.1357 137.38 23.0154 138.124 23.0154C138.922 23.0154 139.605 23.1412 140.174 23.3927C140.742 23.6332 141.174 23.9831 141.469 24.4423C141.775 24.8906 141.929 25.4373 141.929 26.0824C141.929 26.7713 141.737 27.3672 141.355 27.8701C140.972 28.3622 140.447 28.6902 139.78 28.8542V28.6574C140.305 28.7449 140.753 28.9198 141.125 29.1822C141.497 29.4446 141.781 29.7781 141.978 30.1827C142.175 30.5873 142.273 31.052 142.273 31.5768C142.273 32.2547 142.103 32.8451 141.765 33.3481C141.426 33.8511 140.944 34.2392 140.321 34.5126C139.698 34.775 138.954 34.9062 138.091 34.9062ZM144.546 34.7422V33.1841L148.286 29.1986C148.625 28.8378 148.893 28.5043 149.089 28.1982C149.297 27.892 149.45 27.5968 149.549 27.3125C149.647 27.0282 149.696 26.7439 149.696 26.4597C149.696 25.913 149.521 25.4975 149.171 25.2132C148.832 24.9289 148.335 24.7867 147.679 24.7867C147.165 24.7867 146.662 24.8852 146.17 25.082C145.689 25.2678 145.224 25.5631 144.776 25.9676L144.071 24.3931C144.53 23.9776 145.104 23.6441 145.793 23.3927C146.482 23.1412 147.198 23.0154 147.941 23.0154C148.772 23.0154 149.472 23.1412 150.041 23.3927C150.609 23.6441 151.041 24.0104 151.336 24.4915C151.632 24.9726 151.779 25.5576 151.779 26.2464C151.779 26.5963 151.735 26.9408 151.648 27.2797C151.571 27.6077 151.446 27.9357 151.271 28.2638C151.107 28.5918 150.894 28.9307 150.631 29.2806C150.38 29.6196 150.073 29.9749 149.713 30.3467L146.629 33.5613V33.0037H152.222V34.7422H144.546ZM154.856 34.7422V33.0037H157.464V24.9508H158.481L155.447 26.7877L154.627 25.246L158.071 23.1794H159.563V33.0037H162.007V34.7422H154.856ZM164.215 34.7422V33.1841L167.954 29.1986C168.293 28.8378 168.561 28.5043 168.758 28.1982C168.966 27.892 169.119 27.5968 169.217 27.3125C169.315 27.0282 169.365 26.7439 169.365 26.4597C169.365 25.913 169.19 25.4975 168.84 25.2132C168.501 24.9289 168.003 24.7867 167.347 24.7867C166.833 24.7867 166.33 24.8852 165.838 25.082C165.357 25.2678 164.893 25.5631 164.444 25.9676L163.739 24.3931C164.198 23.9776 164.772 23.6441 165.461 23.3927C166.15 23.1412 166.866 23.0154 167.61 23.0154C168.441 23.0154 169.141 23.1412 169.709 23.3927C170.278 23.6441 170.71 24.0104 171.005 24.4915C171.3 24.9726 171.448 25.5576 171.448 26.2464C171.448 26.5963 171.404 26.9408 171.316 27.2797C171.24 27.6077 171.114 27.9357 170.939 28.2638C170.775 28.5918 170.562 28.9307 170.3 29.2806C170.048 29.6196 169.742 29.9749 169.381 30.3467L166.298 33.5613V33.0037H171.89V34.7422H164.215ZM177.657 34.9062C176.75 34.9062 175.979 34.6766 175.345 34.2174C174.721 33.7472 174.246 33.0693 173.918 32.1836C173.601 31.298 173.442 30.2155 173.442 28.9362C173.442 27.646 173.601 26.5635 173.918 25.6888C174.246 24.8031 174.721 24.1362 175.345 23.6879C175.979 23.2396 176.75 23.0154 177.657 23.0154C178.576 23.0154 179.347 23.2396 179.97 23.6879C180.604 24.1362 181.08 24.7977 181.397 25.6724C181.714 26.5471 181.872 27.6296 181.872 28.9198C181.872 30.1991 181.708 31.287 181.38 32.1836C181.063 33.0693 180.593 33.7472 179.97 34.2174C179.347 34.6766 178.576 34.9062 177.657 34.9062ZM177.657 33.1841C178.401 33.1841 178.947 32.8451 179.297 32.1672C179.658 31.4784 179.839 30.3959 179.839 28.9198C179.839 27.4547 179.658 26.3941 179.297 25.738C178.947 25.071 178.401 24.7375 177.657 24.7375C176.925 24.7375 176.378 25.071 176.017 25.738C175.656 26.3941 175.476 27.4601 175.476 28.9362C175.476 30.4014 175.656 31.4784 176.017 32.1672C176.378 32.8451 176.925 33.1841 177.657 33.1841Z" fill="black"/>
<path d="M73.7856 56.0859V46.175H80.0836V47.3559H75.2476V50.519H79.7884V51.6998H75.2476V56.0859H73.7856ZM84.3735 56.2125C83.6237 56.2125 82.977 56.0719 82.4335 55.7907C81.8993 55.5002 81.4822 55.0925 81.1823 54.5677C80.8918 54.0335 80.7465 53.4009 80.7465 52.6698C80.7465 51.9576 80.8918 51.3343 81.1823 50.8001C81.4728 50.2659 81.8711 49.8489 82.3772 49.5489C82.8833 49.249 83.4597 49.0991 84.1064 49.0991C84.7437 49.0991 85.2873 49.2397 85.7371 49.5208C86.1963 49.7926 86.5478 50.1816 86.7915 50.6876C87.0351 51.1937 87.157 51.7982 87.157 52.5011V52.9791H81.8711V52.1075H86.201L85.962 52.3043C85.962 51.6014 85.8074 51.0578 85.4981 50.6736C85.1888 50.2893 84.7437 50.0972 84.1626 50.0972C83.7221 50.0972 83.3472 50.2003 83.038 50.4065C82.7381 50.6127 82.5084 50.8985 82.3491 51.264C82.1898 51.6295 82.1101 52.056 82.1101 52.5433V52.6277C82.1101 53.1712 82.1945 53.6305 82.3632 54.0053C82.5412 54.3709 82.799 54.6473 83.1364 54.8348C83.4738 55.0222 83.8908 55.1159 84.3875 55.1159C84.7812 55.1159 85.1654 55.055 85.5403 54.9332C85.9245 54.802 86.2854 54.6005 86.6228 54.3287L87.0445 55.3127C86.7352 55.5939 86.3369 55.8141 85.8496 55.9735C85.3622 56.1328 84.8702 56.2125 84.3735 56.2125ZM91.3197 56.2125C90.7199 56.2125 90.1904 56.0719 89.7311 55.7907C89.2813 55.5002 88.9298 55.0878 88.6768 54.5536C88.4237 54.01 88.2972 53.3774 88.2972 52.6558C88.2972 51.9154 88.4237 51.2828 88.6768 50.7579C88.9298 50.2331 89.2813 49.8254 89.7311 49.5349C90.1904 49.2444 90.7199 49.0991 91.3197 49.0991C91.9195 49.0991 92.435 49.249 92.8661 49.5489C93.3066 49.8395 93.6018 50.2331 93.7517 50.7298H93.5971V46.175H95.017V56.0859H93.6252V54.5396H93.7658C93.6158 55.0456 93.3206 55.4533 92.8801 55.7626C92.449 56.0625 91.9289 56.2125 91.3197 56.2125ZM91.6852 55.1159C92.2663 55.1159 92.7349 54.9051 93.091 54.4833C93.4471 54.0616 93.6252 53.4524 93.6252 52.6558C93.6252 51.8498 93.4471 51.2406 93.091 50.8282C92.7349 50.4159 92.2663 50.2097 91.6852 50.2097C91.0948 50.2097 90.6215 50.4159 90.2653 50.8282C89.9092 51.2406 89.7311 51.8498 89.7311 52.6558C89.7311 53.4524 89.9092 54.0616 90.2653 54.4833C90.6215 54.9051 91.0948 55.1159 91.6852 55.1159ZM97.1653 56.0859V46.175H103.576V47.3559H98.5711V50.4627H103.281V51.6436H98.5711V54.9051H103.576V56.0859H97.1653ZM104.375 56.0859L107.51 52.1919V52.8948L104.558 49.2256H106.217L108.311 51.8966H107.805L109.9 49.2256H111.559L108.607 52.8666V52.234L111.742 56.0859H110.055L107.805 53.2462H108.283L106.048 56.0859H104.375Z" fill="#737682"/>
<rect x="346.824" y="18.7422" width="78.4301" height="27.372" rx="13.686" fill="#CBF2DC"/>
<path d="M363.994 37.5562C363.291 37.5562 362.653 37.4391 362.082 37.2048C361.51 36.9705 361.018 36.6284 360.606 36.1785C360.203 35.7287 359.893 35.1945 359.678 34.5759C359.462 33.948 359.354 33.2451 359.354 32.4672C359.354 31.6893 359.462 30.9911 359.678 30.3725C359.893 29.7446 360.203 29.2104 360.606 28.7699C361.009 28.3201 361.496 27.978 362.068 27.7437C362.639 27.5094 363.281 27.3922 363.994 27.3922C364.696 27.3922 365.334 27.5094 365.905 27.7437C366.477 27.978 366.965 28.3154 367.368 28.7559C367.78 29.1964 368.094 29.7306 368.309 30.3585C368.525 30.977 368.633 31.6753 368.633 32.4531C368.633 33.231 368.525 33.9339 368.309 34.5618C368.094 35.1898 367.78 35.7287 367.368 36.1785C366.965 36.6284 366.477 36.9705 365.905 37.2048C365.334 37.4391 364.696 37.5562 363.994 37.5562ZM363.994 36.291C364.65 36.291 365.207 36.141 365.666 35.8411C366.135 35.5412 366.491 35.1054 366.735 34.5337C366.988 33.962 367.114 33.2732 367.114 32.4672C367.114 31.6612 366.993 30.9724 366.749 30.4007C366.505 29.829 366.149 29.3979 365.681 29.1073C365.221 28.8074 364.659 28.6575 363.994 28.6575C363.338 28.6575 362.775 28.8074 362.307 29.1073C361.847 29.3979 361.491 29.829 361.238 30.4007C360.995 30.9724 360.873 31.6612 360.873 32.4672C360.873 33.2638 360.995 33.9527 361.238 34.5337C361.491 35.1054 361.847 35.5412 362.307 35.8411C362.775 36.141 363.338 36.291 363.994 36.291ZM370.438 37.4297V30.5694H371.815V32.0314H371.661C371.867 31.5066 372.19 31.1129 372.631 30.8505C373.071 30.5787 373.577 30.4428 374.149 30.4428C374.693 30.4428 375.142 30.5459 375.499 30.7521C375.864 30.9489 376.136 31.2535 376.314 31.6659C376.492 32.0689 376.581 32.5797 376.581 33.1982V37.4297H375.161V33.2826C375.161 32.8889 375.11 32.5703 375.007 32.3266C374.903 32.0736 374.749 31.8861 374.543 31.7643C374.336 31.6425 374.069 31.5815 373.741 31.5815C373.366 31.5815 373.034 31.6612 372.743 31.8205C372.462 31.9799 372.242 32.2095 372.082 32.5094C371.933 32.8093 371.858 33.156 371.858 33.5497V37.4297H370.438ZM384.803 37.4297V28.7418H381.289V27.5188H389.766V28.7418H386.251V37.4297H384.803ZM390.698 28.9808V27.5047H392.357V28.9808H390.698ZM390.825 37.4297V30.5694H392.244V37.4297H390.825ZM394.271 37.4297V30.5694H395.649V32.0314H395.494C395.616 31.694 395.785 31.4082 396 31.1739C396.216 30.9396 396.474 30.7615 396.773 30.6397C397.083 30.5084 397.42 30.4428 397.786 30.4428C398.357 30.4428 398.821 30.5787 399.177 30.8505C399.533 31.1223 399.777 31.5394 399.908 32.1017H399.712C399.89 31.5862 400.194 31.1832 400.625 30.8927C401.056 30.5928 401.558 30.4428 402.13 30.4428C402.654 30.4428 403.085 30.5459 403.423 30.7521C403.76 30.9489 404.013 31.2535 404.182 31.6659C404.351 32.0689 404.435 32.5797 404.435 33.1982V37.4297H403.015V33.2685C403.015 32.6874 402.912 32.261 402.706 31.9892C402.509 31.7174 402.181 31.5815 401.722 31.5815C401.384 31.5815 401.089 31.6612 400.836 31.8205C400.583 31.9799 400.386 32.2142 400.246 32.5234C400.115 32.8233 400.049 33.1795 400.049 33.5918V37.4297H398.629V33.2685C398.629 32.6874 398.531 32.261 398.334 31.9892C398.137 31.7174 397.809 31.5815 397.35 31.5815C397.003 31.5815 396.703 31.6612 396.45 31.8205C396.206 31.9799 396.019 32.2142 395.888 32.5234C395.757 32.8233 395.691 33.1795 395.691 33.5918V37.4297H394.271ZM409.64 37.5562C408.89 37.5562 408.243 37.4156 407.699 37.1345C407.165 36.8439 406.748 36.4363 406.448 35.9114C406.158 35.3772 406.013 34.7446 406.013 34.0136C406.013 33.3013 406.158 32.6781 406.448 32.1439C406.739 31.6097 407.137 31.1926 407.643 30.8927C408.149 30.5928 408.726 30.4428 409.372 30.4428C410.01 30.4428 410.553 30.5834 411.003 30.8646C411.462 31.1364 411.814 31.5253 412.057 32.0314C412.301 32.5375 412.423 33.142 412.423 33.8449V34.3229H407.137V33.4513H411.467L411.228 33.6481C411.228 32.9452 411.073 32.4016 410.764 32.0173C410.455 31.6331 410.01 31.441 409.429 31.441C408.988 31.441 408.613 31.5441 408.304 31.7502C408.004 31.9564 407.774 32.2423 407.615 32.6078C407.456 32.9733 407.376 33.3997 407.376 33.8871V33.9714C407.376 34.515 407.461 34.9742 407.629 35.3491C407.807 35.7146 408.065 35.9911 408.402 36.1785C408.74 36.366 409.157 36.4597 409.654 36.4597C410.047 36.4597 410.431 36.3988 410.806 36.2769C411.191 36.1457 411.551 35.9442 411.889 35.6724L412.311 36.6565C412.001 36.9377 411.603 37.1579 411.116 37.3172C410.628 37.4765 410.136 37.5562 409.64 37.5562Z" fill="black"/>
<rect x="18.7422" y="81.1758" width="406.512" height="60" rx="10" fill="#F5F5F6"/>
<path d="M34.904 106.284C33.776 106.284 32.912 105.988 32.312 105.396C31.72 104.804 31.424 103.928 31.424 102.768V97.7158H32.672V102.744C32.672 103.568 32.86 104.184 33.236 104.592C33.62 105 34.176 105.204 34.904 105.204C35.64 105.204 36.196 105 36.572 104.592C36.948 104.184 37.136 103.568 37.136 102.744V97.7158H38.36V102.768C38.36 103.928 38.068 104.804 37.484 105.396C36.9 105.988 36.04 106.284 34.904 106.284ZM42.3848 106.284C41.8728 106.284 41.4208 106.164 41.0288 105.924C40.6448 105.676 40.3448 105.324 40.1288 104.868C39.9128 104.404 39.8048 103.864 39.8048 103.248C39.8048 102.616 39.9128 102.076 40.1288 101.628C40.3448 101.18 40.6448 100.832 41.0288 100.584C41.4208 100.336 41.8728 100.212 42.3848 100.212C42.8968 100.212 43.3368 100.34 43.7048 100.596C44.0808 100.844 44.3328 101.18 44.4608 101.604H44.3288V97.7158H45.5408V106.176H44.3528V104.856H44.4728C44.3448 105.288 44.0928 105.636 43.7168 105.9C43.3488 106.156 42.9048 106.284 42.3848 106.284ZM42.6968 105.348C43.1928 105.348 43.5928 105.168 43.8968 104.808C44.2008 104.448 44.3528 103.928 44.3528 103.248C44.3528 102.56 44.2008 102.04 43.8968 101.688C43.5928 101.336 43.1928 101.16 42.6968 101.16C42.1928 101.16 41.7888 101.336 41.4848 101.688C41.1808 102.04 41.0288 102.56 41.0288 103.248C41.0288 103.928 41.1808 104.448 41.4848 104.808C41.7888 105.168 42.1928 105.348 42.6968 105.348ZM49.1146 106.284C48.7066 106.284 48.3386 106.204 48.0106 106.044C47.6906 105.884 47.4386 105.668 47.2546 105.396C47.0706 105.124 46.9786 104.816 46.9786 104.472C46.9786 104.04 47.0866 103.7 47.3026 103.452C47.5266 103.196 47.8906 103.016 48.3946 102.912C48.9066 102.8 49.5946 102.744 50.4586 102.744H51.0226V103.488H50.4706C50.0386 103.488 49.6746 103.504 49.3786 103.536C49.0826 103.568 48.8466 103.62 48.6706 103.692C48.4946 103.756 48.3666 103.848 48.2866 103.968C48.2146 104.088 48.1786 104.232 48.1786 104.4C48.1786 104.704 48.2826 104.952 48.4906 105.144C48.6986 105.328 48.9866 105.42 49.3546 105.42C49.6506 105.42 49.9106 105.352 50.1346 105.216C50.3586 105.072 50.5346 104.88 50.6626 104.64C50.7986 104.4 50.8666 104.124 50.8666 103.812V102.432C50.8666 101.976 50.7706 101.648 50.5786 101.448C50.3866 101.248 50.0706 101.148 49.6306 101.148C49.2946 101.148 48.9586 101.2 48.6226 101.304C48.2866 101.4 47.9426 101.556 47.5906 101.772L47.2186 100.92C47.4266 100.776 47.6666 100.652 47.9386 100.548C48.2106 100.444 48.4946 100.364 48.7906 100.308C49.0946 100.244 49.3866 100.212 49.6666 100.212C50.2026 100.212 50.6426 100.296 50.9866 100.464C51.3386 100.632 51.5986 100.888 51.7666 101.232C51.9346 101.576 52.0186 102.02 52.0186 102.564V106.176H50.8786V104.868H50.9866C50.9226 105.164 50.8026 105.42 50.6266 105.636C50.4586 105.844 50.2466 106.004 49.9906 106.116C49.7346 106.228 49.4426 106.284 49.1146 106.284ZM53.5799 98.9638V97.7038H54.9959V98.9638H53.5799ZM53.6879 106.176V100.32H54.8999V106.176H53.6879ZM56.6059 108.336V100.32H57.7939V101.64H57.6619C57.7899 101.208 58.0419 100.864 58.4179 100.608C58.7939 100.344 59.2379 100.212 59.7499 100.212C60.2699 100.212 60.7219 100.336 61.1059 100.584C61.4979 100.832 61.7979 101.18 62.0059 101.628C62.2219 102.076 62.3299 102.616 62.3299 103.248C62.3299 103.864 62.2219 104.404 62.0059 104.868C61.7979 105.324 61.5019 105.676 61.1179 105.924C60.7339 106.164 60.2779 106.284 59.7499 106.284C59.2459 106.284 58.8059 106.156 58.4299 105.9C58.0539 105.644 57.8019 105.304 57.6739 104.88H57.8179V108.336H56.6059ZM59.4499 105.348C59.9539 105.348 60.3539 105.168 60.6499 104.808C60.9539 104.448 61.1059 103.928 61.1059 103.248C61.1059 102.56 60.9539 102.04 60.6499 101.688C60.3539 101.336 59.9539 101.16 59.4499 101.16C58.9539 101.16 58.5539 101.336 58.2499 101.688C57.9459 102.04 57.7939 102.56 57.7939 103.248C57.7939 103.928 57.9459 104.448 58.2499 104.808C58.5539 105.168 58.9539 105.348 59.4499 105.348ZM65.7838 106.284C65.3118 106.284 64.9158 106.196 64.5958 106.02C64.2838 105.844 64.0478 105.584 63.8878 105.24C63.7358 104.888 63.6598 104.448 63.6598 103.92V100.32H64.8718V103.932C64.8718 104.244 64.9118 104.504 64.9918 104.712C65.0798 104.92 65.2118 105.072 65.3878 105.168C65.5718 105.264 65.7998 105.312 66.0718 105.312C66.3758 105.312 66.6438 105.244 66.8758 105.108C67.1078 104.972 67.2878 104.776 67.4158 104.52C67.5438 104.264 67.6078 103.968 67.6078 103.632V100.32H68.8198V106.176H67.6438V104.892H67.7998C67.6398 105.34 67.3838 105.684 67.0318 105.924C66.6798 106.164 66.2638 106.284 65.7838 106.284ZM70.5278 106.176V100.32H71.7038V101.724H71.5838C71.7118 101.244 71.9398 100.88 72.2678 100.632C72.6038 100.384 73.0478 100.24 73.5998 100.2L73.9958 100.176L74.0798 101.208L73.3478 101.28C72.8278 101.328 72.4318 101.492 72.1598 101.772C71.8878 102.052 71.7518 102.436 71.7518 102.924V106.176H70.5278ZM75.2145 107.652L74.6865 107.244C74.8465 107.076 74.9665 106.92 75.0465 106.776C75.1345 106.632 75.1945 106.488 75.2265 106.344C75.2665 106.2 75.2865 106.056 75.2865 105.912L75.5505 106.176H74.6025V104.748H76.0305V105.72C76.0305 105.96 76.0025 106.188 75.9465 106.404C75.8985 106.62 75.8145 106.828 75.6945 107.028C75.5825 107.236 75.4225 107.444 75.2145 107.652ZM80.8785 106.176V97.7158H84.3825C85.2945 97.7158 85.9985 97.9318 86.4945 98.3638C86.9905 98.7958 87.2385 99.4078 87.2385 100.2C87.2385 100.712 87.1265 101.152 86.9025 101.52C86.6785 101.888 86.3505 102.168 85.9185 102.36C85.4945 102.552 84.9825 102.648 84.3825 102.648L84.4905 102.48H84.8025C85.1225 102.48 85.3985 102.56 85.6305 102.72C85.8705 102.88 86.0865 103.136 86.2785 103.488L87.7425 106.176H86.3745L84.9105 103.476C84.7985 103.268 84.6745 103.108 84.5385 102.996C84.4105 102.876 84.2585 102.796 84.0825 102.756C83.9145 102.708 83.7145 102.684 83.4825 102.684H82.1265V106.176H80.8785ZM82.1265 101.748H84.1785C84.7865 101.748 85.2465 101.62 85.5585 101.364C85.8705 101.108 86.0265 100.728 86.0265 100.224C86.0265 99.7278 85.8705 99.3518 85.5585 99.0958C85.2465 98.8398 84.7865 98.7118 84.1785 98.7118H82.1265V101.748ZM90.7045 106.284C90.2965 106.284 89.9285 106.204 89.6005 106.044C89.2805 105.884 89.0285 105.668 88.8445 105.396C88.6605 105.124 88.5685 104.816 88.5685 104.472C88.5685 104.04 88.6765 103.7 88.8925 103.452C89.1165 103.196 89.4805 103.016 89.9845 102.912C90.4965 102.8 91.1845 102.744 92.0485 102.744H92.6125V103.488H92.0605C91.6285 103.488 91.2645 103.504 90.9685 103.536C90.6725 103.568 90.4365 103.62 90.2605 103.692C90.0845 103.756 89.9565 103.848 89.8765 103.968C89.8045 104.088 89.7685 104.232 89.7685 104.4C89.7685 104.704 89.8725 104.952 90.0805 105.144C90.2885 105.328 90.5765 105.42 90.9445 105.42C91.2405 105.42 91.5005 105.352 91.7245 105.216C91.9485 105.072 92.1245 104.88 92.2525 104.64C92.3885 104.4 92.4565 104.124 92.4565 103.812V102.432C92.4565 101.976 92.3605 101.648 92.1685 101.448C91.9765 101.248 91.6605 101.148 91.2205 101.148C90.8845 101.148 90.5485 101.2 90.2125 101.304C89.8765 101.4 89.5325 101.556 89.1805 101.772L88.8085 100.92C89.0165 100.776 89.2565 100.652 89.5285 100.548C89.8005 100.444 90.0845 100.364 90.3805 100.308C90.6845 100.244 90.9765 100.212 91.2565 100.212C91.7925 100.212 92.2325 100.296 92.5765 100.464C92.9285 100.632 93.1885 100.888 93.3565 101.232C93.5245 101.576 93.6085 102.02 93.6085 102.564V106.176H92.4685V104.868H92.5765C92.5125 105.164 92.3925 105.42 92.2165 105.636C92.0485 105.844 91.8365 106.004 91.5805 106.116C91.3245 106.228 91.0325 106.284 90.7045 106.284ZM95.2178 98.9638V97.7038H96.6338V98.9638H95.2178ZM93.8498 108.492L93.7658 107.58L94.2938 107.532C94.6378 107.492 94.8938 107.372 95.0618 107.172C95.2298 106.98 95.3138 106.692 95.3138 106.308V100.32H96.5258V106.176C96.5258 106.544 96.4818 106.864 96.3938 107.136C96.3138 107.408 96.1858 107.636 96.0098 107.82C95.8418 108.012 95.6218 108.16 95.3498 108.264C95.0778 108.368 94.7498 108.432 94.3658 108.456L93.8498 108.492ZM100.103 106.284C99.6949 106.284 99.3269 106.204 98.9989 106.044C98.6789 105.884 98.4269 105.668 98.2429 105.396C98.0589 105.124 97.9669 104.816 97.9669 104.472C97.9669 104.04 98.0749 103.7 98.2909 103.452C98.5149 103.196 98.8789 103.016 99.3829 102.912C99.8949 102.8 100.583 102.744 101.447 102.744H102.011V103.488H101.459C101.027 103.488 100.663 103.504 100.367 103.536C100.071 103.568 99.8349 103.62 99.6589 103.692C99.4829 103.756 99.3549 103.848 99.2749 103.968C99.2029 104.088 99.1669 104.232 99.1669 104.4C99.1669 104.704 99.2709 104.952 99.4789 105.144C99.6869 105.328 99.9749 105.42 100.343 105.42C100.639 105.42 100.899 105.352 101.123 105.216C101.347 105.072 101.523 104.88 101.651 104.64C101.787 104.4 101.855 104.124 101.855 103.812V102.432C101.855 101.976 101.759 101.648 101.567 101.448C101.375 101.248 101.059 101.148 100.619 101.148C100.283 101.148 99.9469 101.2 99.6109 101.304C99.2749 101.4 98.9309 101.556 98.5789 101.772L98.2069 100.92C98.4149 100.776 98.6549 100.652 98.9269 100.548C99.1989 100.444 99.4829 100.364 99.7789 100.308C100.083 100.244 100.375 100.212 100.655 100.212C101.191 100.212 101.631 100.296 101.975 100.464C102.327 100.632 102.587 100.888 102.755 101.232C102.923 101.576 103.007 102.02 103.007 102.564V106.176H101.867V104.868H101.975C101.911 105.164 101.791 105.42 101.615 105.636C101.447 105.844 101.235 106.004 100.979 106.116C100.723 106.228 100.431 106.284 100.103 106.284ZM106.728 106.284C106.416 106.284 106.112 106.256 105.816 106.2C105.52 106.144 105.248 106.064 105 105.96C104.752 105.856 104.532 105.728 104.34 105.576L104.688 104.76C104.888 104.896 105.1 105.016 105.324 105.12C105.548 105.216 105.78 105.288 106.02 105.336C106.268 105.384 106.508 105.408 106.74 105.408C107.164 105.408 107.484 105.332 107.7 105.18C107.916 105.028 108.024 104.824 108.024 104.568C108.024 104.36 107.952 104.2 107.808 104.088C107.664 103.968 107.448 103.876 107.16 103.812L106.02 103.584C105.524 103.48 105.148 103.296 104.892 103.032C104.636 102.768 104.508 102.432 104.508 102.024C104.508 101.656 104.608 101.336 104.808 101.064C105.008 100.792 105.288 100.584 105.648 100.44C106.008 100.288 106.424 100.212 106.896 100.212C107.168 100.212 107.432 100.24 107.688 100.296C107.944 100.352 108.184 100.432 108.408 100.536C108.64 100.64 108.836 100.772 108.996 100.932L108.648 101.748C108.496 101.612 108.32 101.496 108.12 101.4C107.928 101.304 107.728 101.232 107.52 101.184C107.312 101.128 107.104 101.1 106.896 101.1C106.472 101.1 106.152 101.18 105.936 101.34C105.728 101.492 105.624 101.7 105.624 101.964C105.624 102.164 105.688 102.328 105.816 102.456C105.944 102.584 106.144 102.676 106.416 102.732L107.556 102.96C108.076 103.064 108.468 103.24 108.732 103.488C109.004 103.736 109.14 104.072 109.14 104.496C109.14 104.864 109.04 105.184 108.84 105.456C108.64 105.728 108.356 105.936 107.988 106.08C107.628 106.216 107.208 106.284 106.728 106.284ZM112.926 106.284C112.198 106.284 111.65 106.096 111.282 105.72C110.922 105.344 110.742 104.8 110.742 104.088V101.256H109.602V100.32H110.742V98.5558H111.954V100.32H113.766V101.256H111.954V103.992C111.954 104.416 112.042 104.736 112.218 104.952C112.402 105.168 112.698 105.276 113.106 105.276C113.226 105.276 113.346 105.26 113.466 105.228C113.594 105.196 113.718 105.164 113.838 105.132L114.03 106.044C113.91 106.116 113.742 106.172 113.526 106.212C113.318 106.26 113.118 106.284 112.926 106.284ZM114.813 106.176V97.7158H116.025V101.568H115.857C116.033 101.12 116.309 100.784 116.685 100.56C117.061 100.328 117.493 100.212 117.981 100.212C118.445 100.212 118.829 100.3 119.133 100.476C119.445 100.644 119.677 100.904 119.829 101.256C119.981 101.6 120.057 102.036 120.057 102.564V106.176H118.845V102.636C118.845 102.3 118.801 102.028 118.713 101.82C118.625 101.604 118.493 101.444 118.317 101.34C118.141 101.236 117.913 101.184 117.633 101.184C117.313 101.184 117.029 101.252 116.781 101.388C116.541 101.524 116.353 101.72 116.217 101.976C116.089 102.232 116.025 102.528 116.025 102.864V106.176H114.813ZM123.599 106.284C123.191 106.284 122.823 106.204 122.495 106.044C122.175 105.884 121.923 105.668 121.739 105.396C121.555 105.124 121.463 104.816 121.463 104.472C121.463 104.04 121.571 103.7 121.787 103.452C122.011 103.196 122.375 103.016 122.879 102.912C123.391 102.8 124.079 102.744 124.943 102.744H125.507V103.488H124.955C124.523 103.488 124.159 103.504 123.863 103.536C123.567 103.568 123.331 103.62 123.155 103.692C122.979 103.756 122.851 103.848 122.771 103.968C122.699 104.088 122.663 104.232 122.663 104.4C122.663 104.704 122.767 104.952 122.975 105.144C123.183 105.328 123.471 105.42 123.839 105.42C124.135 105.42 124.395 105.352 124.619 105.216C124.843 105.072 125.019 104.88 125.147 104.64C125.283 104.4 125.351 104.124 125.351 103.812V102.432C125.351 101.976 125.255 101.648 125.063 101.448C124.871 101.248 124.555 101.148 124.115 101.148C123.779 101.148 123.443 101.2 123.107 101.304C122.771 101.4 122.427 101.556 122.075 101.772L121.703 100.92C121.911 100.776 122.151 100.652 122.423 100.548C122.695 100.444 122.979 100.364 123.275 100.308C123.579 100.244 123.871 100.212 124.151 100.212C124.687 100.212 125.127 100.296 125.471 100.464C125.823 100.632 126.083 100.888 126.251 101.232C126.419 101.576 126.503 102.02 126.503 102.564V106.176H125.363V104.868H125.471C125.407 105.164 125.287 105.42 125.111 105.636C124.943 105.844 124.731 106.004 124.475 106.116C124.219 106.228 123.927 106.284 123.599 106.284ZM128.172 106.176V100.32H129.348V101.568H129.216C129.392 101.12 129.668 100.784 130.044 100.56C130.42 100.328 130.852 100.212 131.34 100.212C131.804 100.212 132.188 100.3 132.492 100.476C132.804 100.644 133.036 100.904 133.188 101.256C133.34 101.6 133.416 102.036 133.416 102.564V106.176H132.204V102.636C132.204 102.3 132.16 102.028 132.072 101.82C131.984 101.604 131.852 101.444 131.676 101.34C131.5 101.236 131.272 101.184 130.992 101.184C130.672 101.184 130.388 101.252 130.14 101.388C129.9 101.524 129.712 101.72 129.576 101.976C129.448 102.232 129.384 102.528 129.384 102.864V106.176H128.172Z" fill="#444050"/>
<path d="M28.2687 123.176V116.831H29.0967L31.4457 121.43H31.3377L33.6867 116.831H34.5057V123.176H33.7587V117.929H33.8397L31.6707 122.177H31.1127L28.9167 117.929H29.0067V123.176H28.2687ZM37.642 123.257C37.336 123.257 37.057 123.2 36.805 123.086C36.559 122.966 36.364 122.804 36.22 122.6C36.082 122.396 36.013 122.168 36.013 121.916C36.013 121.58 36.103 121.316 36.283 121.124C36.469 120.926 36.76 120.788 37.156 120.71C37.552 120.626 38.065 120.584 38.695 120.584H39.28V121.115H38.722C38.374 121.115 38.077 121.127 37.831 121.151C37.585 121.175 37.384 121.214 37.228 121.268C37.078 121.322 36.967 121.4 36.895 121.502C36.823 121.598 36.787 121.721 36.787 121.871C36.787 122.117 36.88 122.309 37.066 122.447C37.252 122.585 37.492 122.654 37.786 122.654C38.038 122.654 38.266 122.594 38.47 122.474C38.68 122.354 38.845 122.195 38.965 121.997C39.091 121.799 39.154 121.58 39.154 121.34V120.314C39.154 119.96 39.061 119.702 38.875 119.54C38.689 119.378 38.407 119.297 38.029 119.297C37.765 119.297 37.504 119.336 37.246 119.414C36.988 119.486 36.721 119.603 36.445 119.765L36.193 119.198C36.367 119.084 36.559 118.988 36.769 118.91C36.979 118.832 37.195 118.772 37.417 118.73C37.645 118.688 37.867 118.667 38.083 118.667C38.467 118.667 38.794 118.727 39.064 118.847C39.34 118.967 39.55 119.153 39.694 119.405C39.838 119.657 39.91 119.984 39.91 120.386V123.176H39.208V122.186H39.226C39.154 122.39 39.043 122.573 38.893 122.735C38.749 122.897 38.572 123.026 38.362 123.122C38.152 123.212 37.912 123.257 37.642 123.257ZM41.4401 123.176V118.748H42.1601V119.774H42.1421C42.2501 119.438 42.4361 119.177 42.7001 118.991C42.9641 118.805 43.2971 118.7 43.6991 118.676L44.0591 118.649L44.1311 119.36L43.5281 119.405C43.1141 119.441 42.7931 119.579 42.5651 119.819C42.3371 120.053 42.2231 120.35 42.2231 120.71V123.176H41.4401ZM47.5217 123.176V122.591L49.7357 120.251C49.9517 120.023 50.1197 119.816 50.2397 119.63C50.3657 119.438 50.4527 119.255 50.5007 119.081C50.5547 118.901 50.5817 118.721 50.5817 118.541C50.5817 118.187 50.4707 117.917 50.2487 117.731C50.0267 117.539 49.7147 117.443 49.3127 117.443C49.0067 117.443 48.7097 117.503 48.4217 117.623C48.1337 117.737 47.8607 117.917 47.6027 118.163L47.3057 117.551C47.5637 117.299 47.8727 117.104 48.2327 116.966C48.5987 116.822 48.9797 116.75 49.3757 116.75C49.7897 116.75 50.1437 116.819 50.4377 116.957C50.7377 117.095 50.9657 117.296 51.1217 117.56C51.2837 117.818 51.3647 118.127 51.3647 118.487C51.3647 118.679 51.3437 118.865 51.3017 119.045C51.2597 119.225 51.1937 119.405 51.1037 119.585C51.0137 119.759 50.8967 119.939 50.7527 120.125C50.6147 120.311 50.4497 120.503 50.2577 120.701L48.4667 122.582V122.492H51.6257V123.176H47.5217ZM54.8622 123.257C54.3762 123.257 53.9652 123.134 53.6292 122.888C53.2992 122.636 53.0472 122.27 52.8732 121.79C52.7052 121.304 52.6212 120.707 52.6212 119.999C52.6212 119.291 52.7052 118.697 52.8732 118.217C53.0472 117.731 53.2992 117.365 53.6292 117.119C53.9652 116.873 54.3762 116.75 54.8622 116.75C55.3542 116.75 55.7652 116.873 56.0952 117.119C56.4312 117.365 56.6832 117.728 56.8512 118.208C57.0192 118.688 57.1032 119.282 57.1032 119.99C57.1032 120.698 57.0162 121.295 56.8422 121.781C56.6742 122.267 56.4222 122.636 56.0862 122.888C55.7562 123.134 55.3482 123.257 54.8622 123.257ZM54.8622 122.573C55.3602 122.573 55.7292 122.363 55.9692 121.943C56.2092 121.523 56.3292 120.872 56.3292 119.99C56.3292 119.108 56.2092 118.463 55.9692 118.055C55.7292 117.641 55.3602 117.434 54.8622 117.434C54.3702 117.434 54.0012 117.641 53.7552 118.055C53.5152 118.469 53.3952 119.117 53.3952 119.999C53.3952 120.875 53.5152 121.523 53.7552 121.943C53.9952 122.363 54.3642 122.573 54.8622 122.573ZM58.6207 124.409L58.2427 124.103C58.3507 123.995 58.4347 123.881 58.4947 123.761C58.5547 123.641 58.5967 123.518 58.6207 123.392C58.6507 123.266 58.6687 123.146 58.6747 123.032L58.8277 123.176H58.1887V122.204H59.1877V122.924C59.1877 123.098 59.1697 123.272 59.1337 123.446C59.0977 123.626 59.0377 123.797 58.9537 123.959C58.8757 124.121 58.7647 124.271 58.6207 124.409ZM63.0432 123.176V122.591L65.2572 120.251C65.4732 120.023 65.6412 119.816 65.7612 119.63C65.8872 119.438 65.9742 119.255 66.0222 119.081C66.0762 118.901 66.1032 118.721 66.1032 118.541C66.1032 118.187 65.9922 117.917 65.7702 117.731C65.5482 117.539 65.2362 117.443 64.8342 117.443C64.5282 117.443 64.2312 117.503 63.9432 117.623C63.6552 117.737 63.3822 117.917 63.1242 118.163L62.8272 117.551C63.0852 117.299 63.3942 117.104 63.7542 116.966C64.1202 116.822 64.5012 116.75 64.8972 116.75C65.3112 116.75 65.6652 116.819 65.9592 116.957C66.2592 117.095 66.4872 117.296 66.6432 117.56C66.8052 117.818 66.8862 118.127 66.8862 118.487C66.8862 118.679 66.8652 118.865 66.8232 119.045C66.7812 119.225 66.7152 119.405 66.6252 119.585C66.5352 119.759 66.4182 119.939 66.2742 120.125C66.1362 120.311 65.9712 120.503 65.7792 120.701L63.9882 122.582V122.492H67.1472V123.176H63.0432ZM70.3837 123.257C69.8977 123.257 69.4867 123.134 69.1507 122.888C68.8207 122.636 68.5687 122.27 68.3947 121.79C68.2267 121.304 68.1427 120.707 68.1427 119.999C68.1427 119.291 68.2267 118.697 68.3947 118.217C68.5687 117.731 68.8207 117.365 69.1507 117.119C69.4867 116.873 69.8977 116.75 70.3837 116.75C70.8757 116.75 71.2867 116.873 71.6167 117.119C71.9527 117.365 72.2047 117.728 72.3727 118.208C72.5407 118.688 72.6247 119.282 72.6247 119.99C72.6247 120.698 72.5377 121.295 72.3637 121.781C72.1957 122.267 71.9437 122.636 71.6077 122.888C71.2777 123.134 70.8697 123.257 70.3837 123.257ZM70.3837 122.573C70.8817 122.573 71.2507 122.363 71.4907 121.943C71.7307 121.523 71.8507 120.872 71.8507 119.99C71.8507 119.108 71.7307 118.463 71.4907 118.055C71.2507 117.641 70.8817 117.434 70.3837 117.434C69.8917 117.434 69.5227 117.641 69.2767 118.055C69.0367 118.469 68.9167 119.117 68.9167 119.999C68.9167 120.875 69.0367 121.523 69.2767 121.943C69.5167 122.363 69.8857 122.573 70.3837 122.573ZM73.8362 123.176V122.591L76.0502 120.251C76.2662 120.023 76.4342 119.816 76.5542 119.63C76.6802 119.438 76.7672 119.255 76.8152 119.081C76.8692 118.901 76.8962 118.721 76.8962 118.541C76.8962 118.187 76.7852 117.917 76.5632 117.731C76.3412 117.539 76.0292 117.443 75.6272 117.443C75.3212 117.443 75.0242 117.503 74.7362 117.623C74.4482 117.737 74.1752 117.917 73.9172 118.163L73.6202 117.551C73.8782 117.299 74.1872 117.104 74.5472 116.966C74.9132 116.822 75.2942 116.75 75.6902 116.75C76.1042 116.75 76.4582 116.819 76.7522 116.957C77.0522 117.095 77.2802 117.296 77.4362 117.56C77.5982 117.818 77.6792 118.127 77.6792 118.487C77.6792 118.679 77.6582 118.865 77.6162 119.045C77.5742 119.225 77.5082 119.405 77.4182 119.585C77.3282 119.759 77.2112 119.939 77.0672 120.125C76.9292 120.311 76.7642 120.503 76.5722 120.701L74.7812 122.582V122.492H77.9402V123.176H73.8362ZM81.3926 123.257C80.8826 123.257 80.4506 123.134 80.0966 122.888C79.7486 122.642 79.4816 122.288 79.2956 121.826C79.1096 121.364 79.0166 120.803 79.0166 120.143C79.0166 119.417 79.1186 118.802 79.3226 118.298C79.5266 117.794 79.8206 117.41 80.2046 117.146C80.5886 116.882 81.0506 116.75 81.5906 116.75C81.8246 116.75 82.0496 116.78 82.2656 116.84C82.4876 116.9 82.6946 116.987 82.8866 117.101C83.0786 117.215 83.2526 117.353 83.4086 117.515L83.1206 118.127C82.8926 117.881 82.6496 117.707 82.3916 117.605C82.1336 117.497 81.8636 117.443 81.5816 117.443C81.2876 117.443 81.0266 117.5 80.7986 117.614C80.5766 117.722 80.3876 117.887 80.2316 118.109C80.0756 118.325 79.9556 118.595 79.8716 118.919C79.7936 119.237 79.7546 119.609 79.7546 120.035V120.638H79.7366C79.7846 120.338 79.8896 120.08 80.0516 119.864C80.2136 119.648 80.4176 119.48 80.6636 119.36C80.9156 119.24 81.1856 119.18 81.4736 119.18C81.8576 119.18 82.1936 119.267 82.4816 119.441C82.7756 119.609 83.0036 119.846 83.1656 120.152C83.3336 120.452 83.4176 120.8 83.4176 121.196C83.4176 121.592 83.3306 121.946 83.1566 122.258C82.9886 122.57 82.7516 122.816 82.4456 122.996C82.1396 123.17 81.7886 123.257 81.3926 123.257ZM81.3476 122.591C81.6116 122.591 81.8426 122.534 82.0406 122.42C82.2446 122.3 82.4006 122.138 82.5086 121.934C82.6226 121.724 82.6796 121.484 82.6796 121.214C82.6796 120.944 82.6226 120.707 82.5086 120.503C82.4006 120.299 82.2446 120.14 82.0406 120.026C81.8426 119.906 81.6116 119.846 81.3476 119.846C81.0776 119.846 80.8406 119.906 80.6366 120.026C80.4386 120.14 80.2796 120.299 80.1596 120.503C80.0456 120.707 79.9886 120.944 79.9886 121.214C79.9886 121.484 80.0456 121.724 80.1596 121.934C80.2736 122.138 80.4326 122.3 80.6366 122.42C80.8406 122.534 81.0776 122.591 81.3476 122.591ZM86.3428 121.025V120.494H90.8428V121.025H86.3428ZM94.2126 123.176V122.501H95.8776V117.47L96.2916 117.515L94.5276 118.649L94.1766 118.046L96.0846 116.831H96.6606V122.501H98.1996V123.176H94.2126ZM101.409 123.257C100.923 123.257 100.512 123.134 100.176 122.888C99.8461 122.636 99.5941 122.27 99.4201 121.79C99.2521 121.304 99.1681 120.707 99.1681 119.999C99.1681 119.291 99.2521 118.697 99.4201 118.217C99.5941 117.731 99.8461 117.365 100.176 117.119C100.512 116.873 100.923 116.75 101.409 116.75C101.901 116.75 102.312 116.873 102.642 117.119C102.978 117.365 103.23 117.728 103.398 118.208C103.566 118.688 103.65 119.282 103.65 119.99C103.65 120.698 103.563 121.295 103.389 121.781C103.221 122.267 102.969 122.636 102.633 122.888C102.303 123.134 101.895 123.257 101.409 123.257ZM101.409 122.573C101.907 122.573 102.276 122.363 102.516 121.943C102.756 121.523 102.876 120.872 102.876 119.99C102.876 119.108 102.756 118.463 102.516 118.055C102.276 117.641 101.907 117.434 101.409 117.434C100.917 117.434 100.548 117.641 100.302 118.055C100.062 118.469 99.9421 119.117 99.9421 119.999C99.9421 120.875 100.062 121.523 100.302 121.943C100.542 122.363 100.911 122.573 101.409 122.573ZM104.736 119.702V118.748H105.735V119.702H104.736ZM104.736 123.176V122.222H105.735V123.176H104.736ZM109.064 123.257C108.578 123.257 108.167 123.134 107.831 122.888C107.501 122.636 107.249 122.27 107.075 121.79C106.907 121.304 106.823 120.707 106.823 119.999C106.823 119.291 106.907 118.697 107.075 118.217C107.249 117.731 107.501 117.365 107.831 117.119C108.167 116.873 108.578 116.75 109.064 116.75C109.556 116.75 109.967 116.873 110.297 117.119C110.633 117.365 110.885 117.728 111.053 118.208C111.221 118.688 111.305 119.282 111.305 119.99C111.305 120.698 111.218 121.295 111.044 121.781C110.876 122.267 110.624 122.636 110.288 122.888C109.958 123.134 109.55 123.257 109.064 123.257ZM109.064 122.573C109.562 122.573 109.931 122.363 110.171 121.943C110.411 121.523 110.531 120.872 110.531 119.99C110.531 119.108 110.411 118.463 110.171 118.055C109.931 117.641 109.562 117.434 109.064 117.434C108.572 117.434 108.203 117.641 107.957 118.055C107.717 118.469 107.597 119.117 107.597 119.999C107.597 120.875 107.717 121.523 107.957 121.943C108.197 122.363 108.566 122.573 109.064 122.573ZM114.461 123.257C113.975 123.257 113.564 123.134 113.228 122.888C112.898 122.636 112.646 122.27 112.472 121.79C112.304 121.304 112.22 120.707 112.22 119.999C112.22 119.291 112.304 118.697 112.472 118.217C112.646 117.731 112.898 117.365 113.228 117.119C113.564 116.873 113.975 116.75 114.461 116.75C114.953 116.75 115.364 116.873 115.694 117.119C116.03 117.365 116.282 117.728 116.45 118.208C116.618 118.688 116.702 119.282 116.702 119.99C116.702 120.698 116.615 121.295 116.441 121.781C116.273 122.267 116.021 122.636 115.685 122.888C115.355 123.134 114.947 123.257 114.461 123.257ZM114.461 122.573C114.959 122.573 115.328 122.363 115.568 121.943C115.808 121.523 115.928 120.872 115.928 119.99C115.928 119.108 115.808 118.463 115.568 118.055C115.328 117.641 114.959 117.434 114.461 117.434C113.969 117.434 113.6 117.641 113.354 118.055C113.114 118.469 112.994 119.117 112.994 119.999C112.994 120.875 113.114 121.523 113.354 121.943C113.594 122.363 113.963 122.573 114.461 122.573ZM119.888 123.176L122.678 116.831H123.38L126.17 123.176H125.342L124.568 121.367L124.955 121.601H121.094L121.472 121.367L120.707 123.176H119.888ZM123.011 117.74L121.58 121.106L121.355 120.935H124.694L124.469 121.106L123.038 117.74H123.011ZM127.348 123.176V116.831H128.176L130.525 121.43H130.417L132.766 116.831H133.585V123.176H132.838V117.929H132.919L130.75 122.177H130.192L127.996 117.929H128.086V123.176H127.348Z" fill="#8D8A94"/>
<rect x="150.5" y="99.1758" width="10" height="10" rx="5" fill="white"/>
<circle cx="155.5" cy="104.176" r="3" fill="#FBC942"/>
<path d="M164.5 104.176H207" stroke="#FBC942" stroke-width="2" stroke-linecap="round" stroke-dasharray="6 6"/>
<rect x="211" y="93.1758" width="22" height="22" rx="11" fill="white"/>
<path d="M218.499 108.841C218.013 108.841 217.599 108.671 217.259 108.331C216.919 107.99 216.749 107.577 216.749 107.091C216.428 107.091 216.153 106.977 215.925 106.749C215.696 106.52 215.582 106.245 215.582 105.924V100.674C215.582 100.354 215.696 100.079 215.925 99.8508C216.153 99.6221 216.428 99.5078 216.749 99.5078H223.749C224.07 99.5078 224.344 99.6221 224.573 99.8508C224.801 100.079 224.915 100.354 224.915 100.674V101.841H226.374C226.471 101.841 226.558 101.861 226.636 101.899C226.714 101.938 226.782 101.997 226.84 102.074L228.299 104.014C228.338 104.063 228.367 104.116 228.386 104.174C228.406 104.233 228.415 104.296 228.415 104.364V106.508C228.415 106.673 228.359 106.812 228.247 106.923C228.136 107.035 227.997 107.091 227.832 107.091H227.249C227.249 107.577 227.079 107.99 226.738 108.331C226.398 108.671 225.985 108.841 225.499 108.841C225.013 108.841 224.599 108.671 224.259 108.331C223.919 107.99 223.749 107.577 223.749 107.091H220.249C220.249 107.577 220.079 107.99 219.738 108.331C219.398 108.671 218.985 108.841 218.499 108.841ZM218.499 107.674C218.664 107.674 218.803 107.618 218.915 107.506C219.026 107.395 219.082 107.256 219.082 107.091C219.082 106.926 219.026 106.787 218.915 106.676C218.803 106.564 218.664 106.508 218.499 106.508C218.333 106.508 218.195 106.564 218.083 106.676C217.971 106.787 217.915 106.926 217.915 107.091C217.915 107.256 217.971 107.395 218.083 107.506C218.195 107.618 218.333 107.674 218.499 107.674ZM216.749 100.674V105.924H217.215C217.381 105.749 217.57 105.609 217.784 105.502C217.998 105.395 218.236 105.341 218.499 105.341C218.761 105.341 218.999 105.395 219.213 105.502C219.427 105.609 219.617 105.749 219.782 105.924H223.749V100.674H216.749ZM225.499 107.674C225.664 107.674 225.802 107.618 225.914 107.506C226.026 107.395 226.082 107.256 226.082 107.091C226.082 106.926 226.026 106.787 225.914 106.676C225.802 106.564 225.664 106.508 225.499 106.508C225.333 106.508 225.195 106.564 225.083 106.676C224.971 106.787 224.915 106.926 224.915 107.091C224.915 107.256 224.971 107.395 225.083 107.506C225.195 107.618 225.333 107.674 225.499 107.674ZM224.915 104.758H227.395L226.082 103.008H224.915V104.758Z" fill="#FBC942"/>
<path d="M237 104.176H279.5" stroke="#FBC942" stroke-width="2" stroke-linecap="round" stroke-dasharray="6 6"/>
<rect x="283.5" y="99.1758" width="10" height="10" rx="5" fill="white"/>
<circle cx="288.5" cy="104.176" r="3" fill="#FBC942"/>
<path d="M173.943 126.176V125.591L176.157 123.251C176.373 123.023 176.541 122.816 176.661 122.63C176.787 122.438 176.874 122.255 176.922 122.081C176.976 121.901 177.003 121.721 177.003 121.541C177.003 121.187 176.892 120.917 176.67 120.731C176.448 120.539 176.136 120.443 175.734 120.443C175.428 120.443 175.131 120.503 174.843 120.623C174.555 120.737 174.282 120.917 174.024 121.163L173.727 120.551C173.985 120.299 174.294 120.104 174.654 119.966C175.02 119.822 175.401 119.75 175.797 119.75C176.211 119.75 176.565 119.819 176.859 119.957C177.159 120.095 177.387 120.296 177.543 120.56C177.705 120.818 177.786 121.127 177.786 121.487C177.786 121.679 177.765 121.865 177.723 122.045C177.681 122.225 177.615 122.405 177.525 122.585C177.435 122.759 177.318 122.939 177.174 123.125C177.036 123.311 176.871 123.503 176.679 123.701L174.888 125.582V125.492H178.047V126.176H173.943ZM179.645 127.409L179.267 127.103C179.375 126.995 179.459 126.881 179.519 126.761C179.579 126.641 179.621 126.518 179.645 126.392C179.675 126.266 179.693 126.146 179.699 126.032L179.852 126.176H179.213V125.204H180.212V125.924C180.212 126.098 180.194 126.272 180.158 126.446C180.122 126.626 180.062 126.797 179.978 126.959C179.9 127.121 179.789 127.271 179.645 127.409ZM183.542 126.257C183.056 126.257 182.645 126.134 182.309 125.888C181.979 125.636 181.727 125.27 181.553 124.79C181.385 124.304 181.301 123.707 181.301 122.999C181.301 122.291 181.385 121.697 181.553 121.217C181.727 120.731 181.979 120.365 182.309 120.119C182.645 119.873 183.056 119.75 183.542 119.75C184.034 119.75 184.445 119.873 184.775 120.119C185.111 120.365 185.363 120.728 185.531 121.208C185.699 121.688 185.783 122.282 185.783 122.99C185.783 123.698 185.696 124.295 185.522 124.781C185.354 125.267 185.102 125.636 184.766 125.888C184.436 126.134 184.028 126.257 183.542 126.257ZM183.542 125.573C184.04 125.573 184.409 125.363 184.649 124.943C184.889 124.523 185.009 123.872 185.009 122.99C185.009 122.108 184.889 121.463 184.649 121.055C184.409 120.641 184.04 120.434 183.542 120.434C183.05 120.434 182.681 120.641 182.435 121.055C182.195 121.469 182.075 122.117 182.075 122.999C182.075 123.875 182.195 124.523 182.435 124.943C182.675 125.363 183.044 125.573 183.542 125.573ZM187.138 126.176V125.501H188.803V120.47L189.217 120.515L187.453 121.649L187.102 121.046L189.01 119.831H189.586V125.501H191.125V126.176H187.138ZM194.425 126.257C194.149 126.257 193.882 126.227 193.624 126.167C193.372 126.107 193.135 126.02 192.913 125.906C192.691 125.786 192.49 125.645 192.31 125.483L192.616 124.862C192.898 125.108 193.186 125.288 193.48 125.402C193.774 125.51 194.089 125.564 194.425 125.564C194.863 125.564 195.208 125.447 195.46 125.213C195.712 124.979 195.838 124.655 195.838 124.241C195.838 123.827 195.718 123.494 195.478 123.242C195.244 122.99 194.92 122.864 194.506 122.864C194.218 122.864 193.96 122.921 193.732 123.035C193.51 123.149 193.303 123.335 193.111 123.593H192.508V119.831H196.279V120.515H193.237V122.927H193.156C193.306 122.705 193.51 122.528 193.768 122.396C194.026 122.258 194.314 122.189 194.632 122.189C195.034 122.189 195.382 122.276 195.676 122.45C195.97 122.618 196.195 122.852 196.351 123.152C196.513 123.452 196.594 123.803 196.594 124.205C196.594 124.619 196.504 124.982 196.324 125.294C196.15 125.6 195.901 125.837 195.577 126.005C195.253 126.173 194.869 126.257 194.425 126.257ZM200.275 126.176V119.831H201.058V123.719H201.085L203.092 121.748H204.064L201.679 124.07L201.688 123.71L204.28 126.176H203.29L201.085 124.115H201.058V126.176H200.275ZM205.057 126.176V121.748H205.786V122.72H205.759C205.837 122.516 205.945 122.336 206.083 122.18C206.227 122.018 206.398 121.892 206.596 121.802C206.794 121.712 207.013 121.667 207.253 121.667C207.643 121.667 207.958 121.763 208.198 121.955C208.444 122.141 208.603 122.396 208.675 122.72H208.63C208.744 122.414 208.933 122.162 209.197 121.964C209.467 121.766 209.797 121.667 210.187 121.667C210.523 121.667 210.805 121.733 211.033 121.865C211.261 121.991 211.432 122.186 211.546 122.45C211.666 122.708 211.726 123.038 211.726 123.44V126.176H210.952V123.485C210.952 123.101 210.883 122.813 210.745 122.621C210.607 122.423 210.364 122.324 210.016 122.324C209.758 122.324 209.536 122.384 209.35 122.504C209.164 122.624 209.02 122.786 208.918 122.99C208.822 123.194 208.774 123.428 208.774 123.692V126.176H208V123.485C208 123.101 207.922 122.813 207.766 122.621C207.616 122.423 207.382 122.324 207.064 122.324C206.812 122.324 206.593 122.387 206.407 122.513C206.221 122.639 206.077 122.804 205.975 123.008C205.879 123.212 205.831 123.434 205.831 123.674V126.176H205.057Z" fill="#8D8A94"/>
<circle cx="222" cy="123.176" r="1.5" fill="black"/>
<path d="M232.4 126.176V125.501H234.065V120.47L234.479 120.515L232.715 121.649L232.364 121.046L234.272 119.831H234.848V125.501H236.387V126.176H232.4ZM239.416 126.257C239.008 126.257 238.654 126.161 238.354 125.969C238.054 125.777 237.82 125.51 237.652 125.168C237.484 124.82 237.4 124.418 237.4 123.962C237.4 123.5 237.481 123.098 237.643 122.756C237.811 122.408 238.045 122.141 238.345 121.955C238.651 121.763 239.005 121.667 239.407 121.667C239.791 121.667 240.121 121.76 240.397 121.946C240.673 122.126 240.868 122.375 240.982 122.693H240.964V119.831H241.747V126.176H241.009V125.186H241.036C240.91 125.516 240.706 125.777 240.424 125.969C240.142 126.161 239.806 126.257 239.416 126.257ZM239.578 125.618C240.01 125.618 240.349 125.471 240.595 125.177C240.847 124.883 240.973 124.478 240.973 123.962C240.973 123.44 240.847 123.035 240.595 122.747C240.349 122.453 240.01 122.306 239.578 122.306C239.152 122.306 238.813 122.453 238.561 122.747C238.309 123.035 238.183 123.44 238.183 123.962C238.183 124.478 238.309 124.883 238.561 125.177C238.813 125.471 239.152 125.618 239.578 125.618ZM247.601 126.257C247.331 126.257 247.064 126.23 246.8 126.176C246.542 126.116 246.299 126.032 246.071 125.924C245.843 125.81 245.636 125.669 245.45 125.501L245.747 124.88C246.029 125.126 246.326 125.303 246.638 125.411C246.95 125.513 247.268 125.564 247.592 125.564C247.868 125.564 248.111 125.525 248.321 125.447C248.537 125.363 248.702 125.237 248.816 125.069C248.936 124.895 248.996 124.679 248.996 124.421C248.996 124.055 248.873 123.776 248.627 123.584C248.381 123.392 248.024 123.296 247.556 123.296H246.602V122.621H247.448C247.724 122.621 247.964 122.576 248.168 122.486C248.378 122.396 248.54 122.264 248.654 122.09C248.774 121.916 248.834 121.7 248.834 121.442C248.834 121.106 248.723 120.857 248.501 120.695C248.279 120.527 247.979 120.443 247.601 120.443C247.283 120.443 246.974 120.5 246.674 120.614C246.374 120.722 246.098 120.905 245.846 121.163L245.558 120.551C245.804 120.287 246.113 120.089 246.485 119.957C246.857 119.819 247.244 119.75 247.646 119.75C248.048 119.75 248.393 119.816 248.681 119.948C248.975 120.074 249.203 120.26 249.365 120.506C249.527 120.746 249.608 121.037 249.608 121.379C249.608 121.745 249.503 122.066 249.293 122.342C249.089 122.618 248.807 122.813 248.447 122.927V122.9C248.711 122.942 248.942 123.032 249.14 123.17C249.338 123.308 249.491 123.485 249.599 123.701C249.713 123.917 249.77 124.169 249.77 124.457C249.77 124.835 249.68 125.159 249.5 125.429C249.32 125.693 249.068 125.897 248.744 126.041C248.42 126.185 248.039 126.257 247.601 126.257ZM251.153 126.176V119.831H251.909V122.693H251.882C252.014 122.369 252.221 122.117 252.503 121.937C252.791 121.757 253.118 121.667 253.484 121.667C253.844 121.667 254.144 121.733 254.384 121.865C254.63 121.991 254.813 122.186 254.933 122.45C255.053 122.714 255.113 123.044 255.113 123.44V126.176H254.33V123.476C254.33 123.23 254.294 123.023 254.222 122.855C254.156 122.681 254.048 122.549 253.898 122.459C253.748 122.369 253.55 122.324 253.304 122.324C253.034 122.324 252.794 122.384 252.584 122.504C252.38 122.624 252.221 122.786 252.107 122.99C251.993 123.194 251.936 123.425 251.936 123.683V126.176H251.153Z" fill="#8D8A94"/>
<path d="M310.508 106.176V97.7158H311.552L314.876 103.908H314.504L317.804 97.7158H318.824V106.176H317.708V99.4798H317.972L315.056 104.88H314.3L311.348 99.4678H311.636V106.176H310.508ZM322.776 106.284C322.304 106.284 321.908 106.196 321.588 106.02C321.276 105.844 321.04 105.584 320.88 105.24C320.728 104.888 320.652 104.448 320.652 103.92V100.32H321.864V103.932C321.864 104.244 321.904 104.504 321.984 104.712C322.072 104.92 322.204 105.072 322.38 105.168C322.564 105.264 322.792 105.312 323.064 105.312C323.368 105.312 323.636 105.244 323.868 105.108C324.1 104.972 324.28 104.776 324.408 104.52C324.536 104.264 324.6 103.968 324.6 103.632V100.32H325.812V106.176H324.636V104.892H324.792C324.632 105.34 324.376 105.684 324.024 105.924C323.672 106.164 323.256 106.284 322.776 106.284ZM327.544 106.176V100.32H328.72V101.568H328.588C328.692 101.28 328.836 101.036 329.02 100.836C329.204 100.636 329.424 100.484 329.68 100.38C329.944 100.268 330.232 100.212 330.544 100.212C331.032 100.212 331.428 100.328 331.732 100.56C332.036 100.792 332.244 101.148 332.356 101.628H332.188C332.34 101.188 332.6 100.844 332.968 100.596C333.336 100.34 333.764 100.212 334.252 100.212C334.7 100.212 335.068 100.3 335.356 100.476C335.644 100.644 335.86 100.904 336.004 101.256C336.148 101.6 336.22 102.036 336.22 102.564V106.176H335.008V102.624C335.008 102.128 334.92 101.764 334.744 101.532C334.576 101.3 334.296 101.184 333.904 101.184C333.616 101.184 333.364 101.252 333.148 101.388C332.932 101.524 332.764 101.724 332.644 101.988C332.532 102.244 332.476 102.548 332.476 102.9V106.176H331.264V102.624C331.264 102.128 331.18 101.764 331.012 101.532C330.844 101.3 330.564 101.184 330.172 101.184C329.876 101.184 329.62 101.252 329.404 101.388C329.196 101.524 329.036 101.724 328.924 101.988C328.812 102.244 328.756 102.548 328.756 102.9V106.176H327.544ZM341.059 106.284C340.547 106.284 340.103 106.156 339.727 105.9C339.351 105.636 339.099 105.288 338.971 104.856H339.103V106.176H337.915V97.7158H339.127V101.604H338.983C339.111 101.18 339.363 100.844 339.739 100.596C340.115 100.34 340.555 100.212 341.059 100.212C341.587 100.212 342.043 100.336 342.427 100.584C342.811 100.832 343.107 101.18 343.315 101.628C343.531 102.076 343.639 102.616 343.639 103.248C343.639 103.864 343.531 104.404 343.315 104.868C343.107 105.324 342.807 105.676 342.415 105.924C342.031 106.164 341.579 106.284 341.059 106.284ZM340.759 105.348C341.263 105.348 341.663 105.168 341.959 104.808C342.263 104.448 342.415 103.928 342.415 103.248C342.415 102.56 342.263 102.04 341.959 101.688C341.663 101.336 341.263 101.16 340.759 101.16C340.263 101.16 339.863 101.336 339.559 101.688C339.255 102.04 339.103 102.56 339.103 103.248C339.103 103.928 339.255 104.448 339.559 104.808C339.863 105.168 340.263 105.348 340.759 105.348ZM346.876 106.284C346.468 106.284 346.1 106.204 345.772 106.044C345.452 105.884 345.2 105.668 345.016 105.396C344.832 105.124 344.74 104.816 344.74 104.472C344.74 104.04 344.848 103.7 345.064 103.452C345.288 103.196 345.652 103.016 346.156 102.912C346.668 102.8 347.356 102.744 348.22 102.744H348.784V103.488H348.232C347.8 103.488 347.436 103.504 347.14 103.536C346.844 103.568 346.608 103.62 346.432 103.692C346.256 103.756 346.128 103.848 346.048 103.968C345.976 104.088 345.94 104.232 345.94 104.4C345.94 104.704 346.044 104.952 346.252 105.144C346.46 105.328 346.748 105.42 347.116 105.42C347.412 105.42 347.672 105.352 347.896 105.216C348.12 105.072 348.296 104.88 348.424 104.64C348.56 104.4 348.628 104.124 348.628 103.812V102.432C348.628 101.976 348.532 101.648 348.34 101.448C348.148 101.248 347.832 101.148 347.392 101.148C347.056 101.148 346.72 101.2 346.384 101.304C346.048 101.4 345.704 101.556 345.352 101.772L344.98 100.92C345.188 100.776 345.428 100.652 345.7 100.548C345.972 100.444 346.256 100.364 346.552 100.308C346.856 100.244 347.148 100.212 347.428 100.212C347.964 100.212 348.404 100.296 348.748 100.464C349.1 100.632 349.36 100.888 349.528 101.232C349.696 101.576 349.78 102.02 349.78 102.564V106.176H348.64V104.868H348.748C348.684 105.164 348.564 105.42 348.388 105.636C348.22 105.844 348.008 106.004 347.752 106.116C347.496 106.228 347.204 106.284 346.876 106.284ZM351.342 98.9638V97.7038H352.758V98.9638H351.342ZM351.45 106.176V100.32H352.662V106.176H351.45ZM354.836 107.652L354.308 107.244C354.468 107.076 354.588 106.92 354.668 106.776C354.756 106.632 354.816 106.488 354.848 106.344C354.888 106.2 354.908 106.056 354.908 105.912L355.172 106.176H354.224V104.748H355.652V105.72C355.652 105.96 355.624 106.188 355.568 106.404C355.52 106.62 355.436 106.828 355.316 107.028C355.204 107.236 355.044 107.444 354.836 107.652ZM360.524 106.176V97.7158H361.568L364.892 103.908H364.52L367.82 97.7158H368.84V106.176H367.724V99.4798H367.988L365.072 104.88H364.316L361.364 99.4678H361.652V106.176H360.524ZM370.704 106.176V97.7158H371.916V101.568H371.748C371.924 101.12 372.2 100.784 372.576 100.56C372.952 100.328 373.384 100.212 373.872 100.212C374.336 100.212 374.72 100.3 375.024 100.476C375.336 100.644 375.568 100.904 375.72 101.256C375.872 101.6 375.948 102.036 375.948 102.564V106.176H374.736V102.636C374.736 102.3 374.692 102.028 374.604 101.82C374.516 101.604 374.384 101.444 374.208 101.34C374.032 101.236 373.804 101.184 373.524 101.184C373.204 101.184 372.92 101.252 372.672 101.388C372.432 101.524 372.244 101.72 372.108 101.976C371.98 102.232 371.916 102.528 371.916 102.864V106.176H370.704Z" fill="#444050"/>
<path d="M310.418 123.176V116.831H311.246L313.595 121.43H313.487L315.836 116.831H316.655V123.176H315.908V117.929H315.989L313.82 122.177H313.262L311.066 117.929H311.156V123.176H310.418ZM319.791 123.257C319.485 123.257 319.206 123.2 318.954 123.086C318.708 122.966 318.513 122.804 318.369 122.6C318.231 122.396 318.162 122.168 318.162 121.916C318.162 121.58 318.252 121.316 318.432 121.124C318.618 120.926 318.909 120.788 319.305 120.71C319.701 120.626 320.214 120.584 320.844 120.584H321.429V121.115H320.871C320.523 121.115 320.226 121.127 319.98 121.151C319.734 121.175 319.533 121.214 319.377 121.268C319.227 121.322 319.116 121.4 319.044 121.502C318.972 121.598 318.936 121.721 318.936 121.871C318.936 122.117 319.029 122.309 319.215 122.447C319.401 122.585 319.641 122.654 319.935 122.654C320.187 122.654 320.415 122.594 320.619 122.474C320.829 122.354 320.994 122.195 321.114 121.997C321.24 121.799 321.303 121.58 321.303 121.34V120.314C321.303 119.96 321.21 119.702 321.024 119.54C320.838 119.378 320.556 119.297 320.178 119.297C319.914 119.297 319.653 119.336 319.395 119.414C319.137 119.486 318.87 119.603 318.594 119.765L318.342 119.198C318.516 119.084 318.708 118.988 318.918 118.91C319.128 118.832 319.344 118.772 319.566 118.73C319.794 118.688 320.016 118.667 320.232 118.667C320.616 118.667 320.943 118.727 321.213 118.847C321.489 118.967 321.699 119.153 321.843 119.405C321.987 119.657 322.059 119.984 322.059 120.386V123.176H321.357V122.186H321.375C321.303 122.39 321.192 122.573 321.042 122.735C320.898 122.897 320.721 123.026 320.511 123.122C320.301 123.212 320.061 123.257 319.791 123.257ZM323.589 123.176V118.748H324.309V119.774H324.291C324.399 119.438 324.585 119.177 324.849 118.991C325.113 118.805 325.446 118.7 325.848 118.676L326.208 118.649L326.28 119.36L325.677 119.405C325.263 119.441 324.942 119.579 324.714 119.819C324.486 120.053 324.372 120.35 324.372 120.71V123.176H323.589ZM329.671 123.176V122.591L331.885 120.251C332.101 120.023 332.269 119.816 332.389 119.63C332.515 119.438 332.602 119.255 332.65 119.081C332.704 118.901 332.731 118.721 332.731 118.541C332.731 118.187 332.62 117.917 332.398 117.731C332.176 117.539 331.864 117.443 331.462 117.443C331.156 117.443 330.859 117.503 330.571 117.623C330.283 117.737 330.01 117.917 329.752 118.163L329.455 117.551C329.713 117.299 330.022 117.104 330.382 116.966C330.748 116.822 331.129 116.75 331.525 116.75C331.939 116.75 332.293 116.819 332.587 116.957C332.887 117.095 333.115 117.296 333.271 117.56C333.433 117.818 333.514 118.127 333.514 118.487C333.514 118.679 333.493 118.865 333.451 119.045C333.409 119.225 333.343 119.405 333.253 119.585C333.163 119.759 333.046 119.939 332.902 120.125C332.764 120.311 332.599 120.503 332.407 120.701L330.616 122.582V122.492H333.775V123.176H329.671ZM336.931 123.257C336.661 123.257 336.394 123.23 336.13 123.176C335.872 123.116 335.629 123.032 335.401 122.924C335.173 122.81 334.966 122.669 334.78 122.501L335.077 121.88C335.359 122.126 335.656 122.303 335.968 122.411C336.28 122.513 336.598 122.564 336.922 122.564C337.198 122.564 337.441 122.525 337.651 122.447C337.867 122.363 338.032 122.237 338.146 122.069C338.266 121.895 338.326 121.679 338.326 121.421C338.326 121.055 338.203 120.776 337.957 120.584C337.711 120.392 337.354 120.296 336.886 120.296H335.932V119.621H336.778C337.054 119.621 337.294 119.576 337.498 119.486C337.708 119.396 337.87 119.264 337.984 119.09C338.104 118.916 338.164 118.7 338.164 118.442C338.164 118.106 338.053 117.857 337.831 117.695C337.609 117.527 337.309 117.443 336.931 117.443C336.613 117.443 336.304 117.5 336.004 117.614C335.704 117.722 335.428 117.905 335.176 118.163L334.888 117.551C335.134 117.287 335.443 117.089 335.815 116.957C336.187 116.819 336.574 116.75 336.976 116.75C337.378 116.75 337.723 116.816 338.011 116.948C338.305 117.074 338.533 117.26 338.695 117.506C338.857 117.746 338.938 118.037 338.938 118.379C338.938 118.745 338.833 119.066 338.623 119.342C338.419 119.618 338.137 119.813 337.777 119.927V119.9C338.041 119.942 338.272 120.032 338.47 120.17C338.668 120.308 338.821 120.485 338.929 120.701C339.043 120.917 339.1 121.169 339.1 121.457C339.1 121.835 339.01 122.159 338.83 122.429C338.65 122.693 338.398 122.897 338.074 123.041C337.75 123.185 337.369 123.257 336.931 123.257ZM340.77 124.409L340.392 124.103C340.5 123.995 340.584 123.881 340.644 123.761C340.704 123.641 340.746 123.518 340.77 123.392C340.8 123.266 340.818 123.146 340.824 123.032L340.977 123.176H340.338V122.204H341.337V122.924C341.337 123.098 341.319 123.272 341.283 123.446C341.247 123.626 341.187 123.797 341.103 123.959C341.025 124.121 340.914 124.271 340.77 124.409ZM345.193 123.176V122.591L347.407 120.251C347.623 120.023 347.791 119.816 347.911 119.63C348.037 119.438 348.124 119.255 348.172 119.081C348.226 118.901 348.253 118.721 348.253 118.541C348.253 118.187 348.142 117.917 347.92 117.731C347.698 117.539 347.386 117.443 346.984 117.443C346.678 117.443 346.381 117.503 346.093 117.623C345.805 117.737 345.532 117.917 345.274 118.163L344.977 117.551C345.235 117.299 345.544 117.104 345.904 116.966C346.27 116.822 346.651 116.75 347.047 116.75C347.461 116.75 347.815 116.819 348.109 116.957C348.409 117.095 348.637 117.296 348.793 117.56C348.955 117.818 349.036 118.127 349.036 118.487C349.036 118.679 349.015 118.865 348.973 119.045C348.931 119.225 348.865 119.405 348.775 119.585C348.685 119.759 348.568 119.939 348.424 120.125C348.286 120.311 348.121 120.503 347.929 120.701L346.138 122.582V122.492H349.297V123.176H345.193ZM352.533 123.257C352.047 123.257 351.636 123.134 351.3 122.888C350.97 122.636 350.718 122.27 350.544 121.79C350.376 121.304 350.292 120.707 350.292 119.999C350.292 119.291 350.376 118.697 350.544 118.217C350.718 117.731 350.97 117.365 351.3 117.119C351.636 116.873 352.047 116.75 352.533 116.75C353.025 116.75 353.436 116.873 353.766 117.119C354.102 117.365 354.354 117.728 354.522 118.208C354.69 118.688 354.774 119.282 354.774 119.99C354.774 120.698 354.687 121.295 354.513 121.781C354.345 122.267 354.093 122.636 353.757 122.888C353.427 123.134 353.019 123.257 352.533 123.257ZM352.533 122.573C353.031 122.573 353.4 122.363 353.64 121.943C353.88 121.523 354 120.872 354 119.99C354 119.108 353.88 118.463 353.64 118.055C353.4 117.641 353.031 117.434 352.533 117.434C352.041 117.434 351.672 117.641 351.426 118.055C351.186 118.469 351.066 119.117 351.066 119.999C351.066 120.875 351.186 121.523 351.426 121.943C351.666 122.363 352.035 122.573 352.533 122.573ZM355.985 123.176V122.591L358.199 120.251C358.415 120.023 358.583 119.816 358.703 119.63C358.829 119.438 358.916 119.255 358.964 119.081C359.018 118.901 359.045 118.721 359.045 118.541C359.045 118.187 358.934 117.917 358.712 117.731C358.49 117.539 358.178 117.443 357.776 117.443C357.47 117.443 357.173 117.503 356.885 117.623C356.597 117.737 356.324 117.917 356.066 118.163L355.769 117.551C356.027 117.299 356.336 117.104 356.696 116.966C357.062 116.822 357.443 116.75 357.839 116.75C358.253 116.75 358.607 116.819 358.901 116.957C359.201 117.095 359.429 117.296 359.585 117.56C359.747 117.818 359.828 118.127 359.828 118.487C359.828 118.679 359.807 118.865 359.765 119.045C359.723 119.225 359.657 119.405 359.567 119.585C359.477 119.759 359.36 119.939 359.216 120.125C359.078 120.311 358.913 120.503 358.721 120.701L356.93 122.582V122.492H360.089V123.176H355.985ZM363.542 123.257C363.032 123.257 362.6 123.134 362.246 122.888C361.898 122.642 361.631 122.288 361.445 121.826C361.259 121.364 361.166 120.803 361.166 120.143C361.166 119.417 361.268 118.802 361.472 118.298C361.676 117.794 361.97 117.41 362.354 117.146C362.738 116.882 363.2 116.75 363.74 116.75C363.974 116.75 364.199 116.78 364.415 116.84C364.637 116.9 364.844 116.987 365.036 117.101C365.228 117.215 365.402 117.353 365.558 117.515L365.27 118.127C365.042 117.881 364.799 117.707 364.541 117.605C364.283 117.497 364.013 117.443 363.731 117.443C363.437 117.443 363.176 117.5 362.948 117.614C362.726 117.722 362.537 117.887 362.381 118.109C362.225 118.325 362.105 118.595 362.021 118.919C361.943 119.237 361.904 119.609 361.904 120.035V120.638H361.886C361.934 120.338 362.039 120.08 362.201 119.864C362.363 119.648 362.567 119.48 362.813 119.36C363.065 119.24 363.335 119.18 363.623 119.18C364.007 119.18 364.343 119.267 364.631 119.441C364.925 119.609 365.153 119.846 365.315 120.152C365.483 120.452 365.567 120.8 365.567 121.196C365.567 121.592 365.48 121.946 365.306 122.258C365.138 122.57 364.901 122.816 364.595 122.996C364.289 123.17 363.938 123.257 363.542 123.257ZM363.497 122.591C363.761 122.591 363.992 122.534 364.19 122.42C364.394 122.3 364.55 122.138 364.658 121.934C364.772 121.724 364.829 121.484 364.829 121.214C364.829 120.944 364.772 120.707 364.658 120.503C364.55 120.299 364.394 120.14 364.19 120.026C363.992 119.906 363.761 119.846 363.497 119.846C363.227 119.846 362.99 119.906 362.786 120.026C362.588 120.14 362.429 120.299 362.309 120.503C362.195 120.707 362.138 120.944 362.138 121.214C362.138 121.484 362.195 121.724 362.309 121.934C362.423 122.138 362.582 122.3 362.786 122.42C362.99 122.534 363.227 122.591 363.497 122.591ZM371.192 123.257C370.706 123.257 370.295 123.134 369.959 122.888C369.629 122.636 369.377 122.27 369.203 121.79C369.035 121.304 368.951 120.707 368.951 119.999C368.951 119.291 369.035 118.697 369.203 118.217C369.377 117.731 369.629 117.365 369.959 117.119C370.295 116.873 370.706 116.75 371.192 116.75C371.684 116.75 372.095 116.873 372.425 117.119C372.761 117.365 373.013 117.728 373.181 118.208C373.349 118.688 373.433 119.282 373.433 119.99C373.433 120.698 373.346 121.295 373.172 121.781C373.004 122.267 372.752 122.636 372.416 122.888C372.086 123.134 371.678 123.257 371.192 123.257ZM371.192 122.573C371.69 122.573 372.059 122.363 372.299 121.943C372.539 121.523 372.659 120.872 372.659 119.99C372.659 119.108 372.539 118.463 372.299 118.055C372.059 117.641 371.69 117.434 371.192 117.434C370.7 117.434 370.331 117.641 370.085 118.055C369.845 118.469 369.725 119.117 369.725 119.999C369.725 120.875 369.845 121.523 370.085 121.943C370.325 122.363 370.694 122.573 371.192 122.573ZM376.508 123.257C376.238 123.257 375.971 123.23 375.707 123.176C375.449 123.116 375.206 123.032 374.978 122.924C374.75 122.81 374.543 122.669 374.357 122.501L374.654 121.88C374.936 122.126 375.233 122.303 375.545 122.411C375.857 122.513 376.175 122.564 376.499 122.564C376.775 122.564 377.018 122.525 377.228 122.447C377.444 122.363 377.609 122.237 377.723 122.069C377.843 121.895 377.903 121.679 377.903 121.421C377.903 121.055 377.78 120.776 377.534 120.584C377.288 120.392 376.931 120.296 376.463 120.296H375.509V119.621H376.355C376.631 119.621 376.871 119.576 377.075 119.486C377.285 119.396 377.447 119.264 377.561 119.09C377.681 118.916 377.741 118.7 377.741 118.442C377.741 118.106 377.63 117.857 377.408 117.695C377.186 117.527 376.886 117.443 376.508 117.443C376.19 117.443 375.881 117.5 375.581 117.614C375.281 117.722 375.005 117.905 374.753 118.163L374.465 117.551C374.711 117.287 375.02 117.089 375.392 116.957C375.764 116.819 376.151 116.75 376.553 116.75C376.955 116.75 377.3 116.816 377.588 116.948C377.882 117.074 378.11 117.26 378.272 117.506C378.434 117.746 378.515 118.037 378.515 118.379C378.515 118.745 378.41 119.066 378.2 119.342C377.996 119.618 377.714 119.813 377.354 119.927V119.9C377.618 119.942 377.849 120.032 378.047 120.17C378.245 120.308 378.398 120.485 378.506 120.701C378.62 120.917 378.677 121.169 378.677 121.457C378.677 121.835 378.587 122.159 378.407 122.429C378.227 122.693 377.975 122.897 377.651 123.041C377.327 123.185 376.946 123.257 376.508 123.257ZM379.915 119.702V118.748H380.914V119.702H379.915ZM379.915 123.176V122.222H380.914V123.176H379.915ZM384.244 123.257C383.758 123.257 383.347 123.134 383.011 122.888C382.681 122.636 382.429 122.27 382.255 121.79C382.087 121.304 382.003 120.707 382.003 119.999C382.003 119.291 382.087 118.697 382.255 118.217C382.429 117.731 382.681 117.365 383.011 117.119C383.347 116.873 383.758 116.75 384.244 116.75C384.736 116.75 385.147 116.873 385.477 117.119C385.813 117.365 386.065 117.728 386.233 118.208C386.401 118.688 386.485 119.282 386.485 119.99C386.485 120.698 386.398 121.295 386.224 121.781C386.056 122.267 385.804 122.636 385.468 122.888C385.138 123.134 384.73 123.257 384.244 123.257ZM384.244 122.573C384.742 122.573 385.111 122.363 385.351 121.943C385.591 121.523 385.711 120.872 385.711 119.99C385.711 119.108 385.591 118.463 385.351 118.055C385.111 117.641 384.742 117.434 384.244 117.434C383.752 117.434 383.383 117.641 383.137 118.055C382.897 118.469 382.777 119.117 382.777 119.999C382.777 120.875 382.897 121.523 383.137 121.943C383.377 122.363 383.746 122.573 384.244 122.573ZM389.64 123.257C389.154 123.257 388.743 123.134 388.407 122.888C388.077 122.636 387.825 122.27 387.651 121.79C387.483 121.304 387.399 120.707 387.399 119.999C387.399 119.291 387.483 118.697 387.651 118.217C387.825 117.731 388.077 117.365 388.407 117.119C388.743 116.873 389.154 116.75 389.64 116.75C390.132 116.75 390.543 116.873 390.873 117.119C391.209 117.365 391.461 117.728 391.629 118.208C391.797 118.688 391.881 119.282 391.881 119.99C391.881 120.698 391.794 121.295 391.62 121.781C391.452 122.267 391.2 122.636 390.864 122.888C390.534 123.134 390.126 123.257 389.64 123.257ZM389.64 122.573C390.138 122.573 390.507 122.363 390.747 121.943C390.987 121.523 391.107 120.872 391.107 119.99C391.107 119.108 390.987 118.463 390.747 118.055C390.507 117.641 390.138 117.434 389.64 117.434C389.148 117.434 388.779 117.641 388.533 118.055C388.293 118.469 388.173 119.117 388.173 119.999C388.173 120.875 388.293 121.523 388.533 121.943C388.773 122.363 389.142 122.573 389.64 122.573ZM395.707 123.176V116.831H398.29C398.746 116.831 399.133 116.906 399.451 117.056C399.769 117.206 400.012 117.425 400.18 117.713C400.348 117.995 400.432 118.337 400.432 118.739C400.432 119.141 400.345 119.486 400.171 119.774C400.003 120.062 399.76 120.284 399.442 120.44C399.124 120.59 398.74 120.665 398.29 120.665H396.49V123.176H395.707ZM396.49 119.999H398.182C398.662 119.999 399.025 119.894 399.271 119.684C399.517 119.474 399.64 119.162 399.64 118.748C399.64 118.328 399.517 118.016 399.271 117.812C399.025 117.602 398.662 117.497 398.182 117.497H396.49V119.999ZM401.78 123.176V116.831H402.608L404.957 121.43H404.849L407.198 116.831H408.017V123.176H407.27V117.929H407.351L405.182 122.177H404.624L402.428 117.929H402.518V123.176H401.78Z" fill="#8D8A94"/>
<path d="M19.6731 174V167.303H22.3897C22.8646 167.303 23.2699 167.383 23.6055 167.541C23.9411 167.699 24.1976 167.93 24.3749 168.234C24.5522 168.532 24.6409 168.893 24.6409 169.317C24.6409 169.741 24.5522 170.106 24.3749 170.409C24.1976 170.713 23.9411 170.948 23.6055 171.112C23.2699 171.271 22.8646 171.35 22.3897 171.35H20.4899V174H19.6731ZM20.4899 170.647H22.2757C22.7823 170.647 23.1654 170.536 23.425 170.315C23.6847 170.093 23.8145 169.764 23.8145 169.327C23.8145 168.877 23.6847 168.545 23.425 168.329C23.1654 168.108 22.7823 167.997 22.2757 167.997H20.4899V170.647ZM25.7829 174V169.336H26.5428V170.419H26.5143C26.6282 170.064 26.8214 169.789 27.0937 169.593C27.3723 169.396 27.7238 169.282 28.148 169.251L28.5185 169.232L28.585 169.963L27.9771 170.02C27.5401 170.058 27.2013 170.201 26.9607 170.447C26.7201 170.688 26.5997 171.002 26.5997 171.388V174H25.7829ZM31.4695 174.085C31.0072 174.085 30.6051 173.987 30.2631 173.791C29.9212 173.588 29.6552 173.307 29.4652 172.946C29.2816 172.578 29.1898 172.151 29.1898 171.663C29.1898 171.176 29.2816 170.751 29.4652 170.391C29.6552 170.03 29.9212 169.751 30.2631 169.555C30.6051 169.352 31.0072 169.251 31.4695 169.251C31.9381 169.251 32.3402 169.352 32.6758 169.555C33.0177 169.751 33.2805 170.03 33.4642 170.391C33.6542 170.751 33.7491 171.176 33.7491 171.663C33.7491 172.151 33.6542 172.578 33.4642 172.946C33.2805 173.307 33.0177 173.588 32.6758 173.791C32.3402 173.987 31.9381 174.085 31.4695 174.085ZM31.4695 173.402C31.9191 173.402 32.2737 173.25 32.5333 172.946C32.7993 172.635 32.9323 172.208 32.9323 171.663C32.9323 171.112 32.7993 170.685 32.5333 170.381C32.2737 170.077 31.9191 169.925 31.4695 169.925C31.0198 169.925 30.6621 170.077 30.3961 170.381C30.1365 170.685 30.0067 171.112 30.0067 171.663C30.0067 172.208 30.1365 172.635 30.3961 172.946C30.6621 173.25 31.0198 173.402 31.4695 173.402ZM37.1011 175.795C36.7149 175.795 36.3412 175.741 35.9803 175.634C35.6193 175.526 35.3059 175.371 35.0399 175.168L35.3059 174.551C35.4895 174.671 35.6763 174.773 35.8663 174.855C36.0563 174.944 36.2526 175.007 36.4552 175.045C36.6642 175.089 36.87 175.111 37.0726 175.111C37.5539 175.111 37.9212 174.988 38.1745 174.741C38.4341 174.5 38.5639 174.152 38.5639 173.696V172.756H38.5829C38.4753 173.091 38.2695 173.364 37.9655 173.573C37.6679 173.775 37.3196 173.877 36.9207 173.877C36.4901 173.877 36.1133 173.782 35.7903 173.592C35.4674 173.395 35.2172 173.123 35.0399 172.775C34.8626 172.426 34.774 172.021 34.774 171.559C34.774 171.097 34.8626 170.691 35.0399 170.343C35.2172 169.995 35.4674 169.726 35.7903 169.536C36.1133 169.346 36.4901 169.251 36.9207 169.251C37.3259 169.251 37.6774 169.355 37.975 169.564C38.279 169.767 38.4848 170.042 38.5924 170.391H38.5639V169.336H39.3428V173.611C39.3428 174.073 39.2542 174.465 39.0769 174.788C38.8995 175.118 38.6431 175.368 38.3075 175.539C37.9782 175.71 37.5761 175.795 37.1011 175.795ZM37.0726 173.212C37.5222 173.212 37.88 173.063 38.146 172.765C38.412 172.461 38.5449 172.059 38.5449 171.559C38.5449 171.059 38.412 170.66 38.146 170.362C37.88 170.064 37.5222 169.916 37.0726 169.916C36.6167 169.916 36.2558 170.064 35.9898 170.362C35.7238 170.66 35.5908 171.059 35.5908 171.559C35.5908 172.059 35.7238 172.461 35.9898 172.765C36.2558 173.063 36.6167 173.212 37.0726 173.212ZM40.9399 174V169.336H41.6998V170.419H41.6713C41.7853 170.064 41.9785 169.789 42.2508 169.593C42.5294 169.396 42.8808 169.282 43.3051 169.251L43.6756 169.232L43.742 169.963L43.1341 170.02C42.6972 170.058 42.3584 170.201 42.1178 170.447C41.8771 170.688 41.7568 171.002 41.7568 171.388V174H40.9399ZM46.826 174.085C46.3131 174.085 45.8698 173.991 45.4962 173.801C45.1289 173.604 44.8439 173.326 44.6413 172.965C44.445 172.604 44.3468 172.173 44.3468 171.673C44.3468 171.198 44.4418 170.78 44.6318 170.419C44.8218 170.052 45.0877 169.767 45.4297 169.564C45.7716 169.355 46.1738 169.251 46.636 169.251C47.0856 169.251 47.4656 169.346 47.7759 169.536C48.0862 169.726 48.3236 169.995 48.4883 170.343C48.6529 170.691 48.7352 171.109 48.7352 171.597V171.872H44.9643V171.312H48.2033L48.0323 171.473C48.0323 170.96 47.912 170.565 47.6714 170.286C47.4371 170.007 47.0951 169.868 46.6455 169.868C46.3416 169.868 46.0756 169.941 45.8476 170.087C45.6197 170.226 45.4424 170.422 45.3157 170.675C45.1954 170.929 45.1352 171.23 45.1352 171.578V171.654C45.1352 172.04 45.2017 172.366 45.3347 172.632C45.4677 172.892 45.6608 173.088 45.9141 173.221C46.1674 173.354 46.4745 173.421 46.8355 173.421C47.0951 173.421 47.3579 173.383 47.6239 173.307C47.8899 173.224 48.14 173.088 48.3743 172.898L48.6402 173.487C48.4186 173.683 48.1432 173.832 47.8139 173.934C47.4846 174.035 47.1553 174.085 46.826 174.085ZM51.6835 174.085C51.4365 174.085 51.1895 174.06 50.9426 174.009C50.7019 173.965 50.4803 173.902 50.2777 173.82C50.075 173.731 49.9009 173.623 49.7552 173.497L50.0117 172.917C50.17 173.044 50.341 173.145 50.5246 173.221C50.7146 173.297 50.9077 173.354 51.104 173.392C51.3067 173.424 51.4998 173.44 51.6835 173.44C52.0634 173.44 52.3547 173.379 52.5573 173.259C52.7663 173.132 52.8708 172.958 52.8708 172.737C52.8708 172.553 52.8075 172.414 52.6808 172.319C52.5605 172.217 52.361 172.138 52.0824 172.081L51.142 171.91C50.7241 171.828 50.4106 171.682 50.2017 171.473C49.9927 171.258 49.8882 170.979 49.8882 170.637C49.8882 170.359 49.9642 170.115 50.1162 169.906C50.2682 169.697 50.4866 169.536 50.7716 169.422C51.0565 169.308 51.3922 169.251 51.7784 169.251C52.0001 169.251 52.2186 169.273 52.4339 169.317C52.6555 169.361 52.8613 169.428 53.0513 169.517C53.2412 169.599 53.3996 169.703 53.5262 169.83L53.2507 170.409C53.1241 170.289 52.9784 170.191 52.8138 170.115C52.6492 170.039 52.4782 169.985 52.3009 169.954C52.1236 169.916 51.9494 169.897 51.7784 169.897C51.4175 169.897 51.1389 169.963 50.9426 170.096C50.7463 170.223 50.6481 170.397 50.6481 170.618C50.6481 170.796 50.7051 170.938 50.8191 171.046C50.9331 171.147 51.1167 171.223 51.37 171.274L52.2914 171.454C52.741 171.543 53.0766 171.689 53.2982 171.891C53.5199 172.088 53.6307 172.36 53.6307 172.708C53.6307 172.993 53.5484 173.24 53.3837 173.449C53.2254 173.652 53.0006 173.81 52.7093 173.924C52.418 174.032 52.0761 174.085 51.6835 174.085Z" fill="#737682"/>
<path d="M61.5228 175.111C60.8727 175.111 60.3186 174.959 59.8606 174.656C59.4099 174.346 59.0664 173.903 58.8299 173.327C58.5935 172.75 58.4753 172.052 58.4753 171.232C58.4753 170.346 58.6083 169.596 58.8743 168.983C59.1402 168.362 59.5244 167.889 60.0268 167.564C60.5292 167.239 61.1313 167.077 61.8331 167.077C62.1139 167.077 62.3909 167.113 62.6642 167.187C62.945 167.254 63.2073 167.354 63.4511 167.487C63.6949 167.612 63.9165 167.767 64.116 167.952L63.6394 169.027C63.3661 168.768 63.0743 168.58 62.764 168.462C62.4537 168.344 62.1397 168.284 61.822 168.284C61.497 168.284 61.2088 168.344 60.9576 168.462C60.7139 168.573 60.507 168.742 60.3371 168.972C60.1671 169.193 60.0379 169.474 59.9492 169.814C59.8679 170.146 59.8273 170.53 59.8273 170.966V171.731H59.7165C59.783 171.361 59.9086 171.047 60.0933 170.789C60.2854 170.53 60.5255 170.335 60.8136 170.202C61.1091 170.061 61.4305 169.991 61.7777 169.991C62.2357 169.991 62.6384 170.098 62.9856 170.312C63.3328 170.527 63.6062 170.822 63.8057 171.199C64.0051 171.576 64.1049 172.008 64.1049 172.496C64.1049 172.998 63.9941 173.449 63.7724 173.847C63.5582 174.239 63.2553 174.549 62.8637 174.778C62.4795 175 62.0326 175.111 61.5228 175.111ZM61.4452 173.969C61.7112 173.969 61.9439 173.91 62.1434 173.792C62.3503 173.674 62.5091 173.508 62.6199 173.293C62.7307 173.079 62.7861 172.828 62.7861 172.54C62.7861 172.259 62.7307 172.015 62.6199 171.808C62.5091 171.594 62.3503 171.428 62.1434 171.31C61.9439 171.184 61.7112 171.121 61.4452 171.121C61.1793 171.121 60.9429 171.184 60.736 171.31C60.5365 171.428 60.3777 171.594 60.2595 171.808C60.1487 172.015 60.0933 172.259 60.0933 172.54C60.0933 172.828 60.1487 173.079 60.2595 173.293C60.3777 173.508 60.5365 173.674 60.736 173.792C60.9429 173.91 61.1793 173.969 61.4452 173.969ZM67.8794 175.111C67.2662 175.111 66.7454 174.956 66.3169 174.645C65.8884 174.328 65.5633 173.873 65.3417 173.282C65.1275 172.684 65.0203 171.949 65.0203 171.077C65.0203 170.205 65.1275 169.474 65.3417 168.883C65.5633 168.284 65.8884 167.834 66.3169 167.531C66.7454 167.228 67.2662 167.077 67.8794 167.077C68.5 167.077 69.0246 167.228 69.4531 167.531C69.8816 167.834 70.2029 168.281 70.4172 168.872C70.6314 169.463 70.7385 170.194 70.7385 171.066C70.7385 171.93 70.6277 172.665 70.4061 173.271C70.1918 173.87 69.8705 174.328 69.442 174.645C69.0209 174.956 68.5 175.111 67.8794 175.111ZM67.8794 173.925C68.3818 173.925 68.7512 173.696 68.9876 173.238C69.2314 172.78 69.3533 172.056 69.3533 171.066C69.3533 170.083 69.2314 169.37 68.9876 168.927C68.7512 168.484 68.3818 168.262 67.8794 168.262C67.3845 168.262 67.0151 168.484 66.7713 168.927C66.5275 169.37 66.4056 170.087 66.4056 171.077C66.4056 172.06 66.5275 172.78 66.7713 173.238C67.0151 173.696 67.3845 173.925 67.8794 173.925ZM74.6461 175.31L73.7263 174.778L78.292 166.877L79.2007 167.409L74.6461 175.31ZM73.6709 171.853C73.2572 171.853 72.8989 171.757 72.596 171.565C72.3004 171.373 72.0751 171.099 71.92 170.745C71.7648 170.383 71.6872 169.954 71.6872 169.459C71.6872 168.72 71.8609 168.14 72.2081 167.719C72.5627 167.291 73.0503 167.077 73.6709 167.077C74.0846 167.077 74.4392 167.173 74.7347 167.365C75.0376 167.557 75.2667 167.83 75.4218 168.185C75.5843 168.539 75.6656 168.964 75.6656 169.459C75.6656 169.954 75.5843 170.383 75.4218 170.745C75.2667 171.099 75.0376 171.373 74.7347 171.565C74.4392 171.757 74.0846 171.853 73.6709 171.853ZM73.6709 170.922C73.9369 170.922 74.1437 170.804 74.2915 170.567C74.4466 170.323 74.5242 169.954 74.5242 169.459C74.5242 168.964 74.4466 168.598 74.2915 168.362C74.1437 168.126 73.9369 168.007 73.6709 168.007C73.4049 168.007 73.1944 168.126 73.0392 168.362C72.8915 168.591 72.8176 168.957 72.8176 169.459C72.8176 169.961 72.8915 170.331 73.0392 170.567C73.1944 170.804 73.4049 170.922 73.6709 170.922ZM79.2672 175.111C78.8535 175.111 78.4952 175.015 78.1923 174.823C77.8967 174.631 77.6677 174.357 77.5052 174.003C77.35 173.641 77.2725 173.212 77.2725 172.717C77.2725 171.978 77.4498 171.398 77.8044 170.977C78.159 170.549 78.6466 170.335 79.2672 170.335C79.6809 170.335 80.0355 170.431 80.331 170.623C80.6266 170.815 80.8519 171.088 81.007 171.443C81.1696 171.797 81.2508 172.222 81.2508 172.717C81.2508 173.212 81.1696 173.641 81.007 174.003C80.8519 174.357 80.6266 174.631 80.331 174.823C80.0355 175.015 79.6809 175.111 79.2672 175.111ZM79.2672 174.18C79.5332 174.18 79.74 174.062 79.8878 173.825C80.0429 173.582 80.1205 173.212 80.1205 172.717C80.1205 172.222 80.0429 171.856 79.8878 171.62C79.74 171.384 79.5332 171.265 79.2672 171.265C78.9938 171.265 78.7796 171.384 78.6245 171.62C78.4767 171.849 78.4028 172.215 78.4028 172.717C78.4028 173.22 78.4767 173.589 78.6245 173.825C78.7796 174.062 78.9938 174.18 79.2672 174.18Z" fill="black"/>
<path d="M95.3642 173.126C95.0539 173.126 94.769 173.053 94.5094 172.908C94.2497 172.756 94.0407 172.553 93.8824 172.3C93.7241 172.046 93.645 171.761 93.645 171.445C93.645 171.154 93.7178 170.881 93.8634 170.628C94.0154 170.368 94.2212 170.159 94.4809 170.001C94.7405 169.836 95.0349 169.754 95.3642 169.754C95.6682 169.754 95.95 169.827 96.2096 169.973C96.4756 170.118 96.6877 170.321 96.846 170.58C97.0043 170.834 97.0835 171.122 97.0835 171.445C97.0835 171.755 97.0043 172.037 96.846 172.29C96.694 172.544 96.4882 172.746 96.2286 172.898C95.969 173.05 95.6809 173.126 95.3642 173.126ZM103.421 174V167.303H107.733V168.006H104.228V170.248H107.534V170.96H104.228V173.297H107.733V174H103.421ZM110.797 174V168.025H108.375V167.303H114.036V168.025H111.623V174H110.797ZM113.711 174L116.656 167.303H117.387L120.332 174H119.477L118.66 172.091L119.059 172.328H114.984L115.383 172.091L114.566 174H113.711ZM117.007 168.253L115.497 171.815L115.259 171.635H118.774L118.546 171.815L117.036 168.253H117.007ZM121.234 170.334V169.336H122.288V170.334H121.234ZM121.234 174V173.003H122.288V174H121.234Z" fill="#737682"/>
<path d="M127.563 175V173.814H129.38V168.384L130.078 168.406L127.973 169.681L127.408 168.628L129.79 167.187H130.81V173.814H132.505V175H127.563ZM133.675 171.099V169.559H135.271V171.099H133.675ZM133.675 175V173.449H135.271V175H133.675ZM136.755 175V173.947L139.293 171.243C139.529 170.999 139.714 170.778 139.847 170.578C139.98 170.372 140.079 170.172 140.146 169.98C140.212 169.788 140.246 169.599 140.246 169.415C140.246 169.045 140.127 168.765 139.891 168.573C139.655 168.38 139.319 168.284 138.883 168.284C138.543 168.284 138.207 168.351 137.874 168.484C137.542 168.609 137.22 168.809 136.91 169.082L136.434 168.007C136.751 167.727 137.143 167.501 137.608 167.331C138.074 167.161 138.558 167.077 139.06 167.077C139.621 167.077 140.094 167.165 140.478 167.342C140.863 167.512 141.154 167.76 141.354 168.085C141.561 168.41 141.664 168.805 141.664 169.271C141.664 169.507 141.635 169.74 141.576 169.969C141.524 170.191 141.439 170.412 141.321 170.634C141.21 170.848 141.066 171.073 140.888 171.31C140.719 171.539 140.512 171.775 140.268 172.019L138.251 174.125V173.814H141.952V175H136.755ZM145.849 175.111C145.236 175.111 144.715 174.956 144.286 174.645C143.858 174.328 143.533 173.873 143.311 173.282C143.097 172.684 142.99 171.949 142.99 171.077C142.99 170.205 143.097 169.474 143.311 168.883C143.533 168.284 143.858 167.834 144.286 167.531C144.715 167.228 145.236 167.077 145.849 167.077C146.469 167.077 146.994 167.228 147.422 167.531C147.851 167.834 148.172 168.281 148.386 168.872C148.601 169.463 148.708 170.194 148.708 171.066C148.708 171.93 148.597 172.665 148.375 173.271C148.161 173.87 147.84 174.328 147.411 174.645C146.99 174.956 146.469 175.111 145.849 175.111ZM145.849 173.925C146.351 173.925 146.721 173.696 146.957 173.238C147.201 172.78 147.323 172.056 147.323 171.066C147.323 170.083 147.201 169.37 146.957 168.927C146.721 168.484 146.351 168.262 145.849 168.262C145.354 168.262 144.984 168.484 144.741 168.927C144.497 169.37 144.375 170.087 144.375 171.077C144.375 172.06 144.497 172.78 144.741 173.238C144.984 173.696 145.354 173.925 145.849 173.925ZM153.129 175V167.187H156.554C157.122 167.187 157.606 167.283 158.005 167.475C158.412 167.668 158.718 167.945 158.925 168.307C159.132 168.669 159.235 169.108 159.235 169.625C159.235 170.135 159.132 170.575 158.925 170.944C158.718 171.313 158.412 171.598 158.005 171.797C157.606 171.989 157.122 172.085 156.554 172.085H154.559V175H153.129ZM154.559 170.944H156.321C156.823 170.944 157.2 170.833 157.451 170.612C157.71 170.39 157.839 170.065 157.839 169.636C157.839 169.201 157.71 168.875 157.451 168.661C157.2 168.44 156.823 168.329 156.321 168.329H154.559V170.944ZM160.51 175V167.187H161.785L164.644 172.529H164.356L167.193 167.187H168.456V175H167.137V169.326H167.337L164.921 173.792H164.045L161.607 169.315H161.829V175H160.51Z" fill="black"/>
<path d="M382.234 174.5V167.803H384.656C385.384 167.803 386.002 167.933 386.508 168.193C387.021 168.453 387.411 168.832 387.677 169.333C387.943 169.827 388.076 170.431 388.076 171.147C388.076 171.863 387.943 172.47 387.677 172.971C387.411 173.471 387.021 173.851 386.508 174.111C386.002 174.37 385.384 174.5 384.656 174.5H382.234ZM383.25 173.626H384.59C385.394 173.626 385.999 173.42 386.404 173.009C386.816 172.597 387.021 171.977 387.021 171.147C387.021 170.317 386.816 169.7 386.404 169.295C385.999 168.883 385.394 168.677 384.59 168.677H383.25V173.626ZM391.755 174.585C391.223 174.585 390.764 174.491 390.378 174.301C389.998 174.104 389.704 173.826 389.495 173.465C389.292 173.097 389.191 172.664 389.191 172.163C389.191 171.688 389.289 171.27 389.485 170.909C389.682 170.542 389.954 170.254 390.302 170.045C390.657 169.836 391.072 169.732 391.546 169.732C391.996 169.732 392.379 169.827 392.696 170.017C393.019 170.207 393.266 170.479 393.437 170.834C393.608 171.188 393.693 171.609 393.693 172.097V172.42H389.979V171.783H393L392.838 171.945C392.838 171.464 392.727 171.096 392.506 170.843C392.291 170.59 391.977 170.463 391.565 170.463C391.274 170.463 391.024 170.526 390.815 170.653C390.606 170.78 390.445 170.963 390.331 171.204C390.217 171.438 390.16 171.72 390.16 172.049V172.144C390.16 172.512 390.22 172.819 390.34 173.066C390.467 173.306 390.65 173.487 390.891 173.607C391.138 173.727 391.432 173.788 391.774 173.788C392.034 173.788 392.294 173.753 392.553 173.683C392.819 173.607 393.066 173.48 393.294 173.303L393.598 174.006C393.37 174.196 393.088 174.342 392.753 174.443C392.417 174.538 392.085 174.585 391.755 174.585ZM396.954 174.585C396.352 174.585 395.903 174.434 395.605 174.13C395.308 173.819 395.159 173.379 395.159 172.809V170.625H394.237V169.817H395.187V168.44H396.175V169.817H397.752V170.625H396.175V172.733C396.175 173.069 396.248 173.322 396.394 173.493C396.546 173.658 396.783 173.74 397.106 173.74C397.22 173.74 397.331 173.727 397.438 173.702C397.552 173.677 397.663 173.645 397.771 173.607L397.932 174.377C397.806 174.446 397.654 174.497 397.476 174.528C397.299 174.566 397.125 174.585 396.954 174.585ZM400.309 174.585C399.974 174.585 399.673 174.522 399.407 174.396C399.147 174.269 398.942 174.098 398.79 173.883C398.638 173.661 398.562 173.414 398.562 173.142C398.562 172.793 398.657 172.518 398.847 172.315C399.037 172.106 399.337 171.958 399.749 171.869C400.167 171.774 400.711 171.726 401.383 171.726H401.962V172.363H401.421C401.079 172.363 400.791 172.375 400.556 172.401C400.322 172.42 400.129 172.458 399.977 172.515C399.831 172.565 399.724 172.638 399.654 172.733C399.591 172.828 399.559 172.945 399.559 173.085C399.559 173.325 399.648 173.512 399.825 173.645C400.002 173.778 400.233 173.845 400.518 173.845C400.765 173.845 400.984 173.788 401.174 173.674C401.37 173.56 401.525 173.408 401.639 173.218C401.759 173.021 401.82 172.806 401.82 172.572V171.498C401.82 171.15 401.728 170.9 401.544 170.748C401.367 170.596 401.091 170.52 400.718 170.52C400.446 170.52 400.173 170.558 399.901 170.634C399.629 170.71 399.347 170.834 399.056 171.004L398.752 170.292C398.942 170.172 399.147 170.07 399.369 169.988C399.597 169.906 399.834 169.842 400.081 169.798C400.328 169.754 400.569 169.732 400.803 169.732C401.228 169.732 401.589 169.798 401.886 169.931C402.184 170.064 402.409 170.267 402.561 170.539C402.719 170.811 402.798 171.166 402.798 171.603V174.5H401.896V173.484H401.924C401.848 173.699 401.737 173.889 401.592 174.054C401.446 174.218 401.266 174.348 401.05 174.443C400.835 174.538 400.588 174.585 400.309 174.585ZM404.185 168.753V167.699H405.372V168.753H404.185ZM404.28 174.5V169.817H405.287V174.5H404.28ZM408.304 174.585C407.804 174.585 407.424 174.446 407.165 174.168C406.911 173.889 406.785 173.487 406.785 172.961V167.803H407.791V172.885C407.791 173.075 407.82 173.237 407.877 173.37C407.934 173.496 408.013 173.594 408.114 173.664C408.222 173.734 408.355 173.769 408.513 173.769C408.596 173.769 408.675 173.765 408.751 173.759C408.833 173.746 408.912 173.727 408.988 173.702L409.007 174.491C408.893 174.522 408.779 174.544 408.665 174.557C408.558 174.576 408.437 174.585 408.304 174.585ZM411.547 174.585C411.281 174.585 411.024 174.563 410.777 174.519C410.53 174.475 410.302 174.411 410.093 174.329C409.884 174.247 409.704 174.145 409.552 174.025L409.837 173.332C410.002 173.439 410.179 173.531 410.369 173.607C410.559 173.683 410.752 173.74 410.948 173.778C411.151 173.81 411.347 173.826 411.537 173.826C411.892 173.826 412.161 173.772 412.345 173.664C412.535 173.556 412.63 173.404 412.63 173.208C412.63 173.037 412.573 172.911 412.459 172.828C412.351 172.74 412.17 172.67 411.917 172.619L410.948 172.448C410.524 172.372 410.204 172.227 409.989 172.011C409.78 171.79 409.675 171.508 409.675 171.166C409.675 170.881 409.755 170.631 409.913 170.416C410.071 170.2 410.299 170.032 410.597 169.912C410.894 169.792 411.246 169.732 411.651 169.732C411.879 169.732 412.104 169.754 412.326 169.798C412.547 169.836 412.753 169.896 412.943 169.979C413.139 170.061 413.304 170.165 413.437 170.292L413.133 170.985C413.006 170.872 412.861 170.78 412.696 170.71C412.531 170.64 412.357 170.587 412.174 170.549C411.996 170.511 411.822 170.492 411.651 170.492C411.309 170.492 411.046 170.549 410.863 170.663C410.685 170.777 410.597 170.935 410.597 171.137C410.597 171.296 410.647 171.422 410.749 171.517C410.856 171.606 411.024 171.669 411.252 171.707L412.202 171.888C412.658 171.97 412.997 172.116 413.218 172.325C413.44 172.534 413.551 172.812 413.551 173.161C413.551 173.458 413.469 173.715 413.304 173.93C413.139 174.139 412.905 174.301 412.601 174.415C412.303 174.528 411.952 174.585 411.547 174.585Z" fill="black"/>
<path d="M418.967 169.928L420.502 171.464L422.038 169.928C422.192 169.774 422.442 169.774 422.596 169.928C422.75 170.083 422.75 170.332 422.596 170.486L420.779 172.303C420.625 172.457 420.376 172.457 420.221 172.303L418.405 170.486C418.25 170.332 418.25 170.083 418.405 169.928C418.559 169.778 418.812 169.774 418.967 169.928Z" fill="black"/>
</g>
<defs>
<filter id="filter0_d_7234_33607" x="-65.12" y="-53.28" width="574.24" height="324.037" filterUnits="userSpaceOnUse" color-interpolation-filters="sRGB">
<feFlood flood-opacity="0" result="BackgroundImageFix"/>
<feColorMatrix in="SourceAlpha" type="matrix" values="0 0 0 0 0 0 0 0 0 0 0 0 0 0 0 0 0 0 127 0" result="hardAlpha"/>
<feOffset dy="11.84"/>
<feGaussianBlur stdDeviation="32.56"/>
<feComposite in2="hardAlpha" operator="out"/>
<feColorMatrix type="matrix" values="0 0 0 0 0 0 0 0 0 0 0 0 0 0 0 0 0 0 0.04 0"/>
<feBlend mode="normal" in2="BackgroundImageFix" result="effect1_dropShadow_7234_33607"/>
<feBlend mode="normal" in="SourceGraphic" in2="effect1_dropShadow_7234_33607" result="shape"/>
</filter>
</defs>
</svg>
