<svg width="338" height="280" viewBox="0 0 338 280" fill="none" xmlns="http://www.w3.org/2000/svg">
<rect x="0.5" y="0.5" width="336.333" height="279" rx="11.5" fill="#F5F5F6"/>
<rect x="0.5" y="0.5" width="336.333" height="279" rx="11.5" stroke="#EAEAEC"/>
<rect x="40.332" y="62.5234" width="256" height="154" rx="12" fill="white"/>
<rect x="58.332" y="79.5234" width="28" height="28" rx="8" fill="#FFF0E1"/>
<path d="M72.3307 90.1908C72.6974 90.1908 72.9974 90.4908 72.9974 90.8574V93.5241C72.9974 93.8908 72.6974 94.1908 72.3307 94.1908C71.9641 94.1908 71.6641 93.8908 71.6641 93.5241V90.8574C71.6641 90.4908 71.9641 90.1908 72.3307 90.1908ZM72.3241 86.8574C68.6441 86.8574 65.6641 89.8441 65.6641 93.5241C65.6641 97.2041 68.6441 100.191 72.3241 100.191C76.0107 100.191 78.9974 97.2041 78.9974 93.5241C78.9974 89.8441 76.0107 86.8574 72.3241 86.8574ZM72.3307 98.8574C69.3841 98.8574 66.9974 96.4708 66.9974 93.5241C66.9974 90.5774 69.3841 88.1908 72.3307 88.1908C75.2774 88.1908 77.6641 90.5774 77.6641 93.5241C77.6641 96.4708 75.2774 98.8574 72.3307 98.8574ZM72.9974 96.8574H71.6641V95.5241H72.9974V96.8574Z" fill="#FF9F43"/>
<path d="M93.466 98.5234L93.942 96.1154H92.948V94.9954H94.152L94.726 92.0694H93.242V90.9494H94.922L95.384 88.6534H96.602L96.14 90.9494H97.904L98.366 88.6534H99.584L99.122 90.9494H100.116V92.0694H98.912L98.338 94.9954H99.822V96.1154H98.142L97.666 98.5234H96.448L96.924 96.1154H95.16L94.684 98.5234H93.466ZM95.37 94.9954H97.12L97.694 92.0694H95.944L95.37 94.9954ZM101.805 98.5234V88.6534H108.371V90.0814H103.527V92.7974H108.063V94.2254H103.527V97.0954H108.371V98.5234H101.805ZM109.038 98.5234L112.244 94.5754V95.4014L109.22 91.6774H111.264L113.224 94.1834H112.608L114.568 91.6774H116.612L113.588 95.3874V94.6034L116.794 98.5234H114.736L112.608 95.8354H113.196L111.082 98.5234H109.038ZM120.619 98.6634C119.9 98.6634 119.275 98.5188 118.743 98.2294C118.211 97.9308 117.8 97.5108 117.511 96.9694C117.222 96.4281 117.077 95.7934 117.077 95.0654C117.077 94.3374 117.222 93.7121 117.511 93.1894C117.8 92.6574 118.211 92.2514 118.743 91.9714C119.275 91.6821 119.9 91.5374 120.619 91.5374C121.058 91.5374 121.492 91.6074 121.921 91.7474C122.35 91.8874 122.705 92.0834 122.985 92.3354L122.467 93.5534C122.224 93.3388 121.949 93.1754 121.641 93.0634C121.342 92.9514 121.053 92.8954 120.773 92.8954C120.166 92.8954 119.695 93.0868 119.359 93.4694C119.032 93.8428 118.869 94.3794 118.869 95.0794C118.869 95.7701 119.032 96.3161 119.359 96.7174C119.695 97.1094 120.166 97.3054 120.773 97.3054C121.044 97.3054 121.333 97.2494 121.641 97.1374C121.949 97.0254 122.224 96.8574 122.467 96.6334L122.985 97.8654C122.705 98.1081 122.346 98.3041 121.907 98.4534C121.478 98.5934 121.048 98.6634 120.619 98.6634ZM127.296 98.6634C126.521 98.6634 125.854 98.5188 125.294 98.2294C124.734 97.9401 124.3 97.5294 123.992 96.9974C123.693 96.4654 123.544 95.8354 123.544 95.1074C123.544 94.3981 123.688 93.7774 123.978 93.2454C124.276 92.7134 124.682 92.2981 125.196 91.9994C125.718 91.6914 126.311 91.5374 126.974 91.5374C127.627 91.5374 128.187 91.6774 128.654 91.9574C129.12 92.2374 129.48 92.6341 129.732 93.1474C129.993 93.6608 130.124 94.2721 130.124 94.9814V95.4994H124.958V94.4914H128.892L128.668 94.7014C128.668 94.0668 128.528 93.5814 128.248 93.2454C127.968 92.9001 127.566 92.7274 127.044 92.7274C126.652 92.7274 126.316 92.8208 126.036 93.0074C125.765 93.1848 125.555 93.4414 125.406 93.7774C125.266 94.1041 125.196 94.4961 125.196 94.9534V95.0514C125.196 95.5648 125.275 95.9894 125.434 96.3254C125.592 96.6614 125.83 96.9134 126.148 97.0814C126.465 97.2494 126.857 97.3334 127.324 97.3334C127.706 97.3334 128.089 97.2774 128.472 97.1654C128.854 97.0441 129.204 96.8574 129.522 96.6054L130.012 97.7814C129.685 98.0521 129.274 98.2668 128.78 98.4254C128.285 98.5841 127.79 98.6634 127.296 98.6634ZM131.51 101.043V91.6774H133.218V93.1194H133.078C133.218 92.6434 133.502 92.2608 133.932 91.9714C134.37 91.6821 134.879 91.5374 135.458 91.5374C136.055 91.5374 136.578 91.6821 137.026 91.9714C137.483 92.2608 137.838 92.6714 138.09 93.2034C138.342 93.7261 138.468 94.3561 138.468 95.0934C138.468 95.8214 138.342 96.4561 138.09 96.9974C137.838 97.5294 137.488 97.9401 137.04 98.2294C136.592 98.5188 136.064 98.6634 135.458 98.6634C134.888 98.6634 134.389 98.5234 133.96 98.2434C133.53 97.9541 133.241 97.5808 133.092 97.1234H133.26V101.043H131.51ZM134.968 97.3334C135.49 97.3334 135.91 97.1468 136.228 96.7734C136.545 96.3908 136.704 95.8308 136.704 95.0934C136.704 94.3468 136.545 93.7914 136.228 93.4274C135.91 93.0541 135.49 92.8674 134.968 92.8674C134.445 92.8674 134.025 93.0541 133.708 93.4274C133.39 93.7914 133.232 94.3468 133.232 95.0934C133.232 95.8308 133.39 96.3908 133.708 96.7734C134.025 97.1468 134.445 97.3334 134.968 97.3334ZM142.972 98.6634C142.057 98.6634 141.376 98.4348 140.928 97.9774C140.48 97.5201 140.256 96.8528 140.256 95.9754V92.9934H138.94V91.6774H140.256V89.6334H142.006V91.6774H144.078V92.9934H142.006V95.8774C142.006 96.3254 142.104 96.6614 142.3 96.8854C142.496 97.1094 142.813 97.2214 143.252 97.2214C143.382 97.2214 143.518 97.2074 143.658 97.1794C143.798 97.1421 143.942 97.1048 144.092 97.0674L144.358 98.3554C144.19 98.4488 143.975 98.5234 143.714 98.5794C143.462 98.6354 143.214 98.6634 142.972 98.6634ZM145.097 90.2074V88.4994H147.057V90.2074H145.097ZM145.209 98.5234V91.6774H146.959V98.5234H145.209ZM151.899 98.6634C151.19 98.6634 150.574 98.5188 150.051 98.2294C149.529 97.9401 149.123 97.5294 148.833 96.9974C148.544 96.4561 148.399 95.8214 148.399 95.0934C148.399 94.3654 148.544 93.7354 148.833 93.2034C149.123 92.6714 149.529 92.2608 150.051 91.9714C150.574 91.6821 151.19 91.5374 151.899 91.5374C152.609 91.5374 153.225 91.6821 153.747 91.9714C154.27 92.2608 154.676 92.6714 154.965 93.2034C155.255 93.7354 155.399 94.3654 155.399 95.0934C155.399 95.8214 155.255 96.4561 154.965 96.9974C154.676 97.5294 154.27 97.9401 153.747 98.2294C153.225 98.5188 152.609 98.6634 151.899 98.6634ZM151.899 97.3334C152.422 97.3334 152.842 97.1468 153.159 96.7734C153.477 96.3908 153.635 95.8308 153.635 95.0934C153.635 94.3468 153.477 93.7914 153.159 93.4274C152.842 93.0541 152.422 92.8674 151.899 92.8674C151.377 92.8674 150.957 93.0541 150.639 93.4274C150.322 93.7914 150.163 94.3468 150.163 95.0934C150.163 95.8308 150.322 96.3908 150.639 96.7734C150.957 97.1468 151.377 97.3334 151.899 97.3334ZM156.844 98.5234V91.6774H158.552V93.0494H158.398C158.603 92.5548 158.92 92.1814 159.35 91.9294C159.788 91.6681 160.283 91.5374 160.834 91.5374C161.384 91.5374 161.837 91.6401 162.192 91.8454C162.546 92.0508 162.812 92.3634 162.99 92.7834C163.167 93.1941 163.256 93.7168 163.256 94.3514V98.5234H161.506V94.4354C161.506 94.0808 161.459 93.7914 161.366 93.5674C161.282 93.3434 161.146 93.1801 160.96 93.0774C160.782 92.9654 160.554 92.9094 160.274 92.9094C159.938 92.9094 159.644 92.9841 159.392 93.1334C159.14 93.2734 158.944 93.4788 158.804 93.7494C158.664 94.0108 158.594 94.3188 158.594 94.6734V98.5234H156.844ZM168.974 98.5234V88.6534H172.642C173.744 88.6534 174.677 88.8448 175.442 89.2274C176.217 89.6101 176.805 90.1701 177.206 90.9074C177.617 91.6354 177.822 92.5268 177.822 93.5814C177.822 94.6361 177.617 95.5321 177.206 96.2694C176.805 97.0068 176.217 97.5668 175.442 97.9494C174.677 98.3321 173.744 98.5234 172.642 98.5234H168.974ZM170.766 97.0394H172.53C173.678 97.0394 174.532 96.7548 175.092 96.1854C175.662 95.6068 175.946 94.7388 175.946 93.5814C175.946 92.4241 175.662 91.5608 175.092 90.9914C174.523 90.4221 173.669 90.1374 172.53 90.1374H170.766V97.0394ZM182.845 98.6634C182.07 98.6634 181.403 98.5188 180.843 98.2294C180.283 97.9401 179.849 97.5294 179.541 96.9974C179.242 96.4654 179.093 95.8354 179.093 95.1074C179.093 94.3981 179.237 93.7774 179.527 93.2454C179.825 92.7134 180.231 92.2981 180.745 91.9994C181.267 91.6914 181.86 91.5374 182.523 91.5374C183.176 91.5374 183.736 91.6774 184.203 91.9574C184.669 92.2374 185.029 92.6341 185.281 93.1474C185.542 93.6608 185.673 94.2721 185.673 94.9814V95.4994H180.507V94.4914H184.441L184.217 94.7014C184.217 94.0668 184.077 93.5814 183.797 93.2454C183.517 92.9001 183.115 92.7274 182.593 92.7274C182.201 92.7274 181.865 92.8208 181.585 93.0074C181.314 93.1848 181.104 93.4414 180.955 93.7774C180.815 94.1041 180.745 94.4961 180.745 94.9534V95.0514C180.745 95.5648 180.824 95.9894 180.983 96.3254C181.141 96.6614 181.379 96.9134 181.697 97.0814C182.014 97.2494 182.406 97.3334 182.873 97.3334C183.255 97.3334 183.638 97.2774 184.021 97.1654C184.403 97.0441 184.753 96.8574 185.071 96.6054L185.561 97.7814C185.234 98.0521 184.823 98.2668 184.329 98.4254C183.834 98.5841 183.339 98.6634 182.845 98.6634ZM190.167 98.6634C189.252 98.6634 188.571 98.4348 188.123 97.9774C187.675 97.5201 187.451 96.8528 187.451 95.9754V92.9934H186.135V91.6774H187.451V89.6334H189.201V91.6774H191.273V92.9934H189.201V95.8774C189.201 96.3254 189.299 96.6614 189.495 96.8854C189.691 97.1094 190.008 97.2214 190.447 97.2214C190.578 97.2214 190.713 97.2074 190.853 97.1794C190.993 97.1421 191.138 97.1048 191.287 97.0674L191.553 98.3554C191.385 98.4488 191.17 98.5234 190.909 98.5794C190.657 98.6354 190.41 98.6634 190.167 98.6634ZM195.71 98.6634C194.935 98.6634 194.268 98.5188 193.708 98.2294C193.148 97.9401 192.714 97.5294 192.406 96.9974C192.107 96.4654 191.958 95.8354 191.958 95.1074C191.958 94.3981 192.102 93.7774 192.392 93.2454C192.69 92.7134 193.096 92.2981 193.61 91.9994C194.132 91.6914 194.725 91.5374 195.388 91.5374C196.041 91.5374 196.601 91.6774 197.068 91.9574C197.534 92.2374 197.894 92.6341 198.146 93.1474C198.407 93.6608 198.538 94.2721 198.538 94.9814V95.4994H193.372V94.4914H197.306L197.082 94.7014C197.082 94.0668 196.942 93.5814 196.662 93.2454C196.382 92.9001 195.98 92.7274 195.458 92.7274C195.066 92.7274 194.73 92.8208 194.45 93.0074C194.179 93.1848 193.969 93.4414 193.82 93.7774C193.68 94.1041 193.61 94.4961 193.61 94.9534V95.0514C193.61 95.5648 193.689 95.9894 193.848 96.3254C194.006 96.6614 194.244 96.9134 194.562 97.0814C194.879 97.2494 195.271 97.3334 195.738 97.3334C196.12 97.3334 196.503 97.2774 196.886 97.1654C197.268 97.0441 197.618 96.8574 197.936 96.6054L198.426 97.7814C198.099 98.0521 197.688 98.2668 197.194 98.4254C196.699 98.5841 196.204 98.6634 195.71 98.6634ZM203.088 98.6634C202.369 98.6634 201.744 98.5188 201.212 98.2294C200.68 97.9308 200.269 97.5108 199.98 96.9694C199.69 96.4281 199.546 95.7934 199.546 95.0654C199.546 94.3374 199.69 93.7121 199.98 93.1894C200.269 92.6574 200.68 92.2514 201.212 91.9714C201.744 91.6821 202.369 91.5374 203.088 91.5374C203.526 91.5374 203.96 91.6074 204.39 91.7474C204.819 91.8874 205.174 92.0834 205.454 92.3354L204.936 93.5534C204.693 93.3388 204.418 93.1754 204.11 93.0634C203.811 92.9514 203.522 92.8954 203.242 92.8954C202.635 92.8954 202.164 93.0868 201.828 93.4694C201.501 93.8428 201.338 94.3794 201.338 95.0794C201.338 95.7701 201.501 96.3161 201.828 96.7174C202.164 97.1094 202.635 97.3054 203.242 97.3054C203.512 97.3054 203.802 97.2494 204.11 97.1374C204.418 97.0254 204.693 96.8574 204.936 96.6334L205.454 97.8654C205.174 98.1081 204.814 98.3041 204.376 98.4534C203.946 98.5934 203.517 98.6634 203.088 98.6634ZM209.691 98.6634C208.776 98.6634 208.095 98.4348 207.647 97.9774C207.199 97.5201 206.975 96.8528 206.975 95.9754V92.9934H205.659V91.6774H206.975V89.6334H208.725V91.6774H210.797V92.9934H208.725V95.8774C208.725 96.3254 208.823 96.6614 209.019 96.8854C209.215 97.1094 209.532 97.2214 209.971 97.2214C210.101 97.2214 210.237 97.2074 210.377 97.1794C210.517 97.1421 210.661 97.1048 210.811 97.0674L211.077 98.3554C210.909 98.4488 210.694 98.5234 210.433 98.5794C210.181 98.6354 209.933 98.6634 209.691 98.6634ZM215.233 98.6634C214.459 98.6634 213.791 98.5188 213.231 98.2294C212.671 97.9401 212.237 97.5294 211.929 96.9974C211.631 96.4654 211.481 95.8354 211.481 95.1074C211.481 94.3981 211.626 93.7774 211.915 93.2454C212.214 92.7134 212.62 92.2981 213.133 91.9994C213.656 91.6914 214.249 91.5374 214.911 91.5374C215.565 91.5374 216.125 91.6774 216.591 91.9574C217.058 92.2374 217.417 92.6341 217.669 93.1474C217.931 93.6608 218.061 94.2721 218.061 94.9814V95.4994H212.895V94.4914H216.829L216.605 94.7014C216.605 94.0668 216.465 93.5814 216.185 93.2454C215.905 92.9001 215.504 92.7274 214.981 92.7274C214.589 92.7274 214.253 92.8208 213.973 93.0074C213.703 93.1848 213.493 93.4414 213.343 93.7774C213.203 94.1041 213.133 94.4961 213.133 94.9534V95.0514C213.133 95.5648 213.213 95.9894 213.371 96.3254C213.53 96.6614 213.768 96.9134 214.085 97.0814C214.403 97.2494 214.795 97.3334 215.261 97.3334C215.644 97.3334 216.027 97.2774 216.409 97.1654C216.792 97.0441 217.142 96.8574 217.459 96.6054L217.949 97.7814C217.623 98.0521 217.212 98.2668 216.717 98.4254C216.223 98.5841 215.728 98.6634 215.233 98.6634ZM222.079 98.6634C221.482 98.6634 220.954 98.5188 220.497 98.2294C220.049 97.9401 219.699 97.5294 219.447 96.9974C219.195 96.4561 219.069 95.8214 219.069 95.0934C219.069 94.3561 219.195 93.7261 219.447 93.2034C219.699 92.6714 220.049 92.2608 220.497 91.9714C220.954 91.6821 221.482 91.5374 222.079 91.5374C222.648 91.5374 223.143 91.6774 223.563 91.9574C223.992 92.2374 224.282 92.6061 224.431 93.0634H224.277V88.6534H226.027V98.5234H224.319V97.0674H224.445C224.305 97.5528 224.02 97.9401 223.591 98.2294C223.162 98.5188 222.658 98.6634 222.079 98.6634ZM222.569 97.3334C223.092 97.3334 223.512 97.1468 223.829 96.7734C224.146 96.3908 224.305 95.8308 224.305 95.0934C224.305 94.3468 224.146 93.7914 223.829 93.4274C223.512 93.0541 223.092 92.8674 222.569 92.8674C222.046 92.8674 221.626 93.0541 221.309 93.4274C220.992 93.7914 220.833 94.3468 220.833 95.0934C220.833 95.8308 220.992 96.3908 221.309 96.7734C221.626 97.1468 222.046 97.3334 222.569 97.3334Z" fill="black"/>
<path d="M58.332 120.523H278.352" stroke="#EAEAEC" stroke-linecap="round"/>
<path d="M59.352 144.523L59.772 142.399H58.8V141.571H59.928L60.444 138.919H59.052V138.091H60.588L60.996 136.063H61.884L61.476 138.091H63.204L63.612 136.063H64.5L64.092 138.091H65.064V138.919H63.936L63.42 141.571H64.812V142.399H63.276L62.856 144.523H61.968L62.388 142.399H60.66L60.24 144.523H59.352ZM60.816 141.571H62.532L63.048 138.919H61.332L60.816 141.571ZM70.4713 144.631C69.5513 144.631 68.7753 144.459 68.1433 144.115C67.5113 143.763 67.0313 143.263 66.7033 142.615C66.3833 141.967 66.2233 141.195 66.2233 140.299C66.2233 139.403 66.3873 138.631 66.7153 137.983C67.0513 137.335 67.5273 136.835 68.1433 136.483C68.7673 136.131 69.5153 135.955 70.3873 135.955C70.7873 135.955 71.1673 135.995 71.5273 136.075C71.8873 136.147 72.2193 136.259 72.5233 136.411C72.8353 136.563 73.1073 136.751 73.3393 136.975L72.8953 137.947C72.5193 137.627 72.1273 137.399 71.7193 137.263C71.3193 137.119 70.8753 137.047 70.3873 137.047C69.4513 137.047 68.7393 137.331 68.2513 137.899C67.7633 138.459 67.5193 139.259 67.5193 140.299C67.5193 141.363 67.7713 142.171 68.2753 142.723C68.7793 143.275 69.5273 143.551 70.5193 143.551C70.8793 143.551 71.2313 143.519 71.5753 143.455C71.9273 143.383 72.2633 143.283 72.5833 143.155L72.3313 143.779V140.983H70.2673V140.047H73.3753V144.031C73.1433 144.151 72.8633 144.255 72.5353 144.343C72.2153 144.431 71.8753 144.499 71.5153 144.547C71.1633 144.603 70.8153 144.631 70.4713 144.631ZM75.2887 144.523V136.063H78.7927C79.7047 136.063 80.4087 136.279 80.9047 136.711C81.4007 137.143 81.6487 137.755 81.6487 138.547C81.6487 139.059 81.5367 139.499 81.3127 139.867C81.0887 140.235 80.7607 140.515 80.3287 140.707C79.9047 140.899 79.3927 140.995 78.7927 140.995L78.9007 140.827H79.2127C79.5327 140.827 79.8087 140.907 80.0407 141.067C80.2807 141.227 80.4967 141.483 80.6887 141.835L82.1527 144.523H80.7847L79.3207 141.823C79.2087 141.615 79.0847 141.455 78.9487 141.343C78.8207 141.223 78.6687 141.143 78.4927 141.103C78.3247 141.055 78.1247 141.031 77.8927 141.031H76.5367V144.523H75.2887ZM76.5367 140.095H78.5887C79.1967 140.095 79.6567 139.967 79.9687 139.711C80.2807 139.455 80.4367 139.075 80.4367 138.571C80.4367 138.075 80.2807 137.699 79.9687 137.443C79.6567 137.187 79.1967 137.059 78.5887 137.059H76.5367V140.095ZM85.9452 144.523L82.2132 136.063H83.5452L86.7372 143.467H86.2932L89.4732 136.063H90.7452L87.0132 144.523H85.9452ZM90.9416 141.811V140.827H94.3976V141.811H90.9416ZM98.9781 144.631C98.6101 144.631 98.2501 144.591 97.8981 144.511C97.5541 144.431 97.2301 144.319 96.9261 144.175C96.6221 144.031 96.3581 143.855 96.1341 143.647L96.5541 142.687C96.9381 142.991 97.3261 143.215 97.7181 143.359C98.1101 143.503 98.5221 143.575 98.9541 143.575C99.5061 143.575 99.9381 143.427 100.25 143.131C100.562 142.835 100.718 142.439 100.718 141.943C100.718 141.439 100.57 141.027 100.274 140.707C99.9781 140.387 99.5661 140.227 99.0381 140.227C98.6621 140.227 98.3261 140.303 98.0301 140.455C97.7421 140.607 97.4821 140.839 97.2501 141.151H96.3861V136.063H101.426V137.107H97.5981V140.155H97.2621C97.4781 139.851 97.7621 139.615 98.1141 139.447C98.4741 139.279 98.8701 139.195 99.3021 139.195C99.8381 139.195 100.302 139.307 100.694 139.531C101.086 139.755 101.39 140.071 101.606 140.479C101.822 140.879 101.93 141.347 101.93 141.883C101.93 142.427 101.81 142.907 101.57 143.323C101.33 143.731 100.99 144.051 100.55 144.283C100.11 144.515 99.5861 144.631 98.9781 144.631ZM105.909 144.631C105.533 144.631 105.165 144.595 104.805 144.523C104.453 144.443 104.121 144.331 103.809 144.187C103.505 144.035 103.237 143.855 103.005 143.647L103.437 142.687C103.813 142.991 104.201 143.215 104.601 143.359C105.001 143.503 105.425 143.575 105.873 143.575C106.257 143.575 106.581 143.519 106.845 143.407C107.109 143.295 107.305 143.131 107.433 142.915C107.569 142.699 107.637 142.439 107.637 142.135C107.637 141.679 107.485 141.339 107.181 141.115C106.885 140.883 106.453 140.767 105.885 140.767H104.577V139.723H105.765C106.109 139.723 106.401 139.667 106.641 139.555C106.881 139.435 107.065 139.271 107.193 139.063C107.329 138.847 107.397 138.587 107.397 138.283C107.397 137.875 107.261 137.563 106.989 137.347C106.725 137.123 106.337 137.011 105.825 137.011C105.393 137.011 104.993 137.087 104.625 137.239C104.257 137.391 103.909 137.623 103.581 137.935L103.149 136.987C103.477 136.659 103.885 136.407 104.373 136.231C104.869 136.047 105.385 135.955 105.921 135.955C106.481 135.955 106.961 136.043 107.361 136.219C107.769 136.395 108.077 136.647 108.285 136.975C108.501 137.303 108.609 137.695 108.609 138.151C108.609 138.663 108.465 139.107 108.177 139.483C107.897 139.851 107.509 140.095 107.013 140.215V140.083C107.405 140.147 107.737 140.275 108.009 140.467C108.281 140.659 108.489 140.903 108.633 141.199C108.777 141.495 108.849 141.835 108.849 142.219C108.849 142.715 108.729 143.147 108.489 143.515C108.257 143.875 107.921 144.151 107.481 144.343C107.041 144.535 106.517 144.631 105.909 144.631ZM113.237 144.631C112.581 144.631 112.029 144.463 111.581 144.127C111.133 143.791 110.793 143.303 110.561 142.663C110.329 142.015 110.213 141.223 110.213 140.287C110.213 139.335 110.329 138.539 110.561 137.899C110.793 137.259 111.133 136.775 111.581 136.447C112.029 136.119 112.581 135.955 113.237 135.955C113.901 135.955 114.457 136.119 114.905 136.447C115.353 136.767 115.689 137.247 115.913 137.887C116.145 138.527 116.261 139.323 116.261 140.275C116.261 141.211 116.145 142.003 115.913 142.651C115.681 143.299 115.341 143.791 114.893 144.127C114.445 144.463 113.893 144.631 113.237 144.631ZM113.237 143.599C113.853 143.599 114.305 143.331 114.593 142.795C114.889 142.259 115.037 141.419 115.037 140.275C115.037 139.131 114.889 138.299 114.593 137.779C114.305 137.251 113.853 136.987 113.237 136.987C112.629 136.987 112.177 137.251 111.881 137.779C111.585 138.299 111.437 139.131 111.437 140.275C111.437 141.419 111.585 142.259 111.881 142.795C112.177 143.331 112.629 143.599 113.237 143.599ZM119.82 144.631C119.532 144.631 119.236 144.595 118.932 144.523C118.636 144.443 118.356 144.327 118.092 144.175C117.828 144.023 117.596 143.847 117.396 143.647L117.828 142.699C118.124 142.987 118.444 143.207 118.788 143.359C119.132 143.503 119.48 143.575 119.832 143.575C120.208 143.575 120.54 143.507 120.828 143.371C121.116 143.235 121.356 143.031 121.548 142.759C121.748 142.487 121.896 142.151 121.992 141.751C122.096 141.343 122.148 140.875 122.148 140.347V139.327H122.268C122.212 139.751 122.076 140.123 121.86 140.443C121.652 140.763 121.38 141.007 121.044 141.175C120.716 141.343 120.344 141.427 119.928 141.427C119.44 141.427 119.004 141.311 118.62 141.079C118.244 140.847 117.944 140.527 117.72 140.119C117.504 139.711 117.396 139.251 117.396 138.739C117.396 138.195 117.512 137.715 117.744 137.299C117.984 136.875 118.308 136.547 118.716 136.315C119.124 136.075 119.596 135.955 120.132 135.955C120.82 135.955 121.4 136.119 121.872 136.447C122.344 136.767 122.704 137.239 122.952 137.863C123.208 138.487 123.336 139.235 123.336 140.107C123.336 141.075 123.196 141.895 122.916 142.567C122.636 143.239 122.236 143.751 121.716 144.103C121.196 144.455 120.564 144.631 119.82 144.631ZM120.216 140.407C120.536 140.407 120.82 140.335 121.068 140.191C121.316 140.047 121.508 139.847 121.644 139.591C121.788 139.327 121.86 139.023 121.86 138.679C121.86 138.343 121.788 138.047 121.644 137.791C121.508 137.527 121.316 137.323 121.068 137.179C120.82 137.027 120.536 136.951 120.216 136.951C119.888 136.951 119.6 137.027 119.352 137.179C119.112 137.323 118.92 137.527 118.776 137.791C118.64 138.047 118.572 138.343 118.572 138.679C118.572 139.023 118.64 139.327 118.776 139.591C118.92 139.847 119.112 140.047 119.352 140.191C119.6 140.335 119.888 140.407 120.216 140.407ZM127.627 144.631C126.971 144.631 126.419 144.463 125.971 144.127C125.523 143.791 125.183 143.303 124.951 142.663C124.719 142.015 124.603 141.223 124.603 140.287C124.603 139.335 124.719 138.539 124.951 137.899C125.183 137.259 125.523 136.775 125.971 136.447C126.419 136.119 126.971 135.955 127.627 135.955C128.291 135.955 128.847 136.119 129.295 136.447C129.743 136.767 130.079 137.247 130.303 137.887C130.535 138.527 130.651 139.323 130.651 140.275C130.651 141.211 130.535 142.003 130.303 142.651C130.071 143.299 129.731 143.791 129.283 144.127C128.835 144.463 128.283 144.631 127.627 144.631ZM127.627 143.599C128.243 143.599 128.695 143.331 128.983 142.795C129.279 142.259 129.427 141.419 129.427 140.275C129.427 139.131 129.279 138.299 128.983 137.779C128.695 137.251 128.243 136.987 127.627 136.987C127.019 136.987 126.567 137.251 126.271 137.779C125.975 138.299 125.827 139.131 125.827 140.275C125.827 141.419 125.975 142.259 126.271 142.795C126.567 143.331 127.019 143.599 127.627 143.599Z" fill="#444050"/>
<path d="M137.255 144.631C136.951 144.631 136.655 144.599 136.367 144.535C136.087 144.479 135.823 144.399 135.575 144.295C135.335 144.183 135.127 144.051 134.951 143.899L135.263 143.215C135.455 143.367 135.663 143.495 135.887 143.599C136.111 143.695 136.339 143.767 136.571 143.815C136.803 143.863 137.039 143.887 137.279 143.887C137.735 143.887 138.079 143.803 138.311 143.635C138.543 143.467 138.659 143.239 138.659 142.951C138.659 142.727 138.583 142.551 138.431 142.423C138.279 142.287 138.039 142.183 137.711 142.111L136.619 141.871C136.115 141.767 135.739 141.587 135.491 141.331C135.251 141.075 135.131 140.743 135.131 140.335C135.131 139.975 135.223 139.667 135.407 139.411C135.599 139.147 135.867 138.943 136.211 138.799C136.555 138.655 136.955 138.583 137.411 138.583C137.683 138.583 137.943 138.611 138.191 138.667C138.439 138.723 138.671 138.807 138.887 138.919C139.111 139.023 139.303 139.155 139.463 139.315L139.139 139.999C138.987 139.855 138.815 139.735 138.623 139.639C138.431 139.535 138.231 139.459 138.023 139.411C137.823 139.355 137.619 139.327 137.411 139.327C136.963 139.327 136.623 139.415 136.391 139.591C136.159 139.767 136.043 139.999 136.043 140.287C136.043 140.511 136.115 140.695 136.259 140.839C136.403 140.983 136.627 141.087 136.931 141.151L138.023 141.379C138.543 141.491 138.931 141.671 139.187 141.919C139.451 142.159 139.583 142.487 139.583 142.903C139.583 143.255 139.487 143.563 139.295 143.827C139.103 144.083 138.831 144.283 138.479 144.427C138.135 144.563 137.727 144.631 137.255 144.631ZM143.346 144.631C142.658 144.631 142.142 144.447 141.798 144.079C141.454 143.711 141.282 143.187 141.282 142.507V139.447H140.142V138.691H141.282V136.903H142.254V138.691H144.102V139.447H142.254V142.411C142.254 142.867 142.35 143.215 142.542 143.455C142.734 143.687 143.046 143.803 143.478 143.803C143.606 143.803 143.734 143.787 143.862 143.755C143.99 143.723 144.106 143.691 144.21 143.659L144.378 144.403C144.274 144.459 144.122 144.511 143.922 144.559C143.722 144.607 143.53 144.631 143.346 144.631ZM147.265 144.631C146.793 144.631 146.401 144.547 146.089 144.379C145.785 144.203 145.553 143.943 145.393 143.599C145.241 143.255 145.165 142.827 145.165 142.315V138.691H146.137V142.303C146.137 142.647 146.181 142.935 146.269 143.167C146.365 143.391 146.513 143.559 146.713 143.671C146.913 143.775 147.161 143.827 147.457 143.827C147.793 143.827 148.085 143.751 148.333 143.599C148.581 143.447 148.777 143.235 148.921 142.963C149.065 142.691 149.137 142.371 149.137 142.003V138.691H150.109V144.523H149.161V143.179H149.317C149.157 143.651 148.893 144.011 148.525 144.259C148.165 144.507 147.745 144.631 147.265 144.631ZM154.4 144.631C153.816 144.631 153.312 144.503 152.888 144.247C152.464 143.991 152.136 143.635 151.904 143.179C151.68 142.715 151.568 142.179 151.568 141.571C151.568 140.955 151.68 140.423 151.904 139.975C152.136 139.527 152.464 139.183 152.888 138.943C153.312 138.703 153.816 138.583 154.4 138.583C154.76 138.583 155.116 138.647 155.468 138.775C155.82 138.903 156.112 139.083 156.344 139.315L156.008 140.023C155.776 139.799 155.52 139.635 155.24 139.531C154.968 139.427 154.708 139.375 154.46 139.375C153.852 139.375 153.384 139.567 153.056 139.951C152.728 140.327 152.564 140.871 152.564 141.583C152.564 142.279 152.728 142.831 153.056 143.239C153.384 143.639 153.852 143.839 154.46 143.839C154.708 143.839 154.968 143.787 155.24 143.683C155.52 143.579 155.776 143.411 156.008 143.179L156.344 143.887C156.112 144.119 155.816 144.303 155.456 144.439C155.104 144.567 154.752 144.631 154.4 144.631ZM157.482 144.523V136.063H158.454V141.283H158.478L161.178 138.691H162.414L159.21 141.763V141.235L162.666 144.523H161.43L158.478 141.787H158.454V144.523H157.482ZM168.4 144.631C168 144.631 167.64 144.555 167.32 144.403C167.008 144.243 166.76 144.027 166.576 143.755C166.392 143.483 166.3 143.179 166.3 142.843C166.3 142.411 166.408 142.071 166.624 141.823C166.848 141.575 167.212 141.399 167.716 141.295C168.228 141.191 168.924 141.139 169.804 141.139H170.344V141.775H169.816C169.328 141.775 168.92 141.791 168.592 141.823C168.264 141.855 168.004 141.911 167.812 141.991C167.62 142.071 167.484 142.175 167.404 142.303C167.324 142.431 167.284 142.591 167.284 142.783C167.284 143.111 167.396 143.379 167.62 143.587C167.852 143.795 168.164 143.899 168.556 143.899C168.876 143.899 169.156 143.823 169.396 143.671C169.644 143.519 169.836 143.311 169.972 143.047C170.116 142.783 170.188 142.479 170.188 142.135V140.767C170.188 140.271 170.088 139.915 169.888 139.699C169.688 139.475 169.36 139.363 168.904 139.363C168.552 139.363 168.212 139.415 167.884 139.519C167.556 139.615 167.22 139.775 166.876 139.999L166.54 139.291C166.748 139.147 166.984 139.023 167.248 138.919C167.512 138.807 167.788 138.723 168.076 138.667C168.364 138.611 168.64 138.583 168.904 138.583C169.408 138.583 169.824 138.667 170.152 138.835C170.48 138.995 170.724 139.243 170.884 139.579C171.044 139.907 171.124 140.331 171.124 140.851V144.523H170.212V143.167H170.32C170.256 143.471 170.132 143.731 169.948 143.947C169.772 144.163 169.552 144.331 169.288 144.451C169.024 144.571 168.728 144.631 168.4 144.631ZM175.268 144.631C174.58 144.631 174.064 144.447 173.72 144.079C173.376 143.711 173.204 143.187 173.204 142.507V139.447H172.064V138.691H173.204V136.903H174.176V138.691H176.024V139.447H174.176V142.411C174.176 142.867 174.272 143.215 174.464 143.455C174.656 143.687 174.968 143.803 175.4 143.803C175.528 143.803 175.656 143.787 175.784 143.755C175.912 143.723 176.028 143.691 176.132 143.659L176.3 144.403C176.196 144.459 176.044 144.511 175.844 144.559C175.644 144.607 175.452 144.631 175.268 144.631ZM180.205 144.523V136.063H181.177V139.987H181.021C181.189 139.523 181.461 139.175 181.837 138.943C182.221 138.703 182.661 138.583 183.157 138.583C183.621 138.583 184.005 138.667 184.309 138.835C184.621 139.003 184.853 139.259 185.005 139.603C185.157 139.939 185.233 140.367 185.233 140.887V144.523H184.261V140.947C184.261 140.587 184.213 140.291 184.117 140.059C184.029 139.827 183.885 139.655 183.685 139.543C183.493 139.431 183.241 139.375 182.929 139.375C182.577 139.375 182.269 139.451 182.005 139.603C181.741 139.755 181.537 139.967 181.393 140.239C181.249 140.511 181.177 140.831 181.177 141.199V144.523H180.205ZM189.089 144.631C188.617 144.631 188.225 144.547 187.913 144.379C187.609 144.203 187.377 143.943 187.217 143.599C187.065 143.255 186.989 142.827 186.989 142.315V138.691H187.961V142.303C187.961 142.647 188.005 142.935 188.093 143.167C188.189 143.391 188.337 143.559 188.537 143.671C188.737 143.775 188.985 143.827 189.281 143.827C189.617 143.827 189.909 143.751 190.157 143.599C190.405 143.447 190.601 143.235 190.745 142.963C190.889 142.691 190.961 142.371 190.961 142.003V138.691H191.933V144.523H190.985V143.179H191.141C190.981 143.651 190.717 144.011 190.349 144.259C189.989 144.507 189.569 144.631 189.089 144.631ZM196.704 144.631C196.176 144.631 195.72 144.495 195.336 144.223C194.96 143.951 194.708 143.587 194.58 143.131H194.7V144.523H193.752V136.063H194.724V140.047H194.58C194.716 139.599 194.972 139.243 195.348 138.979C195.724 138.715 196.176 138.583 196.704 138.583C197.232 138.583 197.688 138.707 198.072 138.955C198.456 139.195 198.752 139.543 198.96 139.999C199.176 140.447 199.284 140.983 199.284 141.607C199.284 142.223 199.176 142.759 198.96 143.215C198.752 143.663 198.452 144.011 198.06 144.259C197.676 144.507 197.224 144.631 196.704 144.631ZM196.5 143.851C197.052 143.851 197.488 143.659 197.808 143.275C198.136 142.883 198.3 142.327 198.3 141.607C198.3 140.879 198.136 140.323 197.808 139.939C197.488 139.555 197.052 139.363 196.5 139.363C195.956 139.363 195.52 139.555 195.192 139.939C194.864 140.323 194.7 140.879 194.7 141.607C194.7 142.327 194.864 142.883 195.192 143.275C195.52 143.659 195.956 143.851 196.5 143.851ZM203.998 144.523V143.779L206.89 140.659C207.162 140.363 207.382 140.087 207.55 139.831C207.718 139.567 207.842 139.311 207.922 139.063C208.002 138.815 208.042 138.563 208.042 138.307C208.042 137.827 207.894 137.463 207.598 137.215C207.31 136.959 206.886 136.831 206.326 136.831C205.894 136.831 205.49 136.911 205.114 137.071C204.746 137.223 204.394 137.463 204.058 137.791L203.686 137.023C203.998 136.703 204.394 136.447 204.874 136.255C205.362 136.055 205.874 135.955 206.41 135.955C206.978 135.955 207.458 136.043 207.85 136.219C208.242 136.395 208.538 136.655 208.738 136.999C208.938 137.335 209.038 137.747 209.038 138.235C209.038 138.491 209.006 138.743 208.942 138.991C208.886 139.231 208.794 139.475 208.666 139.723C208.546 139.963 208.39 140.211 208.198 140.467C208.014 140.723 207.79 140.987 207.526 141.259L204.982 143.959V143.683H209.386V144.523H203.998ZM214.013 144.631C213.341 144.631 212.769 144.471 212.297 144.151C211.833 143.823 211.481 143.351 211.241 142.735C211.001 142.119 210.881 141.375 210.881 140.503C210.881 139.527 211.013 138.703 211.277 138.031C211.549 137.351 211.941 136.835 212.453 136.483C212.973 136.131 213.589 135.955 214.301 135.955C214.589 135.955 214.881 135.999 215.177 136.087C215.473 136.167 215.749 136.283 216.005 136.435C216.269 136.587 216.493 136.767 216.677 136.975L216.317 137.743C216.021 137.431 215.697 137.203 215.345 137.059C215.001 136.907 214.645 136.831 214.277 136.831C213.885 136.831 213.537 136.903 213.233 137.047C212.937 137.191 212.681 137.411 212.465 137.707C212.257 137.995 212.101 138.359 211.997 138.799C211.893 139.231 211.841 139.735 211.841 140.311V141.427H211.733C211.781 140.971 211.913 140.579 212.129 140.251C212.353 139.915 212.637 139.659 212.981 139.483C213.325 139.307 213.713 139.219 214.145 139.219C214.641 139.219 215.081 139.331 215.465 139.555C215.849 139.779 216.149 140.095 216.365 140.503C216.581 140.903 216.689 141.363 216.689 141.883C216.689 142.411 216.577 142.883 216.353 143.299C216.129 143.715 215.813 144.043 215.405 144.283C214.997 144.515 214.533 144.631 214.013 144.631ZM213.941 143.791C214.293 143.791 214.605 143.715 214.877 143.563C215.149 143.403 215.361 143.183 215.513 142.903C215.665 142.615 215.741 142.287 215.741 141.919C215.741 141.551 215.665 141.227 215.513 140.947C215.361 140.667 215.149 140.447 214.877 140.287C214.613 140.127 214.301 140.047 213.941 140.047C213.589 140.047 213.277 140.127 213.005 140.287C212.733 140.447 212.521 140.667 212.369 140.947C212.217 141.227 212.141 141.551 212.141 141.919C212.141 142.287 212.217 142.615 212.369 142.903C212.521 143.183 212.733 143.403 213.005 143.563C213.277 143.715 213.589 143.791 213.941 143.791ZM218.221 144.523V136.063H219.193V139.987H219.037C219.205 139.523 219.477 139.175 219.853 138.943C220.237 138.703 220.677 138.583 221.173 138.583C221.637 138.583 222.021 138.667 222.325 138.835C222.637 139.003 222.869 139.259 223.021 139.603C223.173 139.939 223.249 140.367 223.249 140.887V144.523H222.277V140.947C222.277 140.587 222.229 140.291 222.133 140.059C222.045 139.827 221.901 139.655 221.701 139.543C221.509 139.431 221.257 139.375 220.945 139.375C220.593 139.375 220.285 139.451 220.021 139.603C219.757 139.755 219.553 139.967 219.409 140.239C219.265 140.511 219.193 140.831 219.193 141.199V144.523H218.221ZM228.435 144.523V139.447H227.283V138.691H228.699L228.435 138.943V138.487C228.435 137.711 228.627 137.123 229.011 136.723C229.403 136.323 230.003 136.099 230.811 136.051L231.279 136.027L231.363 136.771L230.811 136.807C230.483 136.831 230.215 136.903 230.007 137.023C229.799 137.143 229.647 137.315 229.551 137.539C229.455 137.763 229.407 138.039 229.407 138.367V138.871L229.263 138.691H231.087V139.447H229.407V144.523H228.435ZM233.907 144.631C233.315 144.631 232.867 144.455 232.563 144.103C232.267 143.751 232.119 143.247 232.119 142.591V136.063H233.091V142.519C233.091 142.799 233.127 143.035 233.199 143.227C233.279 143.419 233.395 143.563 233.547 143.659C233.699 143.755 233.887 143.803 234.111 143.803C234.207 143.803 234.299 143.799 234.387 143.791C234.483 143.775 234.571 143.755 234.651 143.731L234.627 144.547C234.499 144.571 234.375 144.591 234.255 144.607C234.143 144.623 234.027 144.631 233.907 144.631ZM237.506 144.631C237.106 144.631 236.746 144.555 236.426 144.403C236.114 144.243 235.866 144.027 235.682 143.755C235.498 143.483 235.406 143.179 235.406 142.843C235.406 142.411 235.514 142.071 235.73 141.823C235.954 141.575 236.318 141.399 236.822 141.295C237.334 141.191 238.03 141.139 238.91 141.139H239.45V141.775H238.922C238.434 141.775 238.026 141.791 237.698 141.823C237.37 141.855 237.11 141.911 236.918 141.991C236.726 142.071 236.59 142.175 236.51 142.303C236.43 142.431 236.39 142.591 236.39 142.783C236.39 143.111 236.502 143.379 236.726 143.587C236.958 143.795 237.27 143.899 237.662 143.899C237.982 143.899 238.262 143.823 238.502 143.671C238.75 143.519 238.942 143.311 239.078 143.047C239.222 142.783 239.294 142.479 239.294 142.135V140.767C239.294 140.271 239.194 139.915 238.994 139.699C238.794 139.475 238.466 139.363 238.01 139.363C237.658 139.363 237.318 139.415 236.99 139.519C236.662 139.615 236.326 139.775 235.982 139.999L235.646 139.291C235.854 139.147 236.09 139.023 236.354 138.919C236.618 138.807 236.894 138.723 237.182 138.667C237.47 138.611 237.746 138.583 238.01 138.583C238.514 138.583 238.93 138.667 239.258 138.835C239.586 138.995 239.83 139.243 239.99 139.579C240.15 139.907 240.23 140.331 240.23 140.851V144.523H239.318V143.167H239.426C239.362 143.471 239.238 143.731 239.054 143.947C238.878 144.163 238.658 144.331 238.394 144.451C238.13 144.571 237.834 144.631 237.506 144.631ZM244.613 146.791C244.109 146.791 243.633 146.723 243.185 146.587C242.745 146.459 242.353 146.263 242.009 145.999L242.333 145.291C242.573 145.459 242.809 145.595 243.041 145.699C243.281 145.811 243.525 145.891 243.773 145.939C244.029 145.987 244.293 146.011 244.565 146.011C245.133 146.011 245.561 145.859 245.849 145.555C246.145 145.251 246.293 144.811 246.293 144.235V142.879H246.413C246.293 143.343 246.037 143.711 245.645 143.983C245.261 144.255 244.809 144.391 244.289 144.391C243.753 144.391 243.289 144.271 242.897 144.031C242.505 143.783 242.201 143.439 241.985 142.999C241.777 142.559 241.673 142.051 241.673 141.475C241.673 140.899 241.777 140.395 241.985 139.963C242.201 139.523 242.505 139.183 242.897 138.943C243.289 138.703 243.753 138.583 244.289 138.583C244.817 138.583 245.273 138.719 245.657 138.991C246.041 139.255 246.289 139.615 246.401 140.071H246.293V138.691H247.241V144.103C247.241 144.695 247.141 145.191 246.941 145.591C246.749 145.991 246.457 146.291 246.065 146.491C245.673 146.691 245.189 146.791 244.613 146.791ZM244.469 143.599C245.029 143.599 245.473 143.407 245.801 143.023C246.129 142.639 246.293 142.123 246.293 141.475C246.293 140.827 246.129 140.315 245.801 139.939C245.473 139.555 245.029 139.363 244.469 139.363C243.917 139.363 243.477 139.555 243.149 139.939C242.821 140.315 242.657 140.827 242.657 141.475C242.657 142.123 242.821 142.639 243.149 143.023C243.477 143.407 243.917 143.599 244.469 143.599ZM251.644 146.791C251.14 146.791 250.664 146.723 250.216 146.587C249.776 146.459 249.384 146.263 249.04 145.999L249.364 145.291C249.604 145.459 249.84 145.595 250.072 145.699C250.312 145.811 250.556 145.891 250.804 145.939C251.06 145.987 251.324 146.011 251.596 146.011C252.164 146.011 252.592 145.859 252.88 145.555C253.176 145.251 253.324 144.811 253.324 144.235V142.879H253.444C253.324 143.343 253.068 143.711 252.676 143.983C252.292 144.255 251.84 144.391 251.32 144.391C250.784 144.391 250.32 144.271 249.928 144.031C249.536 143.783 249.232 143.439 249.016 142.999C248.808 142.559 248.704 142.051 248.704 141.475C248.704 140.899 248.808 140.395 249.016 139.963C249.232 139.523 249.536 139.183 249.928 138.943C250.32 138.703 250.784 138.583 251.32 138.583C251.848 138.583 252.304 138.719 252.688 138.991C253.072 139.255 253.32 139.615 253.432 140.071H253.324V138.691H254.272V144.103C254.272 144.695 254.172 145.191 253.972 145.591C253.78 145.991 253.488 146.291 253.096 146.491C252.704 146.691 252.22 146.791 251.644 146.791ZM251.5 143.599C252.06 143.599 252.504 143.407 252.832 143.023C253.16 142.639 253.324 142.123 253.324 141.475C253.324 140.827 253.16 140.315 252.832 139.939C252.504 139.555 252.06 139.363 251.5 139.363C250.948 139.363 250.508 139.555 250.18 139.939C249.852 140.315 249.688 140.827 249.688 141.475C249.688 142.123 249.852 142.639 250.18 143.023C250.508 143.407 250.948 143.599 251.5 143.599ZM258.724 144.631C258.108 144.631 257.576 144.511 257.128 144.271C256.688 144.023 256.344 143.675 256.096 143.227C255.856 142.779 255.736 142.243 255.736 141.619C255.736 141.011 255.856 140.483 256.096 140.035C256.336 139.579 256.664 139.223 257.08 138.967C257.504 138.711 257.992 138.583 258.544 138.583C259.072 138.583 259.524 138.699 259.9 138.931C260.276 139.163 260.564 139.491 260.764 139.915C260.972 140.339 261.076 140.847 261.076 141.439V141.811H256.48V141.175H260.428L260.236 141.331C260.236 140.691 260.092 140.195 259.804 139.843C259.524 139.483 259.112 139.303 258.568 139.303C258.16 139.303 257.812 139.399 257.524 139.591C257.244 139.775 257.032 140.035 256.888 140.371C256.744 140.699 256.672 141.083 256.672 141.523V141.595C256.672 142.083 256.748 142.495 256.9 142.831C257.06 143.167 257.296 143.423 257.608 143.599C257.92 143.767 258.292 143.851 258.724 143.851C259.068 143.851 259.4 143.799 259.72 143.695C260.048 143.583 260.356 143.403 260.644 143.155L260.98 143.839C260.716 144.079 260.38 144.271 259.972 144.415C259.564 144.559 259.148 144.631 258.724 144.631ZM264.702 144.631C264.182 144.631 263.726 144.507 263.334 144.259C262.95 144.011 262.65 143.663 262.434 143.215C262.226 142.759 262.122 142.223 262.122 141.607C262.122 140.983 262.226 140.447 262.434 139.999C262.65 139.543 262.95 139.195 263.334 138.955C263.726 138.707 264.182 138.583 264.702 138.583C265.23 138.583 265.682 138.715 266.058 138.979C266.434 139.243 266.686 139.599 266.814 140.047H266.682V136.063H267.654V144.523H266.706V143.131H266.826C266.698 143.587 266.442 143.951 266.058 144.223C265.682 144.495 265.23 144.631 264.702 144.631ZM264.906 143.851C265.458 143.851 265.894 143.659 266.214 143.275C266.542 142.883 266.706 142.327 266.706 141.607C266.706 140.879 266.542 140.323 266.214 139.939C265.894 139.555 265.458 139.363 264.906 139.363C264.362 139.363 263.926 139.555 263.598 139.939C263.27 140.323 263.106 140.879 263.106 141.607C263.106 142.327 263.27 142.883 263.598 143.275C263.926 143.659 264.362 143.851 264.906 143.851ZM62.196 160.631C61.668 160.631 61.212 160.495 60.828 160.223C60.452 159.951 60.2 159.587 60.072 159.131H60.192V160.523H59.244V152.063H60.216V156.047H60.072C60.208 155.599 60.464 155.243 60.84 154.979C61.216 154.715 61.668 154.583 62.196 154.583C62.724 154.583 63.18 154.707 63.564 154.955C63.948 155.195 64.244 155.543 64.452 155.999C64.668 156.447 64.776 156.983 64.776 157.607C64.776 158.223 64.668 158.759 64.452 159.215C64.244 159.663 63.944 160.011 63.552 160.259C63.168 160.507 62.716 160.631 62.196 160.631ZM61.992 159.851C62.544 159.851 62.98 159.659 63.3 159.275C63.628 158.883 63.792 158.327 63.792 157.607C63.792 156.879 63.628 156.323 63.3 155.939C62.98 155.555 62.544 155.363 61.992 155.363C61.448 155.363 61.012 155.555 60.684 155.939C60.356 156.323 60.192 156.879 60.192 157.607C60.192 158.327 60.356 158.883 60.684 159.275C61.012 159.659 61.448 159.851 61.992 159.851ZM68.8681 160.631C68.2521 160.631 67.7201 160.511 67.2721 160.271C66.8321 160.023 66.4881 159.675 66.2401 159.227C66.0001 158.779 65.8801 158.243 65.8801 157.619C65.8801 157.011 66.0001 156.483 66.2401 156.035C66.4801 155.579 66.8081 155.223 67.2241 154.967C67.6481 154.711 68.1361 154.583 68.6881 154.583C69.2161 154.583 69.6681 154.699 70.0441 154.931C70.4201 155.163 70.7081 155.491 70.9081 155.915C71.1161 156.339 71.2201 156.847 71.2201 157.439V157.811H66.6241V157.175H70.5721L70.3801 157.331C70.3801 156.691 70.2361 156.195 69.9481 155.843C69.6681 155.483 69.2561 155.303 68.7121 155.303C68.3041 155.303 67.9561 155.399 67.6681 155.591C67.3881 155.775 67.1761 156.035 67.0321 156.371C66.8881 156.699 66.8161 157.083 66.8161 157.523V157.595C66.8161 158.083 66.8921 158.495 67.0441 158.831C67.2041 159.167 67.4401 159.423 67.7521 159.599C68.0641 159.767 68.4361 159.851 68.8681 159.851C69.2121 159.851 69.5441 159.799 69.8641 159.695C70.1921 159.583 70.5001 159.403 70.7881 159.155L71.1241 159.839C70.8601 160.079 70.5241 160.271 70.1161 160.415C69.7081 160.559 69.2921 160.631 68.8681 160.631ZM72.9388 160.523V155.447H71.7868V154.691H73.2028L72.9388 154.943V154.487C72.9388 153.711 73.1308 153.123 73.5148 152.723C73.9068 152.323 74.5068 152.099 75.3148 152.051L75.7828 152.027L75.8668 152.771L75.3148 152.807C74.9868 152.831 74.7188 152.903 74.5108 153.023C74.3028 153.143 74.1508 153.315 74.0548 153.539C73.9588 153.763 73.9108 154.039 73.9108 154.367V154.871L73.7668 154.691H75.5908V155.447H73.9108V160.523H72.9388ZM78.8829 160.631C78.3149 160.631 77.8229 160.507 77.4069 160.259C76.9909 160.011 76.6669 159.663 76.4349 159.215C76.2109 158.759 76.0989 158.223 76.0989 157.607C76.0989 156.991 76.2109 156.459 76.4349 156.011C76.6669 155.555 76.9909 155.203 77.4069 154.955C77.8229 154.707 78.3149 154.583 78.8829 154.583C79.4509 154.583 79.9429 154.707 80.3589 154.955C80.7749 155.203 81.0949 155.555 81.3189 156.011C81.5509 156.459 81.6669 156.991 81.6669 157.607C81.6669 158.223 81.5509 158.759 81.3189 159.215C81.0949 159.663 80.7749 160.011 80.3589 160.259C79.9429 160.507 79.4509 160.631 78.8829 160.631ZM78.8829 159.851C79.4349 159.851 79.8709 159.659 80.1909 159.275C80.5189 158.883 80.6829 158.323 80.6829 157.595C80.6829 156.875 80.5189 156.323 80.1909 155.939C79.8709 155.555 79.4349 155.363 78.8829 155.363C78.3389 155.363 77.9029 155.555 77.5749 155.939C77.2469 156.323 77.0829 156.875 77.0829 157.595C77.0829 158.323 77.2469 158.883 77.5749 159.275C77.9029 159.659 78.3389 159.851 78.8829 159.851ZM83.1268 160.523V154.691H84.0748V156.071H83.9548C84.0908 155.599 84.3268 155.243 84.6628 155.003C84.9988 154.755 85.4428 154.611 85.9948 154.571L86.3428 154.535L86.4148 155.375L85.8028 155.447C85.2588 155.495 84.8388 155.671 84.5428 155.975C84.2548 156.271 84.1108 156.679 84.1108 157.199V160.523H83.1268ZM89.9853 160.631C89.3693 160.631 88.8373 160.511 88.3893 160.271C87.9493 160.023 87.6053 159.675 87.3573 159.227C87.1173 158.779 86.9973 158.243 86.9973 157.619C86.9973 157.011 87.1173 156.483 87.3573 156.035C87.5973 155.579 87.9253 155.223 88.3413 154.967C88.7653 154.711 89.2533 154.583 89.8053 154.583C90.3333 154.583 90.7853 154.699 91.1613 154.931C91.5373 155.163 91.8253 155.491 92.0253 155.915C92.2333 156.339 92.3373 156.847 92.3373 157.439V157.811H87.7413V157.175H91.6893L91.4973 157.331C91.4973 156.691 91.3533 156.195 91.0653 155.843C90.7853 155.483 90.3733 155.303 89.8293 155.303C89.4213 155.303 89.0733 155.399 88.7853 155.591C88.5053 155.775 88.2933 156.035 88.1493 156.371C88.0053 156.699 87.9333 157.083 87.9333 157.523V157.595C87.9333 158.083 88.0093 158.495 88.1613 158.831C88.3213 159.167 88.5573 159.423 88.8693 159.599C89.1813 159.767 89.5533 159.851 89.9853 159.851C90.3293 159.851 90.6613 159.799 90.9813 159.695C91.3093 159.583 91.6173 159.403 91.9053 159.155L92.2413 159.839C91.9773 160.079 91.6413 160.271 91.2333 160.415C90.8253 160.559 90.4093 160.631 89.9853 160.631ZM99.6941 160.631C99.2541 160.631 98.8381 160.591 98.4461 160.511C98.0621 160.431 97.7061 160.319 97.3781 160.175C97.0581 160.023 96.7661 159.839 96.5021 159.623L96.8501 158.831C97.1221 159.031 97.3981 159.203 97.6781 159.347C97.9661 159.483 98.2741 159.587 98.6021 159.659C98.9381 159.723 99.3021 159.755 99.6941 159.755C100.414 159.755 100.946 159.623 101.29 159.359C101.642 159.087 101.818 158.731 101.818 158.291C101.818 158.059 101.762 157.859 101.65 157.691C101.546 157.523 101.37 157.379 101.122 157.259C100.882 157.139 100.566 157.039 100.174 156.959L98.9261 156.707C98.1741 156.547 97.6101 156.287 97.2341 155.927C96.8661 155.559 96.6821 155.071 96.6821 154.463C96.6821 153.959 96.8101 153.519 97.0661 153.143C97.3301 152.767 97.6941 152.475 98.1581 152.267C98.6301 152.059 99.1661 151.955 99.7661 151.955C100.15 151.955 100.514 151.995 100.858 152.075C101.202 152.155 101.518 152.275 101.806 152.435C102.102 152.587 102.362 152.775 102.586 152.999L102.238 153.767C101.878 153.439 101.498 153.203 101.098 153.059C100.698 152.907 100.25 152.831 99.7541 152.831C99.3301 152.831 98.9621 152.895 98.6501 153.023C98.3461 153.151 98.1061 153.339 97.9301 153.587C97.7621 153.827 97.6781 154.107 97.6781 154.427C97.6781 154.811 97.7941 155.115 98.0261 155.339C98.2661 155.563 98.6541 155.727 99.1901 155.831L100.438 156.095C101.246 156.263 101.842 156.519 102.226 156.863C102.618 157.199 102.814 157.659 102.814 158.243C102.814 158.707 102.686 159.123 102.43 159.491C102.182 159.851 101.822 160.131 101.35 160.331C100.886 160.531 100.334 160.631 99.6941 160.631ZM104.341 160.523V152.063H105.325V159.659H109.633V160.523H104.341ZM109.794 160.523L113.526 152.063H114.366L118.098 160.523H117.078L116.034 158.111L116.514 158.363H111.354L111.846 158.111L110.814 160.523H109.794ZM113.934 153.215L112.002 157.763L111.714 157.535H116.154L115.89 157.763L113.958 153.215H113.934ZM125.255 160.631C124.727 160.631 124.271 160.495 123.887 160.223C123.511 159.951 123.259 159.587 123.131 159.131H123.251V160.523H122.303V152.063H123.275V156.047H123.131C123.267 155.599 123.523 155.243 123.899 154.979C124.275 154.715 124.727 154.583 125.255 154.583C125.783 154.583 126.239 154.707 126.623 154.955C127.007 155.195 127.303 155.543 127.511 155.999C127.727 156.447 127.835 156.983 127.835 157.607C127.835 158.223 127.727 158.759 127.511 159.215C127.303 159.663 127.003 160.011 126.611 160.259C126.227 160.507 125.775 160.631 125.255 160.631ZM125.051 159.851C125.603 159.851 126.039 159.659 126.359 159.275C126.687 158.883 126.851 158.327 126.851 157.607C126.851 156.879 126.687 156.323 126.359 155.939C126.039 155.555 125.603 155.363 125.051 155.363C124.507 155.363 124.071 155.555 123.743 155.939C123.415 156.323 123.251 156.879 123.251 157.607C123.251 158.327 123.415 158.883 123.743 159.275C124.071 159.659 124.507 159.851 125.051 159.851ZM129.299 160.523V154.691H130.247V156.071H130.127C130.263 155.599 130.499 155.243 130.835 155.003C131.171 154.755 131.615 154.611 132.167 154.571L132.515 154.535L132.587 155.375L131.975 155.447C131.431 155.495 131.011 155.671 130.715 155.975C130.427 156.271 130.283 156.679 130.283 157.199V160.523H129.299ZM136.157 160.631C135.541 160.631 135.009 160.511 134.561 160.271C134.121 160.023 133.777 159.675 133.529 159.227C133.289 158.779 133.169 158.243 133.169 157.619C133.169 157.011 133.289 156.483 133.529 156.035C133.769 155.579 134.097 155.223 134.513 154.967C134.937 154.711 135.425 154.583 135.977 154.583C136.505 154.583 136.957 154.699 137.333 154.931C137.709 155.163 137.997 155.491 138.197 155.915C138.405 156.339 138.509 156.847 138.509 157.439V157.811H133.913V157.175H137.861L137.669 157.331C137.669 156.691 137.525 156.195 137.237 155.843C136.957 155.483 136.545 155.303 136.001 155.303C135.593 155.303 135.245 155.399 134.957 155.591C134.677 155.775 134.465 156.035 134.321 156.371C134.177 156.699 134.105 157.083 134.105 157.523V157.595C134.105 158.083 134.181 158.495 134.333 158.831C134.493 159.167 134.729 159.423 135.041 159.599C135.353 159.767 135.725 159.851 136.157 159.851C136.501 159.851 136.833 159.799 137.153 159.695C137.481 159.583 137.789 159.403 138.077 159.155L138.413 159.839C138.149 160.079 137.813 160.271 137.405 160.415C136.997 160.559 136.581 160.631 136.157 160.631ZM141.752 160.631C141.352 160.631 140.992 160.555 140.672 160.403C140.36 160.243 140.112 160.027 139.928 159.755C139.744 159.483 139.652 159.179 139.652 158.843C139.652 158.411 139.76 158.071 139.976 157.823C140.2 157.575 140.564 157.399 141.068 157.295C141.58 157.191 142.276 157.139 143.156 157.139H143.696V157.775H143.168C142.68 157.775 142.272 157.791 141.944 157.823C141.616 157.855 141.356 157.911 141.164 157.991C140.972 158.071 140.836 158.175 140.756 158.303C140.676 158.431 140.636 158.591 140.636 158.783C140.636 159.111 140.748 159.379 140.972 159.587C141.204 159.795 141.516 159.899 141.908 159.899C142.228 159.899 142.508 159.823 142.748 159.671C142.996 159.519 143.188 159.311 143.324 159.047C143.468 158.783 143.54 158.479 143.54 158.135V156.767C143.54 156.271 143.44 155.915 143.24 155.699C143.04 155.475 142.712 155.363 142.256 155.363C141.904 155.363 141.564 155.415 141.236 155.519C140.908 155.615 140.572 155.775 140.228 155.999L139.892 155.291C140.1 155.147 140.336 155.023 140.6 154.919C140.864 154.807 141.14 154.723 141.428 154.667C141.716 154.611 141.992 154.583 142.256 154.583C142.76 154.583 143.176 154.667 143.504 154.835C143.832 154.995 144.076 155.243 144.236 155.579C144.396 155.907 144.476 156.331 144.476 156.851V160.523H143.564V159.167H143.672C143.608 159.471 143.484 159.731 143.3 159.947C143.124 160.163 142.904 160.331 142.64 160.451C142.376 160.571 142.08 160.631 141.752 160.631ZM148.751 160.631C148.167 160.631 147.663 160.503 147.239 160.247C146.815 159.991 146.487 159.635 146.255 159.179C146.031 158.715 145.919 158.179 145.919 157.571C145.919 156.955 146.031 156.423 146.255 155.975C146.487 155.527 146.815 155.183 147.239 154.943C147.663 154.703 148.167 154.583 148.751 154.583C149.111 154.583 149.467 154.647 149.819 154.775C150.171 154.903 150.463 155.083 150.695 155.315L150.359 156.023C150.127 155.799 149.871 155.635 149.591 155.531C149.319 155.427 149.059 155.375 148.811 155.375C148.203 155.375 147.735 155.567 147.407 155.951C147.079 156.327 146.915 156.871 146.915 157.583C146.915 158.279 147.079 158.831 147.407 159.239C147.735 159.639 148.203 159.839 148.811 159.839C149.059 159.839 149.319 159.787 149.591 159.683C149.871 159.579 150.127 159.411 150.359 159.179L150.695 159.887C150.463 160.119 150.167 160.303 149.807 160.439C149.455 160.567 149.103 160.631 148.751 160.631ZM151.834 160.523V152.063H152.806V155.987H152.65C152.818 155.523 153.09 155.175 153.466 154.943C153.85 154.703 154.29 154.583 154.786 154.583C155.25 154.583 155.634 154.667 155.938 154.835C156.25 155.003 156.482 155.259 156.634 155.603C156.786 155.939 156.862 156.367 156.862 156.887V160.523H155.89V156.947C155.89 156.587 155.842 156.291 155.746 156.059C155.658 155.827 155.514 155.655 155.314 155.543C155.122 155.431 154.87 155.375 154.558 155.375C154.206 155.375 153.898 155.451 153.634 155.603C153.37 155.755 153.166 155.967 153.022 156.239C152.878 156.511 152.806 156.831 152.806 157.199V160.523H151.834Z" fill="#737682"/>
<rect x="58.332" y="180.523" width="105" height="20" rx="9" fill="#F5F5F6"/>
<circle cx="67.332" cy="190.523" r="4" fill="#FCD468"/>
<path d="M75.486 194.523L78.94 186.768H79.919L83.373 194.523H82.196L81.25 192.323L81.767 192.653H77.081L77.598 192.323L76.674 194.523H75.486ZM79.413 188.055L77.752 191.982L77.477 191.707H81.371L81.107 191.982L79.446 188.055H79.413ZM86.1921 194.622C85.8988 194.622 85.6128 194.597 85.3341 194.545C85.0628 194.494 84.8098 194.421 84.5751 194.325C84.3405 194.23 84.1388 194.113 83.9701 193.973L84.2891 193.203C84.4725 193.328 84.6705 193.434 84.8831 193.522C85.0958 193.61 85.3121 193.676 85.5321 193.72C85.7595 193.764 85.9831 193.786 86.2031 193.786C86.5991 193.786 86.8998 193.72 87.1051 193.588C87.3105 193.456 87.4131 193.273 87.4131 193.038C87.4131 192.848 87.3471 192.701 87.2151 192.598C87.0905 192.488 86.8888 192.408 86.6101 192.356L85.5321 192.147C85.0628 192.059 84.7071 191.891 84.4651 191.641C84.2305 191.392 84.1131 191.077 84.1131 190.695C84.1131 190.358 84.2048 190.065 84.3881 189.815C84.5715 189.566 84.8281 189.375 85.1581 189.243C85.4955 189.104 85.8878 189.034 86.3351 189.034C86.5918 189.034 86.8411 189.06 87.0831 189.111C87.3325 189.155 87.5635 189.229 87.7761 189.331C87.9888 189.427 88.1721 189.548 88.3261 189.694L87.9851 190.464C87.8458 190.332 87.6808 190.226 87.4901 190.145C87.3068 190.057 87.1161 189.991 86.9181 189.947C86.7275 189.896 86.5368 189.87 86.3461 189.87C85.9501 189.87 85.6531 189.94 85.4551 190.079C85.2571 190.219 85.1581 190.409 85.1581 190.651C85.1581 190.835 85.2168 190.981 85.3341 191.091C85.4515 191.201 85.6385 191.282 85.8951 191.333L86.9621 191.542C87.4608 191.638 87.8311 191.803 88.0731 192.037C88.3225 192.272 88.4471 192.587 88.4471 192.983C88.4471 193.321 88.3518 193.614 88.1611 193.863C87.9778 194.105 87.7175 194.292 87.3801 194.424C87.0428 194.556 86.6468 194.622 86.1921 194.622ZM91.6706 194.622C91.3773 194.622 91.0913 194.597 90.8126 194.545C90.5413 194.494 90.2883 194.421 90.0536 194.325C89.819 194.23 89.6173 194.113 89.4486 193.973L89.7676 193.203C89.951 193.328 90.149 193.434 90.3616 193.522C90.5743 193.61 90.7906 193.676 91.0106 193.72C91.238 193.764 91.4616 193.786 91.6816 193.786C92.0776 193.786 92.3783 193.72 92.5836 193.588C92.789 193.456 92.8916 193.273 92.8916 193.038C92.8916 192.848 92.8256 192.701 92.6936 192.598C92.569 192.488 92.3673 192.408 92.0886 192.356L91.0106 192.147C90.5413 192.059 90.1856 191.891 89.9436 191.641C89.709 191.392 89.5916 191.077 89.5916 190.695C89.5916 190.358 89.6833 190.065 89.8666 189.815C90.05 189.566 90.3066 189.375 90.6366 189.243C90.974 189.104 91.3663 189.034 91.8136 189.034C92.0703 189.034 92.3196 189.06 92.5616 189.111C92.811 189.155 93.042 189.229 93.2546 189.331C93.4673 189.427 93.6506 189.548 93.8046 189.694L93.4636 190.464C93.3243 190.332 93.1593 190.226 92.9686 190.145C92.7853 190.057 92.5946 189.991 92.3966 189.947C92.206 189.896 92.0153 189.87 91.8246 189.87C91.4286 189.87 91.1316 189.94 90.9336 190.079C90.7356 190.219 90.6366 190.409 90.6366 190.651C90.6366 190.835 90.6953 190.981 90.8126 191.091C90.93 191.201 91.117 191.282 91.3736 191.333L92.4406 191.542C92.9393 191.638 93.3096 191.803 93.5516 192.037C93.801 192.272 93.9256 192.587 93.9256 192.983C93.9256 193.321 93.8303 193.614 93.6396 193.863C93.4563 194.105 93.196 194.292 92.8586 194.424C92.5213 194.556 92.1253 194.622 91.6706 194.622ZM95.1252 187.89V186.713H96.4452V187.89H95.1252ZM95.2242 194.523V189.133H96.3572V194.523H95.2242ZM100.416 196.602C99.9466 196.602 99.4992 196.544 99.0739 196.426C98.6559 196.309 98.2856 196.133 97.9629 195.898L98.3149 195.073C98.5202 195.213 98.7329 195.33 98.9529 195.425C99.1802 195.521 99.4076 195.59 99.6349 195.634C99.8696 195.686 100.108 195.711 100.35 195.711C100.871 195.711 101.267 195.579 101.538 195.315C101.809 195.051 101.945 194.67 101.945 194.171V193.093H102.011C101.894 193.489 101.659 193.805 101.307 194.039C100.962 194.267 100.563 194.38 100.108 194.38C99.6166 194.38 99.1876 194.27 98.8209 194.05C98.4542 193.823 98.1719 193.508 97.9739 193.104C97.7759 192.701 97.6769 192.235 97.6769 191.707C97.6769 191.172 97.7759 190.706 97.9739 190.31C98.1719 189.907 98.4542 189.595 98.8209 189.375C99.1876 189.148 99.6166 189.034 100.108 189.034C100.57 189.034 100.973 189.152 101.318 189.386C101.67 189.621 101.901 189.933 102.011 190.321H101.934V189.133H103.034V194.039C103.034 194.597 102.931 195.066 102.726 195.447C102.528 195.829 102.235 196.115 101.846 196.305C101.457 196.503 100.981 196.602 100.416 196.602ZM100.372 193.489C100.849 193.489 101.226 193.328 101.505 193.005C101.784 192.683 101.923 192.25 101.923 191.707C101.923 191.157 101.784 190.725 101.505 190.409C101.226 190.087 100.849 189.925 100.372 189.925C99.8952 189.925 99.5139 190.087 99.2279 190.409C98.9492 190.725 98.8099 191.157 98.8099 191.707C98.8099 192.25 98.9492 192.683 99.2279 193.005C99.5139 193.328 99.8952 193.489 100.372 193.489ZM104.667 194.523V189.133H105.756V190.277H105.668C105.829 189.874 106.082 189.566 106.427 189.353C106.779 189.141 107.175 189.034 107.615 189.034C108.055 189.034 108.418 189.115 108.704 189.276C108.99 189.43 109.202 189.669 109.342 189.991C109.481 190.314 109.551 190.721 109.551 191.212V194.523H108.418V191.278C108.418 190.978 108.377 190.732 108.297 190.541C108.223 190.343 108.102 190.197 107.934 190.101C107.772 189.999 107.563 189.947 107.307 189.947C107.006 189.947 106.742 190.013 106.515 190.145C106.287 190.277 106.111 190.461 105.987 190.695C105.862 190.923 105.8 191.187 105.8 191.487V194.523H104.667ZM113.729 194.622C113.135 194.622 112.621 194.512 112.189 194.292C111.756 194.065 111.422 193.742 111.188 193.324C110.96 192.906 110.847 192.411 110.847 191.839C110.847 191.282 110.957 190.794 111.177 190.376C111.404 189.958 111.716 189.632 112.112 189.397C112.515 189.155 112.981 189.034 113.509 189.034C114.015 189.034 114.447 189.144 114.807 189.364C115.166 189.584 115.445 189.896 115.643 190.299C115.841 190.695 115.94 191.172 115.94 191.729V192.103H111.727V191.399H115.159L114.983 191.564C114.983 191.014 114.858 190.593 114.609 190.299C114.359 189.999 114.004 189.848 113.542 189.848C113.197 189.848 112.904 189.925 112.662 190.079C112.427 190.233 112.244 190.45 112.112 190.728C111.987 191.007 111.925 191.341 111.925 191.729V191.806C111.925 192.232 111.994 192.587 112.134 192.873C112.273 193.159 112.478 193.376 112.75 193.522C113.021 193.662 113.355 193.731 113.751 193.731C114.051 193.731 114.352 193.687 114.653 193.599C114.953 193.504 115.236 193.354 115.5 193.148L115.841 193.929C115.584 194.149 115.265 194.322 114.884 194.446C114.502 194.564 114.117 194.622 113.729 194.622ZM119.303 194.622C118.819 194.622 118.398 194.509 118.038 194.281C117.679 194.054 117.4 193.731 117.202 193.313C117.004 192.888 116.905 192.393 116.905 191.828C116.905 191.256 117.001 190.761 117.191 190.343C117.389 189.925 117.668 189.603 118.027 189.375C118.394 189.148 118.816 189.034 119.292 189.034C119.762 189.034 120.161 189.148 120.491 189.375C120.829 189.603 121.06 189.907 121.184 190.288H121.096V186.768H122.229V194.523H121.14V193.324H121.217C121.093 193.728 120.858 194.047 120.513 194.281C120.176 194.509 119.773 194.622 119.303 194.622ZM119.578 193.742C120.048 193.742 120.422 193.577 120.7 193.247C120.979 192.917 121.118 192.444 121.118 191.828C121.118 191.205 120.979 190.732 120.7 190.409C120.422 190.087 120.048 189.925 119.578 189.925C119.109 189.925 118.735 190.087 118.456 190.409C118.178 190.732 118.038 191.205 118.038 191.828C118.038 192.444 118.178 192.917 118.456 193.247C118.735 193.577 119.109 193.742 119.578 193.742ZM129.138 194.622C128.456 194.622 127.947 194.45 127.609 194.105C127.272 193.753 127.103 193.247 127.103 192.587V190.013H126.058V189.133H127.125V187.527H128.236V189.133H129.963V190.013H128.247V192.51C128.247 192.892 128.328 193.181 128.489 193.379C128.658 193.577 128.929 193.676 129.303 193.676C129.428 193.676 129.549 193.662 129.666 193.632C129.784 193.603 129.901 193.57 130.018 193.533L130.194 194.391C130.07 194.465 129.908 194.52 129.71 194.556C129.512 194.6 129.322 194.622 129.138 194.622ZM133.318 194.622C132.775 194.622 132.302 194.509 131.899 194.281C131.503 194.054 131.195 193.731 130.975 193.313C130.755 192.888 130.645 192.393 130.645 191.828C130.645 191.256 130.755 190.761 130.975 190.343C131.195 189.925 131.503 189.603 131.899 189.375C132.302 189.148 132.775 189.034 133.318 189.034C133.86 189.034 134.33 189.148 134.726 189.375C135.129 189.603 135.441 189.925 135.661 190.343C135.881 190.761 135.991 191.256 135.991 191.828C135.991 192.393 135.881 192.888 135.661 193.313C135.441 193.731 135.129 194.054 134.726 194.281C134.33 194.509 133.86 194.622 133.318 194.622ZM133.318 193.731C133.787 193.731 134.161 193.566 134.44 193.236C134.718 192.906 134.858 192.433 134.858 191.817C134.858 191.209 134.718 190.743 134.44 190.42C134.161 190.098 133.787 189.936 133.318 189.936C132.848 189.936 132.474 190.098 132.196 190.42C131.917 190.743 131.778 191.209 131.778 191.817C131.778 192.433 131.917 192.906 132.196 193.236C132.474 193.566 132.848 193.731 133.318 193.731ZM142.631 194.622C142.088 194.622 141.615 194.509 141.212 194.281C140.816 194.054 140.508 193.731 140.288 193.313C140.068 192.888 139.958 192.393 139.958 191.828C139.958 191.256 140.068 190.761 140.288 190.343C140.508 189.925 140.816 189.603 141.212 189.375C141.615 189.148 142.088 189.034 142.631 189.034C143.174 189.034 143.643 189.148 144.039 189.375C144.442 189.603 144.754 189.925 144.974 190.343C145.194 190.761 145.304 191.256 145.304 191.828C145.304 192.393 145.194 192.888 144.974 193.313C144.754 193.731 144.442 194.054 144.039 194.281C143.643 194.509 143.174 194.622 142.631 194.622ZM142.631 193.731C143.1 193.731 143.474 193.566 143.753 193.236C144.032 192.906 144.171 192.433 144.171 191.817C144.171 191.209 144.032 190.743 143.753 190.42C143.474 190.098 143.1 189.936 142.631 189.936C142.162 189.936 141.788 190.098 141.509 190.42C141.23 190.743 141.091 191.209 141.091 191.817C141.091 192.433 141.23 192.906 141.509 193.236C141.788 193.566 142.162 193.731 142.631 193.731ZM146.626 196.503V189.133H147.715V190.332H147.638C147.762 189.929 147.997 189.614 148.342 189.386C148.686 189.152 149.093 189.034 149.563 189.034C150.047 189.034 150.468 189.148 150.828 189.375C151.187 189.603 151.466 189.925 151.664 190.343C151.862 190.761 151.961 191.256 151.961 191.828C151.961 192.393 151.862 192.888 151.664 193.313C151.466 193.731 151.187 194.054 150.828 194.281C150.476 194.509 150.054 194.622 149.563 194.622C149.101 194.622 148.701 194.509 148.364 194.281C148.026 194.047 147.792 193.742 147.66 193.368H147.759V196.503H146.626ZM149.277 193.742C149.746 193.742 150.12 193.577 150.399 193.247C150.677 192.91 150.817 192.437 150.817 191.828C150.817 191.205 150.677 190.732 150.399 190.409C150.12 190.087 149.746 189.925 149.277 189.925C148.807 189.925 148.433 190.087 148.155 190.409C147.883 190.732 147.748 191.205 147.748 191.828C147.748 192.437 147.887 192.91 148.166 193.247C148.444 193.577 148.815 193.742 149.277 193.742ZM155.189 194.622C154.896 194.622 154.61 194.597 154.331 194.545C154.06 194.494 153.807 194.421 153.572 194.325C153.338 194.23 153.136 194.113 152.967 193.973L153.286 193.203C153.47 193.328 153.668 193.434 153.88 193.522C154.093 193.61 154.309 193.676 154.529 193.72C154.757 193.764 154.98 193.786 155.2 193.786C155.596 193.786 155.897 193.72 156.102 193.588C156.308 193.456 156.41 193.273 156.41 193.038C156.41 192.848 156.344 192.701 156.212 192.598C156.088 192.488 155.886 192.408 155.607 192.356L154.529 192.147C154.06 192.059 153.704 191.891 153.462 191.641C153.228 191.392 153.11 191.077 153.11 190.695C153.11 190.358 153.202 190.065 153.385 189.815C153.569 189.566 153.825 189.375 154.155 189.243C154.493 189.104 154.885 189.034 155.332 189.034C155.589 189.034 155.838 189.06 156.08 189.111C156.33 189.155 156.561 189.229 156.773 189.331C156.986 189.427 157.169 189.548 157.323 189.694L156.982 190.464C156.843 190.332 156.678 190.226 156.487 190.145C156.304 190.057 156.113 189.991 155.915 189.947C155.725 189.896 155.534 189.87 155.343 189.87C154.947 189.87 154.65 189.94 154.452 190.079C154.254 190.219 154.155 190.409 154.155 190.651C154.155 190.835 154.214 190.981 154.331 191.091C154.449 191.201 154.636 191.282 154.892 191.333L155.959 191.542C156.458 191.638 156.828 191.803 157.07 192.037C157.32 192.272 157.444 192.587 157.444 192.983C157.444 193.321 157.349 193.614 157.158 193.863C156.975 194.105 156.715 194.292 156.377 194.424C156.04 194.556 155.644 194.622 155.189 194.622Z" fill="black"/>
</svg>
