<svg width="379" height="136" viewBox="0 0 379 136" fill="none" xmlns="http://www.w3.org/2000/svg">
<rect width="379" height="136" rx="12" fill="white"/>
<path d="M16 28C16 23.5817 19.5817 20 24 20H44C48.4183 20 52 23.5817 52 28V48C52 52.4183 48.4183 56 44 56H24C19.5817 56 16 52.4183 16 48V28Z" fill="black"/>
<g clip-path="url(#clip0_7434_158127)">
<path fill-rule="evenodd" clip-rule="evenodd" d="M26.3662 27.6656C28.1709 27.6643 29.9756 27.6549 31.7789 27.6737C32.2598 27.6763 32.742 27.6656 33.2229 27.683C35.0385 27.6844 36.8555 27.6817 38.6724 27.6844C38.7462 27.6723 38.7995 27.7259 38.85 27.7714C39.57 28.481 40.2913 29.1907 41.0154 29.895C41.0905 29.9753 41.208 30.0463 41.1875 30.1708C41.1875 35.311 41.1861 40.4512 41.1875 45.5914C41.1711 45.7293 41.2381 45.9047 41.1178 46.0104C40.3637 46.7402 39.6233 47.4833 38.876 48.2197C38.8268 48.2585 38.7831 48.3214 38.7134 48.3214C36.7325 48.3348 34.7502 48.3482 32.7693 48.3429C32.0822 48.3214 31.3936 48.3389 30.7064 48.3348C29.2611 48.3241 27.8157 48.3214 26.3689 48.3161C27.6354 48.3081 28.9031 48.3148 30.1709 48.3121C30.5207 48.3081 30.8717 48.3255 31.2215 48.3014C31.2242 47.0066 31.2215 45.7119 31.2228 44.4171C31.2201 44.1319 31.231 43.8454 31.2133 43.5602C29.5985 43.5562 27.9824 43.5562 26.3676 43.5588C26.3607 38.262 26.3635 32.9625 26.3662 27.6656ZM31.2351 32.4403C31.2297 34.3684 31.2338 36.2964 31.2324 38.2258C31.2365 40.0026 31.2269 41.7781 31.2379 43.5548C32.2147 43.5883 33.1942 43.5481 34.1724 43.5776C34.8869 43.5736 35.6027 43.5642 36.3172 43.5669C36.3172 39.8634 36.324 36.1612 36.3145 32.4577C35.518 32.4564 34.7215 32.4684 33.9251 32.4483C33.0289 32.4483 32.1313 32.4523 31.2351 32.4403Z" fill="white"/>
<path d="M26.3672 43.5585C27.982 43.5558 29.5981 43.5558 31.2129 43.5598C31.2307 43.845 31.2197 44.1316 31.2225 44.4168C31.2211 45.7115 31.2238 47.0063 31.2211 48.301C30.8714 48.3251 30.5203 48.3077 30.1705 48.3117C28.9028 48.3144 27.635 48.3077 26.3686 48.3158C26.3658 46.7305 26.3699 45.1438 26.3672 43.5585Z" fill="#EF4136"/>
</g>
<path d="M63.078 34V24.13H66.746C67.8473 24.13 68.7807 24.3213 69.546 24.704C70.3207 25.0867 70.9087 25.6467 71.31 26.384C71.7207 27.112 71.926 28.0033 71.926 29.058C71.926 30.1127 71.7207 31.0087 71.31 31.746C70.9087 32.4833 70.3207 33.0433 69.546 33.426C68.7807 33.8087 67.8473 34 66.746 34H63.078ZM64.87 32.516H66.634C67.782 32.516 68.636 32.2313 69.196 31.662C69.7653 31.0833 70.05 30.2153 70.05 29.058C70.05 27.9007 69.7653 27.0373 69.196 26.468C68.6267 25.8987 67.7727 25.614 66.634 25.614H64.87V32.516ZM76.9481 34.14C76.1734 34.14 75.5061 33.9953 74.9461 33.706C74.3861 33.4167 73.9521 33.006 73.6441 32.474C73.3454 31.942 73.1961 31.312 73.1961 30.584C73.1961 29.8747 73.3407 29.254 73.6301 28.722C73.9287 28.19 74.3347 27.7747 74.8481 27.476C75.3707 27.168 75.9634 27.014 76.6261 27.014C77.2794 27.014 77.8394 27.154 78.3061 27.434C78.7727 27.714 79.1321 28.1107 79.3841 28.624C79.6454 29.1373 79.7761 29.7487 79.7761 30.458V30.976H74.6101V29.968H78.5441L78.3201 30.178C78.3201 29.5433 78.1801 29.058 77.9001 28.722C77.6201 28.3767 77.2187 28.204 76.6961 28.204C76.3041 28.204 75.9681 28.2973 75.6881 28.484C75.4174 28.6613 75.2074 28.918 75.0581 29.254C74.9181 29.5807 74.8481 29.9727 74.8481 30.43V30.528C74.8481 31.0413 74.9274 31.466 75.0861 31.802C75.2447 32.138 75.4827 32.39 75.8001 32.558C76.1174 32.726 76.5094 32.81 76.9761 32.81C77.3587 32.81 77.7414 32.754 78.1241 32.642C78.5067 32.5207 78.8567 32.334 79.1741 32.082L79.6641 33.258C79.3374 33.5287 78.9267 33.7433 78.4321 33.902C77.9374 34.0607 77.4427 34.14 76.9481 34.14ZM83.542 34.14C82.73 34.14 82.128 33.9207 81.736 33.482C81.3533 33.034 81.162 32.3807 81.162 31.522V24.13H82.912V31.438C82.912 31.7087 82.9493 31.942 83.024 32.138C83.108 32.3247 83.2293 32.4647 83.388 32.558C83.5466 32.6513 83.7426 32.698 83.976 32.698C84.0786 32.698 84.1813 32.6933 84.284 32.684C84.3866 32.6747 84.4846 32.656 84.578 32.628L84.55 34.014C84.382 34.0513 84.214 34.0793 84.046 34.098C83.8873 34.126 83.7193 34.14 83.542 34.14ZM85.6327 34V24.13H87.3827V28.526H87.1867C87.392 28.0313 87.7093 27.658 88.1387 27.406C88.5773 27.1447 89.072 27.014 89.6227 27.014C90.1733 27.014 90.626 27.1167 90.9807 27.322C91.3353 27.5273 91.6013 27.84 91.7787 28.26C91.956 28.6707 92.0447 29.1933 92.0447 29.828V34H90.2947V29.912C90.2947 29.5573 90.248 29.268 90.1547 29.044C90.0707 28.82 89.9353 28.6567 89.7487 28.554C89.5713 28.442 89.3427 28.386 89.0627 28.386C88.7267 28.386 88.4327 28.4607 88.1807 28.61C87.9287 28.75 87.7327 28.9553 87.5927 29.226C87.4527 29.4873 87.3827 29.7953 87.3827 30.15V34H85.6327ZM93.7101 25.684V23.976H95.6701V25.684H93.7101ZM93.8221 34V27.154H95.5721V34H93.8221ZM99.4065 34L96.4385 27.154H98.3005L100.414 32.46H99.9945L102.178 27.154H103.928L100.918 34H99.4065ZM108.011 34.14C107.236 34.14 106.569 33.9953 106.009 33.706C105.449 33.4167 105.015 33.006 104.707 32.474C104.408 31.942 104.259 31.312 104.259 30.584C104.259 29.8747 104.403 29.254 104.693 28.722C104.991 28.19 105.397 27.7747 105.911 27.476C106.433 27.168 107.026 27.014 107.689 27.014C108.342 27.014 108.902 27.154 109.369 27.434C109.835 27.714 110.195 28.1107 110.447 28.624C110.708 29.1373 110.839 29.7487 110.839 30.458V30.976H105.673V29.968H109.607L109.383 30.178C109.383 29.5433 109.243 29.058 108.963 28.722C108.683 28.3767 108.281 28.204 107.759 28.204C107.367 28.204 107.031 28.2973 106.751 28.484C106.48 28.6613 106.27 28.918 106.121 29.254C105.981 29.5807 105.911 29.9727 105.911 30.43V30.528C105.911 31.0413 105.99 31.466 106.149 31.802C106.307 32.138 106.545 32.39 106.863 32.558C107.18 32.726 107.572 32.81 108.039 32.81C108.421 32.81 108.804 32.754 109.187 32.642C109.569 32.5207 109.919 32.334 110.237 32.082L110.727 33.258C110.4 33.5287 109.989 33.7433 109.495 33.902C109 34.0607 108.505 34.14 108.011 34.14ZM112.224 34V27.154H113.932V28.806H113.792C113.923 28.246 114.18 27.8213 114.562 27.532C114.945 27.2333 115.454 27.0607 116.088 27.014L116.62 26.972L116.732 28.456L115.724 28.554C115.155 28.61 114.726 28.7873 114.436 29.086C114.147 29.3753 114.002 29.786 114.002 30.318V34H112.224ZM118.747 36.52L120.175 33.37V34.098L117.165 27.154H119.027L121.155 32.46H120.735L122.905 27.154H124.669L120.553 36.52H118.747ZM129.119 31.228V29.282H131.079V31.228H129.119ZM136.743 34L137.219 31.592H136.225V30.472H137.429L138.003 27.546H136.519V26.426H138.199L138.661 24.13H139.879L139.417 26.426H141.181L141.643 24.13H142.861L142.399 26.426H143.393V27.546H142.189L141.615 30.472H143.099V31.592H141.419L140.943 34H139.725L140.201 31.592H138.437L137.961 34H136.743ZM138.647 30.472H140.397L140.971 27.546H139.221L138.647 30.472ZM149.828 34.14C148.736 34.14 147.812 33.9347 147.056 33.524C146.309 33.1133 145.74 32.53 145.348 31.774C144.956 31.018 144.76 30.122 144.76 29.086C144.76 28.0407 144.961 27.14 145.362 26.384C145.763 25.6187 146.342 25.0307 147.098 24.62C147.854 24.2 148.759 23.99 149.814 23.99C150.281 23.99 150.724 24.0367 151.144 24.13C151.573 24.214 151.97 24.34 152.334 24.508C152.698 24.676 153.011 24.8813 153.272 25.124L152.67 26.524C152.231 26.1787 151.783 25.9313 151.326 25.782C150.869 25.6327 150.365 25.558 149.814 25.558C148.769 25.558 147.975 25.8613 147.434 26.468C146.902 27.0747 146.636 27.9473 146.636 29.086C146.636 30.234 146.911 31.1067 147.462 31.704C148.013 32.3013 148.829 32.6 149.912 32.6C150.285 32.6 150.663 32.5627 151.046 32.488C151.429 32.4133 151.802 32.3107 152.166 32.18L151.816 32.978V29.996H149.548V28.666H153.314V33.412C153.015 33.5613 152.67 33.692 152.278 33.804C151.895 33.9067 151.494 33.986 151.074 34.042C150.654 34.1073 150.239 34.14 149.828 34.14ZM155.391 34V24.13H159.675C160.757 24.13 161.593 24.3913 162.181 24.914C162.769 25.4273 163.062 26.1507 163.062 27.084C163.062 27.6907 162.927 28.2133 162.657 28.652C162.395 29.0907 162.013 29.4267 161.508 29.66C161.005 29.8933 160.393 30.01 159.675 30.01L159.801 29.8H160.263C160.645 29.8 160.977 29.8933 161.257 30.08C161.546 30.2667 161.798 30.5607 162.013 30.962L163.665 34H161.691L159.983 30.85C159.871 30.6447 159.745 30.486 159.605 30.374C159.465 30.2527 159.306 30.1687 159.129 30.122C158.951 30.0753 158.746 30.052 158.513 30.052H157.183V34H155.391ZM157.183 28.722H159.367C160.011 28.722 160.496 28.5913 160.823 28.33C161.159 28.0593 161.327 27.658 161.327 27.126C161.327 26.6033 161.159 26.2113 160.823 25.95C160.496 25.6793 160.011 25.544 159.367 25.544H157.183V28.722ZM167.974 34L163.578 24.13H165.496L169.066 32.404H168.464L172.02 24.13H173.868L169.472 34H167.974ZM173.968 30.948V29.548H178.14V30.948H173.968ZM183.37 34.14C182.941 34.14 182.516 34.0933 182.096 34C181.685 33.9067 181.298 33.776 180.934 33.608C180.579 33.44 180.271 33.244 180.01 33.02L180.598 31.648C181.027 31.9747 181.471 32.222 181.928 32.39C182.385 32.5487 182.857 32.628 183.342 32.628C183.93 32.628 184.387 32.4787 184.714 32.18C185.05 31.872 185.218 31.4613 185.218 30.948C185.218 30.4253 185.059 30.0053 184.742 29.688C184.425 29.3613 183.991 29.198 183.44 29.198C183.039 29.198 182.679 29.2773 182.362 29.436C182.045 29.5853 181.755 29.8187 181.494 30.136H180.29V24.13H186.352V25.614H182.04V28.75H181.578C181.821 28.4233 182.138 28.1713 182.53 27.994C182.931 27.8167 183.375 27.728 183.86 27.728C184.485 27.728 185.027 27.8633 185.484 28.134C185.951 28.3953 186.31 28.764 186.562 29.24C186.823 29.7067 186.954 30.2527 186.954 30.878C186.954 31.522 186.809 32.0913 186.52 32.586C186.231 33.0713 185.815 33.454 185.274 33.734C184.742 34.0047 184.107 34.14 183.37 34.14ZM192.366 34V32.124H188.068V30.808L192.674 24.13H194.158V30.64H195.544V32.124H194.158V34H192.366ZM192.366 30.64V26.272H192.772L189.468 31.116V30.64H192.366ZM200.075 34.14C199.3 34.14 198.642 33.944 198.101 33.552C197.569 33.1507 197.163 32.572 196.883 31.816C196.612 31.06 196.477 30.136 196.477 29.044C196.477 27.9427 196.612 27.0187 196.883 26.272C197.163 25.516 197.569 24.9467 198.101 24.564C198.642 24.1813 199.3 23.99 200.075 23.99C200.859 23.99 201.517 24.1813 202.049 24.564C202.59 24.9467 202.996 25.5113 203.267 26.258C203.538 27.0047 203.673 27.9287 203.673 29.03C203.673 30.122 203.533 31.0507 203.253 31.816C202.982 32.572 202.581 33.1507 202.049 33.552C201.517 33.944 200.859 34.14 200.075 34.14ZM200.075 32.67C200.71 32.67 201.176 32.3807 201.475 31.802C201.783 31.214 201.937 30.29 201.937 29.03C201.937 27.7793 201.783 26.874 201.475 26.314C201.176 25.7447 200.71 25.46 200.075 25.46C199.45 25.46 198.983 25.7447 198.675 26.314C198.367 26.874 198.213 27.784 198.213 29.044C198.213 30.2947 198.367 31.214 198.675 31.802C198.983 32.3807 199.45 32.67 200.075 32.67ZM205.796 34V32.516H208.022V25.642H208.89L206.3 27.21L205.6 25.894L208.54 24.13H209.814V32.516H211.9V34H205.796ZM213.784 34V32.67L216.976 29.268C217.265 28.96 217.494 28.6753 217.662 28.414C217.839 28.1527 217.97 27.9007 218.054 27.658C218.138 27.4153 218.18 27.1727 218.18 26.93C218.18 26.4633 218.031 26.1087 217.732 25.866C217.443 25.6233 217.018 25.502 216.458 25.502C216.019 25.502 215.59 25.586 215.17 25.754C214.759 25.9127 214.363 26.1647 213.98 26.51L213.378 25.166C213.77 24.8113 214.26 24.5267 214.848 24.312C215.436 24.0973 216.047 23.99 216.682 23.99C217.391 23.99 217.989 24.0973 218.474 24.312C218.959 24.5267 219.328 24.8393 219.58 25.25C219.832 25.6607 219.958 26.16 219.958 26.748C219.958 27.0467 219.921 27.3407 219.846 27.63C219.781 27.91 219.673 28.19 219.524 28.47C219.384 28.75 219.202 29.0393 218.978 29.338C218.763 29.6273 218.502 29.9307 218.194 30.248L215.562 32.992V32.516H220.336V34H213.784Z" fill="black"/>
<path d="M65.996 52.108C65.484 52.108 65.04 51.98 64.664 51.724C64.288 51.46 64.036 51.112 63.908 50.68H64.04V52H62.852V43.54H64.064V47.428H63.92C64.048 47.004 64.3 46.668 64.676 46.42C65.052 46.164 65.492 46.036 65.996 46.036C66.524 46.036 66.98 46.16 67.364 46.408C67.748 46.656 68.044 47.004 68.252 47.452C68.468 47.9 68.576 48.44 68.576 49.072C68.576 49.688 68.468 50.228 68.252 50.692C68.044 51.148 67.744 51.5 67.352 51.748C66.968 51.988 66.516 52.108 65.996 52.108ZM65.696 51.172C66.2 51.172 66.6 50.992 66.896 50.632C67.2 50.272 67.352 49.752 67.352 49.072C67.352 48.384 67.2 47.864 66.896 47.512C66.6 47.16 66.2 46.984 65.696 46.984C65.2 46.984 64.8 47.16 64.496 47.512C64.192 47.864 64.04 48.384 64.04 49.072C64.04 49.752 64.192 50.272 64.496 50.632C64.8 50.992 65.2 51.172 65.696 51.172ZM69.8338 44.788V43.528H71.2498V44.788H69.8338ZM69.9418 52V46.144H71.1538V52H69.9418ZM74.7678 52.108C74.1278 52.108 73.6478 51.928 73.3278 51.568C73.0158 51.2 72.8598 50.672 72.8598 49.984V43.54H74.0718V49.912C74.0718 50.168 74.1078 50.388 74.1798 50.572C74.2518 50.748 74.3598 50.88 74.5038 50.968C74.6478 51.056 74.8278 51.1 75.0438 51.1C75.1398 51.1 75.2318 51.096 75.3198 51.088C75.4078 51.08 75.4918 51.064 75.5718 51.04L75.5478 52.012C75.4118 52.044 75.2798 52.068 75.1518 52.084C75.0238 52.1 74.8958 52.108 74.7678 52.108ZM78.4358 52.108C77.7958 52.108 77.3158 51.928 76.9958 51.568C76.6838 51.2 76.5278 50.672 76.5278 49.984V43.54H77.7398V49.912C77.7398 50.168 77.7758 50.388 77.8478 50.572C77.9198 50.748 78.0278 50.88 78.1718 50.968C78.3158 51.056 78.4958 51.1 78.7118 51.1C78.8078 51.1 78.8998 51.096 78.9878 51.088C79.0758 51.08 79.1598 51.064 79.2398 51.04L79.2158 52.012C79.0798 52.044 78.9478 52.068 78.8198 52.084C78.6918 52.1 78.5638 52.108 78.4358 52.108ZM82.8852 52.108C82.2452 52.108 81.6932 51.988 81.2292 51.748C80.7732 51.5 80.4172 51.152 80.1612 50.704C79.9132 50.248 79.7892 49.708 79.7892 49.084C79.7892 48.476 79.9132 47.944 80.1612 47.488C80.4092 47.032 80.7492 46.676 81.1812 46.42C81.6132 46.164 82.1052 46.036 82.6572 46.036C83.2012 46.036 83.6652 46.156 84.0492 46.396C84.4412 46.628 84.7412 46.96 84.9492 47.392C85.1572 47.824 85.2612 48.34 85.2612 48.94V49.348H80.7492V48.604H84.4452L84.2412 48.772C84.2412 48.172 84.1092 47.708 83.8452 47.38C83.5812 47.052 83.2012 46.888 82.7052 46.888C82.3292 46.888 82.0092 46.976 81.7452 47.152C81.4892 47.328 81.2932 47.572 81.1572 47.884C81.0212 48.196 80.9532 48.56 80.9532 48.976V49.048C80.9532 49.512 81.0252 49.904 81.1692 50.224C81.3212 50.536 81.5412 50.772 81.8292 50.932C82.1172 51.092 82.4732 51.172 82.8972 51.172C83.2332 51.172 83.5612 51.12 83.8812 51.016C84.2092 50.904 84.5172 50.732 84.8052 50.5L85.1652 51.34C84.9012 51.58 84.5612 51.768 84.1452 51.904C83.7292 52.04 83.3092 52.108 82.8852 52.108ZM88.8145 52.108C88.3025 52.108 87.8505 51.988 87.4585 51.748C87.0745 51.5 86.7745 51.148 86.5585 50.692C86.3425 50.228 86.2345 49.688 86.2345 49.072C86.2345 48.44 86.3425 47.9 86.5585 47.452C86.7745 47.004 87.0745 46.656 87.4585 46.408C87.8505 46.16 88.3025 46.036 88.8145 46.036C89.3265 46.036 89.7665 46.164 90.1345 46.42C90.5105 46.668 90.7625 47.004 90.8905 47.428H90.7585V43.54H91.9705V52H90.7825V50.68H90.9025C90.7745 51.112 90.5225 51.46 90.1465 51.724C89.7785 51.98 89.3345 52.108 88.8145 52.108ZM89.1265 51.172C89.6225 51.172 90.0225 50.992 90.3265 50.632C90.6305 50.272 90.7825 49.752 90.7825 49.072C90.7825 48.384 90.6305 47.864 90.3265 47.512C90.0225 47.16 89.6225 46.984 89.1265 46.984C88.6225 46.984 88.2185 47.16 87.9145 47.512C87.6105 47.864 87.4585 48.384 87.4585 49.072C87.4585 49.752 87.6105 50.272 87.9145 50.632C88.2185 50.992 88.6225 51.172 89.1265 51.172ZM96.9927 52V51.076L99.8127 48.052C100.077 47.764 100.289 47.5 100.449 47.26C100.609 47.012 100.725 46.776 100.797 46.552C100.877 46.32 100.917 46.088 100.917 45.856C100.917 45.408 100.781 45.068 100.509 44.836C100.237 44.604 99.8367 44.488 99.3087 44.488C98.9007 44.488 98.5127 44.564 98.1447 44.716C97.7847 44.868 97.4407 45.1 97.1127 45.412L96.6687 44.464C96.9887 44.152 97.3967 43.904 97.8927 43.72C98.3887 43.528 98.9047 43.432 99.4407 43.432C100.025 43.432 100.517 43.524 100.917 43.708C101.325 43.884 101.633 44.144 101.841 44.488C102.049 44.832 102.153 45.252 102.153 45.748C102.153 46.004 102.121 46.256 102.057 46.504C102.001 46.744 101.909 46.984 101.781 47.224C101.661 47.464 101.505 47.712 101.313 47.968C101.129 48.224 100.905 48.488 100.641 48.76L98.2287 51.304V50.956H102.489V52H96.9927ZM103.876 52V50.572H105.304V52H103.876ZM109.616 52.108C108.96 52.108 108.408 51.94 107.96 51.604C107.512 51.268 107.172 50.78 106.94 50.14C106.708 49.492 106.592 48.7 106.592 47.764C106.592 46.812 106.708 46.016 106.94 45.376C107.172 44.736 107.512 44.252 107.96 43.924C108.408 43.596 108.96 43.432 109.616 43.432C110.28 43.432 110.836 43.596 111.284 43.924C111.732 44.244 112.068 44.724 112.292 45.364C112.524 46.004 112.64 46.8 112.64 47.752C112.64 48.688 112.524 49.48 112.292 50.128C112.06 50.776 111.72 51.268 111.272 51.604C110.824 51.94 110.272 52.108 109.616 52.108ZM109.616 51.076C110.232 51.076 110.684 50.808 110.972 50.272C111.268 49.736 111.416 48.896 111.416 47.752C111.416 46.608 111.268 45.776 110.972 45.256C110.684 44.728 110.232 44.464 109.616 44.464C109.008 44.464 108.556 44.728 108.26 45.256C107.964 45.776 107.816 46.608 107.816 47.752C107.816 48.896 107.964 49.736 108.26 50.272C108.556 50.808 109.008 51.076 109.616 51.076ZM117.215 52V43.54H118.427V48.7H118.451L120.995 46.144H122.495L119.411 49.24V48.676L122.711 52H121.199L118.451 49.324H118.427V52H117.215ZM125.926 54.268C125.398 54.268 124.906 54.204 124.45 54.076C123.994 53.948 123.59 53.756 123.238 53.5L123.61 52.636C123.842 52.788 124.078 52.916 124.318 53.02C124.566 53.132 124.814 53.212 125.062 53.26C125.318 53.308 125.578 53.332 125.842 53.332C126.402 53.332 126.822 53.188 127.102 52.9C127.382 52.62 127.522 52.204 127.522 51.652V50.428H127.63C127.51 50.868 127.258 51.216 126.874 51.472C126.49 51.728 126.046 51.856 125.542 51.856C125.014 51.856 124.554 51.736 124.162 51.496C123.77 51.248 123.466 50.908 123.25 50.476C123.034 50.036 122.926 49.524 122.926 48.94C122.926 48.356 123.034 47.848 123.25 47.416C123.466 46.984 123.77 46.648 124.162 46.408C124.554 46.16 125.014 46.036 125.542 46.036C126.054 46.036 126.498 46.164 126.874 46.42C127.258 46.676 127.506 47.024 127.618 47.464H127.522V46.144H128.698V51.508C128.698 52.116 128.594 52.624 128.386 53.032C128.178 53.448 127.866 53.756 127.45 53.956C127.042 54.164 126.534 54.268 125.926 54.268ZM125.83 50.908C126.35 50.908 126.758 50.732 127.054 50.38C127.358 50.028 127.51 49.548 127.51 48.94C127.51 48.34 127.358 47.864 127.054 47.512C126.758 47.16 126.35 46.984 125.83 46.984C125.318 46.984 124.91 47.16 124.606 47.512C124.302 47.864 124.15 48.34 124.15 48.94C124.15 49.548 124.302 50.028 124.606 50.38C124.91 50.732 125.318 50.908 125.83 50.908ZM135.267 52L132.747 46.144H134.055L136.011 51.004H135.675L137.679 46.144H138.915L136.359 52H135.267ZM141.72 52.108C141.408 52.108 141.104 52.08 140.808 52.024C140.512 51.968 140.24 51.888 139.992 51.784C139.744 51.68 139.524 51.552 139.332 51.4L139.68 50.584C139.88 50.72 140.092 50.84 140.316 50.944C140.54 51.04 140.772 51.112 141.012 51.16C141.26 51.208 141.5 51.232 141.732 51.232C142.156 51.232 142.476 51.156 142.692 51.004C142.908 50.852 143.016 50.648 143.016 50.392C143.016 50.184 142.944 50.024 142.8 49.912C142.656 49.792 142.44 49.7 142.152 49.636L141.012 49.408C140.516 49.304 140.14 49.12 139.884 48.856C139.628 48.592 139.5 48.256 139.5 47.848C139.5 47.48 139.6 47.16 139.8 46.888C140 46.616 140.28 46.408 140.64 46.264C141 46.112 141.416 46.036 141.888 46.036C142.16 46.036 142.424 46.064 142.68 46.12C142.936 46.176 143.176 46.256 143.4 46.36C143.632 46.464 143.828 46.596 143.988 46.756L143.64 47.572C143.488 47.436 143.312 47.32 143.112 47.224C142.92 47.128 142.72 47.056 142.512 47.008C142.304 46.952 142.096 46.924 141.888 46.924C141.464 46.924 141.144 47.004 140.928 47.164C140.72 47.316 140.616 47.524 140.616 47.788C140.616 47.988 140.68 48.152 140.808 48.28C140.936 48.408 141.136 48.5 141.408 48.556L142.548 48.784C143.068 48.888 143.46 49.064 143.724 49.312C143.996 49.56 144.132 49.896 144.132 50.32C144.132 50.688 144.032 51.008 143.832 51.28C143.632 51.552 143.348 51.76 142.98 51.904C142.62 52.04 142.2 52.108 141.72 52.108ZM151.381 52.108C150.725 52.108 150.173 51.94 149.725 51.604C149.277 51.268 148.937 50.78 148.705 50.14C148.473 49.492 148.357 48.7 148.357 47.764C148.357 46.812 148.473 46.016 148.705 45.376C148.937 44.736 149.277 44.252 149.725 43.924C150.173 43.596 150.725 43.432 151.381 43.432C152.045 43.432 152.601 43.596 153.049 43.924C153.497 44.244 153.833 44.724 154.057 45.364C154.289 46.004 154.405 46.8 154.405 47.752C154.405 48.688 154.289 49.48 154.057 50.128C153.825 50.776 153.485 51.268 153.037 51.604C152.589 51.94 152.037 52.108 151.381 52.108ZM151.381 51.076C151.997 51.076 152.449 50.808 152.737 50.272C153.033 49.736 153.181 48.896 153.181 47.752C153.181 46.608 153.033 45.776 152.737 45.256C152.449 44.728 151.997 44.464 151.381 44.464C150.773 44.464 150.321 44.728 150.025 45.256C149.729 45.776 149.581 46.608 149.581 47.752C149.581 48.896 149.729 49.736 150.025 50.272C150.321 50.808 150.773 51.076 151.381 51.076ZM155.685 52V50.572H157.113V52H155.685ZM161.556 52.108C161.188 52.108 160.828 52.068 160.476 51.988C160.132 51.908 159.808 51.796 159.504 51.652C159.2 51.508 158.936 51.332 158.712 51.124L159.132 50.164C159.516 50.468 159.904 50.692 160.296 50.836C160.688 50.98 161.1 51.052 161.532 51.052C162.084 51.052 162.516 50.904 162.828 50.608C163.14 50.312 163.296 49.916 163.296 49.42C163.296 48.916 163.148 48.504 162.852 48.184C162.556 47.864 162.144 47.704 161.616 47.704C161.24 47.704 160.904 47.78 160.608 47.932C160.32 48.084 160.06 48.316 159.828 48.628H158.964V43.54H164.004V44.584H160.176V47.632H159.84C160.056 47.328 160.34 47.092 160.692 46.924C161.052 46.756 161.448 46.672 161.88 46.672C162.416 46.672 162.88 46.784 163.272 47.008C163.664 47.232 163.968 47.548 164.184 47.956C164.4 48.356 164.508 48.824 164.508 49.36C164.508 49.904 164.388 50.384 164.148 50.8C163.908 51.208 163.568 51.528 163.128 51.76C162.688 51.992 162.164 52.108 161.556 52.108ZM169.024 52V43.54H170.236V48.7H170.26L172.804 46.144H174.304L171.22 49.24V48.676L174.52 52H173.008L170.26 49.324H170.236V52H169.024ZM177.734 54.268C177.206 54.268 176.714 54.204 176.258 54.076C175.802 53.948 175.398 53.756 175.046 53.5L175.418 52.636C175.65 52.788 175.886 52.916 176.126 53.02C176.374 53.132 176.622 53.212 176.87 53.26C177.126 53.308 177.386 53.332 177.65 53.332C178.21 53.332 178.63 53.188 178.91 52.9C179.19 52.62 179.33 52.204 179.33 51.652V50.428H179.438C179.318 50.868 179.066 51.216 178.682 51.472C178.298 51.728 177.854 51.856 177.35 51.856C176.822 51.856 176.362 51.736 175.97 51.496C175.578 51.248 175.274 50.908 175.058 50.476C174.842 50.036 174.734 49.524 174.734 48.94C174.734 48.356 174.842 47.848 175.058 47.416C175.274 46.984 175.578 46.648 175.97 46.408C176.362 46.16 176.822 46.036 177.35 46.036C177.862 46.036 178.306 46.164 178.682 46.42C179.066 46.676 179.314 47.024 179.426 47.464H179.33V46.144H180.506V51.508C180.506 52.116 180.402 52.624 180.194 53.032C179.986 53.448 179.674 53.756 179.258 53.956C178.85 54.164 178.342 54.268 177.734 54.268ZM177.638 50.908C178.158 50.908 178.566 50.732 178.862 50.38C179.166 50.028 179.318 49.548 179.318 48.94C179.318 48.34 179.166 47.864 178.862 47.512C178.566 47.16 178.158 46.984 177.638 46.984C177.126 46.984 176.718 47.16 176.414 47.512C176.11 47.864 175.958 48.34 175.958 48.94C175.958 49.548 176.11 50.028 176.414 50.38C176.718 50.732 177.126 50.908 177.638 50.908Z" fill="#737682"/>
<path d="M342.782 34L340.696 30.864C340.575 30.668 340.444 30.5093 340.304 30.388C340.173 30.2667 340.024 30.1827 339.856 30.136C339.697 30.08 339.506 30.052 339.282 30.052H337.294V28.638H340.038C340.486 28.638 340.855 28.5867 341.144 28.484C341.433 28.372 341.657 28.204 341.816 27.98C341.984 27.756 342.091 27.4713 342.138 27.126L342.376 27.546H337.294V26.314H342.376L342.11 26.706C342.035 26.258 341.835 25.922 341.508 25.698C341.181 25.474 340.715 25.362 340.108 25.362H337.294V24.13H345.12V25.362H342.614L342.782 24.97C343.099 25.138 343.347 25.362 343.524 25.642C343.701 25.9127 343.809 26.23 343.846 26.594L343.524 26.314H345.12V27.546H343.566L343.874 27.042C343.883 27.6393 343.753 28.1573 343.482 28.596C343.211 29.0347 342.824 29.3753 342.32 29.618C341.825 29.8513 341.228 29.968 340.528 29.968V29.828H340.92C341.2 29.828 341.452 29.8653 341.676 29.94C341.9 30.0053 342.11 30.122 342.306 30.29C342.502 30.4487 342.689 30.6633 342.866 30.934L344.938 34H342.782ZM348.839 34.14C348.493 34.14 348.143 34.0933 347.789 34C347.443 33.916 347.112 33.79 346.795 33.622C346.487 33.454 346.207 33.2533 345.955 33.02L346.557 31.676C346.893 31.9933 347.257 32.2313 347.649 32.39C348.05 32.5487 348.451 32.628 348.853 32.628C349.263 32.628 349.623 32.558 349.931 32.418C350.248 32.2687 350.514 32.054 350.729 31.774C350.943 31.4847 351.102 31.13 351.205 30.71C351.317 30.2807 351.373 29.786 351.373 29.226V28.176H351.527C351.461 28.6427 351.307 29.0487 351.065 29.394C350.822 29.7393 350.514 30.0053 350.141 30.192C349.777 30.3693 349.361 30.458 348.895 30.458C348.335 30.458 347.835 30.3227 347.397 30.052C346.958 29.7813 346.608 29.408 346.347 28.932C346.095 28.4467 345.969 27.9007 345.969 27.294C345.969 26.65 346.109 26.0807 346.389 25.586C346.669 25.0913 347.051 24.704 347.537 24.424C348.031 24.1347 348.596 23.99 349.231 23.99C350.052 23.99 350.747 24.1813 351.317 24.564C351.886 24.9467 352.32 25.5067 352.619 26.244C352.917 26.972 353.067 27.854 353.067 28.89C353.067 30.0007 352.899 30.948 352.563 31.732C352.227 32.516 351.741 33.1133 351.107 33.524C350.481 33.9347 349.725 34.14 348.839 34.14ZM349.343 29.03C349.679 29.03 349.973 28.9553 350.225 28.806C350.486 28.6567 350.687 28.4467 350.827 28.176C350.967 27.896 351.037 27.5787 351.037 27.224C351.037 26.86 350.967 26.5427 350.827 26.272C350.687 26.0013 350.486 25.7913 350.225 25.642C349.973 25.4833 349.679 25.404 349.343 25.404C349.007 25.404 348.713 25.4833 348.461 25.642C348.209 25.7913 348.008 26.0013 347.859 26.272C347.719 26.5427 347.649 26.86 347.649 27.224C347.649 27.5787 347.719 27.896 347.859 28.176C348.008 28.4467 348.209 28.6567 348.461 28.806C348.713 28.9553 349.007 29.03 349.343 29.03ZM358.353 34.14C357.541 34.14 356.846 33.9487 356.267 33.566C355.698 33.174 355.264 32.614 354.965 31.886C354.666 31.158 354.517 30.276 354.517 29.24C354.517 28.12 354.685 27.1727 355.021 26.398C355.357 25.614 355.842 25.0167 356.477 24.606C357.112 24.1953 357.872 23.99 358.759 23.99C359.104 23.99 359.45 24.0367 359.795 24.13C360.15 24.214 360.481 24.34 360.789 24.508C361.106 24.6667 361.386 24.8627 361.629 25.096L361.041 26.44C360.696 26.1227 360.327 25.8893 359.935 25.74C359.543 25.5813 359.142 25.502 358.731 25.502C358.33 25.502 357.97 25.5767 357.653 25.726C357.345 25.866 357.084 26.0807 356.869 26.37C356.654 26.65 356.491 27.0047 356.379 27.434C356.276 27.854 356.225 28.344 356.225 28.904V29.954H356.057C356.132 29.478 356.286 29.072 356.519 28.736C356.762 28.3907 357.07 28.1293 357.443 27.952C357.816 27.7653 358.232 27.672 358.689 27.672C359.258 27.672 359.762 27.8073 360.201 28.078C360.64 28.3487 360.985 28.722 361.237 29.198C361.489 29.674 361.615 30.22 361.615 30.836C361.615 31.4707 361.475 32.04 361.195 32.544C360.924 33.0387 360.542 33.4307 360.047 33.72C359.562 34 358.997 34.14 358.353 34.14ZM358.255 32.712C358.591 32.712 358.885 32.6373 359.137 32.488C359.398 32.3387 359.599 32.1287 359.739 31.858C359.879 31.578 359.949 31.2607 359.949 30.906C359.949 30.542 359.879 30.2247 359.739 29.954C359.599 29.6833 359.398 29.4733 359.137 29.324C358.885 29.1653 358.591 29.086 358.255 29.086C357.919 29.086 357.625 29.1653 357.373 29.324C357.121 29.4733 356.92 29.6833 356.771 29.954C356.631 30.2247 356.561 30.542 356.561 30.906C356.561 31.2607 356.631 31.578 356.771 31.858C356.92 32.1287 357.121 32.3387 357.373 32.488C357.625 32.6373 357.919 32.712 358.255 32.712Z" fill="#24B364"/>
<rect x="16" y="78" width="347" height="40" rx="8" fill="#EBEBED"/>
<path d="M51.5 93.5L50.96 92.4125C50.8325 92.1575 50.57 92 50.285 92H45.5C45.0875 92 44.75 92.3375 44.75 92.75V104C44.75 104.413 45.0875 104.75 45.5 104.75C45.9125 104.75 46.25 104.413 46.25 104V99.5H50L50.54 100.587C50.6675 100.842 50.93 101 51.2075 101H55.25C55.6625 101 56 100.663 56 100.25V94.25C56 93.8375 55.6625 93.5 55.25 93.5H51.5ZM54.5 99.5H51.5L50.75 98H46.25V93.5H50L50.75 95H54.5V99.5Z" fill="#444050"/>
<path d="M66.4214 103V93.13H72.6934V94.306H67.8774V97.456H72.3994V98.632H67.8774V103H66.4214ZM76.2454 103.126C75.4987 103.126 74.9387 102.916 74.5654 102.496C74.2014 102.067 74.0194 101.451 74.0194 100.648V93.13H75.4334V100.564C75.4334 100.863 75.4754 101.119 75.5594 101.334C75.6434 101.539 75.7694 101.693 75.9374 101.796C76.1054 101.899 76.3154 101.95 76.5674 101.95C76.6794 101.95 76.7867 101.945 76.8894 101.936C76.9921 101.927 77.0901 101.908 77.1834 101.88L77.1554 103.014C76.9967 103.051 76.8427 103.079 76.6934 103.098C76.5441 103.117 76.3947 103.126 76.2454 103.126ZM80.4827 103.126C80.0067 103.126 79.5774 103.033 79.1947 102.846C78.8214 102.659 78.5274 102.407 78.3127 102.09C78.098 101.773 77.9907 101.413 77.9907 101.012C77.9907 100.508 78.1167 100.111 78.3687 99.822C78.63 99.5233 79.0547 99.3133 79.6427 99.192C80.24 99.0613 81.0427 98.996 82.0507 98.996H82.7087V99.864H82.0647C81.5607 99.864 81.136 99.8827 80.7907 99.92C80.4454 99.9573 80.17 100.018 79.9647 100.102C79.7594 100.177 79.61 100.284 79.5167 100.424C79.4327 100.564 79.3907 100.732 79.3907 100.928C79.3907 101.283 79.512 101.572 79.7547 101.796C79.9974 102.011 80.3334 102.118 80.7627 102.118C81.108 102.118 81.4114 102.039 81.6727 101.88C81.934 101.712 82.1394 101.488 82.2887 101.208C82.4474 100.928 82.5267 100.606 82.5267 100.242V98.632C82.5267 98.1 82.4147 97.7173 82.1907 97.484C81.9667 97.2507 81.598 97.134 81.0847 97.134C80.6927 97.134 80.3007 97.1947 79.9087 97.316C79.5167 97.428 79.1154 97.61 78.7047 97.862L78.2707 96.868C78.5134 96.7 78.7934 96.5553 79.1107 96.434C79.428 96.3127 79.7594 96.2193 80.1047 96.154C80.4594 96.0793 80.8 96.042 81.1267 96.042C81.752 96.042 82.2654 96.14 82.6667 96.336C83.0774 96.532 83.3807 96.8307 83.5767 97.232C83.7727 97.6333 83.8707 98.1513 83.8707 98.786V103H82.5407V101.474H82.6667C82.592 101.819 82.452 102.118 82.2467 102.37C82.0507 102.613 81.8034 102.799 81.5047 102.93C81.206 103.061 80.8654 103.126 80.4827 103.126ZM88.9122 105.646C88.2962 105.646 87.7222 105.571 87.1902 105.422C86.6582 105.273 86.1869 105.049 85.7762 104.75L86.2102 103.742C86.4809 103.919 86.7562 104.069 87.0362 104.19C87.3256 104.321 87.6149 104.414 87.9042 104.47C88.2029 104.526 88.5062 104.554 88.8142 104.554C89.4676 104.554 89.9576 104.386 90.2842 104.05C90.6109 103.723 90.7742 103.238 90.7742 102.594V101.166H90.9002C90.7602 101.679 90.4662 102.085 90.0182 102.384C89.5702 102.683 89.0522 102.832 88.4642 102.832C87.8482 102.832 87.3116 102.692 86.8542 102.412C86.3969 102.123 86.0422 101.726 85.7902 101.222C85.5382 100.709 85.4122 100.111 85.4122 99.43C85.4122 98.7487 85.5382 98.156 85.7902 97.652C86.0422 97.148 86.3969 96.756 86.8542 96.476C87.3116 96.1867 87.8482 96.042 88.4642 96.042C89.0616 96.042 89.5796 96.1913 90.0182 96.49C90.4662 96.7887 90.7556 97.1947 90.8862 97.708H90.7742V96.168H92.1462V102.426C92.1462 103.135 92.0249 103.728 91.7822 104.204C91.5396 104.689 91.1756 105.049 90.6902 105.282C90.2142 105.525 89.6216 105.646 88.9122 105.646ZM88.8002 101.726C89.4069 101.726 89.8829 101.521 90.2282 101.11C90.5829 100.699 90.7602 100.139 90.7602 99.43C90.7602 98.73 90.5829 98.1747 90.2282 97.764C89.8829 97.3533 89.4069 97.148 88.8002 97.148C88.2029 97.148 87.7269 97.3533 87.3722 97.764C87.0176 98.1747 86.8402 98.73 86.8402 99.43C86.8402 100.139 87.0176 100.699 87.3722 101.11C87.7269 101.521 88.2029 101.726 88.8002 101.726ZM97.2247 105.646C96.6087 105.646 96.0347 105.571 95.5027 105.422C94.9707 105.273 94.4994 105.049 94.0887 104.75L94.5227 103.742C94.7934 103.919 95.0687 104.069 95.3487 104.19C95.6381 104.321 95.9274 104.414 96.2167 104.47C96.5154 104.526 96.8187 104.554 97.1267 104.554C97.7801 104.554 98.2701 104.386 98.5967 104.05C98.9234 103.723 99.0867 103.238 99.0867 102.594V101.166H99.2127C99.0727 101.679 98.7787 102.085 98.3307 102.384C97.8827 102.683 97.3647 102.832 96.7767 102.832C96.1607 102.832 95.6241 102.692 95.1667 102.412C94.7094 102.123 94.3547 101.726 94.1027 101.222C93.8507 100.709 93.7247 100.111 93.7247 99.43C93.7247 98.7487 93.8507 98.156 94.1027 97.652C94.3547 97.148 94.7094 96.756 95.1667 96.476C95.6241 96.1867 96.1607 96.042 96.7767 96.042C97.3741 96.042 97.8921 96.1913 98.3307 96.49C98.7787 96.7887 99.0681 97.1947 99.1987 97.708H99.0867V96.168H100.459V102.426C100.459 103.135 100.337 103.728 100.095 104.204C99.8521 104.689 99.4881 105.049 99.0027 105.282C98.5267 105.525 97.9341 105.646 97.2247 105.646ZM97.1127 101.726C97.7194 101.726 98.1954 101.521 98.5407 101.11C98.8954 100.699 99.0727 100.139 99.0727 99.43C99.0727 98.73 98.8954 98.1747 98.5407 97.764C98.1954 97.3533 97.7194 97.148 97.1127 97.148C96.5154 97.148 96.0394 97.3533 95.6847 97.764C95.3301 98.1747 95.1527 98.73 95.1527 99.43C95.1527 100.139 95.3301 100.699 95.6847 101.11C96.0394 101.521 96.5154 101.726 97.1127 101.726ZM105.649 103.126C104.903 103.126 104.259 102.986 103.717 102.706C103.185 102.417 102.77 102.011 102.471 101.488C102.182 100.956 102.037 100.326 102.037 99.598C102.037 98.8887 102.182 98.268 102.471 97.736C102.761 97.204 103.157 96.7887 103.661 96.49C104.165 96.1913 104.739 96.042 105.383 96.042C106.018 96.042 106.559 96.182 107.007 96.462C107.465 96.7327 107.815 97.12 108.057 97.624C108.3 98.128 108.421 98.73 108.421 99.43V99.906H103.157V99.038H107.469L107.231 99.234C107.231 98.534 107.077 97.9927 106.769 97.61C106.461 97.2273 106.018 97.036 105.439 97.036C105.001 97.036 104.627 97.1387 104.319 97.344C104.021 97.5493 103.792 97.834 103.633 98.198C103.475 98.562 103.395 98.9867 103.395 99.472V99.556C103.395 100.097 103.479 100.555 103.647 100.928C103.825 101.292 104.081 101.567 104.417 101.754C104.753 101.941 105.169 102.034 105.663 102.034C106.055 102.034 106.438 101.973 106.811 101.852C107.194 101.721 107.553 101.521 107.889 101.25L108.309 102.23C108.001 102.51 107.605 102.729 107.119 102.888C106.634 103.047 106.144 103.126 105.649 103.126ZM112.567 103.126C111.969 103.126 111.442 102.986 110.985 102.706C110.537 102.417 110.187 102.006 109.935 101.474C109.683 100.933 109.557 100.303 109.557 99.584C109.557 98.8467 109.683 98.2167 109.935 97.694C110.187 97.1713 110.537 96.7653 110.985 96.476C111.442 96.1867 111.969 96.042 112.567 96.042C113.164 96.042 113.677 96.1913 114.107 96.49C114.545 96.7793 114.839 97.1713 114.989 97.666H114.835V93.13H116.249V103H114.863V101.46H115.003C114.853 101.964 114.559 102.37 114.121 102.678C113.691 102.977 113.173 103.126 112.567 103.126ZM112.931 102.034C113.509 102.034 113.976 101.824 114.331 101.404C114.685 100.984 114.863 100.377 114.863 99.584C114.863 98.7813 114.685 98.1747 114.331 97.764C113.976 97.3533 113.509 97.148 112.931 97.148C112.343 97.148 111.871 97.3533 111.517 97.764C111.162 98.1747 110.985 98.7813 110.985 99.584C110.985 100.377 111.162 100.984 111.517 101.404C111.871 101.824 112.343 102.034 112.931 102.034ZM120.918 99.71V98.828H134.918V99.71H120.918ZM143.258 103.126C142.66 103.126 142.142 102.977 141.704 102.678C141.265 102.37 140.971 101.964 140.822 101.46H140.976V103H139.59V93.13H141.004V97.666H140.836C140.985 97.1713 141.279 96.7793 141.718 96.49C142.156 96.1913 142.67 96.042 143.258 96.042C143.874 96.042 144.406 96.1867 144.854 96.476C145.302 96.7653 145.647 97.1713 145.89 97.694C146.142 98.2167 146.268 98.8467 146.268 99.584C146.268 100.303 146.142 100.933 145.89 101.474C145.647 102.006 145.297 102.417 144.84 102.706C144.392 102.986 143.864 103.126 143.258 103.126ZM142.908 102.034C143.496 102.034 143.962 101.824 144.308 101.404C144.662 100.984 144.84 100.377 144.84 99.584C144.84 98.7813 144.662 98.1747 144.308 97.764C143.962 97.3533 143.496 97.148 142.908 97.148C142.329 97.148 141.862 97.3533 141.508 97.764C141.153 98.1747 140.976 98.7813 140.976 99.584C140.976 100.377 141.153 100.984 141.508 101.404C141.862 101.824 142.329 102.034 142.908 102.034ZM147.735 94.586V93.116H149.387V94.586H147.735ZM147.861 103V96.168H149.275V103H147.861ZM153.491 103.126C152.745 103.126 152.185 102.916 151.811 102.496C151.447 102.067 151.265 101.451 151.265 100.648V93.13H152.679V100.564C152.679 100.863 152.721 101.119 152.805 101.334C152.889 101.539 153.015 101.693 153.183 101.796C153.351 101.899 153.561 101.95 153.813 101.95C153.925 101.95 154.033 101.945 154.135 101.936C154.238 101.927 154.336 101.908 154.429 101.88L154.401 103.014C154.243 103.051 154.089 103.079 153.939 103.098C153.79 103.117 153.641 103.126 153.491 103.126ZM157.771 103.126C157.024 103.126 156.464 102.916 156.091 102.496C155.727 102.067 155.545 101.451 155.545 100.648V93.13H156.959V100.564C156.959 100.863 157.001 101.119 157.085 101.334C157.169 101.539 157.295 101.693 157.463 101.796C157.631 101.899 157.841 101.95 158.093 101.95C158.205 101.95 158.312 101.945 158.415 101.936C158.517 101.927 158.615 101.908 158.709 101.88L158.681 103.014C158.522 103.051 158.368 103.079 158.219 103.098C158.069 103.117 157.92 103.126 157.771 103.126ZM162.962 103.126C162.215 103.126 161.571 102.986 161.03 102.706C160.498 102.417 160.082 102.011 159.784 101.488C159.494 100.956 159.35 100.326 159.35 99.598C159.35 98.8887 159.494 98.268 159.784 97.736C160.073 97.204 160.47 96.7887 160.974 96.49C161.478 96.1913 162.052 96.042 162.696 96.042C163.33 96.042 163.872 96.182 164.32 96.462C164.777 96.7327 165.127 97.12 165.37 97.624C165.612 98.128 165.734 98.73 165.734 99.43V99.906H160.47V99.038H164.782L164.544 99.234C164.544 98.534 164.39 97.9927 164.082 97.61C163.774 97.2273 163.33 97.036 162.752 97.036C162.313 97.036 161.94 97.1387 161.632 97.344C161.333 97.5493 161.104 97.834 160.946 98.198C160.787 98.562 160.708 98.9867 160.708 99.472V99.556C160.708 100.097 160.792 100.555 160.96 100.928C161.137 101.292 161.394 101.567 161.73 101.754C162.066 101.941 162.481 102.034 162.976 102.034C163.368 102.034 163.75 101.973 164.124 101.852C164.506 101.721 164.866 101.521 165.202 101.25L165.622 102.23C165.314 102.51 164.917 102.729 164.432 102.888C163.946 103.047 163.456 103.126 162.962 103.126ZM169.879 103.126C169.282 103.126 168.755 102.986 168.297 102.706C167.849 102.417 167.499 102.006 167.247 101.474C166.995 100.933 166.869 100.303 166.869 99.584C166.869 98.8467 166.995 98.2167 167.247 97.694C167.499 97.1713 167.849 96.7653 168.297 96.476C168.755 96.1867 169.282 96.042 169.879 96.042C170.477 96.042 170.99 96.1913 171.419 96.49C171.858 96.7793 172.152 97.1713 172.301 97.666H172.147V93.13H173.561V103H172.175V101.46H172.315C172.166 101.964 171.872 102.37 171.433 102.678C171.004 102.977 170.486 103.126 169.879 103.126ZM170.243 102.034C170.822 102.034 171.289 101.824 171.643 101.404C171.998 100.984 172.175 100.377 172.175 99.584C172.175 98.7813 171.998 98.1747 171.643 97.764C171.289 97.3533 170.822 97.148 170.243 97.148C169.655 97.148 169.184 97.3533 168.829 97.764C168.475 98.1747 168.297 98.7813 168.297 99.584C168.297 100.377 168.475 100.984 168.829 101.404C169.184 101.824 169.655 102.034 170.243 102.034ZM179.42 103V101.922L182.71 98.394C183.018 98.058 183.266 97.75 183.452 97.47C183.639 97.1807 183.774 96.9053 183.858 96.644C183.952 96.3733 183.998 96.1027 183.998 95.832C183.998 95.3093 183.84 94.9127 183.522 94.642C183.205 94.3713 182.738 94.236 182.122 94.236C181.646 94.236 181.194 94.3247 180.764 94.502C180.344 94.6793 179.943 94.95 179.56 95.314L179.042 94.208C179.416 93.844 179.892 93.5547 180.47 93.34C181.049 93.116 181.651 93.004 182.276 93.004C182.958 93.004 183.532 93.1113 183.998 93.326C184.474 93.5313 184.834 93.8347 185.076 94.236C185.319 94.6373 185.44 95.1273 185.44 95.706C185.44 96.0047 185.403 96.2987 185.328 96.588C185.263 96.868 185.156 97.148 185.006 97.428C184.866 97.708 184.684 97.9973 184.46 98.296C184.246 98.5947 183.984 98.9027 183.676 99.22L180.862 102.188V101.782H185.832V103H179.42ZM187.451 103V101.334H189.117V103H187.451ZM194.147 103.126C193.382 103.126 192.738 102.93 192.215 102.538C191.693 102.146 191.296 101.577 191.025 100.83C190.755 100.074 190.619 99.15 190.619 98.058C190.619 96.9473 190.755 96.0187 191.025 95.272C191.296 94.5253 191.693 93.9607 192.215 93.578C192.738 93.1953 193.382 93.004 194.147 93.004C194.922 93.004 195.571 93.1953 196.093 93.578C196.616 93.9513 197.008 94.5113 197.269 95.258C197.54 96.0047 197.675 96.9333 197.675 98.044C197.675 99.136 197.54 100.06 197.269 100.816C196.999 101.572 196.602 102.146 196.079 102.538C195.557 102.93 194.913 103.126 194.147 103.126ZM194.147 101.922C194.866 101.922 195.393 101.609 195.729 100.984C196.075 100.359 196.247 99.3787 196.247 98.044C196.247 96.7093 196.075 95.7387 195.729 95.132C195.393 94.516 194.866 94.208 194.147 94.208C193.438 94.208 192.911 94.516 192.565 95.132C192.22 95.7387 192.047 96.7093 192.047 98.044C192.047 99.3787 192.22 100.359 192.565 100.984C192.911 101.609 193.438 101.922 194.147 101.922ZM203.014 103V93.13H204.428V99.15H204.456L207.424 96.168H209.174L205.576 99.78V99.122L209.426 103H207.662L204.456 99.878H204.428V103H203.014ZM213.176 105.646C212.56 105.646 211.986 105.571 211.454 105.422C210.922 105.273 210.451 105.049 210.04 104.75L210.474 103.742C210.745 103.919 211.02 104.069 211.3 104.19C211.589 104.321 211.879 104.414 212.168 104.47C212.467 104.526 212.77 104.554 213.078 104.554C213.731 104.554 214.221 104.386 214.548 104.05C214.875 103.723 215.038 103.238 215.038 102.594V101.166H215.164C215.024 101.679 214.73 102.085 214.282 102.384C213.834 102.683 213.316 102.832 212.728 102.832C212.112 102.832 211.575 102.692 211.118 102.412C210.661 102.123 210.306 101.726 210.054 101.222C209.802 100.709 209.676 100.111 209.676 99.43C209.676 98.7487 209.802 98.156 210.054 97.652C210.306 97.148 210.661 96.756 211.118 96.476C211.575 96.1867 212.112 96.042 212.728 96.042C213.325 96.042 213.843 96.1913 214.282 96.49C214.73 96.7887 215.019 97.1947 215.15 97.708H215.038V96.168H216.41V102.426C216.41 103.135 216.289 103.728 216.046 104.204C215.803 104.689 215.439 105.049 214.954 105.282C214.478 105.525 213.885 105.646 213.176 105.646ZM213.064 101.726C213.671 101.726 214.147 101.521 214.492 101.11C214.847 100.699 215.024 100.139 215.024 99.43C215.024 98.73 214.847 98.1747 214.492 97.764C214.147 97.3533 213.671 97.148 213.064 97.148C212.467 97.148 211.991 97.3533 211.636 97.764C211.281 98.1747 211.104 98.73 211.104 99.43C211.104 100.139 211.281 100.699 211.636 101.11C211.991 101.521 212.467 101.726 213.064 101.726ZM224.074 103L221.134 96.168H222.66L224.942 101.838H224.55L226.888 96.168H228.33L225.348 103H224.074ZM231.603 103.126C231.239 103.126 230.884 103.093 230.539 103.028C230.194 102.963 229.876 102.869 229.587 102.748C229.298 102.627 229.041 102.477 228.817 102.3L229.223 101.348C229.456 101.507 229.704 101.647 229.965 101.768C230.226 101.88 230.497 101.964 230.777 102.02C231.066 102.076 231.346 102.104 231.617 102.104C232.112 102.104 232.485 102.015 232.737 101.838C232.989 101.661 233.115 101.423 233.115 101.124C233.115 100.881 233.031 100.695 232.863 100.564C232.695 100.424 232.443 100.317 232.107 100.242L230.777 99.976C230.198 99.8547 229.76 99.64 229.461 99.332C229.162 99.024 229.013 98.632 229.013 98.156C229.013 97.7267 229.13 97.3533 229.363 97.036C229.596 96.7187 229.923 96.476 230.343 96.308C230.763 96.1307 231.248 96.042 231.799 96.042C232.116 96.042 232.424 96.0747 232.723 96.14C233.022 96.2053 233.302 96.2987 233.563 96.42C233.834 96.5413 234.062 96.6953 234.249 96.882L233.843 97.834C233.666 97.6753 233.46 97.54 233.227 97.428C233.003 97.316 232.77 97.232 232.527 97.176C232.284 97.1107 232.042 97.078 231.799 97.078C231.304 97.078 230.931 97.1713 230.679 97.358C230.436 97.5353 230.315 97.778 230.315 98.086C230.315 98.3193 230.39 98.5107 230.539 98.66C230.688 98.8093 230.922 98.9167 231.239 98.982L232.569 99.248C233.176 99.3693 233.633 99.5747 233.941 99.864C234.258 100.153 234.417 100.545 234.417 101.04C234.417 101.469 234.3 101.843 234.067 102.16C233.834 102.477 233.502 102.72 233.073 102.888C232.653 103.047 232.163 103.126 231.603 103.126ZM242.874 103.126C242.108 103.126 241.464 102.93 240.942 102.538C240.419 102.146 240.022 101.577 239.752 100.83C239.481 100.074 239.346 99.15 239.346 98.058C239.346 96.9473 239.481 96.0187 239.752 95.272C240.022 94.5253 240.419 93.9607 240.942 93.578C241.464 93.1953 242.108 93.004 242.874 93.004C243.648 93.004 244.297 93.1953 244.82 93.578C245.342 93.9513 245.734 94.5113 245.996 95.258C246.266 96.0047 246.402 96.9333 246.402 98.044C246.402 99.136 246.266 100.06 245.996 100.816C245.725 101.572 245.328 102.146 244.806 102.538C244.283 102.93 243.639 103.126 242.874 103.126ZM242.874 101.922C243.592 101.922 244.12 101.609 244.456 100.984C244.801 100.359 244.974 99.3787 244.974 98.044C244.974 96.7093 244.801 95.7387 244.456 95.132C244.12 94.516 243.592 94.208 242.874 94.208C242.164 94.208 241.637 94.516 241.292 95.132C240.946 95.7387 240.774 96.7093 240.774 98.044C240.774 99.3787 240.946 100.359 241.292 100.984C241.637 101.609 242.164 101.922 242.874 101.922ZM247.894 103V101.334H249.56V103H247.894ZM254.745 103.126C254.315 103.126 253.895 103.079 253.485 102.986C253.083 102.893 252.705 102.762 252.351 102.594C251.996 102.426 251.688 102.221 251.427 101.978L251.917 100.858C252.365 101.213 252.817 101.474 253.275 101.642C253.732 101.81 254.213 101.894 254.717 101.894C255.361 101.894 255.865 101.721 256.229 101.376C256.593 101.031 256.775 100.569 256.775 99.99C256.775 99.402 256.602 98.9213 256.257 98.548C255.911 98.1747 255.431 97.988 254.815 97.988C254.376 97.988 253.984 98.0767 253.639 98.254C253.303 98.4313 252.999 98.702 252.729 99.066H251.721V93.13H257.601V94.348H253.135V97.904H252.743C252.995 97.5493 253.326 97.274 253.737 97.078C254.157 96.882 254.619 96.784 255.123 96.784C255.748 96.784 256.289 96.9147 256.747 97.176C257.204 97.4373 257.559 97.806 257.811 98.282C258.063 98.7487 258.189 99.2947 258.189 99.92C258.189 100.555 258.049 101.115 257.769 101.6C257.489 102.076 257.092 102.449 256.579 102.72C256.065 102.991 255.454 103.126 254.745 103.126ZM263.457 103V93.13H264.871V99.15H264.899L267.867 96.168H269.617L266.019 99.78V99.122L269.869 103H268.105L264.899 99.878H264.871V103H263.457ZM273.619 105.646C273.003 105.646 272.429 105.571 271.897 105.422C271.365 105.273 270.894 105.049 270.483 104.75L270.917 103.742C271.188 103.919 271.463 104.069 271.743 104.19C272.033 104.321 272.322 104.414 272.611 104.47C272.91 104.526 273.213 104.554 273.521 104.554C274.175 104.554 274.665 104.386 274.991 104.05C275.318 103.723 275.481 103.238 275.481 102.594V101.166H275.607C275.467 101.679 275.173 102.085 274.725 102.384C274.277 102.683 273.759 102.832 273.171 102.832C272.555 102.832 272.019 102.692 271.561 102.412C271.104 102.123 270.749 101.726 270.497 101.222C270.245 100.709 270.119 100.111 270.119 99.43C270.119 98.7487 270.245 98.156 270.497 97.652C270.749 97.148 271.104 96.756 271.561 96.476C272.019 96.1867 272.555 96.042 273.171 96.042C273.769 96.042 274.287 96.1913 274.725 96.49C275.173 96.7887 275.463 97.1947 275.593 97.708H275.481V96.168H276.853V102.426C276.853 103.135 276.732 103.728 276.489 104.204C276.247 104.689 275.883 105.049 275.397 105.282C274.921 105.525 274.329 105.646 273.619 105.646ZM273.507 101.726C274.114 101.726 274.59 101.521 274.935 101.11C275.29 100.699 275.467 100.139 275.467 99.43C275.467 98.73 275.29 98.1747 274.935 97.764C274.59 97.3533 274.114 97.148 273.507 97.148C272.91 97.148 272.434 97.3533 272.079 97.764C271.725 98.1747 271.547 98.73 271.547 99.43C271.547 100.139 271.725 100.699 272.079 101.11C272.434 101.521 272.91 101.726 273.507 101.726ZM285.525 103.126C284.825 103.126 284.219 102.981 283.705 102.692C283.201 102.393 282.809 101.978 282.529 101.446C282.249 100.905 282.109 100.27 282.109 99.542C282.109 98.8233 282.249 98.2027 282.529 97.68C282.809 97.1573 283.201 96.756 283.705 96.476C284.219 96.1867 284.825 96.042 285.525 96.042C285.955 96.042 286.379 96.1167 286.799 96.266C287.219 96.406 287.565 96.6113 287.835 96.882L287.387 97.876C287.135 97.6333 286.851 97.456 286.533 97.344C286.216 97.2227 285.917 97.162 285.637 97.162C284.975 97.162 284.461 97.372 284.097 97.792C283.743 98.2027 283.565 98.7907 283.565 99.556C283.565 100.321 283.743 100.923 284.097 101.362C284.461 101.791 284.975 102.006 285.637 102.006C285.917 102.006 286.216 101.95 286.533 101.838C286.851 101.717 287.135 101.535 287.387 101.292L287.835 102.3C287.565 102.552 287.215 102.753 286.785 102.902C286.365 103.051 285.945 103.126 285.525 103.126ZM291.18 103.126C290.704 103.126 290.275 103.033 289.892 102.846C289.519 102.659 289.225 102.407 289.01 102.09C288.795 101.773 288.688 101.413 288.688 101.012C288.688 100.508 288.814 100.111 289.066 99.822C289.327 99.5233 289.752 99.3133 290.34 99.192C290.937 99.0613 291.74 98.996 292.748 98.996H293.406V99.864H292.762C292.258 99.864 291.833 99.8827 291.488 99.92C291.143 99.9573 290.867 100.018 290.662 100.102C290.457 100.177 290.307 100.284 290.214 100.424C290.13 100.564 290.088 100.732 290.088 100.928C290.088 101.283 290.209 101.572 290.452 101.796C290.695 102.011 291.031 102.118 291.46 102.118C291.805 102.118 292.109 102.039 292.37 101.88C292.631 101.712 292.837 101.488 292.986 101.208C293.145 100.928 293.224 100.606 293.224 100.242V98.632C293.224 98.1 293.112 97.7173 292.888 97.484C292.664 97.2507 292.295 97.134 291.782 97.134C291.39 97.134 290.998 97.1947 290.606 97.316C290.214 97.428 289.813 97.61 289.402 97.862L288.968 96.868C289.211 96.7 289.491 96.5553 289.808 96.434C290.125 96.3127 290.457 96.2193 290.802 96.154C291.157 96.0793 291.497 96.042 291.824 96.042C292.449 96.042 292.963 96.14 293.364 96.336C293.775 96.532 294.078 96.8307 294.274 97.232C294.47 97.6333 294.568 98.1513 294.568 98.786V103H293.238V101.474H293.364C293.289 101.819 293.149 102.118 292.944 102.37C292.748 102.613 292.501 102.799 292.202 102.93C291.903 103.061 291.563 103.126 291.18 103.126ZM296.515 105.52V96.168H297.901V97.708H297.747C297.897 97.204 298.191 96.8027 298.629 96.504C299.068 96.196 299.586 96.042 300.183 96.042C300.79 96.042 301.317 96.1867 301.765 96.476C302.223 96.7653 302.573 97.1713 302.815 97.694C303.067 98.2167 303.193 98.8467 303.193 99.584C303.193 100.303 303.067 100.933 302.815 101.474C302.573 102.006 302.227 102.417 301.779 102.706C301.331 102.986 300.799 103.126 300.183 103.126C299.595 103.126 299.082 102.977 298.643 102.678C298.205 102.379 297.911 101.983 297.761 101.488H297.929V105.52H296.515ZM299.833 102.034C300.421 102.034 300.888 101.824 301.233 101.404C301.588 100.984 301.765 100.377 301.765 99.584C301.765 98.7813 301.588 98.1747 301.233 97.764C300.888 97.3533 300.421 97.148 299.833 97.148C299.255 97.148 298.788 97.3533 298.433 97.764C298.079 98.1747 297.901 98.7813 297.901 99.584C297.901 100.377 298.079 100.984 298.433 101.404C298.788 101.824 299.255 102.034 299.833 102.034ZM307.631 103.126C306.781 103.126 306.142 102.907 305.713 102.468C305.293 102.029 305.083 101.395 305.083 100.564V97.26H303.753V96.168H305.083V94.11H306.497V96.168H308.611V97.26H306.497V100.452C306.497 100.947 306.599 101.32 306.805 101.572C307.019 101.824 307.365 101.95 307.841 101.95C307.981 101.95 308.121 101.931 308.261 101.894C308.41 101.857 308.555 101.819 308.695 101.782L308.919 102.846C308.779 102.93 308.583 102.995 308.331 103.042C308.088 103.098 307.855 103.126 307.631 103.126ZM312.268 103.126C311.717 103.126 311.255 103.023 310.882 102.818C310.518 102.613 310.243 102.309 310.056 101.908C309.879 101.497 309.79 100.984 309.79 100.368V96.168H311.204V100.382C311.204 100.746 311.251 101.049 311.344 101.292C311.447 101.535 311.601 101.712 311.806 101.824C312.021 101.936 312.287 101.992 312.604 101.992C312.959 101.992 313.271 101.913 313.542 101.754C313.813 101.595 314.023 101.367 314.172 101.068C314.321 100.769 314.396 100.424 314.396 100.032V96.168H315.81V103H314.438V101.502H314.62C314.433 102.025 314.135 102.426 313.724 102.706C313.313 102.986 312.828 103.126 312.268 103.126ZM317.803 103V96.168H319.175V97.806H319.035C319.184 97.246 319.45 96.8213 319.833 96.532C320.225 96.2427 320.743 96.0747 321.387 96.028L321.849 96L321.947 97.204L321.093 97.288C320.486 97.344 320.024 97.5353 319.707 97.862C319.389 98.1887 319.231 98.6367 319.231 99.206V103H317.803ZM326.136 103.126C325.389 103.126 324.745 102.986 324.204 102.706C323.672 102.417 323.256 102.011 322.958 101.488C322.668 100.956 322.524 100.326 322.524 99.598C322.524 98.8887 322.668 98.268 322.958 97.736C323.247 97.204 323.644 96.7887 324.148 96.49C324.652 96.1913 325.226 96.042 325.87 96.042C326.504 96.042 327.046 96.182 327.494 96.462C327.951 96.7327 328.301 97.12 328.544 97.624C328.786 98.128 328.908 98.73 328.908 99.43V99.906H323.644V99.038H327.956L327.718 99.234C327.718 98.534 327.564 97.9927 327.256 97.61C326.948 97.2273 326.504 97.036 325.926 97.036C325.487 97.036 325.114 97.1387 324.806 97.344C324.507 97.5493 324.278 97.834 324.12 98.198C323.961 98.562 323.882 98.9867 323.882 99.472V99.556C323.882 100.097 323.966 100.555 324.134 100.928C324.311 101.292 324.568 101.567 324.904 101.754C325.24 101.941 325.655 102.034 326.15 102.034C326.542 102.034 326.924 101.973 327.298 101.852C327.68 101.721 328.04 101.521 328.376 101.25L328.796 102.23C328.488 102.51 328.091 102.729 327.606 102.888C327.12 103.047 326.63 103.126 326.136 103.126ZM333.053 103.126C332.456 103.126 331.928 102.986 331.471 102.706C331.023 102.417 330.673 102.006 330.421 101.474C330.169 100.933 330.043 100.303 330.043 99.584C330.043 98.8467 330.169 98.2167 330.421 97.694C330.673 97.1713 331.023 96.7653 331.471 96.476C331.928 96.1867 332.456 96.042 333.053 96.042C333.65 96.042 334.164 96.1913 334.593 96.49C335.032 96.7793 335.326 97.1713 335.475 97.666H335.321V93.13H336.735V103H335.349V101.46H335.489C335.34 101.964 335.046 102.37 334.607 102.678C334.178 102.977 333.66 103.126 333.053 103.126ZM333.417 102.034C333.996 102.034 334.462 101.824 334.817 101.404C335.172 100.984 335.349 100.377 335.349 99.584C335.349 98.7813 335.172 98.1747 334.817 97.764C334.462 97.3533 333.996 97.148 333.417 97.148C332.829 97.148 332.358 97.3533 332.003 97.764C331.648 98.1747 331.471 98.7813 331.471 99.584C331.471 100.377 331.648 100.984 332.003 101.404C332.358 101.824 332.829 102.034 333.417 102.034Z" fill="black"/>
<defs>
<clipPath id="clip0_7434_158127">
<rect width="14.85" height="20.7" fill="white" transform="translate(26.3516 27.6504)"/>
</clipPath>
</defs>
</svg>
