<svg width="100" height="100" viewBox="0 0 100 100" fill="none" xmlns="http://www.w3.org/2000/svg">
<rect width="100" height="100" rx="12" fill="white"/>
<path d="M28 37.7778C28 32.3777 32.3777 28 37.7778 28H62.2222C67.6223 28 72 32.3777 72 37.7778V62.2222C72 67.6223 67.6223 72 62.2222 72H37.7778C32.3777 72 28 67.6223 28 62.2222V37.7778Z" fill="black"/>
<g clip-path="url(#clip0_7409_32054)">
<path fill-rule="evenodd" clip-rule="evenodd" d="M40.6676 37.3715C42.8734 37.3699 45.0791 37.3584 47.2831 37.3813C47.8709 37.3846 48.4603 37.3715 49.048 37.3928C51.2671 37.3944 53.4878 37.3911 55.7086 37.3944C55.7988 37.3797 55.8639 37.4451 55.9257 37.5008C56.8056 38.3681 57.6872 39.2354 58.5722 40.0962C58.664 40.1944 58.8076 40.2812 58.7826 40.4333C58.7826 46.7158 58.7809 52.9983 58.7826 59.2807C58.7625 59.4493 58.8443 59.6636 58.6974 59.7929C57.7757 60.6848 56.8707 61.5931 55.9574 62.4931C55.8973 62.5406 55.8438 62.6175 55.7587 62.6175C53.3376 62.6339 50.9148 62.6502 48.4937 62.6437C47.6538 62.6175 46.8123 62.6388 45.9724 62.6339C44.2058 62.6208 42.4392 62.6175 40.671 62.6109C42.2188 62.6011 43.7683 62.6093 45.3178 62.606C45.7453 62.6011 46.1744 62.6224 46.6019 62.5929C46.6052 61.0105 46.6019 59.428 46.6035 57.8455C46.6002 57.4969 46.6136 57.1467 46.5918 56.7982C44.6182 56.7933 42.6429 56.7933 40.6693 56.7965C40.661 50.3226 40.6643 43.8454 40.6676 37.3715ZM46.6186 43.2072C46.6119 45.5637 46.6169 47.9203 46.6152 50.2784C46.6202 52.45 46.6085 54.62 46.6219 56.7916C47.8158 56.8325 49.013 56.7834 50.2085 56.8194C51.0818 56.8145 51.9567 56.8031 52.83 56.8063C52.83 52.2798 52.8383 47.755 52.8266 43.2285C51.8532 43.2268 50.8797 43.2416 49.9063 43.217C48.8109 43.217 47.7139 43.2219 46.6186 43.2072Z" fill="white"/>
<path d="M40.668 56.7952C42.6416 56.792 44.6169 56.792 46.5905 56.7969C46.6122 57.1455 46.5989 57.4957 46.6022 57.8442C46.6005 59.4267 46.6039 61.0092 46.6005 62.5917C46.1731 62.6211 45.744 62.5998 45.3165 62.6048C43.767 62.608 42.2175 62.5998 40.6696 62.6097C40.6663 60.6721 40.6713 58.7328 40.668 56.7952Z" fill="#EF4136"/>
</g>
<defs>
<clipPath id="clip0_7409_32054">
<rect width="18.15" height="25.3" fill="white" transform="translate(40.6484 37.3516)"/>
</clipPath>
</defs>
</svg>
