<svg width="100" height="100" viewBox="0 0 100 100" fill="none" xmlns="http://www.w3.org/2000/svg">
<rect width="100" height="100" rx="12" fill="white"/>
<path d="M28 37.7778C28 32.3777 32.3777 28 37.7778 28H62.2222C67.6223 28 72 32.3777 72 37.7778V62.2222C72 67.6223 67.6223 72 62.2222 72H37.7778C32.3777 72 28 67.6223 28 62.2222V37.7778Z" fill="#07287F"/>
<path d="M43.225 40.6699C44.563 40.7997 45.8028 40.1424 47.1279 40.105C50.4168 40.1038 53.7045 40.1114 56.9933 40.102C58.3272 40.0933 59.6927 40.2055 60.9383 40.7143C62.1524 41.2488 63.3588 41.9944 64.0746 43.1441C64.4699 43.9453 64.8319 44.8014 64.8482 45.709C64.8617 48.1371 64.1781 50.5055 63.2512 52.7283C62.4038 54.7481 60.85 56.4277 59.0114 57.5926C56.7927 58.9218 54.1834 59.4996 51.6127 59.4996C47.8735 59.5387 44.132 59.5025 40.3911 59.5177C39.5753 59.5358 38.7741 59.3545 38.0016 59.106C37.1256 58.8259 36.1917 59.0434 35.2993 58.8949L35.1484 58.7288C36.2022 58.6013 37.2993 58.8382 38.3203 58.4744C38.9718 58.2662 39.6379 58.0937 40.3268 58.0984C40.3613 57.9879 40.4297 57.7662 40.4659 57.6551C39.8443 57.6417 39.2426 57.4937 38.656 57.3007C37.7274 56.9744 36.7274 57.23 35.7753 57.0581C35.7964 57.0177 35.8356 56.937 35.856 56.8949C36.8625 56.7855 37.9087 56.992 38.8835 56.6417C39.5554 56.4142 40.2519 56.2768 40.9613 56.251C41.0004 56.1657 41.0782 55.9967 41.1156 55.9113C40.5379 55.8364 39.9718 55.6955 39.4116 55.5341C38.4402 55.23 37.4104 55.4025 36.4133 55.2809C36.5736 55.0446 36.8595 55.1072 37.0958 55.0908C37.8338 55.0592 38.5882 55.1598 39.3086 54.9534C40.0619 54.7511 40.8203 54.5657 41.5993 54.492C41.6455 54.3739 41.6905 54.2587 41.7367 54.1417C41.1455 54.0323 40.5572 53.9084 39.9747 53.7628C39.0841 53.5294 38.156 53.6359 37.2455 53.5967L37.2724 53.354C38.1332 53.3288 39.0075 53.399 39.8578 53.2388C40.6244 53.0131 41.3969 52.7481 42.2098 52.799C42.2683 52.6388 42.3279 52.4786 42.3864 52.3201C41.6963 52.2452 41.0437 51.9979 40.373 51.8335C39.5437 51.6955 38.6964 51.7791 37.8595 51.7388C37.8864 51.6897 37.9385 51.5908 37.966 51.5411C38.9402 51.4142 39.9566 51.6294 40.9057 51.2885C41.5379 51.0639 42.2022 50.9727 42.8653 50.8979C42.9063 50.83 42.987 50.6955 43.0273 50.6283C42.3595 50.5803 41.7531 50.2914 41.1168 50.1218C40.256 50.0084 39.3817 50.0745 38.518 49.9932C38.5777 49.9517 38.6964 49.8645 38.7548 49.8224C39.6917 49.7376 40.6648 49.9172 41.5718 49.5938C42.1905 49.3944 42.8279 49.2435 43.4841 49.2388C43.5256 49.1283 43.5694 49.016 43.611 48.9049C42.9151 48.7657 42.2759 48.4347 41.5782 48.3049C40.8028 48.233 40.0227 48.2505 39.2455 48.1891C39.2665 48.1371 39.3069 48.0336 39.3262 47.9815C40.3414 47.878 41.4092 48.0862 42.373 47.6686C42.9507 47.4271 43.5724 47.3347 44.1934 47.2926C44.2232 47.1938 44.2835 46.995 44.3133 46.8944C43.6548 46.8225 43.0349 46.5874 42.4016 46.4078C41.5601 46.2716 40.6993 46.3856 39.8566 46.2494C39.9162 46.2119 40.0361 46.14 40.0958 46.1026C41.1396 45.9844 42.2326 46.1593 43.2367 45.7745C43.7384 45.5728 44.2741 45.5084 44.8045 45.4318C44.8525 45.3552 44.9449 45.2014 44.9928 45.1236C44.4659 45.0219 43.9478 44.8839 43.439 44.7149C42.5063 44.4137 41.5151 44.6102 40.5583 44.4722C40.7414 44.2628 41.0285 44.2967 41.2759 44.2833C42.0811 44.2564 42.9121 44.3254 43.6876 44.0576C44.2607 43.8523 44.8595 43.7371 45.4677 43.7073C45.5168 43.5663 45.5647 43.4272 45.6139 43.288C44.801 43.1815 44.063 42.7447 43.2355 42.7389C42.5706 42.6979 41.9016 42.74 41.2396 42.6488C41.7461 42.3418 42.3776 42.5377 42.9373 42.4769C44.0379 42.5377 45.0291 41.9558 46.1144 41.8927C46.1484 41.7938 46.2144 41.5962 46.2489 41.4973C45.6694 41.3839 45.1156 41.1816 44.5495 41.0272C43.6858 40.8944 42.8057 40.9675 41.9402 40.8418C42.28 40.5126 42.8028 40.7207 43.225 40.6699Z" fill="white"/>
<path d="M52.1279 45.0156C53.9601 45.0723 55.9332 44.8104 57.6174 45.6969C56.9215 45.8735 56.2373 46.1174 55.5197 46.1922C54.725 46.2566 53.9256 46.2086 53.132 46.2747C53.0648 46.3209 52.9314 46.4121 52.8642 46.4571C53.8402 46.5577 54.8314 46.4454 55.7998 46.6057C56.6156 46.8495 57.4378 47.1039 58.2986 47.1057C58.2969 47.1969 58.2928 47.3823 58.2893 47.4753C57.6758 47.5232 57.0647 47.6326 56.4928 47.8717C55.5647 48.2659 54.5396 48.0606 53.5665 48.1776C53.5092 48.2191 53.3987 48.3033 53.342 48.3448C54.3659 48.5244 55.4466 48.2957 56.4361 48.6741C56.9092 48.8495 57.3899 49.0098 57.8916 49.0817C57.8542 49.191 57.815 49.3016 57.7776 49.4127C57.056 49.4092 56.3536 49.5758 55.6729 49.7986C54.6905 50.1372 53.6338 49.8542 52.6349 50.077C53.556 50.4185 54.584 50.0635 55.5185 50.3706C56.0858 50.5665 56.6548 50.7793 57.2641 50.8004C57.2133 50.8793 57.1098 51.0384 57.0589 51.1191C56.3314 51.0969 55.6174 51.2466 54.9302 51.4711C53.9583 51.7986 52.9238 51.622 51.9227 51.715C51.9256 51.7706 51.9344 51.8793 51.939 51.9349C52.5303 51.9378 53.1215 51.932 53.7145 51.9442C54.5829 51.953 55.3764 52.3483 56.2209 52.498C56.0542 52.6583 55.8911 52.8226 55.7279 52.9887C54.9975 52.9577 54.2671 53.0472 53.58 53.3004C52.6291 53.6553 51.6022 53.4512 50.6186 53.574C50.5706 53.6208 50.4765 53.715 50.4285 53.7612C51.5782 53.829 52.7595 53.6986 53.8659 54.1009C52.9466 54.4308 51.9601 54.3331 51.0051 54.4144C50.2174 54.4846 49.4268 54.4518 48.6367 54.4606C49.801 51.3121 50.9449 48.1565 52.1279 45.0156Z" fill="#07287F"/>
</svg>
