<svg width="273" height="114" viewBox="0 0 273 114" fill="none" xmlns="http://www.w3.org/2000/svg">
<g filter="url(#filter0_d_7349_171354)">
<rect width="272.667" height="114" rx="12" fill="white" shape-rendering="crispEdges"/>
<path d="M16.984 28V19.54H20.488C21.4 19.54 22.104 19.756 22.6 20.188C23.096 20.62 23.344 21.232 23.344 22.024C23.344 22.536 23.232 22.976 23.008 23.344C22.784 23.712 22.456 23.992 22.024 24.184C21.6 24.376 21.088 24.472 20.488 24.472L20.596 24.304H20.908C21.228 24.304 21.504 24.384 21.736 24.544C21.976 24.704 22.192 24.96 22.384 25.312L23.848 28H22.48L21.016 25.3C20.904 25.092 20.78 24.932 20.644 24.82C20.516 24.7 20.364 24.62 20.188 24.58C20.02 24.532 19.82 24.508 19.588 24.508H18.232V28H16.984ZM18.232 23.572H20.284C20.892 23.572 21.352 23.444 21.664 23.188C21.976 22.932 22.132 22.552 22.132 22.048C22.132 21.552 21.976 21.176 21.664 20.92C21.352 20.664 20.892 20.536 20.284 20.536H18.232V23.572ZM27.5805 28.108C26.9405 28.108 26.3885 27.988 25.9245 27.748C25.4685 27.5 25.1125 27.152 24.8565 26.704C24.6085 26.248 24.4845 25.708 24.4845 25.084C24.4845 24.476 24.6085 23.944 24.8565 23.488C25.1045 23.032 25.4445 22.676 25.8765 22.42C26.3085 22.164 26.8005 22.036 27.3525 22.036C27.8965 22.036 28.3605 22.156 28.7445 22.396C29.1365 22.628 29.4365 22.96 29.6445 23.392C29.8525 23.824 29.9565 24.34 29.9565 24.94V25.348H25.4445V24.604H29.1405L28.9365 24.772C28.9365 24.172 28.8045 23.708 28.5405 23.38C28.2765 23.052 27.8965 22.888 27.4005 22.888C27.0245 22.888 26.7045 22.976 26.4405 23.152C26.1845 23.328 25.9885 23.572 25.8525 23.884C25.7165 24.196 25.6485 24.56 25.6485 24.976V25.048C25.6485 25.512 25.7205 25.904 25.8645 26.224C26.0165 26.536 26.2365 26.772 26.5245 26.932C26.8125 27.092 27.1685 27.172 27.5925 27.172C27.9285 27.172 28.2565 27.12 28.5765 27.016C28.9045 26.904 29.2125 26.732 29.5005 26.5L29.8605 27.34C29.5965 27.58 29.2565 27.768 28.8405 27.904C28.4245 28.04 28.0045 28.108 27.5805 28.108ZM33.8578 28.108C33.2578 28.108 32.7378 27.984 32.2978 27.736C31.8658 27.48 31.5298 27.124 31.2898 26.668C31.0498 26.204 30.9298 25.66 30.9298 25.036C30.9298 24.42 31.0498 23.888 31.2898 23.44C31.5298 22.992 31.8658 22.648 32.2978 22.408C32.7378 22.16 33.2578 22.036 33.8578 22.036C34.2258 22.036 34.5898 22.1 34.9498 22.228C35.3098 22.348 35.6058 22.524 35.8378 22.756L35.4538 23.608C35.2378 23.4 34.9938 23.248 34.7218 23.152C34.4498 23.048 34.1938 22.996 33.9538 22.996C33.3858 22.996 32.9458 23.176 32.6338 23.536C32.3298 23.888 32.1778 24.392 32.1778 25.048C32.1778 25.704 32.3298 26.22 32.6338 26.596C32.9458 26.964 33.3858 27.148 33.9538 27.148C34.1938 27.148 34.4498 27.1 34.7218 27.004C34.9938 26.9 35.2378 26.744 35.4538 26.536L35.8378 27.4C35.6058 27.616 35.3058 27.788 34.9378 27.916C34.5778 28.044 34.2178 28.108 33.8578 28.108ZM39.3062 28.108C38.7142 28.108 38.2022 27.984 37.7702 27.736C37.3462 27.488 37.0142 27.136 36.7742 26.68C36.5342 26.224 36.4142 25.688 36.4142 25.072C36.4142 24.448 36.5342 23.912 36.7742 23.464C37.0142 23.008 37.3462 22.656 37.7702 22.408C38.2022 22.16 38.7142 22.036 39.3062 22.036C39.8902 22.036 40.3942 22.16 40.8182 22.408C41.2502 22.656 41.5862 23.008 41.8262 23.464C42.0662 23.92 42.1862 24.456 42.1862 25.072C42.1862 25.688 42.0662 26.224 41.8262 26.68C41.5862 27.136 41.2502 27.488 40.8182 27.736C40.3942 27.984 39.8902 28.108 39.3062 28.108ZM39.2942 27.172C39.7982 27.172 40.2022 26.992 40.5062 26.632C40.8102 26.272 40.9622 25.752 40.9622 25.072C40.9622 24.384 40.8102 23.864 40.5062 23.512C40.2022 23.16 39.7982 22.984 39.2942 22.984C38.7982 22.984 38.3982 23.16 38.0942 23.512C37.7902 23.864 37.6382 24.384 37.6382 25.072C37.6382 25.752 37.7902 26.272 38.0942 26.632C38.3982 26.992 38.7982 27.172 39.2942 27.172ZM45.1578 28L42.6378 22.144H43.9458L45.9018 27.004H45.5658L47.5698 22.144H48.8058L46.2498 28H45.1578ZM52.3188 28.108C51.6788 28.108 51.1268 27.988 50.6628 27.748C50.2068 27.5 49.8508 27.152 49.5948 26.704C49.3468 26.248 49.2228 25.708 49.2228 25.084C49.2228 24.476 49.3468 23.944 49.5948 23.488C49.8428 23.032 50.1828 22.676 50.6148 22.42C51.0468 22.164 51.5388 22.036 52.0908 22.036C52.6348 22.036 53.0988 22.156 53.4828 22.396C53.8748 22.628 54.1748 22.96 54.3828 23.392C54.5908 23.824 54.6948 24.34 54.6948 24.94V25.348H50.1828V24.604H53.8788L53.6748 24.772C53.6748 24.172 53.5428 23.708 53.2788 23.38C53.0148 23.052 52.6348 22.888 52.1388 22.888C51.7628 22.888 51.4428 22.976 51.1788 23.152C50.9228 23.328 50.7268 23.572 50.5908 23.884C50.4548 24.196 50.3868 24.56 50.3868 24.976V25.048C50.3868 25.512 50.4588 25.904 50.6028 26.224C50.7548 26.536 50.9748 26.772 51.2628 26.932C51.5508 27.092 51.9068 27.172 52.3308 27.172C52.6668 27.172 52.9948 27.12 53.3148 27.016C53.6428 26.904 53.9508 26.732 54.2388 26.5L54.5988 27.34C54.3348 27.58 53.9948 27.768 53.5788 27.904C53.1628 28.04 52.7428 28.108 52.3188 28.108ZM56.0161 28V22.144H57.1921V23.548H57.0721C57.2001 23.068 57.4281 22.704 57.7561 22.456C58.0921 22.208 58.5361 22.064 59.0881 22.024L59.4841 22L59.5681 23.032L58.8361 23.104C58.3161 23.152 57.9201 23.316 57.6481 23.596C57.3761 23.876 57.2401 24.26 57.2401 24.748V28H56.0161ZM63.1586 28.108C62.5186 28.108 61.9666 27.988 61.5026 27.748C61.0466 27.5 60.6906 27.152 60.4346 26.704C60.1866 26.248 60.0626 25.708 60.0626 25.084C60.0626 24.476 60.1866 23.944 60.4346 23.488C60.6826 23.032 61.0226 22.676 61.4546 22.42C61.8866 22.164 62.3786 22.036 62.9306 22.036C63.4746 22.036 63.9386 22.156 64.3226 22.396C64.7146 22.628 65.0146 22.96 65.2226 23.392C65.4306 23.824 65.5346 24.34 65.5346 24.94V25.348H61.0226V24.604H64.7186L64.5146 24.772C64.5146 24.172 64.3826 23.708 64.1186 23.38C63.8546 23.052 63.4746 22.888 62.9786 22.888C62.6026 22.888 62.2826 22.976 62.0186 23.152C61.7626 23.328 61.5666 23.572 61.4306 23.884C61.2946 24.196 61.2266 24.56 61.2266 24.976V25.048C61.2266 25.512 61.2986 25.904 61.4426 26.224C61.5946 26.536 61.8146 26.772 62.1026 26.932C62.3906 27.092 62.7466 27.172 63.1706 27.172C63.5066 27.172 63.8346 27.12 64.1546 27.016C64.4826 26.904 64.7906 26.732 65.0786 26.5L65.4386 27.34C65.1746 27.58 64.8346 27.768 64.4186 27.904C64.0026 28.04 63.5826 28.108 63.1586 28.108ZM69.0879 28.108C68.5759 28.108 68.1239 27.988 67.7319 27.748C67.3479 27.5 67.0479 27.148 66.8319 26.692C66.6159 26.228 66.5079 25.688 66.5079 25.072C66.5079 24.44 66.6159 23.9 66.8319 23.452C67.0479 23.004 67.3479 22.656 67.7319 22.408C68.1239 22.16 68.5759 22.036 69.0879 22.036C69.5999 22.036 70.0399 22.164 70.4079 22.42C70.7839 22.668 71.0359 23.004 71.1639 23.428H71.0319V19.54H72.2439V28H71.0559V26.68H71.1759C71.0479 27.112 70.7959 27.46 70.4199 27.724C70.0519 27.98 69.6079 28.108 69.0879 28.108ZM69.3999 27.172C69.8959 27.172 70.2959 26.992 70.5999 26.632C70.9039 26.272 71.0559 25.752 71.0559 25.072C71.0559 24.384 70.9039 23.864 70.5999 23.512C70.2959 23.16 69.8959 22.984 69.3999 22.984C68.8959 22.984 68.4919 23.16 68.1879 23.512C67.8839 23.864 67.7319 24.384 67.7319 25.072C67.7319 25.752 67.8839 26.272 68.1879 26.632C68.4919 26.992 68.8959 27.172 69.3999 27.172ZM79.2941 28V20.584H76.2941V19.54H83.5301V20.584H80.5301V28H79.2941ZM84.434 28V19.54H85.646V23.392H85.478C85.654 22.944 85.93 22.608 86.306 22.384C86.682 22.152 87.114 22.036 87.602 22.036C88.066 22.036 88.45 22.124 88.754 22.3C89.066 22.468 89.298 22.728 89.45 23.08C89.602 23.424 89.678 23.86 89.678 24.388V28H88.466V24.46C88.466 24.124 88.422 23.852 88.334 23.644C88.246 23.428 88.114 23.268 87.938 23.164C87.762 23.06 87.534 23.008 87.254 23.008C86.934 23.008 86.65 23.076 86.402 23.212C86.162 23.348 85.974 23.544 85.838 23.8C85.71 24.056 85.646 24.352 85.646 24.688V28H84.434ZM91.2401 20.788V19.528H92.6561V20.788H91.2401ZM91.3481 28V22.144H92.5601V28H91.3481ZM96.3181 28.108C96.0061 28.108 95.7021 28.08 95.4061 28.024C95.1101 27.968 94.8381 27.888 94.5901 27.784C94.3421 27.68 94.1221 27.552 93.9301 27.4L94.2781 26.584C94.4781 26.72 94.6901 26.84 94.9141 26.944C95.1381 27.04 95.3701 27.112 95.6101 27.16C95.8581 27.208 96.0981 27.232 96.3301 27.232C96.7541 27.232 97.0741 27.156 97.2901 27.004C97.5061 26.852 97.6141 26.648 97.6141 26.392C97.6141 26.184 97.5421 26.024 97.3981 25.912C97.2541 25.792 97.0381 25.7 96.7501 25.636L95.6101 25.408C95.1141 25.304 94.7381 25.12 94.4821 24.856C94.2261 24.592 94.0981 24.256 94.0981 23.848C94.0981 23.48 94.1981 23.16 94.3981 22.888C94.5981 22.616 94.8781 22.408 95.2381 22.264C95.5981 22.112 96.0141 22.036 96.4861 22.036C96.7581 22.036 97.0221 22.064 97.2781 22.12C97.5341 22.176 97.7741 22.256 97.9981 22.36C98.2301 22.464 98.4261 22.596 98.5861 22.756L98.2381 23.572C98.0861 23.436 97.9101 23.32 97.7101 23.224C97.5181 23.128 97.3181 23.056 97.1101 23.008C96.9021 22.952 96.6941 22.924 96.4861 22.924C96.0621 22.924 95.7421 23.004 95.5261 23.164C95.3181 23.316 95.2141 23.524 95.2141 23.788C95.2141 23.988 95.2781 24.152 95.4061 24.28C95.5341 24.408 95.7341 24.5 96.0061 24.556L97.1461 24.784C97.6661 24.888 98.0581 25.064 98.3221 25.312C98.5941 25.56 98.7301 25.896 98.7301 26.32C98.7301 26.688 98.6301 27.008 98.4301 27.28C98.2301 27.552 97.9461 27.76 97.5781 27.904C97.2181 28.04 96.7981 28.108 96.3181 28.108ZM103.387 28V19.54H104.431L107.755 25.732H107.383L110.683 19.54H111.703V28H110.587V21.304H110.851L107.935 26.704H107.179L104.227 21.292H104.515V28H103.387ZM116.111 28.108C115.519 28.108 115.007 27.984 114.575 27.736C114.151 27.488 113.819 27.136 113.579 26.68C113.339 26.224 113.219 25.688 113.219 25.072C113.219 24.448 113.339 23.912 113.579 23.464C113.819 23.008 114.151 22.656 114.575 22.408C115.007 22.16 115.519 22.036 116.111 22.036C116.695 22.036 117.199 22.16 117.623 22.408C118.055 22.656 118.391 23.008 118.631 23.464C118.871 23.92 118.991 24.456 118.991 25.072C118.991 25.688 118.871 26.224 118.631 26.68C118.391 27.136 118.055 27.488 117.623 27.736C117.199 27.984 116.695 28.108 116.111 28.108ZM116.099 27.172C116.603 27.172 117.007 26.992 117.311 26.632C117.615 26.272 117.767 25.752 117.767 25.072C117.767 24.384 117.615 23.864 117.311 23.512C117.007 23.16 116.603 22.984 116.099 22.984C115.603 22.984 115.203 23.16 114.899 23.512C114.595 23.864 114.443 24.384 114.443 25.072C114.443 25.752 114.595 26.272 114.899 26.632C115.203 26.992 115.603 27.172 116.099 27.172ZM120.352 28V22.144H121.528V23.392H121.396C121.572 22.944 121.848 22.608 122.224 22.384C122.6 22.152 123.032 22.036 123.52 22.036C123.984 22.036 124.368 22.124 124.672 22.3C124.984 22.468 125.216 22.728 125.368 23.08C125.52 23.424 125.596 23.86 125.596 24.388V28H124.384V24.46C124.384 24.124 124.34 23.852 124.252 23.644C124.164 23.428 124.032 23.268 123.856 23.164C123.68 23.06 123.452 23.008 123.172 23.008C122.852 23.008 122.568 23.076 122.32 23.212C122.08 23.348 121.892 23.544 121.756 23.8C121.628 24.056 121.564 24.352 121.564 24.688V28H120.352ZM129.762 28.108C129.034 28.108 128.486 27.92 128.118 27.544C127.758 27.168 127.578 26.624 127.578 25.912V23.08H126.438V22.144H127.578V20.38H128.79V22.144H130.602V23.08H128.79V25.816C128.79 26.24 128.878 26.56 129.054 26.776C129.238 26.992 129.534 27.1 129.942 27.1C130.062 27.1 130.182 27.084 130.302 27.052C130.43 27.02 130.554 26.988 130.674 26.956L130.866 27.868C130.746 27.94 130.578 27.996 130.362 28.036C130.154 28.084 129.954 28.108 129.762 28.108ZM131.649 28V19.54H132.861V23.392H132.693C132.869 22.944 133.145 22.608 133.521 22.384C133.897 22.152 134.329 22.036 134.817 22.036C135.281 22.036 135.665 22.124 135.969 22.3C136.281 22.468 136.513 22.728 136.665 23.08C136.817 23.424 136.893 23.86 136.893 24.388V28H135.681V24.46C135.681 24.124 135.637 23.852 135.549 23.644C135.461 23.428 135.329 23.268 135.153 23.164C134.977 23.06 134.749 23.008 134.469 23.008C134.149 23.008 133.865 23.076 133.617 23.212C133.377 23.348 133.189 23.544 133.053 23.8C132.925 24.056 132.861 24.352 132.861 24.688V28H131.649Z" fill="#737682"/>
<path d="M27.564 67L23.392 60.728C23.1493 60.336 22.888 60.0187 22.608 59.776C22.3467 59.5333 22.048 59.3653 21.712 59.272C21.3947 59.16 21.012 59.104 20.564 59.104H16.588V56.276H22.076C22.972 56.276 23.7093 56.1733 24.288 55.968C24.8667 55.744 25.3147 55.408 25.632 54.96C25.968 54.512 26.1827 53.9427 26.276 53.252L26.752 54.092H16.588V51.628H26.752L26.22 52.412C26.0707 51.516 25.6693 50.844 25.016 50.396C24.3627 49.948 23.4293 49.724 22.216 49.724H16.588V47.26H32.24V49.724H27.228L27.564 48.94C28.1987 49.276 28.6933 49.724 29.048 50.284C29.4027 50.8253 29.6173 51.46 29.692 52.188L29.048 51.628H32.24V54.092H29.132L29.748 53.084C29.7667 54.2787 29.5053 55.3147 28.964 56.192C28.4227 57.0693 27.648 57.7507 26.64 58.236C25.6507 58.7027 24.456 58.936 23.056 58.936V58.656H23.84C24.4 58.656 24.904 58.7307 25.352 58.88C25.8 59.0107 26.22 59.244 26.612 59.58C27.004 59.8973 27.3773 60.3267 27.732 60.868L31.876 67H27.564ZM35.8411 67V64.032H40.2931V50.284H42.0291L36.8491 53.42L35.4491 50.788L41.3291 47.26H43.8771V64.032H48.0491V67H35.8411ZM51.0901 67V63.108H55.0101V67H51.0901ZM66.2954 67V63.248H57.6994V60.616L66.9114 47.26H69.8794V60.28H72.6514V63.248H69.8794V67H66.2954ZM66.2954 60.28V51.544H67.1074L60.4994 61.232V60.28H66.2954ZM75.5525 67V64.34L81.9365 57.536C82.5152 56.92 82.9725 56.3507 83.3085 55.828C83.6632 55.3053 83.9245 54.8013 84.0925 54.316C84.2605 53.8307 84.3445 53.3453 84.3445 52.86C84.3445 51.9267 84.0458 51.2173 83.4485 50.732C82.8698 50.2467 82.0205 50.004 80.9005 50.004C80.0232 50.004 79.1645 50.172 78.3245 50.508C77.5032 50.8253 76.7098 51.3293 75.9445 52.02L74.7405 49.332C75.5245 48.6227 76.5045 48.0533 77.6805 47.624C78.8565 47.1947 80.0792 46.98 81.3485 46.98C82.7672 46.98 83.9618 47.1947 84.9325 47.624C85.9032 48.0533 86.6405 48.6787 87.1445 49.5C87.6485 50.3213 87.9005 51.32 87.9005 52.496C87.9005 53.0933 87.8258 53.6813 87.6765 54.26C87.5458 54.82 87.3312 55.38 87.0325 55.94C86.7525 56.5 86.3885 57.0787 85.9405 57.676C85.5112 58.2547 84.9885 58.8613 84.3725 59.496L79.1085 64.984V64.032H88.6565V67H75.5525ZM92.2576 67V47.26H95.8416V63.948H105.306V67H92.2576Z" fill="black"/>
<path d="M18.41 94.09C18.07 94.09 17.7633 94.0267 17.49 93.9C17.2233 93.7667 17.01 93.5867 16.85 93.36C16.6967 93.1333 16.62 92.88 16.62 92.6C16.62 92.2333 16.7167 91.9433 16.91 91.73C17.11 91.5167 17.4267 91.3667 17.86 91.28C18.2933 91.1867 18.8667 91.14 19.58 91.14H20.16V91.71H19.61C19.21 91.71 18.8733 91.7233 18.6 91.75C18.3267 91.7767 18.1067 91.8233 17.94 91.89C17.7733 91.95 17.6533 92.0333 17.58 92.14C17.5067 92.2467 17.47 92.3833 17.47 92.55C17.47 92.8233 17.57 93.04 17.77 93.2C17.97 93.36 18.2333 93.44 18.56 93.44C18.84 93.44 19.0867 93.3767 19.3 93.25C19.52 93.1167 19.6933 92.94 19.82 92.72C19.9533 92.5 20.02 92.2533 20.02 91.98V90.84C20.02 90.44 19.9233 90.15 19.73 89.97C19.5367 89.7833 19.2367 89.69 18.83 89.69C18.5433 89.69 18.2567 89.7333 17.97 89.82C17.69 89.9 17.4 90.0333 17.1 90.22L16.82 89.6C17.0067 89.4733 17.2133 89.3667 17.44 89.28C17.6733 89.1933 17.9133 89.1267 18.16 89.08C18.4067 89.0333 18.6467 89.01 18.88 89.01C19.3067 89.01 19.6633 89.0767 19.95 89.21C20.2433 89.3433 20.4667 89.55 20.62 89.83C20.7733 90.11 20.85 90.47 20.85 90.91V94H20.08V92.89H20.12C20.0467 93.1233 19.93 93.33 19.77 93.51C19.6167 93.69 19.4233 93.8333 19.19 93.94C18.9633 94.04 18.7033 94.09 18.41 94.09ZM24.6143 94.09C24.1143 94.09 23.681 93.9833 23.3143 93.77C22.9543 93.5567 22.6743 93.26 22.4743 92.88C22.281 92.4933 22.1843 92.0433 22.1843 91.53C22.1843 91.01 22.281 90.5633 22.4743 90.19C22.6743 89.81 22.9576 89.52 23.3243 89.32C23.691 89.1133 24.121 89.01 24.6143 89.01C24.9343 89.01 25.2443 89.0667 25.5443 89.18C25.8443 89.2867 26.091 89.4367 26.2843 89.63L25.9943 90.26C25.801 90.08 25.5876 89.9467 25.3543 89.86C25.121 89.7667 24.8943 89.72 24.6743 89.72C24.161 89.72 23.761 89.8767 23.4743 90.19C23.1876 90.5033 23.0443 90.9533 23.0443 91.54C23.0443 92.1133 23.1876 92.5633 23.4743 92.89C23.761 93.2167 24.161 93.38 24.6743 93.38C24.8876 93.38 25.111 93.3367 25.3443 93.25C25.5776 93.1567 25.791 93.0233 25.9843 92.85L26.2743 93.47C26.081 93.6633 25.8343 93.8167 25.5343 93.93C25.2343 94.0367 24.9276 94.09 24.6143 94.09ZM27.3278 94V89.1H28.1278V90.24H28.0878C28.2011 89.86 28.4011 89.57 28.6878 89.37C28.9811 89.1633 29.3511 89.0433 29.7978 89.01L30.1678 88.98L30.2478 89.74L29.6278 89.8C29.1678 89.84 28.8111 89.99 28.5578 90.25C28.3111 90.5033 28.1878 90.8367 28.1878 91.25V94H27.3278ZM33.2362 94.09C32.7495 94.09 32.3262 93.9867 31.9662 93.78C31.6128 93.5667 31.3395 93.27 31.1462 92.89C30.9528 92.51 30.8562 92.06 30.8562 91.54C30.8562 91.0267 30.9528 90.5833 31.1462 90.21C31.3395 89.83 31.6128 89.5367 31.9662 89.33C32.3262 89.1167 32.7495 89.01 33.2362 89.01C33.7228 89.01 34.1428 89.1167 34.4962 89.33C34.8562 89.5367 35.1328 89.83 35.3262 90.21C35.5195 90.5833 35.6162 91.0267 35.6162 91.54C35.6162 92.06 35.5195 92.51 35.3262 92.89C35.1328 93.27 34.8562 93.5667 34.4962 93.78C34.1428 93.9867 33.7228 94.09 33.2362 94.09ZM33.2362 93.39C33.7095 93.39 34.0828 93.2267 34.3562 92.9C34.6295 92.5733 34.7662 92.12 34.7662 91.54C34.7662 90.96 34.6295 90.51 34.3562 90.19C34.0828 89.87 33.7095 89.71 33.2362 89.71C32.7628 89.71 32.3895 89.87 32.1162 90.19C31.8428 90.51 31.7062 90.96 31.7062 91.54C31.7062 92.12 31.8428 92.5733 32.1162 92.9C32.3962 93.2267 32.7695 93.39 33.2362 93.39ZM38.6965 94.09C38.4365 94.09 38.1798 94.0633 37.9265 94.01C37.6798 93.9633 37.4498 93.8967 37.2365 93.81C37.0232 93.7167 36.8398 93.6067 36.6865 93.48L36.9565 92.87C37.1232 92.9967 37.3032 93.1033 37.4965 93.19C37.6898 93.27 37.8898 93.33 38.0965 93.37C38.3032 93.4033 38.5065 93.42 38.7065 93.42C39.0998 93.42 39.3998 93.3567 39.6065 93.23C39.8198 93.0967 39.9265 92.9133 39.9265 92.68C39.9265 92.4867 39.8598 92.3367 39.7265 92.23C39.5998 92.1233 39.3932 92.04 39.1065 91.98L38.1365 91.8C37.7032 91.7133 37.3765 91.56 37.1565 91.34C36.9365 91.1133 36.8265 90.8233 36.8265 90.47C36.8265 90.1767 36.9065 89.92 37.0665 89.7C37.2265 89.48 37.4565 89.31 37.7565 89.19C38.0565 89.07 38.4065 89.01 38.8065 89.01C39.0332 89.01 39.2598 89.0333 39.4865 89.08C39.7132 89.1267 39.9232 89.1967 40.1165 89.29C40.3165 89.3767 40.4832 89.4867 40.6165 89.62L40.3365 90.22C40.2032 90.1 40.0498 90 39.8765 89.92C39.7098 89.8333 39.5332 89.77 39.3465 89.73C39.1598 89.69 38.9765 89.67 38.7965 89.67C38.4232 89.67 38.1332 89.74 37.9265 89.88C37.7198 90.02 37.6165 90.2067 37.6165 90.44C37.6165 90.6333 37.6765 90.7867 37.7965 90.9C37.9232 91.0067 38.1198 91.0867 38.3865 91.14L39.3365 91.33C39.8032 91.4233 40.1498 91.5767 40.3765 91.79C40.6098 91.9967 40.7265 92.28 40.7265 92.64C40.7265 92.94 40.6398 93.2 40.4665 93.42C40.2998 93.6333 40.0665 93.8 39.7665 93.92C39.4665 94.0333 39.1098 94.09 38.6965 94.09ZM43.7941 94.09C43.5341 94.09 43.2775 94.0633 43.0241 94.01C42.7775 93.9633 42.5475 93.8967 42.3341 93.81C42.1208 93.7167 41.9375 93.6067 41.7841 93.48L42.0541 92.87C42.2208 92.9967 42.4008 93.1033 42.5941 93.19C42.7875 93.27 42.9875 93.33 43.1941 93.37C43.4008 93.4033 43.6041 93.42 43.8041 93.42C44.1975 93.42 44.4975 93.3567 44.7041 93.23C44.9175 93.0967 45.0241 92.9133 45.0241 92.68C45.0241 92.4867 44.9575 92.3367 44.8241 92.23C44.6975 92.1233 44.4908 92.04 44.2041 91.98L43.2341 91.8C42.8008 91.7133 42.4741 91.56 42.2541 91.34C42.0341 91.1133 41.9241 90.8233 41.9241 90.47C41.9241 90.1767 42.0041 89.92 42.1641 89.7C42.3241 89.48 42.5541 89.31 42.8541 89.19C43.1541 89.07 43.5041 89.01 43.9041 89.01C44.1308 89.01 44.3575 89.0333 44.5841 89.08C44.8108 89.1267 45.0208 89.1967 45.2141 89.29C45.4141 89.3767 45.5808 89.4867 45.7141 89.62L45.4341 90.22C45.3008 90.1 45.1475 90 44.9741 89.92C44.8075 89.8333 44.6308 89.77 44.4441 89.73C44.2575 89.69 44.0741 89.67 43.8941 89.67C43.5208 89.67 43.2308 89.74 43.0241 89.88C42.8175 90.02 42.7141 90.2067 42.7141 90.44C42.7141 90.6333 42.7741 90.7867 42.8941 90.9C43.0208 91.0067 43.2175 91.0867 43.4841 91.14L44.4341 91.33C44.9008 91.4233 45.2475 91.5767 45.4741 91.79C45.7075 91.9967 45.8241 92.28 45.8241 92.64C45.8241 92.94 45.7375 93.2 45.5641 93.42C45.3975 93.6333 45.1641 93.8 44.8641 93.92C44.5641 94.0333 44.2075 94.09 43.7941 94.09Z" fill="#737682"/>
<rect x="49" y="83" width="30" height="15" rx="7.5" fill="#CBF2DC"/>
<path d="M58.24 94.09C57.68 94.09 57.2033 93.9533 56.81 93.68C56.4233 93.4067 56.1267 93.0133 55.92 92.5C55.7133 91.9867 55.61 91.3667 55.61 90.64C55.61 89.8267 55.7233 89.14 55.95 88.58C56.1767 88.02 56.5033 87.5933 56.93 87.3C57.3567 87.0067 57.87 86.86 58.47 86.86C58.7233 86.86 58.97 86.8933 59.21 86.96C59.4567 87.0267 59.6867 87.1233 59.9 87.25C60.12 87.3767 60.3133 87.53 60.48 87.71L60.16 88.37C59.9067 88.1033 59.6367 87.91 59.35 87.79C59.0633 87.67 58.7667 87.61 58.46 87.61C58.1333 87.61 57.8433 87.6733 57.59 87.8C57.3367 87.92 57.1233 88.1033 56.95 88.35C56.7767 88.59 56.6467 88.89 56.56 89.25C56.4733 89.61 56.43 90.0267 56.43 90.5V91.26H56.38C56.4333 90.9133 56.55 90.6133 56.73 90.36C56.91 90.1067 57.14 89.9133 57.42 89.78C57.7 89.64 58.0067 89.57 58.34 89.57C58.76 89.57 59.13 89.6667 59.45 89.86C59.7767 90.0467 60.03 90.3067 60.21 90.64C60.3967 90.9733 60.49 91.36 60.49 91.8C60.49 92.24 60.3933 92.6333 60.2 92.98C60.0133 93.3267 59.75 93.6 59.41 93.8C59.07 93.9933 58.68 94.09 58.24 94.09ZM58.19 93.36C58.4833 93.36 58.74 93.2967 58.96 93.17C59.1867 93.0433 59.3633 92.8633 59.49 92.63C59.6167 92.3967 59.68 92.1267 59.68 91.82C59.68 91.52 59.6167 91.2567 59.49 91.03C59.3633 90.7967 59.1867 90.6167 58.96 90.49C58.74 90.3567 58.4833 90.29 58.19 90.29C57.89 90.29 57.6267 90.3567 57.4 90.49C57.18 90.6167 57.0067 90.7967 56.88 91.03C56.7533 91.2567 56.69 91.52 56.69 91.82C56.69 92.1267 56.7533 92.3967 56.88 92.63C57.0067 92.8633 57.18 93.0433 57.4 93.17C57.6267 93.2967 57.89 93.36 58.19 93.36ZM62.0761 94V93.27H63.8461V87.66L64.2961 87.69L62.4261 88.89L62.0461 88.24L64.0761 86.95H64.6961V93.27H66.3361V94H62.0761ZM67.8522 94V93.36L70.2922 90.76C70.5255 90.5067 70.7122 90.2767 70.8522 90.07C70.9922 89.8567 71.0922 89.65 71.1522 89.45C71.2122 89.25 71.2422 89.0467 71.2422 88.84C71.2422 88.4467 71.1189 88.1433 70.8722 87.93C70.6322 87.7167 70.2822 87.61 69.8222 87.61C69.4822 87.61 69.1522 87.6767 68.8322 87.81C68.5122 87.9367 68.2122 88.14 67.9322 88.42L67.6022 87.75C67.8822 87.4767 68.2222 87.26 68.6222 87.1C69.0289 86.94 69.4522 86.86 69.8922 86.86C70.3589 86.86 70.7555 86.9367 71.0822 87.09C71.4155 87.2433 71.6689 87.4633 71.8422 87.75C72.0155 88.0367 72.1022 88.38 72.1022 88.78C72.1022 88.9933 72.0755 89.2 72.0222 89.4C71.9755 89.6 71.9022 89.8 71.8022 90C71.7022 90.2 71.5722 90.4067 71.4122 90.62C71.2589 90.8267 71.0755 91.04 70.8622 91.26L68.8222 93.4V93.26H72.3922V94H67.8522Z" fill="black"/>
<path d="M83.74 94.09C83.2933 94.09 82.9033 93.9867 82.57 93.78C82.2367 93.5667 81.98 93.27 81.8 92.89C81.62 92.5033 81.53 92.0567 81.53 91.55C81.53 91.03 81.62 90.5833 81.8 90.21C81.98 89.83 82.2333 89.5367 82.56 89.33C82.8933 89.1167 83.2833 89.01 83.73 89.01C84.1633 89.01 84.5333 89.1167 84.84 89.33C85.1533 89.5367 85.37 89.82 85.49 90.18H85.43V86.95H86.28V94H85.48V92.88H85.52C85.4 93.2533 85.18 93.55 84.86 93.77C84.5467 93.9833 84.1733 94.09 83.74 94.09ZM83.91 93.4C84.3833 93.4 84.7567 93.2367 85.03 92.91C85.31 92.5833 85.45 92.13 85.45 91.55C85.45 90.9633 85.31 90.51 85.03 90.19C84.7567 89.8633 84.3867 89.7 83.92 89.7C83.4467 89.7 83.07 89.8633 82.79 90.19C82.5167 90.51 82.38 90.9633 82.38 91.55C82.38 92.13 82.5167 92.5833 82.79 92.91C83.07 93.2367 83.4433 93.4 83.91 93.4ZM87.8333 87.9V86.95H88.8733V87.9H87.8333ZM87.9333 94V89.1H88.7833V94H87.9333ZM92.1633 94.09C91.9033 94.09 91.6466 94.0633 91.3933 94.01C91.1466 93.9633 90.9166 93.8967 90.7033 93.81C90.4899 93.7167 90.3066 93.6067 90.1533 93.48L90.4233 92.87C90.5899 92.9967 90.7699 93.1033 90.9633 93.19C91.1566 93.27 91.3566 93.33 91.5633 93.37C91.7699 93.4033 91.9733 93.42 92.1733 93.42C92.5666 93.42 92.8666 93.3567 93.0733 93.23C93.2866 93.0967 93.3933 92.9133 93.3933 92.68C93.3933 92.4867 93.3266 92.3367 93.1933 92.23C93.0666 92.1233 92.8599 92.04 92.5733 91.98L91.6033 91.8C91.1699 91.7133 90.8433 91.56 90.6233 91.34C90.4033 91.1133 90.2933 90.8233 90.2933 90.47C90.2933 90.1767 90.3733 89.92 90.5333 89.7C90.6933 89.48 90.9233 89.31 91.2233 89.19C91.5233 89.07 91.8733 89.01 92.2733 89.01C92.4999 89.01 92.7266 89.0333 92.9533 89.08C93.1799 89.1267 93.3899 89.1967 93.5833 89.29C93.7833 89.3767 93.9499 89.4867 94.0833 89.62L93.8033 90.22C93.6699 90.1 93.5166 90 93.3433 89.92C93.1766 89.8333 92.9999 89.77 92.8133 89.73C92.6266 89.69 92.4433 89.67 92.2633 89.67C91.8899 89.67 91.5999 89.74 91.3933 89.88C91.1866 90.02 91.0833 90.2067 91.0833 90.44C91.0833 90.6333 91.1433 90.7867 91.2633 90.9C91.3899 91.0067 91.5866 91.0867 91.8533 91.14L92.8033 91.33C93.2699 91.4233 93.6166 91.5767 93.8433 91.79C94.0766 91.9967 94.1933 92.28 94.1933 92.64C94.1933 92.94 94.1066 93.2 93.9333 93.42C93.7666 93.6333 93.5333 93.8 93.2333 93.92C92.9333 94.0333 92.5766 94.09 92.1633 94.09ZM95.5309 95.8V89.1H96.3409V90.21H96.2909C96.4176 89.8367 96.6376 89.5433 96.9509 89.33C97.2709 89.1167 97.6476 89.01 98.0809 89.01C98.5276 89.01 98.9143 89.1167 99.2409 89.33C99.5743 89.5367 99.8309 89.83 100.011 90.21C100.198 90.5833 100.291 91.03 100.291 91.55C100.291 92.0567 100.201 92.5033 100.021 92.89C99.8409 93.27 99.5843 93.5667 99.2509 93.78C98.9243 93.9867 98.5343 94.09 98.0809 94.09C97.6543 94.09 97.2843 93.9833 96.9709 93.77C96.6643 93.5567 96.4476 93.2733 96.3209 92.92H96.3809V95.8H95.5309ZM97.9009 93.4C98.3743 93.4 98.7476 93.2367 99.0209 92.91C99.2943 92.5833 99.4309 92.1267 99.4309 91.54C99.4309 90.9533 99.2943 90.5 99.0209 90.18C98.7476 89.86 98.3743 89.7 97.9009 89.7C97.4343 89.7 97.0609 89.86 96.7809 90.18C96.5076 90.5 96.3709 90.9533 96.3709 91.54C96.3709 92.1267 96.5076 92.5833 96.7809 92.91C97.0609 93.2367 97.4343 93.4 97.9009 93.4ZM103.434 94.09C103.034 94.09 102.698 94.0167 102.424 93.87C102.158 93.7233 101.958 93.5067 101.824 93.22C101.691 92.9267 101.624 92.5667 101.624 92.14V89.1H102.474V92.11C102.474 92.3833 102.511 92.6167 102.584 92.81C102.664 92.9967 102.788 93.14 102.954 93.24C103.121 93.3333 103.338 93.38 103.604 93.38C103.884 93.38 104.131 93.3133 104.344 93.18C104.564 93.0467 104.734 92.8667 104.854 92.64C104.981 92.4133 105.044 92.1567 105.044 91.87V89.1H105.894V94H105.094V92.9H105.154C105.008 93.28 104.784 93.5733 104.484 93.78C104.191 93.9867 103.841 94.09 103.434 94.09ZM109.563 94.09C108.976 94.09 108.536 93.9367 108.243 93.63C107.949 93.3167 107.803 92.8733 107.803 92.3V89.78H106.823V89.1H107.823V87.62H108.653V89.1H110.313V89.78H108.653V92.22C108.653 92.6 108.733 92.8867 108.893 93.08C109.059 93.2667 109.323 93.36 109.683 93.36C109.803 93.36 109.923 93.3467 110.043 93.32C110.163 93.2933 110.273 93.26 110.373 93.22L110.523 93.88C110.409 93.94 110.263 93.99 110.083 94.03C109.909 94.07 109.736 94.09 109.563 94.09ZM113.622 94.09C113.088 94.09 112.628 93.99 112.242 93.79C111.855 93.5833 111.558 93.29 111.352 92.91C111.145 92.53 111.042 92.0767 111.042 91.55C111.042 91.05 111.138 90.61 111.332 90.23C111.532 89.85 111.812 89.5533 112.172 89.34C112.532 89.12 112.952 89.01 113.432 89.01C113.898 89.01 114.292 89.11 114.612 89.31C114.938 89.51 115.188 89.7933 115.362 90.16C115.535 90.52 115.622 90.9533 115.622 91.46V91.76H111.682V91.18H115.062L114.892 91.34C114.892 90.8067 114.768 90.3933 114.522 90.1C114.275 89.8 113.915 89.65 113.442 89.65C113.115 89.65 112.832 89.7267 112.592 89.88C112.358 90.0267 112.178 90.2367 112.052 90.51C111.925 90.7767 111.862 91.0933 111.862 91.46V91.54C111.862 91.9467 111.928 92.2867 112.062 92.56C112.202 92.8333 112.405 93.0433 112.672 93.19C112.938 93.33 113.258 93.4 113.632 93.4C113.912 93.4 114.188 93.36 114.462 93.28C114.735 93.1933 114.995 93.05 115.242 92.85L115.532 93.45C115.292 93.6567 114.998 93.8167 114.652 93.93C114.312 94.0367 113.968 94.09 113.622 94.09ZM118.657 94.09C118.397 94.09 118.141 94.0633 117.887 94.01C117.641 93.9633 117.411 93.8967 117.197 93.81C116.984 93.7167 116.801 93.6067 116.647 93.48L116.917 92.87C117.084 92.9967 117.264 93.1033 117.457 93.19C117.651 93.27 117.851 93.33 118.057 93.37C118.264 93.4033 118.467 93.42 118.667 93.42C119.061 93.42 119.361 93.3567 119.567 93.23C119.781 93.0967 119.887 92.9133 119.887 92.68C119.887 92.4867 119.821 92.3367 119.687 92.23C119.561 92.1233 119.354 92.04 119.067 91.98L118.097 91.8C117.664 91.7133 117.337 91.56 117.117 91.34C116.897 91.1133 116.787 90.8233 116.787 90.47C116.787 90.1767 116.867 89.92 117.027 89.7C117.187 89.48 117.417 89.31 117.717 89.19C118.017 89.07 118.367 89.01 118.767 89.01C118.994 89.01 119.221 89.0333 119.447 89.08C119.674 89.1267 119.884 89.1967 120.077 89.29C120.277 89.3767 120.444 89.4867 120.577 89.62L120.297 90.22C120.164 90.1 120.011 90 119.837 89.92C119.671 89.8333 119.494 89.77 119.307 89.73C119.121 89.69 118.937 89.67 118.757 89.67C118.384 89.67 118.094 89.74 117.887 89.88C117.681 90.02 117.577 90.2067 117.577 90.44C117.577 90.6333 117.637 90.7867 117.757 90.9C117.884 91.0067 118.081 91.0867 118.347 91.14L119.297 91.33C119.764 91.4233 120.111 91.5767 120.337 91.79C120.571 91.9967 120.687 92.28 120.687 92.64C120.687 92.94 120.601 93.2 120.427 93.42C120.261 93.6333 120.027 93.8 119.727 93.92C119.427 94.0333 119.071 94.09 118.657 94.09Z" fill="#737682"/>
<rect x="206.668" y="36" width="42" height="42" rx="8" fill="#FBC942"/>
<path d="M229.639 65.25C229.517 65.25 229.398 65.2271 229.284 65.1812C229.169 65.1354 229.066 65.0667 228.974 64.975L223.451 59.2229C223.344 59.116 223.257 58.9708 223.188 58.7875C223.119 58.6042 223.085 58.4361 223.085 58.2833C223.085 57.9319 223.211 57.6301 223.462 57.3777C223.715 57.1259 224.017 57 224.368 57H226.293C227.103 57 227.802 56.7363 228.39 56.2089C228.978 55.6821 229.333 55.0292 229.455 54.25H223.085C222.825 54.25 222.607 54.162 222.431 53.986C222.256 53.8106 222.168 53.5931 222.168 53.3333C222.168 53.0736 222.256 52.8558 222.431 52.6798C222.607 52.5044 222.825 52.4167 223.085 52.4167H229.18C228.921 51.8819 228.535 51.4426 228.024 51.0985C227.512 50.7551 226.935 50.5833 226.293 50.5833H223.085C222.825 50.5833 222.607 50.4953 222.431 50.3193C222.256 50.1439 222.168 49.9264 222.168 49.6667C222.168 49.4069 222.256 49.1891 222.431 49.0131C222.607 48.8377 222.825 48.75 223.085 48.75H232.251C232.511 48.75 232.729 48.8377 232.904 49.0131C233.08 49.1891 233.168 49.4069 233.168 49.6667C233.168 49.9264 233.08 50.1439 232.904 50.3193C232.729 50.4953 232.511 50.5833 232.251 50.5833H230.189C230.403 50.8431 230.594 51.1257 230.762 51.4313C230.93 51.7368 231.06 52.0653 231.151 52.4167H232.251C232.511 52.4167 232.729 52.5044 232.904 52.6798C233.08 52.8558 233.168 53.0736 233.168 53.3333C233.168 53.5931 233.08 53.8106 232.904 53.986C232.729 54.162 232.511 54.25 232.251 54.25H231.312C231.189 55.5486 230.655 56.637 229.708 57.5152C228.76 58.3939 227.622 58.8333 226.293 58.8333H225.628L230.303 63.6917C230.578 63.9819 230.636 64.3141 230.475 64.6881C230.315 65.0627 230.036 65.25 229.639 65.25Z" fill="white"/>
</g>
<defs>
<filter id="filter0_d_7349_171354" x="-34" y="-20" width="340.668" height="182" filterUnits="userSpaceOnUse" color-interpolation-filters="sRGB">
<feFlood flood-opacity="0" result="BackgroundImageFix"/>
<feColorMatrix in="SourceAlpha" type="matrix" values="0 0 0 0 0 0 0 0 0 0 0 0 0 0 0 0 0 0 127 0" result="hardAlpha"/>
<feOffset dy="14"/>
<feGaussianBlur stdDeviation="17"/>
<feComposite in2="hardAlpha" operator="out"/>
<feColorMatrix type="matrix" values="0 0 0 0 0 0 0 0 0 0 0 0 0 0 0 0 0 0 0.06 0"/>
<feBlend mode="normal" in2="BackgroundImageFix" result="effect1_dropShadow_7349_171354"/>
<feBlend mode="normal" in="SourceGraphic" in2="effect1_dropShadow_7349_171354" result="shape"/>
</filter>
</defs>
</svg>
