<svg width="379" height="236" viewBox="0 0 379 236" fill="none" xmlns="http://www.w3.org/2000/svg">
<rect width="379" height="236" rx="12" fill="white"/>
<rect x="16" y="20" width="36" height="36" rx="8" fill="#E1E1E4"/>
<path d="M34 38C34.6944 38 35.2847 37.7569 35.7708 37.2708C36.2569 36.7847 36.5 36.1944 36.5 35.5C36.5 34.8056 36.2569 34.2153 35.7708 33.7292C35.2847 33.2431 34.6944 33 34 33C33.3056 33 32.7153 33.2431 32.2292 33.7292C31.7431 34.2153 31.5 34.8056 31.5 35.5C31.5 36.1944 31.7431 36.7847 32.2292 37.2708C32.7153 37.7569 33.3056 38 34 38ZM32.75 35.9167C32.6389 35.9167 32.5417 35.875 32.4583 35.7917C32.375 35.7083 32.3333 35.6111 32.3333 35.5C32.3333 35.3889 32.375 35.2917 32.4583 35.2083C32.5417 35.125 32.6389 35.0833 32.75 35.0833C32.8611 35.0833 32.9583 35.125 33.0417 35.2083C33.125 35.2917 33.1667 35.3889 33.1667 35.5C33.1667 35.6111 33.125 35.7083 33.0417 35.7917C32.9583 35.875 32.8611 35.9167 32.75 35.9167ZM34 35.9167C33.8889 35.9167 33.7917 35.875 33.7083 35.7917C33.625 35.7083 33.5833 35.6111 33.5833 35.5C33.5833 35.3889 33.625 35.2917 33.7083 35.2083C33.7917 35.125 33.8889 35.0833 34 35.0833C34.1111 35.0833 34.2083 35.125 34.2917 35.2083C34.375 35.2917 34.4167 35.3889 34.4167 35.5C34.4167 35.6111 34.375 35.7083 34.2917 35.7917C34.2083 35.875 34.1111 35.9167 34 35.9167ZM35.25 35.9167C35.1389 35.9167 35.0417 35.875 34.9583 35.7917C34.875 35.7083 34.8333 35.6111 34.8333 35.5C34.8333 35.3889 34.875 35.2917 34.9583 35.2083C35.0417 35.125 35.1389 35.0833 35.25 35.0833C35.3611 35.0833 35.4583 35.125 35.5417 35.2083C35.625 35.2917 35.6667 35.3889 35.6667 35.5C35.6667 35.6111 35.625 35.7083 35.5417 35.7917C35.4583 35.875 35.3611 35.9167 35.25 35.9167ZM28.1667 45.5C27.7083 45.5 27.3158 45.3369 26.9892 45.0108C26.6631 44.6842 26.5 44.2917 26.5 43.8333V32.1667C26.5 31.7083 26.6631 31.3158 26.9892 30.9892C27.3158 30.6631 27.7083 30.5 28.1667 30.5H39.8333C40.2917 30.5 40.6842 30.6631 41.0108 30.9892C41.3369 31.3158 41.5 31.7083 41.5 32.1667V43.8333C41.5 44.2917 41.3369 44.6842 41.0108 45.0108C40.6842 45.3369 40.2917 45.5 39.8333 45.5H28.1667ZM28.1667 43.8333H39.8333V32.1667H28.1667V43.8333Z" fill="#444050"/>
<path d="M65.794 34L62.308 24.13H64.156L66.886 32.222H66.326L69.182 24.13H70.512L73.27 32.222H72.78L75.552 24.13H77.302L73.788 34H72.304L69.644 26.412H69.966L67.278 34H65.794ZM80.9949 34.14C80.2203 34.14 79.5529 33.9953 78.9929 33.706C78.4329 33.4167 77.9989 33.006 77.6909 32.474C77.3923 31.942 77.2429 31.312 77.2429 30.584C77.2429 29.8747 77.3876 29.254 77.6769 28.722C77.9756 28.19 78.3816 27.7747 78.8949 27.476C79.4176 27.168 80.0103 27.014 80.6729 27.014C81.3263 27.014 81.8863 27.154 82.3529 27.434C82.8196 27.714 83.1789 28.1107 83.4309 28.624C83.6923 29.1373 83.8229 29.7487 83.8229 30.458V30.976H78.6569V29.968H82.5909L82.3669 30.178C82.3669 29.5433 82.2269 29.058 81.9469 28.722C81.6669 28.3767 81.2656 28.204 80.7429 28.204C80.3509 28.204 80.0149 28.2973 79.7349 28.484C79.4643 28.6613 79.2543 28.918 79.1049 29.254C78.9649 29.5807 78.8949 29.9727 78.8949 30.43V30.528C78.8949 31.0413 78.9743 31.466 79.1329 31.802C79.2916 32.138 79.5296 32.39 79.8469 32.558C80.1643 32.726 80.5563 32.81 81.0229 32.81C81.4056 32.81 81.7883 32.754 82.1709 32.642C82.5536 32.5207 82.9036 32.334 83.2209 32.082L83.7109 33.258C83.3843 33.5287 82.9736 33.7433 82.4789 33.902C81.9843 34.0607 81.4896 34.14 80.9949 34.14ZM85.0968 25.684V23.976H87.0568V25.684H85.0968ZM85.2088 34V27.154H86.9588V34H85.2088ZM91.9692 36.66C91.3345 36.66 90.7372 36.5853 90.1772 36.436C89.6265 36.296 89.1412 36.0767 88.7212 35.778L89.2252 34.56C89.4865 34.728 89.7619 34.868 90.0512 34.98C90.3405 35.1013 90.6345 35.19 90.9332 35.246C91.2319 35.302 91.5305 35.33 91.8292 35.33C92.4545 35.33 92.9212 35.176 93.2292 34.868C93.5465 34.5693 93.7052 34.1213 93.7052 33.524V32.264H93.8312C93.6912 32.74 93.3972 33.1227 92.9492 33.412C92.5105 33.692 92.0112 33.832 91.4512 33.832C90.8352 33.832 90.2985 33.692 89.8412 33.412C89.3839 33.1227 89.0292 32.7213 88.7772 32.208C88.5252 31.6947 88.3992 31.0973 88.3992 30.416C88.3992 29.7347 88.5252 29.142 88.7772 28.638C89.0292 28.1247 89.3839 27.728 89.8412 27.448C90.2985 27.1587 90.8352 27.014 91.4512 27.014C92.0299 27.014 92.5339 27.1587 92.9632 27.448C93.4019 27.728 93.6865 28.1013 93.8172 28.568H93.7052V27.154H95.4132V33.314C95.4132 34.0513 95.2825 34.6673 95.0212 35.162C94.7599 35.666 94.3725 36.0393 93.8592 36.282C93.3459 36.534 92.7159 36.66 91.9692 36.66ZM91.9272 32.502C92.4685 32.502 92.8979 32.3153 93.2152 31.942C93.5325 31.5687 93.6912 31.06 93.6912 30.416C93.6912 29.772 93.5325 29.268 93.2152 28.904C92.8979 28.5307 92.4685 28.344 91.9272 28.344C91.3859 28.344 90.9565 28.5307 90.6392 28.904C90.3219 29.268 90.1632 29.772 90.1632 30.416C90.1632 31.06 90.3219 31.5687 90.6392 31.942C90.9565 32.3153 91.3859 32.502 91.9272 32.502ZM97.2264 34V24.13H98.9764V28.526H98.7804C98.9857 28.0313 99.3031 27.658 99.7324 27.406C100.171 27.1447 100.666 27.014 101.216 27.014C101.767 27.014 102.22 27.1167 102.574 27.322C102.929 27.5273 103.195 27.84 103.372 28.26C103.55 28.6707 103.638 29.1933 103.638 29.828V34H101.888V29.912C101.888 29.5573 101.842 29.268 101.748 29.044C101.664 28.82 101.529 28.6567 101.342 28.554C101.165 28.442 100.936 28.386 100.656 28.386C100.32 28.386 100.026 28.4607 99.7744 28.61C99.5224 28.75 99.3264 28.9553 99.1864 29.226C99.0464 29.4873 98.9764 29.7953 98.9764 30.15V34H97.2264ZM108.552 34.14C107.637 34.14 106.956 33.9113 106.508 33.454C106.06 32.9967 105.836 32.3293 105.836 31.452V28.47H104.52V27.154H105.836V25.11H107.586V27.154H109.658V28.47H107.586V31.354C107.586 31.802 107.684 32.138 107.88 32.362C108.076 32.586 108.393 32.698 108.832 32.698C108.963 32.698 109.098 32.684 109.238 32.656C109.378 32.6187 109.523 32.5813 109.672 32.544L109.938 33.832C109.77 33.9253 109.555 34 109.294 34.056C109.042 34.112 108.795 34.14 108.552 34.14ZM118.132 34.14C117.619 34.14 117.124 34.0933 116.648 34C116.182 33.916 115.748 33.79 115.346 33.622C114.954 33.454 114.604 33.2533 114.296 33.02L114.842 31.606C115.15 31.8207 115.472 32.0073 115.808 32.166C116.154 32.3153 116.518 32.432 116.9 32.516C117.292 32.5907 117.703 32.628 118.132 32.628C118.87 32.628 119.406 32.5067 119.742 32.264C120.078 32.012 120.246 31.69 120.246 31.298C120.246 31.0833 120.195 30.9013 120.092 30.752C119.99 30.5933 119.822 30.458 119.588 30.346C119.355 30.234 119.047 30.1407 118.664 30.066L117.124 29.744C116.238 29.5573 115.575 29.2447 115.136 28.806C114.707 28.358 114.492 27.77 114.492 27.042C114.492 26.426 114.656 25.8893 114.982 25.432C115.309 24.9747 115.762 24.62 116.34 24.368C116.919 24.116 117.586 23.99 118.342 23.99C118.79 23.99 119.22 24.0367 119.63 24.13C120.05 24.214 120.433 24.3447 120.778 24.522C121.133 24.69 121.441 24.8953 121.702 25.138L121.156 26.482C120.764 26.1553 120.335 25.9127 119.868 25.754C119.402 25.586 118.888 25.502 118.328 25.502C117.899 25.502 117.53 25.5627 117.222 25.684C116.914 25.8053 116.676 25.978 116.508 26.202C116.35 26.4167 116.27 26.6733 116.27 26.972C116.27 27.308 116.382 27.5787 116.606 27.784C116.83 27.98 117.213 28.134 117.754 28.246L119.28 28.568C120.204 28.764 120.89 29.072 121.338 29.492C121.796 29.912 122.024 30.472 122.024 31.172C122.024 31.76 121.866 32.278 121.548 32.726C121.231 33.174 120.778 33.524 120.19 33.776C119.612 34.0187 118.926 34.14 118.132 34.14ZM126.558 34.14C125.84 34.14 125.214 33.9953 124.682 33.706C124.15 33.4073 123.74 32.9873 123.45 32.446C123.161 31.9047 123.016 31.27 123.016 30.542C123.016 29.814 123.161 29.1887 123.45 28.666C123.74 28.134 124.15 27.728 124.682 27.448C125.214 27.1587 125.84 27.014 126.558 27.014C126.997 27.014 127.431 27.084 127.86 27.224C128.29 27.364 128.644 27.56 128.924 27.812L128.406 29.03C128.164 28.8153 127.888 28.652 127.58 28.54C127.282 28.428 126.992 28.372 126.712 28.372C126.106 28.372 125.634 28.5633 125.298 28.946C124.972 29.3193 124.808 29.856 124.808 30.556C124.808 31.2467 124.972 31.7927 125.298 32.194C125.634 32.586 126.106 32.782 126.712 32.782C126.983 32.782 127.272 32.726 127.58 32.614C127.888 32.502 128.164 32.334 128.406 32.11L128.924 33.342C128.644 33.5847 128.285 33.7807 127.846 33.93C127.417 34.07 126.988 34.14 126.558 34.14ZM132.211 34.14C131.716 34.14 131.273 34.0467 130.881 33.86C130.498 33.664 130.195 33.4027 129.971 33.076C129.756 32.7493 129.649 32.3807 129.649 31.97C129.649 31.466 129.78 31.0693 130.041 30.78C130.302 30.4813 130.727 30.2667 131.315 30.136C131.903 30.0053 132.692 29.94 133.681 29.94H134.381V30.948H133.695C133.256 30.948 132.888 30.9667 132.589 31.004C132.29 31.032 132.048 31.0833 131.861 31.158C131.684 31.2233 131.553 31.3167 131.469 31.438C131.394 31.5593 131.357 31.7087 131.357 31.886C131.357 32.194 131.464 32.446 131.679 32.642C131.894 32.838 132.192 32.936 132.575 32.936C132.883 32.936 133.154 32.866 133.387 32.726C133.63 32.5767 133.821 32.376 133.961 32.124C134.101 31.872 134.171 31.5827 134.171 31.256V29.646C134.171 29.1793 134.068 28.8433 133.863 28.638C133.658 28.4327 133.312 28.33 132.827 28.33C132.444 28.33 132.052 28.3907 131.651 28.512C131.25 28.624 130.844 28.8013 130.433 29.044L129.929 27.854C130.172 27.686 130.456 27.5413 130.783 27.42C131.119 27.2893 131.469 27.1913 131.833 27.126C132.206 27.0513 132.556 27.014 132.883 27.014C133.555 27.014 134.106 27.1167 134.535 27.322C134.974 27.5273 135.3 27.84 135.515 28.26C135.73 28.6707 135.837 29.2027 135.837 29.856V34H134.199V32.544H134.311C134.246 32.8707 134.115 33.1553 133.919 33.398C133.732 33.6313 133.494 33.8133 133.205 33.944C132.916 34.0747 132.584 34.14 132.211 34.14ZM137.613 34V27.154H139.321V28.526H139.167C139.372 28.0313 139.69 27.658 140.119 27.406C140.558 27.1447 141.052 27.014 141.603 27.014C142.154 27.014 142.606 27.1167 142.961 27.322C143.316 27.5273 143.582 27.84 143.759 28.26C143.936 28.6707 144.025 29.1933 144.025 29.828V34H142.275V29.912C142.275 29.5573 142.228 29.268 142.135 29.044C142.051 28.82 141.916 28.6567 141.729 28.554C141.552 28.442 141.323 28.386 141.043 28.386C140.707 28.386 140.413 28.4607 140.161 28.61C139.909 28.75 139.713 28.9553 139.573 29.226C139.433 29.4873 139.363 29.7953 139.363 30.15V34H137.613ZM145.803 34V27.154H147.511V28.526H147.357C147.562 28.0313 147.879 27.658 148.309 27.406C148.747 27.1447 149.242 27.014 149.793 27.014C150.343 27.014 150.796 27.1167 151.151 27.322C151.505 27.5273 151.771 27.84 151.949 28.26C152.126 28.6707 152.215 29.1933 152.215 29.828V34H150.465V29.912C150.465 29.5573 150.418 29.268 150.325 29.044C150.241 28.82 150.105 28.6567 149.919 28.554C149.741 28.442 149.513 28.386 149.233 28.386C148.897 28.386 148.603 28.4607 148.351 28.61C148.099 28.75 147.903 28.9553 147.763 29.226C147.623 29.4873 147.553 29.7953 147.553 30.15V34H145.803ZM157.366 34.14C156.591 34.14 155.924 33.9953 155.364 33.706C154.804 33.4167 154.37 33.006 154.062 32.474C153.763 31.942 153.614 31.312 153.614 30.584C153.614 29.8747 153.759 29.254 154.048 28.722C154.347 28.19 154.753 27.7747 155.266 27.476C155.789 27.168 156.381 27.014 157.044 27.014C157.697 27.014 158.257 27.154 158.724 27.434C159.191 27.714 159.55 28.1107 159.802 28.624C160.063 29.1373 160.194 29.7487 160.194 30.458V30.976H155.028V29.968H158.962L158.738 30.178C158.738 29.5433 158.598 29.058 158.318 28.722C158.038 28.3767 157.637 28.204 157.114 28.204C156.722 28.204 156.386 28.2973 156.106 28.484C155.835 28.6613 155.625 28.918 155.476 29.254C155.336 29.5807 155.266 29.9727 155.266 30.43V30.528C155.266 31.0413 155.345 31.466 155.504 31.802C155.663 32.138 155.901 32.39 156.218 32.558C156.535 32.726 156.927 32.81 157.394 32.81C157.777 32.81 158.159 32.754 158.542 32.642C158.925 32.5207 159.275 32.334 159.592 32.082L160.082 33.258C159.755 33.5287 159.345 33.7433 158.85 33.902C158.355 34.0607 157.861 34.14 157.366 34.14ZM161.58 34V27.154H163.288V28.806H163.148C163.279 28.246 163.535 27.8213 163.918 27.532C164.301 27.2333 164.809 27.0607 165.444 27.014L165.976 26.972L166.088 28.456L165.08 28.554C164.511 28.61 164.081 28.7873 163.792 29.086C163.503 29.3753 163.358 29.786 163.358 30.318V34H161.58Z" fill="black"/>
<path d="M63.02 52L63.44 49.876H62.468V49.048H63.596L64.112 46.396H62.72V45.568H64.256L64.664 43.54H65.552L65.144 45.568H66.872L67.28 43.54H68.168L67.76 45.568H68.732V46.396H67.604L67.088 49.048H68.48V49.876H66.944L66.524 52H65.636L66.056 49.876H64.328L63.908 52H63.02ZM64.484 49.048H66.2L66.716 46.396H65L64.484 49.048ZM74.1393 52.108C73.2193 52.108 72.4433 51.936 71.8113 51.592C71.1793 51.24 70.6993 50.74 70.3713 50.092C70.0513 49.444 69.8913 48.672 69.8913 47.776C69.8913 46.88 70.0553 46.108 70.3833 45.46C70.7193 44.812 71.1953 44.312 71.8113 43.96C72.4353 43.608 73.1833 43.432 74.0553 43.432C74.4553 43.432 74.8353 43.472 75.1953 43.552C75.5553 43.624 75.8873 43.736 76.1913 43.888C76.5033 44.04 76.7753 44.228 77.0073 44.452L76.5633 45.424C76.1873 45.104 75.7953 44.876 75.3873 44.74C74.9873 44.596 74.5433 44.524 74.0553 44.524C73.1193 44.524 72.4073 44.808 71.9193 45.376C71.4313 45.936 71.1873 46.736 71.1873 47.776C71.1873 48.84 71.4393 49.648 71.9433 50.2C72.4473 50.752 73.1953 51.028 74.1873 51.028C74.5473 51.028 74.8993 50.996 75.2433 50.932C75.5953 50.86 75.9313 50.76 76.2513 50.632L75.9993 51.256V48.46H73.9353V47.524H77.0433V51.508C76.8113 51.628 76.5313 51.732 76.2033 51.82C75.8833 51.908 75.5433 51.976 75.1833 52.024C74.8313 52.08 74.4833 52.108 74.1393 52.108ZM78.9567 52V43.54H82.4607C83.3727 43.54 84.0767 43.756 84.5727 44.188C85.0687 44.62 85.3167 45.232 85.3167 46.024C85.3167 46.536 85.2047 46.976 84.9807 47.344C84.7567 47.712 84.4287 47.992 83.9967 48.184C83.5727 48.376 83.0607 48.472 82.4607 48.472L82.5687 48.304H82.8807C83.2007 48.304 83.4767 48.384 83.7087 48.544C83.9487 48.704 84.1647 48.96 84.3567 49.312L85.8207 52H84.4527L82.9887 49.3C82.8767 49.092 82.7527 48.932 82.6167 48.82C82.4887 48.7 82.3367 48.62 82.1607 48.58C81.9927 48.532 81.7927 48.508 81.5607 48.508H80.2047V52H78.9567ZM80.2047 47.572H82.2567C82.8647 47.572 83.3247 47.444 83.6367 47.188C83.9487 46.932 84.1047 46.552 84.1047 46.048C84.1047 45.552 83.9487 45.176 83.6367 44.92C83.3247 44.664 82.8647 44.536 82.2567 44.536H80.2047V47.572ZM89.6131 52L85.8811 43.54H87.2131L90.4051 50.944H89.9611L93.1411 43.54H94.4131L90.6811 52H89.6131ZM94.6095 49.288V48.304H98.0655V49.288H94.6095ZM102.646 52.108C102.278 52.108 101.918 52.068 101.566 51.988C101.222 51.908 100.898 51.796 100.594 51.652C100.29 51.508 100.026 51.332 99.8021 51.124L100.222 50.164C100.606 50.468 100.994 50.692 101.386 50.836C101.778 50.98 102.19 51.052 102.622 51.052C103.174 51.052 103.606 50.904 103.918 50.608C104.23 50.312 104.386 49.916 104.386 49.42C104.386 48.916 104.238 48.504 103.942 48.184C103.646 47.864 103.234 47.704 102.706 47.704C102.33 47.704 101.994 47.78 101.698 47.932C101.41 48.084 101.15 48.316 100.918 48.628H100.054V43.54H105.094V44.584H101.266V47.632H100.93C101.146 47.328 101.43 47.092 101.782 46.924C102.142 46.756 102.538 46.672 102.97 46.672C103.506 46.672 103.97 46.784 104.362 47.008C104.754 47.232 105.058 47.548 105.274 47.956C105.49 48.356 105.598 48.824 105.598 49.36C105.598 49.904 105.478 50.384 105.238 50.8C104.998 51.208 104.658 51.528 104.218 51.76C103.778 51.992 103.254 52.108 102.646 52.108ZM110.477 52V50.284H106.673V49.36L110.693 43.54H111.713V49.24H112.949V50.284H111.713V52H110.477ZM110.477 49.24V45.028H110.801L107.681 49.576V49.24H110.477ZM116.905 52.108C116.249 52.108 115.697 51.94 115.249 51.604C114.801 51.268 114.461 50.78 114.229 50.14C113.997 49.492 113.881 48.7 113.881 47.764C113.881 46.812 113.997 46.016 114.229 45.376C114.461 44.736 114.801 44.252 115.249 43.924C115.697 43.596 116.249 43.432 116.905 43.432C117.569 43.432 118.125 43.596 118.573 43.924C119.021 44.244 119.357 44.724 119.581 45.364C119.813 46.004 119.929 46.8 119.929 47.752C119.929 48.688 119.813 49.48 119.581 50.128C119.349 50.776 119.009 51.268 118.561 51.604C118.113 51.94 117.561 52.108 116.905 52.108ZM116.905 51.076C117.521 51.076 117.973 50.808 118.261 50.272C118.557 49.736 118.705 48.896 118.705 47.752C118.705 46.608 118.557 45.776 118.261 45.256C117.973 44.728 117.521 44.464 116.905 44.464C116.297 44.464 115.845 44.728 115.549 45.256C115.253 45.776 115.105 46.608 115.105 47.752C115.105 48.896 115.253 49.736 115.549 50.272C115.845 50.808 116.297 51.076 116.905 51.076ZM121.904 52V50.956H123.824V44.596H124.448L122.324 45.916L121.82 44.992L124.184 43.54H125.06V50.956H126.86V52H121.904ZM128.715 52V51.076L131.535 48.052C131.799 47.764 132.011 47.5 132.171 47.26C132.331 47.012 132.447 46.776 132.519 46.552C132.599 46.32 132.639 46.088 132.639 45.856C132.639 45.408 132.503 45.068 132.231 44.836C131.959 44.604 131.559 44.488 131.031 44.488C130.623 44.488 130.235 44.564 129.867 44.716C129.507 44.868 129.163 45.1 128.835 45.412L128.391 44.464C128.711 44.152 129.119 43.904 129.615 43.72C130.111 43.528 130.627 43.432 131.163 43.432C131.747 43.432 132.239 43.524 132.639 43.708C133.047 43.884 133.355 44.144 133.563 44.488C133.771 44.832 133.875 45.252 133.875 45.748C133.875 46.004 133.843 46.256 133.779 46.504C133.723 46.744 133.631 46.984 133.503 47.224C133.383 47.464 133.227 47.712 133.035 47.968C132.851 48.224 132.627 48.488 132.363 48.76L129.951 51.304V50.956H134.211V52H128.715ZM138.751 49.516V48.088H140.179V49.516H138.751ZM147.475 52.108C146.875 52.108 146.355 51.984 145.915 51.736C145.483 51.48 145.147 51.124 144.907 50.668C144.667 50.204 144.547 49.66 144.547 49.036C144.547 48.42 144.667 47.888 144.907 47.44C145.147 46.992 145.483 46.648 145.915 46.408C146.355 46.16 146.875 46.036 147.475 46.036C147.843 46.036 148.207 46.1 148.567 46.228C148.927 46.348 149.223 46.524 149.455 46.756L149.071 47.608C148.855 47.4 148.611 47.248 148.339 47.152C148.067 47.048 147.811 46.996 147.571 46.996C147.003 46.996 146.563 47.176 146.251 47.536C145.947 47.888 145.795 48.392 145.795 49.048C145.795 49.704 145.947 50.22 146.251 50.596C146.563 50.964 147.003 51.148 147.571 51.148C147.811 51.148 148.067 51.1 148.339 51.004C148.611 50.9 148.855 50.744 149.071 50.536L149.455 51.4C149.223 51.616 148.923 51.788 148.555 51.916C148.195 52.044 147.835 52.108 147.475 52.108ZM152.322 52.108C151.914 52.108 151.546 52.028 151.218 51.868C150.898 51.708 150.646 51.492 150.462 51.22C150.278 50.948 150.186 50.64 150.186 50.296C150.186 49.864 150.294 49.524 150.51 49.276C150.734 49.02 151.098 48.84 151.602 48.736C152.114 48.624 152.802 48.568 153.666 48.568H154.23V49.312H153.678C153.246 49.312 152.882 49.328 152.586 49.36C152.29 49.392 152.054 49.444 151.878 49.516C151.702 49.58 151.574 49.672 151.494 49.792C151.422 49.912 151.386 50.056 151.386 50.224C151.386 50.528 151.49 50.776 151.698 50.968C151.906 51.152 152.194 51.244 152.562 51.244C152.858 51.244 153.118 51.176 153.342 51.04C153.566 50.896 153.742 50.704 153.87 50.464C154.006 50.224 154.074 49.948 154.074 49.636V48.256C154.074 47.8 153.978 47.472 153.786 47.272C153.594 47.072 153.278 46.972 152.838 46.972C152.502 46.972 152.166 47.024 151.83 47.128C151.494 47.224 151.15 47.38 150.798 47.596L150.426 46.744C150.634 46.6 150.874 46.476 151.146 46.372C151.418 46.268 151.702 46.188 151.998 46.132C152.302 46.068 152.594 46.036 152.874 46.036C153.41 46.036 153.85 46.12 154.194 46.288C154.546 46.456 154.806 46.712 154.974 47.056C155.142 47.4 155.226 47.844 155.226 48.388V52H154.086V50.692H154.194C154.13 50.988 154.01 51.244 153.834 51.46C153.666 51.668 153.454 51.828 153.198 51.94C152.942 52.052 152.65 52.108 152.322 52.108ZM156.895 54.16V46.144H158.083V47.464H157.951C158.079 47.032 158.331 46.688 158.707 46.432C159.083 46.168 159.527 46.036 160.039 46.036C160.559 46.036 161.011 46.16 161.395 46.408C161.787 46.656 162.087 47.004 162.295 47.452C162.511 47.9 162.619 48.44 162.619 49.072C162.619 49.688 162.511 50.228 162.295 50.692C162.087 51.148 161.791 51.5 161.407 51.748C161.023 51.988 160.567 52.108 160.039 52.108C159.535 52.108 159.095 51.98 158.719 51.724C158.343 51.468 158.091 51.128 157.963 50.704H158.107V54.16H156.895ZM159.739 51.172C160.243 51.172 160.643 50.992 160.939 50.632C161.243 50.272 161.395 49.752 161.395 49.072C161.395 48.384 161.243 47.864 160.939 47.512C160.643 47.16 160.243 46.984 159.739 46.984C159.243 46.984 158.843 47.16 158.539 47.512C158.235 47.864 158.083 48.384 158.083 49.072C158.083 49.752 158.235 50.272 158.539 50.632C158.843 50.992 159.243 51.172 159.739 51.172ZM166.422 52.108C165.694 52.108 165.146 51.92 164.778 51.544C164.418 51.168 164.238 50.624 164.238 49.912V47.08H163.098V46.144H164.238V44.38H165.45V46.144H167.262V47.08H165.45V49.816C165.45 50.24 165.538 50.56 165.714 50.776C165.898 50.992 166.194 51.1 166.602 51.1C166.722 51.1 166.842 51.084 166.962 51.052C167.09 51.02 167.214 50.988 167.334 50.956L167.526 51.868C167.406 51.94 167.238 51.996 167.022 52.036C166.814 52.084 166.614 52.108 166.422 52.108ZM170.397 52.108C169.925 52.108 169.529 52.02 169.209 51.844C168.897 51.668 168.661 51.408 168.501 51.064C168.349 50.712 168.273 50.272 168.273 49.744V46.144H169.485V49.756C169.485 50.068 169.525 50.328 169.605 50.536C169.693 50.744 169.825 50.896 170.001 50.992C170.185 51.088 170.413 51.136 170.685 51.136C170.989 51.136 171.257 51.068 171.489 50.932C171.721 50.796 171.901 50.6 172.029 50.344C172.157 50.088 172.221 49.792 172.221 49.456V46.144H173.433V52H172.257V50.716H172.413C172.253 51.164 171.997 51.508 171.645 51.748C171.293 51.988 170.877 52.108 170.397 52.108ZM175.141 52V46.144H176.317V47.548H176.197C176.325 47.068 176.553 46.704 176.881 46.456C177.217 46.208 177.661 46.064 178.213 46.024L178.609 46L178.693 47.032L177.961 47.104C177.441 47.152 177.045 47.316 176.773 47.596C176.501 47.876 176.365 48.26 176.365 48.748V52H175.141ZM182.284 52.108C181.644 52.108 181.092 51.988 180.628 51.748C180.172 51.5 179.816 51.152 179.56 50.704C179.312 50.248 179.188 49.708 179.188 49.084C179.188 48.476 179.312 47.944 179.56 47.488C179.808 47.032 180.148 46.676 180.58 46.42C181.012 46.164 181.504 46.036 182.056 46.036C182.6 46.036 183.064 46.156 183.448 46.396C183.84 46.628 184.14 46.96 184.348 47.392C184.556 47.824 184.66 48.34 184.66 48.94V49.348H180.148V48.604H183.844L183.64 48.772C183.64 48.172 183.508 47.708 183.244 47.38C182.98 47.052 182.6 46.888 182.104 46.888C181.728 46.888 181.408 46.976 181.144 47.152C180.888 47.328 180.692 47.572 180.556 47.884C180.42 48.196 180.352 48.56 180.352 48.976V49.048C180.352 49.512 180.424 49.904 180.568 50.224C180.72 50.536 180.94 50.772 181.228 50.932C181.516 51.092 181.872 51.172 182.296 51.172C182.632 51.172 182.96 51.12 183.28 51.016C183.608 50.904 183.916 50.732 184.204 50.5L184.564 51.34C184.3 51.58 183.96 51.768 183.544 51.904C183.128 52.04 182.708 52.108 182.284 52.108ZM188.213 52.108C187.701 52.108 187.249 51.988 186.857 51.748C186.473 51.5 186.173 51.148 185.957 50.692C185.741 50.228 185.633 49.688 185.633 49.072C185.633 48.44 185.741 47.9 185.957 47.452C186.173 47.004 186.473 46.656 186.857 46.408C187.249 46.16 187.701 46.036 188.213 46.036C188.725 46.036 189.165 46.164 189.533 46.42C189.909 46.668 190.161 47.004 190.289 47.428H190.157V43.54H191.369V52H190.181V50.68H190.301C190.173 51.112 189.921 51.46 189.545 51.724C189.177 51.98 188.733 52.108 188.213 52.108ZM188.525 51.172C189.021 51.172 189.421 50.992 189.725 50.632C190.029 50.272 190.181 49.752 190.181 49.072C190.181 48.384 190.029 47.864 189.725 47.512C189.421 47.16 189.021 46.984 188.525 46.984C188.021 46.984 187.617 47.16 187.313 47.512C187.009 47.864 186.857 48.384 186.857 49.072C186.857 49.752 187.009 50.272 187.313 50.632C187.617 50.992 188.021 51.172 188.525 51.172ZM198.095 52.108C197.687 52.108 197.319 52.028 196.991 51.868C196.671 51.708 196.419 51.492 196.235 51.22C196.051 50.948 195.959 50.64 195.959 50.296C195.959 49.864 196.067 49.524 196.283 49.276C196.507 49.02 196.871 48.84 197.375 48.736C197.887 48.624 198.575 48.568 199.439 48.568H200.003V49.312H199.451C199.019 49.312 198.655 49.328 198.359 49.36C198.063 49.392 197.827 49.444 197.651 49.516C197.475 49.58 197.347 49.672 197.267 49.792C197.195 49.912 197.159 50.056 197.159 50.224C197.159 50.528 197.263 50.776 197.471 50.968C197.679 51.152 197.967 51.244 198.335 51.244C198.631 51.244 198.891 51.176 199.115 51.04C199.339 50.896 199.515 50.704 199.643 50.464C199.779 50.224 199.847 49.948 199.847 49.636V48.256C199.847 47.8 199.751 47.472 199.559 47.272C199.367 47.072 199.051 46.972 198.611 46.972C198.275 46.972 197.939 47.024 197.603 47.128C197.267 47.224 196.923 47.38 196.571 47.596L196.199 46.744C196.407 46.6 196.647 46.476 196.919 46.372C197.191 46.268 197.475 46.188 197.771 46.132C198.075 46.068 198.367 46.036 198.647 46.036C199.183 46.036 199.623 46.12 199.967 46.288C200.319 46.456 200.579 46.712 200.747 47.056C200.915 47.4 200.999 47.844 200.999 48.388V52H199.859V50.692H199.967C199.903 50.988 199.783 51.244 199.607 51.46C199.439 51.668 199.227 51.828 198.971 51.94C198.715 52.052 198.423 52.108 198.095 52.108ZM205.164 52.108C204.436 52.108 203.888 51.92 203.52 51.544C203.16 51.168 202.98 50.624 202.98 49.912V47.08H201.84V46.144H202.98V44.38H204.192V46.144H206.004V47.08H204.192V49.816C204.192 50.24 204.28 50.56 204.456 50.776C204.64 50.992 204.936 51.1 205.344 51.1C205.464 51.1 205.584 51.084 205.704 51.052C205.832 51.02 205.956 50.988 206.076 50.956L206.268 51.868C206.148 51.94 205.98 51.996 205.764 52.036C205.556 52.084 205.356 52.108 205.164 52.108ZM210.204 54.16V46.144H211.392V47.464H211.26C211.388 47.032 211.64 46.688 212.016 46.432C212.392 46.168 212.836 46.036 213.348 46.036C213.868 46.036 214.32 46.16 214.704 46.408C215.096 46.656 215.396 47.004 215.604 47.452C215.82 47.9 215.928 48.44 215.928 49.072C215.928 49.688 215.82 50.228 215.604 50.692C215.396 51.148 215.1 51.5 214.716 51.748C214.332 51.988 213.876 52.108 213.348 52.108C212.844 52.108 212.404 51.98 212.028 51.724C211.652 51.468 211.4 51.128 211.272 50.704H211.416V54.16H210.204ZM213.048 51.172C213.552 51.172 213.952 50.992 214.248 50.632C214.552 50.272 214.704 49.752 214.704 49.072C214.704 48.384 214.552 47.864 214.248 47.512C213.952 47.16 213.552 46.984 213.048 46.984C212.552 46.984 212.152 47.16 211.848 47.512C211.544 47.864 211.392 48.384 211.392 49.072C211.392 49.752 211.544 50.272 211.848 50.632C212.152 50.992 212.552 51.172 213.048 51.172ZM219.165 52.108C218.757 52.108 218.389 52.028 218.061 51.868C217.741 51.708 217.489 51.492 217.305 51.22C217.121 50.948 217.029 50.64 217.029 50.296C217.029 49.864 217.137 49.524 217.353 49.276C217.577 49.02 217.941 48.84 218.445 48.736C218.957 48.624 219.645 48.568 220.509 48.568H221.073V49.312H220.521C220.089 49.312 219.725 49.328 219.429 49.36C219.133 49.392 218.897 49.444 218.721 49.516C218.545 49.58 218.417 49.672 218.337 49.792C218.265 49.912 218.229 50.056 218.229 50.224C218.229 50.528 218.333 50.776 218.541 50.968C218.749 51.152 219.037 51.244 219.405 51.244C219.701 51.244 219.961 51.176 220.185 51.04C220.409 50.896 220.585 50.704 220.713 50.464C220.849 50.224 220.917 49.948 220.917 49.636V48.256C220.917 47.8 220.821 47.472 220.629 47.272C220.437 47.072 220.121 46.972 219.681 46.972C219.345 46.972 219.009 47.024 218.673 47.128C218.337 47.224 217.993 47.38 217.641 47.596L217.269 46.744C217.477 46.6 217.717 46.476 217.989 46.372C218.261 46.268 218.545 46.188 218.841 46.132C219.145 46.068 219.437 46.036 219.717 46.036C220.253 46.036 220.693 46.12 221.037 46.288C221.389 46.456 221.649 46.712 221.817 47.056C221.985 47.4 222.069 47.844 222.069 48.388V52H220.929V50.692H221.037C220.973 50.988 220.853 51.244 220.677 51.46C220.509 51.668 220.297 51.828 220.041 51.94C219.785 52.052 219.493 52.108 219.165 52.108ZM226.319 52.108C225.719 52.108 225.199 51.984 224.759 51.736C224.327 51.48 223.991 51.124 223.751 50.668C223.511 50.204 223.391 49.66 223.391 49.036C223.391 48.42 223.511 47.888 223.751 47.44C223.991 46.992 224.327 46.648 224.759 46.408C225.199 46.16 225.719 46.036 226.319 46.036C226.687 46.036 227.051 46.1 227.411 46.228C227.771 46.348 228.067 46.524 228.299 46.756L227.915 47.608C227.699 47.4 227.455 47.248 227.183 47.152C226.911 47.048 226.655 46.996 226.415 46.996C225.847 46.996 225.407 47.176 225.095 47.536C224.791 47.888 224.639 48.392 224.639 49.048C224.639 49.704 224.791 50.22 225.095 50.596C225.407 50.964 225.847 51.148 226.415 51.148C226.655 51.148 226.911 51.1 227.183 51.004C227.455 50.9 227.699 50.744 227.915 50.536L228.299 51.4C228.067 51.616 227.767 51.788 227.399 51.916C227.039 52.044 226.679 52.108 226.319 52.108ZM229.34 52V43.54H230.552V48.7H230.576L233.12 46.144H234.62L231.536 49.24V48.676L234.836 52H233.324L230.576 49.324H230.552V52H229.34Z" fill="#737682"/>
<rect x="300" y="20" width="63" height="24" rx="12" fill="#DDF6E8"/>
<path d="M313.66 36L309.928 27.54H311.26L314.452 34.944H314.008L317.188 27.54H318.46L314.728 36H313.66ZM321.276 36.108C320.636 36.108 320.084 35.988 319.62 35.748C319.164 35.5 318.808 35.152 318.552 34.704C318.304 34.248 318.18 33.708 318.18 33.084C318.18 32.476 318.304 31.944 318.552 31.488C318.8 31.032 319.14 30.676 319.572 30.42C320.004 30.164 320.496 30.036 321.048 30.036C321.592 30.036 322.056 30.156 322.44 30.396C322.832 30.628 323.132 30.96 323.34 31.392C323.548 31.824 323.652 32.34 323.652 32.94V33.348H319.14V32.604H322.836L322.632 32.772C322.632 32.172 322.5 31.708 322.236 31.38C321.972 31.052 321.592 30.888 321.096 30.888C320.72 30.888 320.4 30.976 320.136 31.152C319.88 31.328 319.684 31.572 319.548 31.884C319.412 32.196 319.344 32.56 319.344 32.976V33.048C319.344 33.512 319.416 33.904 319.56 34.224C319.712 34.536 319.932 34.772 320.22 34.932C320.508 35.092 320.864 35.172 321.288 35.172C321.624 35.172 321.952 35.12 322.272 35.016C322.6 34.904 322.908 34.732 323.196 34.5L323.556 35.34C323.292 35.58 322.952 35.768 322.536 35.904C322.12 36.04 321.7 36.108 321.276 36.108ZM324.973 36V30.144H326.149V31.548H326.029C326.157 31.068 326.385 30.704 326.713 30.456C327.049 30.208 327.493 30.064 328.045 30.024L328.441 30L328.525 31.032L327.793 31.104C327.273 31.152 326.877 31.316 326.605 31.596C326.333 31.876 326.197 32.26 326.197 32.748V36H324.973ZM329.342 28.788V27.528H330.758V28.788H329.342ZM329.45 36V30.144H330.662V36H329.45ZM332.716 36V31.08H331.576V30.144H333.064L332.716 30.468V30.036C332.716 29.236 332.92 28.632 333.328 28.224C333.744 27.808 334.38 27.576 335.236 27.528L335.716 27.504L335.788 28.416L335.296 28.44C334.968 28.456 334.704 28.52 334.504 28.632C334.304 28.744 334.156 28.904 334.06 29.112C333.972 29.312 333.928 29.564 333.928 29.868V30.288V30.144H337.66V36H336.448V31.08H333.928V36H332.716ZM336.34 28.788V27.528H337.756V28.788H336.34ZM342.1 36.108C341.46 36.108 340.908 35.988 340.444 35.748C339.988 35.5 339.632 35.152 339.376 34.704C339.128 34.248 339.004 33.708 339.004 33.084C339.004 32.476 339.128 31.944 339.376 31.488C339.624 31.032 339.964 30.676 340.396 30.42C340.828 30.164 341.32 30.036 341.872 30.036C342.416 30.036 342.88 30.156 343.264 30.396C343.656 30.628 343.956 30.96 344.164 31.392C344.372 31.824 344.476 32.34 344.476 32.94V33.348H339.964V32.604H343.66L343.456 32.772C343.456 32.172 343.324 31.708 343.06 31.38C342.796 31.052 342.416 30.888 341.92 30.888C341.544 30.888 341.224 30.976 340.96 31.152C340.704 31.328 340.508 31.572 340.372 31.884C340.236 32.196 340.168 32.56 340.168 32.976V33.048C340.168 33.512 340.24 33.904 340.384 34.224C340.536 34.536 340.756 34.772 341.044 34.932C341.332 35.092 341.688 35.172 342.112 35.172C342.448 35.172 342.776 35.12 343.096 35.016C343.424 34.904 343.732 34.732 344.02 34.5L344.38 35.34C344.116 35.58 343.776 35.768 343.36 35.904C342.944 36.04 342.524 36.108 342.1 36.108ZM348.029 36.108C347.517 36.108 347.065 35.988 346.673 35.748C346.289 35.5 345.989 35.148 345.773 34.692C345.557 34.228 345.449 33.688 345.449 33.072C345.449 32.44 345.557 31.9 345.773 31.452C345.989 31.004 346.289 30.656 346.673 30.408C347.065 30.16 347.517 30.036 348.029 30.036C348.541 30.036 348.981 30.164 349.349 30.42C349.725 30.668 349.977 31.004 350.105 31.428H349.973V27.54H351.185V36H349.997V34.68H350.117C349.989 35.112 349.737 35.46 349.361 35.724C348.993 35.98 348.549 36.108 348.029 36.108ZM348.341 35.172C348.837 35.172 349.237 34.992 349.541 34.632C349.845 34.272 349.997 33.752 349.997 33.072C349.997 32.384 349.845 31.864 349.541 31.512C349.237 31.16 348.837 30.984 348.341 30.984C347.837 30.984 347.433 31.16 347.129 31.512C346.825 31.864 346.673 32.384 346.673 33.072C346.673 33.752 346.825 34.272 347.129 34.632C347.433 34.992 347.837 35.172 348.341 35.172Z" fill="black"/>
<path d="M22 97.2C20.8933 97.2 19.9533 96.92 19.18 96.36C18.42 95.7867 17.84 94.96 17.44 93.88C17.0533 92.8 16.86 91.48 16.86 89.92C16.86 88.3467 17.0533 87.0267 17.44 85.96C17.84 84.88 18.42 84.0667 19.18 83.52C19.9533 82.9733 20.8933 82.7 22 82.7C23.12 82.7 24.06 82.9733 24.82 83.52C25.5933 84.0667 26.1733 84.8733 26.56 85.94C26.9467 87.0067 27.14 88.3267 27.14 89.9C27.14 91.46 26.94 92.7867 26.54 93.88C26.1533 94.96 25.58 95.7867 24.82 96.36C24.06 96.92 23.12 97.2 22 97.2ZM22 95.1C22.9067 95.1 23.5733 94.6867 24 93.86C24.44 93.02 24.66 91.7 24.66 89.9C24.66 88.1133 24.44 86.82 24 86.02C23.5733 85.2067 22.9067 84.8 22 84.8C21.1067 84.8 20.44 85.2067 20 86.02C19.56 86.82 19.34 88.12 19.34 89.92C19.34 91.7067 19.56 93.02 20 93.86C20.44 94.6867 21.1067 95.1 22 95.1ZM29.0722 97V94.22H31.8722V97H29.0722ZM39.0731 97.2C38.4598 97.2 37.8531 97.1333 37.2531 97C36.6665 96.8667 36.1131 96.68 35.5931 96.44C35.0865 96.2 34.6465 95.92 34.2731 95.6L35.1131 93.64C35.7265 94.1067 36.3598 94.46 37.0131 94.7C37.6665 94.9267 38.3398 95.04 39.0331 95.04C39.8731 95.04 40.5265 94.8267 40.9931 94.4C41.4731 93.96 41.7131 93.3733 41.7131 92.64C41.7131 91.8933 41.4865 91.2933 41.0331 90.84C40.5798 90.3733 39.9598 90.14 39.1731 90.14C38.5998 90.14 38.0865 90.2533 37.6331 90.48C37.1798 90.6933 36.7665 91.0267 36.3931 91.48H34.6731V82.9H43.3331V85.02H37.1731V89.5H36.5131C36.8598 89.0333 37.3131 88.6733 37.8731 88.42C38.4465 88.1667 39.0798 88.04 39.7731 88.04C40.6665 88.04 41.4398 88.2333 42.0931 88.62C42.7598 88.9933 43.2731 89.52 43.6331 90.2C44.0065 90.8667 44.1931 91.6467 44.1931 92.54C44.1931 93.46 43.9865 94.2733 43.5731 94.98C43.1598 95.6733 42.5665 96.22 41.7931 96.62C41.0331 97.0067 40.1265 97.2 39.0731 97.2ZM50.9453 97.2C49.8386 97.2 48.8986 96.92 48.1253 96.36C47.3653 95.7867 46.7853 94.96 46.3853 93.88C45.9986 92.8 45.8053 91.48 45.8053 89.92C45.8053 88.3467 45.9986 87.0267 46.3853 85.96C46.7853 84.88 47.3653 84.0667 48.1253 83.52C48.8986 82.9733 49.8386 82.7 50.9453 82.7C52.0653 82.7 53.0053 82.9733 53.7653 83.52C54.5386 84.0667 55.1186 84.8733 55.5053 85.94C55.892 87.0067 56.0853 88.3267 56.0853 89.9C56.0853 91.46 55.8853 92.7867 55.4853 93.88C55.0986 94.96 54.5253 95.7867 53.7653 96.36C53.0053 96.92 52.0653 97.2 50.9453 97.2ZM50.9453 95.1C51.852 95.1 52.5186 94.6867 52.9453 93.86C53.3853 93.02 53.6053 91.7 53.6053 89.9C53.6053 88.1133 53.3853 86.82 52.9453 86.02C52.5186 85.2067 51.852 84.8 50.9453 84.8C50.052 84.8 49.3853 85.2067 48.9453 86.02C48.5053 86.82 48.2853 88.12 48.2853 89.92C48.2853 91.7067 48.5053 93.02 48.9453 93.86C49.3853 94.6867 50.052 95.1 50.9453 95.1ZM63.6281 97V82.9H66.1281V91.38H66.1681L70.1081 87.22H73.1281L68.2081 92.42V91.38L73.4081 97H70.3481L66.1681 92.64H66.1281V97H63.6281ZM78.7155 100.8C77.8088 100.8 76.9555 100.693 76.1555 100.48C75.3688 100.28 74.6755 99.9667 74.0755 99.54L74.7955 97.8C75.1688 98.04 75.5621 98.24 75.9755 98.4C76.3888 98.5733 76.8088 98.7 77.2355 98.78C77.6621 98.86 78.0888 98.9 78.5155 98.9C79.4088 98.9 80.0755 98.68 80.5155 98.24C80.9688 97.8133 81.1955 97.1733 81.1955 96.32V94.52H81.3755C81.1755 95.2 80.7555 95.7467 80.1155 96.16C79.4888 96.56 78.7755 96.76 77.9755 96.76C77.0955 96.76 76.3288 96.56 75.6755 96.16C75.0221 95.7467 74.5155 95.1733 74.1555 94.44C73.7955 93.7067 73.6155 92.8533 73.6155 91.88C73.6155 90.9067 73.7955 90.06 74.1555 89.34C74.5155 88.6067 75.0221 88.04 75.6755 87.64C76.3288 87.2267 77.0955 87.02 77.9755 87.02C78.8021 87.02 79.5221 87.2267 80.1355 87.64C80.7621 88.04 81.1688 88.5733 81.3555 89.24H81.1955V87.22H83.6355V96.02C83.6355 97.0733 83.4488 97.9533 83.0755 98.66C82.7021 99.38 82.1488 99.9133 81.4155 100.26C80.6821 100.62 79.7821 100.8 78.7155 100.8ZM78.6555 94.86C79.4288 94.86 80.0421 94.5933 80.4955 94.06C80.9488 93.5267 81.1755 92.8 81.1755 91.88C81.1755 90.96 80.9488 90.24 80.4955 89.72C80.0421 89.1867 79.4288 88.92 78.6555 88.92C77.8821 88.92 77.2688 89.1867 76.8155 89.72C76.3621 90.24 76.1355 90.96 76.1355 91.88C76.1355 92.8 76.3621 93.5267 76.8155 94.06C77.2688 94.5933 77.8821 94.86 78.6555 94.86Z" fill="#444050"/>
<path d="M16 114H363" stroke="#EAEAEC" stroke-linecap="round"/>
<path d="M17.044 138V129.54H19.9C20.82 129.54 21.596 129.704 22.228 130.032C22.868 130.352 23.352 130.828 23.68 131.46C24.016 132.084 24.184 132.852 24.184 133.764C24.184 134.676 24.016 135.448 23.68 136.08C23.352 136.712 22.868 137.192 22.228 137.52C21.596 137.84 20.82 138 19.9 138H17.044ZM18.028 137.16H19.828C20.94 137.16 21.768 136.876 22.312 136.308C22.864 135.74 23.14 134.892 23.14 133.764C23.14 132.636 22.864 131.792 22.312 131.232C21.76 130.664 20.932 130.38 19.828 130.38H18.028V137.16ZM25.6982 130.716V129.624H26.8983V130.716H25.6982ZM25.8183 138V132.168H26.7903V138H25.8183ZM28.6313 138V132.168H29.5793V133.464H29.4473C29.5433 133.168 29.6833 132.916 29.8673 132.708C30.0593 132.492 30.2833 132.332 30.5393 132.228C30.8033 132.116 31.0913 132.06 31.4033 132.06C31.8993 132.06 32.2993 132.18 32.6033 132.42C32.9153 132.652 33.1233 133.016 33.2273 133.512H33.0473C33.1913 133.064 33.4473 132.712 33.8153 132.456C34.1913 132.192 34.6273 132.06 35.1233 132.06C35.5633 132.06 35.9233 132.144 36.2033 132.312C36.4913 132.48 36.7073 132.736 36.8513 133.08C36.9953 133.416 37.0673 133.844 37.0673 134.364V138H36.0953V134.412C36.0953 133.876 36.0033 133.484 35.8193 133.236C35.6353 132.98 35.3233 132.852 34.8833 132.852C34.5713 132.852 34.2953 132.928 34.0553 133.08C33.8233 133.232 33.6433 133.448 33.5153 133.728C33.3953 134 33.3353 134.324 33.3353 134.7V138H32.3633V134.412C32.3633 133.876 32.2673 133.484 32.0753 133.236C31.8913 132.98 31.5833 132.852 31.1513 132.852C30.8313 132.852 30.5553 132.928 30.3233 133.08C30.0913 133.232 29.9113 133.448 29.7833 133.728C29.6633 134 29.6033 134.324 29.6033 134.7V138H28.6313ZM41.5127 138.108C40.8967 138.108 40.3647 137.988 39.9167 137.748C39.4767 137.5 39.1327 137.152 38.8847 136.704C38.6447 136.256 38.5247 135.72 38.5247 135.096C38.5247 134.488 38.6447 133.96 38.8847 133.512C39.1247 133.056 39.4527 132.7 39.8687 132.444C40.2927 132.188 40.7807 132.06 41.3327 132.06C41.8607 132.06 42.3127 132.176 42.6887 132.408C43.0647 132.64 43.3527 132.968 43.5527 133.392C43.7607 133.816 43.8647 134.324 43.8647 134.916V135.288H39.2687V134.652H43.2167L43.0247 134.808C43.0247 134.168 42.8807 133.672 42.5927 133.32C42.3127 132.96 41.9007 132.78 41.3567 132.78C40.9487 132.78 40.6007 132.876 40.3127 133.068C40.0327 133.252 39.8207 133.512 39.6767 133.848C39.5327 134.176 39.4607 134.56 39.4607 135V135.072C39.4607 135.56 39.5367 135.972 39.6887 136.308C39.8487 136.644 40.0847 136.9 40.3967 137.076C40.7087 137.244 41.0807 137.328 41.5127 137.328C41.8567 137.328 42.1887 137.276 42.5087 137.172C42.8367 137.06 43.1447 136.88 43.4327 136.632L43.7687 137.316C43.5047 137.556 43.1687 137.748 42.7607 137.892C42.3527 138.036 41.9367 138.108 41.5127 138.108ZM45.2714 138V132.168H46.2194V133.464H46.0874C46.2554 133 46.5274 132.652 46.9034 132.42C47.2874 132.18 47.7274 132.06 48.2234 132.06C48.6874 132.06 49.0714 132.144 49.3754 132.312C49.6874 132.472 49.9194 132.724 50.0714 133.068C50.2234 133.412 50.2994 133.844 50.2994 134.364V138H49.3274V134.424C49.3274 134.064 49.2794 133.768 49.1834 133.536C49.0954 133.304 48.9514 133.132 48.7514 133.02C48.5594 132.908 48.3074 132.852 47.9954 132.852C47.6434 132.852 47.3354 132.928 47.0714 133.08C46.8074 133.232 46.6034 133.444 46.4594 133.716C46.3154 133.988 46.2434 134.308 46.2434 134.676V138H45.2714ZM54.0597 138.108C53.7557 138.108 53.4597 138.076 53.1717 138.012C52.8917 137.956 52.6277 137.876 52.3797 137.772C52.1397 137.66 51.9317 137.528 51.7557 137.376L52.0677 136.692C52.2597 136.844 52.4677 136.972 52.6917 137.076C52.9157 137.172 53.1437 137.244 53.3757 137.292C53.6077 137.34 53.8437 137.364 54.0837 137.364C54.5397 137.364 54.8837 137.28 55.1157 137.112C55.3477 136.944 55.4637 136.716 55.4637 136.428C55.4637 136.204 55.3877 136.028 55.2357 135.9C55.0837 135.764 54.8437 135.66 54.5157 135.588L53.4237 135.348C52.9197 135.244 52.5437 135.064 52.2957 134.808C52.0557 134.552 51.9357 134.22 51.9357 133.812C51.9357 133.452 52.0277 133.144 52.2117 132.888C52.4037 132.624 52.6717 132.42 53.0157 132.276C53.3597 132.132 53.7597 132.06 54.2157 132.06C54.4877 132.06 54.7477 132.088 54.9957 132.144C55.2437 132.2 55.4757 132.284 55.6917 132.396C55.9157 132.5 56.1077 132.632 56.2677 132.792L55.9437 133.476C55.7917 133.332 55.6197 133.212 55.4277 133.116C55.2357 133.012 55.0357 132.936 54.8277 132.888C54.6277 132.832 54.4237 132.804 54.2157 132.804C53.7677 132.804 53.4277 132.892 53.1957 133.068C52.9637 133.244 52.8477 133.476 52.8477 133.764C52.8477 133.988 52.9197 134.172 53.0637 134.316C53.2077 134.46 53.4317 134.564 53.7357 134.628L54.8277 134.856C55.3477 134.968 55.7357 135.148 55.9917 135.396C56.2557 135.636 56.3877 135.964 56.3877 136.38C56.3877 136.732 56.2917 137.04 56.0997 137.304C55.9077 137.56 55.6357 137.76 55.2837 137.904C54.9397 138.04 54.5317 138.108 54.0597 138.108ZM57.749 130.716V129.624H58.949V130.716H57.749ZM57.869 138V132.168H58.841V138H57.869ZM63.0821 138.108C62.5141 138.108 62.0221 137.984 61.6061 137.736C61.1901 137.488 60.8661 137.14 60.6341 136.692C60.4101 136.236 60.2981 135.7 60.2981 135.084C60.2981 134.468 60.4101 133.936 60.6341 133.488C60.8661 133.032 61.1901 132.68 61.6061 132.432C62.0221 132.184 62.5141 132.06 63.0821 132.06C63.6501 132.06 64.1421 132.184 64.5581 132.432C64.9741 132.68 65.2941 133.032 65.5181 133.488C65.7501 133.936 65.8661 134.468 65.8661 135.084C65.8661 135.7 65.7501 136.236 65.5181 136.692C65.2941 137.14 64.9741 137.488 64.5581 137.736C64.1421 137.984 63.6501 138.108 63.0821 138.108ZM63.0821 137.328C63.6341 137.328 64.0701 137.136 64.3901 136.752C64.7181 136.36 64.8821 135.8 64.8821 135.072C64.8821 134.352 64.7181 133.8 64.3901 133.416C64.0701 133.032 63.6341 132.84 63.0821 132.84C62.5381 132.84 62.1021 133.032 61.7741 133.416C61.4461 133.8 61.2821 134.352 61.2821 135.072C61.2821 135.8 61.4461 136.36 61.7741 136.752C62.1021 137.136 62.5381 137.328 63.0821 137.328ZM67.3261 138V132.168H68.2741V133.464H68.1421C68.3101 133 68.5821 132.652 68.9581 132.42C69.3421 132.18 69.7821 132.06 70.2781 132.06C70.7421 132.06 71.1261 132.144 71.4301 132.312C71.7421 132.472 71.9741 132.724 72.1261 133.068C72.2781 133.412 72.3541 133.844 72.3541 134.364V138H71.3821V134.424C71.3821 134.064 71.3341 133.768 71.2381 133.536C71.1501 133.304 71.0061 133.132 70.8061 133.02C70.6141 132.908 70.3621 132.852 70.0501 132.852C69.6981 132.852 69.3901 132.928 69.1261 133.08C68.8621 133.232 68.6581 133.444 68.5141 133.716C68.3701 133.988 68.2981 134.308 68.2981 134.676V138H67.3261ZM76.1144 138.108C75.8104 138.108 75.5144 138.076 75.2264 138.012C74.9464 137.956 74.6824 137.876 74.4344 137.772C74.1944 137.66 73.9864 137.528 73.8104 137.376L74.1224 136.692C74.3144 136.844 74.5224 136.972 74.7464 137.076C74.9704 137.172 75.1984 137.244 75.4304 137.292C75.6624 137.34 75.8984 137.364 76.1384 137.364C76.5944 137.364 76.9384 137.28 77.1704 137.112C77.4024 136.944 77.5184 136.716 77.5184 136.428C77.5184 136.204 77.4424 136.028 77.2904 135.9C77.1384 135.764 76.8984 135.66 76.5704 135.588L75.4784 135.348C74.9744 135.244 74.5984 135.064 74.3504 134.808C74.1104 134.552 73.9904 134.22 73.9904 133.812C73.9904 133.452 74.0824 133.144 74.2664 132.888C74.4584 132.624 74.7264 132.42 75.0704 132.276C75.4144 132.132 75.8144 132.06 76.2704 132.06C76.5424 132.06 76.8024 132.088 77.0504 132.144C77.2984 132.2 77.5304 132.284 77.7464 132.396C77.9704 132.5 78.1624 132.632 78.3224 132.792L77.9984 133.476C77.8464 133.332 77.6744 133.212 77.4824 133.116C77.2904 133.012 77.0904 132.936 76.8824 132.888C76.6824 132.832 76.4784 132.804 76.2704 132.804C75.8224 132.804 75.4824 132.892 75.2504 133.068C75.0184 133.244 74.9024 133.476 74.9024 133.764C74.9024 133.988 74.9744 134.172 75.1184 134.316C75.2624 134.46 75.4864 134.564 75.7904 134.628L76.8824 134.856C77.4024 134.968 77.7904 135.148 78.0464 135.396C78.3104 135.636 78.4424 135.964 78.4424 136.38C78.4424 136.732 78.3464 137.04 78.1544 137.304C77.9624 137.56 77.6904 137.76 77.3384 137.904C76.9944 138.04 76.5864 138.108 76.1144 138.108ZM79.7677 133.392V132.168H80.9917V133.392H79.7677ZM79.7677 138V136.776H80.9917V138H79.7677Z" fill="#737682"/>
<path d="M281.02 138V137.076L283.84 134.052C284.104 133.764 284.316 133.5 284.476 133.26C284.636 133.012 284.752 132.776 284.824 132.552C284.904 132.32 284.944 132.088 284.944 131.856C284.944 131.408 284.808 131.068 284.536 130.836C284.264 130.604 283.864 130.488 283.336 130.488C282.928 130.488 282.54 130.564 282.172 130.716C281.812 130.868 281.468 131.1 281.14 131.412L280.696 130.464C281.016 130.152 281.424 129.904 281.92 129.72C282.416 129.528 282.932 129.432 283.468 129.432C284.052 129.432 284.544 129.524 284.944 129.708C285.352 129.884 285.66 130.144 285.868 130.488C286.076 130.832 286.18 131.252 286.18 131.748C286.18 132.004 286.148 132.256 286.084 132.504C286.028 132.744 285.936 132.984 285.808 133.224C285.688 133.464 285.532 133.712 285.34 133.968C285.156 134.224 284.932 134.488 284.668 134.76L282.256 137.304V136.956H286.516V138H281.02ZM288.215 138V137.076L291.035 134.052C291.299 133.764 291.511 133.5 291.671 133.26C291.831 133.012 291.947 132.776 292.019 132.552C292.099 132.32 292.139 132.088 292.139 131.856C292.139 131.408 292.003 131.068 291.731 130.836C291.459 130.604 291.059 130.488 290.531 130.488C290.123 130.488 289.735 130.564 289.367 130.716C289.007 130.868 288.663 131.1 288.335 131.412L287.891 130.464C288.211 130.152 288.619 129.904 289.115 129.72C289.611 129.528 290.127 129.432 290.663 129.432C291.247 129.432 291.739 129.524 292.139 129.708C292.547 129.884 292.855 130.144 293.063 130.488C293.271 130.832 293.375 131.252 293.375 131.748C293.375 132.004 293.343 132.256 293.279 132.504C293.223 132.744 293.131 132.984 293.003 133.224C292.883 133.464 292.727 133.712 292.535 133.968C292.351 134.224 292.127 134.488 291.863 134.76L289.451 137.304V136.956H293.711V138H288.215ZM298.959 137.388L298.335 136.764L300.519 134.58L298.335 132.396L298.959 131.772L301.143 133.944L303.327 131.772L303.951 132.396L301.767 134.58L303.951 136.764L303.327 137.388L301.143 135.204L298.959 137.388ZM309.295 138V136.956H311.215V130.596H311.839L309.715 131.916L309.211 130.992L311.575 129.54H312.451V136.956H314.251V138H309.295ZM318.986 138.108C318.306 138.108 317.726 137.944 317.246 137.616C316.774 137.288 316.41 136.816 316.154 136.2C315.906 135.576 315.782 134.828 315.782 133.956C315.782 132.98 315.922 132.16 316.202 131.496C316.482 130.824 316.886 130.312 317.414 129.96C317.942 129.608 318.574 129.432 319.31 129.432C319.598 129.432 319.89 129.472 320.186 129.552C320.482 129.632 320.762 129.744 321.026 129.888C321.298 130.032 321.53 130.208 321.722 130.416L321.29 131.352C320.994 131.064 320.674 130.848 320.33 130.704C319.994 130.56 319.646 130.488 319.286 130.488C318.91 130.488 318.578 130.556 318.29 130.692C318.01 130.828 317.77 131.032 317.57 131.304C317.378 131.576 317.23 131.912 317.126 132.312C317.03 132.712 316.982 133.18 316.982 133.716V134.736H316.85C316.906 134.304 317.038 133.932 317.246 133.62C317.462 133.3 317.738 133.056 318.074 132.888C318.41 132.72 318.782 132.636 319.19 132.636C319.686 132.636 320.122 132.752 320.498 132.984C320.882 133.208 321.182 133.524 321.398 133.932C321.614 134.34 321.722 134.804 321.722 135.324C321.722 135.86 321.606 136.34 321.374 136.764C321.142 137.188 320.818 137.52 320.402 137.76C319.994 137.992 319.522 138.108 318.986 138.108ZM318.914 137.1C319.242 137.1 319.53 137.028 319.778 136.884C320.026 136.74 320.218 136.54 320.354 136.284C320.49 136.02 320.558 135.716 320.558 135.372C320.558 135.028 320.49 134.728 320.354 134.472C320.218 134.216 320.026 134.016 319.778 133.872C319.53 133.72 319.242 133.644 318.914 133.644C318.586 133.644 318.298 133.72 318.05 133.872C317.81 134.016 317.618 134.216 317.474 134.472C317.338 134.728 317.27 135.028 317.27 135.372C317.27 135.716 317.338 136.02 317.474 136.284C317.618 136.54 317.814 136.74 318.062 136.884C318.31 137.028 318.594 137.1 318.914 137.1ZM326.85 137.388L326.226 136.764L328.41 134.58L326.226 132.396L326.85 131.772L329.034 133.944L331.218 131.772L331.842 132.396L329.658 134.58L331.842 136.764L331.218 137.388L329.034 135.204L326.85 137.388ZM340.149 138V136.284H336.345V135.36L340.365 129.54H341.385V135.24H342.621V136.284H341.385V138H340.149ZM340.149 135.24V131.028H340.473L337.353 135.576V135.24H340.149ZM349.561 138.108C348.961 138.108 348.441 137.984 348.001 137.736C347.569 137.48 347.233 137.124 346.993 136.668C346.753 136.204 346.633 135.66 346.633 135.036C346.633 134.42 346.753 133.888 346.993 133.44C347.233 132.992 347.569 132.648 348.001 132.408C348.441 132.16 348.961 132.036 349.561 132.036C349.929 132.036 350.293 132.1 350.653 132.228C351.013 132.348 351.309 132.524 351.541 132.756L351.157 133.608C350.941 133.4 350.697 133.248 350.425 133.152C350.153 133.048 349.897 132.996 349.657 132.996C349.089 132.996 348.649 133.176 348.337 133.536C348.033 133.888 347.881 134.392 347.881 135.048C347.881 135.704 348.033 136.22 348.337 136.596C348.649 136.964 349.089 137.148 349.657 137.148C349.897 137.148 350.153 137.1 350.425 137.004C350.697 136.9 350.941 136.744 351.157 136.536L351.541 137.4C351.309 137.616 351.009 137.788 350.641 137.916C350.281 138.044 349.921 138.108 349.561 138.108ZM352.606 138V132.144H353.782V133.392H353.65C353.754 133.104 353.898 132.86 354.082 132.66C354.266 132.46 354.486 132.308 354.742 132.204C355.006 132.092 355.294 132.036 355.606 132.036C356.094 132.036 356.49 132.152 356.794 132.384C357.098 132.616 357.306 132.972 357.418 133.452H357.25C357.402 133.012 357.662 132.668 358.03 132.42C358.398 132.164 358.826 132.036 359.314 132.036C359.762 132.036 360.13 132.124 360.418 132.3C360.706 132.468 360.922 132.728 361.066 133.08C361.21 133.424 361.282 133.86 361.282 134.388V138H360.07V134.448C360.07 133.952 359.982 133.588 359.806 133.356C359.638 133.124 359.358 133.008 358.966 133.008C358.678 133.008 358.426 133.076 358.21 133.212C357.994 133.348 357.826 133.548 357.706 133.812C357.594 134.068 357.538 134.372 357.538 134.724V138H356.326V134.448C356.326 133.952 356.242 133.588 356.074 133.356C355.906 133.124 355.626 133.008 355.234 133.008C354.938 133.008 354.682 133.076 354.466 133.212C354.258 133.348 354.098 133.548 353.986 133.812C353.874 134.068 353.818 134.372 353.818 134.724V138H352.606Z" fill="#444050"/>
<path d="M16 154H363" stroke="#EAEAEC" stroke-linecap="round"/>
<path d="M19.684 178L15.988 169.54H17.044L20.344 177.208H19.96L23.248 169.54H24.28L20.572 178H19.684ZM26.9063 178.108C26.3383 178.108 25.8463 177.984 25.4303 177.736C25.0143 177.488 24.6903 177.14 24.4583 176.692C24.2343 176.236 24.1223 175.7 24.1223 175.084C24.1223 174.468 24.2343 173.936 24.4583 173.488C24.6903 173.032 25.0143 172.68 25.4303 172.432C25.8463 172.184 26.3383 172.06 26.9063 172.06C27.4743 172.06 27.9663 172.184 28.3823 172.432C28.7983 172.68 29.1183 173.032 29.3423 173.488C29.5743 173.936 29.6903 174.468 29.6903 175.084C29.6903 175.7 29.5743 176.236 29.3423 176.692C29.1183 177.14 28.7983 177.488 28.3823 177.736C27.9663 177.984 27.4743 178.108 26.9063 178.108ZM26.9063 177.328C27.4583 177.328 27.8943 177.136 28.2143 176.752C28.5423 176.36 28.7063 175.8 28.7063 175.072C28.7063 174.352 28.5423 173.8 28.2143 173.416C27.8943 173.032 27.4583 172.84 26.9063 172.84C26.3623 172.84 25.9263 173.032 25.5983 173.416C25.2703 173.8 25.1063 174.352 25.1063 175.072C25.1063 175.8 25.2703 176.36 25.5983 176.752C25.9263 177.136 26.3623 177.328 26.9063 177.328ZM32.9383 178.108C32.3463 178.108 31.8983 177.932 31.5943 177.58C31.2983 177.228 31.1503 176.724 31.1503 176.068V169.54H32.1223V175.996C32.1223 176.276 32.1583 176.512 32.2303 176.704C32.3103 176.896 32.4263 177.04 32.5783 177.136C32.7303 177.232 32.9183 177.28 33.1423 177.28C33.2383 177.28 33.3303 177.276 33.4183 177.268C33.5143 177.252 33.6023 177.232 33.6823 177.208L33.6583 178.024C33.5303 178.048 33.4063 178.068 33.2863 178.084C33.1743 178.1 33.0583 178.108 32.9383 178.108ZM36.7651 178.108C36.2931 178.108 35.9011 178.024 35.5891 177.856C35.2851 177.68 35.0531 177.42 34.8931 177.076C34.7411 176.732 34.6651 176.304 34.6651 175.792V172.168H35.6371V175.78C35.6371 176.124 35.6811 176.412 35.7691 176.644C35.8651 176.868 36.0131 177.036 36.2131 177.148C36.4131 177.252 36.6611 177.304 36.9571 177.304C37.2931 177.304 37.5851 177.228 37.8331 177.076C38.0811 176.924 38.2771 176.712 38.4211 176.44C38.5651 176.168 38.6371 175.848 38.6371 175.48V172.168H39.6091V178H38.6611V176.656H38.8171C38.6571 177.128 38.3931 177.488 38.0251 177.736C37.6651 177.984 37.2451 178.108 36.7651 178.108ZM41.4516 178V172.168H42.3996V173.464H42.2676C42.3636 173.168 42.5036 172.916 42.6876 172.708C42.8796 172.492 43.1036 172.332 43.3596 172.228C43.6236 172.116 43.9116 172.06 44.2236 172.06C44.7196 172.06 45.1196 172.18 45.4236 172.42C45.7356 172.652 45.9436 173.016 46.0476 173.512H45.8676C46.0116 173.064 46.2676 172.712 46.6356 172.456C47.0116 172.192 47.4476 172.06 47.9436 172.06C48.3836 172.06 48.7436 172.144 49.0236 172.312C49.3116 172.48 49.5276 172.736 49.6716 173.08C49.8156 173.416 49.8876 173.844 49.8876 174.364V178H48.9156V174.412C48.9156 173.876 48.8236 173.484 48.6396 173.236C48.4556 172.98 48.1436 172.852 47.7036 172.852C47.3916 172.852 47.1156 172.928 46.8756 173.08C46.6436 173.232 46.4636 173.448 46.3356 173.728C46.2156 174 46.1556 174.324 46.1556 174.7V178H45.1836V174.412C45.1836 173.876 45.0876 173.484 44.8956 173.236C44.7116 172.98 44.4036 172.852 43.9716 172.852C43.6516 172.852 43.3756 172.928 43.1436 173.08C42.9116 173.232 42.7316 173.448 42.6036 173.728C42.4836 174 42.4236 174.324 42.4236 174.7V178H41.4516ZM54.333 178.108C53.717 178.108 53.185 177.988 52.737 177.748C52.297 177.5 51.953 177.152 51.705 176.704C51.465 176.256 51.345 175.72 51.345 175.096C51.345 174.488 51.465 173.96 51.705 173.512C51.945 173.056 52.273 172.7 52.689 172.444C53.113 172.188 53.601 172.06 54.153 172.06C54.681 172.06 55.133 172.176 55.509 172.408C55.885 172.64 56.173 172.968 56.373 173.392C56.581 173.816 56.685 174.324 56.685 174.916V175.288H52.089V174.652H56.037L55.845 174.808C55.845 174.168 55.701 173.672 55.413 173.32C55.133 172.96 54.721 172.78 54.177 172.78C53.769 172.78 53.421 172.876 53.133 173.068C52.853 173.252 52.641 173.512 52.497 173.848C52.353 174.176 52.281 174.56 52.281 175V175.072C52.281 175.56 52.357 175.972 52.509 176.308C52.669 176.644 52.905 176.9 53.217 177.076C53.529 177.244 53.901 177.328 54.333 177.328C54.677 177.328 55.009 177.276 55.329 177.172C55.657 177.06 55.965 176.88 56.253 176.632L56.589 177.316C56.325 177.556 55.989 177.748 55.581 177.892C55.173 178.036 54.757 178.108 54.333 178.108ZM60.4317 178.108C59.7437 178.108 59.2277 177.924 58.8837 177.556C58.5397 177.188 58.3677 176.664 58.3677 175.984V172.924H57.2277V172.168H58.3677V170.38H59.3397V172.168H61.1877V172.924H59.3397V175.888C59.3397 176.344 59.4357 176.692 59.6277 176.932C59.8197 177.164 60.1317 177.28 60.5637 177.28C60.6917 177.28 60.8197 177.264 60.9477 177.232C61.0757 177.2 61.1917 177.168 61.2957 177.136L61.4637 177.88C61.3597 177.936 61.2077 177.988 61.0077 178.036C60.8077 178.084 60.6157 178.108 60.4317 178.108ZM62.287 178V172.168H63.235V173.548H63.115C63.251 173.076 63.487 172.72 63.823 172.48C64.159 172.232 64.603 172.088 65.155 172.048L65.503 172.012L65.575 172.852L64.963 172.924C64.419 172.972 63.999 173.148 63.703 173.452C63.415 173.748 63.271 174.156 63.271 174.676V178H62.287ZM66.4678 170.716V169.624H67.6678V170.716H66.4678ZM66.5878 178V172.168H67.5598V178H66.5878ZM71.8488 178.108C71.2648 178.108 70.7608 177.98 70.3368 177.724C69.9128 177.468 69.5848 177.112 69.3528 176.656C69.1288 176.192 69.0168 175.656 69.0168 175.048C69.0168 174.432 69.1288 173.9 69.3528 173.452C69.5848 173.004 69.9128 172.66 70.3368 172.42C70.7608 172.18 71.2648 172.06 71.8488 172.06C72.2088 172.06 72.5648 172.124 72.9168 172.252C73.2688 172.38 73.5608 172.56 73.7928 172.792L73.4568 173.5C73.2248 173.276 72.9688 173.112 72.6888 173.008C72.4168 172.904 72.1568 172.852 71.9088 172.852C71.3008 172.852 70.8328 173.044 70.5048 173.428C70.1768 173.804 70.0128 174.348 70.0128 175.06C70.0128 175.756 70.1768 176.308 70.5048 176.716C70.8328 177.116 71.3008 177.316 71.9088 177.316C72.1568 177.316 72.4168 177.264 72.6888 177.16C72.9688 177.056 73.2248 176.888 73.4568 176.656L73.7928 177.364C73.5608 177.596 73.2648 177.78 72.9048 177.916C72.5528 178.044 72.2008 178.108 71.8488 178.108ZM74.799 173.392V172.168H76.023V173.392H74.799ZM74.799 178V176.776H76.023V178H74.799Z" fill="#737682"/>
<path d="M325.6 178.108C324.944 178.108 324.392 177.94 323.944 177.604C323.496 177.268 323.156 176.78 322.924 176.14C322.692 175.492 322.576 174.7 322.576 173.764C322.576 172.812 322.692 172.016 322.924 171.376C323.156 170.736 323.496 170.252 323.944 169.924C324.392 169.596 324.944 169.432 325.6 169.432C326.264 169.432 326.82 169.596 327.268 169.924C327.716 170.244 328.052 170.724 328.276 171.364C328.508 172.004 328.624 172.8 328.624 173.752C328.624 174.688 328.508 175.48 328.276 176.128C328.044 176.776 327.704 177.268 327.256 177.604C326.808 177.94 326.256 178.108 325.6 178.108ZM325.6 177.076C326.216 177.076 326.668 176.808 326.956 176.272C327.252 175.736 327.4 174.896 327.4 173.752C327.4 172.608 327.252 171.776 326.956 171.256C326.668 170.728 326.216 170.464 325.6 170.464C324.992 170.464 324.54 170.728 324.244 171.256C323.948 171.776 323.8 172.608 323.8 173.752C323.8 174.896 323.948 175.736 324.244 176.272C324.54 176.808 324.992 177.076 325.6 177.076ZM329.903 178V176.572H331.331V178H329.903ZM333.063 178V177.076L335.883 174.052C336.147 173.764 336.359 173.5 336.519 173.26C336.679 173.012 336.795 172.776 336.867 172.552C336.947 172.32 336.987 172.088 336.987 171.856C336.987 171.408 336.851 171.068 336.579 170.836C336.307 170.604 335.907 170.488 335.379 170.488C334.971 170.488 334.583 170.564 334.215 170.716C333.855 170.868 333.511 171.1 333.183 171.412L332.739 170.464C333.059 170.152 333.467 169.904 333.963 169.72C334.459 169.528 334.975 169.432 335.511 169.432C336.095 169.432 336.587 169.524 336.987 169.708C337.395 169.884 337.703 170.144 337.911 170.488C338.119 170.832 338.223 171.252 338.223 171.748C338.223 172.004 338.191 172.256 338.127 172.504C338.071 172.744 337.979 172.984 337.851 173.224C337.731 173.464 337.575 173.712 337.383 173.968C337.199 174.224 336.975 174.488 336.711 174.76L334.299 177.304V176.956H338.559V178H333.063ZM342.838 178.108C341.87 178.108 341.114 177.9 340.57 177.484C340.034 177.068 339.766 176.488 339.766 175.744C339.766 175.344 339.846 174.992 340.006 174.688C340.166 174.376 340.39 174.124 340.678 173.932C340.966 173.74 341.298 173.62 341.674 173.572V173.788C341.33 173.716 341.03 173.584 340.774 173.392C340.518 173.192 340.318 172.948 340.174 172.66C340.038 172.364 339.97 172.04 339.97 171.688C339.97 170.984 340.23 170.432 340.75 170.032C341.27 169.632 341.966 169.432 342.838 169.432C343.718 169.432 344.418 169.632 344.938 170.032C345.458 170.432 345.718 170.984 345.718 171.688C345.718 172.04 345.646 172.364 345.502 172.66C345.366 172.948 345.17 173.192 344.914 173.392C344.658 173.584 344.358 173.712 344.014 173.776V173.572C344.398 173.62 344.73 173.744 345.01 173.944C345.29 174.136 345.51 174.384 345.67 174.688C345.83 174.992 345.91 175.344 345.91 175.744C345.91 176.488 345.638 177.068 345.094 177.484C344.558 177.9 343.806 178.108 342.838 178.108ZM342.838 177.124C343.47 177.124 343.946 177.004 344.266 176.764C344.586 176.516 344.746 176.148 344.746 175.66C344.746 175.172 344.586 174.808 344.266 174.568C343.946 174.328 343.47 174.208 342.838 174.208C342.214 174.208 341.738 174.328 341.41 174.568C341.09 174.808 340.93 175.172 340.93 175.66C340.93 176.148 341.09 176.516 341.41 176.764C341.738 177.004 342.214 177.124 342.838 177.124ZM342.838 173.224C343.374 173.224 343.79 173.1 344.086 172.852C344.39 172.596 344.542 172.248 344.542 171.808C344.542 171.376 344.39 171.036 344.086 170.788C343.79 170.54 343.374 170.416 342.838 170.416C342.302 170.416 341.886 170.54 341.59 170.788C341.294 171.036 341.146 171.376 341.146 171.808C341.146 172.248 341.294 172.596 341.59 172.852C341.886 173.1 342.302 173.224 342.838 173.224ZM350.438 178V169.54H351.65V174.7H351.674L354.218 172.144H355.718L352.634 175.24V174.676L355.934 178H354.422L351.674 175.324H351.65V178H350.438ZM359.149 180.268C358.621 180.268 358.129 180.204 357.673 180.076C357.217 179.948 356.813 179.756 356.461 179.5L356.833 178.636C357.065 178.788 357.301 178.916 357.541 179.02C357.789 179.132 358.037 179.212 358.285 179.26C358.541 179.308 358.801 179.332 359.065 179.332C359.625 179.332 360.045 179.188 360.325 178.9C360.605 178.62 360.745 178.204 360.745 177.652V176.428H360.853C360.733 176.868 360.481 177.216 360.097 177.472C359.713 177.728 359.269 177.856 358.765 177.856C358.237 177.856 357.777 177.736 357.385 177.496C356.993 177.248 356.689 176.908 356.473 176.476C356.257 176.036 356.149 175.524 356.149 174.94C356.149 174.356 356.257 173.848 356.473 173.416C356.689 172.984 356.993 172.648 357.385 172.408C357.777 172.16 358.237 172.036 358.765 172.036C359.277 172.036 359.721 172.164 360.097 172.42C360.481 172.676 360.729 173.024 360.841 173.464H360.745V172.144H361.921V177.508C361.921 178.116 361.817 178.624 361.609 179.032C361.401 179.448 361.089 179.756 360.673 179.956C360.265 180.164 359.757 180.268 359.149 180.268ZM359.053 176.908C359.573 176.908 359.981 176.732 360.277 176.38C360.581 176.028 360.733 175.548 360.733 174.94C360.733 174.34 360.581 173.864 360.277 173.512C359.981 173.16 359.573 172.984 359.053 172.984C358.541 172.984 358.133 173.16 357.829 173.512C357.525 173.864 357.373 174.34 357.373 174.94C357.373 175.548 357.525 176.028 357.829 176.38C358.133 176.732 358.541 176.908 359.053 176.908Z" fill="#444050"/>
<path d="M16 194H363" stroke="#EAEAEC" stroke-linecap="round"/>
<path d="M17.044 218V209.54H20.428C21.292 209.54 21.964 209.732 22.444 210.116C22.924 210.5 23.164 211.044 23.164 211.748C23.164 212.276 23.008 212.716 22.696 213.068C22.392 213.42 21.976 213.652 21.448 213.764V213.596C21.848 213.644 22.192 213.76 22.48 213.944C22.768 214.12 22.988 214.356 23.14 214.652C23.292 214.94 23.368 215.28 23.368 215.672C23.368 216.176 23.256 216.604 23.032 216.956C22.816 217.3 22.5 217.56 22.084 217.736C21.668 217.912 21.164 218 20.572 218H17.044ZM18.004 217.208H20.476C20.732 217.208 20.96 217.188 21.16 217.148C21.368 217.108 21.548 217.048 21.7 216.968C21.852 216.88 21.98 216.776 22.084 216.656C22.188 216.536 22.264 216.392 22.312 216.224C22.368 216.056 22.396 215.868 22.396 215.66C22.396 215.444 22.368 215.256 22.312 215.096C22.264 214.928 22.188 214.784 22.084 214.664C21.98 214.536 21.852 214.432 21.7 214.352C21.548 214.272 21.368 214.212 21.16 214.172C20.96 214.132 20.732 214.112 20.476 214.112H18.004V217.208ZM18.004 213.32H20.284C20.908 213.32 21.38 213.192 21.7 212.936C22.028 212.68 22.192 212.312 22.192 211.832C22.192 211.336 22.028 210.964 21.7 210.716C21.38 210.46 20.908 210.332 20.284 210.332H18.004V213.32ZM24.9014 210.716V209.624H26.1014V210.716H24.9014ZM25.0214 218V212.168H25.9934V218H25.0214ZM29.5984 218.108C29.0064 218.108 28.5584 217.932 28.2544 217.58C27.9584 217.228 27.8104 216.724 27.8104 216.068V209.54H28.7824V215.996C28.7824 216.276 28.8184 216.512 28.8904 216.704C28.9704 216.896 29.0864 217.04 29.2384 217.136C29.3904 217.232 29.5784 217.28 29.8024 217.28C29.8984 217.28 29.9904 217.276 30.0784 217.268C30.1744 217.252 30.2624 217.232 30.3424 217.208L30.3184 218.024C30.1904 218.048 30.0664 218.068 29.9464 218.084C29.8344 218.1 29.7184 218.108 29.5984 218.108ZM33.1492 218.108C32.5572 218.108 32.1092 217.932 31.8052 217.58C31.5092 217.228 31.3612 216.724 31.3612 216.068V209.54H32.3332V215.996C32.3332 216.276 32.3692 216.512 32.4412 216.704C32.5212 216.896 32.6372 217.04 32.7892 217.136C32.9412 217.232 33.1292 217.28 33.3532 217.28C33.4492 217.28 33.5412 217.276 33.6292 217.268C33.7252 217.252 33.8132 217.232 33.8932 217.208L33.8692 218.024C33.7412 218.048 33.6172 218.068 33.4972 218.084C33.3852 218.1 33.2692 218.108 33.1492 218.108ZM36.748 218.108C36.348 218.108 35.988 218.032 35.668 217.88C35.356 217.72 35.108 217.504 34.924 217.232C34.74 216.96 34.648 216.656 34.648 216.32C34.648 215.888 34.756 215.548 34.972 215.3C35.196 215.052 35.56 214.876 36.064 214.772C36.576 214.668 37.272 214.616 38.152 214.616H38.692V215.252H38.164C37.676 215.252 37.268 215.268 36.94 215.3C36.612 215.332 36.352 215.388 36.16 215.468C35.968 215.548 35.832 215.652 35.752 215.78C35.672 215.908 35.632 216.068 35.632 216.26C35.632 216.588 35.744 216.856 35.968 217.064C36.2 217.272 36.512 217.376 36.904 217.376C37.224 217.376 37.504 217.3 37.744 217.148C37.992 216.996 38.184 216.788 38.32 216.524C38.464 216.26 38.536 215.956 38.536 215.612V214.244C38.536 213.748 38.436 213.392 38.236 213.176C38.036 212.952 37.708 212.84 37.252 212.84C36.9 212.84 36.56 212.892 36.232 212.996C35.904 213.092 35.568 213.252 35.224 213.476L34.888 212.768C35.096 212.624 35.332 212.5 35.596 212.396C35.86 212.284 36.136 212.2 36.424 212.144C36.712 212.088 36.988 212.06 37.252 212.06C37.756 212.06 38.172 212.144 38.5 212.312C38.828 212.472 39.072 212.72 39.232 213.056C39.392 213.384 39.472 213.808 39.472 214.328V218H38.56V216.644H38.668C38.604 216.948 38.48 217.208 38.296 217.424C38.12 217.64 37.9 217.808 37.636 217.928C37.372 218.048 37.076 218.108 36.748 218.108ZM44.2273 218.108C43.6993 218.108 43.2433 217.972 42.8593 217.7C42.4833 217.428 42.2313 217.064 42.1033 216.608H42.2233V218H41.2753V209.54H42.2473V213.524H42.1033C42.2393 213.076 42.4953 212.72 42.8713 212.456C43.2473 212.192 43.6993 212.06 44.2273 212.06C44.7553 212.06 45.2113 212.184 45.5953 212.432C45.9793 212.672 46.2753 213.02 46.4833 213.476C46.6993 213.924 46.8073 214.46 46.8073 215.084C46.8073 215.7 46.6993 216.236 46.4833 216.692C46.2753 217.14 45.9753 217.488 45.5833 217.736C45.1993 217.984 44.7473 218.108 44.2273 218.108ZM44.0233 217.328C44.5753 217.328 45.0113 217.136 45.3313 216.752C45.6593 216.36 45.8233 215.804 45.8233 215.084C45.8233 214.356 45.6593 213.8 45.3313 213.416C45.0113 213.032 44.5753 212.84 44.0233 212.84C43.4793 212.84 43.0433 213.032 42.7153 213.416C42.3873 213.8 42.2233 214.356 42.2233 215.084C42.2233 215.804 42.3873 216.36 42.7153 216.752C43.0433 217.136 43.4793 217.328 44.0233 217.328ZM50.0594 218.108C49.4674 218.108 49.0194 217.932 48.7154 217.58C48.4194 217.228 48.2714 216.724 48.2714 216.068V209.54H49.2434V215.996C49.2434 216.276 49.2794 216.512 49.3514 216.704C49.4314 216.896 49.5474 217.04 49.6994 217.136C49.8514 217.232 50.0394 217.28 50.2634 217.28C50.3594 217.28 50.4514 217.276 50.5394 217.268C50.6354 217.252 50.7234 217.232 50.8034 217.208L50.7794 218.024C50.6514 218.048 50.5274 218.068 50.4074 218.084C50.2954 218.1 50.1794 218.108 50.0594 218.108ZM54.3916 218.108C53.7756 218.108 53.2436 217.988 52.7956 217.748C52.3556 217.5 52.0116 217.152 51.7636 216.704C51.5236 216.256 51.4036 215.72 51.4036 215.096C51.4036 214.488 51.5236 213.96 51.7636 213.512C52.0036 213.056 52.3316 212.7 52.7476 212.444C53.1716 212.188 53.6596 212.06 54.2116 212.06C54.7396 212.06 55.1916 212.176 55.5676 212.408C55.9436 212.64 56.2316 212.968 56.4316 213.392C56.6396 213.816 56.7436 214.324 56.7436 214.916V215.288H52.1476V214.652H56.0956L55.9036 214.808C55.9036 214.168 55.7596 213.672 55.4716 213.32C55.1916 212.96 54.7796 212.78 54.2356 212.78C53.8276 212.78 53.4796 212.876 53.1916 213.068C52.9116 213.252 52.6996 213.512 52.5556 213.848C52.4116 214.176 52.3396 214.56 52.3396 215V215.072C52.3396 215.56 52.4156 215.972 52.5676 216.308C52.7276 216.644 52.9636 216.9 53.2756 217.076C53.5876 217.244 53.9596 217.328 54.3916 217.328C54.7356 217.328 55.0676 217.276 55.3876 217.172C55.7156 217.06 56.0236 216.88 56.3116 216.632L56.6476 217.316C56.3836 217.556 56.0476 217.748 55.6396 217.892C55.2316 218.036 54.8156 218.108 54.3916 218.108ZM62.7803 218L60.6083 212.168H61.6283L63.4163 217.28H63.1283L64.9763 212.168H65.8043L67.6163 217.28H67.3403L69.1523 212.168H70.1243L67.9403 218H67.0163L65.1083 212.756H65.6243L63.7163 218H62.7803ZM73.8681 218.108C73.2521 218.108 72.7201 217.988 72.2721 217.748C71.8321 217.5 71.4881 217.152 71.2401 216.704C71.0001 216.256 70.8801 215.72 70.8801 215.096C70.8801 214.488 71.0001 213.96 71.2401 213.512C71.4801 213.056 71.8081 212.7 72.2241 212.444C72.6481 212.188 73.1361 212.06 73.6881 212.06C74.2161 212.06 74.6681 212.176 75.0441 212.408C75.4201 212.64 75.7081 212.968 75.9081 213.392C76.1161 213.816 76.2201 214.324 76.2201 214.916V215.288H71.6241V214.652H75.5721L75.3801 214.808C75.3801 214.168 75.2361 213.672 74.9481 213.32C74.6681 212.96 74.2561 212.78 73.7121 212.78C73.3041 212.78 72.9561 212.876 72.6681 213.068C72.3881 213.252 72.1761 213.512 72.0321 213.848C71.8881 214.176 71.8161 214.56 71.8161 215V215.072C71.8161 215.56 71.8921 215.972 72.0441 216.308C72.2041 216.644 72.4401 216.9 72.7521 217.076C73.0641 217.244 73.4361 217.328 73.8681 217.328C74.2121 217.328 74.5441 217.276 74.8641 217.172C75.1921 217.06 75.5001 216.88 75.7881 216.632L76.1241 217.316C75.8601 217.556 75.5241 217.748 75.1161 217.892C74.7081 218.036 74.2921 218.108 73.8681 218.108ZM77.5068 210.716V209.624H78.7068V210.716H77.5068ZM77.6268 218V212.168H78.5988V218H77.6268ZM82.9959 220.268C82.4919 220.268 82.0159 220.2 81.5679 220.064C81.1279 219.936 80.7359 219.74 80.3919 219.476L80.7159 218.768C80.9559 218.936 81.1919 219.072 81.4239 219.176C81.6639 219.288 81.9079 219.368 82.1559 219.416C82.4119 219.464 82.6759 219.488 82.9479 219.488C83.5159 219.488 83.9439 219.336 84.2319 219.032C84.5279 218.728 84.6759 218.288 84.6759 217.712V216.356H84.7959C84.6759 216.82 84.4199 217.188 84.0279 217.46C83.6439 217.732 83.1919 217.868 82.6719 217.868C82.1359 217.868 81.6719 217.748 81.2799 217.508C80.8879 217.26 80.5839 216.916 80.3679 216.476C80.1599 216.036 80.0559 215.528 80.0559 214.952C80.0559 214.376 80.1599 213.872 80.3679 213.44C80.5839 213 80.8879 212.66 81.2799 212.42C81.6719 212.18 82.1359 212.06 82.6719 212.06C83.1999 212.06 83.6559 212.196 84.0399 212.468C84.4239 212.732 84.6719 213.092 84.7839 213.548H84.6759V212.168H85.6239V217.58C85.6239 218.172 85.5239 218.668 85.3239 219.068C85.1319 219.468 84.8399 219.768 84.4479 219.968C84.0559 220.168 83.5719 220.268 82.9959 220.268ZM82.8519 217.076C83.4119 217.076 83.8559 216.884 84.1839 216.5C84.5119 216.116 84.6759 215.6 84.6759 214.952C84.6759 214.304 84.5119 213.792 84.1839 213.416C83.8559 213.032 83.4119 212.84 82.8519 212.84C82.2999 212.84 81.8599 213.032 81.5319 213.416C81.2039 213.792 81.0399 214.304 81.0399 214.952C81.0399 215.6 81.2039 216.116 81.5319 216.5C81.8599 216.884 82.2999 217.076 82.8519 217.076ZM87.4472 218V209.54H88.4192V213.464H88.2632C88.4312 213 88.7032 212.652 89.0792 212.42C89.4632 212.18 89.9032 212.06 90.3992 212.06C90.8632 212.06 91.2472 212.144 91.5512 212.312C91.8632 212.48 92.0952 212.736 92.2472 213.08C92.3992 213.416 92.4752 213.844 92.4752 214.364V218H91.5032V214.424C91.5032 214.064 91.4552 213.768 91.3592 213.536C91.2712 213.304 91.1272 213.132 90.9272 213.02C90.7352 212.908 90.4832 212.852 90.1712 212.852C89.8192 212.852 89.5112 212.928 89.2472 213.08C88.9832 213.232 88.7792 213.444 88.6352 213.716C88.4912 213.988 88.4192 214.308 88.4192 214.676V218H87.4472ZM96.6075 218.108C95.9195 218.108 95.4035 217.924 95.0595 217.556C94.7155 217.188 94.5435 216.664 94.5435 215.984V212.924H93.4035V212.168H94.5435V210.38H95.5155V212.168H97.3635V212.924H95.5155V215.888C95.5155 216.344 95.6115 216.692 95.8035 216.932C95.9955 217.164 96.3075 217.28 96.7395 217.28C96.8675 217.28 96.9955 217.264 97.1235 217.232C97.2515 217.2 97.3675 217.168 97.4715 217.136L97.6395 217.88C97.5355 217.936 97.3835 217.988 97.1835 218.036C96.9835 218.084 96.7915 218.108 96.6075 218.108ZM98.3068 213.392V212.168H99.5308V213.392H98.3068ZM98.3068 218V216.776H99.5308V218H98.3068Z" fill="#737682"/>
<path d="M325.6 218.108C324.944 218.108 324.392 217.94 323.944 217.604C323.496 217.268 323.156 216.78 322.924 216.14C322.692 215.492 322.576 214.7 322.576 213.764C322.576 212.812 322.692 212.016 322.924 211.376C323.156 210.736 323.496 210.252 323.944 209.924C324.392 209.596 324.944 209.432 325.6 209.432C326.264 209.432 326.82 209.596 327.268 209.924C327.716 210.244 328.052 210.724 328.276 211.364C328.508 212.004 328.624 212.8 328.624 213.752C328.624 214.688 328.508 215.48 328.276 216.128C328.044 216.776 327.704 217.268 327.256 217.604C326.808 217.94 326.256 218.108 325.6 218.108ZM325.6 217.076C326.216 217.076 326.668 216.808 326.956 216.272C327.252 215.736 327.4 214.896 327.4 213.752C327.4 212.608 327.252 211.776 326.956 211.256C326.668 210.728 326.216 210.464 325.6 210.464C324.992 210.464 324.54 210.728 324.244 211.256C323.948 211.776 323.8 212.608 323.8 213.752C323.8 214.896 323.948 215.736 324.244 216.272C324.54 216.808 324.992 217.076 325.6 217.076ZM329.903 218V216.572H331.331V218H329.903ZM335.775 218.108C335.407 218.108 335.047 218.068 334.695 217.988C334.351 217.908 334.027 217.796 333.723 217.652C333.419 217.508 333.155 217.332 332.931 217.124L333.351 216.164C333.735 216.468 334.123 216.692 334.515 216.836C334.907 216.98 335.319 217.052 335.751 217.052C336.303 217.052 336.735 216.904 337.047 216.608C337.359 216.312 337.515 215.916 337.515 215.42C337.515 214.916 337.367 214.504 337.071 214.184C336.775 213.864 336.363 213.704 335.835 213.704C335.459 213.704 335.123 213.78 334.827 213.932C334.539 214.084 334.279 214.316 334.047 214.628H333.183V209.54H338.223V210.584H334.395V213.632H334.059C334.275 213.328 334.559 213.092 334.911 212.924C335.271 212.756 335.667 212.672 336.099 212.672C336.635 212.672 337.099 212.784 337.491 213.008C337.883 213.232 338.187 213.548 338.403 213.956C338.619 214.356 338.727 214.824 338.727 215.36C338.727 215.904 338.607 216.384 338.367 216.8C338.127 217.208 337.787 217.528 337.347 217.76C336.907 217.992 336.383 218.108 335.775 218.108ZM342.838 218.108C342.182 218.108 341.63 217.94 341.182 217.604C340.734 217.268 340.394 216.78 340.162 216.14C339.93 215.492 339.814 214.7 339.814 213.764C339.814 212.812 339.93 212.016 340.162 211.376C340.394 210.736 340.734 210.252 341.182 209.924C341.63 209.596 342.182 209.432 342.838 209.432C343.502 209.432 344.058 209.596 344.506 209.924C344.954 210.244 345.29 210.724 345.514 211.364C345.746 212.004 345.862 212.8 345.862 213.752C345.862 214.688 345.746 215.48 345.514 216.128C345.282 216.776 344.942 217.268 344.494 217.604C344.046 217.94 343.494 218.108 342.838 218.108ZM342.838 217.076C343.454 217.076 343.906 216.808 344.194 216.272C344.49 215.736 344.638 214.896 344.638 213.752C344.638 212.608 344.49 211.776 344.194 211.256C343.906 210.728 343.454 210.464 342.838 210.464C342.23 210.464 341.778 210.728 341.482 211.256C341.186 211.776 341.038 212.608 341.038 213.752C341.038 214.896 341.186 215.736 341.482 216.272C341.778 216.808 342.23 217.076 342.838 217.076ZM350.438 218V209.54H351.65V214.7H351.674L354.218 212.144H355.718L352.634 215.24V214.676L355.934 218H354.422L351.674 215.324H351.65V218H350.438ZM359.149 220.268C358.621 220.268 358.129 220.204 357.673 220.076C357.217 219.948 356.813 219.756 356.461 219.5L356.833 218.636C357.065 218.788 357.301 218.916 357.541 219.02C357.789 219.132 358.037 219.212 358.285 219.26C358.541 219.308 358.801 219.332 359.065 219.332C359.625 219.332 360.045 219.188 360.325 218.9C360.605 218.62 360.745 218.204 360.745 217.652V216.428H360.853C360.733 216.868 360.481 217.216 360.097 217.472C359.713 217.728 359.269 217.856 358.765 217.856C358.237 217.856 357.777 217.736 357.385 217.496C356.993 217.248 356.689 216.908 356.473 216.476C356.257 216.036 356.149 215.524 356.149 214.94C356.149 214.356 356.257 213.848 356.473 213.416C356.689 212.984 356.993 212.648 357.385 212.408C357.777 212.16 358.237 212.036 358.765 212.036C359.277 212.036 359.721 212.164 360.097 212.42C360.481 212.676 360.729 213.024 360.841 213.464H360.745V212.144H361.921V217.508C361.921 218.116 361.817 218.624 361.609 219.032C361.401 219.448 361.089 219.756 360.673 219.956C360.265 220.164 359.757 220.268 359.149 220.268ZM359.053 216.908C359.573 216.908 359.981 216.732 360.277 216.38C360.581 216.028 360.733 215.548 360.733 214.94C360.733 214.34 360.581 213.864 360.277 213.512C359.981 213.16 359.573 212.984 359.053 212.984C358.541 212.984 358.133 213.16 357.829 213.512C357.525 213.864 357.373 214.34 357.373 214.94C357.373 215.548 357.525 216.028 357.829 216.38C358.133 216.732 358.541 216.908 359.053 216.908Z" fill="#444050"/>
</svg>
