<svg width="462" height="299" viewBox="0 0 462 299" fill="none" xmlns="http://www.w3.org/2000/svg">
<rect width="462" height="299" rx="12" fill="white"/>
<path d="M20.336 31.5L16.352 20.22H18.464L21.584 29.468H20.944L24.208 20.22H25.728L28.88 29.468H28.32L31.488 20.22H33.488L29.472 31.5H27.776L24.736 22.828H25.104L22.032 31.5H20.336ZM37.7085 31.66C36.8232 31.66 36.0605 31.4947 35.4205 31.164C34.7805 30.8333 34.2845 30.364 33.9325 29.756C33.5912 29.148 33.4205 28.428 33.4205 27.596C33.4205 26.7853 33.5858 26.076 33.9165 25.468C34.2578 24.86 34.7218 24.3853 35.3085 24.044C35.9058 23.692 36.5832 23.516 37.3405 23.516C38.0872 23.516 38.7272 23.676 39.2605 23.996C39.7938 24.316 40.2045 24.7693 40.4925 25.356C40.7912 25.9427 40.9405 26.6413 40.9405 27.452V28.044H35.0365V26.892H39.5325L39.2765 27.132C39.2765 26.4067 39.1165 25.852 38.7965 25.468C38.4765 25.0733 38.0178 24.876 37.4205 24.876C36.9725 24.876 36.5885 24.9827 36.2685 25.196C35.9592 25.3987 35.7192 25.692 35.5485 26.076C35.3885 26.4493 35.3085 26.8973 35.3085 27.42V27.532C35.3085 28.1187 35.3992 28.604 35.5805 28.988C35.7618 29.372 36.0338 29.66 36.3965 29.852C36.7592 30.044 37.2072 30.14 37.7405 30.14C38.1778 30.14 38.6152 30.076 39.0525 29.948C39.4898 29.8093 39.8898 29.596 40.2525 29.308L40.8125 30.652C40.4392 30.9613 39.9698 31.2067 39.4045 31.388C38.8392 31.5693 38.2738 31.66 37.7085 31.66ZM42.3964 21.996V20.044H44.6364V21.996H42.3964ZM42.5244 31.5V23.676H44.5244V31.5H42.5244ZM50.2505 34.54C49.5252 34.54 48.8425 34.4547 48.2025 34.284C47.5732 34.124 47.0185 33.8733 46.5385 33.532L47.1145 32.14C47.4132 32.332 47.7278 32.492 48.0585 32.62C48.3892 32.7587 48.7252 32.86 49.0665 32.924C49.4078 32.988 49.7492 33.02 50.0905 33.02C50.8052 33.02 51.3385 32.844 51.6905 32.492C52.0532 32.1507 52.2345 31.6387 52.2345 30.956V29.516H52.3785C52.2185 30.06 51.8825 30.4973 51.3705 30.828C50.8692 31.148 50.2985 31.308 49.6585 31.308C48.9545 31.308 48.3412 31.148 47.8185 30.828C47.2958 30.4973 46.8905 30.0387 46.6025 29.452C46.3145 28.8653 46.1705 28.1827 46.1705 27.404C46.1705 26.6253 46.3145 25.948 46.6025 25.372C46.8905 24.7853 47.2958 24.332 47.8185 24.012C48.3412 23.6813 48.9545 23.516 49.6585 23.516C50.3198 23.516 50.8958 23.6813 51.3865 24.012C51.8878 24.332 52.2132 24.7587 52.3625 25.292H52.2345V23.676H54.1865V30.716C54.1865 31.5587 54.0372 32.2627 53.7385 32.828C53.4398 33.404 52.9972 33.8307 52.4105 34.108C51.8238 34.396 51.1038 34.54 50.2505 34.54ZM50.2025 29.788C50.8212 29.788 51.3118 29.5747 51.6745 29.148C52.0372 28.7213 52.2185 28.14 52.2185 27.404C52.2185 26.668 52.0372 26.092 51.6745 25.676C51.3118 25.2493 50.8212 25.036 50.2025 25.036C49.5838 25.036 49.0932 25.2493 48.7305 25.676C48.3678 26.092 48.1865 26.668 48.1865 27.404C48.1865 28.14 48.3678 28.7213 48.7305 29.148C49.0932 29.5747 49.5838 29.788 50.2025 29.788ZM56.2588 31.5V20.22H58.2588V25.244H58.0348C58.2694 24.6787 58.6321 24.252 59.1228 23.964C59.6241 23.6653 60.1894 23.516 60.8188 23.516C61.4481 23.516 61.9654 23.6333 62.3708 23.868C62.7761 24.1027 63.0801 24.46 63.2828 24.94C63.4854 25.4093 63.5868 26.0067 63.5868 26.732V31.5H61.5868V26.828C61.5868 26.4227 61.5334 26.092 61.4268 25.836C61.3308 25.58 61.1761 25.3933 60.9628 25.276C60.7601 25.148 60.4988 25.084 60.1788 25.084C59.7948 25.084 59.4588 25.1693 59.1708 25.34C58.8828 25.5 58.6588 25.7347 58.4988 26.044C58.3388 26.3427 58.2588 26.6947 58.2588 27.1V31.5H56.2588ZM69.2021 31.66C68.1568 31.66 67.3781 31.3987 66.8661 30.876C66.3541 30.3533 66.0981 29.5907 66.0981 28.588V25.18H64.5941V23.676H66.0981V21.34H68.0981V23.676H70.4661V25.18H68.0981V28.476C68.0981 28.988 68.2101 29.372 68.4341 29.628C68.6581 29.884 69.0208 30.012 69.5221 30.012C69.6715 30.012 69.8261 29.996 69.9861 29.964C70.1461 29.9213 70.3115 29.8787 70.4821 29.836L70.7861 31.308C70.5941 31.4147 70.3488 31.5 70.0501 31.564C69.7621 31.628 69.4795 31.66 69.2021 31.66ZM81.5113 31.66C80.3379 31.66 79.3299 31.4253 78.4873 30.956C77.6553 30.476 77.0153 29.804 76.5673 28.94C76.1193 28.0653 75.8953 27.036 75.8953 25.852C75.8953 24.668 76.1193 23.644 76.5673 22.78C77.0153 21.916 77.6553 21.2493 78.4873 20.78C79.3299 20.3 80.3379 20.06 81.5113 20.06C82.2686 20.06 82.9833 20.1773 83.6553 20.412C84.3379 20.6467 84.8979 20.9827 85.3353 21.42L84.6633 23.052C84.1833 22.6467 83.6926 22.3533 83.1913 22.172C82.6899 21.98 82.1513 21.884 81.5753 21.884C80.4339 21.884 79.5646 22.2307 78.9673 22.924C78.3699 23.6067 78.0713 24.5827 78.0713 25.852C78.0713 27.1213 78.3699 28.1027 78.9673 28.796C79.5646 29.4893 80.4339 29.836 81.5753 29.836C82.1513 29.836 82.6899 29.7453 83.1913 29.564C83.6926 29.372 84.1833 29.0733 84.6633 28.668L85.3353 30.3C84.8979 30.7267 84.3379 31.0627 83.6553 31.308C82.9833 31.5427 82.2686 31.66 81.5113 31.66ZM86.9306 31.5V20.22H88.9306V25.244H88.7066C88.9413 24.6787 89.304 24.252 89.7946 23.964C90.296 23.6653 90.8613 23.516 91.4906 23.516C92.12 23.516 92.6373 23.6333 93.0426 23.868C93.448 24.1027 93.752 24.46 93.9546 24.94C94.1573 25.4093 94.2586 26.0067 94.2586 26.732V31.5H92.2586V26.828C92.2586 26.4227 92.2053 26.092 92.0986 25.836C92.0026 25.58 91.848 25.3933 91.6346 25.276C91.432 25.148 91.1706 25.084 90.8506 25.084C90.4666 25.084 90.1306 25.1693 89.8426 25.34C89.5546 25.5 89.3306 25.7347 89.1706 26.044C89.0106 26.3427 88.9306 26.6947 88.9306 27.1V31.5H86.9306ZM100.146 31.66C99.2607 31.66 98.498 31.4947 97.858 31.164C97.218 30.8333 96.722 30.364 96.37 29.756C96.0287 29.148 95.858 28.428 95.858 27.596C95.858 26.7853 96.0233 26.076 96.354 25.468C96.6953 24.86 97.1593 24.3853 97.746 24.044C98.3433 23.692 99.0207 23.516 99.778 23.516C100.525 23.516 101.165 23.676 101.698 23.996C102.231 24.316 102.642 24.7693 102.93 25.356C103.229 25.9427 103.378 26.6413 103.378 27.452V28.044H97.474V26.892H101.97L101.714 27.132C101.714 26.4067 101.554 25.852 101.234 25.468C100.914 25.0733 100.455 24.876 99.858 24.876C99.41 24.876 99.026 24.9827 98.706 25.196C98.3967 25.3987 98.1567 25.692 97.986 26.076C97.826 26.4493 97.746 26.8973 97.746 27.42V27.532C97.746 28.1187 97.8367 28.604 98.018 28.988C98.1993 29.372 98.4713 29.66 98.834 29.852C99.1967 30.044 99.6447 30.14 100.178 30.14C100.615 30.14 101.053 30.076 101.49 29.948C101.927 29.8093 102.327 29.596 102.69 29.308L103.25 30.652C102.877 30.9613 102.407 31.2067 101.842 31.388C101.277 31.5693 100.711 31.66 100.146 31.66ZM108.578 31.66C107.757 31.66 107.042 31.4947 106.434 31.164C105.826 30.8227 105.357 30.3427 105.026 29.724C104.695 29.1053 104.53 28.38 104.53 27.548C104.53 26.716 104.695 26.0013 105.026 25.404C105.357 24.796 105.826 24.332 106.434 24.012C107.042 23.6813 107.757 23.516 108.578 23.516C109.079 23.516 109.575 23.596 110.066 23.756C110.557 23.916 110.962 24.14 111.282 24.428L110.69 25.82C110.413 25.5747 110.098 25.388 109.746 25.26C109.405 25.132 109.074 25.068 108.754 25.068C108.061 25.068 107.522 25.2867 107.138 25.724C106.765 26.1507 106.578 26.764 106.578 27.564C106.578 28.3533 106.765 28.9773 107.138 29.436C107.522 29.884 108.061 30.108 108.754 30.108C109.063 30.108 109.394 30.044 109.746 29.916C110.098 29.788 110.413 29.596 110.69 29.34L111.282 30.748C110.962 31.0253 110.551 31.2493 110.05 31.42C109.559 31.58 109.069 31.66 108.578 31.66ZM112.509 31.5V20.22H114.509V27.004H114.541L117.693 23.676H120.109L116.173 27.836V27.004L120.333 31.5H117.885L114.541 28.012H114.509V31.5H112.509Z" fill="black"/>
<rect x="362" y="16" width="84" height="20" rx="10" fill="#EBEBED"/>
<path d="M370.913 30L371.298 28.053H370.396V27.283H371.441L371.914 24.874H370.66V24.104H372.057L372.42 22.245H373.256L372.893 24.104H374.444L374.807 22.245H375.643L375.28 24.104H376.182V24.874H375.137L374.653 27.283H375.918V28.053H374.521L374.136 30H373.3L373.685 28.053H372.134L371.749 30H370.913ZM372.266 27.294H373.828L374.312 24.863H372.739L372.266 27.294ZM381.172 30.099C380.336 30.099 379.628 29.9413 379.049 29.626C378.469 29.3033 378.026 28.8487 377.718 28.262C377.417 27.668 377.267 26.9567 377.267 26.128C377.267 25.3067 377.417 24.599 377.718 24.005C378.026 23.411 378.466 22.9527 379.038 22.63C379.61 22.3073 380.295 22.146 381.095 22.146C381.461 22.146 381.813 22.1827 382.151 22.256C382.488 22.322 382.796 22.4247 383.075 22.564C383.361 22.7033 383.61 22.872 383.823 23.07L383.416 23.983C383.064 23.6897 382.701 23.4807 382.327 23.356C381.96 23.2313 381.549 23.169 381.095 23.169C380.244 23.169 379.595 23.4257 379.148 23.939C378.7 24.445 378.477 25.1747 378.477 26.128C378.477 27.1033 378.708 27.844 379.17 28.35C379.632 28.8487 380.314 29.098 381.216 29.098C381.56 29.098 381.894 29.0687 382.217 29.01C382.539 28.944 382.847 28.8523 383.141 28.735L382.888 29.318V26.766H381.007V25.864H383.878V29.549C383.658 29.659 383.397 29.7543 383.097 29.835C382.796 29.9157 382.477 29.978 382.14 30.022C381.81 30.0733 381.487 30.099 381.172 30.099ZM385.717 30V22.245H388.94C389.79 22.245 390.443 22.443 390.898 22.839C391.352 23.235 391.58 23.796 391.58 24.522C391.58 24.9767 391.481 25.369 391.283 25.699C391.085 26.0217 390.802 26.2747 390.436 26.458C390.069 26.634 389.629 26.7293 389.116 26.744L389.204 26.623H389.446C389.71 26.6377 389.941 26.7147 390.139 26.854C390.344 26.9933 390.527 27.217 390.689 27.525L392.031 30H390.766L389.435 27.536C389.332 27.3527 389.218 27.2097 389.094 27.107C388.976 26.997 388.837 26.9237 388.676 26.887C388.522 26.843 388.338 26.821 388.126 26.821H386.872V30H385.717ZM386.872 25.93H388.775C389.332 25.93 389.75 25.8163 390.029 25.589C390.307 25.3543 390.447 25.006 390.447 24.544C390.447 24.0893 390.307 23.7483 390.029 23.521C389.75 23.2937 389.328 23.18 388.764 23.18H386.872V25.93ZM395.57 30L392.16 22.245H393.403L396.263 28.922H395.933L398.782 22.245H399.981L396.571 30H395.57ZM400.161 27.514V26.601H403.329V27.514H400.161ZM407.505 30.099C407.175 30.099 406.849 30.066 406.526 30C406.204 29.9267 405.903 29.8203 405.624 29.681C405.353 29.5417 405.111 29.3803 404.898 29.197L405.305 28.306C405.65 28.5773 406.002 28.779 406.361 28.911C406.721 29.043 407.098 29.109 407.494 29.109C408 29.109 408.396 28.977 408.682 28.713C408.968 28.4417 409.111 28.0787 409.111 27.624C409.111 27.162 408.976 26.788 408.704 26.502C408.433 26.216 408.059 26.073 407.582 26.073C407.238 26.073 406.933 26.139 406.669 26.271C406.405 26.403 406.167 26.612 405.954 26.898H405.129V22.245H409.782V23.213H406.24V25.974H405.998C406.182 25.7027 406.431 25.49 406.746 25.336C407.069 25.182 407.428 25.105 407.824 25.105C408.316 25.105 408.741 25.2113 409.1 25.424C409.46 25.6293 409.738 25.919 409.936 26.293C410.134 26.6597 410.233 27.0887 410.233 27.58C410.233 28.0787 410.123 28.5187 409.903 28.9C409.683 29.2813 409.368 29.5783 408.957 29.791C408.554 29.9963 408.07 30.099 407.505 30.099ZM413.881 30.099C413.536 30.099 413.199 30.066 412.869 30C412.546 29.9267 412.242 29.824 411.956 29.692C411.677 29.56 411.428 29.395 411.208 29.197L411.615 28.306C411.967 28.5847 412.326 28.79 412.693 28.922C413.06 29.0467 413.445 29.109 413.848 29.109C414.193 29.109 414.482 29.0613 414.717 28.966C414.959 28.8707 415.142 28.7277 415.267 28.537C415.399 28.339 415.465 28.097 415.465 27.811C415.465 27.393 415.326 27.0813 415.047 26.876C414.776 26.6633 414.376 26.557 413.848 26.557H412.649V25.589H413.738C414.046 25.589 414.31 25.5377 414.53 25.435C414.757 25.3323 414.933 25.1857 415.058 24.995C415.183 24.797 415.245 24.5587 415.245 24.28C415.245 23.906 415.12 23.6237 414.871 23.433C414.622 23.235 414.27 23.136 413.815 23.136C413.426 23.136 413.06 23.202 412.715 23.334C412.37 23.466 412.048 23.6787 411.747 23.972L411.351 23.092C411.652 22.7913 412.029 22.5603 412.484 22.399C412.939 22.2303 413.412 22.146 413.903 22.146C414.416 22.146 414.856 22.2267 415.223 22.388C415.597 22.5493 415.879 22.7803 416.07 23.081C416.268 23.3743 416.367 23.7337 416.367 24.159C416.367 24.621 416.239 25.0207 415.982 25.358C415.733 25.6953 415.384 25.9227 414.937 26.04V25.952C415.282 26.0107 415.575 26.128 415.817 26.304C416.066 26.4727 416.257 26.6927 416.389 26.964C416.521 27.228 416.587 27.536 416.587 27.888C416.587 28.3427 416.477 28.7387 416.257 29.076C416.037 29.406 415.725 29.659 415.322 29.835C414.919 30.011 414.438 30.099 413.881 30.099ZM418.519 30V29.032H420.345V23.213L420.928 23.224L418.904 24.489L418.431 23.631L420.675 22.245H421.5V29.032H423.205V30H418.519ZM427.469 30.099C426.845 30.099 426.314 29.9487 425.874 29.648C425.434 29.3473 425.096 28.9147 424.862 28.35C424.634 27.778 424.521 27.0887 424.521 26.282C424.521 25.3947 424.649 24.6467 424.906 24.038C425.162 23.422 425.533 22.9527 426.017 22.63C426.501 22.3073 427.08 22.146 427.755 22.146C428.026 22.146 428.297 22.1827 428.569 22.256C428.84 22.322 429.097 22.4247 429.339 22.564C429.581 22.696 429.793 22.8573 429.977 23.048L429.581 23.917C429.309 23.6457 429.016 23.4477 428.701 23.323C428.385 23.1983 428.063 23.136 427.733 23.136C427.395 23.136 427.095 23.1983 426.831 23.323C426.567 23.4477 426.343 23.6347 426.16 23.884C425.984 24.126 425.848 24.4303 425.753 24.797C425.657 25.1637 425.61 25.5927 425.61 26.084V26.931H425.533C425.591 26.5423 425.716 26.2123 425.907 25.941C426.097 25.6623 426.343 25.4497 426.644 25.303C426.952 25.1563 427.285 25.083 427.645 25.083C428.107 25.083 428.51 25.1893 428.855 25.402C429.207 25.6073 429.482 25.897 429.68 26.271C429.878 26.645 429.977 27.0703 429.977 27.547C429.977 28.0383 429.87 28.4783 429.658 28.867C429.445 29.2557 429.148 29.56 428.767 29.78C428.393 29.9927 427.96 30.099 427.469 30.099ZM427.403 29.164C427.703 29.164 427.964 29.098 428.184 28.966C428.411 28.834 428.587 28.6507 428.712 28.416C428.836 28.174 428.899 27.899 428.899 27.591C428.899 27.2757 428.836 27.0007 428.712 26.766C428.587 26.5313 428.411 26.348 428.184 26.216C427.964 26.084 427.703 26.018 427.403 26.018C427.102 26.018 426.838 26.084 426.611 26.216C426.391 26.348 426.215 26.5313 426.083 26.766C425.958 27.0007 425.896 27.2757 425.896 27.591C425.896 27.899 425.958 28.174 426.083 28.416C426.215 28.6507 426.391 28.834 426.611 28.966C426.838 29.098 427.102 29.164 427.403 29.164ZM431.589 30L435.373 22.773L435.384 23.235H431.16V22.245H436.418V23.103L432.854 30H431.589Z" fill="#444050"/>
<rect x="16.5" y="56.5" width="195" height="124" rx="9.5" fill="white"/>
<rect x="16.5" y="56.5" width="195" height="124" rx="9.5" stroke="#EAEAEC"/>
<path d="M93.544 92V83.54H96.4C97.32 83.54 98.096 83.704 98.728 84.032C99.368 84.352 99.852 84.828 100.18 85.46C100.516 86.084 100.684 86.852 100.684 87.764C100.684 88.676 100.516 89.448 100.18 90.08C99.852 90.712 99.368 91.192 98.728 91.52C98.096 91.84 97.32 92 96.4 92H93.544ZM94.528 91.16H96.328C97.44 91.16 98.268 90.876 98.812 90.308C99.364 89.74 99.64 88.892 99.64 87.764C99.64 86.636 99.364 85.792 98.812 85.232C98.26 84.664 97.432 84.38 96.328 84.38H94.528V91.16ZM104.946 92.108C104.33 92.108 103.798 91.988 103.35 91.748C102.91 91.5 102.566 91.152 102.318 90.704C102.078 90.256 101.958 89.72 101.958 89.096C101.958 88.488 102.078 87.96 102.318 87.512C102.558 87.056 102.886 86.7 103.302 86.444C103.726 86.188 104.214 86.06 104.766 86.06C105.294 86.06 105.746 86.176 106.122 86.408C106.498 86.64 106.786 86.968 106.986 87.392C107.194 87.816 107.298 88.324 107.298 88.916V89.288H102.702V88.652H106.65L106.458 88.808C106.458 88.168 106.314 87.672 106.026 87.32C105.746 86.96 105.334 86.78 104.79 86.78C104.382 86.78 104.034 86.876 103.746 87.068C103.466 87.252 103.254 87.512 103.11 87.848C102.966 88.176 102.894 88.56 102.894 89V89.072C102.894 89.56 102.97 89.972 103.122 90.308C103.282 90.644 103.518 90.9 103.83 91.076C104.142 91.244 104.514 91.328 104.946 91.328C105.29 91.328 105.622 91.276 105.942 91.172C106.27 91.06 106.578 90.88 106.866 90.632L107.202 91.316C106.938 91.556 106.602 91.748 106.194 91.892C105.786 92.036 105.37 92.108 104.946 92.108ZM110.493 92.108C109.901 92.108 109.453 91.932 109.149 91.58C108.853 91.228 108.705 90.724 108.705 90.068V83.54H109.677V89.996C109.677 90.276 109.713 90.512 109.785 90.704C109.865 90.896 109.981 91.04 110.133 91.136C110.285 91.232 110.473 91.28 110.697 91.28C110.793 91.28 110.885 91.276 110.973 91.268C111.069 91.252 111.157 91.232 111.237 91.208L111.213 92.024C111.085 92.048 110.961 92.068 110.841 92.084C110.729 92.1 110.613 92.108 110.493 92.108ZM114.092 92.108C113.692 92.108 113.332 92.032 113.012 91.88C112.7 91.72 112.452 91.504 112.268 91.232C112.084 90.96 111.992 90.656 111.992 90.32C111.992 89.888 112.1 89.548 112.316 89.3C112.54 89.052 112.904 88.876 113.408 88.772C113.92 88.668 114.616 88.616 115.496 88.616H116.036V89.252H115.508C115.02 89.252 114.612 89.268 114.284 89.3C113.956 89.332 113.696 89.388 113.504 89.468C113.312 89.548 113.176 89.652 113.096 89.78C113.016 89.908 112.976 90.068 112.976 90.26C112.976 90.588 113.088 90.856 113.312 91.064C113.544 91.272 113.856 91.376 114.248 91.376C114.568 91.376 114.848 91.3 115.088 91.148C115.336 90.996 115.528 90.788 115.664 90.524C115.808 90.26 115.88 89.956 115.88 89.612V88.244C115.88 87.748 115.78 87.392 115.58 87.176C115.38 86.952 115.052 86.84 114.596 86.84C114.244 86.84 113.904 86.892 113.576 86.996C113.248 87.092 112.912 87.252 112.568 87.476L112.232 86.768C112.44 86.624 112.676 86.5 112.94 86.396C113.204 86.284 113.48 86.2 113.768 86.144C114.056 86.088 114.332 86.06 114.596 86.06C115.1 86.06 115.516 86.144 115.844 86.312C116.172 86.472 116.416 86.72 116.576 87.056C116.736 87.384 116.816 87.808 116.816 88.328V92H115.904V90.644H116.012C115.948 90.948 115.824 91.208 115.64 91.424C115.464 91.64 115.244 91.808 114.98 91.928C114.716 92.048 114.42 92.108 114.092 92.108ZM118.619 92V86.168H119.567V87.548H119.447C119.583 87.076 119.819 86.72 120.155 86.48C120.491 86.232 120.935 86.088 121.487 86.048L121.835 86.012L121.907 86.852L121.295 86.924C120.751 86.972 120.331 87.148 120.035 87.452C119.747 87.748 119.603 88.156 119.603 88.676V92H118.619ZM125.478 92.108C124.862 92.108 124.33 91.988 123.882 91.748C123.442 91.5 123.098 91.152 122.85 90.704C122.61 90.256 122.49 89.72 122.49 89.096C122.49 88.488 122.61 87.96 122.85 87.512C123.09 87.056 123.418 86.7 123.834 86.444C124.258 86.188 124.746 86.06 125.298 86.06C125.826 86.06 126.278 86.176 126.654 86.408C127.03 86.64 127.318 86.968 127.518 87.392C127.726 87.816 127.83 88.324 127.83 88.916V89.288H123.234V88.652H127.182L126.99 88.808C126.99 88.168 126.846 87.672 126.558 87.32C126.278 86.96 125.866 86.78 125.322 86.78C124.914 86.78 124.566 86.876 124.278 87.068C123.998 87.252 123.786 87.512 123.642 87.848C123.498 88.176 123.426 88.56 123.426 89V89.072C123.426 89.56 123.502 89.972 123.654 90.308C123.814 90.644 124.05 90.9 124.362 91.076C124.674 91.244 125.046 91.328 125.478 91.328C125.822 91.328 126.154 91.276 126.474 91.172C126.802 91.06 127.11 90.88 127.398 90.632L127.734 91.316C127.47 91.556 127.134 91.748 126.726 91.892C126.318 92.036 125.902 92.108 125.478 92.108ZM131.456 92.108C130.936 92.108 130.48 91.984 130.088 91.736C129.704 91.488 129.404 91.14 129.188 90.692C128.98 90.236 128.876 89.7 128.876 89.084C128.876 88.46 128.98 87.924 129.188 87.476C129.404 87.02 129.704 86.672 130.088 86.432C130.48 86.184 130.936 86.06 131.456 86.06C131.984 86.06 132.436 86.192 132.812 86.456C133.188 86.72 133.44 87.076 133.568 87.524H133.436V83.54H134.408V92H133.46V90.608H133.58C133.452 91.064 133.196 91.428 132.812 91.7C132.436 91.972 131.984 92.108 131.456 92.108ZM131.66 91.328C132.212 91.328 132.648 91.136 132.968 90.752C133.296 90.36 133.46 89.804 133.46 89.084C133.46 88.356 133.296 87.8 132.968 87.416C132.648 87.032 132.212 86.84 131.66 86.84C131.116 86.84 130.68 87.032 130.352 87.416C130.024 87.8 129.86 88.356 129.86 89.084C129.86 89.804 130.024 90.36 130.352 90.752C130.68 91.136 131.116 91.328 131.66 91.328Z" fill="#8D8A94"/>
<path d="M79.8445 125.24C78.5165 125.24 77.3885 124.904 76.4605 124.232C75.5485 123.544 74.8525 122.552 74.3725 121.256C73.9085 119.96 73.6765 118.376 73.6765 116.504C73.6765 114.616 73.9085 113.032 74.3725 111.752C74.8525 110.456 75.5485 109.48 76.4605 108.824C77.3885 108.168 78.5165 107.84 79.8445 107.84C81.1885 107.84 82.3165 108.168 83.2285 108.824C84.1565 109.48 84.8525 110.448 85.3165 111.728C85.7805 113.008 86.0125 114.592 86.0125 116.48C86.0125 118.352 85.7725 119.944 85.2925 121.256C84.8285 122.552 84.1405 123.544 83.2285 124.232C82.3165 124.904 81.1885 125.24 79.8445 125.24ZM79.8445 122.72C80.9325 122.72 81.7325 122.224 82.2445 121.232C82.7725 120.224 83.0365 118.64 83.0365 116.48C83.0365 114.336 82.7725 112.784 82.2445 111.824C81.7325 110.848 80.9325 110.36 79.8445 110.36C78.7725 110.36 77.9725 110.848 77.4445 111.824C76.9165 112.784 76.6525 114.344 76.6525 116.504C76.6525 118.648 76.9165 120.224 77.4445 121.232C77.9725 122.224 78.7725 122.72 79.8445 122.72ZM88.3312 125V121.664H91.6912V125H88.3312ZM100.332 125.24C99.5963 125.24 98.8683 125.16 98.1483 125C97.4443 124.84 96.7803 124.616 96.1563 124.328C95.5483 124.04 95.0203 123.704 94.5723 123.32L95.5803 120.968C96.3163 121.528 97.0763 121.952 97.8603 122.24C98.6443 122.512 99.4523 122.648 100.284 122.648C101.292 122.648 102.076 122.392 102.636 121.88C103.212 121.352 103.5 120.648 103.5 119.768C103.5 118.872 103.228 118.152 102.684 117.608C102.14 117.048 101.396 116.768 100.452 116.768C99.7643 116.768 99.1483 116.904 98.6043 117.176C98.0603 117.432 97.5643 117.832 97.1163 118.376H95.0523V108.08H105.444V110.624H98.0523V116H97.2603C97.6763 115.44 98.2203 115.008 98.8923 114.704C99.5803 114.4 100.34 114.248 101.172 114.248C102.244 114.248 103.172 114.48 103.956 114.944C104.756 115.392 105.372 116.024 105.804 116.84C106.252 117.64 106.476 118.576 106.476 119.648C106.476 120.752 106.228 121.728 105.732 122.576C105.236 123.408 104.524 124.064 103.596 124.544C102.684 125.008 101.596 125.24 100.332 125.24ZM114.579 125.24C113.251 125.24 112.123 124.904 111.195 124.232C110.283 123.544 109.587 122.552 109.107 121.256C108.643 119.96 108.411 118.376 108.411 116.504C108.411 114.616 108.643 113.032 109.107 111.752C109.587 110.456 110.283 109.48 111.195 108.824C112.123 108.168 113.251 107.84 114.579 107.84C115.923 107.84 117.051 108.168 117.963 108.824C118.891 109.48 119.587 110.448 120.051 111.728C120.515 113.008 120.747 114.592 120.747 116.48C120.747 118.352 120.507 119.944 120.027 121.256C119.563 122.552 118.875 123.544 117.963 124.232C117.051 124.904 115.923 125.24 114.579 125.24ZM114.579 122.72C115.667 122.72 116.467 122.224 116.979 121.232C117.507 120.224 117.771 118.64 117.771 116.48C117.771 114.336 117.507 112.784 116.979 111.824C116.467 110.848 115.667 110.36 114.579 110.36C113.507 110.36 112.707 110.848 112.179 111.824C111.651 112.784 111.387 114.344 111.387 116.504C111.387 118.648 111.651 120.224 112.179 121.232C112.707 122.224 113.507 122.72 114.579 122.72ZM129.798 125V108.08H132.798V118.256H132.846L137.574 113.264H141.198L135.294 119.504V118.256L141.534 125H137.862L132.846 119.768H132.798V125H129.798ZM147.903 129.56C146.815 129.56 145.791 129.432 144.831 129.176C143.887 128.936 143.055 128.56 142.335 128.048L143.199 125.96C143.647 126.248 144.119 126.488 144.615 126.68C145.111 126.888 145.615 127.04 146.127 127.136C146.639 127.232 147.151 127.28 147.663 127.28C148.735 127.28 149.535 127.016 150.063 126.488C150.607 125.976 150.879 125.208 150.879 124.184V122.024H151.095C150.855 122.84 150.351 123.496 149.583 123.992C148.831 124.472 147.975 124.712 147.015 124.712C145.959 124.712 145.039 124.472 144.255 123.992C143.471 123.496 142.863 122.808 142.431 121.928C141.999 121.048 141.783 120.024 141.783 118.856C141.783 117.688 141.999 116.672 142.431 115.808C142.863 114.928 143.471 114.248 144.255 113.768C145.039 113.272 145.959 113.024 147.015 113.024C148.007 113.024 148.871 113.272 149.607 113.768C150.359 114.248 150.847 114.888 151.071 115.688H150.879V113.264H153.807V123.824C153.807 125.088 153.583 126.144 153.135 126.992C152.687 127.856 152.023 128.496 151.143 128.912C150.263 129.344 149.183 129.56 147.903 129.56ZM147.831 122.432C148.759 122.432 149.495 122.112 150.039 121.472C150.583 120.832 150.855 119.96 150.855 118.856C150.855 117.752 150.583 116.888 150.039 116.264C149.495 115.624 148.759 115.304 147.831 115.304C146.903 115.304 146.167 115.624 145.623 116.264C145.079 116.888 144.807 117.752 144.807 118.856C144.807 119.96 145.079 120.832 145.623 121.472C146.167 122.112 146.903 122.432 147.831 122.432Z" fill="black"/>
<path d="M227.66 122.5L223.928 114.04H225.26L228.452 121.444H228.008L231.188 114.04H232.46L228.728 122.5H227.66ZM234.58 122.608C234.268 122.608 233.964 122.58 233.668 122.524C233.372 122.468 233.1 122.388 232.852 122.284C232.604 122.18 232.384 122.052 232.192 121.9L232.54 121.084C232.74 121.22 232.952 121.34 233.176 121.444C233.4 121.54 233.632 121.612 233.872 121.66C234.12 121.708 234.36 121.732 234.592 121.732C235.016 121.732 235.336 121.656 235.552 121.504C235.768 121.352 235.876 121.148 235.876 120.892C235.876 120.684 235.804 120.524 235.66 120.412C235.516 120.292 235.3 120.2 235.012 120.136L233.872 119.908C233.376 119.804 233 119.62 232.744 119.356C232.488 119.092 232.36 118.756 232.36 118.348C232.36 117.98 232.46 117.66 232.66 117.388C232.86 117.116 233.14 116.908 233.5 116.764C233.86 116.612 234.276 116.536 234.748 116.536C235.02 116.536 235.284 116.564 235.54 116.62C235.796 116.676 236.036 116.756 236.26 116.86C236.492 116.964 236.688 117.096 236.848 117.256L236.5 118.072C236.348 117.936 236.172 117.82 235.972 117.724C235.78 117.628 235.58 117.556 235.372 117.508C235.164 117.452 234.956 117.424 234.748 117.424C234.324 117.424 234.004 117.504 233.788 117.664C233.58 117.816 233.476 118.024 233.476 118.288C233.476 118.488 233.54 118.652 233.668 118.78C233.796 118.908 233.996 119 234.268 119.056L235.408 119.284C235.928 119.388 236.32 119.564 236.584 119.812C236.856 120.06 236.992 120.396 236.992 120.82C236.992 121.188 236.892 121.508 236.692 121.78C236.492 122.052 236.208 122.26 235.84 122.404C235.48 122.54 235.06 122.608 234.58 122.608Z" fill="#8D8A94"/>
<rect x="250.5" y="56.5" width="195" height="124" rx="9.5" fill="#FEF6E1"/>
<rect x="250.5" y="56.5" width="195" height="124" rx="9.5" stroke="#FDEAB7"/>
<path d="M308.704 92.108C307.872 92.108 307.16 91.932 306.568 91.58C305.976 91.228 305.52 90.728 305.2 90.08C304.888 89.432 304.732 88.66 304.732 87.764C304.732 86.868 304.888 86.1 305.2 85.46C305.52 84.812 305.976 84.312 306.568 83.96C307.16 83.608 307.872 83.432 308.704 83.432C309.288 83.432 309.828 83.524 310.324 83.708C310.82 83.892 311.236 84.16 311.572 84.512L311.188 85.316C310.82 84.972 310.436 84.724 310.036 84.572C309.644 84.412 309.208 84.332 308.728 84.332C307.776 84.332 307.048 84.632 306.544 85.232C306.04 85.832 305.788 86.676 305.788 87.764C305.788 88.852 306.04 89.7 306.544 90.308C307.048 90.908 307.776 91.208 308.728 91.208C309.208 91.208 309.644 91.132 310.036 90.98C310.436 90.82 310.82 90.568 311.188 90.224L311.572 91.028C311.236 91.372 310.82 91.64 310.324 91.832C309.828 92.016 309.288 92.108 308.704 92.108ZM314.988 92.108C314.42 92.108 313.928 91.984 313.512 91.736C313.096 91.488 312.772 91.14 312.54 90.692C312.316 90.236 312.204 89.7 312.204 89.084C312.204 88.468 312.316 87.936 312.54 87.488C312.772 87.032 313.096 86.68 313.512 86.432C313.928 86.184 314.42 86.06 314.988 86.06C315.556 86.06 316.048 86.184 316.464 86.432C316.88 86.68 317.2 87.032 317.424 87.488C317.656 87.936 317.772 88.468 317.772 89.084C317.772 89.7 317.656 90.236 317.424 90.692C317.2 91.14 316.88 91.488 316.464 91.736C316.048 91.984 315.556 92.108 314.988 92.108ZM314.988 91.328C315.54 91.328 315.976 91.136 316.296 90.752C316.624 90.36 316.788 89.8 316.788 89.072C316.788 88.352 316.624 87.8 316.296 87.416C315.976 87.032 315.54 86.84 314.988 86.84C314.444 86.84 314.008 87.032 313.68 87.416C313.352 87.8 313.188 88.352 313.188 89.072C313.188 89.8 313.352 90.36 313.68 90.752C314.008 91.136 314.444 91.328 314.988 91.328ZM321.296 92.108C320.824 92.108 320.432 92.024 320.12 91.856C319.816 91.68 319.584 91.42 319.424 91.076C319.272 90.732 319.196 90.304 319.196 89.792V86.168H320.168V89.78C320.168 90.124 320.212 90.412 320.3 90.644C320.396 90.868 320.544 91.036 320.744 91.148C320.944 91.252 321.192 91.304 321.488 91.304C321.824 91.304 322.116 91.228 322.364 91.076C322.612 90.924 322.808 90.712 322.952 90.44C323.096 90.168 323.168 89.848 323.168 89.48V86.168H324.14V92H323.192V90.656H323.348C323.188 91.128 322.924 91.488 322.556 91.736C322.196 91.984 321.776 92.108 321.296 92.108ZM325.959 92V86.168H326.907V87.548H326.787C326.923 87.076 327.159 86.72 327.495 86.48C327.831 86.232 328.275 86.088 328.827 86.048L329.175 86.012L329.247 86.852L328.635 86.924C328.091 86.972 327.671 87.148 327.375 87.452C327.087 87.748 326.943 88.156 326.943 88.676V92H325.959ZM330.14 84.716V83.624H331.34V84.716H330.14ZM330.26 92V86.168H331.232V92H330.26ZM335.677 92.108C335.061 92.108 334.529 91.988 334.081 91.748C333.641 91.5 333.297 91.152 333.049 90.704C332.809 90.256 332.689 89.72 332.689 89.096C332.689 88.488 332.809 87.96 333.049 87.512C333.289 87.056 333.617 86.7 334.033 86.444C334.457 86.188 334.945 86.06 335.497 86.06C336.025 86.06 336.477 86.176 336.853 86.408C337.229 86.64 337.517 86.968 337.717 87.392C337.925 87.816 338.029 88.324 338.029 88.916V89.288H333.433V88.652H337.381L337.189 88.808C337.189 88.168 337.045 87.672 336.757 87.32C336.477 86.96 336.065 86.78 335.521 86.78C335.113 86.78 334.765 86.876 334.477 87.068C334.197 87.252 333.985 87.512 333.841 87.848C333.697 88.176 333.625 88.56 333.625 89V89.072C333.625 89.56 333.701 89.972 333.853 90.308C334.013 90.644 334.249 90.9 334.561 91.076C334.873 91.244 335.245 91.328 335.677 91.328C336.021 91.328 336.353 91.276 336.673 91.172C337.001 91.06 337.309 90.88 337.597 90.632L337.933 91.316C337.669 91.556 337.333 91.748 336.925 91.892C336.517 92.036 336.101 92.108 335.677 92.108ZM339.435 92V86.168H340.383V87.548H340.263C340.399 87.076 340.635 86.72 340.971 86.48C341.307 86.232 341.751 86.088 342.303 86.048L342.651 86.012L342.723 86.852L342.111 86.924C341.567 86.972 341.147 87.148 340.851 87.452C340.563 87.748 340.419 88.156 340.419 88.676V92H339.435ZM350.61 92.108C349.778 92.108 349.066 91.932 348.474 91.58C347.882 91.228 347.426 90.728 347.106 90.08C346.794 89.432 346.638 88.66 346.638 87.764C346.638 86.868 346.794 86.1 347.106 85.46C347.426 84.812 347.882 84.312 348.474 83.96C349.066 83.608 349.778 83.432 350.61 83.432C351.194 83.432 351.734 83.524 352.23 83.708C352.726 83.892 353.142 84.16 353.478 84.512L353.094 85.316C352.726 84.972 352.342 84.724 351.942 84.572C351.55 84.412 351.114 84.332 350.634 84.332C349.682 84.332 348.954 84.632 348.45 85.232C347.946 85.832 347.694 86.676 347.694 87.764C347.694 88.852 347.946 89.7 348.45 90.308C348.954 90.908 349.682 91.208 350.634 91.208C351.114 91.208 351.55 91.132 351.942 90.98C352.342 90.82 352.726 90.568 353.094 90.224L353.478 91.028C353.142 91.372 352.726 91.64 352.23 91.832C351.734 92.016 351.194 92.108 350.61 92.108ZM354.892 92V83.54H355.864V87.464H355.708C355.876 87 356.148 86.652 356.524 86.42C356.908 86.18 357.348 86.06 357.844 86.06C358.308 86.06 358.692 86.144 358.996 86.312C359.308 86.48 359.54 86.736 359.692 87.08C359.844 87.416 359.92 87.844 359.92 88.364V92H358.948V88.424C358.948 88.064 358.9 87.768 358.804 87.536C358.716 87.304 358.572 87.132 358.372 87.02C358.18 86.908 357.928 86.852 357.616 86.852C357.264 86.852 356.956 86.928 356.692 87.08C356.428 87.232 356.224 87.444 356.08 87.716C355.936 87.988 355.864 88.308 355.864 88.676V92H354.892ZM363.549 92.108C363.149 92.108 362.789 92.032 362.469 91.88C362.157 91.72 361.909 91.504 361.725 91.232C361.541 90.96 361.449 90.656 361.449 90.32C361.449 89.888 361.557 89.548 361.773 89.3C361.997 89.052 362.361 88.876 362.865 88.772C363.377 88.668 364.073 88.616 364.953 88.616H365.493V89.252H364.965C364.477 89.252 364.069 89.268 363.741 89.3C363.413 89.332 363.153 89.388 362.961 89.468C362.769 89.548 362.633 89.652 362.553 89.78C362.473 89.908 362.433 90.068 362.433 90.26C362.433 90.588 362.545 90.856 362.769 91.064C363.001 91.272 363.313 91.376 363.705 91.376C364.025 91.376 364.305 91.3 364.545 91.148C364.793 90.996 364.985 90.788 365.121 90.524C365.265 90.26 365.337 89.956 365.337 89.612V88.244C365.337 87.748 365.237 87.392 365.037 87.176C364.837 86.952 364.509 86.84 364.053 86.84C363.701 86.84 363.361 86.892 363.033 86.996C362.705 87.092 362.369 87.252 362.025 87.476L361.689 86.768C361.897 86.624 362.133 86.5 362.397 86.396C362.661 86.284 362.937 86.2 363.225 86.144C363.513 86.088 363.789 86.06 364.053 86.06C364.557 86.06 364.973 86.144 365.301 86.312C365.629 86.472 365.873 86.72 366.033 87.056C366.193 87.384 366.273 87.808 366.273 88.328V92H365.361V90.644H365.469C365.405 90.948 365.281 91.208 365.097 91.424C364.921 91.64 364.701 91.808 364.437 91.928C364.173 92.048 363.877 92.108 363.549 92.108ZM368.076 92V86.168H369.024V87.548H368.904C369.04 87.076 369.276 86.72 369.612 86.48C369.948 86.232 370.392 86.088 370.944 86.048L371.292 86.012L371.364 86.852L370.752 86.924C370.208 86.972 369.788 87.148 369.492 87.452C369.204 87.748 369.06 88.156 369.06 88.676V92H368.076ZM374.887 94.268C374.383 94.268 373.907 94.2 373.459 94.064C373.019 93.936 372.627 93.74 372.283 93.476L372.607 92.768C372.847 92.936 373.083 93.072 373.315 93.176C373.555 93.288 373.799 93.368 374.047 93.416C374.303 93.464 374.567 93.488 374.839 93.488C375.407 93.488 375.835 93.336 376.123 93.032C376.419 92.728 376.567 92.288 376.567 91.712V90.356H376.687C376.567 90.82 376.311 91.188 375.919 91.46C375.535 91.732 375.083 91.868 374.563 91.868C374.027 91.868 373.563 91.748 373.171 91.508C372.779 91.26 372.475 90.916 372.259 90.476C372.051 90.036 371.947 89.528 371.947 88.952C371.947 88.376 372.051 87.872 372.259 87.44C372.475 87 372.779 86.66 373.171 86.42C373.563 86.18 374.027 86.06 374.563 86.06C375.091 86.06 375.547 86.196 375.931 86.468C376.315 86.732 376.563 87.092 376.675 87.548H376.567V86.168H377.515V91.58C377.515 92.172 377.415 92.668 377.215 93.068C377.023 93.468 376.731 93.768 376.339 93.968C375.947 94.168 375.463 94.268 374.887 94.268ZM374.743 91.076C375.303 91.076 375.747 90.884 376.075 90.5C376.403 90.116 376.567 89.6 376.567 88.952C376.567 88.304 376.403 87.792 376.075 87.416C375.747 87.032 375.303 86.84 374.743 86.84C374.191 86.84 373.751 87.032 373.423 87.416C373.095 87.792 372.931 88.304 372.931 88.952C372.931 89.6 373.095 90.116 373.423 90.5C373.751 90.884 374.191 91.076 374.743 91.076ZM381.966 92.108C381.35 92.108 380.818 91.988 380.37 91.748C379.93 91.5 379.586 91.152 379.338 90.704C379.098 90.256 378.978 89.72 378.978 89.096C378.978 88.488 379.098 87.96 379.338 87.512C379.578 87.056 379.906 86.7 380.322 86.444C380.746 86.188 381.234 86.06 381.786 86.06C382.314 86.06 382.766 86.176 383.142 86.408C383.518 86.64 383.806 86.968 384.006 87.392C384.214 87.816 384.318 88.324 384.318 88.916V89.288H379.722V88.652H383.67L383.478 88.808C383.478 88.168 383.334 87.672 383.046 87.32C382.766 86.96 382.354 86.78 381.81 86.78C381.402 86.78 381.054 86.876 380.766 87.068C380.486 87.252 380.274 87.512 380.13 87.848C379.986 88.176 379.914 88.56 379.914 89V89.072C379.914 89.56 379.99 89.972 380.142 90.308C380.302 90.644 380.538 90.9 380.85 91.076C381.162 91.244 381.534 91.328 381.966 91.328C382.31 91.328 382.642 91.276 382.962 91.172C383.29 91.06 383.598 90.88 383.886 90.632L384.222 91.316C383.958 91.556 383.622 91.748 383.214 91.892C382.806 92.036 382.39 92.108 381.966 92.108ZM387.945 92.108C387.425 92.108 386.969 91.984 386.576 91.736C386.193 91.488 385.893 91.14 385.677 90.692C385.469 90.236 385.365 89.7 385.365 89.084C385.365 88.46 385.469 87.924 385.677 87.476C385.893 87.02 386.193 86.672 386.576 86.432C386.969 86.184 387.425 86.06 387.945 86.06C388.473 86.06 388.925 86.192 389.301 86.456C389.677 86.72 389.929 87.076 390.057 87.524H389.925V83.54H390.897V92H389.949V90.608H390.069C389.941 91.064 389.685 91.428 389.301 91.7C388.925 91.972 388.473 92.108 387.945 92.108ZM388.149 91.328C388.701 91.328 389.137 91.136 389.457 90.752C389.785 90.36 389.949 89.804 389.949 89.084C389.949 88.356 389.785 87.8 389.457 87.416C389.137 87.032 388.701 86.84 388.149 86.84C387.605 86.84 387.169 87.032 386.841 87.416C386.513 87.8 386.349 88.356 386.349 89.084C386.349 89.804 386.513 90.36 386.841 90.752C387.169 91.136 387.605 91.328 388.149 91.328Z" fill="#8D8A94"/>
<path d="M308.565 125V122.72L314.037 116.888C314.533 116.36 314.925 115.872 315.213 115.424C315.517 114.976 315.741 114.544 315.885 114.128C316.029 113.712 316.101 113.296 316.101 112.88C316.101 112.08 315.845 111.472 315.333 111.056C314.837 110.64 314.109 110.432 313.149 110.432C312.397 110.432 311.661 110.576 310.941 110.864C310.237 111.136 309.557 111.568 308.901 112.16L307.869 109.856C308.541 109.248 309.381 108.76 310.389 108.392C311.397 108.024 312.445 107.84 313.533 107.84C314.749 107.84 315.773 108.024 316.605 108.392C317.437 108.76 318.069 109.296 318.501 110C318.933 110.704 319.149 111.56 319.149 112.568C319.149 113.08 319.085 113.584 318.957 114.08C318.845 114.56 318.661 115.04 318.405 115.52C318.165 116 317.853 116.496 317.469 117.008C317.101 117.504 316.653 118.024 316.125 118.568L311.613 123.272V122.456H319.797V125H308.565ZM322.331 125V121.664H325.691V125H322.331ZM334.188 125.24C332.86 125.24 331.732 124.904 330.804 124.232C329.892 123.544 329.196 122.552 328.716 121.256C328.252 119.96 328.02 118.376 328.02 116.504C328.02 114.616 328.252 113.032 328.716 111.752C329.196 110.456 329.892 109.48 330.804 108.824C331.732 108.168 332.86 107.84 334.188 107.84C335.532 107.84 336.66 108.168 337.572 108.824C338.5 109.48 339.196 110.448 339.66 111.728C340.124 113.008 340.356 114.592 340.356 116.48C340.356 118.352 340.116 119.944 339.636 121.256C339.172 122.552 338.484 123.544 337.572 124.232C336.66 124.904 335.532 125.24 334.188 125.24ZM334.188 122.72C335.276 122.72 336.076 122.224 336.588 121.232C337.116 120.224 337.38 118.64 337.38 116.48C337.38 114.336 337.116 112.784 336.588 111.824C336.076 110.848 335.276 110.36 334.188 110.36C333.116 110.36 332.316 110.848 331.788 111.824C331.26 112.784 330.996 114.344 330.996 116.504C330.996 118.648 331.26 120.224 331.788 121.232C332.316 122.224 333.116 122.72 334.188 122.72ZM348.579 125.24C347.251 125.24 346.123 124.904 345.195 124.232C344.283 123.544 343.587 122.552 343.107 121.256C342.643 119.96 342.411 118.376 342.411 116.504C342.411 114.616 342.643 113.032 343.107 111.752C343.587 110.456 344.283 109.48 345.195 108.824C346.123 108.168 347.251 107.84 348.579 107.84C349.923 107.84 351.051 108.168 351.963 108.824C352.891 109.48 353.587 110.448 354.051 111.728C354.515 113.008 354.747 114.592 354.747 116.48C354.747 118.352 354.507 119.944 354.027 121.256C353.563 122.552 352.875 123.544 351.963 124.232C351.051 124.904 349.923 125.24 348.579 125.24ZM348.579 122.72C349.667 122.72 350.467 122.224 350.979 121.232C351.507 120.224 351.771 118.64 351.771 116.48C351.771 114.336 351.507 112.784 350.979 111.824C350.467 110.848 349.667 110.36 348.579 110.36C347.507 110.36 346.707 110.848 346.179 111.824C345.651 112.784 345.387 114.344 345.387 116.504C345.387 118.648 345.651 120.224 346.179 121.232C346.707 122.224 347.507 122.72 348.579 122.72ZM363.798 125V108.08H366.798V118.256H366.846L371.574 113.264H375.198L369.294 119.504V118.256L375.534 125H371.862L366.846 119.768H366.798V125H363.798ZM381.903 129.56C380.815 129.56 379.791 129.432 378.831 129.176C377.887 128.936 377.055 128.56 376.335 128.048L377.199 125.96C377.647 126.248 378.119 126.488 378.615 126.68C379.111 126.888 379.615 127.04 380.127 127.136C380.639 127.232 381.151 127.28 381.663 127.28C382.735 127.28 383.535 127.016 384.063 126.488C384.607 125.976 384.879 125.208 384.879 124.184V122.024H385.095C384.855 122.84 384.351 123.496 383.583 123.992C382.831 124.472 381.975 124.712 381.015 124.712C379.959 124.712 379.039 124.472 378.255 123.992C377.471 123.496 376.863 122.808 376.431 121.928C375.999 121.048 375.783 120.024 375.783 118.856C375.783 117.688 375.999 116.672 376.431 115.808C376.863 114.928 377.471 114.248 378.255 113.768C379.039 113.272 379.959 113.024 381.015 113.024C382.007 113.024 382.871 113.272 383.607 113.768C384.359 114.248 384.847 114.888 385.071 115.688H384.879V113.264H387.807V123.824C387.807 125.088 387.583 126.144 387.135 126.992C386.687 127.856 386.023 128.496 385.143 128.912C384.263 129.344 383.183 129.56 381.903 129.56ZM381.831 122.432C382.759 122.432 383.495 122.112 384.039 121.472C384.583 120.832 384.855 119.96 384.855 118.856C384.855 117.752 384.583 116.888 384.039 116.264C383.495 115.624 382.759 115.304 381.831 115.304C380.903 115.304 380.167 115.624 379.623 116.264C379.079 116.888 378.807 117.752 378.807 118.856C378.807 119.96 379.079 120.832 379.623 121.472C380.167 122.112 380.903 122.432 381.831 122.432Z" fill="black"/>
<rect x="313.5" y="138" width="69" height="19" rx="9.5" fill="white"/>
<path fill-rule="evenodd" clip-rule="evenodd" d="M328.783 144.779C328.906 144.901 328.906 145.099 328.783 145.221L325.033 148.971C324.911 149.093 324.714 149.093 324.592 148.971L323.25 147.629L320.658 150.221C320.536 150.343 320.339 150.343 320.217 150.221C320.094 150.099 320.094 149.901 320.217 149.779L323.029 146.967C323.151 146.844 323.349 146.844 323.471 146.967L324.812 148.308L328.342 144.779C328.464 144.657 328.661 144.657 328.783 144.779Z" fill="#24B364"/>
<path fill-rule="evenodd" clip-rule="evenodd" d="M325.75 145C325.75 144.827 325.89 144.688 326.062 144.688H328.562C328.735 144.688 328.875 144.827 328.875 145V147.5C328.875 147.673 328.735 147.812 328.562 147.812C328.39 147.812 328.25 147.673 328.25 147.5V145.312H326.062C325.89 145.312 325.75 145.173 325.75 145Z" fill="#24B364"/>
<path d="M338.11 150.6V148.5H336.06V147.75H338.11V145.72H338.89V147.75H340.94V148.5H338.89V150.6H338.11ZM342.536 151V150.1H344.266V144.83L344.806 144.86L342.886 146.06L342.446 145.26L344.556 143.95H345.326V150.1H346.936V151H342.536ZM348.122 151V149.77H349.392V151H348.122ZM353.101 151.09C352.795 151.09 352.495 151.06 352.201 151C351.915 150.933 351.645 150.837 351.391 150.71C351.145 150.583 350.925 150.433 350.731 150.26L351.111 149.44C351.418 149.693 351.735 149.88 352.061 150C352.388 150.12 352.731 150.18 353.091 150.18C353.551 150.18 353.911 150.06 354.171 149.82C354.431 149.58 354.561 149.253 354.561 148.84C354.561 148.413 354.438 148.073 354.191 147.82C353.945 147.567 353.605 147.44 353.171 147.44C352.871 147.44 352.601 147.5 352.361 147.62C352.128 147.733 351.911 147.92 351.711 148.18H350.941V143.95H355.191V144.85H351.941V147.33H351.771C351.938 147.09 352.161 146.9 352.441 146.76C352.728 146.62 353.045 146.55 353.391 146.55C353.838 146.55 354.225 146.647 354.551 146.84C354.878 147.027 355.131 147.287 355.311 147.62C355.491 147.953 355.581 148.343 355.581 148.79C355.581 149.25 355.481 149.653 355.281 150C355.081 150.347 354.795 150.617 354.421 150.81C354.048 150.997 353.608 151.09 353.101 151.09ZM359.018 151.09C358.471 151.09 358.008 150.953 357.628 150.68C357.254 150.4 356.971 149.99 356.778 149.45C356.584 148.91 356.488 148.25 356.488 147.47C356.488 146.683 356.584 146.023 356.778 145.49C356.971 144.95 357.254 144.543 357.628 144.27C358.008 143.997 358.471 143.86 359.018 143.86C359.571 143.86 360.034 143.997 360.408 144.27C360.788 144.543 361.071 144.947 361.258 145.48C361.451 146.013 361.548 146.673 361.548 147.46C361.548 148.24 361.451 148.903 361.258 149.45C361.064 149.99 360.781 150.4 360.408 150.68C360.034 150.953 359.571 151.09 359.018 151.09ZM359.018 150.2C359.524 150.2 359.898 149.98 360.138 149.54C360.384 149.093 360.508 148.4 360.508 147.46C360.508 146.52 360.384 145.833 360.138 145.4C359.898 144.967 359.524 144.75 359.018 144.75C358.518 144.75 358.144 144.97 357.898 145.41C357.651 145.843 357.528 146.527 357.528 147.46C357.528 148.4 357.648 149.093 357.888 149.54C358.134 149.98 358.511 150.2 359.018 150.2ZM365.528 151V143.95H366.588V148.23H366.618L368.708 146.08H369.998L367.438 148.68L367.448 148.23L370.198 151H368.888L366.618 148.76H366.588V151H365.528ZM372.982 152.89C372.562 152.89 372.159 152.837 371.772 152.73C371.385 152.623 371.049 152.467 370.762 152.26L371.082 151.48C371.269 151.6 371.462 151.703 371.662 151.79C371.869 151.877 372.079 151.94 372.292 151.98C372.505 152.027 372.719 152.05 372.932 152.05C373.419 152.05 373.789 151.93 374.042 151.69C374.295 151.45 374.422 151.1 374.422 150.64V149.72H374.462C374.349 150.06 374.135 150.337 373.822 150.55C373.509 150.757 373.145 150.86 372.732 150.86C372.279 150.86 371.882 150.76 371.542 150.56C371.209 150.353 370.949 150.067 370.762 149.7C370.582 149.333 370.492 148.907 370.492 148.42C370.492 147.933 370.582 147.51 370.762 147.15C370.949 146.783 371.209 146.5 371.542 146.3C371.882 146.093 372.279 145.99 372.732 145.99C373.152 145.99 373.519 146.097 373.832 146.31C374.145 146.517 374.355 146.797 374.462 147.15H374.422V146.08H375.432V150.53C375.432 151.037 375.335 151.467 375.142 151.82C374.955 152.173 374.679 152.44 374.312 152.62C373.945 152.8 373.502 152.89 372.982 152.89ZM372.972 150.03C373.412 150.03 373.759 149.887 374.012 149.6C374.272 149.307 374.402 148.913 374.402 148.42C374.402 147.927 374.272 147.537 374.012 147.25C373.759 146.963 373.412 146.82 372.972 146.82C372.532 146.82 372.182 146.963 371.922 147.25C371.669 147.537 371.542 147.927 371.542 148.42C371.542 148.913 371.669 149.307 371.922 149.6C372.182 149.887 372.532 150.03 372.972 150.03Z" fill="#24B364"/>
<path d="M21.6323 215.52V213H19.1603V212.112H21.6323V209.664H22.5443V212.112H25.0163V213H22.5443V215.52H21.6323ZM27.0876 216V214.956H29.0076V208.596H29.6316L27.5076 209.916L27.0036 208.992L29.3676 207.54H30.2436V214.956H32.0436V216H27.0876ZM33.5869 216V214.572H35.0149V216H33.5869ZM39.4586 216.108C39.0906 216.108 38.7306 216.068 38.3786 215.988C38.0346 215.908 37.7106 215.796 37.4066 215.652C37.1026 215.508 36.8386 215.332 36.6146 215.124L37.0346 214.164C37.4186 214.468 37.8066 214.692 38.1986 214.836C38.5906 214.98 39.0026 215.052 39.4346 215.052C39.9866 215.052 40.4186 214.904 40.7306 214.608C41.0426 214.312 41.1986 213.916 41.1986 213.42C41.1986 212.916 41.0506 212.504 40.7546 212.184C40.4586 211.864 40.0466 211.704 39.5186 211.704C39.1426 211.704 38.8066 211.78 38.5106 211.932C38.2226 212.084 37.9626 212.316 37.7306 212.628H36.8666V207.54H41.9066V208.584H38.0786V211.632H37.7426C37.9586 211.328 38.2426 211.092 38.5946 210.924C38.9546 210.756 39.3506 210.672 39.7826 210.672C40.3186 210.672 40.7826 210.784 41.1746 211.008C41.5666 211.232 41.8706 211.548 42.0866 211.956C42.3026 212.356 42.4106 212.824 42.4106 213.36C42.4106 213.904 42.2906 214.384 42.0506 214.8C41.8106 215.208 41.4706 215.528 41.0306 215.76C40.5906 215.992 40.0666 216.108 39.4586 216.108ZM46.5219 216.108C45.8659 216.108 45.3139 215.94 44.8659 215.604C44.4179 215.268 44.0779 214.78 43.8459 214.14C43.6139 213.492 43.4979 212.7 43.4979 211.764C43.4979 210.812 43.6139 210.016 43.8459 209.376C44.0779 208.736 44.4179 208.252 44.8659 207.924C45.3139 207.596 45.8659 207.432 46.5219 207.432C47.1859 207.432 47.7419 207.596 48.1899 207.924C48.6379 208.244 48.9739 208.724 49.1979 209.364C49.4299 210.004 49.5459 210.8 49.5459 211.752C49.5459 212.688 49.4299 213.48 49.1979 214.128C48.9659 214.776 48.6259 215.268 48.1779 215.604C47.7299 215.94 47.1779 216.108 46.5219 216.108ZM46.5219 215.076C47.1379 215.076 47.5899 214.808 47.8779 214.272C48.1739 213.736 48.3219 212.896 48.3219 211.752C48.3219 210.608 48.1739 209.776 47.8779 209.256C47.5899 208.728 47.1379 208.464 46.5219 208.464C45.9139 208.464 45.4619 208.728 45.1659 209.256C44.8699 209.776 44.7219 210.608 44.7219 211.752C44.7219 212.896 44.8699 213.736 45.1659 214.272C45.4619 214.808 45.9139 215.076 46.5219 215.076ZM54.1215 216V207.54H55.3335V212.7H55.3575L57.9015 210.144H59.4015L56.3175 213.24V212.676L59.6175 216H58.1055L55.3575 213.324H55.3335V216H54.1215ZM62.8321 218.268C62.3041 218.268 61.8121 218.204 61.3561 218.076C60.9001 217.948 60.4961 217.756 60.1441 217.5L60.5161 216.636C60.7481 216.788 60.9841 216.916 61.2241 217.02C61.4721 217.132 61.7201 217.212 61.9681 217.26C62.2241 217.308 62.4841 217.332 62.7481 217.332C63.3081 217.332 63.7281 217.188 64.0081 216.9C64.2881 216.62 64.4281 216.204 64.4281 215.652V214.428H64.5361C64.4161 214.868 64.1641 215.216 63.7801 215.472C63.3961 215.728 62.9521 215.856 62.4481 215.856C61.9201 215.856 61.4601 215.736 61.0681 215.496C60.6761 215.248 60.3721 214.908 60.1561 214.476C59.9401 214.036 59.8321 213.524 59.8321 212.94C59.8321 212.356 59.9401 211.848 60.1561 211.416C60.3721 210.984 60.6761 210.648 61.0681 210.408C61.4601 210.16 61.9201 210.036 62.4481 210.036C62.9601 210.036 63.4041 210.164 63.7801 210.42C64.1641 210.676 64.4121 211.024 64.5241 211.464H64.4281V210.144H65.6041V215.508C65.6041 216.116 65.5001 216.624 65.2921 217.032C65.0841 217.448 64.7721 217.756 64.3561 217.956C63.9481 218.164 63.4401 218.268 62.8321 218.268ZM62.7361 214.908C63.2561 214.908 63.6641 214.732 63.9601 214.38C64.2641 214.028 64.4161 213.548 64.4161 212.94C64.4161 212.34 64.2641 211.864 63.9601 211.512C63.6641 211.16 63.2561 210.984 62.7361 210.984C62.2241 210.984 61.8161 211.16 61.5121 211.512C61.2081 211.864 61.0561 212.34 61.0561 212.94C61.0561 213.548 61.2081 214.028 61.5121 214.38C61.8161 214.732 62.2241 214.908 62.7361 214.908ZM72.6895 216.108C72.1775 216.108 71.7255 215.988 71.3335 215.748C70.9495 215.5 70.6495 215.148 70.4335 214.692C70.2175 214.228 70.1095 213.688 70.1095 213.072C70.1095 212.44 70.2175 211.9 70.4335 211.452C70.6495 211.004 70.9495 210.656 71.3335 210.408C71.7255 210.16 72.1775 210.036 72.6895 210.036C73.2015 210.036 73.6415 210.164 74.0095 210.42C74.3855 210.668 74.6375 211.004 74.7655 211.428H74.6335V207.54H75.8455V216H74.6575V214.68H74.7775C74.6495 215.112 74.3975 215.46 74.0215 215.724C73.6535 215.98 73.2095 216.108 72.6895 216.108ZM73.0015 215.172C73.4975 215.172 73.8975 214.992 74.2015 214.632C74.5055 214.272 74.6575 213.752 74.6575 213.072C74.6575 212.384 74.5055 211.864 74.2015 211.512C73.8975 211.16 73.4975 210.984 73.0015 210.984C72.4975 210.984 72.0935 211.16 71.7895 211.512C71.4855 211.864 71.3335 212.384 71.3335 213.072C71.3335 213.752 71.4855 214.272 71.7895 214.632C72.0935 214.992 72.4975 215.172 73.0015 215.172ZM77.4393 208.788V207.528H78.8553V208.788H77.4393ZM77.5473 216V210.144H78.7593V216H77.5473ZM82.5173 216.108C82.2053 216.108 81.9013 216.08 81.6053 216.024C81.3093 215.968 81.0373 215.888 80.7893 215.784C80.5413 215.68 80.3213 215.552 80.1293 215.4L80.4773 214.584C80.6773 214.72 80.8893 214.84 81.1133 214.944C81.3373 215.04 81.5693 215.112 81.8093 215.16C82.0573 215.208 82.2973 215.232 82.5293 215.232C82.9533 215.232 83.2733 215.156 83.4893 215.004C83.7053 214.852 83.8133 214.648 83.8133 214.392C83.8133 214.184 83.7413 214.024 83.5973 213.912C83.4533 213.792 83.2373 213.7 82.9493 213.636L81.8093 213.408C81.3133 213.304 80.9373 213.12 80.6813 212.856C80.4253 212.592 80.2973 212.256 80.2973 211.848C80.2973 211.48 80.3973 211.16 80.5973 210.888C80.7973 210.616 81.0773 210.408 81.4373 210.264C81.7973 210.112 82.2133 210.036 82.6853 210.036C82.9573 210.036 83.2213 210.064 83.4773 210.12C83.7333 210.176 83.9733 210.256 84.1973 210.36C84.4293 210.464 84.6253 210.596 84.7853 210.756L84.4373 211.572C84.2853 211.436 84.1093 211.32 83.9093 211.224C83.7173 211.128 83.5173 211.056 83.3093 211.008C83.1013 210.952 82.8933 210.924 82.6853 210.924C82.2613 210.924 81.9413 211.004 81.7253 211.164C81.5173 211.316 81.4133 211.524 81.4133 211.788C81.4133 211.988 81.4773 212.152 81.6053 212.28C81.7333 212.408 81.9333 212.5 82.2053 212.556L83.3453 212.784C83.8653 212.888 84.2573 213.064 84.5213 213.312C84.7933 213.56 84.9293 213.896 84.9293 214.32C84.9293 214.688 84.8293 215.008 84.6293 215.28C84.4293 215.552 84.1453 215.76 83.7773 215.904C83.4173 216.04 82.9973 216.108 82.5173 216.108ZM88.8578 216.108C88.2578 216.108 87.7378 215.984 87.2978 215.736C86.8658 215.48 86.5298 215.124 86.2898 214.668C86.0498 214.204 85.9298 213.66 85.9298 213.036C85.9298 212.42 86.0498 211.888 86.2898 211.44C86.5298 210.992 86.8658 210.648 87.2978 210.408C87.7378 210.16 88.2578 210.036 88.8578 210.036C89.2258 210.036 89.5898 210.1 89.9498 210.228C90.3098 210.348 90.6058 210.524 90.8378 210.756L90.4538 211.608C90.2378 211.4 89.9938 211.248 89.7218 211.152C89.4498 211.048 89.1938 210.996 88.9538 210.996C88.3858 210.996 87.9458 211.176 87.6338 211.536C87.3298 211.888 87.1778 212.392 87.1778 213.048C87.1778 213.704 87.3298 214.22 87.6338 214.596C87.9458 214.964 88.3858 215.148 88.9538 215.148C89.1938 215.148 89.4498 215.1 89.7218 215.004C89.9938 214.9 90.2378 214.744 90.4538 214.536L90.8378 215.4C90.6058 215.616 90.3058 215.788 89.9378 215.916C89.5778 216.044 89.2178 216.108 88.8578 216.108ZM91.8793 216V210.144H93.0553V211.548H92.9353C93.0633 211.068 93.2913 210.704 93.6193 210.456C93.9553 210.208 94.3993 210.064 94.9513 210.024L95.3473 210L95.4313 211.032L94.6993 211.104C94.1793 211.152 93.7833 211.316 93.5113 211.596C93.2393 211.876 93.1033 212.26 93.1033 212.748V216H91.8793ZM99.0219 216.108C98.3819 216.108 97.8299 215.988 97.3659 215.748C96.9099 215.5 96.5539 215.152 96.2979 214.704C96.0499 214.248 95.9259 213.708 95.9259 213.084C95.9259 212.476 96.0499 211.944 96.2979 211.488C96.5459 211.032 96.8859 210.676 97.3179 210.42C97.7499 210.164 98.2419 210.036 98.7939 210.036C99.3379 210.036 99.8019 210.156 100.186 210.396C100.578 210.628 100.878 210.96 101.086 211.392C101.294 211.824 101.398 212.34 101.398 212.94V213.348H96.8859V212.604H100.582L100.378 212.772C100.378 212.172 100.246 211.708 99.9819 211.38C99.7179 211.052 99.3379 210.888 98.8419 210.888C98.4659 210.888 98.1459 210.976 97.8819 211.152C97.6259 211.328 97.4299 211.572 97.2939 211.884C97.1579 212.196 97.0899 212.56 97.0899 212.976V213.048C97.0899 213.512 97.1619 213.904 97.3059 214.224C97.4579 214.536 97.6779 214.772 97.9659 214.932C98.2539 215.092 98.6099 215.172 99.0339 215.172C99.3699 215.172 99.6979 215.12 100.018 215.016C100.346 214.904 100.654 214.732 100.942 214.5L101.302 215.34C101.038 215.58 100.698 215.768 100.282 215.904C99.8659 216.04 99.4459 216.108 99.0219 216.108ZM102.719 218.16V210.144H103.907V211.464H103.775C103.903 211.032 104.155 210.688 104.531 210.432C104.907 210.168 105.351 210.036 105.863 210.036C106.383 210.036 106.835 210.16 107.219 210.408C107.611 210.656 107.911 211.004 108.119 211.452C108.335 211.9 108.443 212.44 108.443 213.072C108.443 213.688 108.335 214.228 108.119 214.692C107.911 215.148 107.615 215.5 107.231 215.748C106.847 215.988 106.391 216.108 105.863 216.108C105.359 216.108 104.919 215.98 104.543 215.724C104.167 215.468 103.915 215.128 103.787 214.704H103.931V218.16H102.719ZM105.563 215.172C106.067 215.172 106.467 214.992 106.763 214.632C107.067 214.272 107.219 213.752 107.219 213.072C107.219 212.384 107.067 211.864 106.763 211.512C106.467 211.16 106.067 210.984 105.563 210.984C105.067 210.984 104.667 211.16 104.363 211.512C104.059 211.864 103.907 212.384 103.907 213.072C103.907 213.752 104.059 214.272 104.363 214.632C104.667 214.992 105.067 215.172 105.563 215.172ZM111.681 216.108C111.273 216.108 110.905 216.028 110.577 215.868C110.257 215.708 110.005 215.492 109.821 215.22C109.637 214.948 109.545 214.64 109.545 214.296C109.545 213.864 109.653 213.524 109.869 213.276C110.093 213.02 110.457 212.84 110.961 212.736C111.473 212.624 112.161 212.568 113.025 212.568H113.589V213.312H113.037C112.605 213.312 112.241 213.328 111.945 213.36C111.649 213.392 111.413 213.444 111.237 213.516C111.061 213.58 110.933 213.672 110.853 213.792C110.781 213.912 110.745 214.056 110.745 214.224C110.745 214.528 110.849 214.776 111.057 214.968C111.265 215.152 111.553 215.244 111.921 215.244C112.217 215.244 112.477 215.176 112.701 215.04C112.925 214.896 113.101 214.704 113.229 214.464C113.365 214.224 113.433 213.948 113.433 213.636V212.256C113.433 211.8 113.337 211.472 113.145 211.272C112.953 211.072 112.637 210.972 112.197 210.972C111.861 210.972 111.525 211.024 111.189 211.128C110.853 211.224 110.509 211.38 110.157 211.596L109.785 210.744C109.993 210.6 110.233 210.476 110.505 210.372C110.777 210.268 111.061 210.188 111.357 210.132C111.661 210.068 111.953 210.036 112.233 210.036C112.769 210.036 113.209 210.12 113.553 210.288C113.905 210.456 114.165 210.712 114.333 211.056C114.501 211.4 114.585 211.844 114.585 212.388V216H113.445V214.692H113.553C113.489 214.988 113.369 215.244 113.193 215.46C113.025 215.668 112.813 215.828 112.557 215.94C112.301 216.052 112.009 216.108 111.681 216.108ZM116.254 216V210.144H117.43V211.392H117.298C117.474 210.944 117.75 210.608 118.126 210.384C118.502 210.152 118.934 210.036 119.422 210.036C119.886 210.036 120.27 210.124 120.574 210.3C120.886 210.468 121.118 210.728 121.27 211.08C121.422 211.424 121.498 211.86 121.498 212.388V216H120.286V212.46C120.286 212.124 120.242 211.852 120.154 211.644C120.066 211.428 119.934 211.268 119.758 211.164C119.582 211.06 119.354 211.008 119.074 211.008C118.754 211.008 118.47 211.076 118.222 211.212C117.982 211.348 117.794 211.544 117.658 211.8C117.53 212.056 117.466 212.352 117.466 212.688V216H116.254ZM125.748 216.108C125.148 216.108 124.628 215.984 124.188 215.736C123.756 215.48 123.42 215.124 123.18 214.668C122.94 214.204 122.82 213.66 122.82 213.036C122.82 212.42 122.94 211.888 123.18 211.44C123.42 210.992 123.756 210.648 124.188 210.408C124.628 210.16 125.148 210.036 125.748 210.036C126.116 210.036 126.48 210.1 126.84 210.228C127.2 210.348 127.496 210.524 127.728 210.756L127.344 211.608C127.128 211.4 126.884 211.248 126.612 211.152C126.34 211.048 126.084 210.996 125.844 210.996C125.276 210.996 124.836 211.176 124.524 211.536C124.22 211.888 124.068 212.392 124.068 213.048C124.068 213.704 124.22 214.22 124.524 214.596C124.836 214.964 125.276 215.148 125.844 215.148C126.084 215.148 126.34 215.1 126.612 215.004C126.884 214.9 127.128 214.744 127.344 214.536L127.728 215.4C127.496 215.616 127.196 215.788 126.828 215.916C126.468 216.044 126.108 216.108 125.748 216.108ZM129.44 218.16L130.592 215.592V216.108L128.036 210.144H129.332L131.3 215.004H130.964L132.956 210.144H134.204L130.712 218.16H129.44ZM142.523 216L140.735 213.3C140.615 213.108 140.487 212.952 140.351 212.832C140.223 212.712 140.079 212.628 139.919 212.58C139.759 212.532 139.567 212.508 139.343 212.508H137.627V211.512H140.027C140.459 211.512 140.815 211.456 141.095 211.344C141.375 211.232 141.587 211.064 141.731 210.84C141.883 210.616 141.967 210.332 141.983 209.988L142.163 210.276H137.627V209.4H142.163L141.959 209.676C141.895 209.26 141.707 208.948 141.395 208.74C141.091 208.524 140.659 208.416 140.099 208.416H137.627V207.54H144.323V208.416H141.995L142.163 208.14C142.459 208.292 142.691 208.492 142.859 208.74C143.027 208.988 143.131 209.276 143.171 209.604L142.931 209.4H144.323V210.276H142.967L143.195 209.94C143.211 210.452 143.103 210.896 142.871 211.272C142.647 211.648 142.319 211.94 141.887 212.148C141.463 212.348 140.947 212.448 140.339 212.448V212.328H140.603C140.819 212.328 141.019 212.36 141.203 212.424C141.387 212.48 141.559 212.58 141.719 212.724C141.879 212.868 142.039 213.06 142.199 213.3L143.999 216H142.523ZM147.558 216.108C147.27 216.108 146.974 216.072 146.67 216C146.374 215.92 146.094 215.804 145.83 215.652C145.566 215.5 145.334 215.324 145.134 215.124L145.566 214.176C145.862 214.464 146.182 214.684 146.526 214.836C146.87 214.98 147.218 215.052 147.57 215.052C147.946 215.052 148.278 214.984 148.566 214.848C148.854 214.712 149.094 214.508 149.286 214.236C149.486 213.964 149.634 213.628 149.73 213.228C149.834 212.82 149.886 212.352 149.886 211.824V210.804H150.006C149.95 211.228 149.814 211.6 149.598 211.92C149.39 212.24 149.118 212.484 148.782 212.652C148.454 212.82 148.082 212.904 147.666 212.904C147.178 212.904 146.742 212.788 146.358 212.556C145.982 212.324 145.682 212.004 145.458 211.596C145.242 211.188 145.134 210.728 145.134 210.216C145.134 209.672 145.25 209.192 145.482 208.776C145.722 208.352 146.046 208.024 146.454 207.792C146.862 207.552 147.334 207.432 147.87 207.432C148.558 207.432 149.138 207.596 149.61 207.924C150.082 208.244 150.442 208.716 150.69 209.34C150.946 209.964 151.074 210.712 151.074 211.584C151.074 212.552 150.934 213.372 150.654 214.044C150.374 214.716 149.974 215.228 149.454 215.58C148.934 215.932 148.302 216.108 147.558 216.108ZM147.954 211.884C148.274 211.884 148.558 211.812 148.806 211.668C149.054 211.524 149.246 211.324 149.382 211.068C149.526 210.804 149.598 210.5 149.598 210.156C149.598 209.82 149.526 209.524 149.382 209.268C149.246 209.004 149.054 208.8 148.806 208.656C148.558 208.504 148.274 208.428 147.954 208.428C147.626 208.428 147.338 208.504 147.09 208.656C146.85 208.8 146.658 209.004 146.514 209.268C146.378 209.524 146.31 209.82 146.31 210.156C146.31 210.5 146.378 210.804 146.514 211.068C146.658 211.324 146.85 211.524 147.09 211.668C147.338 211.812 147.626 211.884 147.954 211.884ZM155.666 216.108C154.986 216.108 154.406 215.944 153.926 215.616C153.454 215.288 153.09 214.816 152.834 214.2C152.586 213.576 152.462 212.828 152.462 211.956C152.462 210.98 152.602 210.16 152.882 209.496C153.162 208.824 153.566 208.312 154.094 207.96C154.622 207.608 155.254 207.432 155.99 207.432C156.278 207.432 156.57 207.472 156.866 207.552C157.162 207.632 157.442 207.744 157.706 207.888C157.978 208.032 158.21 208.208 158.402 208.416L157.97 209.352C157.674 209.064 157.354 208.848 157.01 208.704C156.674 208.56 156.326 208.488 155.966 208.488C155.59 208.488 155.258 208.556 154.97 208.692C154.69 208.828 154.45 209.032 154.25 209.304C154.058 209.576 153.91 209.912 153.806 210.312C153.71 210.712 153.662 211.18 153.662 211.716V212.736H153.53C153.586 212.304 153.718 211.932 153.926 211.62C154.142 211.3 154.418 211.056 154.754 210.888C155.09 210.72 155.462 210.636 155.87 210.636C156.366 210.636 156.802 210.752 157.178 210.984C157.562 211.208 157.862 211.524 158.078 211.932C158.294 212.34 158.402 212.804 158.402 213.324C158.402 213.86 158.286 214.34 158.054 214.764C157.822 215.188 157.498 215.52 157.082 215.76C156.674 215.992 156.202 216.108 155.666 216.108ZM155.594 215.1C155.922 215.1 156.21 215.028 156.458 214.884C156.706 214.74 156.898 214.54 157.034 214.284C157.17 214.02 157.238 213.716 157.238 213.372C157.238 213.028 157.17 212.728 157.034 212.472C156.898 212.216 156.706 212.016 156.458 211.872C156.21 211.72 155.922 211.644 155.594 211.644C155.266 211.644 154.978 211.72 154.73 211.872C154.49 212.016 154.298 212.216 154.154 212.472C154.018 212.728 153.95 213.028 153.95 213.372C153.95 213.716 154.018 214.02 154.154 214.284C154.298 214.54 154.494 214.74 154.742 214.884C154.99 215.028 155.274 215.1 155.594 215.1ZM165.509 216.108C164.917 216.108 164.405 215.984 163.973 215.736C163.549 215.488 163.217 215.136 162.977 214.68C162.737 214.224 162.617 213.688 162.617 213.072C162.617 212.448 162.737 211.912 162.977 211.464C163.217 211.008 163.549 210.656 163.973 210.408C164.405 210.16 164.917 210.036 165.509 210.036C166.093 210.036 166.597 210.16 167.021 210.408C167.453 210.656 167.789 211.008 168.029 211.464C168.269 211.92 168.389 212.456 168.389 213.072C168.389 213.688 168.269 214.224 168.029 214.68C167.789 215.136 167.453 215.488 167.021 215.736C166.597 215.984 166.093 216.108 165.509 216.108ZM165.497 215.172C166.001 215.172 166.405 214.992 166.709 214.632C167.013 214.272 167.165 213.752 167.165 213.072C167.165 212.384 167.013 211.864 166.709 211.512C166.405 211.16 166.001 210.984 165.497 210.984C165.001 210.984 164.601 211.16 164.297 211.512C163.993 211.864 163.841 212.384 163.841 213.072C163.841 213.752 163.993 214.272 164.297 214.632C164.601 214.992 165.001 215.172 165.497 215.172ZM171.361 216L168.841 210.144H170.149L172.105 215.004H171.769L173.773 210.144H175.009L172.453 216H171.361ZM178.522 216.108C177.882 216.108 177.33 215.988 176.866 215.748C176.41 215.5 176.054 215.152 175.798 214.704C175.55 214.248 175.426 213.708 175.426 213.084C175.426 212.476 175.55 211.944 175.798 211.488C176.046 211.032 176.386 210.676 176.818 210.42C177.25 210.164 177.742 210.036 178.294 210.036C178.838 210.036 179.302 210.156 179.686 210.396C180.078 210.628 180.378 210.96 180.586 211.392C180.794 211.824 180.898 212.34 180.898 212.94V213.348H176.386V212.604H180.082L179.878 212.772C179.878 212.172 179.746 211.708 179.482 211.38C179.218 211.052 178.838 210.888 178.342 210.888C177.966 210.888 177.646 210.976 177.382 211.152C177.126 211.328 176.93 211.572 176.794 211.884C176.658 212.196 176.59 212.56 176.59 212.976V213.048C176.59 213.512 176.662 213.904 176.806 214.224C176.958 214.536 177.178 214.772 177.466 214.932C177.754 215.092 178.11 215.172 178.534 215.172C178.87 215.172 179.198 215.12 179.518 215.016C179.846 214.904 180.154 214.732 180.442 214.5L180.802 215.34C180.538 215.58 180.198 215.768 179.782 215.904C179.366 216.04 178.946 216.108 178.522 216.108ZM182.219 216V210.144H183.395V211.548H183.275C183.403 211.068 183.631 210.704 183.959 210.456C184.295 210.208 184.739 210.064 185.291 210.024L185.687 210L185.771 211.032L185.039 211.104C184.519 211.152 184.123 211.316 183.851 211.596C183.579 211.876 183.443 212.26 183.443 212.748V216H182.219ZM189.84 216.108C189.328 216.108 188.884 215.98 188.508 215.724C188.132 215.46 187.88 215.112 187.752 214.68H187.884V216H186.696V207.54H187.908V211.428H187.764C187.892 211.004 188.144 210.668 188.52 210.42C188.896 210.164 189.336 210.036 189.84 210.036C190.368 210.036 190.824 210.16 191.208 210.408C191.592 210.656 191.888 211.004 192.096 211.452C192.312 211.9 192.42 212.44 192.42 213.072C192.42 213.688 192.312 214.228 192.096 214.692C191.888 215.148 191.588 215.5 191.196 215.748C190.812 215.988 190.36 216.108 189.84 216.108ZM189.54 215.172C190.044 215.172 190.444 214.992 190.74 214.632C191.044 214.272 191.196 213.752 191.196 213.072C191.196 212.384 191.044 211.864 190.74 211.512C190.444 211.16 190.044 210.984 189.54 210.984C189.044 210.984 188.644 211.16 188.34 211.512C188.036 211.864 187.884 212.384 187.884 213.072C187.884 213.752 188.036 214.272 188.34 214.632C188.644 214.992 189.044 215.172 189.54 215.172ZM193.678 208.788V207.528H195.094V208.788H193.678ZM193.786 216V210.144H194.998V216H193.786ZM198.612 216.108C197.972 216.108 197.492 215.928 197.172 215.568C196.86 215.2 196.704 214.672 196.704 213.984V207.54H197.916V213.912C197.916 214.168 197.952 214.388 198.024 214.572C198.096 214.748 198.204 214.88 198.348 214.968C198.492 215.056 198.672 215.1 198.888 215.1C198.984 215.1 199.076 215.096 199.164 215.088C199.252 215.08 199.336 215.064 199.416 215.04L199.392 216.012C199.256 216.044 199.124 216.068 198.996 216.084C198.868 216.1 198.74 216.108 198.612 216.108ZM202.28 216.108C201.64 216.108 201.16 215.928 200.84 215.568C200.528 215.2 200.372 214.672 200.372 213.984V207.54H201.584V213.912C201.584 214.168 201.62 214.388 201.692 214.572C201.764 214.748 201.872 214.88 202.016 214.968C202.16 215.056 202.34 215.1 202.556 215.1C202.652 215.1 202.744 215.096 202.832 215.088C202.92 215.08 203.004 215.064 203.084 215.04L203.06 216.012C202.924 216.044 202.792 216.068 202.664 216.084C202.536 216.1 202.408 216.108 202.28 216.108ZM206.729 216.108C206.089 216.108 205.537 215.988 205.073 215.748C204.617 215.5 204.261 215.152 204.005 214.704C203.757 214.248 203.633 213.708 203.633 213.084C203.633 212.476 203.757 211.944 204.005 211.488C204.253 211.032 204.593 210.676 205.025 210.42C205.457 210.164 205.949 210.036 206.501 210.036C207.045 210.036 207.509 210.156 207.893 210.396C208.285 210.628 208.585 210.96 208.793 211.392C209.001 211.824 209.105 212.34 209.105 212.94V213.348H204.593V212.604H208.289L208.085 212.772C208.085 212.172 207.953 211.708 207.689 211.38C207.425 211.052 207.045 210.888 206.549 210.888C206.173 210.888 205.853 210.976 205.589 211.152C205.333 211.328 205.137 211.572 205.001 211.884C204.865 212.196 204.797 212.56 204.797 212.976V213.048C204.797 213.512 204.869 213.904 205.013 214.224C205.165 214.536 205.385 214.772 205.673 214.932C205.961 215.092 206.317 215.172 206.741 215.172C207.077 215.172 207.405 215.12 207.725 215.016C208.053 214.904 208.361 214.732 208.649 214.5L209.009 215.34C208.745 215.58 208.405 215.768 207.989 215.904C207.573 216.04 207.153 216.108 206.729 216.108ZM212.658 216.108C212.146 216.108 211.694 215.988 211.302 215.748C210.918 215.5 210.618 215.148 210.402 214.692C210.186 214.228 210.078 213.688 210.078 213.072C210.078 212.44 210.186 211.9 210.402 211.452C210.618 211.004 210.918 210.656 211.302 210.408C211.694 210.16 212.146 210.036 212.658 210.036C213.17 210.036 213.61 210.164 213.978 210.42C214.354 210.668 214.606 211.004 214.734 211.428H214.602V207.54H215.814V216H214.626V214.68H214.746C214.618 215.112 214.366 215.46 213.99 215.724C213.622 215.98 213.178 216.108 212.658 216.108ZM212.97 215.172C213.466 215.172 213.866 214.992 214.17 214.632C214.474 214.272 214.626 213.752 214.626 213.072C214.626 212.384 214.474 211.864 214.17 211.512C213.866 211.16 213.466 210.984 212.97 210.984C212.466 210.984 212.062 211.16 211.758 211.512C211.454 211.864 211.302 212.384 211.302 213.072C211.302 213.752 211.454 214.272 211.758 214.632C212.062 214.992 212.466 215.172 212.97 215.172ZM217.372 216V214.572H218.8V216H217.372Z" fill="#444050"/>
<rect x="16" y="243" width="430" height="40" rx="8" fill="black"/>
<path d="M119.444 268L123.84 258.13H125.044L129.454 268H127.97L126.766 265.2L127.424 265.592H121.46L122.104 265.2L120.914 268H119.444ZM124.428 259.74L122.314 264.752L121.964 264.416H126.906L126.584 264.752L124.456 259.74H124.428ZM133.029 268.126C132.478 268.126 132.016 268.023 131.643 267.818C131.279 267.613 131.003 267.309 130.817 266.908C130.639 266.497 130.551 265.984 130.551 265.368V261.168H131.965V265.382C131.965 265.746 132.011 266.049 132.105 266.292C132.207 266.535 132.361 266.712 132.567 266.824C132.781 266.936 133.047 266.992 133.365 266.992C133.719 266.992 134.032 266.913 134.303 266.754C134.573 266.595 134.783 266.367 134.933 266.068C135.082 265.769 135.157 265.424 135.157 265.032V261.168H136.571V268H135.199V266.502H135.381C135.194 267.025 134.895 267.426 134.485 267.706C134.074 267.986 133.589 268.126 133.029 268.126ZM141.475 268.126C140.626 268.126 139.987 267.907 139.557 267.468C139.137 267.029 138.927 266.395 138.927 265.564V262.26H137.597V261.168H138.927V259.11H140.341V261.168H142.455V262.26H140.341V265.452C140.341 265.947 140.444 266.32 140.649 266.572C140.864 266.824 141.209 266.95 141.685 266.95C141.825 266.95 141.965 266.931 142.105 266.894C142.255 266.857 142.399 266.819 142.539 266.782L142.763 267.846C142.623 267.93 142.427 267.995 142.175 268.042C141.933 268.098 141.699 268.126 141.475 268.126ZM146.576 268.126C145.886 268.126 145.288 267.981 144.784 267.692C144.29 267.403 143.902 266.992 143.622 266.46C143.342 265.928 143.202 265.303 143.202 264.584C143.202 263.856 143.342 263.231 143.622 262.708C143.902 262.176 144.29 261.765 144.784 261.476C145.288 261.187 145.886 261.042 146.576 261.042C147.258 261.042 147.846 261.187 148.34 261.476C148.844 261.765 149.236 262.176 149.516 262.708C149.796 263.24 149.936 263.865 149.936 264.584C149.936 265.303 149.796 265.928 149.516 266.46C149.236 266.992 148.844 267.403 148.34 267.692C147.846 267.981 147.258 268.126 146.576 268.126ZM146.562 267.034C147.15 267.034 147.622 266.824 147.976 266.404C148.331 265.984 148.508 265.377 148.508 264.584C148.508 263.781 148.331 263.175 147.976 262.764C147.622 262.353 147.15 262.148 146.562 262.148C145.984 262.148 145.517 262.353 145.162 262.764C144.808 263.175 144.63 263.781 144.63 264.584C144.63 265.377 144.808 265.984 145.162 266.404C145.517 266.824 145.984 267.034 146.562 267.034ZM151.715 264.836V263.688H155.747V264.836H151.715ZM158.137 268V262.26H156.807V261.168H158.543L158.137 261.546V261.042C158.137 260.109 158.375 259.404 158.851 258.928C159.337 258.443 160.079 258.172 161.077 258.116L161.637 258.088L161.721 259.152L161.147 259.18C160.765 259.199 160.457 259.273 160.223 259.404C159.99 259.535 159.817 259.721 159.705 259.964C159.603 260.197 159.551 260.491 159.551 260.846V261.336V261.168H163.905V268H162.491V262.26H159.551V268H158.137ZM162.365 259.586V258.116H164.017V259.586H162.365ZM168.106 268.126C167.359 268.126 166.799 267.916 166.426 267.496C166.062 267.067 165.88 266.451 165.88 265.648V258.13H167.294V265.564C167.294 265.863 167.336 266.119 167.42 266.334C167.504 266.539 167.63 266.693 167.798 266.796C167.966 266.899 168.176 266.95 168.428 266.95C168.54 266.95 168.647 266.945 168.75 266.936C168.852 266.927 168.95 266.908 169.044 266.88L169.016 268.014C168.857 268.051 168.703 268.079 168.554 268.098C168.404 268.117 168.255 268.126 168.106 268.126ZM173.297 268.126C172.55 268.126 171.906 267.986 171.365 267.706C170.833 267.417 170.417 267.011 170.119 266.488C169.829 265.956 169.685 265.326 169.685 264.598C169.685 263.889 169.829 263.268 170.119 262.736C170.408 262.204 170.805 261.789 171.309 261.49C171.813 261.191 172.387 261.042 173.031 261.042C173.665 261.042 174.207 261.182 174.655 261.462C175.112 261.733 175.462 262.12 175.705 262.624C175.947 263.128 176.069 263.73 176.069 264.43V264.906H170.805V264.038H175.117L174.879 264.234C174.879 263.534 174.725 262.993 174.417 262.61C174.109 262.227 173.665 262.036 173.087 262.036C172.648 262.036 172.275 262.139 171.967 262.344C171.668 262.549 171.439 262.834 171.281 263.198C171.122 263.562 171.043 263.987 171.043 264.472V264.556C171.043 265.097 171.127 265.555 171.295 265.928C171.472 266.292 171.729 266.567 172.065 266.754C172.401 266.941 172.816 267.034 173.311 267.034C173.703 267.034 174.085 266.973 174.459 266.852C174.841 266.721 175.201 266.521 175.537 266.25L175.957 267.23C175.649 267.51 175.252 267.729 174.767 267.888C174.281 268.047 173.791 268.126 173.297 268.126ZM183.892 268.126C183.295 268.126 182.767 267.986 182.31 267.706C181.862 267.417 181.512 267.006 181.26 266.474C181.008 265.933 180.882 265.303 180.882 264.584C180.882 263.847 181.008 263.217 181.26 262.694C181.512 262.171 181.862 261.765 182.31 261.476C182.767 261.187 183.295 261.042 183.892 261.042C184.489 261.042 185.003 261.191 185.432 261.49C185.871 261.779 186.165 262.171 186.314 262.666H186.16V258.13H187.574V268H186.188V266.46H186.328C186.179 266.964 185.885 267.37 185.446 267.678C185.017 267.977 184.499 268.126 183.892 268.126ZM184.256 267.034C184.835 267.034 185.301 266.824 185.656 266.404C186.011 265.984 186.188 265.377 186.188 264.584C186.188 263.781 186.011 263.175 185.656 262.764C185.301 262.353 184.835 262.148 184.256 262.148C183.668 262.148 183.197 262.353 182.842 262.764C182.487 263.175 182.31 263.781 182.31 264.584C182.31 265.377 182.487 265.984 182.842 266.404C183.197 266.824 183.668 267.034 184.256 267.034ZM189.433 259.586V258.116H191.085V259.586H189.433ZM189.559 268V261.168H190.973V268H189.559ZM195.358 268.126C194.994 268.126 194.639 268.093 194.294 268.028C193.948 267.963 193.631 267.869 193.342 267.748C193.052 267.627 192.796 267.477 192.572 267.3L192.978 266.348C193.211 266.507 193.458 266.647 193.72 266.768C193.981 266.88 194.252 266.964 194.532 267.02C194.821 267.076 195.101 267.104 195.372 267.104C195.866 267.104 196.24 267.015 196.492 266.838C196.744 266.661 196.87 266.423 196.87 266.124C196.87 265.881 196.786 265.695 196.618 265.564C196.45 265.424 196.198 265.317 195.862 265.242L194.532 264.976C193.953 264.855 193.514 264.64 193.216 264.332C192.917 264.024 192.768 263.632 192.768 263.156C192.768 262.727 192.884 262.353 193.118 262.036C193.351 261.719 193.678 261.476 194.098 261.308C194.518 261.131 195.003 261.042 195.554 261.042C195.871 261.042 196.179 261.075 196.478 261.14C196.776 261.205 197.056 261.299 197.318 261.42C197.588 261.541 197.817 261.695 198.004 261.882L197.598 262.834C197.42 262.675 197.215 262.54 196.982 262.428C196.758 262.316 196.524 262.232 196.282 262.176C196.039 262.111 195.796 262.078 195.554 262.078C195.059 262.078 194.686 262.171 194.434 262.358C194.191 262.535 194.07 262.778 194.07 263.086C194.07 263.319 194.144 263.511 194.294 263.66C194.443 263.809 194.676 263.917 194.994 263.982L196.324 264.248C196.93 264.369 197.388 264.575 197.696 264.864C198.013 265.153 198.172 265.545 198.172 266.04C198.172 266.469 198.055 266.843 197.822 267.16C197.588 267.477 197.257 267.72 196.828 267.888C196.408 268.047 195.918 268.126 195.358 268.126ZM199.745 270.52V261.168H201.131V262.708H200.977C201.126 262.204 201.42 261.803 201.859 261.504C202.298 261.196 202.816 261.042 203.413 261.042C204.02 261.042 204.547 261.187 204.995 261.476C205.452 261.765 205.802 262.171 206.045 262.694C206.297 263.217 206.423 263.847 206.423 264.584C206.423 265.303 206.297 265.933 206.045 266.474C205.802 267.006 205.457 267.417 205.009 267.706C204.561 267.986 204.029 268.126 203.413 268.126C202.825 268.126 202.312 267.977 201.873 267.678C201.434 267.379 201.14 266.983 200.991 266.488H201.159V270.52H199.745ZM203.063 267.034C203.651 267.034 204.118 266.824 204.463 266.404C204.818 265.984 204.995 265.377 204.995 264.584C204.995 263.781 204.818 263.175 204.463 262.764C204.118 262.353 203.651 262.148 203.063 262.148C202.484 262.148 202.018 262.353 201.663 262.764C201.308 263.175 201.131 263.781 201.131 264.584C201.131 265.377 201.308 265.984 201.663 266.404C202.018 266.824 202.484 267.034 203.063 267.034ZM210.452 268.126C209.902 268.126 209.44 268.023 209.066 267.818C208.702 267.613 208.427 267.309 208.24 266.908C208.063 266.497 207.974 265.984 207.974 265.368V261.168H209.388V265.382C209.388 265.746 209.435 266.049 209.528 266.292C209.631 266.535 209.785 266.712 209.99 266.824C210.205 266.936 210.471 266.992 210.788 266.992C211.143 266.992 211.456 266.913 211.726 266.754C211.997 266.595 212.207 266.367 212.356 266.068C212.506 265.769 212.58 265.424 212.58 265.032V261.168H213.994V268H212.622V266.502H212.804C212.618 267.025 212.319 267.426 211.908 267.706C211.498 267.986 211.012 268.126 210.452 268.126ZM218.899 268.126C218.05 268.126 217.41 267.907 216.981 267.468C216.561 267.029 216.351 266.395 216.351 265.564V262.26H215.021V261.168H216.351V259.11H217.765V261.168H219.879V262.26H217.765V265.452C217.765 265.947 217.868 266.32 218.073 266.572C218.288 266.824 218.633 266.95 219.109 266.95C219.249 266.95 219.389 266.931 219.529 266.894C219.678 266.857 219.823 266.819 219.963 266.782L220.187 267.846C220.047 267.93 219.851 267.995 219.599 268.042C219.356 268.098 219.123 268.126 218.899 268.126ZM224.238 268.126C223.491 268.126 222.847 267.986 222.306 267.706C221.774 267.417 221.359 267.011 221.06 266.488C220.771 265.956 220.626 265.326 220.626 264.598C220.626 263.889 220.771 263.268 221.06 262.736C221.349 262.204 221.746 261.789 222.25 261.49C222.754 261.191 223.328 261.042 223.972 261.042C224.607 261.042 225.148 261.182 225.596 261.462C226.053 261.733 226.403 262.12 226.646 262.624C226.889 263.128 227.01 263.73 227.01 264.43V264.906H221.746V264.038H226.058L225.82 264.234C225.82 263.534 225.666 262.993 225.358 262.61C225.05 262.227 224.607 262.036 224.028 262.036C223.589 262.036 223.216 262.139 222.908 262.344C222.609 262.549 222.381 262.834 222.222 263.198C222.063 263.562 221.984 263.987 221.984 264.472V264.556C221.984 265.097 222.068 265.555 222.236 265.928C222.413 266.292 222.67 266.567 223.006 266.754C223.342 266.941 223.757 267.034 224.252 267.034C224.644 267.034 225.027 266.973 225.4 266.852C225.783 266.721 226.142 266.521 226.478 266.25L226.898 267.23C226.59 267.51 226.193 267.729 225.708 267.888C225.223 268.047 224.733 268.126 224.238 268.126ZM234.077 268L231.473 261.168H232.929L234.931 266.81H234.595L236.653 261.168H237.745L239.761 266.81H239.453L241.469 261.168H242.855L240.251 268H238.963L236.807 262.176H237.507L235.365 268H234.077ZM243.943 259.586V258.116H245.595V259.586H243.943ZM244.069 268V261.168H245.483V268H244.069ZM250.385 268.126C249.536 268.126 248.897 267.907 248.467 267.468C248.047 267.029 247.837 266.395 247.837 265.564V262.26H246.507V261.168H247.837V259.11H249.251V261.168H251.365V262.26H249.251V265.452C249.251 265.947 249.354 266.32 249.559 266.572C249.774 266.824 250.119 266.95 250.595 266.95C250.735 266.95 250.875 266.931 251.015 266.894C251.165 266.857 251.309 266.819 251.449 266.782L251.673 267.846C251.533 267.93 251.337 267.995 251.085 268.042C250.843 268.098 250.609 268.126 250.385 268.126ZM252.587 268V258.13H254.001V262.624H253.805C254.01 262.101 254.332 261.709 254.771 261.448C255.209 261.177 255.713 261.042 256.283 261.042C256.824 261.042 257.272 261.145 257.627 261.35C257.991 261.546 258.261 261.849 258.439 262.26C258.616 262.661 258.705 263.17 258.705 263.786V268H257.291V263.87C257.291 263.478 257.239 263.161 257.137 262.918C257.034 262.666 256.88 262.479 256.675 262.358C256.469 262.237 256.203 262.176 255.877 262.176C255.503 262.176 255.172 262.255 254.883 262.414C254.603 262.573 254.383 262.801 254.225 263.1C254.075 263.399 254.001 263.744 254.001 264.136V268H252.587ZM264.485 268V258.13H267.971C269.054 258.13 269.973 258.321 270.729 258.704C271.485 259.077 272.059 259.633 272.451 260.37C272.852 261.098 273.053 261.994 273.053 263.058C273.053 264.122 272.852 265.023 272.451 265.76C272.059 266.488 271.485 267.043 270.729 267.426C269.973 267.809 269.054 268 267.971 268H264.485ZM265.941 266.782H267.887C269.11 266.782 270.024 266.474 270.631 265.858C271.238 265.233 271.541 264.299 271.541 263.058C271.541 261.817 271.233 260.888 270.617 260.272C270.01 259.656 269.1 259.348 267.887 259.348H265.941V266.782ZM278.051 268.126C277.304 268.126 276.66 267.986 276.119 267.706C275.587 267.417 275.171 267.011 274.873 266.488C274.583 265.956 274.439 265.326 274.439 264.598C274.439 263.889 274.583 263.268 274.873 262.736C275.162 262.204 275.559 261.789 276.063 261.49C276.567 261.191 277.141 261.042 277.785 261.042C278.419 261.042 278.961 261.182 279.409 261.462C279.866 261.733 280.216 262.12 280.459 262.624C280.701 263.128 280.823 263.73 280.823 264.43V264.906H275.559V264.038H279.871L279.633 264.234C279.633 263.534 279.479 262.993 279.171 262.61C278.863 262.227 278.419 262.036 277.841 262.036C277.402 262.036 277.029 262.139 276.721 262.344C276.422 262.549 276.193 262.834 276.035 263.198C275.876 263.562 275.797 263.987 275.797 264.472V264.556C275.797 265.097 275.881 265.555 276.049 265.928C276.226 266.292 276.483 266.567 276.819 266.754C277.155 266.941 277.57 267.034 278.065 267.034C278.457 267.034 278.839 266.973 279.213 266.852C279.595 266.721 279.955 266.521 280.291 266.25L280.711 267.23C280.403 267.51 280.006 267.729 279.521 267.888C279.035 268.047 278.545 268.126 278.051 268.126ZM284.59 268.126C283.843 268.126 283.283 267.916 282.91 267.496C282.546 267.067 282.364 266.451 282.364 265.648V258.13H283.778V265.564C283.778 265.863 283.82 266.119 283.904 266.334C283.988 266.539 284.114 266.693 284.282 266.796C284.45 266.899 284.66 266.95 284.912 266.95C285.024 266.95 285.131 266.945 285.234 266.936C285.337 266.927 285.435 266.908 285.528 266.88L285.5 268.014C285.341 268.051 285.187 268.079 285.038 268.098C284.889 268.117 284.739 268.126 284.59 268.126ZM286.643 268V258.13H288.057V262.624H287.861C288.067 262.101 288.389 261.709 288.827 261.448C289.266 261.177 289.77 261.042 290.339 261.042C290.881 261.042 291.329 261.145 291.683 261.35C292.047 261.546 292.318 261.849 292.495 262.26C292.673 262.661 292.761 263.17 292.761 263.786V268H291.347V263.87C291.347 263.478 291.296 263.161 291.193 262.918C291.091 262.666 290.937 262.479 290.731 262.358C290.526 262.237 290.26 262.176 289.933 262.176C289.56 262.176 289.229 262.255 288.939 262.414C288.659 262.573 288.44 262.801 288.281 263.1C288.132 263.399 288.057 263.744 288.057 264.136V268H286.643ZM294.584 259.586V258.116H296.236V259.586H294.584ZM294.71 268V261.168H296.124V268H294.71ZM300.116 268L297.176 261.168H298.702L300.984 266.838H300.592L302.93 261.168H304.372L301.39 268H300.116ZM308.471 268.126C307.724 268.126 307.08 267.986 306.539 267.706C306.007 267.417 305.591 267.011 305.293 266.488C305.003 265.956 304.859 265.326 304.859 264.598C304.859 263.889 305.003 263.268 305.293 262.736C305.582 262.204 305.979 261.789 306.483 261.49C306.987 261.191 307.561 261.042 308.205 261.042C308.839 261.042 309.381 261.182 309.829 261.462C310.286 261.733 310.636 262.12 310.879 262.624C311.121 263.128 311.243 263.73 311.243 264.43V264.906H305.979V264.038H310.291L310.053 264.234C310.053 263.534 309.899 262.993 309.591 262.61C309.283 262.227 308.839 262.036 308.261 262.036C307.822 262.036 307.449 262.139 307.141 262.344C306.842 262.549 306.613 262.834 306.455 263.198C306.296 263.562 306.217 263.987 306.217 264.472V264.556C306.217 265.097 306.301 265.555 306.469 265.928C306.646 266.292 306.903 266.567 307.239 266.754C307.575 266.941 307.99 267.034 308.485 267.034C308.877 267.034 309.259 266.973 309.633 266.852C310.015 266.721 310.375 266.521 310.711 266.25L311.131 267.23C310.823 267.51 310.426 267.729 309.941 267.888C309.455 268.047 308.965 268.126 308.471 268.126ZM312.784 268V261.168H314.156V262.806H314.016C314.165 262.246 314.431 261.821 314.814 261.532C315.206 261.243 315.724 261.075 316.368 261.028L316.83 261L316.928 262.204L316.074 262.288C315.467 262.344 315.005 262.535 314.688 262.862C314.371 263.189 314.212 263.637 314.212 264.206V268H312.784ZM319.131 270.52L320.475 267.524V268.126L317.493 261.168H319.005L321.301 266.838H320.909L323.233 261.168H324.689L320.615 270.52H319.131Z" fill="white"/>
<path d="M334.421 265.264L336.684 263.001L334.421 260.737C334.193 260.51 334.193 260.142 334.421 259.915C334.648 259.687 335.016 259.687 335.243 259.915L337.921 262.592C338.148 262.82 338.148 263.187 337.921 263.415L335.243 266.092C335.016 266.32 334.648 266.32 334.421 266.092C334.199 265.865 334.193 265.491 334.421 265.264Z" fill="white"/>
</svg>
