<svg width="379" height="126" viewBox="0 0 379 126" fill="none" xmlns="http://www.w3.org/2000/svg">
<rect width="379" height="126" rx="12" fill="white"/>
<rect x="16" y="20" width="36" height="36" rx="8" fill="#E1E1E4"/>
<path d="M35.668 32.9987L35.068 31.7904C34.9263 31.507 34.6346 31.332 34.318 31.332H29.0013C28.543 31.332 28.168 31.707 28.168 32.1654V44.6654C28.168 45.1237 28.543 45.4987 29.0013 45.4987C29.4596 45.4987 29.8346 45.1237 29.8346 44.6654V39.6654H34.0013L34.6013 40.8737C34.743 41.157 35.0346 41.332 35.343 41.332H39.8346C40.293 41.332 40.668 40.957 40.668 40.4987V33.832C40.668 33.3737 40.293 32.9987 39.8346 32.9987H35.668ZM39.0013 39.6654H35.668L34.8346 37.9987H29.8346V32.9987H34.0013L34.8346 34.6654H39.0013V39.6654Z" fill="#444050"/>
<path d="M63.134 34L63.61 31.592H62.616V30.472H63.82L64.394 27.546H62.91V26.426H64.59L65.052 24.13H66.27L65.808 26.426H67.572L68.034 24.13H69.252L68.79 26.426H69.784V27.546H68.58L68.006 30.472H69.49V31.592H67.81L67.334 34H66.116L66.592 31.592H64.828L64.352 34H63.134ZM65.038 30.472H66.788L67.362 27.546H65.612L65.038 30.472ZM74.8745 34.14C74.3612 34.14 73.8665 34.0933 73.3905 34C72.9239 33.916 72.4899 33.79 72.0885 33.622C71.6965 33.454 71.3465 33.2533 71.0385 33.02L71.5845 31.606C71.8925 31.8207 72.2145 32.0073 72.5505 32.166C72.8959 32.3153 73.2599 32.432 73.6425 32.516C74.0345 32.5907 74.4452 32.628 74.8745 32.628C75.6119 32.628 76.1485 32.5067 76.4845 32.264C76.8205 32.012 76.9885 31.69 76.9885 31.298C76.9885 31.0833 76.9372 30.9013 76.8345 30.752C76.7319 30.5933 76.5639 30.458 76.3305 30.346C76.0972 30.234 75.7892 30.1407 75.4065 30.066L73.8665 29.744C72.9799 29.5573 72.3172 29.2447 71.8785 28.806C71.4492 28.358 71.2345 27.77 71.2345 27.042C71.2345 26.426 71.3979 25.8893 71.7245 25.432C72.0512 24.9747 72.5039 24.62 73.0825 24.368C73.6612 24.116 74.3285 23.99 75.0845 23.99C75.5325 23.99 75.9619 24.0367 76.3725 24.13C76.7925 24.214 77.1752 24.3447 77.5205 24.522C77.8752 24.69 78.1832 24.8953 78.4445 25.138L77.8985 26.482C77.5065 26.1553 77.0772 25.9127 76.6105 25.754C76.1439 25.586 75.6305 25.502 75.0705 25.502C74.6412 25.502 74.2725 25.5627 73.9645 25.684C73.6565 25.8053 73.4185 25.978 73.2505 26.202C73.0919 26.4167 73.0125 26.6733 73.0125 26.972C73.0125 27.308 73.1245 27.5787 73.3485 27.784C73.5725 27.98 73.9552 28.134 74.4965 28.246L76.0225 28.568C76.9465 28.764 77.6325 29.072 78.0805 29.492C78.5379 29.912 78.7665 30.472 78.7665 31.172C78.7665 31.76 78.6079 32.278 78.2905 32.726C77.9732 33.174 77.5205 33.524 76.9325 33.776C76.3539 34.0187 75.6679 34.14 74.8745 34.14ZM80.3046 34V24.13H82.0966V28.246H87.1786V24.13H88.9706V34H87.1786V29.744H82.0966V34H80.3046ZM93.4987 34.14C93.1534 34.14 92.8034 34.0933 92.4487 34C92.1034 33.916 91.772 33.79 91.4547 33.622C91.1467 33.454 90.8667 33.2533 90.6147 33.02L91.2167 31.676C91.5527 31.9933 91.9167 32.2313 92.3087 32.39C92.71 32.5487 93.1114 32.628 93.5127 32.628C93.9234 32.628 94.2827 32.558 94.5907 32.418C94.908 32.2687 95.174 32.054 95.3887 31.774C95.6034 31.4847 95.762 31.13 95.8647 30.71C95.9767 30.2807 96.0327 29.786 96.0327 29.226V28.176H96.1867C96.1214 28.6427 95.9674 29.0487 95.7247 29.394C95.482 29.7393 95.174 30.0053 94.8007 30.192C94.4367 30.3693 94.0214 30.458 93.5547 30.458C92.9947 30.458 92.4954 30.3227 92.0567 30.052C91.618 29.7813 91.268 29.408 91.0067 28.932C90.7547 28.4467 90.6287 27.9007 90.6287 27.294C90.6287 26.65 90.7687 26.0807 91.0487 25.586C91.3287 25.0913 91.7114 24.704 92.1967 24.424C92.6914 24.1347 93.256 23.99 93.8907 23.99C94.712 23.99 95.4074 24.1813 95.9767 24.564C96.546 24.9467 96.98 25.5067 97.2787 26.244C97.5774 26.972 97.7267 27.854 97.7267 28.89C97.7267 30.0007 97.5587 30.948 97.2227 31.732C96.8867 32.516 96.4014 33.1133 95.7667 33.524C95.1414 33.9347 94.3854 34.14 93.4987 34.14ZM94.0027 29.03C94.3387 29.03 94.6327 28.9553 94.8847 28.806C95.146 28.6567 95.3467 28.4467 95.4867 28.176C95.6267 27.896 95.6967 27.5787 95.6967 27.224C95.6967 26.86 95.6267 26.5427 95.4867 26.272C95.3467 26.0013 95.146 25.7913 94.8847 25.642C94.6327 25.4833 94.3387 25.404 94.0027 25.404C93.6667 25.404 93.3727 25.4833 93.1207 25.642C92.8687 25.7913 92.668 26.0013 92.5187 26.272C92.3787 26.5427 92.3087 26.86 92.3087 27.224C92.3087 27.5787 92.3787 27.896 92.5187 28.176C92.668 28.4467 92.8687 28.6567 93.1207 28.806C93.3727 28.9553 93.6667 29.03 94.0027 29.03ZM99.5692 34V32.67L102.761 29.268C103.051 28.96 103.279 28.6753 103.447 28.414C103.625 28.1527 103.755 27.9007 103.839 27.658C103.923 27.4153 103.965 27.1727 103.965 26.93C103.965 26.4633 103.816 26.1087 103.517 25.866C103.228 25.6233 102.803 25.502 102.243 25.502C101.805 25.502 101.375 25.586 100.955 25.754C100.545 25.9127 100.148 26.1647 99.7652 26.51L99.1632 25.166C99.5552 24.8113 100.045 24.5267 100.633 24.312C101.221 24.0973 101.833 23.99 102.467 23.99C103.177 23.99 103.774 24.0973 104.259 24.312C104.745 24.5267 105.113 24.8393 105.365 25.25C105.617 25.6607 105.743 26.16 105.743 26.748C105.743 27.0467 105.706 27.3407 105.631 27.63C105.566 27.91 105.459 28.19 105.309 28.47C105.169 28.75 104.987 29.0393 104.763 29.338C104.549 29.6273 104.287 29.9307 103.979 30.248L101.347 32.992V32.516H106.121V34H99.5692ZM111.044 34.14C109.896 34.14 108.995 33.8927 108.342 33.398C107.698 32.9033 107.376 32.2173 107.376 31.34C107.376 30.8733 107.469 30.4627 107.656 30.108C107.852 29.744 108.118 29.45 108.454 29.226C108.79 29.002 109.172 28.862 109.602 28.806V29.1C109.21 29.016 108.864 28.862 108.566 28.638C108.267 28.4047 108.034 28.12 107.866 27.784C107.707 27.4387 107.628 27.0607 107.628 26.65C107.628 25.8193 107.936 25.1707 108.552 24.704C109.168 24.228 110.003 23.99 111.058 23.99C112.103 23.99 112.934 24.228 113.55 24.704C114.166 25.1707 114.474 25.8193 114.474 26.65C114.474 27.0607 114.39 27.4387 114.222 27.784C114.063 28.1293 113.834 28.414 113.536 28.638C113.246 28.862 112.906 29.0113 112.514 29.086V28.806C112.952 28.862 113.335 29.0067 113.662 29.24C113.988 29.464 114.245 29.758 114.432 30.122C114.618 30.4767 114.712 30.8827 114.712 31.34C114.712 32.2173 114.385 32.9033 113.732 33.398C113.088 33.8927 112.192 34.14 111.044 34.14ZM111.044 32.74C111.706 32.74 112.206 32.614 112.542 32.362C112.878 32.1007 113.046 31.718 113.046 31.214C113.046 30.71 112.878 30.332 112.542 30.08C112.206 29.828 111.706 29.702 111.044 29.702C110.39 29.702 109.891 29.828 109.546 30.08C109.21 30.332 109.042 30.71 109.042 31.214C109.042 31.718 109.21 32.1007 109.546 32.362C109.891 32.614 110.39 32.74 111.044 32.74ZM111.044 28.302C111.594 28.302 112.024 28.1713 112.332 27.91C112.649 27.6487 112.808 27.2893 112.808 26.832C112.808 26.384 112.649 26.034 112.332 25.782C112.024 25.5207 111.594 25.39 111.044 25.39C110.493 25.39 110.064 25.5207 109.756 25.782C109.448 26.034 109.294 26.3887 109.294 26.846C109.294 27.294 109.448 27.6487 109.756 27.91C110.064 28.1713 110.493 28.302 111.044 28.302ZM119.242 34.14C118.794 34.14 118.356 34.0933 117.926 34C117.506 33.916 117.114 33.79 116.75 33.622C116.386 33.454 116.069 33.2533 115.798 33.02L116.386 31.648C116.825 31.984 117.273 32.2313 117.73 32.39C118.188 32.5487 118.673 32.628 119.186 32.628C119.597 32.628 119.942 32.572 120.222 32.46C120.502 32.348 120.712 32.18 120.852 31.956C121.002 31.732 121.076 31.4613 121.076 31.144C121.076 30.6773 120.918 30.332 120.6 30.108C120.292 29.8747 119.84 29.758 119.242 29.758H117.66V28.274H119.074C119.429 28.274 119.732 28.218 119.984 28.106C120.236 27.9847 120.432 27.8167 120.572 27.602C120.712 27.3873 120.782 27.126 120.782 26.818C120.782 26.3887 120.638 26.062 120.348 25.838C120.068 25.614 119.658 25.502 119.116 25.502C118.631 25.502 118.178 25.586 117.758 25.754C117.338 25.9127 116.937 26.1647 116.554 26.51L115.966 25.166C116.358 24.7927 116.848 24.5033 117.436 24.298C118.024 24.0927 118.636 23.99 119.27 23.99C119.952 23.99 120.535 24.0973 121.02 24.312C121.506 24.5173 121.874 24.816 122.126 25.208C122.388 25.5907 122.518 26.0573 122.518 26.608C122.518 27.196 122.355 27.7047 122.028 28.134C121.702 28.554 121.254 28.834 120.684 28.974V28.806C121.132 28.8807 121.515 29.03 121.832 29.254C122.15 29.478 122.392 29.7627 122.56 30.108C122.728 30.4533 122.812 30.85 122.812 31.298C122.812 31.8767 122.668 32.3807 122.378 32.81C122.089 33.2393 121.678 33.5707 121.146 33.804C120.614 34.028 119.98 34.14 119.242 34.14ZM124.837 34L129.611 25.012V25.628H124.403V24.13H131.277V25.474L126.811 34H124.837ZM136.913 34V32.124H132.615V30.808L137.221 24.13H138.705V30.64H140.091V32.124H138.705V34H136.913ZM136.913 30.64V26.272H137.319L134.015 31.116V30.64H136.913ZM144.986 34.14C144.174 34.14 143.479 33.9487 142.9 33.566C142.331 33.174 141.897 32.614 141.598 31.886C141.299 31.158 141.15 30.276 141.15 29.24C141.15 28.12 141.318 27.1727 141.654 26.398C141.99 25.614 142.475 25.0167 143.11 24.606C143.745 24.1953 144.505 23.99 145.392 23.99C145.737 23.99 146.083 24.0367 146.428 24.13C146.783 24.214 147.114 24.34 147.422 24.508C147.739 24.6667 148.019 24.8627 148.262 25.096L147.674 26.44C147.329 26.1227 146.96 25.8893 146.568 25.74C146.176 25.5813 145.775 25.502 145.364 25.502C144.963 25.502 144.603 25.5767 144.286 25.726C143.978 25.866 143.717 26.0807 143.502 26.37C143.287 26.65 143.124 27.0047 143.012 27.434C142.909 27.854 142.858 28.344 142.858 28.904V29.954H142.69C142.765 29.478 142.919 29.072 143.152 28.736C143.395 28.3907 143.703 28.1293 144.076 27.952C144.449 27.7653 144.865 27.672 145.322 27.672C145.891 27.672 146.395 27.8073 146.834 28.078C147.273 28.3487 147.618 28.722 147.87 29.198C148.122 29.674 148.248 30.22 148.248 30.836C148.248 31.4707 148.108 32.04 147.828 32.544C147.557 33.0387 147.175 33.4307 146.68 33.72C146.195 34 145.63 34.14 144.986 34.14ZM144.888 32.712C145.224 32.712 145.518 32.6373 145.77 32.488C146.031 32.3387 146.232 32.1287 146.372 31.858C146.512 31.578 146.582 31.2607 146.582 30.906C146.582 30.542 146.512 30.2247 146.372 29.954C146.232 29.6833 146.031 29.4733 145.77 29.324C145.518 29.1653 145.224 29.086 144.888 29.086C144.552 29.086 144.258 29.1653 144.006 29.324C143.754 29.4733 143.553 29.6833 143.404 29.954C143.264 30.2247 143.194 30.542 143.194 30.906C143.194 31.2607 143.264 31.578 143.404 31.858C143.553 32.1287 143.754 32.3387 144.006 32.488C144.258 32.6373 144.552 32.712 144.888 32.712Z" fill="black"/>
<path d="M65.288 52L62.324 43.54H63.596L66.08 50.848H65.636L68.192 43.54H69.14L71.648 50.848H71.252L73.76 43.54H74.972L71.984 52H70.94L68.516 45.052H68.78L66.332 52H65.288ZM78.1625 52.108C77.5225 52.108 76.9705 51.988 76.5065 51.748C76.0505 51.5 75.6945 51.152 75.4385 50.704C75.1905 50.248 75.0665 49.708 75.0665 49.084C75.0665 48.476 75.1905 47.944 75.4385 47.488C75.6865 47.032 76.0265 46.676 76.4585 46.42C76.8905 46.164 77.3825 46.036 77.9345 46.036C78.4785 46.036 78.9425 46.156 79.3265 46.396C79.7185 46.628 80.0185 46.96 80.2265 47.392C80.4345 47.824 80.5385 48.34 80.5385 48.94V49.348H76.0265V48.604H79.7225L79.5185 48.772C79.5185 48.172 79.3865 47.708 79.1225 47.38C78.8585 47.052 78.4785 46.888 77.9825 46.888C77.6065 46.888 77.2865 46.976 77.0225 47.152C76.7665 47.328 76.5705 47.572 76.4345 47.884C76.2985 48.196 76.2305 48.56 76.2305 48.976V49.048C76.2305 49.512 76.3025 49.904 76.4465 50.224C76.5985 50.536 76.8185 50.772 77.1065 50.932C77.3945 51.092 77.7505 51.172 78.1745 51.172C78.5105 51.172 78.8385 51.12 79.1585 51.016C79.4865 50.904 79.7945 50.732 80.0825 50.5L80.4425 51.34C80.1785 51.58 79.8385 51.768 79.4225 51.904C79.0065 52.04 78.5865 52.108 78.1625 52.108ZM81.7518 44.788V43.528H83.1678V44.788H81.7518ZM81.8598 52V46.144H83.0718V52H81.8598ZM87.4298 54.268C86.9018 54.268 86.4098 54.204 85.9538 54.076C85.4978 53.948 85.0938 53.756 84.7418 53.5L85.1138 52.636C85.3458 52.788 85.5818 52.916 85.8218 53.02C86.0698 53.132 86.3178 53.212 86.5658 53.26C86.8218 53.308 87.0818 53.332 87.3458 53.332C87.9058 53.332 88.3258 53.188 88.6058 52.9C88.8858 52.62 89.0258 52.204 89.0258 51.652V50.428H89.1338C89.0138 50.868 88.7618 51.216 88.3778 51.472C87.9938 51.728 87.5498 51.856 87.0458 51.856C86.5178 51.856 86.0578 51.736 85.6658 51.496C85.2738 51.248 84.9698 50.908 84.7538 50.476C84.5378 50.036 84.4298 49.524 84.4298 48.94C84.4298 48.356 84.5378 47.848 84.7538 47.416C84.9698 46.984 85.2738 46.648 85.6658 46.408C86.0578 46.16 86.5178 46.036 87.0458 46.036C87.5578 46.036 88.0018 46.164 88.3778 46.42C88.7618 46.676 89.0098 47.024 89.1218 47.464H89.0258V46.144H90.2018V51.508C90.2018 52.116 90.0978 52.624 89.8898 53.032C89.6818 53.448 89.3698 53.756 88.9538 53.956C88.5458 54.164 88.0378 54.268 87.4298 54.268ZM87.3338 50.908C87.8538 50.908 88.2618 50.732 88.5578 50.38C88.8618 50.028 89.0138 49.548 89.0138 48.94C89.0138 48.34 88.8618 47.864 88.5578 47.512C88.2618 47.16 87.8538 46.984 87.3338 46.984C86.8218 46.984 86.4138 47.16 86.1098 47.512C85.8058 47.864 85.6538 48.34 85.6538 48.94C85.6538 49.548 85.8058 50.028 86.1098 50.38C86.4138 50.732 86.8218 50.908 87.3338 50.908ZM91.9028 52V43.54H93.1148V47.392H92.9468C93.1228 46.944 93.3988 46.608 93.7748 46.384C94.1508 46.152 94.5828 46.036 95.0708 46.036C95.5348 46.036 95.9188 46.124 96.2228 46.3C96.5348 46.468 96.7668 46.728 96.9188 47.08C97.0708 47.424 97.1468 47.86 97.1468 48.388V52H95.9348V48.46C95.9348 48.124 95.8908 47.852 95.8028 47.644C95.7148 47.428 95.5828 47.268 95.4068 47.164C95.2308 47.06 95.0028 47.008 94.7228 47.008C94.4028 47.008 94.1188 47.076 93.8708 47.212C93.6308 47.348 93.4428 47.544 93.3068 47.8C93.1788 48.056 93.1148 48.352 93.1148 48.688V52H91.9028ZM101.313 52.108C100.585 52.108 100.037 51.92 99.6688 51.544C99.3088 51.168 99.1288 50.624 99.1288 49.912V47.08H97.9888V46.144H99.1288V44.38H100.341V46.144H102.153V47.08H100.341V49.816C100.341 50.24 100.429 50.56 100.605 50.776C100.789 50.992 101.085 51.1 101.493 51.1C101.613 51.1 101.733 51.084 101.853 51.052C101.981 51.02 102.105 50.988 102.225 50.956L102.417 51.868C102.297 51.94 102.129 51.996 101.913 52.036C101.705 52.084 101.505 52.108 101.313 52.108ZM110.156 52.108C109.556 52.108 109.012 52.008 108.524 51.808C108.036 51.608 107.616 51.316 107.264 50.932C106.92 50.548 106.656 50.092 106.472 49.564C106.288 49.028 106.196 48.428 106.196 47.764C106.196 47.1 106.288 46.504 106.472 45.976C106.656 45.44 106.92 44.984 107.264 44.608C107.608 44.224 108.024 43.932 108.512 43.732C109 43.532 109.548 43.432 110.156 43.432C110.756 43.432 111.3 43.532 111.788 43.732C112.276 43.932 112.692 44.22 113.036 44.596C113.388 44.972 113.656 45.428 113.84 45.964C114.024 46.492 114.116 47.088 114.116 47.752C114.116 48.416 114.024 49.016 113.84 49.552C113.656 50.088 113.388 50.548 113.036 50.932C112.692 51.316 112.276 51.608 111.788 51.808C111.3 52.008 110.756 52.108 110.156 52.108ZM110.156 51.028C110.716 51.028 111.192 50.9 111.584 50.644C111.984 50.388 112.288 50.016 112.496 49.528C112.712 49.04 112.82 48.452 112.82 47.764C112.82 47.076 112.716 46.488 112.508 46C112.3 45.512 111.996 45.144 111.596 44.896C111.204 44.64 110.724 44.512 110.156 44.512C109.596 44.512 109.116 44.64 108.716 44.896C108.324 45.144 108.02 45.512 107.804 46C107.596 46.488 107.492 47.076 107.492 47.764C107.492 48.444 107.596 49.032 107.804 49.528C108.02 50.016 108.324 50.388 108.716 50.644C109.116 50.9 109.596 51.028 110.156 51.028ZM117.373 52L114.853 46.144H116.161L118.117 51.004H117.781L119.785 46.144H121.021L118.465 52H117.373ZM124.534 52.108C123.894 52.108 123.342 51.988 122.878 51.748C122.422 51.5 122.066 51.152 121.81 50.704C121.562 50.248 121.438 49.708 121.438 49.084C121.438 48.476 121.562 47.944 121.81 47.488C122.058 47.032 122.398 46.676 122.83 46.42C123.262 46.164 123.754 46.036 124.306 46.036C124.85 46.036 125.314 46.156 125.698 46.396C126.09 46.628 126.39 46.96 126.598 47.392C126.806 47.824 126.91 48.34 126.91 48.94V49.348H122.398V48.604H126.094L125.89 48.772C125.89 48.172 125.758 47.708 125.494 47.38C125.23 47.052 124.85 46.888 124.354 46.888C123.978 46.888 123.658 46.976 123.394 47.152C123.138 47.328 122.942 47.572 122.806 47.884C122.67 48.196 122.602 48.56 122.602 48.976V49.048C122.602 49.512 122.674 49.904 122.818 50.224C122.97 50.536 123.19 50.772 123.478 50.932C123.766 51.092 124.122 51.172 124.546 51.172C124.882 51.172 125.21 51.12 125.53 51.016C125.858 50.904 126.166 50.732 126.454 50.5L126.814 51.34C126.55 51.58 126.21 51.768 125.794 51.904C125.378 52.04 124.958 52.108 124.534 52.108ZM128.231 52V46.144H129.407V47.548H129.287C129.415 47.068 129.643 46.704 129.971 46.456C130.307 46.208 130.751 46.064 131.303 46.024L131.699 46L131.783 47.032L131.051 47.104C130.531 47.152 130.135 47.316 129.863 47.596C129.591 47.876 129.455 48.26 129.455 48.748V52H128.231ZM135.205 52.108C134.605 52.108 134.085 51.984 133.645 51.736C133.213 51.48 132.877 51.124 132.637 50.668C132.397 50.204 132.277 49.66 132.277 49.036C132.277 48.42 132.397 47.888 132.637 47.44C132.877 46.992 133.213 46.648 133.645 46.408C134.085 46.16 134.605 46.036 135.205 46.036C135.573 46.036 135.937 46.1 136.297 46.228C136.657 46.348 136.953 46.524 137.185 46.756L136.801 47.608C136.585 47.4 136.341 47.248 136.069 47.152C135.797 47.048 135.541 46.996 135.301 46.996C134.733 46.996 134.293 47.176 133.981 47.536C133.677 47.888 133.525 48.392 133.525 49.048C133.525 49.704 133.677 50.22 133.981 50.596C134.293 50.964 134.733 51.148 135.301 51.148C135.541 51.148 135.797 51.1 136.069 51.004C136.341 50.9 136.585 50.744 136.801 50.536L137.185 51.4C136.953 51.616 136.653 51.788 136.285 51.916C135.925 52.044 135.565 52.108 135.205 52.108ZM138.227 52V43.54H139.439V47.392H139.271C139.447 46.944 139.723 46.608 140.099 46.384C140.475 46.152 140.907 46.036 141.395 46.036C141.859 46.036 142.243 46.124 142.547 46.3C142.859 46.468 143.091 46.728 143.243 47.08C143.395 47.424 143.471 47.86 143.471 48.388V52H142.259V48.46C142.259 48.124 142.215 47.852 142.127 47.644C142.039 47.428 141.907 47.268 141.731 47.164C141.555 47.06 141.327 47.008 141.047 47.008C140.727 47.008 140.443 47.076 140.195 47.212C139.955 47.348 139.767 47.544 139.631 47.8C139.503 48.056 139.439 48.352 139.439 48.688V52H138.227ZM147.013 52.108C146.605 52.108 146.237 52.028 145.909 51.868C145.589 51.708 145.337 51.492 145.153 51.22C144.969 50.948 144.877 50.64 144.877 50.296C144.877 49.864 144.985 49.524 145.201 49.276C145.425 49.02 145.789 48.84 146.293 48.736C146.805 48.624 147.493 48.568 148.357 48.568H148.921V49.312H148.369C147.937 49.312 147.573 49.328 147.277 49.36C146.981 49.392 146.745 49.444 146.569 49.516C146.393 49.58 146.265 49.672 146.185 49.792C146.113 49.912 146.077 50.056 146.077 50.224C146.077 50.528 146.181 50.776 146.389 50.968C146.597 51.152 146.885 51.244 147.253 51.244C147.549 51.244 147.809 51.176 148.033 51.04C148.257 50.896 148.433 50.704 148.561 50.464C148.697 50.224 148.765 49.948 148.765 49.636V48.256C148.765 47.8 148.669 47.472 148.477 47.272C148.285 47.072 147.969 46.972 147.529 46.972C147.193 46.972 146.857 47.024 146.521 47.128C146.185 47.224 145.841 47.38 145.489 47.596L145.117 46.744C145.325 46.6 145.565 46.476 145.837 46.372C146.109 46.268 146.393 46.188 146.689 46.132C146.993 46.068 147.285 46.036 147.565 46.036C148.101 46.036 148.541 46.12 148.885 46.288C149.237 46.456 149.497 46.712 149.665 47.056C149.833 47.4 149.917 47.844 149.917 48.388V52H148.777V50.692H148.885C148.821 50.988 148.701 51.244 148.525 51.46C148.357 51.668 148.145 51.828 147.889 51.94C147.633 52.052 147.341 52.108 147.013 52.108ZM151.586 52V46.144H152.762V47.548H152.642C152.77 47.068 152.998 46.704 153.326 46.456C153.662 46.208 154.106 46.064 154.658 46.024L155.054 46L155.138 47.032L154.406 47.104C153.886 47.152 153.49 47.316 153.218 47.596C152.946 47.876 152.81 48.26 152.81 48.748V52H151.586ZM158.633 54.268C158.105 54.268 157.613 54.204 157.157 54.076C156.701 53.948 156.297 53.756 155.945 53.5L156.317 52.636C156.549 52.788 156.785 52.916 157.025 53.02C157.273 53.132 157.521 53.212 157.769 53.26C158.025 53.308 158.285 53.332 158.549 53.332C159.109 53.332 159.529 53.188 159.809 52.9C160.089 52.62 160.229 52.204 160.229 51.652V50.428H160.337C160.217 50.868 159.965 51.216 159.581 51.472C159.197 51.728 158.753 51.856 158.249 51.856C157.721 51.856 157.261 51.736 156.869 51.496C156.477 51.248 156.173 50.908 155.957 50.476C155.741 50.036 155.633 49.524 155.633 48.94C155.633 48.356 155.741 47.848 155.957 47.416C156.173 46.984 156.477 46.648 156.869 46.408C157.261 46.16 157.721 46.036 158.249 46.036C158.761 46.036 159.205 46.164 159.581 46.42C159.965 46.676 160.213 47.024 160.325 47.464H160.229V46.144H161.405V51.508C161.405 52.116 161.301 52.624 161.093 53.032C160.885 53.448 160.573 53.756 160.157 53.956C159.749 54.164 159.241 54.268 158.633 54.268ZM158.537 50.908C159.057 50.908 159.465 50.732 159.761 50.38C160.065 50.028 160.217 49.548 160.217 48.94C160.217 48.34 160.065 47.864 159.761 47.512C159.465 47.16 159.057 46.984 158.537 46.984C158.025 46.984 157.617 47.16 157.313 47.512C157.009 47.864 156.857 48.34 156.857 48.94C156.857 49.548 157.009 50.028 157.313 50.38C157.617 50.732 158.025 50.908 158.537 50.908ZM165.854 52.108C165.214 52.108 164.662 51.988 164.198 51.748C163.742 51.5 163.386 51.152 163.13 50.704C162.882 50.248 162.758 49.708 162.758 49.084C162.758 48.476 162.882 47.944 163.13 47.488C163.378 47.032 163.718 46.676 164.15 46.42C164.582 46.164 165.074 46.036 165.626 46.036C166.17 46.036 166.634 46.156 167.018 46.396C167.41 46.628 167.71 46.96 167.918 47.392C168.126 47.824 168.23 48.34 168.23 48.94V49.348H163.718V48.604H167.414L167.21 48.772C167.21 48.172 167.078 47.708 166.814 47.38C166.55 47.052 166.17 46.888 165.674 46.888C165.298 46.888 164.978 46.976 164.714 47.152C164.458 47.328 164.262 47.572 164.126 47.884C163.99 48.196 163.922 48.56 163.922 48.976V49.048C163.922 49.512 163.994 49.904 164.138 50.224C164.29 50.536 164.51 50.772 164.798 50.932C165.086 51.092 165.442 51.172 165.866 51.172C166.202 51.172 166.53 51.12 166.85 51.016C167.178 50.904 167.486 50.732 167.774 50.5L168.134 51.34C167.87 51.58 167.53 51.768 167.114 51.904C166.698 52.04 166.278 52.108 165.854 52.108Z" fill="#737682"/>
<path d="M181.998 50.944C181.606 50.944 181.246 50.852 180.918 50.668C180.59 50.476 180.326 50.22 180.126 49.9C179.926 49.58 179.826 49.22 179.826 48.82C179.826 48.452 179.918 48.108 180.102 47.788C180.294 47.46 180.554 47.196 180.882 46.996C181.21 46.788 181.582 46.684 181.998 46.684C182.382 46.684 182.738 46.776 183.066 46.96C183.402 47.144 183.67 47.4 183.87 47.728C184.07 48.048 184.17 48.412 184.17 48.82C184.17 49.212 184.07 49.568 183.87 49.888C183.678 50.208 183.418 50.464 183.09 50.656C182.762 50.848 182.398 50.944 181.998 50.944ZM196.148 52L194.36 49.3C194.24 49.108 194.112 48.952 193.976 48.832C193.848 48.712 193.704 48.628 193.544 48.58C193.384 48.532 193.192 48.508 192.968 48.508H191.252V47.512H193.652C194.084 47.512 194.44 47.456 194.72 47.344C195 47.232 195.212 47.064 195.356 46.84C195.508 46.616 195.592 46.332 195.608 45.988L195.788 46.276H191.252V45.4H195.788L195.584 45.676C195.52 45.26 195.332 44.948 195.02 44.74C194.716 44.524 194.284 44.416 193.724 44.416H191.252V43.54H197.948V44.416H195.62L195.788 44.14C196.084 44.292 196.316 44.492 196.484 44.74C196.652 44.988 196.756 45.276 196.796 45.604L196.556 45.4H197.948V46.276H196.592L196.82 45.94C196.836 46.452 196.728 46.896 196.496 47.272C196.272 47.648 195.944 47.94 195.512 48.148C195.088 48.348 194.572 48.448 193.964 48.448V48.328H194.228C194.444 48.328 194.644 48.36 194.828 48.424C195.012 48.48 195.184 48.58 195.344 48.724C195.504 48.868 195.664 49.06 195.824 49.3L197.624 52H196.148ZM201.183 52.108C200.895 52.108 200.599 52.072 200.295 52C199.999 51.92 199.719 51.804 199.455 51.652C199.191 51.5 198.959 51.324 198.759 51.124L199.191 50.176C199.487 50.464 199.807 50.684 200.151 50.836C200.495 50.98 200.843 51.052 201.195 51.052C201.571 51.052 201.903 50.984 202.191 50.848C202.479 50.712 202.719 50.508 202.911 50.236C203.111 49.964 203.259 49.628 203.355 49.228C203.459 48.82 203.511 48.352 203.511 47.824V46.804H203.631C203.575 47.228 203.439 47.6 203.223 47.92C203.015 48.24 202.743 48.484 202.407 48.652C202.079 48.82 201.707 48.904 201.291 48.904C200.803 48.904 200.367 48.788 199.983 48.556C199.607 48.324 199.307 48.004 199.083 47.596C198.867 47.188 198.759 46.728 198.759 46.216C198.759 45.672 198.875 45.192 199.107 44.776C199.347 44.352 199.671 44.024 200.079 43.792C200.487 43.552 200.959 43.432 201.495 43.432C202.183 43.432 202.763 43.596 203.235 43.924C203.707 44.244 204.067 44.716 204.315 45.34C204.571 45.964 204.699 46.712 204.699 47.584C204.699 48.552 204.559 49.372 204.279 50.044C203.999 50.716 203.599 51.228 203.079 51.58C202.559 51.932 201.927 52.108 201.183 52.108ZM201.579 47.884C201.899 47.884 202.183 47.812 202.431 47.668C202.679 47.524 202.871 47.324 203.007 47.068C203.151 46.804 203.223 46.5 203.223 46.156C203.223 45.82 203.151 45.524 203.007 45.268C202.871 45.004 202.679 44.8 202.431 44.656C202.183 44.504 201.899 44.428 201.579 44.428C201.251 44.428 200.963 44.504 200.715 44.656C200.475 44.8 200.283 45.004 200.139 45.268C200.003 45.524 199.935 45.82 199.935 46.156C199.935 46.5 200.003 46.804 200.139 47.068C200.283 47.324 200.475 47.524 200.715 47.668C200.963 47.812 201.251 47.884 201.579 47.884ZM209.291 52.108C208.611 52.108 208.031 51.944 207.551 51.616C207.079 51.288 206.715 50.816 206.459 50.2C206.211 49.576 206.087 48.828 206.087 47.956C206.087 46.98 206.227 46.16 206.507 45.496C206.787 44.824 207.191 44.312 207.719 43.96C208.247 43.608 208.879 43.432 209.615 43.432C209.903 43.432 210.195 43.472 210.491 43.552C210.787 43.632 211.067 43.744 211.331 43.888C211.603 44.032 211.835 44.208 212.027 44.416L211.595 45.352C211.299 45.064 210.979 44.848 210.635 44.704C210.299 44.56 209.951 44.488 209.591 44.488C209.215 44.488 208.883 44.556 208.595 44.692C208.315 44.828 208.075 45.032 207.875 45.304C207.683 45.576 207.535 45.912 207.431 46.312C207.335 46.712 207.287 47.18 207.287 47.716V48.736H207.155C207.211 48.304 207.343 47.932 207.551 47.62C207.767 47.3 208.043 47.056 208.379 46.888C208.715 46.72 209.087 46.636 209.495 46.636C209.991 46.636 210.427 46.752 210.803 46.984C211.187 47.208 211.487 47.524 211.703 47.932C211.919 48.34 212.027 48.804 212.027 49.324C212.027 49.86 211.911 50.34 211.679 50.764C211.447 51.188 211.123 51.52 210.707 51.76C210.299 51.992 209.827 52.108 209.291 52.108ZM209.219 51.1C209.547 51.1 209.835 51.028 210.083 50.884C210.331 50.74 210.523 50.54 210.659 50.284C210.795 50.02 210.863 49.716 210.863 49.372C210.863 49.028 210.795 48.728 210.659 48.472C210.523 48.216 210.331 48.016 210.083 47.872C209.835 47.72 209.547 47.644 209.219 47.644C208.891 47.644 208.603 47.72 208.355 47.872C208.115 48.016 207.923 48.216 207.779 48.472C207.643 48.728 207.575 49.028 207.575 49.372C207.575 49.716 207.643 50.02 207.779 50.284C207.923 50.54 208.119 50.74 208.367 50.884C208.615 51.028 208.899 51.1 209.219 51.1Z" fill="#737682"/>
<rect x="310" y="20" width="53" height="24" rx="12" fill="#FFE2E3"/>
<path d="M320.984 36V27.54H326.36V28.548H322.232V31.248H326.108V32.256H322.232V36H320.984ZM329.134 36.108C328.726 36.108 328.358 36.028 328.03 35.868C327.71 35.708 327.458 35.492 327.274 35.22C327.09 34.948 326.998 34.64 326.998 34.296C326.998 33.864 327.106 33.524 327.322 33.276C327.546 33.02 327.91 32.84 328.414 32.736C328.926 32.624 329.614 32.568 330.478 32.568H331.042V33.312H330.49C330.058 33.312 329.694 33.328 329.398 33.36C329.102 33.392 328.866 33.444 328.69 33.516C328.514 33.58 328.386 33.672 328.306 33.792C328.234 33.912 328.198 34.056 328.198 34.224C328.198 34.528 328.302 34.776 328.51 34.968C328.718 35.152 329.006 35.244 329.374 35.244C329.67 35.244 329.93 35.176 330.154 35.04C330.378 34.896 330.554 34.704 330.682 34.464C330.818 34.224 330.886 33.948 330.886 33.636V32.256C330.886 31.8 330.79 31.472 330.598 31.272C330.406 31.072 330.09 30.972 329.65 30.972C329.314 30.972 328.978 31.024 328.642 31.128C328.306 31.224 327.962 31.38 327.61 31.596L327.238 30.744C327.446 30.6 327.686 30.476 327.958 30.372C328.23 30.268 328.514 30.188 328.81 30.132C329.114 30.068 329.406 30.036 329.686 30.036C330.222 30.036 330.662 30.12 331.006 30.288C331.358 30.456 331.618 30.712 331.786 31.056C331.954 31.4 332.038 31.844 332.038 32.388V36H330.898V34.692H331.006C330.942 34.988 330.822 35.244 330.646 35.46C330.478 35.668 330.266 35.828 330.01 35.94C329.754 36.052 329.462 36.108 329.134 36.108ZM333.599 28.788V27.528H335.015V28.788H333.599ZM333.707 36V30.144H334.919V36H333.707ZM338.533 36.108C337.893 36.108 337.413 35.928 337.093 35.568C336.781 35.2 336.625 34.672 336.625 33.984V27.54H337.837V33.912C337.837 34.168 337.873 34.388 337.945 34.572C338.017 34.748 338.125 34.88 338.269 34.968C338.413 35.056 338.593 35.1 338.809 35.1C338.905 35.1 338.997 35.096 339.085 35.088C339.173 35.08 339.257 35.064 339.337 35.04L339.313 36.012C339.177 36.044 339.045 36.068 338.917 36.084C338.789 36.1 338.661 36.108 338.533 36.108ZM342.983 36.108C342.343 36.108 341.791 35.988 341.327 35.748C340.871 35.5 340.515 35.152 340.259 34.704C340.011 34.248 339.887 33.708 339.887 33.084C339.887 32.476 340.011 31.944 340.259 31.488C340.507 31.032 340.847 30.676 341.279 30.42C341.711 30.164 342.203 30.036 342.755 30.036C343.299 30.036 343.763 30.156 344.147 30.396C344.539 30.628 344.839 30.96 345.047 31.392C345.255 31.824 345.359 32.34 345.359 32.94V33.348H340.847V32.604H344.543L344.339 32.772C344.339 32.172 344.207 31.708 343.943 31.38C343.679 31.052 343.299 30.888 342.803 30.888C342.427 30.888 342.107 30.976 341.843 31.152C341.587 31.328 341.391 31.572 341.255 31.884C341.119 32.196 341.051 32.56 341.051 32.976V33.048C341.051 33.512 341.123 33.904 341.267 34.224C341.419 34.536 341.639 34.772 341.927 34.932C342.215 35.092 342.571 35.172 342.995 35.172C343.331 35.172 343.659 35.12 343.979 35.016C344.307 34.904 344.615 34.732 344.903 34.5L345.263 35.34C344.999 35.58 344.659 35.768 344.243 35.904C343.827 36.04 343.407 36.108 342.983 36.108ZM348.912 36.108C348.4 36.108 347.948 35.988 347.556 35.748C347.172 35.5 346.872 35.148 346.656 34.692C346.44 34.228 346.332 33.688 346.332 33.072C346.332 32.44 346.44 31.9 346.656 31.452C346.872 31.004 347.172 30.656 347.556 30.408C347.948 30.16 348.4 30.036 348.912 30.036C349.424 30.036 349.864 30.164 350.232 30.42C350.608 30.668 350.86 31.004 350.988 31.428H350.856V27.54H352.068V36H350.88V34.68H351C350.872 35.112 350.62 35.46 350.244 35.724C349.876 35.98 349.432 36.108 348.912 36.108ZM349.224 35.172C349.72 35.172 350.12 34.992 350.424 34.632C350.728 34.272 350.88 33.752 350.88 33.072C350.88 32.384 350.728 31.864 350.424 31.512C350.12 31.16 349.72 30.984 349.224 30.984C348.72 30.984 348.316 31.16 348.012 31.512C347.708 31.864 347.556 32.384 347.556 33.072C347.556 33.752 347.708 34.272 348.012 34.632C348.316 34.992 348.72 35.172 349.224 35.172Z" fill="black"/>
<rect x="16.5" y="78.5" width="346" height="33" rx="7.5" fill="#FFFBF0"/>
<rect x="16.5" y="78.5" width="346" height="33" rx="7.5" stroke="#FDEAB7"/>
<path d="M35.9987 88.332C32.332 88.332 29.332 91.332 29.332 94.9987C29.332 98.6654 32.332 101.665 35.9987 101.665C39.6654 101.665 42.6654 98.6654 42.6654 94.9987C42.6654 91.332 39.6654 88.332 35.9987 88.332ZM36.6654 89.712C39.072 90.012 40.9854 91.932 41.2854 94.332H37.332C36.9654 94.332 36.6654 94.032 36.6654 93.6654V89.712ZM30.6654 94.9987C30.6654 92.292 32.712 90.0387 35.332 89.712V100.292C32.712 99.9587 30.6654 97.7054 30.6654 94.9987ZM36.6654 100.285V96.332C36.6654 95.9654 36.9654 95.6654 37.332 95.6654H41.2854C40.9854 98.072 39.072 99.9854 36.6654 100.285Z" fill="#BD8125"/>
<path d="M51.5185 99L48.5545 90.54H49.8265L52.3105 97.848H51.8665L54.4225 90.54H55.3705L57.8785 97.848H57.4825L59.9905 90.54H61.2025L58.2145 99H57.1705L54.7465 92.052H55.0105L52.5625 99H51.5185ZM62.2635 91.788V90.528H63.6795V91.788H62.2635ZM62.3715 99V93.144H63.5835V99H62.3715ZM65.2895 99V93.144H66.4655V94.392H66.3335C66.5095 93.944 66.7855 93.608 67.1615 93.384C67.5375 93.152 67.9695 93.036 68.4575 93.036C68.9215 93.036 69.3055 93.124 69.6095 93.3C69.9215 93.468 70.1535 93.728 70.3055 94.08C70.4575 94.424 70.5335 94.86 70.5335 95.388V99H69.3215V95.46C69.3215 95.124 69.2775 94.852 69.1895 94.644C69.1015 94.428 68.9695 94.268 68.7935 94.164C68.6175 94.06 68.3895 94.008 68.1095 94.008C67.7895 94.008 67.5055 94.076 67.2575 94.212C67.0175 94.348 66.8295 94.544 66.6935 94.8C66.5655 95.056 66.5015 95.352 66.5015 95.688V99H65.2895ZM74.4356 99.108C73.9236 99.108 73.4716 98.988 73.0796 98.748C72.6956 98.5 72.3956 98.148 72.1796 97.692C71.9636 97.228 71.8556 96.688 71.8556 96.072C71.8556 95.44 71.9636 94.9 72.1796 94.452C72.3956 94.004 72.6956 93.656 73.0796 93.408C73.4716 93.16 73.9236 93.036 74.4356 93.036C74.9476 93.036 75.3876 93.164 75.7556 93.42C76.1316 93.668 76.3836 94.004 76.5116 94.428H76.3796V90.54H77.5916V99H76.4036V97.68H76.5236C76.3956 98.112 76.1436 98.46 75.7676 98.724C75.3996 98.98 74.9556 99.108 74.4356 99.108ZM74.7476 98.172C75.2436 98.172 75.6436 97.992 75.9476 97.632C76.2516 97.272 76.4036 96.752 76.4036 96.072C76.4036 95.384 76.2516 94.864 75.9476 94.512C75.6436 94.16 75.2436 93.984 74.7476 93.984C74.2436 93.984 73.8396 94.16 73.5356 94.512C73.2316 94.864 73.0796 95.384 73.0796 96.072C73.0796 96.752 73.2316 97.272 73.5356 97.632C73.8396 97.992 74.2436 98.172 74.7476 98.172ZM81.8374 99.108C81.2454 99.108 80.7334 98.984 80.3014 98.736C79.8774 98.488 79.5454 98.136 79.3054 97.68C79.0654 97.224 78.9454 96.688 78.9454 96.072C78.9454 95.448 79.0654 94.912 79.3054 94.464C79.5454 94.008 79.8774 93.656 80.3014 93.408C80.7334 93.16 81.2454 93.036 81.8374 93.036C82.4214 93.036 82.9254 93.16 83.3494 93.408C83.7814 93.656 84.1174 94.008 84.3574 94.464C84.5974 94.92 84.7174 95.456 84.7174 96.072C84.7174 96.688 84.5974 97.224 84.3574 97.68C84.1174 98.136 83.7814 98.488 83.3494 98.736C82.9254 98.984 82.4214 99.108 81.8374 99.108ZM81.8254 98.172C82.3294 98.172 82.7334 97.992 83.0374 97.632C83.3414 97.272 83.4934 96.752 83.4934 96.072C83.4934 95.384 83.3414 94.864 83.0374 94.512C82.7334 94.16 82.3294 93.984 81.8254 93.984C81.3294 93.984 80.9294 94.16 80.6254 94.512C80.3214 94.864 80.1694 95.384 80.1694 96.072C80.1694 96.752 80.3214 97.272 80.6254 97.632C80.9294 97.992 81.3294 98.172 81.8254 98.172ZM87.5571 99L85.3251 93.144H86.5731L88.2891 97.98H88.0011L89.7651 93.144H90.7011L92.4291 97.98H92.1651L93.8931 93.144H95.0811L92.8491 99H91.7451L89.8971 94.008H90.4971L88.6611 99H87.5571ZM101.854 99.108C101.254 99.108 100.734 98.984 100.294 98.736C99.8619 98.48 99.5259 98.124 99.2859 97.668C99.0459 97.204 98.9259 96.66 98.9259 96.036C98.9259 95.42 99.0459 94.888 99.2859 94.44C99.5259 93.992 99.8619 93.648 100.294 93.408C100.734 93.16 101.254 93.036 101.854 93.036C102.222 93.036 102.586 93.1 102.946 93.228C103.306 93.348 103.602 93.524 103.834 93.756L103.45 94.608C103.234 94.4 102.99 94.248 102.718 94.152C102.446 94.048 102.19 93.996 101.95 93.996C101.382 93.996 100.942 94.176 100.63 94.536C100.326 94.888 100.174 95.392 100.174 96.048C100.174 96.704 100.326 97.22 100.63 97.596C100.942 97.964 101.382 98.148 101.95 98.148C102.19 98.148 102.446 98.1 102.718 98.004C102.99 97.9 103.234 97.744 103.45 97.536L103.834 98.4C103.602 98.616 103.302 98.788 102.934 98.916C102.574 99.044 102.214 99.108 101.854 99.108ZM106.783 99.108C106.143 99.108 105.663 98.928 105.343 98.568C105.031 98.2 104.875 97.672 104.875 96.984V90.54H106.087V96.912C106.087 97.168 106.123 97.388 106.195 97.572C106.267 97.748 106.375 97.88 106.519 97.968C106.663 98.056 106.843 98.1 107.059 98.1C107.155 98.1 107.247 98.096 107.335 98.088C107.423 98.08 107.507 98.064 107.587 98.04L107.563 99.012C107.427 99.044 107.295 99.068 107.167 99.084C107.039 99.1 106.911 99.108 106.783 99.108ZM111.029 99.108C110.437 99.108 109.925 98.984 109.493 98.736C109.069 98.488 108.737 98.136 108.497 97.68C108.257 97.224 108.137 96.688 108.137 96.072C108.137 95.448 108.257 94.912 108.497 94.464C108.737 94.008 109.069 93.656 109.493 93.408C109.925 93.16 110.437 93.036 111.029 93.036C111.613 93.036 112.117 93.16 112.541 93.408C112.973 93.656 113.309 94.008 113.549 94.464C113.789 94.92 113.909 95.456 113.909 96.072C113.909 96.688 113.789 97.224 113.549 97.68C113.309 98.136 112.973 98.488 112.541 98.736C112.117 98.984 111.613 99.108 111.029 99.108ZM111.017 98.172C111.521 98.172 111.925 97.992 112.229 97.632C112.533 97.272 112.685 96.752 112.685 96.072C112.685 95.384 112.533 94.864 112.229 94.512C111.925 94.16 111.521 93.984 111.017 93.984C110.521 93.984 110.121 94.16 109.817 94.512C109.513 94.864 109.361 95.384 109.361 96.072C109.361 96.752 109.513 97.272 109.817 97.632C110.121 97.992 110.521 98.172 111.017 98.172ZM117.322 99.108C117.01 99.108 116.706 99.08 116.41 99.024C116.114 98.968 115.842 98.888 115.594 98.784C115.346 98.68 115.126 98.552 114.934 98.4L115.282 97.584C115.482 97.72 115.694 97.84 115.918 97.944C116.142 98.04 116.374 98.112 116.614 98.16C116.862 98.208 117.102 98.232 117.334 98.232C117.758 98.232 118.078 98.156 118.294 98.004C118.51 97.852 118.618 97.648 118.618 97.392C118.618 97.184 118.546 97.024 118.402 96.912C118.258 96.792 118.042 96.7 117.754 96.636L116.614 96.408C116.118 96.304 115.742 96.12 115.486 95.856C115.23 95.592 115.102 95.256 115.102 94.848C115.102 94.48 115.202 94.16 115.402 93.888C115.602 93.616 115.882 93.408 116.242 93.264C116.602 93.112 117.018 93.036 117.49 93.036C117.762 93.036 118.026 93.064 118.282 93.12C118.538 93.176 118.778 93.256 119.002 93.36C119.234 93.464 119.43 93.596 119.59 93.756L119.242 94.572C119.09 94.436 118.914 94.32 118.714 94.224C118.522 94.128 118.322 94.056 118.114 94.008C117.906 93.952 117.698 93.924 117.49 93.924C117.066 93.924 116.746 94.004 116.53 94.164C116.322 94.316 116.218 94.524 116.218 94.788C116.218 94.988 116.282 95.152 116.41 95.28C116.538 95.408 116.738 95.5 117.01 95.556L118.15 95.784C118.67 95.888 119.062 96.064 119.326 96.312C119.598 96.56 119.734 96.896 119.734 97.32C119.734 97.688 119.634 98.008 119.434 98.28C119.234 98.552 118.95 98.76 118.582 98.904C118.222 99.04 117.802 99.108 117.322 99.108ZM123.83 99.108C123.19 99.108 122.638 98.988 122.174 98.748C121.718 98.5 121.362 98.152 121.106 97.704C120.858 97.248 120.734 96.708 120.734 96.084C120.734 95.476 120.858 94.944 121.106 94.488C121.354 94.032 121.694 93.676 122.126 93.42C122.558 93.164 123.05 93.036 123.602 93.036C124.146 93.036 124.61 93.156 124.994 93.396C125.386 93.628 125.686 93.96 125.894 94.392C126.102 94.824 126.206 95.34 126.206 95.94V96.348H121.694V95.604H125.39L125.186 95.772C125.186 95.172 125.054 94.708 124.79 94.38C124.526 94.052 124.146 93.888 123.65 93.888C123.274 93.888 122.954 93.976 122.69 94.152C122.434 94.328 122.238 94.572 122.102 94.884C121.966 95.196 121.898 95.56 121.898 95.976V96.048C121.898 96.512 121.97 96.904 122.114 97.224C122.266 97.536 122.486 97.772 122.774 97.932C123.062 98.092 123.418 98.172 123.842 98.172C124.178 98.172 124.506 98.12 124.826 98.016C125.154 97.904 125.462 97.732 125.75 97.5L126.11 98.34C125.846 98.58 125.506 98.768 125.09 98.904C124.674 99.04 124.254 99.108 123.83 99.108ZM129.58 99.108C129.268 99.108 128.964 99.08 128.668 99.024C128.372 98.968 128.1 98.888 127.852 98.784C127.604 98.68 127.384 98.552 127.192 98.4L127.54 97.584C127.74 97.72 127.952 97.84 128.176 97.944C128.4 98.04 128.632 98.112 128.872 98.16C129.12 98.208 129.36 98.232 129.592 98.232C130.016 98.232 130.336 98.156 130.552 98.004C130.768 97.852 130.876 97.648 130.876 97.392C130.876 97.184 130.804 97.024 130.66 96.912C130.516 96.792 130.3 96.7 130.012 96.636L128.872 96.408C128.376 96.304 128 96.12 127.744 95.856C127.488 95.592 127.36 95.256 127.36 94.848C127.36 94.48 127.46 94.16 127.66 93.888C127.86 93.616 128.14 93.408 128.5 93.264C128.86 93.112 129.276 93.036 129.748 93.036C130.02 93.036 130.284 93.064 130.54 93.12C130.796 93.176 131.036 93.256 131.26 93.36C131.492 93.464 131.688 93.596 131.848 93.756L131.5 94.572C131.348 94.436 131.172 94.32 130.972 94.224C130.78 94.128 130.58 94.056 130.372 94.008C130.164 93.952 129.956 93.924 129.748 93.924C129.324 93.924 129.004 94.004 128.788 94.164C128.58 94.316 128.476 94.524 128.476 94.788C128.476 94.988 128.54 95.152 128.668 95.28C128.796 95.408 128.996 95.5 129.268 95.556L130.408 95.784C130.928 95.888 131.32 96.064 131.584 96.312C131.856 96.56 131.992 96.896 131.992 97.32C131.992 97.688 131.892 98.008 131.692 98.28C131.492 98.552 131.208 98.76 130.84 98.904C130.48 99.04 130.06 99.108 129.58 99.108ZM136.385 91.788V90.528H137.801V91.788H136.385ZM136.493 99V93.144H137.705V99H136.493ZM139.411 99V93.144H140.587V94.392H140.455C140.631 93.944 140.907 93.608 141.283 93.384C141.659 93.152 142.091 93.036 142.579 93.036C143.043 93.036 143.427 93.124 143.731 93.3C144.043 93.468 144.275 93.728 144.427 94.08C144.579 94.424 144.655 94.86 144.655 95.388V99H143.443V95.46C143.443 95.124 143.399 94.852 143.311 94.644C143.223 94.428 143.091 94.268 142.915 94.164C142.739 94.06 142.511 94.008 142.231 94.008C141.911 94.008 141.627 94.076 141.379 94.212C141.139 94.348 140.951 94.544 140.815 94.8C140.687 95.056 140.623 95.352 140.623 95.688V99H139.411ZM149.645 99V98.076L152.465 95.052C152.729 94.764 152.941 94.5 153.101 94.26C153.261 94.012 153.377 93.776 153.449 93.552C153.529 93.32 153.569 93.088 153.569 92.856C153.569 92.408 153.433 92.068 153.161 91.836C152.889 91.604 152.489 91.488 151.961 91.488C151.553 91.488 151.165 91.564 150.797 91.716C150.437 91.868 150.093 92.1 149.765 92.412L149.321 91.464C149.641 91.152 150.049 90.904 150.545 90.72C151.041 90.528 151.557 90.432 152.093 90.432C152.677 90.432 153.169 90.524 153.569 90.708C153.977 90.884 154.285 91.144 154.493 91.488C154.701 91.832 154.805 92.252 154.805 92.748C154.805 93.004 154.773 93.256 154.709 93.504C154.653 93.744 154.561 93.984 154.433 94.224C154.313 94.464 154.157 94.712 153.965 94.968C153.781 95.224 153.557 95.488 153.293 95.76L150.881 98.304V97.956H155.141V99H149.645ZM162.057 99.108C161.545 99.108 161.093 98.988 160.701 98.748C160.317 98.5 160.017 98.148 159.801 97.692C159.585 97.228 159.477 96.688 159.477 96.072C159.477 95.44 159.585 94.9 159.801 94.452C160.017 94.004 160.317 93.656 160.701 93.408C161.093 93.16 161.545 93.036 162.057 93.036C162.569 93.036 163.009 93.164 163.377 93.42C163.753 93.668 164.005 94.004 164.133 94.428H164.001V90.54H165.213V99H164.025V97.68H164.145C164.017 98.112 163.765 98.46 163.389 98.724C163.021 98.98 162.577 99.108 162.057 99.108ZM162.369 98.172C162.865 98.172 163.265 97.992 163.569 97.632C163.873 97.272 164.025 96.752 164.025 96.072C164.025 95.384 163.873 94.864 163.569 94.512C163.265 94.16 162.865 93.984 162.369 93.984C161.865 93.984 161.461 94.16 161.157 94.512C160.853 94.864 160.701 95.384 160.701 96.072C160.701 96.752 160.853 97.272 161.157 97.632C161.461 97.992 161.865 98.172 162.369 98.172ZM168.787 99.108C168.379 99.108 168.011 99.028 167.683 98.868C167.363 98.708 167.111 98.492 166.927 98.22C166.743 97.948 166.651 97.64 166.651 97.296C166.651 96.864 166.759 96.524 166.975 96.276C167.199 96.02 167.563 95.84 168.067 95.736C168.579 95.624 169.267 95.568 170.131 95.568H170.695V96.312H170.143C169.711 96.312 169.347 96.328 169.051 96.36C168.755 96.392 168.519 96.444 168.343 96.516C168.167 96.58 168.039 96.672 167.959 96.792C167.887 96.912 167.851 97.056 167.851 97.224C167.851 97.528 167.955 97.776 168.163 97.968C168.371 98.152 168.659 98.244 169.027 98.244C169.323 98.244 169.583 98.176 169.807 98.04C170.031 97.896 170.207 97.704 170.335 97.464C170.471 97.224 170.539 96.948 170.539 96.636V95.256C170.539 94.8 170.443 94.472 170.251 94.272C170.059 94.072 169.743 93.972 169.303 93.972C168.967 93.972 168.631 94.024 168.295 94.128C167.959 94.224 167.615 94.38 167.263 94.596L166.891 93.744C167.099 93.6 167.339 93.476 167.611 93.372C167.883 93.268 168.167 93.188 168.463 93.132C168.767 93.068 169.059 93.036 169.339 93.036C169.875 93.036 170.315 93.12 170.659 93.288C171.011 93.456 171.271 93.712 171.439 94.056C171.607 94.4 171.691 94.844 171.691 95.388V99H170.551V97.692H170.659C170.595 97.988 170.475 98.244 170.299 98.46C170.131 98.668 169.919 98.828 169.663 98.94C169.407 99.052 169.115 99.108 168.787 99.108ZM173.901 101.16L175.053 98.592V99.108L172.497 93.144H173.793L175.761 98.004H175.425L177.417 93.144H178.665L175.173 101.16H173.901ZM181.47 99.108C181.158 99.108 180.854 99.08 180.558 99.024C180.262 98.968 179.99 98.888 179.742 98.784C179.494 98.68 179.274 98.552 179.082 98.4L179.43 97.584C179.63 97.72 179.842 97.84 180.066 97.944C180.29 98.04 180.522 98.112 180.762 98.16C181.01 98.208 181.25 98.232 181.482 98.232C181.906 98.232 182.226 98.156 182.442 98.004C182.658 97.852 182.766 97.648 182.766 97.392C182.766 97.184 182.694 97.024 182.55 96.912C182.406 96.792 182.19 96.7 181.902 96.636L180.762 96.408C180.266 96.304 179.89 96.12 179.634 95.856C179.378 95.592 179.25 95.256 179.25 94.848C179.25 94.48 179.35 94.16 179.55 93.888C179.75 93.616 180.03 93.408 180.39 93.264C180.75 93.112 181.166 93.036 181.638 93.036C181.91 93.036 182.174 93.064 182.43 93.12C182.686 93.176 182.926 93.256 183.15 93.36C183.382 93.464 183.578 93.596 183.738 93.756L183.39 94.572C183.238 94.436 183.062 94.32 182.862 94.224C182.67 94.128 182.47 94.056 182.262 94.008C182.054 93.952 181.846 93.924 181.638 93.924C181.214 93.924 180.894 94.004 180.678 94.164C180.47 94.316 180.366 94.524 180.366 94.788C180.366 94.988 180.43 95.152 180.558 95.28C180.686 95.408 180.886 95.5 181.158 95.556L182.298 95.784C182.818 95.888 183.21 96.064 183.474 96.312C183.746 96.56 183.882 96.896 183.882 97.32C183.882 97.688 183.782 98.008 183.582 98.28C183.382 98.552 183.098 98.76 182.73 98.904C182.37 99.04 181.95 99.108 181.47 99.108ZM188.239 96.516V95.088H189.667V96.516H188.239ZM194.731 99V94.08H193.591V93.144H195.079L194.731 93.468V93.036C194.731 92.236 194.935 91.632 195.343 91.224C195.759 90.808 196.395 90.576 197.251 90.528L197.731 90.504L197.803 91.416L197.311 91.44C196.983 91.456 196.719 91.52 196.519 91.632C196.319 91.744 196.171 91.904 196.075 92.112C195.987 92.312 195.943 92.564 195.943 92.868V93.288V93.144H199.675V99H198.463V94.08H195.943V99H194.731ZM198.355 91.788V90.528H199.771V91.788H198.355ZM203.276 99.108C202.636 99.108 202.156 98.928 201.836 98.568C201.524 98.2 201.368 97.672 201.368 96.984V90.54H202.58V96.912C202.58 97.168 202.616 97.388 202.688 97.572C202.76 97.748 202.868 97.88 203.012 97.968C203.156 98.056 203.336 98.1 203.552 98.1C203.648 98.1 203.74 98.096 203.828 98.088C203.916 98.08 204 98.064 204.08 98.04L204.056 99.012C203.92 99.044 203.788 99.068 203.66 99.084C203.532 99.1 203.404 99.108 203.276 99.108ZM207.725 99.108C207.085 99.108 206.533 98.988 206.069 98.748C205.613 98.5 205.257 98.152 205.001 97.704C204.753 97.248 204.629 96.708 204.629 96.084C204.629 95.476 204.753 94.944 205.001 94.488C205.249 94.032 205.589 93.676 206.021 93.42C206.453 93.164 206.945 93.036 207.497 93.036C208.041 93.036 208.505 93.156 208.889 93.396C209.281 93.628 209.581 93.96 209.789 94.392C209.997 94.824 210.101 95.34 210.101 95.94V96.348H205.589V95.604H209.285L209.081 95.772C209.081 95.172 208.949 94.708 208.685 94.38C208.421 94.052 208.041 93.888 207.545 93.888C207.169 93.888 206.849 93.976 206.585 94.152C206.329 94.328 206.133 94.572 205.997 94.884C205.861 95.196 205.793 95.56 205.793 95.976V96.048C205.793 96.512 205.865 96.904 206.009 97.224C206.161 97.536 206.381 97.772 206.669 97.932C206.957 98.092 207.313 98.172 207.737 98.172C208.073 98.172 208.401 98.12 208.721 98.016C209.049 97.904 209.357 97.732 209.645 97.5L210.005 98.34C209.741 98.58 209.401 98.768 208.985 98.904C208.569 99.04 208.149 99.108 207.725 99.108ZM213.654 99.108C213.142 99.108 212.69 98.988 212.298 98.748C211.914 98.5 211.614 98.148 211.398 97.692C211.182 97.228 211.074 96.688 211.074 96.072C211.074 95.44 211.182 94.9 211.398 94.452C211.614 94.004 211.914 93.656 212.298 93.408C212.69 93.16 213.142 93.036 213.654 93.036C214.166 93.036 214.606 93.164 214.974 93.42C215.35 93.668 215.602 94.004 215.73 94.428H215.598V90.54H216.81V99H215.622V97.68H215.742C215.614 98.112 215.362 98.46 214.986 98.724C214.618 98.98 214.174 99.108 213.654 99.108ZM213.966 98.172C214.462 98.172 214.862 97.992 215.166 97.632C215.47 97.272 215.622 96.752 215.622 96.072C215.622 95.384 215.47 94.864 215.166 94.512C214.862 94.16 214.462 93.984 213.966 93.984C213.462 93.984 213.058 94.16 212.754 94.512C212.45 94.864 212.298 95.384 212.298 96.072C212.298 96.752 212.45 97.272 212.754 97.632C213.058 97.992 213.462 98.172 213.966 98.172ZM223.537 99.108C223.129 99.108 222.761 99.028 222.433 98.868C222.113 98.708 221.861 98.492 221.677 98.22C221.493 97.948 221.401 97.64 221.401 97.296C221.401 96.864 221.509 96.524 221.725 96.276C221.949 96.02 222.313 95.84 222.817 95.736C223.329 95.624 224.017 95.568 224.881 95.568H225.445V96.312H224.893C224.461 96.312 224.097 96.328 223.801 96.36C223.505 96.392 223.269 96.444 223.093 96.516C222.917 96.58 222.789 96.672 222.709 96.792C222.637 96.912 222.601 97.056 222.601 97.224C222.601 97.528 222.705 97.776 222.913 97.968C223.121 98.152 223.409 98.244 223.777 98.244C224.073 98.244 224.333 98.176 224.557 98.04C224.781 97.896 224.957 97.704 225.085 97.464C225.221 97.224 225.289 96.948 225.289 96.636V95.256C225.289 94.8 225.193 94.472 225.001 94.272C224.809 94.072 224.493 93.972 224.053 93.972C223.717 93.972 223.381 94.024 223.045 94.128C222.709 94.224 222.365 94.38 222.013 94.596L221.641 93.744C221.849 93.6 222.089 93.476 222.361 93.372C222.633 93.268 222.917 93.188 223.213 93.132C223.517 93.068 223.809 93.036 224.089 93.036C224.625 93.036 225.065 93.12 225.409 93.288C225.761 93.456 226.021 93.712 226.189 94.056C226.357 94.4 226.441 94.844 226.441 95.388V99H225.301V97.692H225.409C225.345 97.988 225.225 98.244 225.049 98.46C224.881 98.668 224.669 98.828 224.413 98.94C224.157 99.052 223.865 99.108 223.537 99.108ZM230.198 99.108C229.726 99.108 229.33 99.02 229.01 98.844C228.698 98.668 228.462 98.408 228.302 98.064C228.15 97.712 228.074 97.272 228.074 96.744V93.144H229.286V96.756C229.286 97.068 229.326 97.328 229.406 97.536C229.494 97.744 229.626 97.896 229.802 97.992C229.986 98.088 230.214 98.136 230.486 98.136C230.79 98.136 231.058 98.068 231.29 97.932C231.522 97.796 231.702 97.6 231.83 97.344C231.958 97.088 232.022 96.792 232.022 96.456V93.144H233.234V99H232.058V97.716H232.214C232.054 98.164 231.798 98.508 231.446 98.748C231.094 98.988 230.678 99.108 230.198 99.108ZM237.438 99.108C236.71 99.108 236.162 98.92 235.794 98.544C235.434 98.168 235.254 97.624 235.254 96.912V94.08H234.114V93.144H235.254V91.38H236.466V93.144H238.278V94.08H236.466V96.816C236.466 97.24 236.554 97.56 236.73 97.776C236.914 97.992 237.21 98.1 237.618 98.1C237.738 98.1 237.858 98.084 237.978 98.052C238.106 98.02 238.23 97.988 238.35 97.956L238.542 98.868C238.422 98.94 238.254 98.996 238.038 99.036C237.83 99.084 237.63 99.108 237.438 99.108ZM241.81 99.108C241.218 99.108 240.706 98.984 240.274 98.736C239.85 98.488 239.518 98.136 239.278 97.68C239.038 97.224 238.918 96.688 238.918 96.072C238.918 95.448 239.038 94.912 239.278 94.464C239.518 94.008 239.85 93.656 240.274 93.408C240.706 93.16 241.218 93.036 241.81 93.036C242.394 93.036 242.898 93.16 243.322 93.408C243.754 93.656 244.09 94.008 244.33 94.464C244.57 94.92 244.69 95.456 244.69 96.072C244.69 96.688 244.57 97.224 244.33 97.68C244.09 98.136 243.754 98.488 243.322 98.736C242.898 98.984 242.394 99.108 241.81 99.108ZM241.798 98.172C242.302 98.172 242.706 97.992 243.01 97.632C243.314 97.272 243.466 96.752 243.466 96.072C243.466 95.384 243.314 94.864 243.01 94.512C242.706 94.16 242.302 93.984 241.798 93.984C241.302 93.984 240.902 94.16 240.598 94.512C240.294 94.864 240.142 95.384 240.142 96.072C240.142 96.752 240.294 97.272 240.598 97.632C240.902 97.992 241.302 98.172 241.798 98.172ZM246.075 99V93.144H247.251V94.392H247.119C247.223 94.104 247.367 93.86 247.551 93.66C247.735 93.46 247.955 93.308 248.211 93.204C248.475 93.092 248.763 93.036 249.075 93.036C249.563 93.036 249.959 93.152 250.263 93.384C250.567 93.616 250.775 93.972 250.887 94.452H250.719C250.871 94.012 251.131 93.668 251.499 93.42C251.867 93.164 252.295 93.036 252.783 93.036C253.231 93.036 253.599 93.124 253.887 93.3C254.175 93.468 254.391 93.728 254.535 94.08C254.679 94.424 254.751 94.86 254.751 95.388V99H253.539V95.448C253.539 94.952 253.451 94.588 253.275 94.356C253.107 94.124 252.827 94.008 252.435 94.008C252.147 94.008 251.895 94.076 251.679 94.212C251.463 94.348 251.295 94.548 251.175 94.812C251.063 95.068 251.007 95.372 251.007 95.724V99H249.795V95.448C249.795 94.952 249.711 94.588 249.543 94.356C249.375 94.124 249.095 94.008 248.703 94.008C248.407 94.008 248.151 94.076 247.935 94.212C247.727 94.348 247.567 94.548 247.455 94.812C247.343 95.068 247.287 95.372 247.287 95.724V99H246.075ZM258.318 99.108C257.91 99.108 257.542 99.028 257.214 98.868C256.894 98.708 256.642 98.492 256.458 98.22C256.274 97.948 256.182 97.64 256.182 97.296C256.182 96.864 256.29 96.524 256.506 96.276C256.73 96.02 257.094 95.84 257.598 95.736C258.11 95.624 258.798 95.568 259.662 95.568H260.226V96.312H259.674C259.242 96.312 258.878 96.328 258.582 96.36C258.286 96.392 258.05 96.444 257.874 96.516C257.698 96.58 257.57 96.672 257.49 96.792C257.418 96.912 257.382 97.056 257.382 97.224C257.382 97.528 257.486 97.776 257.694 97.968C257.902 98.152 258.19 98.244 258.558 98.244C258.854 98.244 259.114 98.176 259.338 98.04C259.562 97.896 259.738 97.704 259.866 97.464C260.002 97.224 260.07 96.948 260.07 96.636V95.256C260.07 94.8 259.974 94.472 259.782 94.272C259.59 94.072 259.274 93.972 258.834 93.972C258.498 93.972 258.162 94.024 257.826 94.128C257.49 94.224 257.146 94.38 256.794 94.596L256.422 93.744C256.63 93.6 256.87 93.476 257.142 93.372C257.414 93.268 257.698 93.188 257.994 93.132C258.298 93.068 258.59 93.036 258.87 93.036C259.406 93.036 259.846 93.12 260.19 93.288C260.542 93.456 260.802 93.712 260.97 94.056C261.138 94.4 261.222 94.844 261.222 95.388V99H260.082V97.692H260.19C260.126 97.988 260.006 98.244 259.83 98.46C259.662 98.668 259.45 98.828 259.194 98.94C258.938 99.052 258.646 99.108 258.318 99.108ZM265.387 99.108C264.659 99.108 264.111 98.92 263.743 98.544C263.383 98.168 263.203 97.624 263.203 96.912V94.08H262.063V93.144H263.203V91.38H264.415V93.144H266.227V94.08H264.415V96.816C264.415 97.24 264.503 97.56 264.679 97.776C264.863 97.992 265.159 98.1 265.567 98.1C265.687 98.1 265.807 98.084 265.927 98.052C266.055 98.02 266.179 97.988 266.299 97.956L266.491 98.868C266.371 98.94 266.203 98.996 265.987 99.036C265.779 99.084 265.579 99.108 265.387 99.108ZM267.166 91.788V90.528H268.582V91.788H267.166ZM267.274 99V93.144H268.486V99H267.274ZM272.772 99.108C272.172 99.108 271.652 98.984 271.212 98.736C270.78 98.48 270.444 98.124 270.204 97.668C269.964 97.204 269.844 96.66 269.844 96.036C269.844 95.42 269.964 94.888 270.204 94.44C270.444 93.992 270.78 93.648 271.212 93.408C271.652 93.16 272.172 93.036 272.772 93.036C273.14 93.036 273.504 93.1 273.864 93.228C274.224 93.348 274.52 93.524 274.752 93.756L274.368 94.608C274.152 94.4 273.908 94.248 273.636 94.152C273.364 94.048 273.108 93.996 272.868 93.996C272.3 93.996 271.86 94.176 271.548 94.536C271.244 94.888 271.092 95.392 271.092 96.048C271.092 96.704 271.244 97.22 271.548 97.596C271.86 97.964 272.3 98.148 272.868 98.148C273.108 98.148 273.364 98.1 273.636 98.004C273.908 97.9 274.152 97.744 274.368 97.536L274.752 98.4C274.52 98.616 274.22 98.788 273.852 98.916C273.492 99.044 273.132 99.108 272.772 99.108ZM277.619 99.108C277.211 99.108 276.843 99.028 276.515 98.868C276.195 98.708 275.943 98.492 275.759 98.22C275.575 97.948 275.483 97.64 275.483 97.296C275.483 96.864 275.591 96.524 275.807 96.276C276.031 96.02 276.395 95.84 276.899 95.736C277.411 95.624 278.099 95.568 278.963 95.568H279.527V96.312H278.975C278.543 96.312 278.179 96.328 277.883 96.36C277.587 96.392 277.351 96.444 277.175 96.516C276.999 96.58 276.871 96.672 276.791 96.792C276.719 96.912 276.683 97.056 276.683 97.224C276.683 97.528 276.787 97.776 276.995 97.968C277.203 98.152 277.491 98.244 277.859 98.244C278.155 98.244 278.415 98.176 278.639 98.04C278.863 97.896 279.039 97.704 279.167 97.464C279.303 97.224 279.371 96.948 279.371 96.636V95.256C279.371 94.8 279.275 94.472 279.083 94.272C278.891 94.072 278.575 93.972 278.135 93.972C277.799 93.972 277.463 94.024 277.127 94.128C276.791 94.224 276.447 94.38 276.095 94.596L275.723 93.744C275.931 93.6 276.171 93.476 276.443 93.372C276.715 93.268 276.999 93.188 277.295 93.132C277.599 93.068 277.891 93.036 278.171 93.036C278.707 93.036 279.147 93.12 279.491 93.288C279.843 93.456 280.103 93.712 280.271 94.056C280.439 94.4 280.523 94.844 280.523 95.388V99H279.383V97.692H279.491C279.427 97.988 279.307 98.244 279.131 98.46C278.963 98.668 278.751 98.828 278.495 98.94C278.239 99.052 277.947 99.108 277.619 99.108ZM284.1 99.108C283.46 99.108 282.98 98.928 282.66 98.568C282.348 98.2 282.192 97.672 282.192 96.984V90.54H283.404V96.912C283.404 97.168 283.44 97.388 283.512 97.572C283.584 97.748 283.692 97.88 283.836 97.968C283.98 98.056 284.16 98.1 284.376 98.1C284.472 98.1 284.564 98.096 284.652 98.088C284.74 98.08 284.824 98.064 284.904 98.04L284.88 99.012C284.744 99.044 284.612 99.068 284.484 99.084C284.356 99.1 284.228 99.108 284.1 99.108ZM287.768 99.108C287.128 99.108 286.648 98.928 286.328 98.568C286.016 98.2 285.86 97.672 285.86 96.984V90.54H287.072V96.912C287.072 97.168 287.108 97.388 287.18 97.572C287.252 97.748 287.36 97.88 287.504 97.968C287.648 98.056 287.828 98.1 288.044 98.1C288.14 98.1 288.232 98.096 288.32 98.088C288.408 98.08 288.492 98.064 288.572 98.04L288.548 99.012C288.412 99.044 288.28 99.068 288.152 99.084C288.024 99.1 287.896 99.108 287.768 99.108ZM289.987 101.16L291.139 98.592V99.108L288.583 93.144H289.879L291.847 98.004H291.511L293.503 93.144H294.751L291.259 101.16H289.987Z" fill="#BD8125"/>
</svg>
