<svg width="353" height="112" viewBox="0 0 353 112" fill="none" xmlns="http://www.w3.org/2000/svg">
<rect width="353" height="112" rx="12" fill="white"/>
<path d="M96 56C96 78.0914 78.0914 96 56 96C33.9086 96 16 78.0914 16 56C16 33.9086 33.9086 16 56 16C78.0914 16 96 33.9086 96 56ZM24 56C24 73.6731 38.3269 88 56 88C73.6731 88 88 73.6731 88 56C88 38.3269 73.6731 24 56 24C38.3269 24 24 38.3269 24 56Z" fill="#F5F5F6"/>
<path d="M92 56C94.2091 56 96.0207 54.2047 95.8002 52.0065C95.1846 45.8712 93.1565 39.9419 89.8527 34.6929C85.8364 28.3118 80.0984 23.1958 73.3003 19.9348C66.5022 16.6738 58.9208 15.4005 51.4304 16.2619C43.94 17.1232 36.8455 20.0841 30.965 24.803C25.0846 29.522 20.6576 35.8069 18.1945 42.9331C15.7315 50.0592 15.3326 57.7364 17.0441 65.0794C18.7555 72.4224 22.5074 79.1322 27.8673 84.435C32.2763 88.7972 37.6256 92.0612 43.4821 93.9908C45.5803 94.6822 47.7253 93.3024 48.2038 91.1457C48.6822 88.989 47.3093 86.8764 45.2291 86.1329C40.8398 84.5639 36.8303 82.049 33.4938 78.748C29.2059 74.5057 26.2044 69.1379 24.8353 63.2635C23.4661 57.3891 23.7852 51.2474 25.7556 45.5464C27.7261 39.8455 31.2676 34.8176 35.972 31.0424C40.6764 27.2673 46.352 24.8986 52.3443 24.2095C58.3367 23.5204 64.4018 24.539 69.8402 27.1478C75.2787 29.7566 79.8691 33.8494 83.0822 38.9543C85.5823 42.9264 87.1692 47.3854 87.7503 52.0103C88.0258 54.2022 89.7909 56 92 56Z" fill="#FBC942"/>
<path d="M38.6081 61.14C38.2627 61.14 37.9127 61.0933 37.5581 61C37.2127 60.916 36.8814 60.79 36.5641 60.622C36.2561 60.454 35.9761 60.2533 35.7241 60.02L36.3261 58.676C36.6621 58.9933 37.0261 59.2313 37.4181 59.39C37.8194 59.5487 38.2207 59.628 38.6221 59.628C39.0327 59.628 39.3921 59.558 39.7001 59.418C40.0174 59.2687 40.2834 59.054 40.4981 58.774C40.7127 58.4847 40.8714 58.13 40.9741 57.71C41.0861 57.2807 41.1421 56.786 41.1421 56.226V55.176H41.2961C41.2307 55.6427 41.0767 56.0487 40.8341 56.394C40.5914 56.7393 40.2834 57.0053 39.9101 57.192C39.5461 57.3693 39.1307 57.458 38.6641 57.458C38.1041 57.458 37.6047 57.3227 37.1661 57.052C36.7274 56.7813 36.3774 56.408 36.1161 55.932C35.8641 55.4467 35.7381 54.9007 35.7381 54.294C35.7381 53.65 35.8781 53.0807 36.1581 52.586C36.4381 52.0913 36.8207 51.704 37.3061 51.424C37.8007 51.1347 38.3654 50.99 39.0001 50.99C39.8214 50.99 40.5167 51.1813 41.0861 51.564C41.6554 51.9467 42.0894 52.5067 42.3881 53.244C42.6867 53.972 42.8361 54.854 42.8361 55.89C42.8361 57.0007 42.6681 57.948 42.3321 58.732C41.9961 59.516 41.5107 60.1133 40.8761 60.524C40.2507 60.9347 39.4947 61.14 38.6081 61.14ZM39.1121 56.03C39.4481 56.03 39.7421 55.9553 39.9941 55.806C40.2554 55.6567 40.4561 55.4467 40.5961 55.176C40.7361 54.896 40.8061 54.5787 40.8061 54.224C40.8061 53.86 40.7361 53.5427 40.5961 53.272C40.4561 53.0013 40.2554 52.7913 39.9941 52.642C39.7421 52.4833 39.4481 52.404 39.1121 52.404C38.7761 52.404 38.4821 52.4833 38.2301 52.642C37.9781 52.7913 37.7774 53.0013 37.6281 53.272C37.4881 53.5427 37.4181 53.86 37.4181 54.224C37.4181 54.5787 37.4881 54.896 37.6281 55.176C37.7774 55.4467 37.9781 55.6567 38.2301 55.806C38.4821 55.9553 38.7761 56.03 39.1121 56.03ZM47.7586 61.14C46.6106 61.14 45.7099 60.8927 45.0566 60.398C44.4126 59.9033 44.0906 59.2173 44.0906 58.34C44.0906 57.8733 44.1839 57.4627 44.3706 57.108C44.5666 56.744 44.8326 56.45 45.1686 56.226C45.5046 56.002 45.8873 55.862 46.3166 55.806V56.1C45.9246 56.016 45.5793 55.862 45.2806 55.638C44.9819 55.4047 44.7486 55.12 44.5806 54.784C44.4219 54.4387 44.3426 54.0607 44.3426 53.65C44.3426 52.8193 44.6506 52.1707 45.2666 51.704C45.8826 51.228 46.7179 50.99 47.7726 50.99C48.8179 50.99 49.6486 51.228 50.2646 51.704C50.8806 52.1707 51.1886 52.8193 51.1886 53.65C51.1886 54.0607 51.1046 54.4387 50.9366 54.784C50.7779 55.1293 50.5493 55.414 50.2506 55.638C49.9613 55.862 49.6206 56.0113 49.2286 56.086V55.806C49.6673 55.862 50.0499 56.0067 50.3766 56.24C50.7033 56.464 50.9599 56.758 51.1466 57.122C51.3333 57.4767 51.4266 57.8827 51.4266 58.34C51.4266 59.2173 51.0999 59.9033 50.4466 60.398C49.8026 60.8927 48.9066 61.14 47.7586 61.14ZM47.7586 59.74C48.4213 59.74 48.9206 59.614 49.2566 59.362C49.5926 59.1007 49.7606 58.718 49.7606 58.214C49.7606 57.71 49.5926 57.332 49.2566 57.08C48.9206 56.828 48.4213 56.702 47.7586 56.702C47.1053 56.702 46.6059 56.828 46.2606 57.08C45.9246 57.332 45.7566 57.71 45.7566 58.214C45.7566 58.718 45.9246 59.1007 46.2606 59.362C46.6059 59.614 47.1053 59.74 47.7586 59.74ZM47.7586 55.302C48.3093 55.302 48.7386 55.1713 49.0466 54.91C49.3639 54.6487 49.5226 54.2893 49.5226 53.832C49.5226 53.384 49.3639 53.034 49.0466 52.782C48.7386 52.5207 48.3093 52.39 47.7586 52.39C47.2079 52.39 46.7786 52.5207 46.4706 52.782C46.1626 53.034 46.0086 53.3887 46.0086 53.846C46.0086 54.294 46.1626 54.6487 46.4706 54.91C46.7786 55.1713 47.2079 55.302 47.7586 55.302ZM52.7091 61V59.054H54.6691V61H52.7091ZM56.5458 61V59.67L59.7378 56.268C60.0271 55.96 60.2558 55.6753 60.4238 55.414C60.6011 55.1527 60.7318 54.9007 60.8158 54.658C60.8998 54.4153 60.9418 54.1727 60.9418 53.93C60.9418 53.4633 60.7924 53.1087 60.4938 52.866C60.2044 52.6233 59.7798 52.502 59.2198 52.502C58.7811 52.502 58.3518 52.586 57.9318 52.754C57.5211 52.9127 57.1244 53.1647 56.7418 53.51L56.1398 52.166C56.5318 51.8113 57.0218 51.5267 57.6098 51.312C58.1978 51.0973 58.8091 50.99 59.4438 50.99C60.1531 50.99 60.7504 51.0973 61.2358 51.312C61.7211 51.5267 62.0898 51.8393 62.3418 52.25C62.5938 52.6607 62.7198 53.16 62.7198 53.748C62.7198 54.0467 62.6824 54.3407 62.6078 54.63C62.5424 54.91 62.4351 55.19 62.2858 55.47C62.1458 55.75 61.9638 56.0393 61.7398 56.338C61.5251 56.6273 61.2638 56.9307 60.9558 57.248L58.3238 59.992V59.516H63.0978V61H56.5458ZM67.8243 61.35L67.0263 60.888L72.8363 50.78L73.6203 51.242L67.8243 61.35ZM66.9843 57.052C66.4896 57.052 66.0603 56.9353 65.6963 56.702C65.3416 56.4593 65.071 56.114 64.8843 55.666C64.6976 55.2087 64.6043 54.6627 64.6043 54.028C64.6043 53.076 64.8143 52.3387 65.2343 51.816C65.6543 51.284 66.2376 51.018 66.9843 51.018C67.479 51.018 67.9036 51.1393 68.2583 51.382C68.613 51.6153 68.8836 51.956 69.0703 52.404C69.2663 52.852 69.3643 53.3933 69.3643 54.028C69.3643 54.6627 69.2663 55.204 69.0703 55.652C68.8836 56.1 68.613 56.4453 68.2583 56.688C67.9036 56.9307 67.479 57.052 66.9843 57.052ZM66.9843 56.226C67.4136 56.226 67.7543 56.044 68.0063 55.68C68.2583 55.3067 68.3843 54.756 68.3843 54.028C68.3843 53.3 68.2583 52.754 68.0063 52.39C67.7543 52.026 67.4136 51.844 66.9843 51.844C66.5456 51.844 66.2003 52.026 65.9483 52.39C65.7056 52.754 65.5843 53.3 65.5843 54.028C65.5843 54.756 65.7056 55.3067 65.9483 55.68C66.2003 56.044 66.5456 56.226 66.9843 56.226ZM73.6763 61.126C73.191 61.126 72.7663 61.0093 72.4023 60.776C72.0476 60.5333 71.7723 60.188 71.5763 59.74C71.3896 59.2827 71.2963 58.7367 71.2963 58.102C71.2963 57.15 71.5063 56.4127 71.9263 55.89C72.3556 55.358 72.939 55.092 73.6763 55.092C74.171 55.092 74.5956 55.2133 74.9503 55.456C75.305 55.6893 75.5756 56.03 75.7623 56.478C75.9583 56.926 76.0563 57.4673 76.0563 58.102C76.0563 58.7367 75.963 59.2827 75.7763 59.74C75.5896 60.188 75.319 60.5333 74.9643 60.776C74.6096 61.0093 74.1803 61.126 73.6763 61.126ZM73.6763 60.3C74.115 60.3 74.4556 60.118 74.6983 59.754C74.9503 59.3807 75.0763 58.83 75.0763 58.102C75.0763 57.374 74.9503 56.828 74.6983 56.464C74.4556 56.1 74.115 55.918 73.6763 55.918C73.247 55.918 72.9063 56.1 72.6543 56.464C72.4116 56.828 72.2903 57.374 72.2903 58.102C72.2903 58.8393 72.4116 59.39 72.6543 59.754C72.9063 60.118 73.247 60.3 73.6763 60.3Z" fill="black"/>
<path d="M108.924 51V42.54H112.596C113.524 42.54 114.24 42.764 114.744 43.212C115.248 43.652 115.5 44.272 115.5 45.072C115.5 45.592 115.384 46.04 115.152 46.416C114.928 46.792 114.6 47.08 114.168 47.28C113.736 47.48 113.212 47.58 112.596 47.58L112.704 47.4H113.1C113.428 47.4 113.712 47.48 113.952 47.64C114.2 47.8 114.416 48.052 114.6 48.396L116.016 51H114.324L112.86 48.3C112.764 48.124 112.656 47.988 112.536 47.892C112.416 47.788 112.28 47.716 112.128 47.676C111.976 47.636 111.8 47.616 111.6 47.616H110.46V51H108.924ZM110.46 46.476H112.332C112.884 46.476 113.3 46.364 113.58 46.14C113.868 45.908 114.012 45.564 114.012 45.108C114.012 44.66 113.868 44.324 113.58 44.1C113.3 43.868 112.884 43.752 112.332 43.752H110.46V46.476ZM119.746 51.12C119.082 51.12 118.51 50.996 118.03 50.748C117.55 50.5 117.178 50.148 116.914 49.692C116.658 49.236 116.53 48.696 116.53 48.072C116.53 47.464 116.654 46.932 116.902 46.476C117.158 46.02 117.506 45.664 117.946 45.408C118.394 45.144 118.902 45.012 119.47 45.012C120.03 45.012 120.51 45.132 120.91 45.372C121.31 45.612 121.618 45.952 121.834 46.392C122.058 46.832 122.17 47.356 122.17 47.964V48.408H117.742V47.544H121.114L120.922 47.724C120.922 47.18 120.802 46.764 120.562 46.476C120.322 46.18 119.978 46.032 119.53 46.032C119.194 46.032 118.906 46.112 118.666 46.272C118.434 46.424 118.254 46.644 118.126 46.932C118.006 47.212 117.946 47.548 117.946 47.94V48.024C117.946 48.464 118.014 48.828 118.15 49.116C118.286 49.404 118.49 49.62 118.762 49.764C119.034 49.908 119.37 49.98 119.77 49.98C120.098 49.98 120.426 49.932 120.754 49.836C121.082 49.732 121.382 49.572 121.654 49.356L122.074 50.364C121.794 50.596 121.442 50.78 121.018 50.916C120.594 51.052 120.17 51.12 119.746 51.12ZM126.07 51.12C125.454 51.12 124.918 50.996 124.462 50.748C124.006 50.492 123.654 50.132 123.406 49.668C123.158 49.204 123.034 48.66 123.034 48.036C123.034 47.412 123.158 46.876 123.406 46.428C123.654 45.972 124.006 45.624 124.462 45.384C124.918 45.136 125.454 45.012 126.07 45.012C126.446 45.012 126.818 45.072 127.186 45.192C127.554 45.312 127.858 45.48 128.098 45.696L127.654 46.74C127.446 46.556 127.21 46.416 126.946 46.32C126.69 46.224 126.442 46.176 126.202 46.176C125.682 46.176 125.278 46.34 124.99 46.668C124.71 46.988 124.57 47.448 124.57 48.048C124.57 48.64 124.71 49.108 124.99 49.452C125.278 49.788 125.682 49.956 126.202 49.956C126.434 49.956 126.682 49.908 126.946 49.812C127.21 49.716 127.446 49.572 127.654 49.38L128.098 50.436C127.858 50.644 127.55 50.812 127.174 50.94C126.806 51.06 126.438 51.12 126.07 51.12ZM131.577 51.12C130.969 51.12 130.441 50.996 129.993 50.748C129.545 50.5 129.197 50.148 128.949 49.692C128.701 49.228 128.577 48.684 128.577 48.06C128.577 47.436 128.701 46.896 128.949 46.44C129.197 45.984 129.545 45.632 129.993 45.384C130.441 45.136 130.969 45.012 131.577 45.012C132.185 45.012 132.713 45.136 133.161 45.384C133.609 45.632 133.957 45.984 134.205 46.44C134.453 46.896 134.577 47.436 134.577 48.06C134.577 48.684 134.453 49.228 134.205 49.692C133.957 50.148 133.609 50.5 133.161 50.748C132.713 50.996 132.185 51.12 131.577 51.12ZM131.577 49.98C132.025 49.98 132.385 49.82 132.657 49.5C132.929 49.172 133.065 48.692 133.065 48.06C133.065 47.42 132.929 46.944 132.657 46.632C132.385 46.312 132.025 46.152 131.577 46.152C131.129 46.152 130.769 46.312 130.497 46.632C130.225 46.944 130.089 47.42 130.089 48.06C130.089 48.692 130.225 49.172 130.497 49.5C130.769 49.82 131.129 49.98 131.577 49.98ZM137.426 51L134.882 45.132H136.478L138.29 49.68H137.93L139.802 45.132H141.302L138.722 51H137.426ZM144.801 51.12C144.137 51.12 143.565 50.996 143.085 50.748C142.605 50.5 142.233 50.148 141.969 49.692C141.713 49.236 141.585 48.696 141.585 48.072C141.585 47.464 141.709 46.932 141.957 46.476C142.213 46.02 142.561 45.664 143.001 45.408C143.449 45.144 143.957 45.012 144.525 45.012C145.085 45.012 145.565 45.132 145.965 45.372C146.365 45.612 146.673 45.952 146.889 46.392C147.113 46.832 147.225 47.356 147.225 47.964V48.408H142.797V47.544H146.169L145.977 47.724C145.977 47.18 145.857 46.764 145.617 46.476C145.377 46.18 145.033 46.032 144.585 46.032C144.249 46.032 143.961 46.112 143.721 46.272C143.489 46.424 143.309 46.644 143.181 46.932C143.061 47.212 143.001 47.548 143.001 47.94V48.024C143.001 48.464 143.069 48.828 143.205 49.116C143.341 49.404 143.545 49.62 143.817 49.764C144.089 49.908 144.425 49.98 144.825 49.98C145.153 49.98 145.481 49.932 145.809 49.836C146.137 49.732 146.437 49.572 146.709 49.356L147.129 50.364C146.849 50.596 146.497 50.78 146.073 50.916C145.649 51.052 145.225 51.12 144.801 51.12ZM148.413 51V45.132H149.877V46.548H149.757C149.869 46.068 150.089 45.704 150.417 45.456C150.745 45.2 151.181 45.052 151.725 45.012L152.181 44.976L152.277 46.248L151.413 46.332C150.925 46.38 150.557 46.532 150.309 46.788C150.061 47.036 149.937 47.388 149.937 47.844V51H148.413ZM154.003 53.16L155.227 50.46V51.084L152.647 45.132H154.243L156.067 49.68H155.707L157.567 45.132H159.079L155.551 53.16H154.003ZM163.026 51V45.132H164.49V46.548H164.37C164.482 46.068 164.702 45.704 165.03 45.456C165.358 45.2 165.794 45.052 166.338 45.012L166.794 44.976L166.89 46.248L166.026 46.332C165.538 46.38 165.17 46.532 164.922 46.788C164.674 47.036 164.55 47.388 164.55 47.844V51H163.026ZM169.599 51.12C169.175 51.12 168.795 51.04 168.459 50.88C168.131 50.712 167.871 50.488 167.679 50.208C167.495 49.928 167.403 49.612 167.403 49.26C167.403 48.828 167.515 48.488 167.739 48.24C167.963 47.984 168.327 47.8 168.831 47.688C169.335 47.576 170.011 47.52 170.859 47.52H171.459V48.384H170.871C170.495 48.384 170.179 48.4 169.923 48.432C169.667 48.456 169.459 48.5 169.299 48.564C169.147 48.62 169.035 48.7 168.963 48.804C168.899 48.908 168.867 49.036 168.867 49.188C168.867 49.452 168.959 49.668 169.143 49.836C169.327 50.004 169.583 50.088 169.911 50.088C170.175 50.088 170.407 50.028 170.607 49.908C170.815 49.78 170.979 49.608 171.099 49.392C171.219 49.176 171.279 48.928 171.279 48.648V47.268C171.279 46.868 171.191 46.58 171.015 46.404C170.839 46.228 170.543 46.14 170.127 46.14C169.799 46.14 169.463 46.192 169.119 46.296C168.775 46.392 168.427 46.544 168.075 46.752L167.643 45.732C167.851 45.588 168.095 45.464 168.375 45.36C168.663 45.248 168.963 45.164 169.275 45.108C169.595 45.044 169.895 45.012 170.175 45.012C170.751 45.012 171.223 45.1 171.591 45.276C171.967 45.452 172.247 45.72 172.431 46.08C172.615 46.432 172.707 46.888 172.707 47.448V51H171.303V49.752H171.399C171.343 50.032 171.231 50.276 171.063 50.484C170.903 50.684 170.699 50.84 170.451 50.952C170.203 51.064 169.919 51.12 169.599 51.12ZM176.917 51.12C176.133 51.12 175.549 50.924 175.165 50.532C174.781 50.14 174.589 49.568 174.589 48.816V46.26H173.461V45.132H174.589V43.38H176.089V45.132H177.865V46.26H176.089V48.732C176.089 49.116 176.173 49.404 176.341 49.596C176.509 49.788 176.781 49.884 177.157 49.884C177.269 49.884 177.385 49.872 177.505 49.848C177.625 49.816 177.749 49.784 177.877 49.752L178.105 50.856C177.961 50.936 177.777 51 177.553 51.048C177.337 51.096 177.125 51.12 176.917 51.12ZM181.668 51.12C181.004 51.12 180.432 50.996 179.952 50.748C179.472 50.5 179.1 50.148 178.836 49.692C178.58 49.236 178.452 48.696 178.452 48.072C178.452 47.464 178.576 46.932 178.824 46.476C179.08 46.02 179.428 45.664 179.868 45.408C180.316 45.144 180.824 45.012 181.392 45.012C181.952 45.012 182.432 45.132 182.832 45.372C183.232 45.612 183.54 45.952 183.756 46.392C183.98 46.832 184.092 47.356 184.092 47.964V48.408H179.664V47.544H183.036L182.844 47.724C182.844 47.18 182.724 46.764 182.484 46.476C182.244 46.18 181.9 46.032 181.452 46.032C181.116 46.032 180.828 46.112 180.588 46.272C180.356 46.424 180.176 46.644 180.048 46.932C179.928 47.212 179.868 47.548 179.868 47.94V48.024C179.868 48.464 179.936 48.828 180.072 49.116C180.208 49.404 180.412 49.62 180.684 49.764C180.956 49.908 181.292 49.98 181.692 49.98C182.02 49.98 182.348 49.932 182.676 49.836C183.004 49.732 183.304 49.572 183.576 49.356L183.996 50.364C183.716 50.596 183.364 50.78 182.94 50.916C182.516 51.052 182.092 51.12 181.668 51.12Z" fill="black"/>
<path d="M109.023 70V62.245H109.87L112.928 68.064H112.664L115.7 62.245H116.536V70H115.678V63.499H115.887L113.104 68.801H112.477L109.661 63.499H109.881V70H109.023ZM120.146 70.099C119.772 70.099 119.438 70.0293 119.145 69.89C118.851 69.7433 118.62 69.5453 118.452 69.296C118.283 69.0467 118.199 68.768 118.199 68.46C118.199 68.064 118.301 67.7523 118.507 67.525C118.719 67.2903 119.06 67.1253 119.53 67.03C120.006 66.9273 120.641 66.876 121.433 66.876H122.005V67.481H121.455C121.015 67.481 120.644 67.4957 120.344 67.525C120.043 67.5543 119.801 67.6057 119.618 67.679C119.442 67.745 119.313 67.8403 119.233 67.965C119.152 68.0823 119.112 68.229 119.112 68.405C119.112 68.7057 119.218 68.9477 119.431 69.131C119.651 69.3143 119.94 69.406 120.3 69.406C120.6 69.406 120.864 69.3363 121.092 69.197C121.326 69.0503 121.51 68.856 121.642 68.614C121.781 68.372 121.851 68.1007 121.851 67.8V66.535C121.851 66.0877 121.752 65.765 121.554 65.567C121.356 65.3617 121.04 65.259 120.608 65.259C120.285 65.259 119.97 65.3067 119.662 65.402C119.361 65.4973 119.049 65.644 118.727 65.842L118.419 65.182C118.617 65.0427 118.837 64.9253 119.079 64.83C119.328 64.7347 119.585 64.6613 119.849 64.61C120.12 64.5587 120.384 64.533 120.641 64.533C121.103 64.533 121.488 64.6063 121.796 64.753C122.111 64.8997 122.346 65.127 122.5 65.435C122.661 65.743 122.742 66.139 122.742 66.623V70H121.895V68.768H121.972C121.898 69.032 121.777 69.2667 121.609 69.472C121.44 69.67 121.231 69.824 120.982 69.934C120.74 70.044 120.461 70.099 120.146 70.099ZM124.445 70V64.632H125.314V65.897H125.237C125.369 65.4643 125.589 65.138 125.897 64.918C126.213 64.6907 126.62 64.5587 127.118 64.522L127.481 64.5L127.558 65.303L126.931 65.358C126.433 65.4093 126.048 65.5743 125.776 65.853C125.505 66.1317 125.369 66.502 125.369 66.964V70H124.445ZM130.794 70.099C130.252 70.099 129.782 69.9817 129.386 69.747C128.998 69.5123 128.693 69.186 128.473 68.768C128.261 68.3427 128.154 67.8477 128.154 67.283C128.154 66.7183 128.261 66.2307 128.473 65.82C128.693 65.4093 128.998 65.094 129.386 64.874C129.782 64.6467 130.252 64.533 130.794 64.533C131.139 64.533 131.473 64.5953 131.795 64.72C132.125 64.8373 132.397 65.0023 132.609 65.215L132.29 65.875C132.078 65.677 131.843 65.5303 131.586 65.435C131.337 65.3397 131.091 65.292 130.849 65.292C130.292 65.292 129.859 65.4643 129.551 65.809C129.243 66.1537 129.089 66.6487 129.089 67.294C129.089 67.932 129.243 68.4343 129.551 68.801C129.859 69.1603 130.292 69.34 130.849 69.34C131.084 69.34 131.33 69.2923 131.586 69.197C131.843 69.1017 132.074 68.955 132.279 68.757L132.598 69.417C132.386 69.6297 132.114 69.7983 131.784 69.923C131.454 70.0403 131.124 70.099 130.794 70.099ZM133.694 70V62.245H134.596V65.809H134.486C134.648 65.391 134.901 65.0757 135.245 64.863C135.597 64.643 135.997 64.533 136.444 64.533C136.884 64.533 137.244 64.61 137.522 64.764C137.808 64.918 138.021 65.1527 138.16 65.468C138.307 65.7833 138.38 66.1793 138.38 66.656V70H137.467V66.711C137.467 66.3957 137.423 66.1317 137.335 65.919C137.255 65.7063 137.123 65.5487 136.939 65.446C136.763 65.3433 136.529 65.292 136.235 65.292C135.913 65.292 135.627 65.3617 135.377 65.501C135.135 65.6403 134.945 65.8347 134.805 66.084C134.673 66.3333 134.607 66.623 134.607 66.953V70H133.694ZM143.085 70V69.307L145.758 66.447C146.008 66.1683 146.209 65.9117 146.363 65.677C146.517 65.4423 146.627 65.215 146.693 64.995C146.767 64.7677 146.803 64.5403 146.803 64.313C146.803 63.873 146.668 63.5393 146.396 63.312C146.132 63.0773 145.747 62.96 145.241 62.96C144.853 62.96 144.482 63.0333 144.13 63.18C143.786 63.3193 143.459 63.5393 143.151 63.84L142.81 63.125C143.104 62.8317 143.47 62.597 143.91 62.421C144.358 62.2377 144.827 62.146 145.318 62.146C145.832 62.146 146.268 62.2303 146.627 62.399C146.987 62.5603 147.262 62.7987 147.452 63.114C147.643 63.4293 147.738 63.807 147.738 64.247C147.738 64.4817 147.709 64.7127 147.65 64.94C147.592 65.16 147.507 65.38 147.397 65.6C147.287 65.82 147.144 66.0473 146.968 66.282C146.8 66.5093 146.598 66.7477 146.363 66.997L144.075 69.417V69.208H148.046V70H143.085ZM149.681 70V69.307L152.354 66.447C152.603 66.1683 152.805 65.9117 152.959 65.677C153.113 65.4423 153.223 65.215 153.289 64.995C153.362 64.7677 153.399 64.5403 153.399 64.313C153.399 63.873 153.263 63.5393 152.992 63.312C152.728 63.0773 152.343 62.96 151.837 62.96C151.448 62.96 151.078 63.0333 150.726 63.18C150.381 63.3193 150.055 63.5393 149.747 63.84L149.406 63.125C149.699 62.8317 150.066 62.597 150.506 62.421C150.953 62.2377 151.423 62.146 151.914 62.146C152.427 62.146 152.864 62.2303 153.223 62.399C153.582 62.5603 153.857 62.7987 154.048 63.114C154.239 63.4293 154.334 63.807 154.334 64.247C154.334 64.4817 154.305 64.7127 154.246 64.94C154.187 65.16 154.103 65.38 153.993 65.6C153.883 65.82 153.74 66.0473 153.564 66.282C153.395 66.5093 153.194 66.7477 152.959 66.997L150.671 69.417V69.208H154.642V70H149.681ZM156.508 71.342L156.079 71.001C156.211 70.869 156.31 70.737 156.376 70.605C156.449 70.473 156.5 70.341 156.53 70.209C156.559 70.077 156.577 69.9487 156.585 69.824L156.772 70H156.024V68.856H157.19V69.681C157.19 69.879 157.168 70.0733 157.124 70.264C157.08 70.462 157.01 70.649 156.915 70.825C156.819 71.001 156.684 71.1733 156.508 71.342ZM161.766 70V69.307L164.439 66.447C164.688 66.1683 164.89 65.9117 165.044 65.677C165.198 65.4423 165.308 65.215 165.374 64.995C165.447 64.7677 165.484 64.5403 165.484 64.313C165.484 63.873 165.348 63.5393 165.077 63.312C164.813 63.0773 164.428 62.96 163.922 62.96C163.533 62.96 163.163 63.0333 162.811 63.18C162.466 63.3193 162.14 63.5393 161.832 63.84L161.491 63.125C161.784 62.8317 162.151 62.597 162.591 62.421C163.038 62.2377 163.508 62.146 163.999 62.146C164.512 62.146 164.949 62.2303 165.308 62.399C165.667 62.5603 165.942 62.7987 166.133 63.114C166.324 63.4293 166.419 63.807 166.419 64.247C166.419 64.4817 166.39 64.7127 166.331 64.94C166.272 65.16 166.188 65.38 166.078 65.6C165.968 65.82 165.825 66.0473 165.649 66.282C165.48 66.5093 165.279 66.7477 165.044 66.997L162.756 69.417V69.208H166.727V70H161.766ZM170.694 70.099C170.1 70.099 169.601 69.9487 169.198 69.648C168.794 69.34 168.486 68.889 168.274 68.295C168.068 67.701 167.966 66.975 167.966 66.117C167.966 65.2517 168.068 64.5257 168.274 63.939C168.486 63.345 168.794 62.8977 169.198 62.597C169.608 62.2963 170.107 62.146 170.694 62.146C171.295 62.146 171.797 62.2963 172.201 62.597C172.604 62.8977 172.908 63.3413 173.114 63.928C173.319 64.5147 173.422 65.2407 173.422 66.106C173.422 66.9713 173.315 67.701 173.103 68.295C172.897 68.889 172.593 69.34 172.19 69.648C171.786 69.9487 171.288 70.099 170.694 70.099ZM170.694 69.296C171.302 69.296 171.753 69.0393 172.047 68.526C172.347 68.0053 172.498 67.1987 172.498 66.106C172.498 65.0133 172.351 64.214 172.058 63.708C171.764 63.202 171.31 62.949 170.694 62.949C170.085 62.949 169.63 63.2057 169.33 63.719C169.036 64.225 168.89 65.0207 168.89 66.106C168.89 67.1987 169.036 68.0053 169.33 68.526C169.63 69.0393 170.085 69.296 170.694 69.296ZM174.957 70V69.307L177.63 66.447C177.88 66.1683 178.081 65.9117 178.235 65.677C178.389 65.4423 178.499 65.215 178.565 64.995C178.639 64.7677 178.675 64.5403 178.675 64.313C178.675 63.873 178.54 63.5393 178.268 63.312C178.004 63.0773 177.619 62.96 177.113 62.96C176.725 62.96 176.354 63.0333 176.002 63.18C175.658 63.3193 175.331 63.5393 175.023 63.84L174.682 63.125C174.976 62.8317 175.342 62.597 175.782 62.421C176.23 62.2377 176.699 62.146 177.19 62.146C177.704 62.146 178.14 62.2303 178.499 62.399C178.859 62.5603 179.134 62.7987 179.324 63.114C179.515 63.4293 179.61 63.807 179.61 64.247C179.61 64.4817 179.581 64.7127 179.522 64.94C179.464 65.16 179.379 65.38 179.269 65.6C179.159 65.82 179.016 66.0473 178.84 66.282C178.672 66.5093 178.47 66.7477 178.235 66.997L175.947 69.417V69.208H179.918V70H174.957ZM184.149 70.099C183.54 70.099 183.02 69.9487 182.587 69.648C182.162 69.3473 181.835 68.9147 181.608 68.35C181.381 67.7853 181.267 67.1033 181.267 66.304C181.267 65.4093 181.392 64.654 181.641 64.038C181.89 63.422 182.25 62.9527 182.719 62.63C183.196 62.3073 183.76 62.146 184.413 62.146C184.684 62.146 184.952 62.1863 185.216 62.267C185.487 62.3403 185.74 62.4467 185.975 62.586C186.217 62.718 186.43 62.883 186.613 63.081L186.272 63.796C185.993 63.51 185.693 63.301 185.37 63.169C185.055 63.0297 184.732 62.96 184.402 62.96C184.043 62.96 183.724 63.0297 183.445 63.169C183.166 63.301 182.932 63.5027 182.741 63.774C182.55 64.038 182.404 64.368 182.301 64.764C182.206 65.16 182.158 65.6183 182.158 66.139V67.074H182.092C182.143 66.6707 182.268 66.326 182.466 66.04C182.664 65.7467 182.917 65.523 183.225 65.369C183.54 65.2077 183.889 65.127 184.27 65.127C184.732 65.127 185.139 65.2333 185.491 65.446C185.843 65.6513 186.118 65.941 186.316 66.315C186.521 66.6817 186.624 67.1033 186.624 67.58C186.624 68.064 186.518 68.4967 186.305 68.878C186.1 69.2593 185.81 69.56 185.436 69.78C185.062 69.9927 184.633 70.099 184.149 70.099ZM184.094 69.318C184.417 69.318 184.703 69.2483 184.952 69.109C185.201 68.9623 185.392 68.7607 185.524 68.504C185.663 68.2473 185.733 67.9503 185.733 67.613C185.733 67.2757 185.663 66.9787 185.524 66.722C185.392 66.4653 185.201 66.2673 184.952 66.128C184.703 65.9813 184.417 65.908 184.094 65.908C183.764 65.908 183.474 65.9813 183.225 66.128C182.983 66.2673 182.792 66.4653 182.653 66.722C182.514 66.9787 182.444 67.2757 182.444 67.613C182.444 67.9503 182.514 68.2473 182.653 68.504C182.792 68.7607 182.987 68.9623 183.236 69.109C183.485 69.2483 183.771 69.318 184.094 69.318ZM190.07 67.36V66.755H195.57V67.36H190.07ZM201.76 70.099C201.166 70.099 200.667 69.9487 200.264 69.648C199.861 69.34 199.553 68.889 199.34 68.295C199.135 67.701 199.032 66.975 199.032 66.117C199.032 65.2517 199.135 64.5257 199.34 63.939C199.553 63.345 199.861 62.8977 200.264 62.597C200.675 62.2963 201.173 62.146 201.76 62.146C202.361 62.146 202.864 62.2963 203.267 62.597C203.67 62.8977 203.975 63.3413 204.18 63.928C204.385 64.5147 204.488 65.2407 204.488 66.106C204.488 66.9713 204.382 67.701 204.169 68.295C203.964 68.889 203.659 69.34 203.256 69.648C202.853 69.9487 202.354 70.099 201.76 70.099ZM201.76 69.296C202.369 69.296 202.82 69.0393 203.113 68.526C203.414 68.0053 203.564 67.1987 203.564 66.106C203.564 65.0133 203.417 64.214 203.124 63.708C202.831 63.202 202.376 62.949 201.76 62.949C201.151 62.949 200.697 63.2057 200.396 63.719C200.103 64.225 199.956 65.0207 199.956 66.106C199.956 67.1987 200.103 68.0053 200.396 68.526C200.697 69.0393 201.151 69.296 201.76 69.296ZM207.839 70.099C207.567 70.099 207.296 70.0623 207.025 69.989C206.753 69.9157 206.5 69.8093 206.266 69.67C206.031 69.5307 205.818 69.362 205.628 69.164L205.98 68.449C206.251 68.7423 206.544 68.955 206.86 69.087C207.182 69.219 207.512 69.285 207.85 69.285C208.209 69.285 208.524 69.219 208.796 69.087C209.074 68.9477 209.309 68.746 209.5 68.482C209.698 68.2107 209.844 67.877 209.94 67.481C210.035 67.085 210.083 66.6267 210.083 66.106V65.171H210.149C210.105 65.567 209.98 65.9117 209.775 66.205C209.577 66.4983 209.324 66.722 209.016 66.876C208.708 67.03 208.359 67.107 207.971 67.107C207.516 67.107 207.109 67.0043 206.75 66.799C206.398 66.5937 206.119 66.3077 205.914 65.941C205.716 65.567 205.617 65.1417 205.617 64.665C205.617 64.1737 205.723 63.741 205.936 63.367C206.148 62.9857 206.438 62.6887 206.805 62.476C207.179 62.256 207.608 62.146 208.092 62.146C208.708 62.146 209.228 62.2963 209.654 62.597C210.086 62.8903 210.413 63.3193 210.633 63.884C210.86 64.4487 210.974 65.1343 210.974 65.941C210.974 66.8283 210.849 67.5837 210.6 68.207C210.35 68.823 209.991 69.2923 209.522 69.615C209.06 69.9377 208.499 70.099 207.839 70.099ZM208.158 66.337C208.48 66.337 208.766 66.2637 209.016 66.117C209.265 65.9703 209.459 65.7723 209.599 65.523C209.738 65.2663 209.808 64.9693 209.808 64.632C209.808 64.2947 209.738 63.9977 209.599 63.741C209.459 63.4843 209.265 63.2863 209.016 63.147C208.766 63.0003 208.477 62.927 208.147 62.927C207.824 62.927 207.538 63.0003 207.289 63.147C207.047 63.2863 206.856 63.4843 206.717 63.741C206.577 63.9977 206.508 64.2947 206.508 64.632C206.508 64.9693 206.577 65.2663 206.717 65.523C206.856 65.7797 207.047 65.9813 207.289 66.128C207.538 66.2673 207.828 66.337 208.158 66.337ZM212.366 65.765V64.632H213.532V65.765H212.366ZM212.366 70V68.856H213.532V70H212.366ZM217.551 70.099C216.957 70.099 216.458 69.9487 216.055 69.648C215.652 69.34 215.344 68.889 215.131 68.295C214.926 67.701 214.823 66.975 214.823 66.117C214.823 65.2517 214.926 64.5257 215.131 63.939C215.344 63.345 215.652 62.8977 216.055 62.597C216.466 62.2963 216.964 62.146 217.551 62.146C218.152 62.146 218.655 62.2963 219.058 62.597C219.461 62.8977 219.766 63.3413 219.971 63.928C220.176 64.5147 220.279 65.2407 220.279 66.106C220.279 66.9713 220.173 67.701 219.96 68.295C219.755 68.889 219.45 69.34 219.047 69.648C218.644 69.9487 218.145 70.099 217.551 70.099ZM217.551 69.296C218.16 69.296 218.611 69.0393 218.904 68.526C219.205 68.0053 219.355 67.1987 219.355 66.106C219.355 65.0133 219.208 64.214 218.915 63.708C218.622 63.202 218.167 62.949 217.551 62.949C216.942 62.949 216.488 63.2057 216.187 63.719C215.894 64.225 215.747 65.0207 215.747 66.106C215.747 67.1987 215.894 68.0053 216.187 68.526C216.488 69.0393 216.942 69.296 217.551 69.296ZM224.147 70.099C223.553 70.099 223.054 69.9487 222.651 69.648C222.247 69.34 221.939 68.889 221.727 68.295C221.521 67.701 221.419 66.975 221.419 66.117C221.419 65.2517 221.521 64.5257 221.727 63.939C221.939 63.345 222.247 62.8977 222.651 62.597C223.061 62.2963 223.56 62.146 224.147 62.146C224.748 62.146 225.25 62.2963 225.654 62.597C226.057 62.8977 226.361 63.3413 226.567 63.928C226.772 64.5147 226.875 65.2407 226.875 66.106C226.875 66.9713 226.768 67.701 226.556 68.295C226.35 68.889 226.046 69.34 225.643 69.648C225.239 69.9487 224.741 70.099 224.147 70.099ZM224.147 69.296C224.755 69.296 225.206 69.0393 225.5 68.526C225.8 68.0053 225.951 67.1987 225.951 66.106C225.951 65.0133 225.804 64.214 225.511 63.708C225.217 63.202 224.763 62.949 224.147 62.949C223.538 62.949 223.083 63.2057 222.783 63.719C222.489 64.225 222.343 65.0207 222.343 66.106C222.343 67.1987 222.489 68.0053 222.783 68.526C223.083 69.0393 223.538 69.296 224.147 69.296ZM230.574 70L233.995 62.245H234.798L238.208 70H237.251L236.294 67.789L236.745 68.042H232.026L232.477 67.789L231.531 70H230.574ZM234.38 63.312L232.62 67.47L232.356 67.261H236.426L236.162 67.47L234.402 63.312H234.38ZM239.476 70V62.245H240.323L243.381 68.064H243.117L246.153 62.245H246.989V70H246.131V63.499H246.34L243.557 68.801H242.93L240.114 63.499H240.334V70H239.476Z" fill="#737682"/>
<rect x="261" y="45" width="76" height="22" rx="11" fill="#EBEBED"/>
<path d="M271.957 60V52.245H275.18C276.031 52.245 276.683 52.443 277.138 52.839C277.593 53.235 277.82 53.796 277.82 54.522C277.82 54.9767 277.721 55.369 277.523 55.699C277.325 56.0217 277.043 56.2747 276.676 56.458C276.309 56.634 275.869 56.7293 275.356 56.744L275.444 56.623H275.686C275.95 56.6377 276.181 56.7147 276.379 56.854C276.584 56.9933 276.768 57.217 276.929 57.525L278.271 60H277.006L275.675 57.536C275.572 57.3527 275.459 57.2097 275.334 57.107C275.217 56.997 275.077 56.9237 274.916 56.887C274.762 56.843 274.579 56.821 274.366 56.821H273.112V60H271.957ZM273.112 55.93H275.015C275.572 55.93 275.99 55.8163 276.269 55.589C276.548 55.3543 276.687 55.006 276.687 54.544C276.687 54.0893 276.548 53.7483 276.269 53.521C275.99 53.2937 275.569 53.18 275.004 53.18H273.112V55.93ZM281.843 60.099C281.249 60.099 280.736 59.989 280.303 59.769C279.87 59.5417 279.537 59.219 279.302 58.801C279.075 58.383 278.961 57.888 278.961 57.316C278.961 56.7587 279.071 56.271 279.291 55.853C279.518 55.435 279.83 55.1087 280.226 54.874C280.629 54.632 281.095 54.511 281.623 54.511C282.129 54.511 282.562 54.621 282.921 54.841C283.28 55.061 283.559 55.3727 283.757 55.776C283.955 56.172 284.054 56.6487 284.054 57.206V57.58H279.841V56.876H283.273L283.097 57.041C283.097 56.491 282.972 56.0693 282.723 55.776C282.474 55.4753 282.118 55.325 281.656 55.325C281.311 55.325 281.018 55.402 280.776 55.556C280.541 55.71 280.358 55.9263 280.226 56.205C280.101 56.4837 280.039 56.8173 280.039 57.206V57.283C280.039 57.7083 280.109 58.064 280.248 58.35C280.387 58.636 280.593 58.8523 280.864 58.999C281.135 59.1383 281.469 59.208 281.865 59.208C282.166 59.208 282.466 59.164 282.767 59.076C283.068 58.9807 283.35 58.8303 283.614 58.625L283.955 59.406C283.698 59.626 283.379 59.7983 282.998 59.923C282.617 60.0403 282.232 60.099 281.843 60.099ZM287.726 60.099C287.176 60.099 286.695 59.9853 286.285 59.758C285.881 59.5233 285.57 59.1933 285.35 58.768C285.13 58.3427 285.02 57.8477 285.02 57.283C285.02 56.711 285.13 56.2197 285.35 55.809C285.57 55.391 285.881 55.072 286.285 54.852C286.695 54.6247 287.179 54.511 287.737 54.511C288.081 54.511 288.419 54.5697 288.749 54.687C289.086 54.8043 289.365 54.9657 289.585 55.171L289.222 55.985C289.016 55.7943 288.789 55.655 288.54 55.567C288.29 55.4717 288.052 55.424 287.825 55.424C287.297 55.424 286.89 55.5853 286.604 55.908C286.318 56.2307 286.175 56.6927 286.175 57.294C286.175 57.888 286.318 58.3537 286.604 58.691C286.89 59.021 287.297 59.186 287.825 59.186C288.052 59.186 288.29 59.142 288.54 59.054C288.789 58.9587 289.013 58.8193 289.211 58.636L289.574 59.45C289.361 59.648 289.086 59.8057 288.749 59.923C288.411 60.0403 288.07 60.099 287.726 60.099ZM292.838 60.099C292.296 60.099 291.823 59.9853 291.419 59.758C291.023 59.5307 290.715 59.208 290.495 58.79C290.275 58.3647 290.165 57.8697 290.165 57.305C290.165 56.733 290.275 56.238 290.495 55.82C290.715 55.402 291.023 55.0793 291.419 54.852C291.823 54.6247 292.296 54.511 292.838 54.511C293.381 54.511 293.85 54.6247 294.246 54.852C294.65 55.0793 294.961 55.402 295.181 55.82C295.401 56.238 295.511 56.733 295.511 57.305C295.511 57.8697 295.401 58.3647 295.181 58.79C294.961 59.208 294.65 59.5307 294.246 59.758C293.85 59.9853 293.381 60.099 292.838 60.099ZM292.838 59.208C293.308 59.208 293.682 59.043 293.96 58.713C294.239 58.383 294.378 57.91 294.378 57.294C294.378 56.6853 294.239 56.2197 293.96 55.897C293.682 55.5743 293.308 55.413 292.838 55.413C292.369 55.413 291.995 55.5743 291.716 55.897C291.438 56.2197 291.298 56.6853 291.298 57.294C291.298 57.91 291.438 58.383 291.716 58.713C291.995 59.043 292.369 59.208 292.838 59.208ZM296.833 60V54.61H297.922V55.754H297.834C297.995 55.3507 298.248 55.0427 298.593 54.83C298.945 54.6173 299.341 54.511 299.781 54.511C300.221 54.511 300.584 54.5917 300.87 54.753C301.156 54.907 301.368 55.1453 301.508 55.468C301.647 55.7907 301.717 56.1977 301.717 56.689V60H300.584V56.755C300.584 56.4543 300.543 56.2087 300.463 56.018C300.389 55.82 300.268 55.6733 300.1 55.578C299.938 55.4753 299.729 55.424 299.473 55.424C299.172 55.424 298.908 55.49 298.681 55.622C298.453 55.754 298.277 55.9373 298.153 56.172C298.028 56.3993 297.966 56.6633 297.966 56.964V60H296.833ZM305.719 60.099C305.169 60.099 304.689 59.9853 304.278 59.758C303.875 59.5233 303.563 59.1933 303.343 58.768C303.123 58.3427 303.013 57.8477 303.013 57.283C303.013 56.711 303.123 56.2197 303.343 55.809C303.563 55.391 303.875 55.072 304.278 54.852C304.689 54.6247 305.173 54.511 305.73 54.511C306.075 54.511 306.412 54.5697 306.742 54.687C307.079 54.8043 307.358 54.9657 307.578 55.171L307.215 55.985C307.01 55.7943 306.782 55.655 306.533 55.567C306.284 55.4717 306.045 55.424 305.818 55.424C305.29 55.424 304.883 55.5853 304.597 55.908C304.311 56.2307 304.168 56.6927 304.168 57.294C304.168 57.888 304.311 58.3537 304.597 58.691C304.883 59.021 305.29 59.186 305.818 59.186C306.045 59.186 306.284 59.142 306.533 59.054C306.782 58.9587 307.006 58.8193 307.204 58.636L307.567 59.45C307.354 59.648 307.079 59.8057 306.742 59.923C306.405 60.0403 306.064 60.099 305.719 60.099ZM308.475 53.367V52.19H309.795V53.367H308.475ZM308.574 60V54.61H309.707V60H308.574ZM313.084 60.099C312.504 60.099 312.068 59.934 311.775 59.604C311.481 59.274 311.335 58.7973 311.335 58.174V52.245H312.468V58.097C312.468 58.3317 312.501 58.5297 312.567 58.691C312.633 58.845 312.728 58.9623 312.853 59.043C312.985 59.1237 313.146 59.164 313.337 59.164C313.425 59.164 313.513 59.1603 313.601 59.153C313.689 59.1457 313.773 59.1273 313.854 59.098L313.843 60C313.718 60.0367 313.593 60.0623 313.469 60.077C313.351 60.0917 313.223 60.099 313.084 60.099ZM317.303 60.099C316.709 60.099 316.196 59.989 315.763 59.769C315.33 59.5417 314.997 59.219 314.762 58.801C314.535 58.383 314.421 57.888 314.421 57.316C314.421 56.7587 314.531 56.271 314.751 55.853C314.978 55.435 315.29 55.1087 315.686 54.874C316.089 54.632 316.555 54.511 317.083 54.511C317.589 54.511 318.022 54.621 318.381 54.841C318.74 55.061 319.019 55.3727 319.217 55.776C319.415 56.172 319.514 56.6487 319.514 57.206V57.58H315.301V56.876H318.733L318.557 57.041C318.557 56.491 318.432 56.0693 318.183 55.776C317.934 55.4753 317.578 55.325 317.116 55.325C316.771 55.325 316.478 55.402 316.236 55.556C316.001 55.71 315.818 55.9263 315.686 56.205C315.561 56.4837 315.499 56.8173 315.499 57.206V57.283C315.499 57.7083 315.569 58.064 315.708 58.35C315.847 58.636 316.053 58.8523 316.324 58.999C316.595 59.1383 316.929 59.208 317.325 59.208C317.626 59.208 317.926 59.164 318.227 59.076C318.528 58.9807 318.81 58.8303 319.074 58.625L319.415 59.406C319.158 59.626 318.839 59.7983 318.458 59.923C318.077 60.0403 317.692 60.099 317.303 60.099ZM322.878 60.099C322.394 60.099 321.972 59.9853 321.613 59.758C321.253 59.5307 320.975 59.208 320.777 58.79C320.579 58.3647 320.48 57.8697 320.48 57.305C320.48 56.733 320.575 56.238 320.766 55.82C320.964 55.402 321.242 55.0793 321.602 54.852C321.968 54.6247 322.39 54.511 322.867 54.511C323.336 54.511 323.736 54.6247 324.066 54.852C324.403 55.0793 324.634 55.3837 324.759 55.765H324.671V52.245H325.804V60H324.715V58.801H324.792C324.667 59.2043 324.432 59.5233 324.088 59.758C323.75 59.9853 323.347 60.099 322.878 60.099ZM323.153 59.219C323.622 59.219 323.996 59.054 324.275 58.724C324.553 58.394 324.693 57.921 324.693 57.305C324.693 56.6817 324.553 56.2087 324.275 55.886C323.996 55.5633 323.622 55.402 323.153 55.402C322.683 55.402 322.309 55.5633 322.031 55.886C321.752 56.2087 321.613 56.6817 321.613 57.305C321.613 57.921 321.752 58.394 322.031 58.724C322.309 59.054 322.683 59.219 323.153 59.219Z" fill="black"/>
</svg>
