<svg width="1052" height="540" viewBox="0 0 1052 540" fill="none" xmlns="http://www.w3.org/2000/svg">
<rect x="0.5" y="0.5" width="1051" height="539" rx="11.5" fill="#F5F5F6"/>
<rect x="0.5" y="0.5" width="1051" height="539" rx="11.5" stroke="#EAEAEC"/>
<path d="M106 160.5H304" stroke="#EBEBED" stroke-linecap="round" stroke-linejoin="round" stroke-dasharray="2 4"/>
<path d="M106 209.25H304" stroke="#EBEBED" stroke-linecap="round" stroke-linejoin="round" stroke-dasharray="2 4"/>
<path d="M106 258H304" stroke="#EBEBED" stroke-linecap="round" stroke-linejoin="round" stroke-dasharray="2 4"/>
<path d="M106 306.75H304" stroke="#EBEBED" stroke-linecap="round" stroke-linejoin="round" stroke-dasharray="2 4"/>
<path d="M106 355.5H304" stroke="#EBEBED" stroke-linecap="round" stroke-linejoin="round" stroke-dasharray="2 4"/>
<path d="M106 312.75H304V354.247H106V312.75Z" fill="url(#paint0_linear_7398_31195)"/>
<path d="M106 312.75V313.75H304V312.75V311.75H106V312.75Z" fill="black"/>
<path d="M181.055 380V379.1H182.785V373.83L183.325 373.86L181.405 375.06L180.965 374.26L183.075 372.95H183.845V379.1H185.455V380H181.055ZM187.201 381.37L186.731 380.99C186.857 380.863 186.957 380.733 187.031 380.6C187.104 380.467 187.157 380.33 187.191 380.19C187.231 380.057 187.251 379.923 187.251 379.79L187.471 380H186.641V378.77H187.911V379.64C187.911 379.853 187.887 380.06 187.841 380.26C187.794 380.46 187.721 380.65 187.621 380.83C187.521 381.017 187.381 381.197 187.201 381.37ZM191.54 380.09C190.993 380.09 190.53 379.953 190.15 379.68C189.777 379.4 189.493 378.99 189.3 378.45C189.107 377.91 189.01 377.25 189.01 376.47C189.01 375.683 189.107 375.023 189.3 374.49C189.493 373.95 189.777 373.543 190.15 373.27C190.53 372.997 190.993 372.86 191.54 372.86C192.093 372.86 192.557 372.997 192.93 373.27C193.31 373.543 193.593 373.947 193.78 374.48C193.973 375.013 194.07 375.673 194.07 376.46C194.07 377.24 193.973 377.903 193.78 378.45C193.587 378.99 193.303 379.4 192.93 379.68C192.557 379.953 192.093 380.09 191.54 380.09ZM191.54 379.2C192.047 379.2 192.42 378.98 192.66 378.54C192.907 378.093 193.03 377.4 193.03 376.46C193.03 375.52 192.907 374.833 192.66 374.4C192.42 373.967 192.047 373.75 191.54 373.75C191.04 373.75 190.667 373.97 190.42 374.41C190.173 374.843 190.05 375.527 190.05 376.46C190.05 377.4 190.17 378.093 190.41 378.54C190.657 378.98 191.033 379.2 191.54 379.2ZM197.536 380.09C196.989 380.09 196.526 379.953 196.146 379.68C195.773 379.4 195.489 378.99 195.296 378.45C195.103 377.91 195.006 377.25 195.006 376.47C195.006 375.683 195.103 375.023 195.296 374.49C195.489 373.95 195.773 373.543 196.146 373.27C196.526 372.997 196.989 372.86 197.536 372.86C198.089 372.86 198.553 372.997 198.926 373.27C199.306 373.543 199.589 373.947 199.776 374.48C199.969 375.013 200.066 375.673 200.066 376.46C200.066 377.24 199.969 377.903 199.776 378.45C199.583 378.99 199.299 379.4 198.926 379.68C198.553 379.953 198.089 380.09 197.536 380.09ZM197.536 379.2C198.043 379.2 198.416 378.98 198.656 378.54C198.903 378.093 199.026 377.4 199.026 376.46C199.026 375.52 198.903 374.833 198.656 374.4C198.416 373.967 198.043 373.75 197.536 373.75C197.036 373.75 196.663 373.97 196.416 374.41C196.169 374.843 196.046 375.527 196.046 376.46C196.046 377.4 196.166 378.093 196.406 378.54C196.653 378.98 197.029 379.2 197.536 379.2ZM203.532 380.09C202.986 380.09 202.522 379.953 202.142 379.68C201.769 379.4 201.486 378.99 201.292 378.45C201.099 377.91 201.002 377.25 201.002 376.47C201.002 375.683 201.099 375.023 201.292 374.49C201.486 373.95 201.769 373.543 202.142 373.27C202.522 372.997 202.986 372.86 203.532 372.86C204.086 372.86 204.549 372.997 204.922 373.27C205.302 373.543 205.586 373.947 205.772 374.48C205.966 375.013 206.062 375.673 206.062 376.46C206.062 377.24 205.966 377.903 205.772 378.45C205.579 378.99 205.296 379.4 204.922 379.68C204.549 379.953 204.086 380.09 203.532 380.09ZM203.532 379.2C204.039 379.2 204.412 378.98 204.652 378.54C204.899 378.093 205.022 377.4 205.022 376.46C205.022 375.52 204.899 374.833 204.652 374.4C204.412 373.967 204.039 373.75 203.532 373.75C203.032 373.75 202.659 373.97 202.412 374.41C202.166 374.843 202.042 375.527 202.042 376.46C202.042 377.4 202.162 378.093 202.402 378.54C202.649 378.98 203.026 379.2 203.532 379.2ZM209.902 380.66L209.092 380.44L211.662 372.45L212.472 372.68L209.902 380.66ZM215.824 380V375.08H216.814V376.13H216.764C216.851 375.897 216.971 375.697 217.124 375.53C217.284 375.357 217.474 375.223 217.694 375.13C217.914 375.037 218.158 374.99 218.424 374.99C218.838 374.99 219.178 375.09 219.444 375.29C219.711 375.49 219.888 375.773 219.974 376.14H219.894C220.021 375.8 220.234 375.523 220.534 375.31C220.834 375.097 221.198 374.99 221.624 374.99C221.998 374.99 222.308 375.063 222.554 375.21C222.808 375.357 222.998 375.577 223.124 375.87C223.251 376.163 223.314 376.537 223.314 376.99V380H222.264V377.04C222.264 376.64 222.194 376.343 222.054 376.15C221.914 375.95 221.671 375.85 221.324 375.85C221.071 375.85 220.851 375.91 220.664 376.03C220.478 376.143 220.334 376.307 220.234 376.52C220.134 376.733 220.084 376.98 220.084 377.26V380H219.044V377.04C219.044 376.64 218.968 376.343 218.814 376.15C218.668 375.95 218.434 375.85 218.114 375.85C217.854 375.85 217.631 375.913 217.444 376.04C217.264 376.16 217.124 376.327 217.024 376.54C216.924 376.747 216.874 376.983 216.874 377.25V380H215.824ZM227.037 380.09C226.537 380.09 226.1 379.987 225.727 379.78C225.36 379.567 225.077 379.27 224.877 378.89C224.677 378.503 224.577 378.053 224.577 377.54C224.577 377.02 224.677 376.57 224.877 376.19C225.077 375.81 225.36 375.517 225.727 375.31C226.1 375.097 226.537 374.99 227.037 374.99C227.544 374.99 227.98 375.097 228.347 375.31C228.714 375.517 228.997 375.81 229.197 376.19C229.397 376.57 229.497 377.02 229.497 377.54C229.497 378.053 229.397 378.503 229.197 378.89C228.997 379.27 228.714 379.567 228.347 379.78C227.98 379.987 227.544 380.09 227.037 380.09ZM227.037 379.25C227.47 379.25 227.814 379.1 228.067 378.8C228.32 378.5 228.447 378.077 228.447 377.53C228.447 376.983 228.32 376.563 228.067 376.27C227.814 375.977 227.47 375.83 227.037 375.83C226.604 375.83 226.26 375.977 226.007 376.27C225.754 376.563 225.627 376.983 225.627 377.53C225.627 378.077 225.754 378.5 226.007 378.8C226.26 379.1 226.604 379.25 227.037 379.25Z" fill="#444050"/>
<path d="M174.886 401V393.95H175.746V401H174.886ZM177.799 401V396.76H176.819V396.1H178.029L177.799 396.32V395.97C177.799 395.323 177.969 394.833 178.309 394.5C178.656 394.16 179.169 393.973 179.849 393.94L180.299 393.91L180.369 394.59L179.839 394.62C179.586 394.633 179.369 394.687 179.189 394.78C179.016 394.867 178.883 395 178.789 395.18C178.696 395.353 178.649 395.583 178.649 395.87V396.22L178.529 396.1H180.129V396.76H178.649V401H177.799ZM185.598 401.09C185.198 401.09 184.862 401.017 184.588 400.87C184.322 400.723 184.122 400.507 183.988 400.22C183.855 399.927 183.788 399.567 183.788 399.14V396.1H184.638V399.11C184.638 399.383 184.675 399.617 184.748 399.81C184.828 399.997 184.952 400.14 185.118 400.24C185.285 400.333 185.502 400.38 185.768 400.38C186.048 400.38 186.295 400.313 186.508 400.18C186.728 400.047 186.898 399.867 187.018 399.64C187.145 399.413 187.208 399.157 187.208 398.87V396.1H188.058V401H187.258V399.9H187.318C187.172 400.28 186.948 400.573 186.648 400.78C186.355 400.987 186.005 401.09 185.598 401.09ZM189.707 401V396.1H190.517V397.18H190.467C190.613 396.8 190.847 396.51 191.167 396.31C191.487 396.11 191.85 396.01 192.257 396.01C192.657 396.01 192.987 396.08 193.247 396.22C193.513 396.36 193.713 396.577 193.847 396.87C193.98 397.157 194.047 397.52 194.047 397.96V401H193.197V398.01C193.197 397.73 193.157 397.493 193.077 397.3C193.003 397.107 192.883 396.963 192.717 396.87C192.55 396.77 192.333 396.72 192.067 396.72C191.767 396.72 191.503 396.787 191.277 396.92C191.05 397.047 190.873 397.223 190.747 397.45C190.62 397.677 190.557 397.937 190.557 398.23V401H189.707ZM197.584 401.09C197.137 401.09 196.747 400.987 196.414 400.78C196.08 400.567 195.824 400.27 195.644 399.89C195.464 399.503 195.374 399.057 195.374 398.55C195.374 398.03 195.464 397.583 195.644 397.21C195.824 396.83 196.077 396.537 196.404 396.33C196.737 396.117 197.127 396.01 197.574 396.01C198.007 396.01 198.377 396.117 198.684 396.33C198.997 396.537 199.214 396.82 199.334 397.18H199.274V393.95H200.124V401H199.324V399.88H199.364C199.244 400.253 199.024 400.55 198.704 400.77C198.39 400.983 198.017 401.09 197.584 401.09ZM197.754 400.4C198.227 400.4 198.6 400.237 198.874 399.91C199.154 399.583 199.294 399.13 199.294 398.55C199.294 397.963 199.154 397.51 198.874 397.19C198.6 396.863 198.23 396.7 197.764 396.7C197.29 396.7 196.914 396.863 196.634 397.19C196.36 397.51 196.224 397.963 196.224 398.55C196.224 399.13 196.36 399.583 196.634 399.91C196.914 400.237 197.287 400.4 197.754 400.4ZM201.677 394.9V393.95H202.717V394.9H201.677ZM201.777 401V396.1H202.627V401H201.777ZM206.007 401.09C205.747 401.09 205.49 401.063 205.237 401.01C204.99 400.963 204.76 400.897 204.547 400.81C204.334 400.717 204.15 400.607 203.997 400.48L204.267 399.87C204.434 399.997 204.614 400.103 204.807 400.19C205 400.27 205.2 400.33 205.407 400.37C205.614 400.403 205.817 400.42 206.017 400.42C206.41 400.42 206.71 400.357 206.917 400.23C207.13 400.097 207.237 399.913 207.237 399.68C207.237 399.487 207.17 399.337 207.037 399.23C206.91 399.123 206.704 399.04 206.417 398.98L205.447 398.8C205.014 398.713 204.687 398.56 204.467 398.34C204.247 398.113 204.137 397.823 204.137 397.47C204.137 397.177 204.217 396.92 204.377 396.7C204.537 396.48 204.767 396.31 205.067 396.19C205.367 396.07 205.717 396.01 206.117 396.01C206.344 396.01 206.57 396.033 206.797 396.08C207.024 396.127 207.234 396.197 207.427 396.29C207.627 396.377 207.794 396.487 207.927 396.62L207.647 397.22C207.514 397.1 207.36 397 207.187 396.92C207.02 396.833 206.844 396.77 206.657 396.73C206.47 396.69 206.287 396.67 206.107 396.67C205.734 396.67 205.444 396.74 205.237 396.88C205.03 397.02 204.927 397.207 204.927 397.44C204.927 397.633 204.987 397.787 205.107 397.9C205.234 398.007 205.43 398.087 205.697 398.14L206.647 398.33C207.114 398.423 207.46 398.577 207.687 398.79C207.92 398.997 208.037 399.28 208.037 399.64C208.037 399.94 207.95 400.2 207.777 400.42C207.61 400.633 207.377 400.8 207.077 400.92C206.777 401.033 206.42 401.09 206.007 401.09ZM209.375 402.8V396.1H210.185V397.21H210.135C210.261 396.837 210.481 396.543 210.795 396.33C211.115 396.117 211.491 396.01 211.925 396.01C212.371 396.01 212.758 396.117 213.085 396.33C213.418 396.537 213.675 396.83 213.855 397.21C214.041 397.583 214.135 398.03 214.135 398.55C214.135 399.057 214.045 399.503 213.865 399.89C213.685 400.27 213.428 400.567 213.095 400.78C212.768 400.987 212.378 401.09 211.925 401.09C211.498 401.09 211.128 400.983 210.815 400.77C210.508 400.557 210.291 400.273 210.165 399.92H210.225V402.8H209.375ZM211.745 400.4C212.218 400.4 212.591 400.237 212.865 399.91C213.138 399.583 213.275 399.127 213.275 398.54C213.275 397.953 213.138 397.5 212.865 397.18C212.591 396.86 212.218 396.7 211.745 396.7C211.278 396.7 210.905 396.86 210.625 397.18C210.351 397.5 210.215 397.953 210.215 398.54C210.215 399.127 210.351 399.583 210.625 399.91C210.905 400.237 211.278 400.4 211.745 400.4ZM217.278 401.09C216.878 401.09 216.541 401.017 216.268 400.87C216.001 400.723 215.801 400.507 215.668 400.22C215.535 399.927 215.468 399.567 215.468 399.14V396.1H216.318V399.11C216.318 399.383 216.355 399.617 216.428 399.81C216.508 399.997 216.631 400.14 216.798 400.24C216.965 400.333 217.181 400.38 217.448 400.38C217.728 400.38 217.975 400.313 218.188 400.18C218.408 400.047 218.578 399.867 218.698 399.64C218.825 399.413 218.888 399.157 218.888 398.87V396.1H219.738V401H218.938V399.9H218.998C218.851 400.28 218.628 400.573 218.328 400.78C218.035 400.987 217.685 401.09 217.278 401.09ZM223.406 401.09C222.82 401.09 222.38 400.937 222.086 400.63C221.793 400.317 221.646 399.873 221.646 399.3V396.78H220.666V396.1H221.666V394.62H222.496V396.1H224.156V396.78H222.496V399.22C222.496 399.6 222.576 399.887 222.736 400.08C222.903 400.267 223.166 400.36 223.526 400.36C223.646 400.36 223.766 400.347 223.886 400.32C224.006 400.293 224.116 400.26 224.216 400.22L224.366 400.88C224.253 400.94 224.106 400.99 223.926 401.03C223.753 401.07 223.58 401.09 223.406 401.09ZM227.465 401.09C226.932 401.09 226.472 400.99 226.085 400.79C225.699 400.583 225.402 400.29 225.195 399.91C224.989 399.53 224.885 399.077 224.885 398.55C224.885 398.05 224.982 397.61 225.175 397.23C225.375 396.85 225.655 396.553 226.015 396.34C226.375 396.12 226.795 396.01 227.275 396.01C227.742 396.01 228.135 396.11 228.455 396.31C228.782 396.51 229.032 396.793 229.205 397.16C229.379 397.52 229.465 397.953 229.465 398.46V398.76H225.525V398.18H228.905L228.735 398.34C228.735 397.807 228.612 397.393 228.365 397.1C228.119 396.8 227.759 396.65 227.285 396.65C226.959 396.65 226.675 396.727 226.435 396.88C226.202 397.027 226.022 397.237 225.895 397.51C225.769 397.777 225.705 398.093 225.705 398.46V398.54C225.705 398.947 225.772 399.287 225.905 399.56C226.045 399.833 226.249 400.043 226.515 400.19C226.782 400.33 227.102 400.4 227.475 400.4C227.755 400.4 228.032 400.36 228.305 400.28C228.579 400.193 228.839 400.05 229.085 399.85L229.375 400.45C229.135 400.657 228.842 400.817 228.495 400.93C228.155 401.037 227.812 401.09 227.465 401.09ZM232.691 401.09C232.245 401.09 231.855 400.987 231.521 400.78C231.188 400.567 230.931 400.27 230.751 399.89C230.571 399.503 230.481 399.057 230.481 398.55C230.481 398.03 230.571 397.583 230.751 397.21C230.931 396.83 231.185 396.537 231.511 396.33C231.845 396.117 232.235 396.01 232.681 396.01C233.115 396.01 233.485 396.117 233.791 396.33C234.105 396.537 234.321 396.82 234.441 397.18H234.381V393.95H235.231V401H234.431V399.88H234.471C234.351 400.253 234.131 400.55 233.811 400.77C233.498 400.983 233.125 401.09 232.691 401.09ZM232.861 400.4C233.335 400.4 233.708 400.237 233.981 399.91C234.261 399.583 234.401 399.13 234.401 398.55C234.401 397.963 234.261 397.51 233.981 397.19C233.708 396.863 233.338 396.7 232.871 396.7C232.398 396.7 232.021 396.863 231.741 397.19C231.468 397.51 231.331 397.963 231.331 398.55C231.331 399.13 231.468 399.583 231.741 399.91C232.021 400.237 232.395 400.4 232.861 400.4Z" fill="#8D8A94"/>
<path d="M190.741 283L188.357 279.416C188.218 279.192 188.069 279.011 187.909 278.872C187.759 278.733 187.589 278.637 187.397 278.584C187.215 278.52 186.997 278.488 186.741 278.488H184.469V276.872H187.605C188.117 276.872 188.538 276.813 188.869 276.696C189.199 276.568 189.455 276.376 189.637 276.12C189.829 275.864 189.951 275.539 190.005 275.144L190.277 275.624H184.469V274.216H190.277L189.973 274.664C189.887 274.152 189.658 273.768 189.285 273.512C188.911 273.256 188.378 273.128 187.685 273.128H184.469V271.72H193.413V273.128H190.549L190.741 272.68C191.103 272.872 191.386 273.128 191.589 273.448C191.791 273.757 191.914 274.12 191.957 274.536L191.589 274.216H193.413V275.624H191.637L191.989 275.048C191.999 275.731 191.85 276.323 191.541 276.824C191.231 277.325 190.789 277.715 190.213 277.992C189.647 278.259 188.965 278.392 188.165 278.392V278.232H188.613C188.933 278.232 189.221 278.275 189.477 278.36C189.733 278.435 189.973 278.568 190.197 278.76C190.421 278.941 190.634 279.187 190.837 279.496L193.205 283H190.741ZM198.527 283.16C197.641 283.16 196.889 282.936 196.271 282.488C195.663 282.029 195.199 281.368 194.879 280.504C194.569 279.64 194.415 278.584 194.415 277.336C194.415 276.077 194.569 275.021 194.879 274.168C195.199 273.304 195.663 272.653 196.271 272.216C196.889 271.779 197.641 271.56 198.527 271.56C199.423 271.56 200.175 271.779 200.783 272.216C201.401 272.653 201.865 273.299 202.175 274.152C202.484 275.005 202.639 276.061 202.639 277.32C202.639 278.568 202.479 279.629 202.159 280.504C201.849 281.368 201.391 282.029 200.783 282.488C200.175 282.936 199.423 283.16 198.527 283.16ZM198.527 281.48C199.252 281.48 199.785 281.149 200.127 280.488C200.479 279.816 200.655 278.76 200.655 277.32C200.655 275.891 200.479 274.856 200.127 274.216C199.785 273.565 199.252 273.24 198.527 273.24C197.812 273.24 197.279 273.565 196.927 274.216C196.575 274.856 196.399 275.896 196.399 277.336C196.399 278.765 196.575 279.816 196.927 280.488C197.279 281.149 197.812 281.48 198.527 281.48ZM204.184 283V280.776H206.424V283H204.184ZM208.569 283V281.48L212.217 277.592C212.548 277.24 212.809 276.915 213.001 276.616C213.204 276.317 213.353 276.029 213.449 275.752C213.545 275.475 213.593 275.197 213.593 274.92C213.593 274.387 213.422 273.981 213.081 273.704C212.75 273.427 212.265 273.288 211.625 273.288C211.124 273.288 210.633 273.384 210.153 273.576C209.684 273.757 209.23 274.045 208.793 274.44L208.105 272.904C208.553 272.499 209.113 272.173 209.785 271.928C210.457 271.683 211.156 271.56 211.881 271.56C212.692 271.56 213.374 271.683 213.929 271.928C214.484 272.173 214.905 272.531 215.193 273C215.481 273.469 215.625 274.04 215.625 274.712C215.625 275.053 215.582 275.389 215.497 275.72C215.422 276.04 215.3 276.36 215.129 276.68C214.969 277 214.761 277.331 214.505 277.672C214.26 278.003 213.961 278.349 213.609 278.712L210.601 281.848V281.304H216.057V283H208.569ZM218.115 283V271.72H220.163V281.256H225.571V283H218.115Z" fill="black"/>
<path d="M320 160.5H518" stroke="#EBEBED" stroke-linecap="round" stroke-linejoin="round" stroke-dasharray="2 4"/>
<path d="M320 209.25H518" stroke="#EBEBED" stroke-linecap="round" stroke-linejoin="round" stroke-dasharray="2 4"/>
<path d="M320 258H518" stroke="#EBEBED" stroke-linecap="round" stroke-linejoin="round" stroke-dasharray="2 4"/>
<path d="M320 306.75H518" stroke="#EBEBED" stroke-linecap="round" stroke-linejoin="round" stroke-dasharray="2 4"/>
<path d="M320 355.5H518" stroke="#EBEBED" stroke-linecap="round" stroke-linejoin="round" stroke-dasharray="2 4"/>
<path d="M320 262.75H518V354.247H320V262.75Z" fill="url(#paint1_linear_7398_31195)"/>
<path d="M320 262.75V263.75H518V262.75V261.75H320V262.75Z" fill="black"/>
<path d="M397.095 380.09C396.788 380.09 396.488 380.06 396.195 380C395.908 379.933 395.638 379.837 395.385 379.71C395.138 379.583 394.918 379.433 394.725 379.26L395.105 378.44C395.411 378.693 395.728 378.88 396.055 379C396.381 379.12 396.725 379.18 397.085 379.18C397.545 379.18 397.905 379.06 398.165 378.82C398.425 378.58 398.555 378.253 398.555 377.84C398.555 377.413 398.431 377.073 398.185 376.82C397.938 376.567 397.598 376.44 397.165 376.44C396.865 376.44 396.595 376.5 396.355 376.62C396.121 376.733 395.905 376.92 395.705 377.18H394.935V372.95H399.185V373.85H395.935V376.33H395.765C395.931 376.09 396.155 375.9 396.435 375.76C396.721 375.62 397.038 375.55 397.385 375.55C397.831 375.55 398.218 375.647 398.545 375.84C398.871 376.027 399.125 376.287 399.305 376.62C399.485 376.953 399.575 377.343 399.575 377.79C399.575 378.25 399.475 378.653 399.275 379C399.075 379.347 398.788 379.617 398.415 379.81C398.041 379.997 397.601 380.09 397.095 380.09ZM401.201 381.37L400.731 380.99C400.857 380.863 400.957 380.733 401.031 380.6C401.104 380.467 401.157 380.33 401.191 380.19C401.231 380.057 401.251 379.923 401.251 379.79L401.471 380H400.641V378.77H401.911V379.64C401.911 379.853 401.887 380.06 401.841 380.26C401.794 380.46 401.721 380.65 401.621 380.83C401.521 381.017 401.381 381.197 401.201 381.37ZM405.54 380.09C404.993 380.09 404.53 379.953 404.15 379.68C403.777 379.4 403.493 378.99 403.3 378.45C403.107 377.91 403.01 377.25 403.01 376.47C403.01 375.683 403.107 375.023 403.3 374.49C403.493 373.95 403.777 373.543 404.15 373.27C404.53 372.997 404.993 372.86 405.54 372.86C406.093 372.86 406.557 372.997 406.93 373.27C407.31 373.543 407.593 373.947 407.78 374.48C407.973 375.013 408.07 375.673 408.07 376.46C408.07 377.24 407.973 377.903 407.78 378.45C407.587 378.99 407.303 379.4 406.93 379.68C406.557 379.953 406.093 380.09 405.54 380.09ZM405.54 379.2C406.047 379.2 406.42 378.98 406.66 378.54C406.907 378.093 407.03 377.4 407.03 376.46C407.03 375.52 406.907 374.833 406.66 374.4C406.42 373.967 406.047 373.75 405.54 373.75C405.04 373.75 404.667 373.97 404.42 374.41C404.173 374.843 404.05 375.527 404.05 376.46C404.05 377.4 404.17 378.093 404.41 378.54C404.657 378.98 405.033 379.2 405.54 379.2ZM411.536 380.09C410.989 380.09 410.526 379.953 410.146 379.68C409.773 379.4 409.489 378.99 409.296 378.45C409.103 377.91 409.006 377.25 409.006 376.47C409.006 375.683 409.103 375.023 409.296 374.49C409.489 373.95 409.773 373.543 410.146 373.27C410.526 372.997 410.989 372.86 411.536 372.86C412.089 372.86 412.553 372.997 412.926 373.27C413.306 373.543 413.589 373.947 413.776 374.48C413.969 375.013 414.066 375.673 414.066 376.46C414.066 377.24 413.969 377.903 413.776 378.45C413.583 378.99 413.299 379.4 412.926 379.68C412.553 379.953 412.089 380.09 411.536 380.09ZM411.536 379.2C412.043 379.2 412.416 378.98 412.656 378.54C412.903 378.093 413.026 377.4 413.026 376.46C413.026 375.52 412.903 374.833 412.656 374.4C412.416 373.967 412.043 373.75 411.536 373.75C411.036 373.75 410.663 373.97 410.416 374.41C410.169 374.843 410.046 375.527 410.046 376.46C410.046 377.4 410.166 378.093 410.406 378.54C410.653 378.98 411.029 379.2 411.536 379.2ZM417.532 380.09C416.986 380.09 416.522 379.953 416.142 379.68C415.769 379.4 415.486 378.99 415.292 378.45C415.099 377.91 415.002 377.25 415.002 376.47C415.002 375.683 415.099 375.023 415.292 374.49C415.486 373.95 415.769 373.543 416.142 373.27C416.522 372.997 416.986 372.86 417.532 372.86C418.086 372.86 418.549 372.997 418.922 373.27C419.302 373.543 419.586 373.947 419.772 374.48C419.966 375.013 420.062 375.673 420.062 376.46C420.062 377.24 419.966 377.903 419.772 378.45C419.579 378.99 419.296 379.4 418.922 379.68C418.549 379.953 418.086 380.09 417.532 380.09ZM417.532 379.2C418.039 379.2 418.412 378.98 418.652 378.54C418.899 378.093 419.022 377.4 419.022 376.46C419.022 375.52 418.899 374.833 418.652 374.4C418.412 373.967 418.039 373.75 417.532 373.75C417.032 373.75 416.659 373.97 416.412 374.41C416.166 374.843 416.042 375.527 416.042 376.46C416.042 377.4 416.162 378.093 416.402 378.54C416.649 378.98 417.026 379.2 417.532 379.2ZM423.902 380.66L423.092 380.44L425.662 372.45L426.472 372.68L423.902 380.66ZM429.824 380V375.08H430.814V376.13H430.764C430.851 375.897 430.971 375.697 431.124 375.53C431.284 375.357 431.474 375.223 431.694 375.13C431.914 375.037 432.158 374.99 432.424 374.99C432.838 374.99 433.178 375.09 433.444 375.29C433.711 375.49 433.888 375.773 433.974 376.14H433.894C434.021 375.8 434.234 375.523 434.534 375.31C434.834 375.097 435.198 374.99 435.624 374.99C435.998 374.99 436.308 375.063 436.554 375.21C436.808 375.357 436.998 375.577 437.124 375.87C437.251 376.163 437.314 376.537 437.314 376.99V380H436.264V377.04C436.264 376.64 436.194 376.343 436.054 376.15C435.914 375.95 435.671 375.85 435.324 375.85C435.071 375.85 434.851 375.91 434.664 376.03C434.478 376.143 434.334 376.307 434.234 376.52C434.134 376.733 434.084 376.98 434.084 377.26V380H433.044V377.04C433.044 376.64 432.968 376.343 432.814 376.15C432.668 375.95 432.434 375.85 432.114 375.85C431.854 375.85 431.631 375.913 431.444 376.04C431.264 376.16 431.124 376.327 431.024 376.54C430.924 376.747 430.874 376.983 430.874 377.25V380H429.824ZM441.037 380.09C440.537 380.09 440.1 379.987 439.727 379.78C439.36 379.567 439.077 379.27 438.877 378.89C438.677 378.503 438.577 378.053 438.577 377.54C438.577 377.02 438.677 376.57 438.877 376.19C439.077 375.81 439.36 375.517 439.727 375.31C440.1 375.097 440.537 374.99 441.037 374.99C441.544 374.99 441.98 375.097 442.347 375.31C442.714 375.517 442.997 375.81 443.197 376.19C443.397 376.57 443.497 377.02 443.497 377.54C443.497 378.053 443.397 378.503 443.197 378.89C442.997 379.27 442.714 379.567 442.347 379.78C441.98 379.987 441.544 380.09 441.037 380.09ZM441.037 379.25C441.47 379.25 441.814 379.1 442.067 378.8C442.32 378.5 442.447 378.077 442.447 377.53C442.447 376.983 442.32 376.563 442.067 376.27C441.814 375.977 441.47 375.83 441.037 375.83C440.604 375.83 440.26 375.977 440.007 376.27C439.754 376.563 439.627 376.983 439.627 377.53C439.627 378.077 439.754 378.5 440.007 378.8C440.26 379.1 440.604 379.25 441.037 379.25Z" fill="#444050"/>
<path d="M388.886 401V393.95H389.746V401H388.886ZM391.799 401V396.76H390.819V396.1H392.029L391.799 396.32V395.97C391.799 395.323 391.969 394.833 392.309 394.5C392.656 394.16 393.169 393.973 393.849 393.94L394.299 393.91L394.369 394.59L393.839 394.62C393.586 394.633 393.369 394.687 393.189 394.78C393.016 394.867 392.883 395 392.789 395.18C392.696 395.353 392.649 395.583 392.649 395.87V396.22L392.529 396.1H394.129V396.76H392.649V401H391.799ZM399.598 401.09C399.198 401.09 398.862 401.017 398.588 400.87C398.322 400.723 398.122 400.507 397.988 400.22C397.855 399.927 397.788 399.567 397.788 399.14V396.1H398.638V399.11C398.638 399.383 398.675 399.617 398.748 399.81C398.828 399.997 398.952 400.14 399.118 400.24C399.285 400.333 399.502 400.38 399.768 400.38C400.048 400.38 400.295 400.313 400.508 400.18C400.728 400.047 400.898 399.867 401.018 399.64C401.145 399.413 401.208 399.157 401.208 398.87V396.1H402.058V401H401.258V399.9H401.318C401.172 400.28 400.948 400.573 400.648 400.78C400.355 400.987 400.005 401.09 399.598 401.09ZM403.707 401V396.1H404.517V397.18H404.467C404.613 396.8 404.847 396.51 405.167 396.31C405.487 396.11 405.85 396.01 406.257 396.01C406.657 396.01 406.987 396.08 407.247 396.22C407.513 396.36 407.713 396.577 407.847 396.87C407.98 397.157 408.047 397.52 408.047 397.96V401H407.197V398.01C407.197 397.73 407.157 397.493 407.077 397.3C407.003 397.107 406.883 396.963 406.717 396.87C406.55 396.77 406.333 396.72 406.067 396.72C405.767 396.72 405.503 396.787 405.277 396.92C405.05 397.047 404.873 397.223 404.747 397.45C404.62 397.677 404.557 397.937 404.557 398.23V401H403.707ZM411.584 401.09C411.137 401.09 410.747 400.987 410.414 400.78C410.08 400.567 409.824 400.27 409.644 399.89C409.464 399.503 409.374 399.057 409.374 398.55C409.374 398.03 409.464 397.583 409.644 397.21C409.824 396.83 410.077 396.537 410.404 396.33C410.737 396.117 411.127 396.01 411.574 396.01C412.007 396.01 412.377 396.117 412.684 396.33C412.997 396.537 413.214 396.82 413.334 397.18H413.274V393.95H414.124V401H413.324V399.88H413.364C413.244 400.253 413.024 400.55 412.704 400.77C412.39 400.983 412.017 401.09 411.584 401.09ZM411.754 400.4C412.227 400.4 412.6 400.237 412.874 399.91C413.154 399.583 413.294 399.13 413.294 398.55C413.294 397.963 413.154 397.51 412.874 397.19C412.6 396.863 412.23 396.7 411.764 396.7C411.29 396.7 410.914 396.863 410.634 397.19C410.36 397.51 410.224 397.963 410.224 398.55C410.224 399.13 410.36 399.583 410.634 399.91C410.914 400.237 411.287 400.4 411.754 400.4ZM415.677 394.9V393.95H416.717V394.9H415.677ZM415.777 401V396.1H416.627V401H415.777ZM420.007 401.09C419.747 401.09 419.49 401.063 419.237 401.01C418.99 400.963 418.76 400.897 418.547 400.81C418.334 400.717 418.15 400.607 417.997 400.48L418.267 399.87C418.434 399.997 418.614 400.103 418.807 400.19C419 400.27 419.2 400.33 419.407 400.37C419.614 400.403 419.817 400.42 420.017 400.42C420.41 400.42 420.71 400.357 420.917 400.23C421.13 400.097 421.237 399.913 421.237 399.68C421.237 399.487 421.17 399.337 421.037 399.23C420.91 399.123 420.704 399.04 420.417 398.98L419.447 398.8C419.014 398.713 418.687 398.56 418.467 398.34C418.247 398.113 418.137 397.823 418.137 397.47C418.137 397.177 418.217 396.92 418.377 396.7C418.537 396.48 418.767 396.31 419.067 396.19C419.367 396.07 419.717 396.01 420.117 396.01C420.344 396.01 420.57 396.033 420.797 396.08C421.024 396.127 421.234 396.197 421.427 396.29C421.627 396.377 421.794 396.487 421.927 396.62L421.647 397.22C421.514 397.1 421.36 397 421.187 396.92C421.02 396.833 420.844 396.77 420.657 396.73C420.47 396.69 420.287 396.67 420.107 396.67C419.734 396.67 419.444 396.74 419.237 396.88C419.03 397.02 418.927 397.207 418.927 397.44C418.927 397.633 418.987 397.787 419.107 397.9C419.234 398.007 419.43 398.087 419.697 398.14L420.647 398.33C421.114 398.423 421.46 398.577 421.687 398.79C421.92 398.997 422.037 399.28 422.037 399.64C422.037 399.94 421.95 400.2 421.777 400.42C421.61 400.633 421.377 400.8 421.077 400.92C420.777 401.033 420.42 401.09 420.007 401.09ZM423.375 402.8V396.1H424.185V397.21H424.135C424.261 396.837 424.481 396.543 424.795 396.33C425.115 396.117 425.491 396.01 425.925 396.01C426.371 396.01 426.758 396.117 427.085 396.33C427.418 396.537 427.675 396.83 427.855 397.21C428.041 397.583 428.135 398.03 428.135 398.55C428.135 399.057 428.045 399.503 427.865 399.89C427.685 400.27 427.428 400.567 427.095 400.78C426.768 400.987 426.378 401.09 425.925 401.09C425.498 401.09 425.128 400.983 424.815 400.77C424.508 400.557 424.291 400.273 424.165 399.92H424.225V402.8H423.375ZM425.745 400.4C426.218 400.4 426.591 400.237 426.865 399.91C427.138 399.583 427.275 399.127 427.275 398.54C427.275 397.953 427.138 397.5 426.865 397.18C426.591 396.86 426.218 396.7 425.745 396.7C425.278 396.7 424.905 396.86 424.625 397.18C424.351 397.5 424.215 397.953 424.215 398.54C424.215 399.127 424.351 399.583 424.625 399.91C424.905 400.237 425.278 400.4 425.745 400.4ZM431.278 401.09C430.878 401.09 430.541 401.017 430.268 400.87C430.001 400.723 429.801 400.507 429.668 400.22C429.535 399.927 429.468 399.567 429.468 399.14V396.1H430.318V399.11C430.318 399.383 430.355 399.617 430.428 399.81C430.508 399.997 430.631 400.14 430.798 400.24C430.965 400.333 431.181 400.38 431.448 400.38C431.728 400.38 431.975 400.313 432.188 400.18C432.408 400.047 432.578 399.867 432.698 399.64C432.825 399.413 432.888 399.157 432.888 398.87V396.1H433.738V401H432.938V399.9H432.998C432.851 400.28 432.628 400.573 432.328 400.78C432.035 400.987 431.685 401.09 431.278 401.09ZM437.406 401.09C436.82 401.09 436.38 400.937 436.086 400.63C435.793 400.317 435.646 399.873 435.646 399.3V396.78H434.666V396.1H435.666V394.62H436.496V396.1H438.156V396.78H436.496V399.22C436.496 399.6 436.576 399.887 436.736 400.08C436.903 400.267 437.166 400.36 437.526 400.36C437.646 400.36 437.766 400.347 437.886 400.32C438.006 400.293 438.116 400.26 438.216 400.22L438.366 400.88C438.253 400.94 438.106 400.99 437.926 401.03C437.753 401.07 437.58 401.09 437.406 401.09ZM441.465 401.09C440.932 401.09 440.472 400.99 440.085 400.79C439.699 400.583 439.402 400.29 439.195 399.91C438.989 399.53 438.885 399.077 438.885 398.55C438.885 398.05 438.982 397.61 439.175 397.23C439.375 396.85 439.655 396.553 440.015 396.34C440.375 396.12 440.795 396.01 441.275 396.01C441.742 396.01 442.135 396.11 442.455 396.31C442.782 396.51 443.032 396.793 443.205 397.16C443.379 397.52 443.465 397.953 443.465 398.46V398.76H439.525V398.18H442.905L442.735 398.34C442.735 397.807 442.612 397.393 442.365 397.1C442.119 396.8 441.759 396.65 441.285 396.65C440.959 396.65 440.675 396.727 440.435 396.88C440.202 397.027 440.022 397.237 439.895 397.51C439.769 397.777 439.705 398.093 439.705 398.46V398.54C439.705 398.947 439.772 399.287 439.905 399.56C440.045 399.833 440.249 400.043 440.515 400.19C440.782 400.33 441.102 400.4 441.475 400.4C441.755 400.4 442.032 400.36 442.305 400.28C442.579 400.193 442.839 400.05 443.085 399.85L443.375 400.45C443.135 400.657 442.842 400.817 442.495 400.93C442.155 401.037 441.812 401.09 441.465 401.09ZM446.691 401.09C446.245 401.09 445.855 400.987 445.521 400.78C445.188 400.567 444.931 400.27 444.751 399.89C444.571 399.503 444.481 399.057 444.481 398.55C444.481 398.03 444.571 397.583 444.751 397.21C444.931 396.83 445.185 396.537 445.511 396.33C445.845 396.117 446.235 396.01 446.681 396.01C447.115 396.01 447.485 396.117 447.791 396.33C448.105 396.537 448.321 396.82 448.441 397.18H448.381V393.95H449.231V401H448.431V399.88H448.471C448.351 400.253 448.131 400.55 447.811 400.77C447.498 400.983 447.125 401.09 446.691 401.09ZM446.861 400.4C447.335 400.4 447.708 400.237 447.981 399.91C448.261 399.583 448.401 399.13 448.401 398.55C448.401 397.963 448.261 397.51 447.981 397.19C447.708 396.863 447.338 396.7 446.871 396.7C446.398 396.7 446.021 396.863 445.741 397.19C445.468 397.51 445.331 397.963 445.331 398.55C445.331 399.13 445.468 399.583 445.741 399.91C446.021 400.237 446.395 400.4 446.861 400.4Z" fill="#8D8A94"/>
<path d="M404.741 233L402.357 229.416C402.218 229.192 402.069 229.011 401.909 228.872C401.759 228.733 401.589 228.637 401.397 228.584C401.215 228.52 400.997 228.488 400.741 228.488H398.469V226.872H401.605C402.117 226.872 402.538 226.813 402.869 226.696C403.199 226.568 403.455 226.376 403.637 226.12C403.829 225.864 403.951 225.539 404.005 225.144L404.277 225.624H398.469V224.216H404.277L403.973 224.664C403.887 224.152 403.658 223.768 403.285 223.512C402.911 223.256 402.378 223.128 401.685 223.128H398.469V221.72H407.413V223.128H404.549L404.741 222.68C405.103 222.872 405.386 223.128 405.589 223.448C405.791 223.757 405.914 224.12 405.957 224.536L405.589 224.216H407.413V225.624H405.637L405.989 225.048C405.999 225.731 405.85 226.323 405.541 226.824C405.231 227.325 404.789 227.715 404.213 227.992C403.647 228.259 402.965 228.392 402.165 228.392V228.232H402.613C402.933 228.232 403.221 228.275 403.477 228.36C403.733 228.435 403.973 228.568 404.197 228.76C404.421 228.941 404.634 229.187 404.837 229.496L407.205 233H404.741ZM409.471 233V231.304H412.015V223.448H413.007L410.047 225.24L409.247 223.736L412.607 221.72H414.063V231.304H416.447V233H409.471ZM418.184 233V230.776H420.424V233H418.184ZM423.033 233V231.304H425.577V223.448H426.569L423.609 225.24L422.809 223.736L426.169 221.72H427.625V231.304H430.009V233H423.033ZM432.115 233V221.72H434.163V231.256H439.571V233H432.115Z" fill="black"/>
<path d="M534 160.5H732" stroke="#EBEBED" stroke-linecap="round" stroke-linejoin="round" stroke-dasharray="2 4"/>
<path d="M534 209.25H732" stroke="#EBEBED" stroke-linecap="round" stroke-linejoin="round" stroke-dasharray="2 4"/>
<path d="M534 258H732" stroke="#EBEBED" stroke-linecap="round" stroke-linejoin="round" stroke-dasharray="2 4"/>
<path d="M534 306.75H732" stroke="#EBEBED" stroke-linecap="round" stroke-linejoin="round" stroke-dasharray="2 4"/>
<path d="M534 355.5H732" stroke="#EBEBED" stroke-linecap="round" stroke-linejoin="round" stroke-dasharray="2 4"/>
<path d="M534 195.75H732V354.247H534V195.75Z" fill="url(#paint2_linear_7398_31195)"/>
<path d="M534 195.75V196.75H732V195.75V194.75H534V195.75Z" fill="black"/>
<path d="M605.837 380V379.22L608.217 376.69C608.443 376.45 608.62 376.233 608.747 376.04C608.88 375.84 608.977 375.647 609.037 375.46C609.097 375.273 609.127 375.087 609.127 374.9C609.127 374.533 609.01 374.253 608.777 374.06C608.55 373.867 608.223 373.77 607.797 373.77C607.47 373.77 607.15 373.833 606.837 373.96C606.523 374.08 606.227 374.27 605.947 374.53L605.567 373.72C605.853 373.453 606.203 373.243 606.617 373.09C607.03 372.937 607.46 372.86 607.907 372.86C608.387 372.86 608.797 372.937 609.137 373.09C609.477 373.243 609.733 373.467 609.907 373.76C610.087 374.053 610.177 374.403 610.177 374.81C610.177 375.023 610.15 375.23 610.097 375.43C610.05 375.63 609.977 375.83 609.877 376.03C609.777 376.223 609.647 376.427 609.487 376.64C609.333 376.847 609.15 377.06 608.937 377.28L607.027 379.27V379.1H610.457V380H605.837ZM614.013 380.09C613.466 380.09 613.003 379.953 612.623 379.68C612.249 379.4 611.966 378.99 611.773 378.45C611.579 377.91 611.483 377.25 611.483 376.47C611.483 375.683 611.579 375.023 611.773 374.49C611.966 373.95 612.249 373.543 612.623 373.27C613.003 372.997 613.466 372.86 614.013 372.86C614.566 372.86 615.029 372.997 615.403 373.27C615.783 373.543 616.066 373.947 616.253 374.48C616.446 375.013 616.543 375.673 616.543 376.46C616.543 377.24 616.446 377.903 616.253 378.45C616.059 378.99 615.776 379.4 615.403 379.68C615.029 379.953 614.566 380.09 614.013 380.09ZM614.013 379.2C614.519 379.2 614.893 378.98 615.133 378.54C615.379 378.093 615.503 377.4 615.503 376.46C615.503 375.52 615.379 374.833 615.133 374.4C614.893 373.967 614.519 373.75 614.013 373.75C613.513 373.75 613.139 373.97 612.893 374.41C612.646 374.843 612.523 375.527 612.523 376.46C612.523 377.4 612.643 378.093 612.883 378.54C613.129 378.98 613.506 379.2 614.013 379.2ZM618.199 381.37L617.729 380.99C617.855 380.863 617.955 380.733 618.029 380.6C618.102 380.467 618.155 380.33 618.189 380.19C618.229 380.057 618.249 379.923 618.249 379.79L618.469 380H617.639V378.77H618.909V379.64C618.909 379.853 618.885 380.06 618.839 380.26C618.792 380.46 618.719 380.65 618.619 380.83C618.519 381.017 618.379 381.197 618.199 381.37ZM622.538 380.09C621.991 380.09 621.528 379.953 621.148 379.68C620.775 379.4 620.491 378.99 620.298 378.45C620.105 377.91 620.008 377.25 620.008 376.47C620.008 375.683 620.105 375.023 620.298 374.49C620.491 373.95 620.775 373.543 621.148 373.27C621.528 372.997 621.991 372.86 622.538 372.86C623.091 372.86 623.555 372.997 623.928 373.27C624.308 373.543 624.591 373.947 624.778 374.48C624.971 375.013 625.068 375.673 625.068 376.46C625.068 377.24 624.971 377.903 624.778 378.45C624.585 378.99 624.301 379.4 623.928 379.68C623.555 379.953 623.091 380.09 622.538 380.09ZM622.538 379.2C623.045 379.2 623.418 378.98 623.658 378.54C623.905 378.093 624.028 377.4 624.028 376.46C624.028 375.52 623.905 374.833 623.658 374.4C623.418 373.967 623.045 373.75 622.538 373.75C622.038 373.75 621.665 373.97 621.418 374.41C621.171 374.843 621.048 375.527 621.048 376.46C621.048 377.4 621.168 378.093 621.408 378.54C621.655 378.98 622.031 379.2 622.538 379.2ZM628.534 380.09C627.988 380.09 627.524 379.953 627.144 379.68C626.771 379.4 626.488 378.99 626.294 378.45C626.101 377.91 626.004 377.25 626.004 376.47C626.004 375.683 626.101 375.023 626.294 374.49C626.488 373.95 626.771 373.543 627.144 373.27C627.524 372.997 627.988 372.86 628.534 372.86C629.088 372.86 629.551 372.997 629.924 373.27C630.304 373.543 630.588 373.947 630.774 374.48C630.968 375.013 631.064 375.673 631.064 376.46C631.064 377.24 630.968 377.903 630.774 378.45C630.581 378.99 630.298 379.4 629.924 379.68C629.551 379.953 629.088 380.09 628.534 380.09ZM628.534 379.2C629.041 379.2 629.414 378.98 629.654 378.54C629.901 378.093 630.024 377.4 630.024 376.46C630.024 375.52 629.901 374.833 629.654 374.4C629.414 373.967 629.041 373.75 628.534 373.75C628.034 373.75 627.661 373.97 627.414 374.41C627.168 374.843 627.044 375.527 627.044 376.46C627.044 377.4 627.164 378.093 627.404 378.54C627.651 378.98 628.028 379.2 628.534 379.2ZM634.53 380.09C633.984 380.09 633.52 379.953 633.14 379.68C632.767 379.4 632.484 378.99 632.29 378.45C632.097 377.91 632 377.25 632 376.47C632 375.683 632.097 375.023 632.29 374.49C632.484 373.95 632.767 373.543 633.14 373.27C633.52 372.997 633.984 372.86 634.53 372.86C635.084 372.86 635.547 372.997 635.92 373.27C636.3 373.543 636.584 373.947 636.77 374.48C636.964 375.013 637.06 375.673 637.06 376.46C637.06 377.24 636.964 377.903 636.77 378.45C636.577 378.99 636.294 379.4 635.92 379.68C635.547 379.953 635.084 380.09 634.53 380.09ZM634.53 379.2C635.037 379.2 635.41 378.98 635.65 378.54C635.897 378.093 636.02 377.4 636.02 376.46C636.02 375.52 635.897 374.833 635.65 374.4C635.41 373.967 635.037 373.75 634.53 373.75C634.03 373.75 633.657 373.97 633.41 374.41C633.164 374.843 633.04 375.527 633.04 376.46C633.04 377.4 633.16 378.093 633.4 378.54C633.647 378.98 634.024 379.2 634.53 379.2ZM640.901 380.66L640.091 380.44L642.661 372.45L643.471 372.68L640.901 380.66ZM646.822 380V375.08H647.812V376.13H647.762C647.849 375.897 647.969 375.697 648.122 375.53C648.282 375.357 648.472 375.223 648.692 375.13C648.912 375.037 649.156 374.99 649.422 374.99C649.836 374.99 650.176 375.09 650.442 375.29C650.709 375.49 650.886 375.773 650.972 376.14H650.892C651.019 375.8 651.232 375.523 651.532 375.31C651.832 375.097 652.196 374.99 652.622 374.99C652.996 374.99 653.306 375.063 653.552 375.21C653.806 375.357 653.996 375.577 654.122 375.87C654.249 376.163 654.312 376.537 654.312 376.99V380H653.262V377.04C653.262 376.64 653.192 376.343 653.052 376.15C652.912 375.95 652.669 375.85 652.322 375.85C652.069 375.85 651.849 375.91 651.662 376.03C651.476 376.143 651.332 376.307 651.232 376.52C651.132 376.733 651.082 376.98 651.082 377.26V380H650.042V377.04C650.042 376.64 649.966 376.343 649.812 376.15C649.666 375.95 649.432 375.85 649.112 375.85C648.852 375.85 648.629 375.913 648.442 376.04C648.262 376.16 648.122 376.327 648.022 376.54C647.922 376.747 647.872 376.983 647.872 377.25V380H646.822ZM658.035 380.09C657.535 380.09 657.098 379.987 656.725 379.78C656.358 379.567 656.075 379.27 655.875 378.89C655.675 378.503 655.575 378.053 655.575 377.54C655.575 377.02 655.675 376.57 655.875 376.19C656.075 375.81 656.358 375.517 656.725 375.31C657.098 375.097 657.535 374.99 658.035 374.99C658.542 374.99 658.978 375.097 659.345 375.31C659.712 375.517 659.995 375.81 660.195 376.19C660.395 376.57 660.495 377.02 660.495 377.54C660.495 378.053 660.395 378.503 660.195 378.89C659.995 379.27 659.712 379.567 659.345 379.78C658.978 379.987 658.542 380.09 658.035 380.09ZM658.035 379.25C658.468 379.25 658.812 379.1 659.065 378.8C659.318 378.5 659.445 378.077 659.445 377.53C659.445 376.983 659.318 376.563 659.065 376.27C658.812 375.977 658.468 375.83 658.035 375.83C657.602 375.83 657.258 375.977 657.005 376.27C656.752 376.563 656.625 376.983 656.625 377.53C656.625 378.077 656.752 378.5 657.005 378.8C657.258 379.1 657.602 379.25 658.035 379.25Z" fill="#444050"/>
<path d="M602.886 401V393.95H603.746V401H602.886ZM605.799 401V396.76H604.819V396.1H606.029L605.799 396.32V395.97C605.799 395.323 605.969 394.833 606.309 394.5C606.656 394.16 607.169 393.973 607.849 393.94L608.299 393.91L608.369 394.59L607.839 394.62C607.586 394.633 607.369 394.687 607.189 394.78C607.016 394.867 606.883 395 606.789 395.18C606.696 395.353 606.649 395.583 606.649 395.87V396.22L606.529 396.1H608.129V396.76H606.649V401H605.799ZM613.598 401.09C613.198 401.09 612.862 401.017 612.588 400.87C612.322 400.723 612.122 400.507 611.988 400.22C611.855 399.927 611.788 399.567 611.788 399.14V396.1H612.638V399.11C612.638 399.383 612.675 399.617 612.748 399.81C612.828 399.997 612.952 400.14 613.118 400.24C613.285 400.333 613.502 400.38 613.768 400.38C614.048 400.38 614.295 400.313 614.508 400.18C614.728 400.047 614.898 399.867 615.018 399.64C615.145 399.413 615.208 399.157 615.208 398.87V396.1H616.058V401H615.258V399.9H615.318C615.172 400.28 614.948 400.573 614.648 400.78C614.355 400.987 614.005 401.09 613.598 401.09ZM617.707 401V396.1H618.517V397.18H618.467C618.613 396.8 618.847 396.51 619.167 396.31C619.487 396.11 619.85 396.01 620.257 396.01C620.657 396.01 620.987 396.08 621.247 396.22C621.513 396.36 621.713 396.577 621.847 396.87C621.98 397.157 622.047 397.52 622.047 397.96V401H621.197V398.01C621.197 397.73 621.157 397.493 621.077 397.3C621.003 397.107 620.883 396.963 620.717 396.87C620.55 396.77 620.333 396.72 620.067 396.72C619.767 396.72 619.503 396.787 619.277 396.92C619.05 397.047 618.873 397.223 618.747 397.45C618.62 397.677 618.557 397.937 618.557 398.23V401H617.707ZM625.584 401.09C625.137 401.09 624.747 400.987 624.414 400.78C624.08 400.567 623.824 400.27 623.644 399.89C623.464 399.503 623.374 399.057 623.374 398.55C623.374 398.03 623.464 397.583 623.644 397.21C623.824 396.83 624.077 396.537 624.404 396.33C624.737 396.117 625.127 396.01 625.574 396.01C626.007 396.01 626.377 396.117 626.684 396.33C626.997 396.537 627.214 396.82 627.334 397.18H627.274V393.95H628.124V401H627.324V399.88H627.364C627.244 400.253 627.024 400.55 626.704 400.77C626.39 400.983 626.017 401.09 625.584 401.09ZM625.754 400.4C626.227 400.4 626.6 400.237 626.874 399.91C627.154 399.583 627.294 399.13 627.294 398.55C627.294 397.963 627.154 397.51 626.874 397.19C626.6 396.863 626.23 396.7 625.764 396.7C625.29 396.7 624.914 396.863 624.634 397.19C624.36 397.51 624.224 397.963 624.224 398.55C624.224 399.13 624.36 399.583 624.634 399.91C624.914 400.237 625.287 400.4 625.754 400.4ZM629.677 394.9V393.95H630.717V394.9H629.677ZM629.777 401V396.1H630.627V401H629.777ZM634.007 401.09C633.747 401.09 633.49 401.063 633.237 401.01C632.99 400.963 632.76 400.897 632.547 400.81C632.334 400.717 632.15 400.607 631.997 400.48L632.267 399.87C632.434 399.997 632.614 400.103 632.807 400.19C633 400.27 633.2 400.33 633.407 400.37C633.614 400.403 633.817 400.42 634.017 400.42C634.41 400.42 634.71 400.357 634.917 400.23C635.13 400.097 635.237 399.913 635.237 399.68C635.237 399.487 635.17 399.337 635.037 399.23C634.91 399.123 634.704 399.04 634.417 398.98L633.447 398.8C633.014 398.713 632.687 398.56 632.467 398.34C632.247 398.113 632.137 397.823 632.137 397.47C632.137 397.177 632.217 396.92 632.377 396.7C632.537 396.48 632.767 396.31 633.067 396.19C633.367 396.07 633.717 396.01 634.117 396.01C634.344 396.01 634.57 396.033 634.797 396.08C635.024 396.127 635.234 396.197 635.427 396.29C635.627 396.377 635.794 396.487 635.927 396.62L635.647 397.22C635.514 397.1 635.36 397 635.187 396.92C635.02 396.833 634.844 396.77 634.657 396.73C634.47 396.69 634.287 396.67 634.107 396.67C633.734 396.67 633.444 396.74 633.237 396.88C633.03 397.02 632.927 397.207 632.927 397.44C632.927 397.633 632.987 397.787 633.107 397.9C633.234 398.007 633.43 398.087 633.697 398.14L634.647 398.33C635.114 398.423 635.46 398.577 635.687 398.79C635.92 398.997 636.037 399.28 636.037 399.64C636.037 399.94 635.95 400.2 635.777 400.42C635.61 400.633 635.377 400.8 635.077 400.92C634.777 401.033 634.42 401.09 634.007 401.09ZM637.375 402.8V396.1H638.185V397.21H638.135C638.261 396.837 638.481 396.543 638.795 396.33C639.115 396.117 639.491 396.01 639.925 396.01C640.371 396.01 640.758 396.117 641.085 396.33C641.418 396.537 641.675 396.83 641.855 397.21C642.041 397.583 642.135 398.03 642.135 398.55C642.135 399.057 642.045 399.503 641.865 399.89C641.685 400.27 641.428 400.567 641.095 400.78C640.768 400.987 640.378 401.09 639.925 401.09C639.498 401.09 639.128 400.983 638.815 400.77C638.508 400.557 638.291 400.273 638.165 399.92H638.225V402.8H637.375ZM639.745 400.4C640.218 400.4 640.591 400.237 640.865 399.91C641.138 399.583 641.275 399.127 641.275 398.54C641.275 397.953 641.138 397.5 640.865 397.18C640.591 396.86 640.218 396.7 639.745 396.7C639.278 396.7 638.905 396.86 638.625 397.18C638.351 397.5 638.215 397.953 638.215 398.54C638.215 399.127 638.351 399.583 638.625 399.91C638.905 400.237 639.278 400.4 639.745 400.4ZM645.278 401.09C644.878 401.09 644.541 401.017 644.268 400.87C644.001 400.723 643.801 400.507 643.668 400.22C643.535 399.927 643.468 399.567 643.468 399.14V396.1H644.318V399.11C644.318 399.383 644.355 399.617 644.428 399.81C644.508 399.997 644.631 400.14 644.798 400.24C644.965 400.333 645.181 400.38 645.448 400.38C645.728 400.38 645.975 400.313 646.188 400.18C646.408 400.047 646.578 399.867 646.698 399.64C646.825 399.413 646.888 399.157 646.888 398.87V396.1H647.738V401H646.938V399.9H646.998C646.851 400.28 646.628 400.573 646.328 400.78C646.035 400.987 645.685 401.09 645.278 401.09ZM651.406 401.09C650.82 401.09 650.38 400.937 650.086 400.63C649.793 400.317 649.646 399.873 649.646 399.3V396.78H648.666V396.1H649.666V394.62H650.496V396.1H652.156V396.78H650.496V399.22C650.496 399.6 650.576 399.887 650.736 400.08C650.903 400.267 651.166 400.36 651.526 400.36C651.646 400.36 651.766 400.347 651.886 400.32C652.006 400.293 652.116 400.26 652.216 400.22L652.366 400.88C652.253 400.94 652.106 400.99 651.926 401.03C651.753 401.07 651.58 401.09 651.406 401.09ZM655.465 401.09C654.932 401.09 654.472 400.99 654.085 400.79C653.699 400.583 653.402 400.29 653.195 399.91C652.989 399.53 652.885 399.077 652.885 398.55C652.885 398.05 652.982 397.61 653.175 397.23C653.375 396.85 653.655 396.553 654.015 396.34C654.375 396.12 654.795 396.01 655.275 396.01C655.742 396.01 656.135 396.11 656.455 396.31C656.782 396.51 657.032 396.793 657.205 397.16C657.379 397.52 657.465 397.953 657.465 398.46V398.76H653.525V398.18H656.905L656.735 398.34C656.735 397.807 656.612 397.393 656.365 397.1C656.119 396.8 655.759 396.65 655.285 396.65C654.959 396.65 654.675 396.727 654.435 396.88C654.202 397.027 654.022 397.237 653.895 397.51C653.769 397.777 653.705 398.093 653.705 398.46V398.54C653.705 398.947 653.772 399.287 653.905 399.56C654.045 399.833 654.249 400.043 654.515 400.19C654.782 400.33 655.102 400.4 655.475 400.4C655.755 400.4 656.032 400.36 656.305 400.28C656.579 400.193 656.839 400.05 657.085 399.85L657.375 400.45C657.135 400.657 656.842 400.817 656.495 400.93C656.155 401.037 655.812 401.09 655.465 401.09ZM660.691 401.09C660.245 401.09 659.855 400.987 659.521 400.78C659.188 400.567 658.931 400.27 658.751 399.89C658.571 399.503 658.481 399.057 658.481 398.55C658.481 398.03 658.571 397.583 658.751 397.21C658.931 396.83 659.185 396.537 659.511 396.33C659.845 396.117 660.235 396.01 660.681 396.01C661.115 396.01 661.485 396.117 661.791 396.33C662.105 396.537 662.321 396.82 662.441 397.18H662.381V393.95H663.231V401H662.431V399.88H662.471C662.351 400.253 662.131 400.55 661.811 400.77C661.498 400.983 661.125 401.09 660.691 401.09ZM660.861 400.4C661.335 400.4 661.708 400.237 661.981 399.91C662.261 399.583 662.401 399.13 662.401 398.55C662.401 397.963 662.261 397.51 661.981 397.19C661.708 396.863 661.338 396.7 660.871 396.7C660.398 396.7 660.021 396.863 659.741 397.19C659.468 397.51 659.331 397.963 659.331 398.55C659.331 399.13 659.468 399.583 659.741 399.91C660.021 400.237 660.395 400.4 660.861 400.4Z" fill="#8D8A94"/>
<path d="M618.741 169L616.357 165.416C616.218 165.192 616.069 165.011 615.909 164.872C615.759 164.733 615.589 164.637 615.397 164.584C615.215 164.52 614.997 164.488 614.741 164.488H612.469V162.872H615.605C616.117 162.872 616.538 162.813 616.869 162.696C617.199 162.568 617.455 162.376 617.637 162.12C617.829 161.864 617.951 161.539 618.005 161.144L618.277 161.624H612.469V160.216H618.277L617.973 160.664C617.887 160.152 617.658 159.768 617.285 159.512C616.911 159.256 616.378 159.128 615.685 159.128H612.469V157.72H621.413V159.128H618.549L618.741 158.68C619.103 158.872 619.386 159.128 619.589 159.448C619.791 159.757 619.914 160.12 619.957 160.536L619.589 160.216H621.413V161.624H619.637L619.989 161.048C619.999 161.731 619.85 162.323 619.541 162.824C619.231 163.325 618.789 163.715 618.213 163.992C617.647 164.259 616.965 164.392 616.165 164.392V164.232H616.613C616.933 164.232 617.221 164.275 617.477 164.36C617.733 164.435 617.973 164.568 618.197 164.76C618.421 164.941 618.634 165.187 618.837 165.496L621.205 169H618.741ZM627.311 169V166.856H622.399V165.352L627.663 157.72H629.359V165.16H630.943V166.856H629.359V169H627.311ZM627.311 165.16V160.168H627.775L623.999 165.704V165.16H627.311ZM632.184 169V166.776H634.424V169H632.184ZM639.865 169.16C639.353 169.16 638.852 169.107 638.361 169C637.881 168.904 637.433 168.76 637.017 168.568C636.601 168.376 636.238 168.147 635.929 167.88L636.601 166.312C637.102 166.696 637.614 166.979 638.137 167.16C638.66 167.341 639.214 167.432 639.801 167.432C640.27 167.432 640.665 167.368 640.985 167.24C641.305 167.112 641.545 166.92 641.705 166.664C641.876 166.408 641.961 166.099 641.961 165.736C641.961 165.203 641.78 164.808 641.417 164.552C641.065 164.285 640.548 164.152 639.865 164.152H638.057V162.456H639.673C640.078 162.456 640.425 162.392 640.713 162.264C641.001 162.125 641.225 161.933 641.385 161.688C641.545 161.443 641.625 161.144 641.625 160.792C641.625 160.301 641.46 159.928 641.129 159.672C640.809 159.416 640.34 159.288 639.721 159.288C639.166 159.288 638.649 159.384 638.169 159.576C637.689 159.757 637.23 160.045 636.793 160.44L636.121 158.904C636.569 158.477 637.129 158.147 637.801 157.912C638.473 157.677 639.172 157.56 639.897 157.56C640.676 157.56 641.342 157.683 641.897 157.928C642.452 158.163 642.873 158.504 643.161 158.952C643.46 159.389 643.609 159.923 643.609 160.552C643.609 161.224 643.422 161.805 643.049 162.296C642.676 162.776 642.164 163.096 641.513 163.256V163.064C642.025 163.149 642.462 163.32 642.825 163.576C643.188 163.832 643.465 164.157 643.657 164.552C643.849 164.947 643.945 165.4 643.945 165.912C643.945 166.573 643.78 167.149 643.449 167.64C643.118 168.131 642.649 168.509 642.041 168.776C641.433 169.032 640.708 169.16 639.865 169.16ZM646.115 169V157.72H648.163V167.256H653.571V169H646.115Z" fill="black"/>
<path d="M748 160.5H946" stroke="#EBEBED" stroke-linecap="round" stroke-linejoin="round" stroke-dasharray="2 4"/>
<path d="M748 209.25H946" stroke="#EBEBED" stroke-linecap="round" stroke-linejoin="round" stroke-dasharray="2 4"/>
<path d="M748 258H946" stroke="#EBEBED" stroke-linecap="round" stroke-linejoin="round" stroke-dasharray="2 4"/>
<path d="M748 306.75H946" stroke="#EBEBED" stroke-linecap="round" stroke-linejoin="round" stroke-dasharray="2 4"/>
<path d="M748 355.5H946" stroke="#EBEBED" stroke-linecap="round" stroke-linejoin="round" stroke-dasharray="2 4"/>
<path d="M748 162.75H946V354.247H748V162.75Z" fill="url(#paint3_linear_7398_31195)"/>
<path d="M748 162.75V163.75H946V162.75V161.75H748V162.75Z" fill="#BD8125"/>
<circle cx="847.5" cy="161.75" r="4.5" fill="#BD8125" stroke="#FEFEFE"/>
<path d="M819.099 380.09C818.792 380.09 818.492 380.06 818.199 380C817.912 379.933 817.642 379.837 817.389 379.71C817.142 379.583 816.922 379.433 816.729 379.26L817.109 378.44C817.415 378.693 817.732 378.88 818.059 379C818.385 379.12 818.729 379.18 819.089 379.18C819.549 379.18 819.909 379.06 820.169 378.82C820.429 378.58 820.559 378.253 820.559 377.84C820.559 377.413 820.435 377.073 820.189 376.82C819.942 376.567 819.602 376.44 819.169 376.44C818.869 376.44 818.599 376.5 818.359 376.62C818.125 376.733 817.909 376.92 817.709 377.18H816.939V372.95H821.189V373.85H817.939V376.33H817.769C817.935 376.09 818.159 375.9 818.439 375.76C818.725 375.62 819.042 375.55 819.389 375.55C819.835 375.55 820.222 375.647 820.549 375.84C820.875 376.027 821.129 376.287 821.309 376.62C821.489 376.953 821.579 377.343 821.579 377.79C821.579 378.25 821.479 378.653 821.279 379C821.079 379.347 820.792 379.617 820.419 379.81C820.045 379.997 819.605 380.09 819.099 380.09ZM825.015 380.09C824.468 380.09 824.005 379.953 823.625 379.68C823.251 379.4 822.968 378.99 822.775 378.45C822.581 377.91 822.485 377.25 822.485 376.47C822.485 375.683 822.581 375.023 822.775 374.49C822.968 373.95 823.251 373.543 823.625 373.27C824.005 372.997 824.468 372.86 825.015 372.86C825.568 372.86 826.031 372.997 826.405 373.27C826.785 373.543 827.068 373.947 827.255 374.48C827.448 375.013 827.545 375.673 827.545 376.46C827.545 377.24 827.448 377.903 827.255 378.45C827.061 378.99 826.778 379.4 826.405 379.68C826.031 379.953 825.568 380.09 825.015 380.09ZM825.015 379.2C825.521 379.2 825.895 378.98 826.135 378.54C826.381 378.093 826.505 377.4 826.505 376.46C826.505 375.52 826.381 374.833 826.135 374.4C825.895 373.967 825.521 373.75 825.015 373.75C824.515 373.75 824.141 373.97 823.895 374.41C823.648 374.843 823.525 375.527 823.525 376.46C823.525 377.4 823.645 378.093 823.885 378.54C824.131 378.98 824.508 379.2 825.015 379.2ZM829.201 381.37L828.731 380.99C828.857 380.863 828.957 380.733 829.031 380.6C829.104 380.467 829.157 380.33 829.191 380.19C829.231 380.057 829.251 379.923 829.251 379.79L829.471 380H828.641V378.77H829.911V379.64C829.911 379.853 829.887 380.06 829.841 380.26C829.794 380.46 829.721 380.65 829.621 380.83C829.521 381.017 829.381 381.197 829.201 381.37ZM833.54 380.09C832.993 380.09 832.53 379.953 832.15 379.68C831.777 379.4 831.493 378.99 831.3 378.45C831.107 377.91 831.01 377.25 831.01 376.47C831.01 375.683 831.107 375.023 831.3 374.49C831.493 373.95 831.777 373.543 832.15 373.27C832.53 372.997 832.993 372.86 833.54 372.86C834.093 372.86 834.557 372.997 834.93 373.27C835.31 373.543 835.593 373.947 835.78 374.48C835.973 375.013 836.07 375.673 836.07 376.46C836.07 377.24 835.973 377.903 835.78 378.45C835.587 378.99 835.303 379.4 834.93 379.68C834.557 379.953 834.093 380.09 833.54 380.09ZM833.54 379.2C834.047 379.2 834.42 378.98 834.66 378.54C834.907 378.093 835.03 377.4 835.03 376.46C835.03 375.52 834.907 374.833 834.66 374.4C834.42 373.967 834.047 373.75 833.54 373.75C833.04 373.75 832.667 373.97 832.42 374.41C832.173 374.843 832.05 375.527 832.05 376.46C832.05 377.4 832.17 378.093 832.41 378.54C832.657 378.98 833.033 379.2 833.54 379.2ZM839.536 380.09C838.989 380.09 838.526 379.953 838.146 379.68C837.773 379.4 837.489 378.99 837.296 378.45C837.103 377.91 837.006 377.25 837.006 376.47C837.006 375.683 837.103 375.023 837.296 374.49C837.489 373.95 837.773 373.543 838.146 373.27C838.526 372.997 838.989 372.86 839.536 372.86C840.089 372.86 840.553 372.997 840.926 373.27C841.306 373.543 841.589 373.947 841.776 374.48C841.969 375.013 842.066 375.673 842.066 376.46C842.066 377.24 841.969 377.903 841.776 378.45C841.583 378.99 841.299 379.4 840.926 379.68C840.553 379.953 840.089 380.09 839.536 380.09ZM839.536 379.2C840.043 379.2 840.416 378.98 840.656 378.54C840.903 378.093 841.026 377.4 841.026 376.46C841.026 375.52 840.903 374.833 840.656 374.4C840.416 373.967 840.043 373.75 839.536 373.75C839.036 373.75 838.663 373.97 838.416 374.41C838.169 374.843 838.046 375.527 838.046 376.46C838.046 377.4 838.166 378.093 838.406 378.54C838.653 378.98 839.029 379.2 839.536 379.2ZM845.532 380.09C844.986 380.09 844.522 379.953 844.142 379.68C843.769 379.4 843.486 378.99 843.292 378.45C843.099 377.91 843.002 377.25 843.002 376.47C843.002 375.683 843.099 375.023 843.292 374.49C843.486 373.95 843.769 373.543 844.142 373.27C844.522 372.997 844.986 372.86 845.532 372.86C846.086 372.86 846.549 372.997 846.922 373.27C847.302 373.543 847.586 373.947 847.772 374.48C847.966 375.013 848.062 375.673 848.062 376.46C848.062 377.24 847.966 377.903 847.772 378.45C847.579 378.99 847.296 379.4 846.922 379.68C846.549 379.953 846.086 380.09 845.532 380.09ZM845.532 379.2C846.039 379.2 846.412 378.98 846.652 378.54C846.899 378.093 847.022 377.4 847.022 376.46C847.022 375.52 846.899 374.833 846.652 374.4C846.412 373.967 846.039 373.75 845.532 373.75C845.032 373.75 844.659 373.97 844.412 374.41C844.166 374.843 844.042 375.527 844.042 376.46C844.042 377.4 844.162 378.093 844.402 378.54C844.649 378.98 845.026 379.2 845.532 379.2ZM851.138 379.6V377.5H849.088V376.75H851.138V374.72H851.918V376.75H853.968V377.5H851.918V379.6H851.138ZM857.899 380.66L857.089 380.44L859.659 372.45L860.469 372.68L857.899 380.66ZM863.82 380V375.08H864.81V376.13H864.76C864.847 375.897 864.967 375.697 865.12 375.53C865.28 375.357 865.47 375.223 865.69 375.13C865.91 375.037 866.154 374.99 866.42 374.99C866.834 374.99 867.174 375.09 867.44 375.29C867.707 375.49 867.884 375.773 867.97 376.14H867.89C868.017 375.8 868.23 375.523 868.53 375.31C868.83 375.097 869.194 374.99 869.62 374.99C869.994 374.99 870.304 375.063 870.55 375.21C870.804 375.357 870.994 375.577 871.12 375.87C871.247 376.163 871.31 376.537 871.31 376.99V380H870.26V377.04C870.26 376.64 870.19 376.343 870.05 376.15C869.91 375.95 869.667 375.85 869.32 375.85C869.067 375.85 868.847 375.91 868.66 376.03C868.474 376.143 868.33 376.307 868.23 376.52C868.13 376.733 868.08 376.98 868.08 377.26V380H867.04V377.04C867.04 376.64 866.964 376.343 866.81 376.15C866.664 375.95 866.43 375.85 866.11 375.85C865.85 375.85 865.627 375.913 865.44 376.04C865.26 376.16 865.12 376.327 865.02 376.54C864.92 376.747 864.87 376.983 864.87 377.25V380H863.82ZM875.033 380.09C874.533 380.09 874.096 379.987 873.723 379.78C873.356 379.567 873.073 379.27 872.873 378.89C872.673 378.503 872.573 378.053 872.573 377.54C872.573 377.02 872.673 376.57 872.873 376.19C873.073 375.81 873.356 375.517 873.723 375.31C874.096 375.097 874.533 374.99 875.033 374.99C875.54 374.99 875.976 375.097 876.343 375.31C876.71 375.517 876.993 375.81 877.193 376.19C877.393 376.57 877.493 377.02 877.493 377.54C877.493 378.053 877.393 378.503 877.193 378.89C876.993 379.27 876.71 379.567 876.343 379.78C875.976 379.987 875.54 380.09 875.033 380.09ZM875.033 379.25C875.466 379.25 875.81 379.1 876.063 378.8C876.316 378.5 876.443 378.077 876.443 377.53C876.443 376.983 876.316 376.563 876.063 376.27C875.81 375.977 875.466 375.83 875.033 375.83C874.6 375.83 874.256 375.977 874.003 376.27C873.75 376.563 873.623 376.983 873.623 377.53C873.623 378.077 873.75 378.5 874.003 378.8C874.256 379.1 874.6 379.25 875.033 379.25Z" fill="#444050"/>
<path d="M791.91 401V393.95H794.76C795.52 393.95 796.103 394.127 796.51 394.48C796.917 394.827 797.12 395.327 797.12 395.98C797.12 396.38 797.037 396.723 796.87 397.01C796.703 397.297 796.463 397.52 796.15 397.68C795.843 397.84 795.473 397.933 795.04 397.96L795.11 397.88L795.26 397.89C795.473 397.903 795.66 397.973 795.82 398.1C795.98 398.22 796.133 398.413 796.28 398.68L797.52 401H796.58L795.38 398.77C795.28 398.577 795.17 398.43 795.05 398.33C794.93 398.223 794.79 398.15 794.63 398.11C794.477 398.07 794.29 398.05 794.07 398.05H792.77V401H791.91ZM792.77 397.35H794.67C795.21 397.35 795.61 397.237 795.87 397.01C796.137 396.783 796.27 396.447 796.27 396C796.27 395.553 796.137 395.22 795.87 395C795.603 394.78 795.197 394.67 794.65 394.67H792.77V397.35ZM800.896 401.09C800.363 401.09 799.903 400.99 799.516 400.79C799.129 400.583 798.833 400.29 798.626 399.91C798.419 399.53 798.316 399.077 798.316 398.55C798.316 398.05 798.413 397.61 798.606 397.23C798.806 396.85 799.086 396.553 799.446 396.34C799.806 396.12 800.226 396.01 800.706 396.01C801.173 396.01 801.566 396.11 801.886 396.31C802.213 396.51 802.463 396.793 802.636 397.16C802.809 397.52 802.896 397.953 802.896 398.46V398.76H798.956V398.18H802.336L802.166 398.34C802.166 397.807 802.043 397.393 801.796 397.1C801.549 396.8 801.189 396.65 800.716 396.65C800.389 396.65 800.106 396.727 799.866 396.88C799.633 397.027 799.453 397.237 799.326 397.51C799.199 397.777 799.136 398.093 799.136 398.46V398.54C799.136 398.947 799.203 399.287 799.336 399.56C799.476 399.833 799.679 400.043 799.946 400.19C800.213 400.33 800.533 400.4 800.906 400.4C801.186 400.4 801.463 400.36 801.736 400.28C802.009 400.193 802.269 400.05 802.516 399.85L802.806 400.45C802.566 400.657 802.273 400.817 801.926 400.93C801.586 401.037 801.243 401.09 800.896 401.09ZM806.342 401.09C805.842 401.09 805.409 400.983 805.042 400.77C804.682 400.557 804.402 400.26 804.202 399.88C804.009 399.493 803.912 399.043 803.912 398.53C803.912 398.01 804.009 397.563 804.202 397.19C804.402 396.81 804.685 396.52 805.052 396.32C805.419 396.113 805.849 396.01 806.342 396.01C806.662 396.01 806.972 396.067 807.272 396.18C807.572 396.287 807.819 396.437 808.012 396.63L807.722 397.26C807.529 397.08 807.315 396.947 807.082 396.86C806.849 396.767 806.622 396.72 806.402 396.72C805.889 396.72 805.489 396.877 805.202 397.19C804.915 397.503 804.772 397.953 804.772 398.54C804.772 399.113 804.915 399.563 805.202 399.89C805.489 400.217 805.889 400.38 806.402 400.38C806.615 400.38 806.839 400.337 807.072 400.25C807.305 400.157 807.519 400.023 807.712 399.85L808.002 400.47C807.809 400.663 807.562 400.817 807.262 400.93C806.962 401.037 806.655 401.09 806.342 401.09ZM811.048 401.09C810.561 401.09 810.138 400.987 809.778 400.78C809.424 400.567 809.151 400.27 808.958 399.89C808.764 399.51 808.668 399.06 808.668 398.54C808.668 398.027 808.764 397.583 808.958 397.21C809.151 396.83 809.424 396.537 809.778 396.33C810.138 396.117 810.561 396.01 811.048 396.01C811.534 396.01 811.954 396.117 812.308 396.33C812.668 396.537 812.944 396.83 813.138 397.21C813.331 397.583 813.428 398.027 813.428 398.54C813.428 399.06 813.331 399.51 813.138 399.89C812.944 400.27 812.668 400.567 812.308 400.78C811.954 400.987 811.534 401.09 811.048 401.09ZM811.048 400.39C811.521 400.39 811.894 400.227 812.168 399.9C812.441 399.573 812.578 399.12 812.578 398.54C812.578 397.96 812.441 397.51 812.168 397.19C811.894 396.87 811.521 396.71 811.048 396.71C810.574 396.71 810.201 396.87 809.928 397.19C809.654 397.51 809.518 397.96 809.518 398.54C809.518 399.12 809.654 399.573 809.928 399.9C810.208 400.227 810.581 400.39 811.048 400.39ZM816.13 401L814.05 396.1H814.96L816.63 400.26H816.48L818.17 396.1H819.04L816.95 401H816.13ZM822.234 401.09C821.701 401.09 821.241 400.99 820.854 400.79C820.467 400.583 820.171 400.29 819.964 399.91C819.757 399.53 819.654 399.077 819.654 398.55C819.654 398.05 819.751 397.61 819.944 397.23C820.144 396.85 820.424 396.553 820.784 396.34C821.144 396.12 821.564 396.01 822.044 396.01C822.511 396.01 822.904 396.11 823.224 396.31C823.551 396.51 823.801 396.793 823.974 397.16C824.147 397.52 824.234 397.953 824.234 398.46V398.76H820.294V398.18H823.674L823.504 398.34C823.504 397.807 823.381 397.393 823.134 397.1C822.887 396.8 822.527 396.65 822.054 396.65C821.727 396.65 821.444 396.727 821.204 396.88C820.971 397.027 820.791 397.237 820.664 397.51C820.537 397.777 820.474 398.093 820.474 398.46V398.54C820.474 398.947 820.541 399.287 820.674 399.56C820.814 399.833 821.017 400.043 821.284 400.19C821.551 400.33 821.871 400.4 822.244 400.4C822.524 400.4 822.801 400.36 823.074 400.28C823.347 400.193 823.607 400.05 823.854 399.85L824.144 400.45C823.904 400.657 823.611 400.817 823.264 400.93C822.924 401.037 822.581 401.09 822.234 401.09ZM825.54 401V396.1H826.34V397.24H826.3C826.413 396.86 826.613 396.57 826.9 396.37C827.193 396.163 827.563 396.043 828.01 396.01L828.38 395.98L828.46 396.74L827.84 396.8C827.38 396.84 827.023 396.99 826.77 397.25C826.523 397.503 826.4 397.837 826.4 398.25V401H825.54ZM831.648 401.09C831.115 401.09 830.655 400.99 830.268 400.79C829.881 400.583 829.585 400.29 829.378 399.91C829.171 399.53 829.068 399.077 829.068 398.55C829.068 398.05 829.165 397.61 829.358 397.23C829.558 396.85 829.838 396.553 830.198 396.34C830.558 396.12 830.978 396.01 831.458 396.01C831.925 396.01 832.318 396.11 832.638 396.31C832.965 396.51 833.215 396.793 833.388 397.16C833.561 397.52 833.648 397.953 833.648 398.46V398.76H829.708V398.18H833.088L832.918 398.34C832.918 397.807 832.795 397.393 832.548 397.1C832.301 396.8 831.941 396.65 831.468 396.65C831.141 396.65 830.858 396.727 830.618 396.88C830.385 397.027 830.205 397.237 830.078 397.51C829.951 397.777 829.888 398.093 829.888 398.46V398.54C829.888 398.947 829.955 399.287 830.088 399.56C830.228 399.833 830.431 400.043 830.698 400.19C830.965 400.33 831.285 400.4 831.658 400.4C831.938 400.4 832.215 400.36 832.488 400.28C832.761 400.193 833.021 400.05 833.268 399.85L833.558 400.45C833.318 400.657 833.025 400.817 832.678 400.93C832.338 401.037 831.995 401.09 831.648 401.09ZM836.874 401.09C836.427 401.09 836.037 400.987 835.704 400.78C835.37 400.567 835.114 400.27 834.934 399.89C834.754 399.503 834.664 399.057 834.664 398.55C834.664 398.03 834.754 397.583 834.934 397.21C835.114 396.83 835.367 396.537 835.694 396.33C836.027 396.117 836.417 396.01 836.864 396.01C837.297 396.01 837.667 396.117 837.974 396.33C838.287 396.537 838.504 396.82 838.624 397.18H838.564V393.95H839.414V401H838.614V399.88H838.654C838.534 400.253 838.314 400.55 837.994 400.77C837.68 400.983 837.307 401.09 836.874 401.09ZM837.044 400.4C837.517 400.4 837.89 400.237 838.164 399.91C838.444 399.583 838.584 399.13 838.584 398.55C838.584 397.963 838.444 397.51 838.164 397.19C837.89 396.863 837.52 396.7 837.054 396.7C836.58 396.7 836.204 396.863 835.924 397.19C835.65 397.51 835.514 397.963 835.514 398.55C835.514 399.13 835.65 399.583 835.924 399.91C836.204 400.237 836.577 400.4 837.044 400.4ZM844.953 401L843.193 396.1H844.063L845.473 400.24H845.323L846.833 396.1H847.553L849.043 400.24H848.903L850.323 396.1H851.173L849.393 401H848.593L847.043 396.77H847.313L845.763 401H844.953ZM852.149 394.9V393.95H853.189V394.9H852.149ZM852.249 401V396.1H853.099V401H852.249ZM856.769 401.09C856.182 401.09 855.742 400.937 855.449 400.63C855.155 400.317 855.009 399.873 855.009 399.3V396.78H854.029V396.1H855.029V394.62H855.859V396.1H857.519V396.78H855.859V399.22C855.859 399.6 855.939 399.887 856.099 400.08C856.265 400.267 856.529 400.36 856.889 400.36C857.009 400.36 857.129 400.347 857.249 400.32C857.369 400.293 857.479 400.26 857.579 400.22L857.729 400.88C857.615 400.94 857.469 400.99 857.289 401.03C857.115 401.07 856.942 401.09 856.769 401.09ZM858.587 401V393.95H859.427V397.16H859.357C859.503 396.793 859.733 396.51 860.047 396.31C860.367 396.11 860.73 396.01 861.137 396.01C861.537 396.01 861.867 396.083 862.127 396.23C862.393 396.37 862.593 396.587 862.727 396.88C862.86 397.167 862.927 397.527 862.927 397.96V401H862.077V398.01C862.077 397.73 862.037 397.493 861.957 397.3C861.883 397.107 861.763 396.963 861.597 396.87C861.43 396.77 861.213 396.72 860.947 396.72C860.647 396.72 860.383 396.787 860.157 396.92C859.93 397.047 859.753 397.223 859.627 397.45C859.5 397.677 859.437 397.937 859.437 398.23V401H858.587ZM870.569 401.09C869.823 401.09 869.189 400.947 868.669 400.66C868.149 400.373 867.753 399.96 867.479 399.42C867.213 398.88 867.079 398.233 867.079 397.48C867.079 396.727 867.213 396.08 867.479 395.54C867.753 395 868.139 394.587 868.639 394.3C869.146 394.007 869.749 393.86 870.449 393.86C870.789 393.86 871.113 393.893 871.419 393.96C871.726 394.027 872.009 394.127 872.269 394.26C872.529 394.387 872.756 394.547 872.949 394.74L872.619 395.42C872.306 395.14 871.973 394.94 871.619 394.82C871.273 394.7 870.883 394.64 870.449 394.64C869.656 394.64 869.046 394.883 868.619 395.37C868.193 395.857 867.979 396.56 867.979 397.48C867.979 398.42 868.199 399.13 868.639 399.61C869.079 400.09 869.729 400.33 870.589 400.33C870.936 400.33 871.266 400.3 871.579 400.24C871.899 400.173 872.193 400.087 872.459 399.98L872.249 400.47V398H870.469V397.29H873.009V400.59C872.823 400.683 872.593 400.77 872.319 400.85C872.046 400.923 871.756 400.98 871.449 401.02C871.149 401.067 870.856 401.09 870.569 401.09ZM874.71 401V396.1H875.51V397.24H875.47C875.583 396.86 875.783 396.57 876.07 396.37C876.363 396.163 876.733 396.043 877.18 396.01L877.55 395.98L877.63 396.74L877.01 396.8C876.55 396.84 876.193 396.99 875.94 397.25C875.693 397.503 875.57 397.837 875.57 398.25V401H874.71ZM880.618 401.09C880.131 401.09 879.708 400.987 879.348 400.78C878.995 400.567 878.721 400.27 878.528 399.89C878.335 399.51 878.238 399.06 878.238 398.54C878.238 398.027 878.335 397.583 878.528 397.21C878.721 396.83 878.995 396.537 879.348 396.33C879.708 396.117 880.131 396.01 880.618 396.01C881.105 396.01 881.525 396.117 881.878 396.33C882.238 396.537 882.515 396.83 882.708 397.21C882.901 397.583 882.998 398.027 882.998 398.54C882.998 399.06 882.901 399.51 882.708 399.89C882.515 400.27 882.238 400.567 881.878 400.78C881.525 400.987 881.105 401.09 880.618 401.09ZM880.618 400.39C881.091 400.39 881.465 400.227 881.738 399.9C882.011 399.573 882.148 399.12 882.148 398.54C882.148 397.96 882.011 397.51 881.738 397.19C881.465 396.87 881.091 396.71 880.618 396.71C880.145 396.71 879.771 396.87 879.498 397.19C879.225 397.51 879.088 397.96 879.088 398.54C879.088 399.12 879.225 399.573 879.498 399.9C879.778 400.227 880.151 400.39 880.618 400.39ZM885.49 401L883.73 396.1H884.6L886.01 400.24H885.86L887.37 396.1H888.09L889.58 400.24H889.44L890.86 396.1H891.71L889.93 401H889.13L887.58 396.77H887.85L886.3 401H885.49ZM894.45 401L892.37 396.1H893.28L894.95 400.26H894.8L896.49 396.1H897.36L895.27 401H894.45ZM900.554 401.09C900.021 401.09 899.561 400.99 899.174 400.79C898.788 400.583 898.491 400.29 898.284 399.91C898.078 399.53 897.974 399.077 897.974 398.55C897.974 398.05 898.071 397.61 898.264 397.23C898.464 396.85 898.744 396.553 899.104 396.34C899.464 396.12 899.884 396.01 900.364 396.01C900.831 396.01 901.224 396.11 901.544 396.31C901.871 396.51 902.121 396.793 902.294 397.16C902.468 397.52 902.554 397.953 902.554 398.46V398.76H898.614V398.18H901.994L901.824 398.34C901.824 397.807 901.701 397.393 901.454 397.1C901.208 396.8 900.848 396.65 900.374 396.65C900.048 396.65 899.764 396.727 899.524 396.88C899.291 397.027 899.111 397.237 898.984 397.51C898.858 397.777 898.794 398.093 898.794 398.46V398.54C898.794 398.947 898.861 399.287 898.994 399.56C899.134 399.833 899.338 400.043 899.604 400.19C899.871 400.33 900.191 400.4 900.564 400.4C900.844 400.4 901.121 400.36 901.394 400.28C901.668 400.193 901.928 400.05 902.174 399.85L902.464 400.45C902.224 400.657 901.931 400.817 901.584 400.93C901.244 401.037 900.901 401.09 900.554 401.09Z" fill="#8D8A94"/>
<path d="M827.944 144L825.56 140.416C825.421 140.192 825.272 140.011 825.112 139.872C824.963 139.733 824.792 139.637 824.6 139.584C824.419 139.52 824.2 139.488 823.944 139.488H821.672V137.872H824.808C825.32 137.872 825.741 137.813 826.072 137.696C826.403 137.568 826.659 137.376 826.84 137.12C827.032 136.864 827.155 136.539 827.208 136.144L827.48 136.624H821.672V135.216H827.48L827.176 135.664C827.091 135.152 826.861 134.768 826.488 134.512C826.115 134.256 825.581 134.128 824.888 134.128H821.672V132.72H830.616V134.128H827.752L827.944 133.68C828.307 133.872 828.589 134.128 828.792 134.448C828.995 134.757 829.117 135.12 829.16 135.536L828.792 135.216H830.616V136.624H828.84L829.192 136.048C829.203 136.731 829.053 137.323 828.744 137.824C828.435 138.325 827.992 138.715 827.416 138.992C826.851 139.259 826.168 139.392 825.368 139.392V139.232H825.816C826.136 139.232 826.424 139.275 826.68 139.36C826.936 139.435 827.176 139.568 827.4 139.76C827.624 139.941 827.837 140.187 828.04 140.496L830.408 144H827.944ZM832.674 144V142.304H835.218V134.448H836.21L833.25 136.24L832.45 134.736L835.81 132.72H837.266V142.304H839.65V144H832.674ZM845.323 144.16C844.438 144.16 843.686 143.936 843.067 143.488C842.459 143.029 841.995 142.368 841.675 141.504C841.366 140.64 841.211 139.584 841.211 138.336C841.211 137.077 841.366 136.021 841.675 135.168C841.995 134.304 842.459 133.653 843.067 133.216C843.686 132.779 844.438 132.56 845.323 132.56C846.219 132.56 846.971 132.779 847.579 133.216C848.198 133.653 848.662 134.299 848.971 135.152C849.281 136.005 849.435 137.061 849.435 138.32C849.435 139.568 849.275 140.629 848.955 141.504C848.646 142.368 848.187 143.029 847.579 143.488C846.971 143.936 846.219 144.16 845.323 144.16ZM845.323 142.48C846.049 142.48 846.582 142.149 846.923 141.488C847.275 140.816 847.451 139.76 847.451 138.32C847.451 136.891 847.275 135.856 846.923 135.216C846.582 134.565 846.049 134.24 845.323 134.24C844.609 134.24 844.075 134.565 843.723 135.216C843.371 135.856 843.195 136.896 843.195 138.336C843.195 139.765 843.371 140.816 843.723 141.488C844.075 142.149 844.609 142.48 845.323 142.48ZM850.981 144V141.776H853.221V144H850.981ZM858.886 144.16C857.574 144.16 856.545 143.877 855.798 143.312C855.062 142.747 854.694 141.963 854.694 140.96C854.694 140.427 854.801 139.957 855.014 139.552C855.238 139.136 855.542 138.8 855.926 138.544C856.31 138.288 856.747 138.128 857.238 138.064V138.4C856.79 138.304 856.395 138.128 856.054 137.872C855.713 137.605 855.446 137.28 855.254 136.896C855.073 136.501 854.982 136.069 854.982 135.6C854.982 134.651 855.334 133.909 856.038 133.376C856.742 132.832 857.697 132.56 858.902 132.56C860.097 132.56 861.046 132.832 861.75 133.376C862.454 133.909 862.806 134.651 862.806 135.6C862.806 136.069 862.71 136.501 862.518 136.896C862.337 137.291 862.075 137.616 861.734 137.872C861.403 138.128 861.014 138.299 860.566 138.384V138.064C861.067 138.128 861.505 138.293 861.878 138.56C862.251 138.816 862.545 139.152 862.758 139.568C862.971 139.973 863.078 140.437 863.078 140.96C863.078 141.963 862.705 142.747 861.958 143.312C861.222 143.877 860.198 144.16 858.886 144.16ZM858.886 142.56C859.643 142.56 860.214 142.416 860.598 142.128C860.982 141.829 861.174 141.392 861.174 140.816C861.174 140.24 860.982 139.808 860.598 139.52C860.214 139.232 859.643 139.088 858.886 139.088C858.139 139.088 857.569 139.232 857.174 139.52C856.79 139.808 856.598 140.24 856.598 140.816C856.598 141.392 856.79 141.829 857.174 142.128C857.569 142.416 858.139 142.56 858.886 142.56ZM858.886 137.488C859.515 137.488 860.006 137.339 860.358 137.04C860.721 136.741 860.902 136.331 860.902 135.808C860.902 135.296 860.721 134.896 860.358 134.608C860.006 134.309 859.515 134.16 858.886 134.16C858.257 134.16 857.766 134.309 857.414 134.608C857.062 134.896 856.886 135.301 856.886 135.824C856.886 136.336 857.062 136.741 857.414 137.04C857.766 137.339 858.257 137.488 858.886 137.488ZM864.912 144V132.72H866.96V142.256H872.368V144H864.912Z" fill="black"/>
<defs>
<linearGradient id="paint0_linear_7398_31195" x1="205" y1="312.75" x2="205" y2="354.247" gradientUnits="userSpaceOnUse">
<stop stop-color="#808080" stop-opacity="0.2"/>
<stop offset="1" stop-color="#808080" stop-opacity="0"/>
</linearGradient>
<linearGradient id="paint1_linear_7398_31195" x1="419" y1="262.75" x2="419" y2="354.247" gradientUnits="userSpaceOnUse">
<stop stop-color="#808080" stop-opacity="0.2"/>
<stop offset="1" stop-color="#808080" stop-opacity="0"/>
</linearGradient>
<linearGradient id="paint2_linear_7398_31195" x1="633" y1="195.75" x2="633" y2="354.247" gradientUnits="userSpaceOnUse">
<stop stop-color="#808080" stop-opacity="0.2"/>
<stop offset="1" stop-color="#808080" stop-opacity="0"/>
</linearGradient>
<linearGradient id="paint3_linear_7398_31195" x1="847" y1="162.75" x2="847" y2="354.247" gradientUnits="userSpaceOnUse">
<stop stop-color="#FBC942"/>
<stop offset="1" stop-color="#FBC942" stop-opacity="0"/>
</linearGradient>
</defs>
</svg>
