<svg width="298" height="124" viewBox="0 0 298 124" fill="none" xmlns="http://www.w3.org/2000/svg">
<g id="Card Shipment">
<rect width="298" height="124" rx="12" fill="white"/>
<g id="Body">
<g id="Frame 1707480568">
<g id="Frame 2147223150">
<g id="Info Origin">
<g id="Main">
<path id="Time" d="M19.02 30L19.44 27.876H18.468V27.048H19.596L20.112 24.396H18.72V23.568H20.256L20.664 21.54H21.552L21.144 23.568H22.872L23.28 21.54H24.168L23.76 23.568H24.732V24.396H23.604L23.088 27.048H24.48V27.876H22.944L22.524 30H21.636L22.056 27.876H20.328L19.908 30H19.02ZM20.484 27.048H22.2L22.716 24.396H21L20.484 27.048ZM30.1393 30.108C29.2193 30.108 28.4433 29.936 27.8113 29.592C27.1793 29.24 26.6993 28.74 26.3713 28.092C26.0513 27.444 25.8913 26.672 25.8913 25.776C25.8913 24.88 26.0553 24.108 26.3833 23.46C26.7193 22.812 27.1953 22.312 27.8113 21.96C28.4353 21.608 29.1833 21.432 30.0553 21.432C30.4553 21.432 30.8353 21.472 31.1953 21.552C31.5553 21.624 31.8873 21.736 32.1913 21.888C32.5033 22.04 32.7753 22.228 33.0073 22.452L32.5633 23.424C32.1873 23.104 31.7953 22.876 31.3873 22.74C30.9873 22.596 30.5433 22.524 30.0553 22.524C29.1193 22.524 28.4073 22.808 27.9193 23.376C27.4313 23.936 27.1873 24.736 27.1873 25.776C27.1873 26.84 27.4393 27.648 27.9433 28.2C28.4473 28.752 29.1953 29.028 30.1873 29.028C30.5473 29.028 30.8993 28.996 31.2433 28.932C31.5953 28.86 31.9313 28.76 32.2513 28.632L31.9993 29.256V26.46H29.9353V25.524H33.0433V29.508C32.8113 29.628 32.5313 29.732 32.2033 29.82C31.8833 29.908 31.5433 29.976 31.1833 30.024C30.8313 30.08 30.4833 30.108 30.1393 30.108ZM34.9567 30V21.54H38.4607C39.3727 21.54 40.0767 21.756 40.5727 22.188C41.0687 22.62 41.3167 23.232 41.3167 24.024C41.3167 24.536 41.2047 24.976 40.9807 25.344C40.7567 25.712 40.4287 25.992 39.9967 26.184C39.5727 26.376 39.0607 26.472 38.4607 26.472L38.5687 26.304H38.8807C39.2007 26.304 39.4767 26.384 39.7087 26.544C39.9487 26.704 40.1647 26.96 40.3567 27.312L41.8207 30H40.4527L38.9887 27.3C38.8767 27.092 38.7527 26.932 38.6167 26.82C38.4887 26.7 38.3367 26.62 38.1607 26.58C37.9927 26.532 37.7927 26.508 37.5607 26.508H36.2047V30H34.9567ZM36.2047 25.572H38.2567C38.8647 25.572 39.3247 25.444 39.6367 25.188C39.9487 24.932 40.1047 24.552 40.1047 24.048C40.1047 23.552 39.9487 23.176 39.6367 22.92C39.3247 22.664 38.8647 22.536 38.2567 22.536H36.2047V25.572ZM45.6131 30L41.8811 21.54H43.2131L46.4051 28.944H45.9611L49.1411 21.54H50.4131L46.6811 30H45.6131ZM50.6095 27.288V26.304H54.0655V27.288H50.6095ZM58.6461 30.108C58.2781 30.108 57.9181 30.068 57.5661 29.988C57.2221 29.908 56.8981 29.796 56.5941 29.652C56.2901 29.508 56.0261 29.332 55.8021 29.124L56.2221 28.164C56.6061 28.468 56.9941 28.692 57.3861 28.836C57.7781 28.98 58.1901 29.052 58.6221 29.052C59.1741 29.052 59.6061 28.904 59.9181 28.608C60.2301 28.312 60.3861 27.916 60.3861 27.42C60.3861 26.916 60.2381 26.504 59.9421 26.184C59.6461 25.864 59.2341 25.704 58.7061 25.704C58.3301 25.704 57.9941 25.78 57.6981 25.932C57.4101 26.084 57.1501 26.316 56.9181 26.628H56.0541V21.54H61.0941V22.584H57.2661V25.632H56.9301C57.1461 25.328 57.4301 25.092 57.7821 24.924C58.1421 24.756 58.5381 24.672 58.9701 24.672C59.5061 24.672 59.9701 24.784 60.3621 25.008C60.7541 25.232 61.0581 25.548 61.2741 25.956C61.4901 26.356 61.5981 26.824 61.5981 27.36C61.5981 27.904 61.4781 28.384 61.2381 28.8C60.9981 29.208 60.6581 29.528 60.2181 29.76C59.7781 29.992 59.2541 30.108 58.6461 30.108ZM65.7094 30.108C65.0534 30.108 64.5014 29.94 64.0534 29.604C63.6054 29.268 63.2654 28.78 63.0334 28.14C62.8014 27.492 62.6854 26.7 62.6854 25.764C62.6854 24.812 62.8014 24.016 63.0334 23.376C63.2654 22.736 63.6054 22.252 64.0534 21.924C64.5014 21.596 65.0534 21.432 65.7094 21.432C66.3734 21.432 66.9294 21.596 67.3774 21.924C67.8254 22.244 68.1614 22.724 68.3854 23.364C68.6174 24.004 68.7334 24.8 68.7334 25.752C68.7334 26.688 68.6174 27.48 68.3854 28.128C68.1534 28.776 67.8134 29.268 67.3654 29.604C66.9174 29.94 66.3654 30.108 65.7094 30.108ZM65.7094 29.076C66.3254 29.076 66.7774 28.808 67.0654 28.272C67.3614 27.736 67.5094 26.896 67.5094 25.752C67.5094 24.608 67.3614 23.776 67.0654 23.256C66.7774 22.728 66.3254 22.464 65.7094 22.464C65.1014 22.464 64.6494 22.728 64.3534 23.256C64.0574 23.776 63.9094 24.608 63.9094 25.752C63.9094 26.896 64.0574 27.736 64.3534 28.272C64.6494 28.808 65.1014 29.076 65.7094 29.076ZM72.2927 30.108C72.0047 30.108 71.7087 30.072 71.4047 30C71.1087 29.92 70.8287 29.804 70.5647 29.652C70.3007 29.5 70.0687 29.324 69.8687 29.124L70.3007 28.176C70.5967 28.464 70.9167 28.684 71.2607 28.836C71.6047 28.98 71.9527 29.052 72.3047 29.052C72.6807 29.052 73.0127 28.984 73.3007 28.848C73.5887 28.712 73.8287 28.508 74.0207 28.236C74.2207 27.964 74.3687 27.628 74.4647 27.228C74.5687 26.82 74.6207 26.352 74.6207 25.824V24.804H74.7407C74.6847 25.228 74.5487 25.6 74.3327 25.92C74.1247 26.24 73.8527 26.484 73.5167 26.652C73.1887 26.82 72.8167 26.904 72.4007 26.904C71.9127 26.904 71.4767 26.788 71.0927 26.556C70.7167 26.324 70.4167 26.004 70.1927 25.596C69.9767 25.188 69.8687 24.728 69.8687 24.216C69.8687 23.672 69.9847 23.192 70.2167 22.776C70.4567 22.352 70.7807 22.024 71.1887 21.792C71.5967 21.552 72.0687 21.432 72.6047 21.432C73.2927 21.432 73.8727 21.596 74.3447 21.924C74.8167 22.244 75.1767 22.716 75.4247 23.34C75.6807 23.964 75.8087 24.712 75.8087 25.584C75.8087 26.552 75.6687 27.372 75.3887 28.044C75.1087 28.716 74.7087 29.228 74.1887 29.58C73.6687 29.932 73.0367 30.108 72.2927 30.108ZM72.6887 25.884C73.0087 25.884 73.2927 25.812 73.5407 25.668C73.7887 25.524 73.9807 25.324 74.1167 25.068C74.2607 24.804 74.3327 24.5 74.3327 24.156C74.3327 23.82 74.2607 23.524 74.1167 23.268C73.9807 23.004 73.7887 22.8 73.5407 22.656C73.2927 22.504 73.0087 22.428 72.6887 22.428C72.3607 22.428 72.0727 22.504 71.8247 22.656C71.5847 22.8 71.3927 23.004 71.2487 23.268C71.1127 23.524 71.0447 23.82 71.0447 24.156C71.0447 24.5 71.1127 24.804 71.2487 25.068C71.3927 25.324 71.5847 25.524 71.8247 25.668C72.0727 25.812 72.3607 25.884 72.6887 25.884ZM80.1 30.108C79.132 30.108 78.376 29.9 77.832 29.484C77.296 29.068 77.028 28.488 77.028 27.744C77.028 27.344 77.108 26.992 77.268 26.688C77.428 26.376 77.652 26.124 77.94 25.932C78.228 25.74 78.56 25.62 78.936 25.572V25.788C78.592 25.716 78.292 25.584 78.036 25.392C77.78 25.192 77.58 24.948 77.436 24.66C77.3 24.364 77.232 24.04 77.232 23.688C77.232 22.984 77.492 22.432 78.012 22.032C78.532 21.632 79.228 21.432 80.1 21.432C80.98 21.432 81.68 21.632 82.2 22.032C82.72 22.432 82.98 22.984 82.98 23.688C82.98 24.04 82.908 24.364 82.764 24.66C82.628 24.948 82.432 25.192 82.176 25.392C81.92 25.584 81.62 25.712 81.276 25.776V25.572C81.66 25.62 81.992 25.744 82.272 25.944C82.552 26.136 82.772 26.384 82.932 26.688C83.092 26.992 83.172 27.344 83.172 27.744C83.172 28.488 82.9 29.068 82.356 29.484C81.82 29.9 81.068 30.108 80.1 30.108ZM80.1 29.124C80.732 29.124 81.208 29.004 81.528 28.764C81.848 28.516 82.008 28.148 82.008 27.66C82.008 27.172 81.848 26.808 81.528 26.568C81.208 26.328 80.732 26.208 80.1 26.208C79.476 26.208 79 26.328 78.672 26.568C78.352 26.808 78.192 27.172 78.192 27.66C78.192 28.148 78.352 28.516 78.672 28.764C79 29.004 79.476 29.124 80.1 29.124ZM80.1 25.224C80.636 25.224 81.052 25.1 81.348 24.852C81.652 24.596 81.804 24.248 81.804 23.808C81.804 23.376 81.652 23.036 81.348 22.788C81.052 22.54 80.636 22.416 80.1 22.416C79.564 22.416 79.148 22.54 78.852 22.788C78.556 23.036 78.408 23.376 78.408 23.808C78.408 24.248 78.556 24.596 78.852 24.852C79.148 25.1 79.564 25.224 80.1 25.224ZM87.2953 30.108C86.3273 30.108 85.5713 29.9 85.0273 29.484C84.4913 29.068 84.2233 28.488 84.2233 27.744C84.2233 27.344 84.3033 26.992 84.4633 26.688C84.6233 26.376 84.8473 26.124 85.1353 25.932C85.4233 25.74 85.7553 25.62 86.1313 25.572V25.788C85.7873 25.716 85.4873 25.584 85.2313 25.392C84.9753 25.192 84.7753 24.948 84.6313 24.66C84.4953 24.364 84.4273 24.04 84.4273 23.688C84.4273 22.984 84.6873 22.432 85.2073 22.032C85.7273 21.632 86.4233 21.432 87.2953 21.432C88.1753 21.432 88.8753 21.632 89.3953 22.032C89.9153 22.432 90.1753 22.984 90.1753 23.688C90.1753 24.04 90.1033 24.364 89.9593 24.66C89.8233 24.948 89.6273 25.192 89.3713 25.392C89.1153 25.584 88.8153 25.712 88.4713 25.776V25.572C88.8553 25.62 89.1873 25.744 89.4673 25.944C89.7473 26.136 89.9673 26.384 90.1273 26.688C90.2873 26.992 90.3673 27.344 90.3673 27.744C90.3673 28.488 90.0953 29.068 89.5513 29.484C89.0153 29.9 88.2633 30.108 87.2953 30.108ZM87.2953 29.124C87.9273 29.124 88.4033 29.004 88.7233 28.764C89.0433 28.516 89.2033 28.148 89.2033 27.66C89.2033 27.172 89.0433 26.808 88.7233 26.568C88.4033 26.328 87.9273 26.208 87.2953 26.208C86.6713 26.208 86.1953 26.328 85.8673 26.568C85.5473 26.808 85.3873 27.172 85.3873 27.66C85.3873 28.148 85.5473 28.516 85.8673 28.764C86.1953 29.004 86.6713 29.124 87.2953 29.124ZM87.2953 25.224C87.8313 25.224 88.2473 25.1 88.5433 24.852C88.8473 24.596 88.9993 24.248 88.9993 23.808C88.9993 23.376 88.8473 23.036 88.5433 22.788C88.2473 22.54 87.8313 22.416 87.2953 22.416C86.7593 22.416 86.3433 22.54 86.0473 22.788C85.7513 23.036 85.6033 23.376 85.6033 23.808C85.6033 24.248 85.7513 24.596 86.0473 24.852C86.3433 25.1 86.7593 25.224 87.2953 25.224Z" fill="#444050"/>
<g id="Cell-Status">
<g id="Badge-status-shipment">
<rect x="198" y="16" width="82" height="20" rx="10" fill="#EBEBED"/>
<path id="Label" d="M210.081 30.099C209.04 30.099 208.248 29.8313 207.705 29.296C207.162 28.7533 206.891 27.954 206.891 26.898V22.245H208.046V26.865C208.046 27.613 208.218 28.1703 208.563 28.537C208.908 28.9037 209.414 29.087 210.081 29.087C210.741 29.087 211.243 28.9037 211.588 28.537C211.933 28.1703 212.105 27.613 212.105 26.865V22.245H213.249V26.898C213.249 27.9467 212.978 28.7423 212.435 29.285C211.9 29.8277 211.115 30.099 210.081 30.099ZM214.957 30V24.61H216.046V25.754H215.958C216.119 25.3507 216.372 25.0427 216.717 24.83C217.069 24.6173 217.465 24.511 217.905 24.511C218.345 24.511 218.708 24.5917 218.994 24.753C219.28 24.907 219.492 25.1453 219.632 25.468C219.771 25.7907 219.841 26.1977 219.841 26.689V30H218.708V26.755C218.708 26.4543 218.667 26.2087 218.587 26.018C218.513 25.82 218.392 25.6733 218.224 25.578C218.062 25.4753 217.853 25.424 217.597 25.424C217.296 25.424 217.032 25.49 216.805 25.622C216.577 25.754 216.401 25.9373 216.277 26.172C216.152 26.3993 216.09 26.6633 216.09 26.964V30H214.957ZM223.843 30.099C223.293 30.099 222.813 29.9853 222.402 29.758C221.999 29.5233 221.687 29.1933 221.467 28.768C221.247 28.3427 221.137 27.8477 221.137 27.283C221.137 26.711 221.247 26.2197 221.467 25.809C221.687 25.391 221.999 25.072 222.402 24.852C222.813 24.6247 223.297 24.511 223.854 24.511C224.199 24.511 224.536 24.5697 224.866 24.687C225.203 24.8043 225.482 24.9657 225.702 25.171L225.339 25.985C225.134 25.7943 224.906 25.655 224.657 25.567C224.408 25.4717 224.169 25.424 223.942 25.424C223.414 25.424 223.007 25.5853 222.721 25.908C222.435 26.2307 222.292 26.6927 222.292 27.294C222.292 27.888 222.435 28.3537 222.721 28.691C223.007 29.021 223.414 29.186 223.942 29.186C224.169 29.186 224.408 29.142 224.657 29.054C224.906 28.9587 225.13 28.8193 225.328 28.636L225.691 29.45C225.478 29.648 225.203 29.8057 224.866 29.923C224.529 30.0403 224.188 30.099 223.843 30.099ZM228.955 30.099C228.413 30.099 227.94 29.9853 227.536 29.758C227.14 29.5307 226.832 29.208 226.612 28.79C226.392 28.3647 226.282 27.8697 226.282 27.305C226.282 26.733 226.392 26.238 226.612 25.82C226.832 25.402 227.14 25.0793 227.536 24.852C227.94 24.6247 228.413 24.511 228.955 24.511C229.498 24.511 229.967 24.6247 230.363 24.852C230.767 25.0793 231.078 25.402 231.298 25.82C231.518 26.238 231.628 26.733 231.628 27.305C231.628 27.8697 231.518 28.3647 231.298 28.79C231.078 29.208 230.767 29.5307 230.363 29.758C229.967 29.9853 229.498 30.099 228.955 30.099ZM228.955 29.208C229.425 29.208 229.799 29.043 230.077 28.713C230.356 28.383 230.495 27.91 230.495 27.294C230.495 26.6853 230.356 26.2197 230.077 25.897C229.799 25.5743 229.425 25.413 228.955 25.413C228.486 25.413 228.112 25.5743 227.833 25.897C227.555 26.2197 227.415 26.6853 227.415 27.294C227.415 27.91 227.555 28.383 227.833 28.713C228.112 29.043 228.486 29.208 228.955 29.208ZM232.95 30V24.61H234.039V25.754H233.951C234.112 25.3507 234.365 25.0427 234.71 24.83C235.062 24.6173 235.458 24.511 235.898 24.511C236.338 24.511 236.701 24.5917 236.987 24.753C237.273 24.907 237.485 25.1453 237.625 25.468C237.764 25.7907 237.834 26.1977 237.834 26.689V30H236.701V26.755C236.701 26.4543 236.66 26.2087 236.58 26.018C236.506 25.82 236.385 25.6733 236.217 25.578C236.055 25.4753 235.846 25.424 235.59 25.424C235.289 25.424 235.025 25.49 234.798 25.622C234.57 25.754 234.394 25.9373 234.27 26.172C234.145 26.3993 234.083 26.6633 234.083 26.964V30H232.95ZM239.768 30V25.479H238.712V24.61H240.076L239.768 24.907V24.522C239.768 23.7887 239.959 23.235 240.34 22.861C240.729 22.487 241.315 22.2743 242.1 22.223L242.562 22.201L242.628 23.07L242.144 23.103C241.858 23.1103 241.623 23.1653 241.44 23.268C241.257 23.3633 241.121 23.5027 241.033 23.686C240.945 23.862 240.901 24.0893 240.901 24.368V24.753L240.857 24.61H244.399V30H243.255V25.479H240.901V30H239.768ZM243.178 23.367V22.201H244.476V23.367H243.178ZM246.002 30V24.61H247.091V25.897H247.003C247.127 25.4643 247.344 25.1343 247.652 24.907C247.96 24.6797 248.359 24.5477 248.851 24.511L249.258 24.478L249.346 25.468L248.62 25.534C248.143 25.578 247.776 25.732 247.52 25.996C247.27 26.2527 247.146 26.601 247.146 27.041V30H246.002ZM250.288 30V24.61H251.377V25.765H251.289C251.384 25.501 251.516 25.2773 251.685 25.094C251.854 24.9107 252.059 24.7677 252.301 24.665C252.543 24.5623 252.807 24.511 253.093 24.511C253.54 24.511 253.907 24.621 254.193 24.841C254.479 25.0537 254.673 25.3727 254.776 25.798H254.655C254.794 25.4093 255.029 25.0977 255.359 24.863C255.696 24.6283 256.092 24.511 256.547 24.511C256.958 24.511 257.299 24.5917 257.57 24.753C257.841 24.907 258.043 25.1453 258.175 25.468C258.314 25.7907 258.384 26.1977 258.384 26.689V30H257.251V26.744C257.251 26.2967 257.174 25.9667 257.02 25.754C256.866 25.534 256.602 25.424 256.228 25.424C255.957 25.424 255.718 25.49 255.513 25.622C255.315 25.7467 255.161 25.9263 255.051 26.161C254.948 26.3957 254.897 26.6743 254.897 26.997V30H253.764V26.744C253.764 26.2967 253.683 25.9667 253.522 25.754C253.368 25.534 253.111 25.424 252.752 25.424C252.473 25.424 252.235 25.49 252.037 25.622C251.839 25.754 251.685 25.9373 251.575 26.172C251.472 26.4067 251.421 26.678 251.421 26.986V30H250.288ZM262.573 30.099C261.979 30.099 261.465 29.989 261.033 29.769C260.6 29.5417 260.266 29.219 260.032 28.801C259.804 28.383 259.691 27.888 259.691 27.316C259.691 26.7587 259.801 26.271 260.021 25.853C260.248 25.435 260.56 25.1087 260.956 24.874C261.359 24.632 261.825 24.511 262.353 24.511C262.859 24.511 263.291 24.621 263.651 24.841C264.01 25.061 264.289 25.3727 264.487 25.776C264.685 26.172 264.784 26.6487 264.784 27.206V27.58H260.571V26.876H264.003L263.827 27.041C263.827 26.491 263.702 26.0693 263.453 25.776C263.203 25.4753 262.848 25.325 262.386 25.325C262.041 25.325 261.748 25.402 261.506 25.556C261.271 25.71 261.088 25.9263 260.956 26.205C260.831 26.4837 260.769 26.8173 260.769 27.206V27.283C260.769 27.7083 260.838 28.064 260.978 28.35C261.117 28.636 261.322 28.8523 261.594 28.999C261.865 29.1383 262.199 29.208 262.595 29.208C262.895 29.208 263.196 29.164 263.497 29.076C263.797 28.9807 264.08 28.8303 264.344 28.625L264.685 29.406C264.428 29.626 264.109 29.7983 263.728 29.923C263.346 30.0403 262.961 30.099 262.573 30.099ZM268.147 30.099C267.663 30.099 267.241 29.9853 266.882 29.758C266.523 29.5307 266.244 29.208 266.046 28.79C265.848 28.3647 265.749 27.8697 265.749 27.305C265.749 26.733 265.844 26.238 266.035 25.82C266.233 25.402 266.512 25.0793 266.871 24.852C267.238 24.6247 267.659 24.511 268.136 24.511C268.605 24.511 269.005 24.6247 269.335 24.852C269.672 25.0793 269.903 25.3837 270.028 25.765H269.94V22.245H271.073V30H269.984V28.801H270.061C269.936 29.2043 269.702 29.5233 269.357 29.758C269.02 29.9853 268.616 30.099 268.147 30.099ZM268.422 29.219C268.891 29.219 269.265 29.054 269.544 28.724C269.823 28.394 269.962 27.921 269.962 27.305C269.962 26.6817 269.823 26.2087 269.544 25.886C269.265 25.5633 268.891 25.402 268.422 25.402C267.953 25.402 267.579 25.5633 267.3 25.886C267.021 26.2087 266.882 26.6817 266.882 27.305C266.882 27.921 267.021 28.394 267.3 28.724C267.579 29.054 267.953 29.219 268.422 29.219Z" fill="#444050"/>
</g>
</g>
</g>
</g>
<g id="Button">
<rect x="18" y="48" width="262" height="32" rx="8" fill="#FEF2D2"/>
<g id="Text">
<path id="Label_2" d="M44.1865 62.36V61.388C44.1865 61.148 44.2105 60.92 44.2585 60.704C44.3145 60.488 44.4025 60.276 44.5225 60.068C44.6505 59.86 44.8145 59.656 45.0145 59.456L45.5545 59.876C45.4025 60.036 45.2785 60.188 45.1825 60.332C45.0945 60.476 45.0305 60.62 44.9905 60.764C44.9585 60.9 44.9425 61.044 44.9425 61.196L44.6065 60.932H45.6145V62.36H44.1865ZM46.3345 62.36V61.388C46.3345 61.148 46.3585 60.92 46.4065 60.704C46.4625 60.488 46.5505 60.276 46.6705 60.068C46.7985 59.86 46.9625 59.656 47.1625 59.456L47.7025 59.876C47.5505 60.036 47.4265 60.188 47.3305 60.332C47.2425 60.476 47.1785 60.62 47.1385 60.764C47.1065 60.9 47.0905 61.044 47.0905 61.196L46.7545 60.932H47.7625V62.36H46.3345ZM53.1881 68.108C52.3321 68.108 51.6001 67.932 50.9921 67.58C50.3841 67.228 49.9161 66.728 49.5881 66.08C49.2681 65.424 49.1081 64.652 49.1081 63.764C49.1081 62.876 49.2681 62.108 49.5881 61.46C49.9161 60.812 50.3841 60.312 50.9921 59.96C51.6001 59.608 52.3321 59.432 53.1881 59.432C53.7641 59.432 54.3001 59.524 54.7961 59.708C55.3001 59.884 55.7201 60.14 56.0561 60.476L55.6241 61.472C55.2561 61.144 54.8761 60.908 54.4841 60.764C54.1001 60.612 53.6801 60.536 53.2241 60.536C52.3121 60.536 51.6161 60.816 51.1361 61.376C50.6561 61.936 50.4161 62.732 50.4161 63.764C50.4161 64.796 50.6561 65.596 51.1361 66.164C51.6161 66.724 52.3121 67.004 53.2241 67.004C53.6801 67.004 54.1001 66.932 54.4841 66.788C54.8761 66.636 55.2561 66.396 55.6241 66.068L56.0561 67.064C55.7201 67.4 55.3001 67.66 54.7961 67.844C54.3001 68.02 53.7641 68.108 53.1881 68.108ZM59.4956 68.108C58.9036 68.108 58.3916 67.984 57.9596 67.736C57.5356 67.488 57.2036 67.136 56.9636 66.68C56.7236 66.224 56.6036 65.688 56.6036 65.072C56.6036 64.448 56.7236 63.912 56.9636 63.464C57.2036 63.008 57.5356 62.656 57.9596 62.408C58.3916 62.16 58.9036 62.036 59.4956 62.036C60.0796 62.036 60.5836 62.16 61.0076 62.408C61.4396 62.656 61.7756 63.008 62.0156 63.464C62.2556 63.92 62.3756 64.456 62.3756 65.072C62.3756 65.688 62.2556 66.224 62.0156 66.68C61.7756 67.136 61.4396 67.488 61.0076 67.736C60.5836 67.984 60.0796 68.108 59.4956 68.108ZM59.4836 67.172C59.9876 67.172 60.3916 66.992 60.6956 66.632C60.9996 66.272 61.1516 65.752 61.1516 65.072C61.1516 64.384 60.9996 63.864 60.6956 63.512C60.3916 63.16 59.9876 62.984 59.4836 62.984C58.9876 62.984 58.5876 63.16 58.2836 63.512C57.9796 63.864 57.8276 64.384 57.8276 65.072C57.8276 65.752 57.9796 66.272 58.2836 66.632C58.5876 66.992 58.9876 67.172 59.4836 67.172ZM63.7368 68V62.144H64.9128V63.392H64.7808C64.9568 62.944 65.2328 62.608 65.6088 62.384C65.9848 62.152 66.4168 62.036 66.9048 62.036C67.3688 62.036 67.7528 62.124 68.0568 62.3C68.3688 62.468 68.6008 62.728 68.7528 63.08C68.9048 63.424 68.9808 63.86 68.9808 64.388V68H67.7688V64.46C67.7688 64.124 67.7248 63.852 67.6368 63.644C67.5488 63.428 67.4168 63.268 67.2408 63.164C67.0648 63.06 66.8368 63.008 66.5568 63.008C66.2368 63.008 65.9528 63.076 65.7048 63.212C65.4648 63.348 65.2768 63.544 65.1408 63.8C65.0128 64.056 64.9488 64.352 64.9488 64.688V68H63.7368ZM70.9988 68V63.08H69.8588V62.144H71.3468L70.9988 62.468V62.036C70.9988 61.236 71.2028 60.632 71.6108 60.224C72.0268 59.808 72.6628 59.576 73.5188 59.528L73.9988 59.504L74.0708 60.416L73.5788 60.44C73.2508 60.456 72.9868 60.52 72.7868 60.632C72.5868 60.744 72.4388 60.904 72.3428 61.112C72.2548 61.312 72.2108 61.564 72.2108 61.868V62.288V62.144H75.9428V68H74.7308V63.08H72.2108V68H70.9988ZM74.6228 60.788V59.528H76.0388V60.788H74.6228ZM77.6352 68V62.144H78.8112V63.548H78.6912C78.8192 63.068 79.0472 62.704 79.3752 62.456C79.7112 62.208 80.1552 62.064 80.7072 62.024L81.1032 62L81.1872 63.032L80.4552 63.104C79.9352 63.152 79.5392 63.316 79.2672 63.596C78.9952 63.876 78.8592 64.26 78.8592 64.748V68H77.6352ZM82.1358 68V62.144H83.3118V63.392H83.1798C83.2838 63.104 83.4278 62.86 83.6118 62.66C83.7958 62.46 84.0158 62.308 84.2718 62.204C84.5358 62.092 84.8238 62.036 85.1358 62.036C85.6238 62.036 86.0198 62.152 86.3238 62.384C86.6278 62.616 86.8358 62.972 86.9478 63.452H86.7798C86.9318 63.012 87.1918 62.668 87.5598 62.42C87.9278 62.164 88.3558 62.036 88.8438 62.036C89.2918 62.036 89.6598 62.124 89.9478 62.3C90.2358 62.468 90.4518 62.728 90.5958 63.08C90.7398 63.424 90.8118 63.86 90.8118 64.388V68H89.5998V64.448C89.5998 63.952 89.5118 63.588 89.3358 63.356C89.1678 63.124 88.8878 63.008 88.4958 63.008C88.2078 63.008 87.9558 63.076 87.7398 63.212C87.5238 63.348 87.3558 63.548 87.2358 63.812C87.1238 64.068 87.0678 64.372 87.0678 64.724V68H85.8558V64.448C85.8558 63.952 85.7718 63.588 85.6038 63.356C85.4358 63.124 85.1558 63.008 84.7638 63.008C84.4678 63.008 84.2118 63.076 83.9958 63.212C83.7878 63.348 83.6278 63.548 83.5158 63.812C83.4038 64.068 83.3478 64.372 83.3478 64.724V68H82.1358ZM96.2586 70.16L97.4106 67.592V68.108L94.8546 62.144H96.1506L98.1186 67.004H97.7826L99.7746 62.144H101.023L97.5306 70.16H96.2586ZM104.332 68.108C103.74 68.108 103.228 67.984 102.796 67.736C102.372 67.488 102.04 67.136 101.8 66.68C101.56 66.224 101.44 65.688 101.44 65.072C101.44 64.448 101.56 63.912 101.8 63.464C102.04 63.008 102.372 62.656 102.796 62.408C103.228 62.16 103.74 62.036 104.332 62.036C104.916 62.036 105.42 62.16 105.844 62.408C106.276 62.656 106.612 63.008 106.852 63.464C107.092 63.92 107.212 64.456 107.212 65.072C107.212 65.688 107.092 66.224 106.852 66.68C106.612 67.136 106.276 67.488 105.844 67.736C105.42 67.984 104.916 68.108 104.332 68.108ZM104.32 67.172C104.824 67.172 105.228 66.992 105.532 66.632C105.836 66.272 105.988 65.752 105.988 65.072C105.988 64.384 105.836 63.864 105.532 63.512C105.228 63.16 104.824 62.984 104.32 62.984C103.824 62.984 103.424 63.16 103.12 63.512C102.816 63.864 102.664 64.384 102.664 65.072C102.664 65.752 102.816 66.272 103.12 66.632C103.424 66.992 103.824 67.172 104.32 67.172ZM110.661 68.108C110.189 68.108 109.793 68.02 109.473 67.844C109.161 67.668 108.925 67.408 108.765 67.064C108.613 66.712 108.537 66.272 108.537 65.744V62.144H109.749V65.756C109.749 66.068 109.789 66.328 109.869 66.536C109.957 66.744 110.089 66.896 110.265 66.992C110.449 67.088 110.677 67.136 110.949 67.136C111.253 67.136 111.521 67.068 111.753 66.932C111.985 66.796 112.165 66.6 112.293 66.344C112.421 66.088 112.485 65.792 112.485 65.456V62.144H113.697V68H112.521V66.716H112.677C112.517 67.164 112.261 67.508 111.909 67.748C111.557 67.988 111.141 68.108 110.661 68.108ZM115.405 68V62.144H116.581V63.548H116.461C116.589 63.068 116.817 62.704 117.145 62.456C117.481 62.208 117.925 62.064 118.477 62.024L118.873 62L118.957 63.032L118.225 63.104C117.705 63.152 117.309 63.316 117.037 63.596C116.765 63.876 116.629 64.26 116.629 64.748V68H115.405ZM126.958 68.108C126.102 68.108 125.37 67.932 124.762 67.58C124.154 67.228 123.686 66.728 123.358 66.08C123.038 65.424 122.878 64.652 122.878 63.764C122.878 62.876 123.038 62.108 123.358 61.46C123.686 60.812 124.154 60.312 124.762 59.96C125.37 59.608 126.102 59.432 126.958 59.432C127.534 59.432 128.07 59.524 128.566 59.708C129.07 59.884 129.49 60.14 129.826 60.476L129.394 61.472C129.026 61.144 128.646 60.908 128.254 60.764C127.87 60.612 127.45 60.536 126.994 60.536C126.082 60.536 125.386 60.816 124.906 61.376C124.426 61.936 124.186 62.732 124.186 63.764C124.186 64.796 124.426 65.596 124.906 66.164C125.386 66.724 126.082 67.004 126.994 67.004C127.45 67.004 127.87 66.932 128.254 66.788C128.646 66.636 129.026 66.396 129.394 66.068L129.826 67.064C129.49 67.4 129.07 67.66 128.566 67.844C128.07 68.02 127.534 68.108 126.958 68.108ZM134.689 68.108C134.089 68.108 133.545 68.008 133.057 67.808C132.569 67.608 132.149 67.316 131.797 66.932C131.453 66.548 131.189 66.092 131.005 65.564C130.821 65.028 130.729 64.428 130.729 63.764C130.729 63.1 130.821 62.504 131.005 61.976C131.189 61.44 131.453 60.984 131.797 60.608C132.141 60.224 132.557 59.932 133.045 59.732C133.533 59.532 134.081 59.432 134.689 59.432C135.289 59.432 135.833 59.532 136.321 59.732C136.809 59.932 137.225 60.22 137.569 60.596C137.921 60.972 138.189 61.428 138.373 61.964C138.557 62.492 138.649 63.088 138.649 63.752C138.649 64.416 138.557 65.016 138.373 65.552C138.189 66.088 137.921 66.548 137.569 66.932C137.225 67.316 136.809 67.608 136.321 67.808C135.833 68.008 135.289 68.108 134.689 68.108ZM134.689 67.028C135.249 67.028 135.725 66.9 136.117 66.644C136.517 66.388 136.821 66.016 137.029 65.528C137.245 65.04 137.353 64.452 137.353 63.764C137.353 63.076 137.249 62.488 137.041 62C136.833 61.512 136.529 61.144 136.129 60.896C135.737 60.64 135.257 60.512 134.689 60.512C134.129 60.512 133.649 60.64 133.249 60.896C132.857 61.144 132.553 61.512 132.337 62C132.129 62.488 132.025 63.076 132.025 63.764C132.025 64.444 132.129 65.032 132.337 65.528C132.553 66.016 132.857 66.388 133.249 66.644C133.649 66.9 134.129 67.028 134.689 67.028ZM140.322 68V59.54H143.31C144.238 59.54 145.026 59.704 145.674 60.032C146.322 60.352 146.814 60.828 147.15 61.46C147.494 62.084 147.666 62.852 147.666 63.764C147.666 64.676 147.494 65.448 147.15 66.08C146.814 66.704 146.322 67.18 145.674 67.508C145.026 67.836 144.238 68 143.31 68H140.322ZM141.57 66.956H143.238C144.286 66.956 145.07 66.692 145.59 66.164C146.11 65.628 146.37 64.828 146.37 63.764C146.37 62.7 146.106 61.904 145.578 61.376C145.058 60.848 144.278 60.584 143.238 60.584H141.57V66.956ZM150.452 65.66V65.24C150.452 64.984 150.484 64.74 150.548 64.508C150.612 64.268 150.716 64.028 150.86 63.788C151.004 63.548 151.196 63.292 151.436 63.02C151.628 62.804 151.776 62.612 151.88 62.444C151.992 62.276 152.072 62.116 152.12 61.964C152.168 61.804 152.192 61.64 152.192 61.472C152.192 61.272 152.144 61.1 152.048 60.956C151.952 60.804 151.812 60.688 151.628 60.608C151.444 60.528 151.22 60.488 150.956 60.488C150.532 60.488 150.136 60.568 149.768 60.728C149.4 60.88 149.052 61.108 148.724 61.412L148.292 60.464C148.508 60.256 148.76 60.076 149.048 59.924C149.344 59.764 149.66 59.644 149.996 59.564C150.332 59.476 150.676 59.432 151.028 59.432C151.508 59.432 151.928 59.512 152.288 59.672C152.648 59.832 152.928 60.056 153.128 60.344C153.328 60.632 153.428 60.972 153.428 61.364C153.428 61.612 153.392 61.848 153.32 62.072C153.248 62.296 153.132 62.524 152.972 62.756C152.82 62.98 152.604 63.228 152.324 63.5C152.076 63.748 151.876 63.976 151.724 64.184C151.572 64.392 151.46 64.588 151.388 64.772C151.324 64.956 151.28 65.144 151.256 65.336L151.208 65.66H150.452ZM150.116 68V66.572H151.544V68H150.116ZM157.806 68V59.54H161.31C162.222 59.54 162.926 59.756 163.422 60.188C163.918 60.62 164.166 61.232 164.166 62.024C164.166 62.536 164.054 62.976 163.83 63.344C163.606 63.712 163.278 63.992 162.846 64.184C162.422 64.376 161.91 64.472 161.31 64.472L161.418 64.304H161.73C162.05 64.304 162.326 64.384 162.558 64.544C162.798 64.704 163.014 64.96 163.206 65.312L164.67 68H163.302L161.838 65.3C161.726 65.092 161.602 64.932 161.466 64.82C161.338 64.7 161.186 64.62 161.01 64.58C160.842 64.532 160.642 64.508 160.41 64.508H159.054V68H157.806ZM159.054 63.572H161.106C161.714 63.572 162.174 63.444 162.486 63.188C162.798 62.932 162.954 62.552 162.954 62.048C162.954 61.552 162.798 61.176 162.486 60.92C162.174 60.664 161.714 60.536 161.106 60.536H159.054V63.572ZM168.403 68.108C167.763 68.108 167.211 67.988 166.747 67.748C166.291 67.5 165.935 67.152 165.679 66.704C165.431 66.248 165.307 65.708 165.307 65.084C165.307 64.476 165.431 63.944 165.679 63.488C165.927 63.032 166.267 62.676 166.699 62.42C167.131 62.164 167.623 62.036 168.175 62.036C168.719 62.036 169.183 62.156 169.567 62.396C169.959 62.628 170.259 62.96 170.467 63.392C170.675 63.824 170.779 64.34 170.779 64.94V65.348H166.267V64.604H169.963L169.759 64.772C169.759 64.172 169.627 63.708 169.363 63.38C169.099 63.052 168.719 62.888 168.223 62.888C167.847 62.888 167.527 62.976 167.263 63.152C167.007 63.328 166.811 63.572 166.675 63.884C166.539 64.196 166.471 64.56 166.471 64.976V65.048C166.471 65.512 166.543 65.904 166.687 66.224C166.839 66.536 167.059 66.772 167.347 66.932C167.635 67.092 167.991 67.172 168.415 67.172C168.751 67.172 169.079 67.12 169.399 67.016C169.727 66.904 170.035 66.732 170.323 66.5L170.683 67.34C170.419 67.58 170.079 67.768 169.663 67.904C169.247 68.04 168.827 68.108 168.403 68.108ZM172.1 70.16V62.144H173.288V63.464H173.156C173.284 63.032 173.536 62.688 173.912 62.432C174.288 62.168 174.732 62.036 175.244 62.036C175.764 62.036 176.216 62.16 176.6 62.408C176.992 62.656 177.292 63.004 177.5 63.452C177.716 63.9 177.824 64.44 177.824 65.072C177.824 65.688 177.716 66.228 177.5 66.692C177.292 67.148 176.996 67.5 176.612 67.748C176.228 67.988 175.772 68.108 175.244 68.108C174.74 68.108 174.3 67.98 173.924 67.724C173.548 67.468 173.296 67.128 173.168 66.704H173.312V70.16H172.1ZM174.944 67.172C175.448 67.172 175.848 66.992 176.144 66.632C176.448 66.272 176.6 65.752 176.6 65.072C176.6 64.384 176.448 63.864 176.144 63.512C175.848 63.16 175.448 62.984 174.944 62.984C174.448 62.984 174.048 63.16 173.744 63.512C173.44 63.864 173.288 64.384 173.288 65.072C173.288 65.752 173.44 66.272 173.744 66.632C174.048 66.992 174.448 67.172 174.944 67.172ZM181.098 68.108C180.458 68.108 179.978 67.928 179.658 67.568C179.346 67.2 179.19 66.672 179.19 65.984V59.54H180.402V65.912C180.402 66.168 180.438 66.388 180.51 66.572C180.582 66.748 180.69 66.88 180.834 66.968C180.978 67.056 181.158 67.1 181.374 67.1C181.47 67.1 181.562 67.096 181.65 67.088C181.738 67.08 181.822 67.064 181.902 67.04L181.878 68.012C181.742 68.044 181.61 68.068 181.482 68.084C181.354 68.1 181.226 68.108 181.098 68.108ZM183.317 70.16L184.469 67.592V68.108L181.913 62.144H183.209L185.177 67.004H184.841L186.833 62.144H188.081L184.589 70.16H183.317ZM194.264 68V63.632L194.54 64.424L191.024 59.54H192.464L195.056 63.152H194.768L197.36 59.54H198.74L195.248 64.424L195.5 63.632V68H194.264ZM201.157 68.108C200.517 68.108 199.965 67.988 199.501 67.748C199.045 67.5 198.689 67.152 198.433 66.704C198.185 66.248 198.061 65.708 198.061 65.084C198.061 64.476 198.185 63.944 198.433 63.488C198.681 63.032 199.021 62.676 199.453 62.42C199.885 62.164 200.377 62.036 200.929 62.036C201.473 62.036 201.937 62.156 202.321 62.396C202.713 62.628 203.013 62.96 203.221 63.392C203.429 63.824 203.533 64.34 203.533 64.94V65.348H199.021V64.604H202.717L202.513 64.772C202.513 64.172 202.381 63.708 202.117 63.38C201.853 63.052 201.473 62.888 200.977 62.888C200.601 62.888 200.281 62.976 200.017 63.152C199.761 63.328 199.565 63.572 199.429 63.884C199.293 64.196 199.225 64.56 199.225 64.976V65.048C199.225 65.512 199.297 65.904 199.441 66.224C199.593 66.536 199.813 66.772 200.101 66.932C200.389 67.092 200.745 67.172 201.169 67.172C201.505 67.172 201.833 67.12 202.153 67.016C202.481 66.904 202.789 66.732 203.077 66.5L203.437 67.34C203.173 67.58 202.833 67.768 202.417 67.904C202.001 68.04 201.581 68.108 201.157 68.108ZM206.906 68.108C206.594 68.108 206.29 68.08 205.994 68.024C205.698 67.968 205.426 67.888 205.178 67.784C204.93 67.68 204.71 67.552 204.518 67.4L204.866 66.584C205.066 66.72 205.278 66.84 205.502 66.944C205.726 67.04 205.958 67.112 206.198 67.16C206.446 67.208 206.686 67.232 206.918 67.232C207.342 67.232 207.662 67.156 207.878 67.004C208.094 66.852 208.202 66.648 208.202 66.392C208.202 66.184 208.13 66.024 207.986 65.912C207.842 65.792 207.626 65.7 207.338 65.636L206.198 65.408C205.702 65.304 205.326 65.12 205.07 64.856C204.814 64.592 204.686 64.256 204.686 63.848C204.686 63.48 204.786 63.16 204.986 62.888C205.186 62.616 205.466 62.408 205.826 62.264C206.186 62.112 206.602 62.036 207.074 62.036C207.346 62.036 207.61 62.064 207.866 62.12C208.122 62.176 208.362 62.256 208.586 62.36C208.818 62.464 209.014 62.596 209.174 62.756L208.826 63.572C208.674 63.436 208.498 63.32 208.298 63.224C208.106 63.128 207.906 63.056 207.698 63.008C207.49 62.952 207.282 62.924 207.074 62.924C206.65 62.924 206.33 63.004 206.114 63.164C205.906 63.316 205.802 63.524 205.802 63.788C205.802 63.988 205.866 64.152 205.994 64.28C206.122 64.408 206.322 64.5 206.594 64.556L207.734 64.784C208.254 64.888 208.646 65.064 208.91 65.312C209.182 65.56 209.318 65.896 209.318 66.32C209.318 66.688 209.218 67.008 209.018 67.28C208.818 67.552 208.534 67.76 208.166 67.904C207.806 68.04 207.386 68.108 206.906 68.108ZM216.315 68.108C215.587 68.108 215.039 67.92 214.671 67.544C214.311 67.168 214.131 66.624 214.131 65.912V63.08H212.991V62.144H214.131V60.38H215.343V62.144H217.155V63.08H215.343V65.816C215.343 66.24 215.431 66.56 215.607 66.776C215.791 66.992 216.087 67.1 216.495 67.1C216.615 67.1 216.735 67.084 216.855 67.052C216.983 67.02 217.107 66.988 217.227 66.956L217.419 67.868C217.299 67.94 217.131 67.996 216.915 68.036C216.707 68.084 216.507 68.108 216.315 68.108ZM220.687 68.108C220.095 68.108 219.583 67.984 219.151 67.736C218.727 67.488 218.395 67.136 218.155 66.68C217.915 66.224 217.795 65.688 217.795 65.072C217.795 64.448 217.915 63.912 218.155 63.464C218.395 63.008 218.727 62.656 219.151 62.408C219.583 62.16 220.095 62.036 220.687 62.036C221.271 62.036 221.775 62.16 222.199 62.408C222.631 62.656 222.967 63.008 223.207 63.464C223.447 63.92 223.567 64.456 223.567 65.072C223.567 65.688 223.447 66.224 223.207 66.68C222.967 67.136 222.631 67.488 222.199 67.736C221.775 67.984 221.271 68.108 220.687 68.108ZM220.675 67.172C221.179 67.172 221.583 66.992 221.887 66.632C222.191 66.272 222.343 65.752 222.343 65.072C222.343 64.384 222.191 63.864 221.887 63.512C221.583 63.16 221.179 62.984 220.675 62.984C220.179 62.984 219.779 63.16 219.475 63.512C219.171 63.864 219.019 64.384 219.019 65.072C219.019 65.752 219.171 66.272 219.475 66.632C219.779 66.992 220.179 67.172 220.675 67.172ZM230.133 68.108C229.821 68.108 229.517 68.08 229.221 68.024C228.925 67.968 228.653 67.888 228.405 67.784C228.157 67.68 227.937 67.552 227.745 67.4L228.093 66.584C228.293 66.72 228.505 66.84 228.729 66.944C228.953 67.04 229.185 67.112 229.425 67.16C229.673 67.208 229.913 67.232 230.145 67.232C230.569 67.232 230.889 67.156 231.105 67.004C231.321 66.852 231.429 66.648 231.429 66.392C231.429 66.184 231.357 66.024 231.213 65.912C231.069 65.792 230.853 65.7 230.565 65.636L229.425 65.408C228.929 65.304 228.553 65.12 228.297 64.856C228.041 64.592 227.913 64.256 227.913 63.848C227.913 63.48 228.013 63.16 228.213 62.888C228.413 62.616 228.693 62.408 229.053 62.264C229.413 62.112 229.829 62.036 230.301 62.036C230.573 62.036 230.837 62.064 231.093 62.12C231.349 62.176 231.589 62.256 231.813 62.36C232.045 62.464 232.241 62.596 232.401 62.756L232.053 63.572C231.901 63.436 231.725 63.32 231.525 63.224C231.333 63.128 231.133 63.056 230.925 63.008C230.717 62.952 230.509 62.924 230.301 62.924C229.877 62.924 229.557 63.004 229.341 63.164C229.133 63.316 229.029 63.524 229.029 63.788C229.029 63.988 229.093 64.152 229.221 64.28C229.349 64.408 229.549 64.5 229.821 64.556L230.961 64.784C231.481 64.888 231.873 65.064 232.137 65.312C232.409 65.56 232.545 65.896 232.545 66.32C232.545 66.688 232.445 67.008 232.245 67.28C232.045 67.552 231.761 67.76 231.393 67.904C231.033 68.04 230.613 68.108 230.133 68.108ZM233.893 68V59.54H235.105V63.392H234.937C235.113 62.944 235.389 62.608 235.765 62.384C236.141 62.152 236.573 62.036 237.061 62.036C237.525 62.036 237.909 62.124 238.213 62.3C238.525 62.468 238.757 62.728 238.909 63.08C239.061 63.424 239.137 63.86 239.137 64.388V68H237.925V64.46C237.925 64.124 237.881 63.852 237.793 63.644C237.705 63.428 237.573 63.268 237.397 63.164C237.221 63.06 236.993 63.008 236.713 63.008C236.393 63.008 236.109 63.076 235.861 63.212C235.621 63.348 235.433 63.544 235.297 63.8C235.169 64.056 235.105 64.352 235.105 64.688V68H233.893ZM240.699 60.788V59.528H242.115V60.788H240.699ZM240.807 68V62.144H242.019V68H240.807ZM243.725 70.16V62.144H244.913V63.464H244.781C244.909 63.032 245.161 62.688 245.537 62.432C245.913 62.168 246.357 62.036 246.869 62.036C247.389 62.036 247.841 62.16 248.225 62.408C248.617 62.656 248.917 63.004 249.125 63.452C249.341 63.9 249.449 64.44 249.449 65.072C249.449 65.688 249.341 66.228 249.125 66.692C248.917 67.148 248.621 67.5 248.237 67.748C247.853 67.988 247.397 68.108 246.869 68.108C246.365 68.108 245.925 67.98 245.549 67.724C245.173 67.468 244.921 67.128 244.793 66.704H244.937V70.16H243.725ZM246.569 67.172C247.073 67.172 247.473 66.992 247.769 66.632C248.073 66.272 248.225 65.752 248.225 65.072C248.225 64.384 248.073 63.864 247.769 63.512C247.473 63.16 247.073 62.984 246.569 62.984C246.073 62.984 245.673 63.16 245.369 63.512C245.065 63.864 244.913 64.384 244.913 65.072C244.913 65.752 245.065 66.272 245.369 66.632C245.673 66.992 246.073 67.172 246.569 67.172ZM250.849 62.444L250.321 62.036C250.473 61.868 250.593 61.716 250.681 61.58C250.769 61.436 250.829 61.292 250.861 61.148C250.901 61.004 250.921 60.856 250.921 60.704L251.257 60.968H250.237V59.54H251.677V60.512C251.677 60.752 251.649 60.98 251.593 61.196C251.545 61.412 251.461 61.624 251.341 61.832C251.221 62.032 251.057 62.236 250.849 62.444ZM252.997 62.444L252.469 62.036C252.621 61.868 252.741 61.716 252.829 61.58C252.917 61.436 252.977 61.292 253.009 61.148C253.049 61.004 253.069 60.856 253.069 60.704L253.405 60.968H252.385V59.54H253.825V60.512C253.825 60.752 253.797 60.98 253.741 61.196C253.693 61.412 253.609 61.624 253.489 61.832C253.369 62.032 253.205 62.236 252.997 62.444Z" fill="#BD8125"/>
</g>
</g>
<g id="Info Origin_2">
<g id="Main_2">
<path id="Time_2" d="M22.704 104.108C21.872 104.108 21.16 103.932 20.568 103.58C19.976 103.228 19.52 102.728 19.2 102.08C18.888 101.432 18.732 100.66 18.732 99.764C18.732 98.868 18.888 98.1 19.2 97.46C19.52 96.812 19.976 96.312 20.568 95.96C21.16 95.608 21.872 95.432 22.704 95.432C23.288 95.432 23.828 95.524 24.324 95.708C24.82 95.892 25.236 96.16 25.572 96.512L25.188 97.316C24.82 96.972 24.436 96.724 24.036 96.572C23.644 96.412 23.208 96.332 22.728 96.332C21.776 96.332 21.048 96.632 20.544 97.232C20.04 97.832 19.788 98.676 19.788 99.764C19.788 100.852 20.04 101.7 20.544 102.308C21.048 102.908 21.776 103.208 22.728 103.208C23.208 103.208 23.644 103.132 24.036 102.98C24.436 102.82 24.82 102.568 25.188 102.224L25.572 103.028C25.236 103.372 24.82 103.64 24.324 103.832C23.828 104.016 23.288 104.108 22.704 104.108ZM28.9213 104.108C28.4493 104.108 28.0573 104.024 27.7453 103.856C27.4413 103.68 27.2093 103.42 27.0493 103.076C26.8973 102.732 26.8213 102.304 26.8213 101.792V98.168H27.7933V101.78C27.7933 102.124 27.8373 102.412 27.9253 102.644C28.0213 102.868 28.1693 103.036 28.3693 103.148C28.5693 103.252 28.8173 103.304 29.1133 103.304C29.4493 103.304 29.7413 103.228 29.9893 103.076C30.2373 102.924 30.4333 102.712 30.5773 102.44C30.7213 102.168 30.7933 101.848 30.7933 101.48V98.168H31.7653V104H30.8173V102.656H30.9733C30.8133 103.128 30.5493 103.488 30.1813 103.736C29.8213 103.984 29.4013 104.108 28.9213 104.108ZM35.5519 104.108C35.2479 104.108 34.9519 104.076 34.6639 104.012C34.3839 103.956 34.1199 103.876 33.8719 103.772C33.6319 103.66 33.4239 103.528 33.2479 103.376L33.5599 102.692C33.7519 102.844 33.9599 102.972 34.1839 103.076C34.4079 103.172 34.6359 103.244 34.8679 103.292C35.0999 103.34 35.3359 103.364 35.5759 103.364C36.0319 103.364 36.3759 103.28 36.6079 103.112C36.8399 102.944 36.9559 102.716 36.9559 102.428C36.9559 102.204 36.8799 102.028 36.7279 101.9C36.5759 101.764 36.3359 101.66 36.0079 101.588L34.9159 101.348C34.4119 101.244 34.0359 101.064 33.7879 100.808C33.5479 100.552 33.4279 100.22 33.4279 99.812C33.4279 99.452 33.5199 99.144 33.7039 98.888C33.8959 98.624 34.1639 98.42 34.5079 98.276C34.8519 98.132 35.2519 98.06 35.7079 98.06C35.9799 98.06 36.2399 98.088 36.4879 98.144C36.7359 98.2 36.9679 98.284 37.1839 98.396C37.4079 98.5 37.5999 98.632 37.7599 98.792L37.4359 99.476C37.2839 99.332 37.1119 99.212 36.9199 99.116C36.7279 99.012 36.5279 98.936 36.3199 98.888C36.1199 98.832 35.9159 98.804 35.7079 98.804C35.2599 98.804 34.9199 98.892 34.6879 99.068C34.4559 99.244 34.3399 99.476 34.3399 99.764C34.3399 99.988 34.4119 100.172 34.5559 100.316C34.6999 100.46 34.9239 100.564 35.2279 100.628L36.3199 100.856C36.8399 100.968 37.2279 101.148 37.4839 101.396C37.7479 101.636 37.8799 101.964 37.8799 102.38C37.8799 102.732 37.7839 103.04 37.5919 103.304C37.3999 103.56 37.1279 103.76 36.7759 103.904C36.4319 104.04 36.0239 104.108 35.5519 104.108ZM41.6426 104.108C40.9546 104.108 40.4386 103.924 40.0946 103.556C39.7506 103.188 39.5786 102.664 39.5786 101.984V98.924H38.4386V98.168H39.5786V96.38H40.5506V98.168H42.3986V98.924H40.5506V101.888C40.5506 102.344 40.6466 102.692 40.8386 102.932C41.0306 103.164 41.3426 103.28 41.7746 103.28C41.9026 103.28 42.0306 103.264 42.1586 103.232C42.2866 103.2 42.4026 103.168 42.5066 103.136L42.6746 103.88C42.5706 103.936 42.4186 103.988 42.2186 104.036C42.0186 104.084 41.8266 104.108 41.6426 104.108ZM45.8633 104.108C45.2953 104.108 44.8033 103.984 44.3873 103.736C43.9713 103.488 43.6473 103.14 43.4153 102.692C43.1913 102.236 43.0793 101.7 43.0793 101.084C43.0793 100.468 43.1913 99.936 43.4153 99.488C43.6473 99.032 43.9713 98.68 44.3873 98.432C44.8033 98.184 45.2953 98.06 45.8633 98.06C46.4313 98.06 46.9233 98.184 47.3393 98.432C47.7553 98.68 48.0753 99.032 48.2993 99.488C48.5313 99.936 48.6473 100.468 48.6473 101.084C48.6473 101.7 48.5313 102.236 48.2993 102.692C48.0753 103.14 47.7553 103.488 47.3393 103.736C46.9233 103.984 46.4313 104.108 45.8633 104.108ZM45.8633 103.328C46.4153 103.328 46.8513 103.136 47.1713 102.752C47.4993 102.36 47.6633 101.8 47.6633 101.072C47.6633 100.352 47.4993 99.8 47.1713 99.416C46.8513 99.032 46.4153 98.84 45.8633 98.84C45.3193 98.84 44.8833 99.032 44.5553 99.416C44.2273 99.8 44.0633 100.352 44.0633 101.072C44.0633 101.8 44.2273 102.36 44.5553 102.752C44.8833 103.136 45.3193 103.328 45.8633 103.328ZM50.1313 104V98.168H51.0793V99.464H50.9473C51.0433 99.168 51.1833 98.916 51.3673 98.708C51.5593 98.492 51.7833 98.332 52.0393 98.228C52.3033 98.116 52.5913 98.06 52.9033 98.06C53.3993 98.06 53.7993 98.18 54.1033 98.42C54.4153 98.652 54.6233 99.016 54.7273 99.512H54.5473C54.6913 99.064 54.9473 98.712 55.3153 98.456C55.6913 98.192 56.1273 98.06 56.6233 98.06C57.0633 98.06 57.4233 98.144 57.7033 98.312C57.9913 98.48 58.2073 98.736 58.3513 99.08C58.4953 99.416 58.5673 99.844 58.5673 100.364V104H57.5953V100.412C57.5953 99.876 57.5033 99.484 57.3193 99.236C57.1353 98.98 56.8233 98.852 56.3833 98.852C56.0713 98.852 55.7953 98.928 55.5553 99.08C55.3233 99.232 55.1433 99.448 55.0153 99.728C54.8953 100 54.8353 100.324 54.8353 100.7V104H53.8633V100.412C53.8633 99.876 53.7673 99.484 53.5753 99.236C53.3913 98.98 53.0833 98.852 52.6513 98.852C52.3313 98.852 52.0553 98.928 51.8233 99.08C51.5913 99.232 51.4113 99.448 51.2833 99.728C51.1633 100 51.1033 100.324 51.1033 100.7V104H50.1313ZM63.0127 104.108C62.3967 104.108 61.8647 103.988 61.4167 103.748C60.9767 103.5 60.6327 103.152 60.3847 102.704C60.1447 102.256 60.0247 101.72 60.0247 101.096C60.0247 100.488 60.1447 99.96 60.3847 99.512C60.6247 99.056 60.9527 98.7 61.3687 98.444C61.7927 98.188 62.2807 98.06 62.8327 98.06C63.3607 98.06 63.8127 98.176 64.1887 98.408C64.5647 98.64 64.8527 98.968 65.0527 99.392C65.2607 99.816 65.3647 100.324 65.3647 100.916V101.288H60.7687V100.652H64.7167L64.5247 100.808C64.5247 100.168 64.3807 99.672 64.0927 99.32C63.8127 98.96 63.4007 98.78 62.8567 98.78C62.4487 98.78 62.1007 98.876 61.8127 99.068C61.5327 99.252 61.3207 99.512 61.1767 99.848C61.0327 100.176 60.9607 100.56 60.9607 101V101.072C60.9607 101.56 61.0367 101.972 61.1887 102.308C61.3487 102.644 61.5847 102.9 61.8967 103.076C62.2087 103.244 62.5807 103.328 63.0127 103.328C63.3567 103.328 63.6887 103.276 64.0087 103.172C64.3367 103.06 64.6447 102.88 64.9327 102.632L65.2687 103.316C65.0047 103.556 64.6687 103.748 64.2607 103.892C63.8527 104.036 63.4367 104.108 63.0127 104.108ZM66.7714 104V98.168H67.7194V99.548H67.5994C67.7354 99.076 67.9714 98.72 68.3074 98.48C68.6434 98.232 69.0874 98.088 69.6394 98.048L69.9874 98.012L70.0594 98.852L69.4474 98.924C68.9034 98.972 68.4834 99.148 68.1874 99.452C67.8994 99.748 67.7554 100.156 67.7554 100.676V104H66.7714ZM74.2862 104V95.54H77.6342C78.5382 95.54 79.2342 95.752 79.7222 96.176C80.2102 96.6 80.4542 97.204 80.4542 97.988C80.4542 98.484 80.3422 98.916 80.1182 99.284C79.9022 99.644 79.5822 99.92 79.1582 100.112C78.7342 100.296 78.2262 100.388 77.6342 100.388L77.7542 100.232H77.9942C78.3062 100.232 78.5782 100.312 78.8102 100.472C79.0422 100.632 79.2542 100.888 79.4462 101.24L80.9342 104H79.8542L78.3902 101.288C78.2702 101.064 78.1342 100.888 77.9822 100.76C77.8382 100.632 77.6702 100.544 77.4782 100.496C77.2942 100.448 77.0702 100.424 76.8062 100.424H75.2702V104H74.2862ZM75.2702 99.644H77.4902C78.1462 99.644 78.6422 99.508 78.9782 99.236C79.3142 98.956 79.4822 98.54 79.4822 97.988C79.4822 97.452 79.3142 97.048 78.9782 96.776C78.6422 96.496 78.1462 96.356 77.4902 96.356H75.2702V99.644ZM84.6806 104.108C84.0646 104.108 83.5326 103.988 83.0846 103.748C82.6446 103.5 82.3006 103.152 82.0526 102.704C81.8126 102.256 81.6926 101.72 81.6926 101.096C81.6926 100.488 81.8126 99.96 82.0526 99.512C82.2926 99.056 82.6206 98.7 83.0366 98.444C83.4606 98.188 83.9486 98.06 84.5006 98.06C85.0286 98.06 85.4806 98.176 85.8566 98.408C86.2326 98.64 86.5206 98.968 86.7206 99.392C86.9286 99.816 87.0326 100.324 87.0326 100.916V101.288H82.4366V100.652H86.3846L86.1926 100.808C86.1926 100.168 86.0486 99.672 85.7606 99.32C85.4806 98.96 85.0686 98.78 84.5246 98.78C84.1166 98.78 83.7686 98.876 83.4806 99.068C83.2006 99.252 82.9886 99.512 82.8446 99.848C82.7006 100.176 82.6286 100.56 82.6286 101V101.072C82.6286 101.56 82.7046 101.972 82.8566 102.308C83.0166 102.644 83.2526 102.9 83.5646 103.076C83.8766 103.244 84.2486 103.328 84.6806 103.328C85.0246 103.328 85.3566 103.276 85.6766 103.172C86.0046 103.06 86.3126 102.88 86.6006 102.632L86.9366 103.316C86.6726 103.556 86.3366 103.748 85.9286 103.892C85.5206 104.036 85.1046 104.108 84.6806 104.108ZM88.4393 106.16V98.168H89.3873V99.548H89.2673C89.3953 99.092 89.6473 98.732 90.0233 98.468C90.4073 98.196 90.8633 98.06 91.3913 98.06C91.9113 98.06 92.3633 98.184 92.7473 98.432C93.1393 98.672 93.4393 99.02 93.6473 99.476C93.8633 99.924 93.9713 100.46 93.9713 101.084C93.9713 101.7 93.8633 102.236 93.6473 102.692C93.4393 103.14 93.1433 103.488 92.7593 103.736C92.3753 103.984 91.9193 104.108 91.3913 104.108C90.8633 104.108 90.4113 103.976 90.0353 103.712C89.6593 103.44 89.4033 103.08 89.2673 102.632H89.4113V106.16H88.4393ZM91.1873 103.328C91.7393 103.328 92.1753 103.136 92.4953 102.752C92.8233 102.36 92.9873 101.804 92.9873 101.084C92.9873 100.356 92.8233 99.8 92.4953 99.416C92.1753 99.032 91.7393 98.84 91.1873 98.84C90.6433 98.84 90.2073 99.032 89.8793 99.416C89.5513 99.8 89.3873 100.356 89.3873 101.084C89.3873 101.804 89.5513 102.36 89.8793 102.752C90.2073 103.136 90.6433 103.328 91.1873 103.328ZM97.2234 104.108C96.6314 104.108 96.1834 103.932 95.8794 103.58C95.5834 103.228 95.4354 102.724 95.4354 102.068V95.54H96.4074V101.996C96.4074 102.276 96.4434 102.512 96.5154 102.704C96.5954 102.896 96.7114 103.04 96.8634 103.136C97.0154 103.232 97.2034 103.28 97.4274 103.28C97.5234 103.28 97.6154 103.276 97.7034 103.268C97.7994 103.252 97.8874 103.232 97.9674 103.208L97.9434 104.024C97.8154 104.048 97.6914 104.068 97.5714 104.084C97.4594 104.1 97.3434 104.108 97.2234 104.108ZM99.5293 106.16L100.621 103.7V104.12L98.0653 98.168H99.1213L101.209 103.28H100.885L102.997 98.168H104.017L100.549 106.16H99.5293ZM104.865 99.392V98.168H106.089V99.392H104.865ZM104.865 104V102.776H106.089V104H104.865Z" fill="#737682"/>
<path id="Departure" d="M198.012 104V99.632L198.288 100.424L194.772 95.54H196.212L198.804 99.152H198.516L201.108 95.54H202.488L198.996 100.424L199.248 99.632V104H198.012ZM204.905 104.108C204.265 104.108 203.713 103.988 203.249 103.748C202.793 103.5 202.437 103.152 202.181 102.704C201.933 102.248 201.809 101.708 201.809 101.084C201.809 100.476 201.933 99.944 202.181 99.488C202.429 99.032 202.769 98.676 203.201 98.42C203.633 98.164 204.125 98.036 204.677 98.036C205.221 98.036 205.685 98.156 206.069 98.396C206.461 98.628 206.761 98.96 206.969 99.392C207.177 99.824 207.281 100.34 207.281 100.94V101.348H202.769V100.604H206.465L206.261 100.772C206.261 100.172 206.129 99.708 205.865 99.38C205.601 99.052 205.221 98.888 204.725 98.888C204.349 98.888 204.029 98.976 203.765 99.152C203.509 99.328 203.313 99.572 203.177 99.884C203.041 100.196 202.973 100.56 202.973 100.976V101.048C202.973 101.512 203.045 101.904 203.189 102.224C203.341 102.536 203.561 102.772 203.849 102.932C204.137 103.092 204.493 103.172 204.917 103.172C205.253 103.172 205.581 103.12 205.901 103.016C206.229 102.904 206.537 102.732 206.825 102.5L207.185 103.34C206.921 103.58 206.581 103.768 206.165 103.904C205.749 104.04 205.329 104.108 204.905 104.108ZM210.654 104.108C210.342 104.108 210.038 104.08 209.742 104.024C209.446 103.968 209.174 103.888 208.926 103.784C208.678 103.68 208.458 103.552 208.266 103.4L208.614 102.584C208.814 102.72 209.026 102.84 209.25 102.944C209.474 103.04 209.706 103.112 209.946 103.16C210.194 103.208 210.434 103.232 210.666 103.232C211.09 103.232 211.41 103.156 211.626 103.004C211.842 102.852 211.95 102.648 211.95 102.392C211.95 102.184 211.878 102.024 211.734 101.912C211.59 101.792 211.374 101.7 211.086 101.636L209.946 101.408C209.45 101.304 209.074 101.12 208.818 100.856C208.562 100.592 208.434 100.256 208.434 99.848C208.434 99.48 208.534 99.16 208.734 98.888C208.934 98.616 209.214 98.408 209.574 98.264C209.934 98.112 210.35 98.036 210.822 98.036C211.094 98.036 211.358 98.064 211.614 98.12C211.87 98.176 212.11 98.256 212.334 98.36C212.566 98.464 212.762 98.596 212.922 98.756L212.574 99.572C212.422 99.436 212.246 99.32 212.046 99.224C211.854 99.128 211.654 99.056 211.446 99.008C211.238 98.952 211.03 98.924 210.822 98.924C210.398 98.924 210.078 99.004 209.862 99.164C209.654 99.316 209.55 99.524 209.55 99.788C209.55 99.988 209.614 100.152 209.742 100.28C209.87 100.408 210.07 100.5 210.342 100.556L211.482 100.784C212.002 100.888 212.394 101.064 212.658 101.312C212.93 101.56 213.066 101.896 213.066 102.32C213.066 102.688 212.966 103.008 212.766 103.28C212.566 103.552 212.282 103.76 211.914 103.904C211.554 104.04 211.134 104.108 210.654 104.108ZM217.423 101.516V100.088H218.851V101.516H217.423ZM227.491 104.108C226.635 104.108 225.903 103.932 225.295 103.58C224.687 103.228 224.219 102.728 223.891 102.08C223.571 101.424 223.411 100.652 223.411 99.764C223.411 98.876 223.571 98.108 223.891 97.46C224.219 96.812 224.687 96.312 225.295 95.96C225.903 95.608 226.635 95.432 227.491 95.432C228.067 95.432 228.603 95.524 229.099 95.708C229.603 95.884 230.023 96.14 230.359 96.476L229.927 97.472C229.559 97.144 229.179 96.908 228.787 96.764C228.403 96.612 227.983 96.536 227.527 96.536C226.615 96.536 225.919 96.816 225.439 97.376C224.959 97.936 224.719 98.732 224.719 99.764C224.719 100.796 224.959 101.596 225.439 102.164C225.919 102.724 226.615 103.004 227.527 103.004C227.983 103.004 228.403 102.932 228.787 102.788C229.179 102.636 229.559 102.396 229.927 102.068L230.359 103.064C230.023 103.4 229.603 103.66 229.099 103.844C228.603 104.02 228.067 104.108 227.491 104.108ZM233.798 104.108C233.206 104.108 232.694 103.984 232.262 103.736C231.838 103.488 231.506 103.136 231.266 102.68C231.026 102.224 230.906 101.688 230.906 101.072C230.906 100.448 231.026 99.912 231.266 99.464C231.506 99.008 231.838 98.656 232.262 98.408C232.694 98.16 233.206 98.036 233.798 98.036C234.382 98.036 234.886 98.16 235.31 98.408C235.742 98.656 236.078 99.008 236.318 99.464C236.558 99.92 236.678 100.456 236.678 101.072C236.678 101.688 236.558 102.224 236.318 102.68C236.078 103.136 235.742 103.488 235.31 103.736C234.886 103.984 234.382 104.108 233.798 104.108ZM233.786 103.172C234.29 103.172 234.694 102.992 234.998 102.632C235.302 102.272 235.454 101.752 235.454 101.072C235.454 100.384 235.302 99.864 234.998 99.512C234.694 99.16 234.29 98.984 233.786 98.984C233.29 98.984 232.89 99.16 232.586 99.512C232.282 99.864 232.13 100.384 232.13 101.072C232.13 101.752 232.282 102.272 232.586 102.632C232.89 102.992 233.29 103.172 233.786 103.172ZM238.04 104V98.144H239.216V99.392H239.084C239.26 98.944 239.536 98.608 239.912 98.384C240.288 98.152 240.72 98.036 241.208 98.036C241.672 98.036 242.056 98.124 242.36 98.3C242.672 98.468 242.904 98.728 243.056 99.08C243.208 99.424 243.284 99.86 243.284 100.388V104H242.072V100.46C242.072 100.124 242.028 99.852 241.94 99.644C241.852 99.428 241.72 99.268 241.544 99.164C241.368 99.06 241.14 99.008 240.86 99.008C240.54 99.008 240.256 99.076 240.008 99.212C239.768 99.348 239.58 99.544 239.444 99.8C239.316 100.056 239.252 100.352 239.252 100.688V104H238.04ZM245.302 104V99.08H244.162V98.144H245.65L245.302 98.468V98.036C245.302 97.236 245.506 96.632 245.914 96.224C246.33 95.808 246.966 95.576 247.822 95.528L248.302 95.504L248.374 96.416L247.882 96.44C247.554 96.456 247.29 96.52 247.09 96.632C246.89 96.744 246.742 96.904 246.646 97.112C246.558 97.312 246.514 97.564 246.514 97.868V98.288V98.144H250.246V104H249.034V99.08H246.514V104H245.302ZM248.926 96.788V95.528H250.342V96.788H248.926ZM251.938 104V98.144H253.114V99.548H252.994C253.122 99.068 253.35 98.704 253.678 98.456C254.014 98.208 254.458 98.064 255.01 98.024L255.406 98L255.49 99.032L254.758 99.104C254.238 99.152 253.842 99.316 253.57 99.596C253.298 99.876 253.162 100.26 253.162 100.748V104H251.938ZM256.439 104V98.144H257.615V99.392H257.483C257.587 99.104 257.731 98.86 257.915 98.66C258.099 98.46 258.319 98.308 258.575 98.204C258.839 98.092 259.127 98.036 259.439 98.036C259.927 98.036 260.323 98.152 260.627 98.384C260.931 98.616 261.139 98.972 261.251 99.452H261.083C261.235 99.012 261.495 98.668 261.863 98.42C262.231 98.164 262.659 98.036 263.147 98.036C263.595 98.036 263.963 98.124 264.251 98.3C264.539 98.468 264.755 98.728 264.899 99.08C265.043 99.424 265.115 99.86 265.115 100.388V104H263.903V100.448C263.903 99.952 263.815 99.588 263.639 99.356C263.471 99.124 263.191 99.008 262.799 99.008C262.511 99.008 262.259 99.076 262.043 99.212C261.827 99.348 261.659 99.548 261.539 99.812C261.427 100.068 261.371 100.372 261.371 100.724V104H260.159V100.448C260.159 99.952 260.075 99.588 259.907 99.356C259.739 99.124 259.459 99.008 259.067 99.008C258.771 99.008 258.515 99.076 258.299 99.212C258.091 99.348 257.931 99.548 257.819 99.812C257.707 100.068 257.651 100.372 257.651 100.724V104H256.439ZM269.557 104.108C268.917 104.108 268.365 103.988 267.901 103.748C267.445 103.5 267.089 103.152 266.833 102.704C266.585 102.248 266.461 101.708 266.461 101.084C266.461 100.476 266.585 99.944 266.833 99.488C267.081 99.032 267.421 98.676 267.853 98.42C268.285 98.164 268.777 98.036 269.329 98.036C269.873 98.036 270.337 98.156 270.721 98.396C271.113 98.628 271.413 98.96 271.621 99.392C271.829 99.824 271.933 100.34 271.933 100.94V101.348H267.421V100.604H271.117L270.913 100.772C270.913 100.172 270.781 99.708 270.517 99.38C270.253 99.052 269.873 98.888 269.377 98.888C269.001 98.888 268.681 98.976 268.417 99.152C268.161 99.328 267.965 99.572 267.829 99.884C267.693 100.196 267.625 100.56 267.625 100.976V101.048C267.625 101.512 267.697 101.904 267.841 102.224C267.993 102.536 268.213 102.772 268.501 102.932C268.789 103.092 269.145 103.172 269.569 103.172C269.905 103.172 270.233 103.12 270.553 103.016C270.881 102.904 271.189 102.732 271.477 102.5L271.837 103.34C271.573 103.58 271.233 103.768 270.817 103.904C270.401 104.04 269.981 104.108 269.557 104.108ZM275.486 104.108C274.974 104.108 274.522 103.988 274.13 103.748C273.746 103.5 273.446 103.148 273.23 102.692C273.014 102.228 272.906 101.688 272.906 101.072C272.906 100.44 273.014 99.9 273.23 99.452C273.446 99.004 273.746 98.656 274.13 98.408C274.522 98.16 274.974 98.036 275.486 98.036C275.998 98.036 276.438 98.164 276.806 98.42C277.182 98.668 277.434 99.004 277.562 99.428H277.43V95.54H278.642V104H277.454V102.68H277.574C277.446 103.112 277.194 103.46 276.818 103.724C276.45 103.98 276.006 104.108 275.486 104.108ZM275.798 103.172C276.294 103.172 276.694 102.992 276.998 102.632C277.302 102.272 277.454 101.752 277.454 101.072C277.454 100.384 277.302 99.864 276.998 99.512C276.694 99.16 276.294 98.984 275.798 98.984C275.294 98.984 274.89 99.16 274.586 99.512C274.282 99.864 274.13 100.384 274.13 101.072C274.13 101.752 274.282 102.272 274.586 102.632C274.89 102.992 275.294 103.172 275.798 103.172Z" fill="#444050"/>
</g>
</g>
</g>
</g>
</g>
</g>
</svg>
