<svg width="297" height="230" viewBox="0 0 297 230" fill="none" xmlns="http://www.w3.org/2000/svg">
<g id="Card Shipment">
<rect width="297" height="230" rx="12" fill="white"/>
<g id="Body">
<g id="Frame 1707480568">
<g id="Card Shipment_2">
<rect x="18.5" y="16.5" width="260" height="143" rx="11.5" fill="white"/>
<rect x="18.5" y="16.5" width="260" height="143" rx="11.5" stroke="#EAEAEC"/>
<g id="Body_2">
<g id="Frame 1707480568_2">
<g id="Frame 2147223150">
<g id="Info Origin">
<g id="Main">
<path id="Time" d="M36.984 44V35.54H40.488C41.104 35.54 41.624 35.644 42.048 35.852C42.472 36.052 42.792 36.344 43.008 36.728C43.232 37.112 43.344 37.576 43.344 38.12C43.344 38.664 43.232 39.132 43.008 39.524C42.792 39.908 42.472 40.204 42.048 40.412C41.624 40.612 41.104 40.712 40.488 40.712H38.232V44H36.984ZM38.232 39.716H40.308C40.908 39.716 41.36 39.584 41.664 39.32C41.976 39.048 42.132 38.648 42.132 38.12C42.132 37.6 41.976 37.208 41.664 36.944C41.36 36.672 40.908 36.536 40.308 36.536H38.232V39.716ZM44.4432 36.788V35.528H45.8592V36.788H44.4432ZM44.5512 44V38.144H45.7632V44H44.5512ZM47.4692 44V38.144H48.6452V39.392H48.5132C48.6892 38.944 48.9652 38.608 49.3412 38.384C49.7172 38.152 50.1492 38.036 50.6372 38.036C51.1012 38.036 51.4852 38.124 51.7892 38.3C52.1012 38.468 52.3332 38.728 52.4852 39.08C52.6372 39.424 52.7132 39.86 52.7132 40.388V44H51.5012V40.46C51.5012 40.124 51.4572 39.852 51.3692 39.644C51.2812 39.428 51.1492 39.268 50.9732 39.164C50.7972 39.06 50.5692 39.008 50.2892 39.008C49.9692 39.008 49.6852 39.076 49.4372 39.212C49.1972 39.348 49.0092 39.544 48.8732 39.8C48.7452 40.056 48.6812 40.352 48.6812 40.688V44H47.4692ZM56.9633 44.108C56.3633 44.108 55.8433 43.984 55.4033 43.736C54.9713 43.48 54.6353 43.124 54.3953 42.668C54.1553 42.204 54.0353 41.66 54.0353 41.036C54.0353 40.42 54.1553 39.888 54.3953 39.44C54.6353 38.992 54.9713 38.648 55.4033 38.408C55.8433 38.16 56.3633 38.036 56.9633 38.036C57.3313 38.036 57.6953 38.1 58.0553 38.228C58.4153 38.348 58.7113 38.524 58.9433 38.756L58.5593 39.608C58.3433 39.4 58.0993 39.248 57.8273 39.152C57.5553 39.048 57.2993 38.996 57.0592 38.996C56.4913 38.996 56.0513 39.176 55.7393 39.536C55.4353 39.888 55.2833 40.392 55.2833 41.048C55.2833 41.704 55.4353 42.22 55.7393 42.596C56.0513 42.964 56.4913 43.148 57.0592 43.148C57.2993 43.148 57.5553 43.1 57.8273 43.004C58.0993 42.9 58.3433 42.744 58.5593 42.536L58.9433 43.4C58.7113 43.616 58.4113 43.788 58.0433 43.916C57.6833 44.044 57.3233 44.108 56.9633 44.108ZM62.4116 44.108C61.8196 44.108 61.3076 43.984 60.8756 43.736C60.4516 43.488 60.1196 43.136 59.8796 42.68C59.6396 42.224 59.5196 41.688 59.5196 41.072C59.5196 40.448 59.6396 39.912 59.8796 39.464C60.1196 39.008 60.4516 38.656 60.8756 38.408C61.3076 38.16 61.8196 38.036 62.4116 38.036C62.9956 38.036 63.4996 38.16 63.9236 38.408C64.3556 38.656 64.6916 39.008 64.9316 39.464C65.1716 39.92 65.2916 40.456 65.2916 41.072C65.2916 41.688 65.1716 42.224 64.9316 42.68C64.6916 43.136 64.3556 43.488 63.9236 43.736C63.4996 43.984 62.9956 44.108 62.4116 44.108ZM62.3996 43.172C62.9036 43.172 63.3076 42.992 63.6116 42.632C63.9156 42.272 64.0676 41.752 64.0676 41.072C64.0676 40.384 63.9156 39.864 63.6116 39.512C63.3076 39.16 62.9036 38.984 62.3996 38.984C61.9036 38.984 61.5036 39.16 61.1996 39.512C60.8956 39.864 60.7436 40.384 60.7436 41.072C60.7436 41.752 60.8956 42.272 61.1996 42.632C61.5036 42.992 61.9036 43.172 62.3996 43.172ZM68.8848 44.108C68.3728 44.108 67.9208 43.988 67.5288 43.748C67.1448 43.5 66.8448 43.148 66.6288 42.692C66.4128 42.228 66.3048 41.688 66.3048 41.072C66.3048 40.44 66.4128 39.9 66.6288 39.452C66.8448 39.004 67.1448 38.656 67.5288 38.408C67.9208 38.16 68.3728 38.036 68.8848 38.036C69.3968 38.036 69.8368 38.164 70.2048 38.42C70.5808 38.668 70.8328 39.004 70.9608 39.428H70.8288V35.54H72.0408V44H70.8528V42.68H70.9728C70.8448 43.112 70.5928 43.46 70.2168 43.724C69.8488 43.98 69.4048 44.108 68.8848 44.108ZM69.1968 43.172C69.6928 43.172 70.0928 42.992 70.3968 42.632C70.7008 42.272 70.8528 41.752 70.8528 41.072C70.8528 40.384 70.7008 39.864 70.3968 39.512C70.0928 39.16 69.6928 38.984 69.1968 38.984C68.6928 38.984 68.2888 39.16 67.9848 39.512C67.6808 39.864 67.5288 40.384 67.5288 41.072C67.5288 41.752 67.6808 42.272 67.9848 42.632C68.2888 42.992 68.6928 43.172 69.1968 43.172ZM76.4906 44.108C75.8506 44.108 75.2986 43.988 74.8346 43.748C74.3786 43.5 74.0226 43.152 73.7666 42.704C73.5186 42.248 73.3946 41.708 73.3946 41.084C73.3946 40.476 73.5186 39.944 73.7666 39.488C74.0146 39.032 74.3546 38.676 74.7866 38.42C75.2186 38.164 75.7106 38.036 76.2626 38.036C76.8066 38.036 77.2706 38.156 77.6546 38.396C78.0466 38.628 78.3466 38.96 78.5546 39.392C78.7626 39.824 78.8666 40.34 78.8666 40.94V41.348H74.3546V40.604H78.0506L77.8466 40.772C77.8466 40.172 77.7146 39.708 77.4506 39.38C77.1866 39.052 76.8066 38.888 76.3106 38.888C75.9346 38.888 75.6146 38.976 75.3506 39.152C75.0946 39.328 74.8986 39.572 74.7626 39.884C74.6266 40.196 74.5586 40.56 74.5586 40.976V41.048C74.5586 41.512 74.6306 41.904 74.7746 42.224C74.9266 42.536 75.1466 42.772 75.4346 42.932C75.7226 43.092 76.0786 43.172 76.5026 43.172C76.8386 43.172 77.1666 43.12 77.4866 43.016C77.8146 42.904 78.1226 42.732 78.4106 42.5L78.7706 43.34C78.5066 43.58 78.1666 43.768 77.7506 43.904C77.3346 44.04 76.9146 44.108 76.4906 44.108ZM86.0883 44.108C85.1203 44.108 84.3643 43.9 83.8203 43.484C83.2843 43.068 83.0163 42.488 83.0163 41.744C83.0163 41.344 83.0963 40.992 83.2563 40.688C83.4163 40.376 83.6403 40.124 83.9283 39.932C84.2163 39.74 84.5483 39.62 84.9243 39.572V39.788C84.5803 39.716 84.2803 39.584 84.0243 39.392C83.7683 39.192 83.5683 38.948 83.4243 38.66C83.2883 38.364 83.2203 38.04 83.2203 37.688C83.2203 36.984 83.4803 36.432 84.0003 36.032C84.5203 35.632 85.2163 35.432 86.0883 35.432C86.9683 35.432 87.6683 35.632 88.1883 36.032C88.7083 36.432 88.9683 36.984 88.9683 37.688C88.9683 38.04 88.8963 38.364 88.7523 38.66C88.6163 38.948 88.4203 39.192 88.1643 39.392C87.9083 39.584 87.6083 39.712 87.2643 39.776V39.572C87.6483 39.62 87.9803 39.744 88.2603 39.944C88.5403 40.136 88.7603 40.384 88.9203 40.688C89.0803 40.992 89.1603 41.344 89.1603 41.744C89.1603 42.488 88.8883 43.068 88.3443 43.484C87.8083 43.9 87.0563 44.108 86.0883 44.108ZM86.0883 43.124C86.7203 43.124 87.1963 43.004 87.5163 42.764C87.8363 42.516 87.9963 42.148 87.9963 41.66C87.9963 41.172 87.8363 40.808 87.5163 40.568C87.1963 40.328 86.7203 40.208 86.0883 40.208C85.4643 40.208 84.9883 40.328 84.6603 40.568C84.3403 40.808 84.1803 41.172 84.1803 41.66C84.1803 42.148 84.3403 42.516 84.6603 42.764C84.9883 43.004 85.4643 43.124 86.0883 43.124ZM86.0883 39.224C86.6243 39.224 87.0403 39.1 87.3363 38.852C87.6403 38.596 87.7923 38.248 87.7923 37.808C87.7923 37.376 87.6403 37.036 87.3363 36.788C87.0403 36.54 86.6243 36.416 86.0883 36.416C85.5523 36.416 85.1363 36.54 84.8403 36.788C84.5443 37.036 84.3963 37.376 84.3963 37.808C84.3963 38.248 84.5443 38.596 84.8403 38.852C85.1363 39.1 85.5523 39.224 86.0883 39.224ZM94.0516 44V42.284H90.2476V41.36L94.2676 35.54H95.2876V41.24H96.5236V42.284H95.2876V44H94.0516ZM94.0516 41.24V37.028H94.3756L91.2556 41.576V41.24H94.0516ZM100.611 44.108C100.243 44.108 99.8829 44.068 99.5309 43.988C99.1869 43.908 98.8629 43.796 98.5589 43.652C98.2549 43.508 97.9909 43.332 97.7669 43.124L98.1869 42.164C98.5709 42.468 98.9589 42.692 99.3509 42.836C99.7429 42.98 100.155 43.052 100.587 43.052C101.139 43.052 101.571 42.904 101.883 42.608C102.195 42.312 102.351 41.916 102.351 41.42C102.351 40.916 102.203 40.504 101.907 40.184C101.611 39.864 101.199 39.704 100.671 39.704C100.295 39.704 99.9589 39.78 99.6629 39.932C99.3749 40.084 99.1149 40.316 98.8829 40.628H98.0189V35.54H103.059V36.584H99.2309V39.632H98.8949C99.1109 39.328 99.3949 39.092 99.7469 38.924C100.107 38.756 100.503 38.672 100.935 38.672C101.471 38.672 101.935 38.784 102.327 39.008C102.719 39.232 103.023 39.548 103.239 39.956C103.455 40.356 103.563 40.824 103.563 41.36C103.563 41.904 103.443 42.384 103.203 42.8C102.963 43.208 102.623 43.528 102.183 43.76C101.743 43.992 101.219 44.108 100.611 44.108ZM108.442 44V42.284H104.638V41.36L108.658 35.54H109.678V41.24H110.914V42.284H109.678V44H108.442ZM108.442 41.24V37.028H108.766L105.646 41.576V41.24H108.442ZM114.87 44.108C114.214 44.108 113.662 43.94 113.214 43.604C112.766 43.268 112.426 42.78 112.194 42.14C111.962 41.492 111.846 40.7 111.846 39.764C111.846 38.812 111.962 38.016 112.194 37.376C112.426 36.736 112.766 36.252 113.214 35.924C113.662 35.596 114.214 35.432 114.87 35.432C115.534 35.432 116.09 35.596 116.538 35.924C116.986 36.244 117.322 36.724 117.546 37.364C117.778 38.004 117.894 38.8 117.894 39.752C117.894 40.688 117.778 41.48 117.546 42.128C117.314 42.776 116.974 43.268 116.526 43.604C116.078 43.94 115.526 44.108 114.87 44.108ZM114.87 43.076C115.486 43.076 115.938 42.808 116.226 42.272C116.522 41.736 116.67 40.896 116.67 39.752C116.67 38.608 116.522 37.776 116.226 37.256C115.938 36.728 115.486 36.464 114.87 36.464C114.262 36.464 113.81 36.728 113.514 37.256C113.218 37.776 113.07 38.608 113.07 39.752C113.07 40.896 113.218 41.736 113.514 42.272C113.81 42.808 114.262 43.076 114.87 43.076ZM119.869 44V42.956H121.789V36.596H122.413L120.289 37.916L119.785 36.992L122.149 35.54H123.025V42.956H124.825V44H119.869ZM126.5 41.288V40.304H129.956V41.288H126.5ZM137.425 44.108C137.049 44.108 136.681 44.072 136.321 44C135.969 43.92 135.637 43.808 135.325 43.664C135.021 43.512 134.753 43.332 134.521 43.124L134.953 42.164C135.329 42.468 135.717 42.692 136.117 42.836C136.517 42.98 136.941 43.052 137.389 43.052C137.773 43.052 138.097 42.996 138.361 42.884C138.625 42.772 138.821 42.608 138.949 42.392C139.085 42.176 139.153 41.916 139.153 41.612C139.153 41.156 139.001 40.816 138.697 40.592C138.401 40.36 137.969 40.244 137.401 40.244H136.093V39.2H137.281C137.625 39.2 137.917 39.144 138.157 39.032C138.397 38.912 138.581 38.748 138.709 38.54C138.845 38.324 138.913 38.064 138.913 37.76C138.913 37.352 138.777 37.04 138.505 36.824C138.241 36.6 137.853 36.488 137.341 36.488C136.909 36.488 136.509 36.564 136.141 36.716C135.773 36.868 135.425 37.1 135.097 37.412L134.665 36.464C134.993 36.136 135.401 35.884 135.889 35.708C136.385 35.524 136.901 35.432 137.437 35.432C137.997 35.432 138.477 35.52 138.877 35.696C139.285 35.872 139.593 36.124 139.801 36.452C140.017 36.78 140.125 37.172 140.125 37.628C140.125 38.14 139.981 38.584 139.693 38.96C139.413 39.328 139.025 39.572 138.529 39.692V39.56C138.921 39.624 139.253 39.752 139.525 39.944C139.797 40.136 140.005 40.38 140.149 40.676C140.293 40.972 140.365 41.312 140.365 41.696C140.365 42.192 140.245 42.624 140.005 42.992C139.773 43.352 139.437 43.628 138.997 43.82C138.557 44.012 138.033 44.108 137.425 44.108ZM145.289 44V35.54H148.793C149.705 35.54 150.409 35.756 150.905 36.188C151.401 36.62 151.649 37.232 151.649 38.024C151.649 38.536 151.537 38.976 151.313 39.344C151.089 39.712 150.761 39.992 150.329 40.184C149.905 40.376 149.393 40.472 148.793 40.472L148.901 40.304H149.213C149.533 40.304 149.809 40.384 150.041 40.544C150.281 40.704 150.497 40.96 150.689 41.312L152.153 44H150.785L149.321 41.3C149.209 41.092 149.085 40.932 148.949 40.82C148.821 40.7 148.669 40.62 148.493 40.58C148.325 40.532 148.125 40.508 147.893 40.508H146.537V44H145.289ZM146.537 39.572H148.589C149.197 39.572 149.657 39.444 149.969 39.188C150.281 38.932 150.437 38.552 150.437 38.048C150.437 37.552 150.281 37.176 149.969 36.92C149.657 36.664 149.197 36.536 148.589 36.536H146.537V39.572ZM155.239 44V36.584H152.239V35.54H159.475V36.584H156.475V44H155.239ZM163.656 44.108C163.056 44.108 162.512 44.008 162.024 43.808C161.536 43.608 161.116 43.316 160.764 42.932C160.42 42.548 160.156 42.092 159.972 41.564C159.788 41.028 159.696 40.428 159.696 39.764C159.696 39.1 159.788 38.504 159.972 37.976C160.156 37.44 160.42 36.984 160.764 36.608C161.108 36.224 161.524 35.932 162.012 35.732C162.5 35.532 163.048 35.432 163.656 35.432C164.256 35.432 164.8 35.532 165.288 35.732C165.776 35.932 166.192 36.22 166.536 36.596C166.888 36.972 167.156 37.428 167.34 37.964C167.524 38.492 167.616 39.088 167.616 39.752C167.616 40.416 167.524 41.016 167.34 41.552C167.156 42.088 166.888 42.548 166.536 42.932C166.192 43.316 165.776 43.608 165.288 43.808C164.8 44.008 164.256 44.108 163.656 44.108ZM163.656 43.028C164.216 43.028 164.692 42.9 165.084 42.644C165.484 42.388 165.788 42.016 165.996 41.528C166.212 41.04 166.32 40.452 166.32 39.764C166.32 39.076 166.216 38.488 166.008 38C165.8 37.512 165.496 37.144 165.096 36.896C164.704 36.64 164.224 36.512 163.656 36.512C163.096 36.512 162.616 36.64 162.216 36.896C161.824 37.144 161.52 37.512 161.304 38C161.096 38.488 160.992 39.076 160.992 39.764C160.992 40.444 161.096 41.032 161.304 41.528C161.52 42.016 161.824 42.388 162.216 42.644C162.616 42.9 163.096 43.028 163.656 43.028ZM171.209 44.108C170.897 44.108 170.593 44.08 170.297 44.024C170.001 43.968 169.729 43.888 169.481 43.784C169.233 43.68 169.013 43.552 168.821 43.4L169.169 42.584C169.369 42.72 169.581 42.84 169.805 42.944C170.029 43.04 170.261 43.112 170.501 43.16C170.749 43.208 170.989 43.232 171.221 43.232C171.645 43.232 171.965 43.156 172.181 43.004C172.397 42.852 172.505 42.648 172.505 42.392C172.505 42.184 172.433 42.024 172.289 41.912C172.145 41.792 171.929 41.7 171.641 41.636L170.501 41.408C170.005 41.304 169.629 41.12 169.373 40.856C169.117 40.592 168.989 40.256 168.989 39.848C168.989 39.48 169.089 39.16 169.289 38.888C169.489 38.616 169.769 38.408 170.129 38.264C170.489 38.112 170.905 38.036 171.377 38.036C171.649 38.036 171.913 38.064 172.169 38.12C172.425 38.176 172.665 38.256 172.889 38.36C173.121 38.464 173.317 38.596 173.477 38.756L173.129 39.572C172.977 39.436 172.801 39.32 172.601 39.224C172.409 39.128 172.209 39.056 172.001 39.008C171.793 38.952 171.585 38.924 171.377 38.924C170.953 38.924 170.633 39.004 170.417 39.164C170.209 39.316 170.105 39.524 170.105 39.788C170.105 39.988 170.169 40.152 170.297 40.28C170.425 40.408 170.625 40.5 170.897 40.556L172.037 40.784C172.557 40.888 172.949 41.064 173.213 41.312C173.485 41.56 173.621 41.896 173.621 42.32C173.621 42.688 173.521 43.008 173.321 43.28C173.121 43.552 172.837 43.76 172.469 43.904C172.109 44.04 171.689 44.108 171.209 44.108ZM174.813 44.792L173.889 44.516L176.973 34.94L177.909 35.216L174.813 44.792ZM184.3 44.108C183.924 44.108 183.556 44.072 183.196 44C182.844 43.92 182.512 43.808 182.2 43.664C181.896 43.512 181.628 43.332 181.396 43.124L181.828 42.164C182.204 42.468 182.592 42.692 182.992 42.836C183.392 42.98 183.816 43.052 184.264 43.052C184.648 43.052 184.972 42.996 185.236 42.884C185.5 42.772 185.696 42.608 185.824 42.392C185.96 42.176 186.028 41.916 186.028 41.612C186.028 41.156 185.876 40.816 185.572 40.592C185.276 40.36 184.844 40.244 184.276 40.244H182.968V39.2H184.156C184.5 39.2 184.792 39.144 185.032 39.032C185.272 38.912 185.456 38.748 185.584 38.54C185.72 38.324 185.788 38.064 185.788 37.76C185.788 37.352 185.652 37.04 185.38 36.824C185.116 36.6 184.728 36.488 184.216 36.488C183.784 36.488 183.384 36.564 183.016 36.716C182.648 36.868 182.3 37.1 181.972 37.412L181.54 36.464C181.868 36.136 182.276 35.884 182.764 35.708C183.26 35.524 183.776 35.432 184.312 35.432C184.872 35.432 185.352 35.52 185.752 35.696C186.16 35.872 186.468 36.124 186.676 36.452C186.892 36.78 187 37.172 187 37.628C187 38.14 186.856 38.584 186.568 38.96C186.288 39.328 185.9 39.572 185.404 39.692V39.56C185.796 39.624 186.128 39.752 186.4 39.944C186.672 40.136 186.88 40.38 187.024 40.676C187.168 40.972 187.24 41.312 187.24 41.696C187.24 42.192 187.12 42.624 186.88 42.992C186.648 43.352 186.312 43.628 185.872 43.82C185.432 44.012 184.908 44.108 184.3 44.108ZM191.627 44.108C190.971 44.108 190.419 43.94 189.971 43.604C189.523 43.268 189.183 42.78 188.951 42.14C188.719 41.492 188.603 40.7 188.603 39.764C188.603 38.812 188.719 38.016 188.951 37.376C189.183 36.736 189.523 36.252 189.971 35.924C190.419 35.596 190.971 35.432 191.627 35.432C192.291 35.432 192.847 35.596 193.295 35.924C193.743 36.244 194.079 36.724 194.303 37.364C194.535 38.004 194.651 38.8 194.651 39.752C194.651 40.688 194.535 41.48 194.303 42.128C194.071 42.776 193.731 43.268 193.283 43.604C192.835 43.94 192.283 44.108 191.627 44.108ZM191.627 43.076C192.243 43.076 192.695 42.808 192.983 42.272C193.279 41.736 193.427 40.896 193.427 39.752C193.427 38.608 193.279 37.776 192.983 37.256C192.695 36.728 192.243 36.464 191.627 36.464C191.019 36.464 190.567 36.728 190.271 37.256C189.975 37.776 189.827 38.608 189.827 39.752C189.827 40.896 189.975 41.736 190.271 42.272C190.567 42.808 191.019 43.076 191.627 43.076ZM198.307 44.108C197.795 44.108 197.343 43.988 196.951 43.748C196.567 43.5 196.267 43.148 196.051 42.692C195.835 42.228 195.727 41.688 195.727 41.072C195.727 40.44 195.835 39.9 196.051 39.452C196.267 39.004 196.567 38.656 196.951 38.408C197.343 38.16 197.795 38.036 198.307 38.036C198.819 38.036 199.259 38.164 199.627 38.42C200.003 38.668 200.255 39.004 200.383 39.428H200.251V35.54H201.463V44H200.275V42.68H200.395C200.267 43.112 200.015 43.46 199.639 43.724C199.271 43.98 198.827 44.108 198.307 44.108ZM198.619 43.172C199.115 43.172 199.515 42.992 199.819 42.632C200.123 42.272 200.275 41.752 200.275 41.072C200.275 40.384 200.123 39.864 199.819 39.512C199.515 39.16 199.115 38.984 198.619 38.984C198.115 38.984 197.711 39.16 197.407 39.512C197.103 39.864 196.951 40.384 196.951 41.072C196.951 41.752 197.103 42.272 197.407 42.632C197.711 42.992 198.115 43.172 198.619 43.172ZM213.301 41.408C213.397 41.184 213.497 40.98 213.601 40.796C213.705 40.612 213.813 40.448 213.925 40.304H207.289V39.488H213.925C213.813 39.344 213.705 39.18 213.601 38.996C213.497 38.804 213.397 38.6 213.301 38.384H214.033C214.529 38.968 215.065 39.404 215.641 39.692V40.1C215.073 40.38 214.537 40.816 214.033 41.408H213.301ZM218.317 46.16V38.144H219.505V39.464H219.373C219.501 39.032 219.753 38.688 220.129 38.432C220.505 38.168 220.949 38.036 221.461 38.036C221.981 38.036 222.433 38.16 222.817 38.408C223.209 38.656 223.509 39.004 223.717 39.452C223.933 39.9 224.041 40.44 224.041 41.072C224.041 41.688 223.933 42.228 223.717 42.692C223.509 43.148 223.213 43.5 222.829 43.748C222.445 43.988 221.989 44.108 221.461 44.108C220.957 44.108 220.517 43.98 220.141 43.724C219.765 43.468 219.513 43.128 219.385 42.704H219.529V46.16H218.317ZM221.161 43.172C221.665 43.172 222.065 42.992 222.361 42.632C222.665 42.272 222.817 41.752 222.817 41.072C222.817 40.384 222.665 39.864 222.361 39.512C222.065 39.16 221.665 38.984 221.161 38.984C220.665 38.984 220.265 39.16 219.961 39.512C219.657 39.864 219.505 40.384 219.505 41.072C219.505 41.752 219.657 42.272 219.961 42.632C220.265 42.992 220.665 43.172 221.161 43.172ZM225.407 44V38.144H226.583V39.548H226.463C226.591 39.068 226.819 38.704 227.147 38.456C227.483 38.208 227.927 38.064 228.479 38.024L228.875 38L228.959 39.032L228.227 39.104C227.707 39.152 227.311 39.316 227.039 39.596C226.767 39.876 226.631 40.26 226.631 40.748V44H225.407ZM232.549 44.108C231.909 44.108 231.357 43.988 230.893 43.748C230.437 43.5 230.081 43.152 229.825 42.704C229.577 42.248 229.453 41.708 229.453 41.084C229.453 40.476 229.577 39.944 229.825 39.488C230.073 39.032 230.413 38.676 230.845 38.42C231.277 38.164 231.769 38.036 232.321 38.036C232.865 38.036 233.329 38.156 233.713 38.396C234.105 38.628 234.405 38.96 234.613 39.392C234.821 39.824 234.925 40.34 234.925 40.94V41.348H230.413V40.604H234.109L233.905 40.772C233.905 40.172 233.773 39.708 233.509 39.38C233.245 39.052 232.865 38.888 232.369 38.888C231.993 38.888 231.673 38.976 231.409 39.152C231.153 39.328 230.957 39.572 230.821 39.884C230.685 40.196 230.617 40.56 230.617 40.976V41.048C230.617 41.512 230.689 41.904 230.833 42.224C230.985 42.536 231.205 42.772 231.493 42.932C231.781 43.092 232.137 43.172 232.561 43.172C232.897 43.172 233.225 43.12 233.545 43.016C233.873 42.904 234.181 42.732 234.469 42.5L234.829 43.34C234.565 43.58 234.225 43.768 233.809 43.904C233.393 44.04 232.973 44.108 232.549 44.108ZM236.247 46.16V38.144H237.435V39.464H237.303C237.431 39.032 237.683 38.688 238.059 38.432C238.435 38.168 238.879 38.036 239.391 38.036C239.911 38.036 240.363 38.16 240.747 38.408C241.139 38.656 241.439 39.004 241.647 39.452C241.863 39.9 241.971 40.44 241.971 41.072C241.971 41.688 241.863 42.228 241.647 42.692C241.439 43.148 241.143 43.5 240.759 43.748C240.375 43.988 239.919 44.108 239.391 44.108C238.887 44.108 238.447 43.98 238.071 43.724C237.695 43.468 237.443 43.128 237.315 42.704H237.459V46.16H236.247ZM239.091 43.172C239.595 43.172 239.995 42.992 240.291 42.632C240.595 42.272 240.747 41.752 240.747 41.072C240.747 40.384 240.595 39.864 240.291 39.512C239.995 39.16 239.595 38.984 239.091 38.984C238.595 38.984 238.195 39.16 237.891 39.512C237.587 39.864 237.435 40.384 237.435 41.072C237.435 41.752 237.587 42.272 237.891 42.632C238.195 42.992 238.595 43.172 239.091 43.172ZM245.208 44.108C244.8 44.108 244.432 44.028 244.104 43.868C243.784 43.708 243.532 43.492 243.348 43.22C243.164 42.948 243.072 42.64 243.072 42.296C243.072 41.864 243.18 41.524 243.396 41.276C243.62 41.02 243.984 40.84 244.488 40.736C245 40.624 245.688 40.568 246.552 40.568H247.116V41.312H246.564C246.132 41.312 245.768 41.328 245.472 41.36C245.176 41.392 244.94 41.444 244.764 41.516C244.588 41.58 244.46 41.672 244.38 41.792C244.308 41.912 244.272 42.056 244.272 42.224C244.272 42.528 244.376 42.776 244.584 42.968C244.792 43.152 245.08 43.244 245.448 43.244C245.744 43.244 246.004 43.176 246.228 43.04C246.452 42.896 246.628 42.704 246.756 42.464C246.892 42.224 246.96 41.948 246.96 41.636V40.256C246.96 39.8 246.864 39.472 246.672 39.272C246.48 39.072 246.164 38.972 245.724 38.972C245.388 38.972 245.052 39.024 244.716 39.128C244.38 39.224 244.036 39.38 243.684 39.596L243.312 38.744C243.52 38.6 243.76 38.476 244.032 38.372C244.304 38.268 244.588 38.188 244.884 38.132C245.188 38.068 245.48 38.036 245.76 38.036C246.296 38.036 246.736 38.12 247.08 38.288C247.432 38.456 247.692 38.712 247.86 39.056C248.028 39.4 248.112 39.844 248.112 40.388V44H246.972V42.692H247.08C247.016 42.988 246.896 43.244 246.72 43.46C246.552 43.668 246.34 43.828 246.084 43.94C245.828 44.052 245.536 44.108 245.208 44.108ZM249.674 36.788V35.528H251.09V36.788H249.674ZM249.782 44V38.144H250.994V44H249.782ZM254.932 44.108C254.42 44.108 253.968 43.988 253.576 43.748C253.192 43.5 252.892 43.148 252.676 42.692C252.46 42.228 252.352 41.688 252.352 41.072C252.352 40.44 252.46 39.9 252.676 39.452C252.892 39.004 253.192 38.656 253.576 38.408C253.968 38.16 254.42 38.036 254.932 38.036C255.444 38.036 255.884 38.164 256.252 38.42C256.628 38.668 256.88 39.004 257.008 39.428H256.876V35.54H258.088V44H256.9V42.68H257.02C256.892 43.112 256.64 43.46 256.264 43.724C255.896 43.98 255.452 44.108 254.932 44.108ZM255.244 43.172C255.74 43.172 256.14 42.992 256.444 42.632C256.748 42.272 256.9 41.752 256.9 41.072C256.9 40.384 256.748 39.864 256.444 39.512C256.14 39.16 255.74 38.984 255.244 38.984C254.74 38.984 254.336 39.16 254.032 39.512C253.728 39.864 253.576 40.384 253.576 41.072C253.576 41.752 253.728 42.272 254.032 42.632C254.336 42.992 254.74 43.172 255.244 43.172ZM39.396 60.108C38.804 60.108 38.292 59.984 37.86 59.736C37.436 59.488 37.104 59.136 36.864 58.68C36.624 58.224 36.504 57.688 36.504 57.072C36.504 56.448 36.624 55.912 36.864 55.464C37.104 55.008 37.436 54.656 37.86 54.408C38.292 54.16 38.804 54.036 39.396 54.036C39.98 54.036 40.484 54.16 40.908 54.408C41.34 54.656 41.676 55.008 41.916 55.464C42.156 55.92 42.276 56.456 42.276 57.072C42.276 57.688 42.156 58.224 41.916 58.68C41.676 59.136 41.34 59.488 40.908 59.736C40.484 59.984 39.98 60.108 39.396 60.108ZM39.384 59.172C39.888 59.172 40.292 58.992 40.596 58.632C40.9 58.272 41.052 57.752 41.052 57.072C41.052 56.384 40.9 55.864 40.596 55.512C40.292 55.16 39.888 54.984 39.384 54.984C38.888 54.984 38.488 55.16 38.184 55.512C37.88 55.864 37.728 56.384 37.728 57.072C37.728 57.752 37.88 58.272 38.184 58.632C38.488 58.992 38.888 59.172 39.384 59.172ZM43.6372 60V54.144H44.8132V55.392H44.6812C44.8572 54.944 45.1332 54.608 45.5092 54.384C45.8852 54.152 46.3172 54.036 46.8052 54.036C47.2692 54.036 47.6532 54.124 47.9572 54.3C48.2692 54.468 48.5012 54.728 48.6532 55.08C48.8052 55.424 48.8812 55.86 48.8812 56.388V60H47.6692V56.46C47.6692 56.124 47.6252 55.852 47.5372 55.644C47.4492 55.428 47.3172 55.268 47.1412 55.164C46.9652 55.06 46.7372 55.008 46.4572 55.008C46.1372 55.008 45.8532 55.076 45.6052 55.212C45.3652 55.348 45.1772 55.544 45.0412 55.8C44.9132 56.056 44.8492 56.352 44.8492 56.688V60H43.6372ZM52.4592 60.108C51.8192 60.108 51.3392 59.928 51.0192 59.568C50.7072 59.2 50.5512 58.672 50.5512 57.984V51.54H51.7632V57.912C51.7632 58.168 51.7992 58.388 51.8712 58.572C51.9432 58.748 52.0512 58.88 52.1952 58.968C52.3392 59.056 52.5192 59.1 52.7352 59.1C52.8312 59.1 52.9232 59.096 53.0112 59.088C53.0992 59.08 53.1832 59.064 53.2632 59.04L53.2392 60.012C53.1032 60.044 52.9712 60.068 52.8432 60.084C52.7152 60.1 52.5872 60.108 52.4592 60.108ZM54.6786 62.16L55.8306 59.592V60.108L53.2746 54.144H54.5706L56.5386 59.004H56.2026L58.1946 54.144H59.4426L55.9506 62.16H54.6786Z" fill="#BD8125"/>
</g>
</g>
<path id="Line 344" d="M36 76H261" stroke="#EAEAEC" stroke-linecap="round"/>
<g id="Info Origin_2">
<g id="Main_2">
<path id="Time_2" d="M40.704 100.108C39.872 100.108 39.16 99.932 38.568 99.58C37.976 99.228 37.52 98.728 37.2 98.08C36.888 97.432 36.732 96.66 36.732 95.764C36.732 94.868 36.888 94.1 37.2 93.46C37.52 92.812 37.976 92.312 38.568 91.96C39.16 91.608 39.872 91.432 40.704 91.432C41.288 91.432 41.828 91.524 42.324 91.708C42.82 91.892 43.236 92.16 43.572 92.512L43.188 93.316C42.82 92.972 42.436 92.724 42.036 92.572C41.644 92.412 41.208 92.332 40.728 92.332C39.776 92.332 39.048 92.632 38.544 93.232C38.04 93.832 37.788 94.676 37.788 95.764C37.788 96.852 38.04 97.7 38.544 98.308C39.048 98.908 39.776 99.208 40.728 99.208C41.208 99.208 41.644 99.132 42.036 98.98C42.436 98.82 42.82 98.568 43.188 98.224L43.572 99.028C43.236 99.372 42.82 99.64 42.324 99.832C41.828 100.016 41.288 100.108 40.704 100.108ZM46.9213 100.108C46.4493 100.108 46.0573 100.024 45.7453 99.856C45.4413 99.68 45.2093 99.42 45.0493 99.076C44.8973 98.732 44.8213 98.304 44.8213 97.792V94.168H45.7933V97.78C45.7933 98.124 45.8373 98.412 45.9253 98.644C46.0213 98.868 46.1693 99.036 46.3693 99.148C46.5693 99.252 46.8173 99.304 47.1133 99.304C47.4493 99.304 47.7413 99.228 47.9893 99.076C48.2373 98.924 48.4333 98.712 48.5773 98.44C48.7213 98.168 48.7933 97.848 48.7933 97.48V94.168H49.7653V100H48.8173V98.656H48.9733C48.8133 99.128 48.5493 99.488 48.1813 99.736C47.8213 99.984 47.4013 100.108 46.9213 100.108ZM53.5519 100.108C53.2479 100.108 52.9519 100.076 52.6639 100.012C52.3839 99.956 52.1199 99.876 51.8719 99.772C51.6319 99.66 51.4239 99.528 51.2479 99.376L51.5599 98.692C51.7519 98.844 51.9599 98.972 52.1839 99.076C52.4079 99.172 52.6359 99.244 52.8679 99.292C53.0999 99.34 53.3359 99.364 53.5759 99.364C54.0319 99.364 54.3759 99.28 54.6079 99.112C54.8399 98.944 54.9559 98.716 54.9559 98.428C54.9559 98.204 54.8799 98.028 54.7279 97.9C54.5759 97.764 54.3359 97.66 54.0079 97.588L52.9159 97.348C52.4119 97.244 52.0359 97.064 51.7879 96.808C51.5479 96.552 51.4279 96.22 51.4279 95.812C51.4279 95.452 51.5199 95.144 51.7039 94.888C51.8959 94.624 52.1639 94.42 52.5079 94.276C52.8519 94.132 53.2519 94.06 53.7079 94.06C53.9799 94.06 54.2399 94.088 54.4879 94.144C54.7359 94.2 54.9679 94.284 55.1839 94.396C55.4079 94.5 55.5999 94.632 55.7599 94.792L55.4359 95.476C55.2839 95.332 55.1119 95.212 54.9199 95.116C54.7279 95.012 54.5279 94.936 54.3199 94.888C54.1199 94.832 53.9159 94.804 53.7079 94.804C53.2599 94.804 52.9199 94.892 52.6879 95.068C52.4559 95.244 52.3399 95.476 52.3399 95.764C52.3399 95.988 52.4119 96.172 52.5559 96.316C52.6999 96.46 52.9239 96.564 53.2279 96.628L54.3199 96.856C54.8399 96.968 55.2279 97.148 55.4839 97.396C55.7479 97.636 55.8799 97.964 55.8799 98.38C55.8799 98.732 55.7839 99.04 55.5919 99.304C55.3999 99.56 55.1279 99.76 54.7759 99.904C54.4319 100.04 54.0239 100.108 53.5519 100.108ZM59.6426 100.108C58.9546 100.108 58.4386 99.924 58.0946 99.556C57.7506 99.188 57.5786 98.664 57.5786 97.984V94.924H56.4386V94.168H57.5786V92.38H58.5506V94.168H60.3986V94.924H58.5506V97.888C58.5506 98.344 58.6466 98.692 58.8386 98.932C59.0306 99.164 59.3426 99.28 59.7746 99.28C59.9026 99.28 60.0306 99.264 60.1586 99.232C60.2866 99.2 60.4026 99.168 60.5066 99.136L60.6746 99.88C60.5706 99.936 60.4186 99.988 60.2186 100.036C60.0186 100.084 59.8266 100.108 59.6426 100.108ZM63.8633 100.108C63.2953 100.108 62.8033 99.984 62.3873 99.736C61.9713 99.488 61.6473 99.14 61.4153 98.692C61.1913 98.236 61.0793 97.7 61.0793 97.084C61.0793 96.468 61.1913 95.936 61.4153 95.488C61.6473 95.032 61.9713 94.68 62.3873 94.432C62.8033 94.184 63.2953 94.06 63.8633 94.06C64.4313 94.06 64.9233 94.184 65.3393 94.432C65.7553 94.68 66.0753 95.032 66.2993 95.488C66.5313 95.936 66.6473 96.468 66.6473 97.084C66.6473 97.7 66.5313 98.236 66.2993 98.692C66.0753 99.14 65.7553 99.488 65.3393 99.736C64.9233 99.984 64.4313 100.108 63.8633 100.108ZM63.8633 99.328C64.4153 99.328 64.8513 99.136 65.1713 98.752C65.4993 98.36 65.6633 97.8 65.6633 97.072C65.6633 96.352 65.4993 95.8 65.1713 95.416C64.8513 95.032 64.4153 94.84 63.8633 94.84C63.3193 94.84 62.8833 95.032 62.5553 95.416C62.2273 95.8 62.0633 96.352 62.0633 97.072C62.0633 97.8 62.2273 98.36 62.5553 98.752C62.8833 99.136 63.3193 99.328 63.8633 99.328ZM68.1313 100V94.168H69.0793V95.464H68.9473C69.0433 95.168 69.1833 94.916 69.3673 94.708C69.5593 94.492 69.7833 94.332 70.0393 94.228C70.3033 94.116 70.5913 94.06 70.9033 94.06C71.3993 94.06 71.7993 94.18 72.1033 94.42C72.4153 94.652 72.6233 95.016 72.7273 95.512H72.5473C72.6913 95.064 72.9473 94.712 73.3153 94.456C73.6913 94.192 74.1273 94.06 74.6233 94.06C75.0633 94.06 75.4233 94.144 75.7033 94.312C75.9913 94.48 76.2073 94.736 76.3513 95.08C76.4953 95.416 76.5673 95.844 76.5673 96.364V100H75.5953V96.412C75.5953 95.876 75.5033 95.484 75.3193 95.236C75.1353 94.98 74.8233 94.852 74.3833 94.852C74.0713 94.852 73.7953 94.928 73.5553 95.08C73.3233 95.232 73.1433 95.448 73.0153 95.728C72.8953 96 72.8353 96.324 72.8353 96.7V100H71.8633V96.412C71.8633 95.876 71.7673 95.484 71.5753 95.236C71.3913 94.98 71.0833 94.852 70.6513 94.852C70.3313 94.852 70.0553 94.928 69.8233 95.08C69.5913 95.232 69.4113 95.448 69.2833 95.728C69.1633 96 69.1033 96.324 69.1033 96.7V100H68.1313ZM81.0127 100.108C80.3967 100.108 79.8647 99.988 79.4167 99.748C78.9767 99.5 78.6327 99.152 78.3847 98.704C78.1447 98.256 78.0247 97.72 78.0247 97.096C78.0247 96.488 78.1447 95.96 78.3847 95.512C78.6247 95.056 78.9527 94.7 79.3687 94.444C79.7927 94.188 80.2807 94.06 80.8327 94.06C81.3607 94.06 81.8127 94.176 82.1887 94.408C82.5647 94.64 82.8527 94.968 83.0527 95.392C83.2607 95.816 83.3647 96.324 83.3647 96.916V97.288H78.7687V96.652H82.7167L82.5247 96.808C82.5247 96.168 82.3807 95.672 82.0927 95.32C81.8127 94.96 81.4007 94.78 80.8567 94.78C80.4487 94.78 80.1007 94.876 79.8127 95.068C79.5327 95.252 79.3207 95.512 79.1767 95.848C79.0327 96.176 78.9607 96.56 78.9607 97V97.072C78.9607 97.56 79.0367 97.972 79.1887 98.308C79.3487 98.644 79.5847 98.9 79.8967 99.076C80.2087 99.244 80.5807 99.328 81.0127 99.328C81.3567 99.328 81.6887 99.276 82.0087 99.172C82.3367 99.06 82.6447 98.88 82.9327 98.632L83.2687 99.316C83.0047 99.556 82.6687 99.748 82.2607 99.892C81.8527 100.036 81.4367 100.108 81.0127 100.108ZM84.7714 100V94.168H85.7194V95.548H85.5994C85.7354 95.076 85.9714 94.72 86.3074 94.48C86.6434 94.232 87.0874 94.088 87.6394 94.048L87.9874 94.012L88.0594 94.852L87.4474 94.924C86.9034 94.972 86.4834 95.148 86.1874 95.452C85.8994 95.748 85.7554 96.156 85.7554 96.676V100H84.7714ZM94.2662 100.108C93.9782 100.108 93.6862 100.068 93.3902 99.988C93.0942 99.9 92.8142 99.78 92.5502 99.628C92.2942 99.476 92.0702 99.296 91.8782 99.088L92.2502 98.308C92.5382 98.62 92.8582 98.852 93.2102 99.004C93.5622 99.156 93.9182 99.232 94.2782 99.232C94.6702 99.232 95.0182 99.16 95.3222 99.016C95.6262 98.872 95.8822 98.656 96.0902 98.368C96.2982 98.072 96.4542 97.708 96.5582 97.276C96.6702 96.836 96.7262 96.328 96.7262 95.752V94.636H96.8222C96.7742 95.084 96.6382 95.476 96.4142 95.812C96.1982 96.148 95.9182 96.404 95.5742 96.58C95.2302 96.756 94.8422 96.844 94.4102 96.844C93.9142 96.844 93.4742 96.732 93.0902 96.508C92.7142 96.284 92.4142 95.968 92.1902 95.56C91.9742 95.152 91.8662 94.692 91.8662 94.18C91.8662 93.644 91.9782 93.172 92.2022 92.764C92.4342 92.348 92.7502 92.024 93.1502 91.792C93.5582 91.552 94.0262 91.432 94.5542 91.432C95.2182 91.432 95.7822 91.596 96.2462 91.924C96.7182 92.244 97.0742 92.712 97.3142 93.328C97.5542 93.944 97.6742 94.688 97.6742 95.56C97.6742 96.528 97.5382 97.352 97.2662 98.032C97.0022 98.712 96.6142 99.228 96.1022 99.58C95.5982 99.932 94.9862 100.108 94.2662 100.108ZM94.6262 96.016C94.9782 96.016 95.2902 95.936 95.5622 95.776C95.8342 95.616 96.0462 95.396 96.1982 95.116C96.3502 94.836 96.4262 94.512 96.4262 94.144C96.4262 93.768 96.3502 93.44 96.1982 93.16C96.0462 92.88 95.8342 92.66 95.5622 92.5C95.2902 92.34 94.9782 92.26 94.6262 92.26C94.2662 92.26 93.9502 92.34 93.6782 92.5C93.4142 92.66 93.2022 92.88 93.0422 93.16C92.8902 93.44 92.8142 93.768 92.8142 94.144C92.8142 94.512 92.8902 94.836 93.0422 95.116C93.2022 95.396 93.4142 95.616 93.6782 95.776C93.9502 95.936 94.2662 96.016 94.6262 96.016ZM102.432 100V94.168H103.38V95.548H103.26C103.396 95.076 103.632 94.72 103.968 94.48C104.304 94.232 104.748 94.088 105.3 94.048L105.648 94.012L105.72 94.852L105.108 94.924C104.564 94.972 104.144 95.148 103.848 95.452C103.56 95.748 103.416 96.156 103.416 96.676V100H102.432ZM109.29 100.108C108.674 100.108 108.142 99.988 107.694 99.748C107.254 99.5 106.91 99.152 106.662 98.704C106.422 98.256 106.302 97.72 106.302 97.096C106.302 96.488 106.422 95.96 106.662 95.512C106.902 95.056 107.23 94.7 107.646 94.444C108.07 94.188 108.558 94.06 109.11 94.06C109.638 94.06 110.09 94.176 110.466 94.408C110.842 94.64 111.13 94.968 111.33 95.392C111.538 95.816 111.642 96.324 111.642 96.916V97.288H107.046V96.652H110.994L110.802 96.808C110.802 96.168 110.658 95.672 110.37 95.32C110.09 94.96 109.678 94.78 109.134 94.78C108.726 94.78 108.378 94.876 108.09 95.068C107.81 95.252 107.598 95.512 107.454 95.848C107.31 96.176 107.238 96.56 107.238 97V97.072C107.238 97.56 107.314 97.972 107.466 98.308C107.626 98.644 107.862 98.9 108.174 99.076C108.486 99.244 108.858 99.328 109.29 99.328C109.634 99.328 109.966 99.276 110.286 99.172C110.614 99.06 110.922 98.88 111.21 98.632L111.546 99.316C111.282 99.556 110.946 99.748 110.538 99.892C110.13 100.036 109.714 100.108 109.29 100.108ZM115.389 100.108C114.701 100.108 114.185 99.924 113.841 99.556C113.497 99.188 113.325 98.664 113.325 97.984V94.924H112.185V94.168H113.325V92.38H114.297V94.168H116.145V94.924H114.297V97.888C114.297 98.344 114.393 98.692 114.585 98.932C114.777 99.164 115.089 99.28 115.521 99.28C115.649 99.28 115.777 99.264 115.905 99.232C116.033 99.2 116.149 99.168 116.253 99.136L116.421 99.88C116.317 99.936 116.165 99.988 115.965 100.036C115.765 100.084 115.573 100.108 115.389 100.108ZM119.308 100.108C118.836 100.108 118.444 100.024 118.132 99.856C117.828 99.68 117.596 99.42 117.436 99.076C117.284 98.732 117.208 98.304 117.208 97.792V94.168H118.18V97.78C118.18 98.124 118.224 98.412 118.312 98.644C118.408 98.868 118.556 99.036 118.756 99.148C118.956 99.252 119.204 99.304 119.5 99.304C119.836 99.304 120.128 99.228 120.376 99.076C120.624 98.924 120.82 98.712 120.964 98.44C121.108 98.168 121.18 97.848 121.18 97.48V94.168H122.152V100H121.204V98.656H121.36C121.2 99.128 120.936 99.488 120.568 99.736C120.208 99.984 119.788 100.108 119.308 100.108ZM123.971 100V94.168H124.919V95.548H124.799C124.935 95.076 125.171 94.72 125.507 94.48C125.843 94.232 126.287 94.088 126.839 94.048L127.187 94.012L127.259 94.852L126.647 94.924C126.103 94.972 125.683 95.148 125.387 95.452C125.099 95.748 124.955 96.156 124.955 96.676V100H123.971ZM128.271 100V94.168H129.219V95.464H129.087C129.255 95 129.527 94.652 129.903 94.42C130.287 94.18 130.727 94.06 131.223 94.06C131.687 94.06 132.071 94.144 132.375 94.312C132.687 94.472 132.919 94.724 133.071 95.068C133.223 95.412 133.299 95.844 133.299 96.364V100H132.327V96.424C132.327 96.064 132.279 95.768 132.183 95.536C132.095 95.304 131.951 95.132 131.751 95.02C131.559 94.908 131.307 94.852 130.995 94.852C130.643 94.852 130.335 94.928 130.071 95.08C129.807 95.232 129.603 95.444 129.459 95.716C129.315 95.988 129.243 96.308 129.243 96.676V100H128.271ZM137.06 100.108C136.756 100.108 136.46 100.076 136.172 100.012C135.892 99.956 135.628 99.876 135.38 99.772C135.14 99.66 134.932 99.528 134.756 99.376L135.068 98.692C135.26 98.844 135.468 98.972 135.692 99.076C135.916 99.172 136.144 99.244 136.376 99.292C136.608 99.34 136.844 99.364 137.084 99.364C137.54 99.364 137.884 99.28 138.116 99.112C138.348 98.944 138.464 98.716 138.464 98.428C138.464 98.204 138.388 98.028 138.236 97.9C138.084 97.764 137.844 97.66 137.516 97.588L136.424 97.348C135.92 97.244 135.544 97.064 135.296 96.808C135.056 96.552 134.936 96.22 134.936 95.812C134.936 95.452 135.028 95.144 135.212 94.888C135.404 94.624 135.672 94.42 136.016 94.276C136.36 94.132 136.76 94.06 137.216 94.06C137.488 94.06 137.748 94.088 137.996 94.144C138.244 94.2 138.476 94.284 138.692 94.396C138.916 94.5 139.108 94.632 139.268 94.792L138.944 95.476C138.792 95.332 138.62 95.212 138.428 95.116C138.236 95.012 138.036 94.936 137.828 94.888C137.628 94.832 137.424 94.804 137.216 94.804C136.768 94.804 136.428 94.892 136.196 95.068C135.964 95.244 135.848 95.476 135.848 95.764C135.848 95.988 135.92 96.172 136.064 96.316C136.208 96.46 136.432 96.564 136.736 96.628L137.828 96.856C138.348 96.968 138.736 97.148 138.992 97.396C139.256 97.636 139.388 97.964 139.388 98.38C139.388 98.732 139.292 99.04 139.1 99.304C138.908 99.56 138.636 99.76 138.284 99.904C137.94 100.04 137.532 100.108 137.06 100.108ZM151.187 97.3C151.307 97.044 151.423 96.82 151.535 96.628C151.655 96.436 151.771 96.276 151.883 96.148H144.887V95.644H151.883C151.771 95.508 151.655 95.344 151.535 95.152C151.423 94.96 151.307 94.74 151.187 94.492H151.607C152.111 95.076 152.639 95.508 153.191 95.788V96.004C152.639 96.276 152.111 96.708 151.607 97.3H151.187Z" fill="#737682"/>
<path id="Departure" d="M220.984 100V91.54H224.488C225.4 91.54 226.104 91.756 226.6 92.188C227.096 92.62 227.344 93.232 227.344 94.024C227.344 94.536 227.232 94.976 227.008 95.344C226.784 95.712 226.456 95.992 226.024 96.184C225.6 96.376 225.088 96.472 224.488 96.472L224.596 96.304H224.908C225.228 96.304 225.504 96.384 225.736 96.544C225.976 96.704 226.192 96.96 226.384 97.312L227.848 100H226.48L225.016 97.3C224.904 97.092 224.78 96.932 224.644 96.82C224.516 96.7 224.364 96.62 224.188 96.58C224.02 96.532 223.82 96.508 223.588 96.508H222.232V100H220.984ZM222.232 95.572H224.284C224.892 95.572 225.352 95.444 225.664 95.188C225.976 94.932 226.132 94.552 226.132 94.048C226.132 93.552 225.976 93.176 225.664 92.92C225.352 92.664 224.892 92.536 224.284 92.536H222.232V95.572ZM231.58 100.108C230.94 100.108 230.388 99.988 229.924 99.748C229.468 99.5 229.112 99.152 228.856 98.704C228.608 98.248 228.484 97.708 228.484 97.084C228.484 96.476 228.608 95.944 228.856 95.488C229.104 95.032 229.444 94.676 229.876 94.42C230.308 94.164 230.8 94.036 231.352 94.036C231.896 94.036 232.36 94.156 232.744 94.396C233.136 94.628 233.436 94.96 233.644 95.392C233.852 95.824 233.956 96.34 233.956 96.94V97.348H229.444V96.604H233.14L232.936 96.772C232.936 96.172 232.804 95.708 232.54 95.38C232.276 95.052 231.896 94.888 231.4 94.888C231.024 94.888 230.704 94.976 230.44 95.152C230.184 95.328 229.988 95.572 229.852 95.884C229.716 96.196 229.648 96.56 229.648 96.976V97.048C229.648 97.512 229.72 97.904 229.864 98.224C230.016 98.536 230.236 98.772 230.524 98.932C230.812 99.092 231.168 99.172 231.592 99.172C231.928 99.172 232.256 99.12 232.576 99.016C232.904 98.904 233.212 98.732 233.5 98.5L233.86 99.34C233.596 99.58 233.256 99.768 232.84 99.904C232.424 100.04 232.004 100.108 231.58 100.108ZM236.912 100L234.392 94.144H235.7L237.656 99.004H237.32L239.324 94.144H240.56L238.004 100H236.912ZM241.322 92.788V91.528H242.738V92.788H241.322ZM241.43 100V94.144H242.642V100H241.43ZM247.096 100.108C246.456 100.108 245.904 99.988 245.44 99.748C244.984 99.5 244.628 99.152 244.372 98.704C244.124 98.248 244 97.708 244 97.084C244 96.476 244.124 95.944 244.372 95.488C244.62 95.032 244.96 94.676 245.392 94.42C245.824 94.164 246.316 94.036 246.868 94.036C247.412 94.036 247.876 94.156 248.26 94.396C248.652 94.628 248.952 94.96 249.16 95.392C249.368 95.824 249.472 96.34 249.472 96.94V97.348H244.96V96.604H248.656L248.452 96.772C248.452 96.172 248.32 95.708 248.056 95.38C247.792 95.052 247.412 94.888 246.916 94.888C246.54 94.888 246.22 94.976 245.956 95.152C245.7 95.328 245.504 95.572 245.368 95.884C245.232 96.196 245.164 96.56 245.164 96.976V97.048C245.164 97.512 245.236 97.904 245.38 98.224C245.532 98.536 245.752 98.772 246.04 98.932C246.328 99.092 246.684 99.172 247.108 99.172C247.444 99.172 247.772 99.12 248.092 99.016C248.42 98.904 248.728 98.732 249.016 98.5L249.376 99.34C249.112 99.58 248.772 99.768 248.356 99.904C247.94 100.04 247.52 100.108 247.096 100.108ZM252.295 100L250.063 94.144H251.311L253.027 98.98H252.739L254.503 94.144H255.439L257.167 98.98H256.903L258.631 94.144H259.819L257.587 100H256.483L254.635 95.008H255.235L253.399 100H252.295Z" fill="#444050"/>
</g>
</g>
<path id="Line 345" d="M36 116H261" stroke="#EAEAEC" stroke-linecap="round"/>
<g id="Info Origin_3">
<g id="Main_3">
<path id="Time_3" d="M40.704 140.108C39.872 140.108 39.16 139.932 38.568 139.58C37.976 139.228 37.52 138.728 37.2 138.08C36.888 137.432 36.732 136.66 36.732 135.764C36.732 134.868 36.888 134.1 37.2 133.46C37.52 132.812 37.976 132.312 38.568 131.96C39.16 131.608 39.872 131.432 40.704 131.432C41.288 131.432 41.828 131.524 42.324 131.708C42.82 131.892 43.236 132.16 43.572 132.512L43.188 133.316C42.82 132.972 42.436 132.724 42.036 132.572C41.644 132.412 41.208 132.332 40.728 132.332C39.776 132.332 39.048 132.632 38.544 133.232C38.04 133.832 37.788 134.676 37.788 135.764C37.788 136.852 38.04 137.7 38.544 138.308C39.048 138.908 39.776 139.208 40.728 139.208C41.208 139.208 41.644 139.132 42.036 138.98C42.436 138.82 42.82 138.568 43.188 138.224L43.572 139.028C43.236 139.372 42.82 139.64 42.324 139.832C41.828 140.016 41.288 140.108 40.704 140.108ZM48.4241 140.108C47.8401 140.108 47.3081 140.008 46.8281 139.808C46.3481 139.6 45.9401 139.308 45.6041 138.932C45.2681 138.556 45.0081 138.1 44.8241 137.564C44.6481 137.028 44.5601 136.428 44.5601 135.764C44.5601 135.092 44.6481 134.492 44.8241 133.964C45.0081 133.428 45.2681 132.976 45.6041 132.608C45.9401 132.232 46.3441 131.944 46.8161 131.744C47.2961 131.536 47.8321 131.432 48.4241 131.432C49.0241 131.432 49.5601 131.532 50.0321 131.732C50.5121 131.932 50.9201 132.22 51.2561 132.596C51.6001 132.972 51.8601 133.428 52.0361 133.964C52.2201 134.492 52.3121 135.088 52.3121 135.752C52.3121 136.424 52.2201 137.028 52.0361 137.564C51.8521 138.1 51.5921 138.556 51.2561 138.932C50.9201 139.308 50.5121 139.6 50.0321 139.808C49.5601 140.008 49.0241 140.108 48.4241 140.108ZM48.4241 139.232C49.0321 139.232 49.5441 139.096 49.9601 138.824C50.3841 138.552 50.7081 138.156 50.9321 137.636C51.1561 137.116 51.2681 136.492 51.2681 135.764C51.2681 135.028 51.1561 134.404 50.9321 133.892C50.7081 133.38 50.3841 132.988 49.9601 132.716C49.5441 132.444 49.0321 132.308 48.4241 132.308C47.8321 132.308 47.3241 132.444 46.9001 132.716C46.4841 132.988 46.1641 133.384 45.9401 133.904C45.7161 134.416 45.6041 135.036 45.6041 135.764C45.6041 136.492 45.7161 137.116 45.9401 137.636C46.1641 138.148 46.4841 138.544 46.9001 138.824C47.3241 139.096 47.8321 139.232 48.4241 139.232ZM54.0713 140V131.54H56.9273C57.8473 131.54 58.6233 131.704 59.2553 132.032C59.8953 132.352 60.3793 132.828 60.7073 133.46C61.0433 134.084 61.2113 134.852 61.2113 135.764C61.2113 136.676 61.0433 137.448 60.7073 138.08C60.3793 138.712 59.8953 139.192 59.2553 139.52C58.6233 139.84 57.8473 140 56.9273 140H54.0713ZM55.0553 139.16H56.8553C57.9673 139.16 58.7953 138.876 59.3393 138.308C59.8913 137.74 60.1673 136.892 60.1673 135.764C60.1673 134.636 59.8913 133.792 59.3393 133.232C58.7873 132.664 57.9593 132.38 56.8553 132.38H55.0553V139.16ZM62.6056 139.58V138.752L68.0776 136.316V136.796L62.6056 134.348V133.532L68.4616 136.172V136.94L62.6056 139.58ZM74.4329 140L72.6569 137.3C72.5209 137.076 72.3809 136.9 72.2369 136.772C72.0929 136.644 71.9289 136.552 71.7449 136.496C71.5689 136.44 71.3529 136.412 71.0969 136.412H69.3809V135.596H71.8169C72.2889 135.596 72.6769 135.536 72.9809 135.416C73.2849 135.288 73.5129 135.1 73.6649 134.852C73.8249 134.596 73.9089 134.28 73.9169 133.904L74.0729 134.108H69.3809V133.388H74.0729L73.8929 133.604C73.8289 133.164 73.6289 132.832 73.2929 132.608C72.9649 132.376 72.5049 132.26 71.9129 132.26H69.3809V131.54H76.0769V132.26H73.5809L73.7849 132.044C74.0969 132.196 74.3409 132.404 74.5169 132.668C74.7009 132.924 74.8129 133.224 74.8529 133.568L74.6489 133.388H76.0769V134.108H74.6849L74.8769 133.856C74.9009 134.368 74.8009 134.812 74.5769 135.188C74.3609 135.564 74.0369 135.856 73.6049 136.064C73.1809 136.264 72.6609 136.364 72.0449 136.364V136.256H72.2369C72.4449 136.256 72.6329 136.288 72.8009 136.352C72.9769 136.408 73.1449 136.508 73.3049 136.652C73.4649 136.796 73.6209 136.988 73.7729 137.228L75.6089 140H74.4329ZM80.1042 140.108C79.7442 140.108 79.3922 140.068 79.0482 139.988C78.7042 139.908 78.3802 139.792 78.0762 139.64C77.7802 139.488 77.5162 139.308 77.2842 139.1L77.6562 138.32C78.0402 138.632 78.4282 138.864 78.8202 139.016C79.2202 139.16 79.6442 139.232 80.0922 139.232C80.6842 139.232 81.1442 139.068 81.4722 138.74C81.8082 138.412 81.9762 137.98 81.9762 137.444C81.9762 136.892 81.8162 136.44 81.4962 136.088C81.1762 135.736 80.7362 135.56 80.1762 135.56C79.7682 135.56 79.4082 135.644 79.0962 135.812C78.7922 135.972 78.5162 136.224 78.2682 136.568H77.5482V131.54H82.4562V132.38H78.5202V135.752H78.2562C78.4642 135.416 78.7522 135.16 79.1202 134.984C79.4882 134.8 79.9002 134.708 80.3562 134.708C80.8922 134.708 81.3522 134.82 81.7362 135.044C82.1282 135.268 82.4282 135.584 82.6362 135.992C82.8522 136.392 82.9602 136.86 82.9602 137.396C82.9602 137.924 82.8442 138.392 82.6122 138.8C82.3802 139.208 82.0522 139.528 81.6282 139.76C81.2042 139.992 80.6962 140.108 80.1042 140.108ZM84.2755 140V138.776H85.4995V140H84.2755ZM89.85 140.108C89.21 140.108 88.666 139.944 88.218 139.616C87.778 139.28 87.446 138.788 87.222 138.14C86.998 137.492 86.886 136.7 86.886 135.764C86.886 134.82 86.998 134.028 87.222 133.388C87.446 132.74 87.778 132.252 88.218 131.924C88.666 131.596 89.21 131.432 89.85 131.432C90.498 131.432 91.042 131.596 91.482 131.924C91.922 132.252 92.254 132.736 92.478 133.376C92.702 134.016 92.814 134.808 92.814 135.752C92.814 136.696 92.702 137.492 92.478 138.14C92.254 138.788 91.922 139.28 91.482 139.616C91.042 139.944 90.498 140.108 89.85 140.108ZM89.85 139.256C90.522 139.256 91.018 138.972 91.338 138.404C91.666 137.836 91.83 136.952 91.83 135.752C91.83 134.552 91.67 133.676 91.35 133.124C91.03 132.564 90.53 132.284 89.85 132.284C89.186 132.284 88.69 132.564 88.362 133.124C88.034 133.684 87.87 134.56 87.87 135.752C87.87 136.952 88.03 137.836 88.35 138.404C88.678 138.972 89.178 139.256 89.85 139.256ZM97.0453 140.108C96.4053 140.108 95.8613 139.944 95.4133 139.616C94.9733 139.28 94.6413 138.788 94.4173 138.14C94.1933 137.492 94.0813 136.7 94.0813 135.764C94.0813 134.82 94.1933 134.028 94.4173 133.388C94.6413 132.74 94.9733 132.252 95.4133 131.924C95.8613 131.596 96.4053 131.432 97.0453 131.432C97.6933 131.432 98.2373 131.596 98.6773 131.924C99.1173 132.252 99.4493 132.736 99.6733 133.376C99.8973 134.016 100.009 134.808 100.009 135.752C100.009 136.696 99.8973 137.492 99.6733 138.14C99.4493 138.788 99.1173 139.28 98.6773 139.616C98.2373 139.944 97.6933 140.108 97.0453 140.108ZM97.0453 139.256C97.7173 139.256 98.2133 138.972 98.5333 138.404C98.8613 137.836 99.0253 136.952 99.0253 135.752C99.0253 134.552 98.8653 133.676 98.5453 133.124C98.2253 132.564 97.7253 132.284 97.0453 132.284C96.3813 132.284 95.8853 132.564 95.5573 133.124C95.2293 133.684 95.0653 134.56 95.0653 135.752C95.0653 136.952 95.2253 137.836 95.5453 138.404C95.8733 138.972 96.3733 139.256 97.0453 139.256ZM104.241 140.108C103.601 140.108 103.057 139.944 102.609 139.616C102.169 139.28 101.837 138.788 101.613 138.14C101.389 137.492 101.277 136.7 101.277 135.764C101.277 134.82 101.389 134.028 101.613 133.388C101.837 132.74 102.169 132.252 102.609 131.924C103.057 131.596 103.601 131.432 104.241 131.432C104.889 131.432 105.433 131.596 105.873 131.924C106.313 132.252 106.645 132.736 106.869 133.376C107.093 134.016 107.205 134.808 107.205 135.752C107.205 136.696 107.093 137.492 106.869 138.14C106.645 138.788 106.313 139.28 105.873 139.616C105.433 139.944 104.889 140.108 104.241 140.108ZM104.241 139.256C104.913 139.256 105.409 138.972 105.729 138.404C106.057 137.836 106.221 136.952 106.221 135.752C106.221 134.552 106.061 133.676 105.741 133.124C105.421 132.564 104.921 132.284 104.241 132.284C103.577 132.284 103.081 132.564 102.753 133.124C102.425 133.684 102.261 134.56 102.261 135.752C102.261 136.952 102.421 137.836 102.741 138.404C103.069 138.972 103.569 139.256 104.241 139.256ZM119.066 137.3C119.186 137.044 119.302 136.82 119.414 136.628C119.534 136.436 119.65 136.276 119.762 136.148H112.766V135.644H119.762C119.65 135.508 119.534 135.344 119.414 135.152C119.302 134.96 119.186 134.74 119.066 134.492H119.486C119.99 135.076 120.518 135.508 121.07 135.788V136.004C120.518 136.276 119.99 136.708 119.486 137.3H119.066Z" fill="#737682"/>
<path id="Departure_2" d="M197.776 140.108C196.92 140.108 196.188 139.932 195.58 139.58C194.972 139.228 194.504 138.728 194.176 138.08C193.856 137.424 193.696 136.652 193.696 135.764C193.696 134.876 193.856 134.108 194.176 133.46C194.504 132.812 194.972 132.312 195.58 131.96C196.188 131.608 196.92 131.432 197.776 131.432C198.352 131.432 198.888 131.524 199.384 131.708C199.888 131.884 200.308 132.14 200.644 132.476L200.212 133.472C199.844 133.144 199.464 132.908 199.072 132.764C198.688 132.612 198.268 132.536 197.812 132.536C196.9 132.536 196.204 132.816 195.724 133.376C195.244 133.936 195.004 134.732 195.004 135.764C195.004 136.796 195.244 137.596 195.724 138.164C196.204 138.724 196.9 139.004 197.812 139.004C198.268 139.004 198.688 138.932 199.072 138.788C199.464 138.636 199.844 138.396 200.212 138.068L200.644 139.064C200.308 139.4 199.888 139.66 199.384 139.844C198.888 140.02 198.352 140.108 197.776 140.108ZM204.084 140.108C203.492 140.108 202.98 139.984 202.548 139.736C202.124 139.488 201.792 139.136 201.552 138.68C201.312 138.224 201.192 137.688 201.192 137.072C201.192 136.448 201.312 135.912 201.552 135.464C201.792 135.008 202.124 134.656 202.548 134.408C202.98 134.16 203.492 134.036 204.084 134.036C204.668 134.036 205.172 134.16 205.596 134.408C206.028 134.656 206.364 135.008 206.604 135.464C206.844 135.92 206.964 136.456 206.964 137.072C206.964 137.688 206.844 138.224 206.604 138.68C206.364 139.136 206.028 139.488 205.596 139.736C205.172 139.984 204.668 140.108 204.084 140.108ZM204.072 139.172C204.576 139.172 204.98 138.992 205.284 138.632C205.588 138.272 205.74 137.752 205.74 137.072C205.74 136.384 205.588 135.864 205.284 135.512C204.98 135.16 204.576 134.984 204.072 134.984C203.576 134.984 203.176 135.16 202.872 135.512C202.568 135.864 202.416 136.384 202.416 137.072C202.416 137.752 202.568 138.272 202.872 138.632C203.176 138.992 203.576 139.172 204.072 139.172ZM208.325 140V134.144H209.501V135.392H209.369C209.545 134.944 209.821 134.608 210.197 134.384C210.573 134.152 211.005 134.036 211.493 134.036C211.957 134.036 212.341 134.124 212.645 134.3C212.957 134.468 213.189 134.728 213.341 135.08C213.493 135.424 213.569 135.86 213.569 136.388V140H212.357V136.46C212.357 136.124 212.313 135.852 212.225 135.644C212.137 135.428 212.005 135.268 211.829 135.164C211.653 135.06 211.425 135.008 211.145 135.008C210.825 135.008 210.541 135.076 210.293 135.212C210.053 135.348 209.865 135.544 209.729 135.8C209.601 136.056 209.537 136.352 209.537 136.688V140H208.325ZM215.587 140V135.08H214.447V134.144H215.935L215.587 134.468V134.036C215.587 133.236 215.791 132.632 216.199 132.224C216.615 131.808 217.251 131.576 218.107 131.528L218.587 131.504L218.659 132.416L218.167 132.44C217.839 132.456 217.575 132.52 217.375 132.632C217.175 132.744 217.027 132.904 216.931 133.112C216.843 133.312 216.799 133.564 216.799 133.868V134.288V134.144H220.531V140H219.319V135.08H216.799V140H215.587ZM219.211 132.788V131.528H220.627V132.788H219.211ZM222.223 140V134.144H223.399V135.548H223.279C223.407 135.068 223.635 134.704 223.963 134.456C224.299 134.208 224.743 134.064 225.295 134.024L225.691 134L225.775 135.032L225.043 135.104C224.523 135.152 224.127 135.316 223.855 135.596C223.583 135.876 223.447 136.26 223.447 136.748V140H222.223ZM226.724 140V134.144H227.9V135.392H227.768C227.872 135.104 228.016 134.86 228.2 134.66C228.384 134.46 228.604 134.308 228.86 134.204C229.124 134.092 229.412 134.036 229.724 134.036C230.212 134.036 230.608 134.152 230.912 134.384C231.216 134.616 231.424 134.972 231.536 135.452H231.368C231.52 135.012 231.78 134.668 232.148 134.42C232.516 134.164 232.944 134.036 233.432 134.036C233.88 134.036 234.248 134.124 234.536 134.3C234.824 134.468 235.04 134.728 235.184 135.08C235.328 135.424 235.4 135.86 235.4 136.388V140H234.188V136.448C234.188 135.952 234.1 135.588 233.924 135.356C233.756 135.124 233.476 135.008 233.084 135.008C232.796 135.008 232.544 135.076 232.328 135.212C232.112 135.348 231.944 135.548 231.824 135.812C231.712 136.068 231.656 136.372 231.656 136.724V140H230.444V136.448C230.444 135.952 230.36 135.588 230.192 135.356C230.024 135.124 229.744 135.008 229.352 135.008C229.056 135.008 228.8 135.076 228.584 135.212C228.376 135.348 228.216 135.548 228.104 135.812C227.992 136.068 227.936 136.372 227.936 136.724V140H226.724ZM240.595 140V135.08H239.455V134.144H240.943L240.595 134.468V134.036C240.595 133.236 240.799 132.632 241.207 132.224C241.623 131.808 242.259 131.576 243.115 131.528L243.595 131.504L243.667 132.416L243.175 132.44C242.847 132.456 242.583 132.52 242.383 132.632C242.183 132.744 242.035 132.904 241.939 133.112C241.851 133.312 241.807 133.564 241.807 133.868V134.288V134.144H245.539V140H244.327V135.08H241.807V140H240.595ZM244.219 132.788V131.528H245.635V132.788H244.219ZM247.231 140V134.144H248.407V135.548H248.287C248.415 135.068 248.643 134.704 248.971 134.456C249.307 134.208 249.751 134.064 250.303 134.024L250.699 134L250.783 135.032L250.051 135.104C249.531 135.152 249.135 135.316 248.863 135.596C248.591 135.876 248.455 136.26 248.455 136.748V140H247.231ZM253.701 140.108C253.389 140.108 253.085 140.08 252.789 140.024C252.493 139.968 252.221 139.888 251.973 139.784C251.725 139.68 251.505 139.552 251.313 139.4L251.661 138.584C251.861 138.72 252.073 138.84 252.297 138.944C252.521 139.04 252.753 139.112 252.993 139.16C253.241 139.208 253.481 139.232 253.713 139.232C254.137 139.232 254.457 139.156 254.673 139.004C254.889 138.852 254.997 138.648 254.997 138.392C254.997 138.184 254.925 138.024 254.781 137.912C254.637 137.792 254.421 137.7 254.133 137.636L252.993 137.408C252.497 137.304 252.121 137.12 251.865 136.856C251.609 136.592 251.481 136.256 251.481 135.848C251.481 135.48 251.581 135.16 251.781 134.888C251.981 134.616 252.261 134.408 252.621 134.264C252.981 134.112 253.397 134.036 253.869 134.036C254.141 134.036 254.405 134.064 254.661 134.12C254.917 134.176 255.157 134.256 255.381 134.36C255.613 134.464 255.809 134.596 255.969 134.756L255.621 135.572C255.469 135.436 255.293 135.32 255.093 135.224C254.901 135.128 254.701 135.056 254.493 135.008C254.285 134.952 254.077 134.924 253.869 134.924C253.445 134.924 253.125 135.004 252.909 135.164C252.701 135.316 252.597 135.524 252.597 135.788C252.597 135.988 252.661 136.152 252.789 136.28C252.917 136.408 253.117 136.5 253.389 136.556L254.529 136.784C255.049 136.888 255.441 137.064 255.705 137.312C255.977 137.56 256.113 137.896 256.113 138.32C256.113 138.688 256.013 139.008 255.813 139.28C255.613 139.552 255.329 139.76 254.961 139.904C254.601 140.04 254.181 140.108 253.701 140.108ZM259.899 140.108C259.171 140.108 258.623 139.92 258.255 139.544C257.895 139.168 257.715 138.624 257.715 137.912V135.08H256.575V134.144H257.715V132.38H258.927V134.144H260.739V135.08H258.927V137.816C258.927 138.24 259.015 138.56 259.191 138.776C259.375 138.992 259.671 139.1 260.079 139.1C260.199 139.1 260.319 139.084 260.439 139.052C260.567 139.02 260.691 138.988 260.811 138.956L261.003 139.868C260.883 139.94 260.715 139.996 260.499 140.036C260.291 140.084 260.091 140.108 259.899 140.108Z" fill="#444050"/>
</g>
</g>
</g>
</g>
</g>
</g>
<g id="Button">
<rect x="18.5" y="180.5" width="260" height="33" rx="7.5" stroke="#E1E1E4" stroke-dasharray="2 2"/>
<g id="Icon Left">
<g id="add">
<path id="Vector" d="M42.0002 197.667H38.6668V201C38.6668 201.367 38.3668 201.667 38.0002 201.667C37.6335 201.667 37.3335 201.367 37.3335 201V197.667H34.0002C33.6335 197.667 33.3335 197.367 33.3335 197C33.3335 196.633 33.6335 196.333 34.0002 196.333H37.3335V193C37.3335 192.633 37.6335 192.333 38.0002 192.333C38.3668 192.333 38.6668 192.633 38.6668 193V196.333H42.0002C42.3668 196.333 42.6668 196.633 42.6668 197C42.6668 197.367 42.3668 197.667 42.0002 197.667Z" fill="#444050"/>
</g>
</g>
<g id="Text">
<path id="Label" d="M50.5734 201L54.3414 192.54H55.3734L59.1534 201H57.8814L56.8494 198.6L57.4134 198.936H52.3014L52.8534 198.6L51.8334 201H50.5734ZM54.8454 193.92L53.0334 198.216L52.7334 197.928H56.9694L56.6934 198.216L54.8694 193.92H54.8454ZM62.3027 201.108C61.7908 201.108 61.3388 200.988 60.9468 200.748C60.5628 200.5 60.2628 200.148 60.0468 199.692C59.8308 199.228 59.7228 198.688 59.7228 198.072C59.7228 197.44 59.8308 196.9 60.0468 196.452C60.2628 196.004 60.5628 195.656 60.9468 195.408C61.3388 195.16 61.7908 195.036 62.3027 195.036C62.8148 195.036 63.2548 195.164 63.6228 195.42C63.9988 195.668 64.2508 196.004 64.3788 196.428H64.2468V192.54H65.4588V201H64.2708V199.68H64.3908C64.2628 200.112 64.0108 200.46 63.6348 200.724C63.2668 200.98 62.8228 201.108 62.3027 201.108ZM62.6148 200.172C63.1108 200.172 63.5108 199.992 63.8148 199.632C64.1188 199.272 64.2708 198.752 64.2708 198.072C64.2708 197.384 64.1188 196.864 63.8148 196.512C63.5108 196.16 63.1108 195.984 62.6148 195.984C62.1108 195.984 61.7068 196.16 61.4028 196.512C61.0988 196.864 60.9468 197.384 60.9468 198.072C60.9468 198.752 61.0988 199.272 61.4028 199.632C61.7068 199.992 62.1108 200.172 62.6148 200.172ZM69.3926 201.108C68.8806 201.108 68.4286 200.988 68.0366 200.748C67.6526 200.5 67.3526 200.148 67.1366 199.692C66.9206 199.228 66.8126 198.688 66.8126 198.072C66.8126 197.44 66.9206 196.9 67.1366 196.452C67.3526 196.004 67.6526 195.656 68.0366 195.408C68.4286 195.16 68.8806 195.036 69.3926 195.036C69.9046 195.036 70.3446 195.164 70.7126 195.42C71.0886 195.668 71.3406 196.004 71.4686 196.428H71.3366V192.54H72.5486V201H71.3606V199.68H71.4806C71.3526 200.112 71.1006 200.46 70.7246 200.724C70.3566 200.98 69.9126 201.108 69.3926 201.108ZM69.7046 200.172C70.2006 200.172 70.6006 199.992 70.9046 199.632C71.2086 199.272 71.3606 198.752 71.3606 198.072C71.3606 197.384 71.2086 196.864 70.9046 196.512C70.6006 196.16 70.2006 195.984 69.7046 195.984C69.2006 195.984 68.7966 196.16 68.4926 196.512C68.1886 196.864 68.0366 197.384 68.0366 198.072C68.0366 198.752 68.1886 199.272 68.4926 199.632C68.7966 199.992 69.2006 200.172 69.7046 200.172ZM77.5348 201V192.54H81.0388C81.9508 192.54 82.6548 192.756 83.1508 193.188C83.6468 193.62 83.8948 194.232 83.8948 195.024C83.8948 195.536 83.7828 195.976 83.5588 196.344C83.3348 196.712 83.0068 196.992 82.5748 197.184C82.1508 197.376 81.6388 197.472 81.0388 197.472L81.1468 197.304H81.4588C81.7788 197.304 82.0548 197.384 82.2868 197.544C82.5268 197.704 82.7428 197.96 82.9348 198.312L84.3988 201H83.0308L81.5668 198.3C81.4548 198.092 81.3308 197.932 81.1948 197.82C81.0668 197.7 80.9148 197.62 80.7388 197.58C80.5708 197.532 80.3708 197.508 80.1388 197.508H78.7828V201H77.5348ZM78.7828 196.572H80.8348C81.4428 196.572 81.9028 196.444 82.2148 196.188C82.5268 195.932 82.6828 195.552 82.6828 195.048C82.6828 194.552 82.5268 194.176 82.2148 193.92C81.9028 193.664 81.4428 193.536 80.8348 193.536H78.7828V196.572ZM87.6119 201.108C87.1399 201.108 86.7439 201.02 86.4239 200.844C86.1119 200.668 85.8759 200.408 85.7159 200.064C85.5639 199.712 85.4879 199.272 85.4879 198.744V195.144H86.6999V198.756C86.6999 199.068 86.7399 199.328 86.8199 199.536C86.9079 199.744 87.0399 199.896 87.2159 199.992C87.3999 200.088 87.6279 200.136 87.8999 200.136C88.2039 200.136 88.4719 200.068 88.7039 199.932C88.9359 199.796 89.1159 199.6 89.2439 199.344C89.3719 199.088 89.4359 198.792 89.4359 198.456V195.144H90.6479V201H89.4719V199.716H89.6279C89.4679 200.164 89.2119 200.508 88.8599 200.748C88.5079 200.988 88.0919 201.108 87.6119 201.108ZM94.2639 201.108C93.6239 201.108 93.1439 200.928 92.8239 200.568C92.5119 200.2 92.3559 199.672 92.3559 198.984V192.54H93.5679V198.912C93.5679 199.168 93.6039 199.388 93.6759 199.572C93.7479 199.748 93.8559 199.88 93.9999 199.968C94.1439 200.056 94.3239 200.1 94.5399 200.1C94.6359 200.1 94.7279 200.096 94.8159 200.088C94.9039 200.08 94.9879 200.064 95.0679 200.04L95.0439 201.012C94.9079 201.044 94.7759 201.068 94.6479 201.084C94.5199 201.1 94.3919 201.108 94.2639 201.108ZM98.7133 201.108C98.0733 201.108 97.5213 200.988 97.0573 200.748C96.6013 200.5 96.2453 200.152 95.9893 199.704C95.7413 199.248 95.6173 198.708 95.6173 198.084C95.6173 197.476 95.7413 196.944 95.9893 196.488C96.2373 196.032 96.5773 195.676 97.0093 195.42C97.4413 195.164 97.9333 195.036 98.4853 195.036C99.0293 195.036 99.4933 195.156 99.8773 195.396C100.269 195.628 100.569 195.96 100.777 196.392C100.985 196.824 101.089 197.34 101.089 197.94V198.348H96.5773V197.604H100.273L100.069 197.772C100.069 197.172 99.9373 196.708 99.6733 196.38C99.4093 196.052 99.0293 195.888 98.5333 195.888C98.1573 195.888 97.8373 195.976 97.5733 196.152C97.3173 196.328 97.1213 196.572 96.9853 196.884C96.8493 197.196 96.7813 197.56 96.7813 197.976V198.048C96.7813 198.512 96.8533 198.904 96.9973 199.224C97.1493 199.536 97.3693 199.772 97.6573 199.932C97.9453 200.092 98.3013 200.172 98.7253 200.172C99.0613 200.172 99.3893 200.12 99.7093 200.016C100.037 199.904 100.345 199.732 100.633 199.5L100.993 200.34C100.729 200.58 100.389 200.768 99.9733 200.904C99.5573 201.04 99.1373 201.108 98.7133 201.108Z" fill="black"/>
</g>
</g>
</g>
</g>
</g>
</svg>
