<svg width="256" height="128" viewBox="0 0 256 128" fill="none" xmlns="http://www.w3.org/2000/svg">
<g id="Card Shipment">
<rect width="256" height="128" rx="12" fill="white"/>
<g id="Body">
<g id="Frame 1707480568">
<g id="Frame 2147223150">
<g id="Info Origin">
<g id="Main">
<path id="Time" d="M19.044 28V19.54H22.392C23.296 19.54 23.992 19.752 24.48 20.176C24.968 20.6 25.212 21.204 25.212 21.988C25.212 22.484 25.1 22.916 24.876 23.284C24.66 23.644 24.34 23.92 23.916 24.112C23.492 24.296 22.984 24.388 22.392 24.388L22.512 24.232H22.752C23.064 24.232 23.336 24.312 23.568 24.472C23.8 24.632 24.012 24.888 24.204 25.24L25.692 28H24.612L23.148 25.288C23.028 25.064 22.892 24.888 22.74 24.76C22.596 24.632 22.428 24.544 22.236 24.496C22.052 24.448 21.828 24.424 21.564 24.424H20.028V28H19.044ZM20.028 23.644H22.248C22.904 23.644 23.4 23.508 23.736 23.236C24.072 22.956 24.24 22.54 24.24 21.988C24.24 21.452 24.072 21.048 23.736 20.776C23.4 20.496 22.904 20.356 22.248 20.356H20.028V23.644ZM29.4384 28.108C28.8224 28.108 28.2904 27.988 27.8424 27.748C27.4024 27.5 27.0584 27.152 26.8104 26.704C26.5704 26.256 26.4504 25.72 26.4504 25.096C26.4504 24.488 26.5704 23.96 26.8104 23.512C27.0504 23.056 27.3784 22.7 27.7944 22.444C28.2184 22.188 28.7064 22.06 29.2584 22.06C29.7864 22.06 30.2384 22.176 30.6144 22.408C30.9904 22.64 31.2784 22.968 31.4784 23.392C31.6864 23.816 31.7904 24.324 31.7904 24.916V25.288H27.1944V24.652H31.1424L30.9504 24.808C30.9504 24.168 30.8064 23.672 30.5184 23.32C30.2384 22.96 29.8264 22.78 29.2824 22.78C28.8744 22.78 28.5264 22.876 28.2384 23.068C27.9584 23.252 27.7464 23.512 27.6024 23.848C27.4584 24.176 27.3864 24.56 27.3864 25V25.072C27.3864 25.56 27.4624 25.972 27.6144 26.308C27.7744 26.644 28.0104 26.9 28.3224 27.076C28.6344 27.244 29.0064 27.328 29.4384 27.328C29.7824 27.328 30.1144 27.276 30.4344 27.172C30.7624 27.06 31.0704 26.88 31.3584 26.632L31.6944 27.316C31.4304 27.556 31.0944 27.748 30.6864 27.892C30.2784 28.036 29.8624 28.108 29.4384 28.108ZM35.5372 28.108C34.8492 28.108 34.3332 27.924 33.9892 27.556C33.6452 27.188 33.4732 26.664 33.4732 25.984V22.924H32.3332V22.168H33.4732V20.38H34.4452V22.168H36.2932V22.924H34.4452V25.888C34.4452 26.344 34.5412 26.692 34.7332 26.932C34.9252 27.164 35.2372 27.28 35.6692 27.28C35.7972 27.28 35.9252 27.264 36.0532 27.232C36.1812 27.2 36.2972 27.168 36.4012 27.136L36.5692 27.88C36.4652 27.936 36.3132 27.988 36.1132 28.036C35.9132 28.084 35.7212 28.108 35.5372 28.108ZM39.4565 28.108C38.9845 28.108 38.5925 28.024 38.2805 27.856C37.9765 27.68 37.7445 27.42 37.5845 27.076C37.4325 26.732 37.3565 26.304 37.3565 25.792V22.168H38.3285V25.78C38.3285 26.124 38.3725 26.412 38.4605 26.644C38.5565 26.868 38.7045 27.036 38.9045 27.148C39.1045 27.252 39.3525 27.304 39.6485 27.304C39.9845 27.304 40.2765 27.228 40.5245 27.076C40.7725 26.924 40.9685 26.712 41.1125 26.44C41.2565 26.168 41.3285 25.848 41.3285 25.48V22.168H42.3005V28H41.3525V26.656H41.5085C41.3485 27.128 41.0845 27.488 40.7165 27.736C40.3565 27.984 39.9365 28.108 39.4565 28.108ZM44.119 28V22.168H45.067V23.548H44.947C45.083 23.076 45.319 22.72 45.655 22.48C45.991 22.232 46.435 22.088 46.987 22.048L47.335 22.012L47.407 22.852L46.795 22.924C46.251 22.972 45.831 23.148 45.535 23.452C45.247 23.748 45.103 24.156 45.103 24.676V28H44.119ZM48.4198 28V22.168H49.3678V23.464H49.2358C49.4038 23 49.6758 22.652 50.0518 22.42C50.4358 22.18 50.8758 22.06 51.3718 22.06C51.8358 22.06 52.2198 22.144 52.5238 22.312C52.8358 22.472 53.0678 22.724 53.2198 23.068C53.3718 23.412 53.4478 23.844 53.4478 24.364V28H52.4758V24.424C52.4758 24.064 52.4278 23.768 52.3318 23.536C52.2438 23.304 52.0998 23.132 51.8998 23.02C51.7078 22.908 51.4558 22.852 51.1438 22.852C50.7918 22.852 50.4838 22.928 50.2198 23.08C49.9558 23.232 49.7518 23.444 49.6078 23.716C49.4638 23.988 49.3918 24.308 49.3918 24.676V28H48.4198ZM58.4662 28L58.8982 25.816H57.8302V25.108H59.0302L59.5702 22.336H58.0702V21.628H59.6902L60.1102 19.54H60.8662L60.4582 21.628H62.3662L62.7742 19.54H63.5422L63.1342 21.628H64.1902V22.336H62.9902L62.4502 25.108H63.9502V25.816H62.3302L61.8982 28H61.1302L61.5502 25.816H59.6542L59.2342 28H58.4662ZM59.7862 25.108H61.6822L62.2342 22.336H60.3262L59.7862 25.108ZM69.5135 28.108C68.6095 28.108 67.8455 27.936 67.2215 27.592C66.6055 27.248 66.1375 26.752 65.8175 26.104C65.4975 25.456 65.3375 24.68 65.3375 23.776C65.3375 22.88 65.4975 22.108 65.8175 21.46C66.1375 20.812 66.5975 20.312 67.1975 19.96C67.7975 19.608 68.5215 19.432 69.3695 19.432C69.7695 19.432 70.1455 19.472 70.4975 19.552C70.8575 19.632 71.1895 19.752 71.4935 19.912C71.8055 20.064 72.0775 20.256 72.3095 20.488L71.9255 21.28C71.5415 20.944 71.1455 20.7 70.7375 20.548C70.3295 20.396 69.8695 20.32 69.3575 20.32C68.3895 20.32 67.6495 20.62 67.1375 21.22C66.6335 21.82 66.3815 22.672 66.3815 23.776C66.3815 24.896 66.6415 25.752 67.1615 26.344C67.6895 26.936 68.4815 27.232 69.5375 27.232C69.9215 27.232 70.2975 27.196 70.6655 27.124C71.0335 27.044 71.3815 26.936 71.7095 26.8L71.4935 27.364V24.376H69.3455V23.596H72.3455V27.508C72.1295 27.62 71.8615 27.724 71.5415 27.82C71.2215 27.908 70.8855 27.976 70.5335 28.024C70.1815 28.08 69.8415 28.108 69.5135 28.108ZM74.3565 28V19.54H77.7045C78.6085 19.54 79.3045 19.752 79.7925 20.176C80.2805 20.6 80.5245 21.204 80.5245 21.988C80.5245 22.484 80.4125 22.916 80.1885 23.284C79.9725 23.644 79.6525 23.92 79.2285 24.112C78.8045 24.296 78.2965 24.388 77.7045 24.388L77.8245 24.232H78.0645C78.3765 24.232 78.6485 24.312 78.8805 24.472C79.1125 24.632 79.3245 24.888 79.5165 25.24L81.0045 28H79.9245L78.4605 25.288C78.3405 25.064 78.2045 24.888 78.0525 24.76C77.9085 24.632 77.7405 24.544 77.5485 24.496C77.3645 24.448 77.1405 24.424 76.8765 24.424H75.3405V28H74.3565ZM75.3405 23.644H77.5605C78.2165 23.644 78.7125 23.508 79.0485 23.236C79.3845 22.956 79.5525 22.54 79.5525 21.988C79.5525 21.452 79.3845 21.048 79.0485 20.776C78.7125 20.496 78.2165 20.356 77.5605 20.356H75.3405V23.644ZM84.8949 28L81.1989 19.54H82.2549L85.5549 27.208H85.1709L88.4589 19.54H89.4909L85.7829 28H84.8949ZM89.7859 25.204V24.4H93.1459V25.204H89.7859ZM97.7878 28.108C97.4278 28.108 97.0758 28.068 96.7318 27.988C96.3878 27.908 96.0638 27.792 95.7598 27.64C95.4638 27.488 95.1998 27.308 94.9678 27.1L95.3398 26.32C95.7238 26.632 96.1118 26.864 96.5038 27.016C96.9038 27.16 97.3278 27.232 97.7758 27.232C98.3678 27.232 98.8278 27.068 99.1558 26.74C99.4918 26.412 99.6598 25.98 99.6598 25.444C99.6598 24.892 99.4998 24.44 99.1798 24.088C98.8598 23.736 98.4198 23.56 97.8598 23.56C97.4518 23.56 97.0918 23.644 96.7798 23.812C96.4758 23.972 96.1998 24.224 95.9518 24.568H95.2318V19.54H100.14V20.38H96.2038V23.752H95.9398C96.1478 23.416 96.4358 23.16 96.8038 22.984C97.1718 22.8 97.5838 22.708 98.0398 22.708C98.5758 22.708 99.0358 22.82 99.4198 23.044C99.8118 23.268 100.112 23.584 100.32 23.992C100.536 24.392 100.644 24.86 100.644 25.396C100.644 25.924 100.528 26.392 100.296 26.8C100.064 27.208 99.7358 27.528 99.3118 27.76C98.8878 27.992 98.3798 28.108 97.7878 28.108ZM104.803 28.108C104.163 28.108 103.619 27.944 103.171 27.616C102.731 27.28 102.399 26.788 102.175 26.14C101.951 25.492 101.839 24.7 101.839 23.764C101.839 22.82 101.951 22.028 102.175 21.388C102.399 20.74 102.731 20.252 103.171 19.924C103.619 19.596 104.163 19.432 104.803 19.432C105.451 19.432 105.995 19.596 106.435 19.924C106.875 20.252 107.207 20.736 107.431 21.376C107.655 22.016 107.767 22.808 107.767 23.752C107.767 24.696 107.655 25.492 107.431 26.14C107.207 26.788 106.875 27.28 106.435 27.616C105.995 27.944 105.451 28.108 104.803 28.108ZM104.803 27.256C105.475 27.256 105.971 26.972 106.291 26.404C106.619 25.836 106.783 24.952 106.783 23.752C106.783 22.552 106.623 21.676 106.303 21.124C105.983 20.564 105.483 20.284 104.803 20.284C104.139 20.284 103.643 20.564 103.315 21.124C102.987 21.684 102.823 22.56 102.823 23.752C102.823 24.952 102.983 25.836 103.303 26.404C103.631 26.972 104.131 27.256 104.803 27.256ZM111.422 28.108C111.134 28.108 110.842 28.068 110.546 27.988C110.25 27.9 109.97 27.78 109.706 27.628C109.45 27.476 109.226 27.296 109.034 27.088L109.406 26.308C109.694 26.62 110.014 26.852 110.366 27.004C110.718 27.156 111.074 27.232 111.434 27.232C111.826 27.232 112.174 27.16 112.478 27.016C112.782 26.872 113.038 26.656 113.246 26.368C113.454 26.072 113.61 25.708 113.714 25.276C113.826 24.836 113.882 24.328 113.882 23.752V22.636H113.978C113.93 23.084 113.794 23.476 113.57 23.812C113.354 24.148 113.074 24.404 112.73 24.58C112.386 24.756 111.998 24.844 111.566 24.844C111.07 24.844 110.63 24.732 110.246 24.508C109.87 24.284 109.57 23.968 109.346 23.56C109.13 23.152 109.022 22.692 109.022 22.18C109.022 21.644 109.134 21.172 109.358 20.764C109.59 20.348 109.906 20.024 110.306 19.792C110.714 19.552 111.182 19.432 111.71 19.432C112.374 19.432 112.938 19.596 113.402 19.924C113.874 20.244 114.23 20.712 114.47 21.328C114.71 21.944 114.83 22.688 114.83 23.56C114.83 24.528 114.694 25.352 114.422 26.032C114.158 26.712 113.77 27.228 113.258 27.58C112.754 27.932 112.142 28.108 111.422 28.108ZM111.782 24.016C112.134 24.016 112.446 23.936 112.718 23.776C112.99 23.616 113.202 23.396 113.354 23.116C113.506 22.836 113.582 22.512 113.582 22.144C113.582 21.768 113.506 21.44 113.354 21.16C113.202 20.88 112.99 20.66 112.718 20.5C112.446 20.34 112.134 20.26 111.782 20.26C111.422 20.26 111.106 20.34 110.834 20.5C110.57 20.66 110.358 20.88 110.198 21.16C110.046 21.44 109.97 21.768 109.97 22.144C109.97 22.512 110.046 22.836 110.198 23.116C110.358 23.396 110.57 23.616 110.834 23.776C111.106 23.936 111.422 24.016 111.782 24.016ZM119.194 28.108C118.242 28.108 117.502 27.904 116.974 27.496C116.446 27.08 116.182 26.5 116.182 25.756C116.182 25.364 116.262 25.016 116.422 24.712C116.582 24.4 116.806 24.148 117.094 23.956C117.382 23.764 117.714 23.644 118.09 23.596V23.776C117.746 23.696 117.446 23.56 117.19 23.368C116.934 23.168 116.734 22.924 116.59 22.636C116.454 22.348 116.386 22.032 116.386 21.688C116.386 20.976 116.638 20.424 117.142 20.032C117.654 19.632 118.338 19.432 119.194 19.432C120.058 19.432 120.742 19.632 121.246 20.032C121.758 20.424 122.014 20.976 122.014 21.688C122.014 22.032 121.942 22.352 121.798 22.648C121.662 22.936 121.466 23.176 121.21 23.368C120.954 23.56 120.654 23.692 120.31 23.764V23.596C120.686 23.644 121.014 23.768 121.294 23.968C121.582 24.16 121.806 24.408 121.966 24.712C122.126 25.016 122.206 25.364 122.206 25.756C122.206 26.5 121.942 27.08 121.414 27.496C120.886 27.904 120.146 28.108 119.194 28.108ZM119.194 27.292C119.874 27.292 120.386 27.16 120.73 26.896C121.082 26.632 121.258 26.232 121.258 25.696C121.258 25.168 121.082 24.776 120.73 24.52C120.386 24.256 119.874 24.124 119.194 24.124C118.522 24.124 118.01 24.256 117.658 24.52C117.306 24.776 117.13 25.168 117.13 25.696C117.13 26.232 117.306 26.632 117.658 26.896C118.01 27.16 118.522 27.292 119.194 27.292ZM119.194 23.308C119.786 23.308 120.246 23.172 120.574 22.9C120.902 22.628 121.066 22.252 121.066 21.772C121.066 21.292 120.902 20.92 120.574 20.656C120.246 20.384 119.786 20.248 119.194 20.248C118.61 20.248 118.154 20.384 117.826 20.656C117.498 20.92 117.334 21.292 117.334 21.772C117.334 22.252 117.498 22.628 117.826 22.9C118.154 23.172 118.61 23.308 119.194 23.308ZM126.389 28.108C125.437 28.108 124.697 27.904 124.169 27.496C123.641 27.08 123.377 26.5 123.377 25.756C123.377 25.364 123.457 25.016 123.617 24.712C123.777 24.4 124.001 24.148 124.289 23.956C124.577 23.764 124.909 23.644 125.285 23.596V23.776C124.941 23.696 124.641 23.56 124.385 23.368C124.129 23.168 123.929 22.924 123.785 22.636C123.649 22.348 123.581 22.032 123.581 21.688C123.581 20.976 123.833 20.424 124.337 20.032C124.849 19.632 125.533 19.432 126.389 19.432C127.253 19.432 127.937 19.632 128.441 20.032C128.953 20.424 129.209 20.976 129.209 21.688C129.209 22.032 129.137 22.352 128.993 22.648C128.857 22.936 128.661 23.176 128.405 23.368C128.149 23.56 127.849 23.692 127.505 23.764V23.596C127.881 23.644 128.209 23.768 128.489 23.968C128.777 24.16 129.001 24.408 129.161 24.712C129.321 25.016 129.401 25.364 129.401 25.756C129.401 26.5 129.137 27.08 128.609 27.496C128.081 27.904 127.341 28.108 126.389 28.108ZM126.389 27.292C127.069 27.292 127.581 27.16 127.925 26.896C128.277 26.632 128.453 26.232 128.453 25.696C128.453 25.168 128.277 24.776 127.925 24.52C127.581 24.256 127.069 24.124 126.389 24.124C125.717 24.124 125.205 24.256 124.853 24.52C124.501 24.776 124.325 25.168 124.325 25.696C124.325 26.232 124.501 26.632 124.853 26.896C125.205 27.16 125.717 27.292 126.389 27.292ZM126.389 23.308C126.981 23.308 127.441 23.172 127.769 22.9C128.097 22.628 128.261 22.252 128.261 21.772C128.261 21.292 128.097 20.92 127.769 20.656C127.441 20.384 126.981 20.248 126.389 20.248C125.805 20.248 125.349 20.384 125.021 20.656C124.693 20.92 124.529 21.292 124.529 21.772C124.529 22.252 124.693 22.628 125.021 22.9C125.349 23.172 125.805 23.308 126.389 23.308ZM130.74 23.392V22.168H131.964V23.392H130.74ZM130.74 28V26.776H131.964V28H130.74Z" fill="#737682"/>
<path id="Departure" d="M197.984 28V19.54H203.456V20.548H199.184V23.2H203.204V24.208H199.184V26.992H203.456V28H197.984ZM206.826 28.108C206.186 28.108 205.706 27.928 205.386 27.568C205.074 27.2 204.918 26.672 204.918 25.984V19.54H206.13V25.912C206.13 26.168 206.166 26.388 206.238 26.572C206.31 26.748 206.418 26.88 206.562 26.968C206.706 27.056 206.886 27.1 207.102 27.1C207.198 27.1 207.29 27.096 207.378 27.088C207.466 27.08 207.55 27.064 207.63 27.04L207.606 28.012C207.47 28.044 207.338 28.068 207.21 28.084C207.082 28.1 206.954 28.108 206.826 28.108ZM208.478 20.788V19.528H209.894V20.788H208.478ZM208.586 28V22.144H209.798V28H208.586ZM214.156 30.268C213.628 30.268 213.136 30.204 212.68 30.076C212.224 29.948 211.82 29.756 211.468 29.5L211.84 28.636C212.072 28.788 212.308 28.916 212.548 29.02C212.796 29.132 213.044 29.212 213.292 29.26C213.548 29.308 213.808 29.332 214.072 29.332C214.632 29.332 215.052 29.188 215.332 28.9C215.612 28.62 215.752 28.204 215.752 27.652V26.428H215.86C215.74 26.868 215.488 27.216 215.104 27.472C214.72 27.728 214.276 27.856 213.772 27.856C213.244 27.856 212.784 27.736 212.392 27.496C212 27.248 211.696 26.908 211.48 26.476C211.264 26.036 211.156 25.524 211.156 24.94C211.156 24.356 211.264 23.848 211.48 23.416C211.696 22.984 212 22.648 212.392 22.408C212.784 22.16 213.244 22.036 213.772 22.036C214.284 22.036 214.728 22.164 215.104 22.42C215.488 22.676 215.736 23.024 215.848 23.464H215.752V22.144H216.928V27.508C216.928 28.116 216.824 28.624 216.616 29.032C216.408 29.448 216.096 29.756 215.68 29.956C215.272 30.164 214.764 30.268 214.156 30.268ZM214.06 26.908C214.58 26.908 214.988 26.732 215.284 26.38C215.588 26.028 215.74 25.548 215.74 24.94C215.74 24.34 215.588 23.864 215.284 23.512C214.988 23.16 214.58 22.984 214.06 22.984C213.548 22.984 213.14 23.16 212.836 23.512C212.532 23.864 212.38 24.34 212.38 24.94C212.38 25.548 212.532 26.028 212.836 26.38C213.14 26.732 213.548 26.908 214.06 26.908ZM218.521 20.788V19.528H219.937V20.788H218.521ZM218.629 28V22.144H219.841V28H218.629ZM224.691 28.108C224.179 28.108 223.735 27.98 223.359 27.724C222.983 27.46 222.731 27.112 222.603 26.68H222.735V28H221.547V19.54H222.759V23.428H222.615C222.743 23.004 222.995 22.668 223.371 22.42C223.747 22.164 224.187 22.036 224.691 22.036C225.219 22.036 225.675 22.16 226.059 22.408C226.443 22.656 226.739 23.004 226.947 23.452C227.163 23.9 227.271 24.44 227.271 25.072C227.271 25.688 227.163 26.228 226.947 26.692C226.739 27.148 226.439 27.5 226.047 27.748C225.663 27.988 225.211 28.108 224.691 28.108ZM224.391 27.172C224.895 27.172 225.295 26.992 225.591 26.632C225.895 26.272 226.047 25.752 226.047 25.072C226.047 24.384 225.895 23.864 225.591 23.512C225.295 23.16 224.895 22.984 224.391 22.984C223.895 22.984 223.495 23.16 223.191 23.512C222.887 23.864 222.735 24.384 222.735 25.072C222.735 25.752 222.887 26.272 223.191 26.632C223.495 26.992 223.895 27.172 224.391 27.172ZM230.545 28.108C229.905 28.108 229.425 27.928 229.105 27.568C228.793 27.2 228.637 26.672 228.637 25.984V19.54H229.849V25.912C229.849 26.168 229.885 26.388 229.957 26.572C230.029 26.748 230.137 26.88 230.281 26.968C230.425 27.056 230.605 27.1 230.821 27.1C230.917 27.1 231.009 27.096 231.097 27.088C231.185 27.08 231.269 27.064 231.349 27.04L231.325 28.012C231.189 28.044 231.057 28.068 230.929 28.084C230.801 28.1 230.673 28.108 230.545 28.108ZM234.995 28.108C234.355 28.108 233.803 27.988 233.339 27.748C232.883 27.5 232.527 27.152 232.271 26.704C232.023 26.248 231.899 25.708 231.899 25.084C231.899 24.476 232.023 23.944 232.271 23.488C232.519 23.032 232.859 22.676 233.291 22.42C233.723 22.164 234.215 22.036 234.767 22.036C235.311 22.036 235.775 22.156 236.159 22.396C236.551 22.628 236.851 22.96 237.059 23.392C237.267 23.824 237.371 24.34 237.371 24.94V25.348H232.859V24.604H236.555L236.351 24.772C236.351 24.172 236.219 23.708 235.955 23.38C235.691 23.052 235.311 22.888 234.815 22.888C234.439 22.888 234.119 22.976 233.855 23.152C233.599 23.328 233.403 23.572 233.267 23.884C233.131 24.196 233.063 24.56 233.063 24.976V25.048C233.063 25.512 233.135 25.904 233.279 26.224C233.431 26.536 233.651 26.772 233.939 26.932C234.227 27.092 234.583 27.172 235.007 27.172C235.343 27.172 235.671 27.12 235.991 27.016C236.319 26.904 236.627 26.732 236.915 26.5L237.275 27.34C237.011 27.58 236.671 27.768 236.255 27.904C235.839 28.04 235.419 28.108 234.995 28.108Z" fill="#444050"/>
</g>
</g>
<path id="Line 344" d="M18 44H238.02" stroke="#EAEAEC" stroke-linecap="round"/>
<g id="Info Origin_2">
<g id="Main_2">
<path id="Time_2" d="M18.228 68L21.96 59.54H22.8L26.532 68H25.512L24.468 65.588L24.948 65.84H19.788L20.28 65.588L19.248 68H18.228ZM22.368 60.692L20.436 65.24L20.148 65.012H24.588L24.324 65.24L22.392 60.692H22.368ZM29.7182 68.108C29.2462 68.108 28.8542 68.024 28.5422 67.856C28.2382 67.68 28.0062 67.42 27.8462 67.076C27.6942 66.732 27.6182 66.304 27.6182 65.792V62.168H28.5902V65.78C28.5902 66.124 28.6342 66.412 28.7222 66.644C28.8182 66.868 28.9662 67.036 29.1662 67.148C29.3662 67.252 29.6142 67.304 29.9102 67.304C30.2462 67.304 30.5382 67.228 30.7862 67.076C31.0342 66.924 31.2302 66.712 31.3742 66.44C31.5182 66.168 31.5902 65.848 31.5902 65.48V62.168H32.5622V68H31.6142V66.656H31.7702C31.6102 67.128 31.3462 67.488 30.9782 67.736C30.6182 67.984 30.1982 68.108 29.7182 68.108ZM36.7208 68.108C36.0328 68.108 35.5168 67.924 35.1728 67.556C34.8288 67.188 34.6568 66.664 34.6568 65.984V62.924H33.5168V62.168H34.6568V60.38H35.6288V62.168H37.4768V62.924H35.6288V65.888C35.6288 66.344 35.7248 66.692 35.9168 66.932C36.1088 67.164 36.4208 67.28 36.8528 67.28C36.9808 67.28 37.1088 67.264 37.2368 67.232C37.3648 67.2 37.4808 67.168 37.5848 67.136L37.7528 67.88C37.6488 67.936 37.4968 67.988 37.2968 68.036C37.0968 68.084 36.9048 68.108 36.7208 68.108ZM40.9415 68.108C40.3735 68.108 39.8815 67.984 39.4655 67.736C39.0495 67.488 38.7255 67.14 38.4935 66.692C38.2695 66.236 38.1575 65.7 38.1575 65.084C38.1575 64.468 38.2695 63.936 38.4935 63.488C38.7255 63.032 39.0495 62.68 39.4655 62.432C39.8815 62.184 40.3735 62.06 40.9415 62.06C41.5095 62.06 42.0015 62.184 42.4175 62.432C42.8335 62.68 43.1535 63.032 43.3775 63.488C43.6095 63.936 43.7255 64.468 43.7255 65.084C43.7255 65.7 43.6095 66.236 43.3775 66.692C43.1535 67.14 42.8335 67.488 42.4175 67.736C42.0015 67.984 41.5095 68.108 40.9415 68.108ZM40.9415 67.328C41.4935 67.328 41.9295 67.136 42.2495 66.752C42.5775 66.36 42.7415 65.8 42.7415 65.072C42.7415 64.352 42.5775 63.8 42.2495 63.416C41.9295 63.032 41.4935 62.84 40.9415 62.84C40.3975 62.84 39.9615 63.032 39.6335 63.416C39.3055 63.8 39.1415 64.352 39.1415 65.072C39.1415 65.8 39.3055 66.36 39.6335 66.752C39.9615 67.136 40.3975 67.328 40.9415 67.328ZM45.3132 65.204V64.4H48.6732V65.204H45.3132ZM52.2832 68.108C51.8832 68.108 51.5232 68.032 51.2032 67.88C50.8912 67.72 50.6432 67.504 50.4592 67.232C50.2752 66.96 50.1832 66.656 50.1832 66.32C50.1832 65.888 50.2912 65.548 50.5072 65.3C50.7312 65.052 51.0952 64.876 51.5992 64.772C52.1112 64.668 52.8072 64.616 53.6872 64.616H54.2272V65.252H53.6992C53.2112 65.252 52.8032 65.268 52.4752 65.3C52.1472 65.332 51.8872 65.388 51.6952 65.468C51.5032 65.548 51.3672 65.652 51.2872 65.78C51.2072 65.908 51.1672 66.068 51.1672 66.26C51.1672 66.588 51.2792 66.856 51.5032 67.064C51.7352 67.272 52.0472 67.376 52.4392 67.376C52.7592 67.376 53.0392 67.3 53.2792 67.148C53.5272 66.996 53.7192 66.788 53.8552 66.524C53.9992 66.26 54.0712 65.956 54.0712 65.612V64.244C54.0712 63.748 53.9712 63.392 53.7712 63.176C53.5712 62.952 53.2432 62.84 52.7872 62.84C52.4352 62.84 52.0952 62.892 51.7672 62.996C51.4392 63.092 51.1032 63.252 50.7592 63.476L50.4232 62.768C50.6312 62.624 50.8672 62.5 51.1312 62.396C51.3952 62.284 51.6712 62.2 51.9592 62.144C52.2472 62.088 52.5232 62.06 52.7872 62.06C53.2912 62.06 53.7072 62.144 54.0352 62.312C54.3632 62.472 54.6072 62.72 54.7672 63.056C54.9272 63.384 55.0072 63.808 55.0072 64.328V68H54.0952V66.644H54.2032C54.1392 66.948 54.0152 67.208 53.8312 67.424C53.6552 67.64 53.4352 67.808 53.1712 67.928C52.9072 68.048 52.6112 68.108 52.2832 68.108ZM56.8104 70.16V62.168H57.7584V63.548H57.6384C57.7664 63.092 58.0184 62.732 58.3944 62.468C58.7784 62.196 59.2344 62.06 59.7624 62.06C60.2824 62.06 60.7344 62.184 61.1184 62.432C61.5104 62.672 61.8104 63.02 62.0184 63.476C62.2344 63.924 62.3424 64.46 62.3424 65.084C62.3424 65.7 62.2344 66.236 62.0184 66.692C61.8104 67.14 61.5144 67.488 61.1304 67.736C60.7464 67.984 60.2904 68.108 59.7624 68.108C59.2344 68.108 58.7824 67.976 58.4064 67.712C58.0304 67.44 57.7744 67.08 57.6384 66.632H57.7824V70.16H56.8104ZM59.5584 67.328C60.1104 67.328 60.5464 67.136 60.8664 66.752C61.1944 66.36 61.3584 65.804 61.3584 65.084C61.3584 64.356 61.1944 63.8 60.8664 63.416C60.5464 63.032 60.1104 62.84 59.5584 62.84C59.0144 62.84 58.5784 63.032 58.2504 63.416C57.9224 63.8 57.7584 64.356 57.7584 65.084C57.7584 65.804 57.9224 66.36 58.2504 66.752C58.5784 67.136 59.0144 67.328 59.5584 67.328ZM63.8065 70.16V62.168H64.7545V63.548H64.6345C64.7625 63.092 65.0145 62.732 65.3905 62.468C65.7745 62.196 66.2305 62.06 66.7585 62.06C67.2785 62.06 67.7305 62.184 68.1145 62.432C68.5065 62.672 68.8065 63.02 69.0145 63.476C69.2305 63.924 69.3385 64.46 69.3385 65.084C69.3385 65.7 69.2305 66.236 69.0145 66.692C68.8065 67.14 68.5105 67.488 68.1265 67.736C67.7425 67.984 67.2865 68.108 66.7585 68.108C66.2305 68.108 65.7785 67.976 65.4025 67.712C65.0265 67.44 64.7705 67.08 64.6345 66.632H64.7785V70.16H63.8065ZM66.5545 67.328C67.1065 67.328 67.5425 67.136 67.8625 66.752C68.1905 66.36 68.3545 65.804 68.3545 65.084C68.3545 64.356 68.1905 63.8 67.8625 63.416C67.5425 63.032 67.1065 62.84 66.5545 62.84C66.0105 62.84 65.5745 63.032 65.2465 63.416C64.9185 63.8 64.7545 64.356 64.7545 65.084C64.7545 65.804 64.9185 66.36 65.2465 66.752C65.5745 67.136 66.0105 67.328 66.5545 67.328ZM70.8026 68V62.168H71.7506V63.548H71.6306C71.7666 63.076 72.0026 62.72 72.3386 62.48C72.6746 62.232 73.1186 62.088 73.6706 62.048L74.0186 62.012L74.0906 62.852L73.4786 62.924C72.9346 62.972 72.5146 63.148 72.2186 63.452C71.9306 63.748 71.7866 64.156 71.7866 64.676V68H70.8026ZM77.4571 68.108C76.8891 68.108 76.3971 67.984 75.9811 67.736C75.5651 67.488 75.2411 67.14 75.0091 66.692C74.7851 66.236 74.6731 65.7 74.6731 65.084C74.6731 64.468 74.7851 63.936 75.0091 63.488C75.2411 63.032 75.5651 62.68 75.9811 62.432C76.3971 62.184 76.8891 62.06 77.4571 62.06C78.0251 62.06 78.5171 62.184 78.9331 62.432C79.3491 62.68 79.6691 63.032 79.8931 63.488C80.1251 63.936 80.2411 64.468 80.2411 65.084C80.2411 65.7 80.1251 66.236 79.8931 66.692C79.6691 67.14 79.3491 67.488 78.9331 67.736C78.5171 67.984 78.0251 68.108 77.4571 68.108ZM77.4571 67.328C78.0091 67.328 78.4451 67.136 78.7651 66.752C79.0931 66.36 79.2571 65.8 79.2571 65.072C79.2571 64.352 79.0931 63.8 78.7651 63.416C78.4451 63.032 78.0091 62.84 77.4571 62.84C76.9131 62.84 76.4771 63.032 76.1491 63.416C75.8211 63.8 75.6571 64.352 75.6571 65.072C75.6571 65.8 75.8211 66.36 76.1491 66.752C76.4771 67.136 76.9131 67.328 77.4571 67.328ZM83.335 68L80.827 62.168H81.883L83.971 67.28H83.647L85.771 62.168H86.767L84.247 68H83.335ZM90.3408 68.108C89.7248 68.108 89.1928 67.988 88.7448 67.748C88.3048 67.5 87.9608 67.152 87.7128 66.704C87.4728 66.256 87.3528 65.72 87.3528 65.096C87.3528 64.488 87.4728 63.96 87.7128 63.512C87.9528 63.056 88.2808 62.7 88.6968 62.444C89.1208 62.188 89.6088 62.06 90.1608 62.06C90.6888 62.06 91.1408 62.176 91.5168 62.408C91.8928 62.64 92.1808 62.968 92.3808 63.392C92.5888 63.816 92.6928 64.324 92.6928 64.916V65.288H88.0968V64.652H92.0448L91.8528 64.808C91.8528 64.168 91.7088 63.672 91.4208 63.32C91.1408 62.96 90.7288 62.78 90.1848 62.78C89.7768 62.78 89.4288 62.876 89.1408 63.068C88.8608 63.252 88.6488 63.512 88.5048 63.848C88.3608 64.176 88.2888 64.56 88.2888 65V65.072C88.2888 65.56 88.3648 65.972 88.5168 66.308C88.6768 66.644 88.9128 66.9 89.2248 67.076C89.5368 67.244 89.9088 67.328 90.3408 67.328C90.6848 67.328 91.0168 67.276 91.3368 67.172C91.6648 67.06 91.9728 66.88 92.2608 66.632L92.5968 67.316C92.3328 67.556 91.9968 67.748 91.5888 67.892C91.1808 68.036 90.7648 68.108 90.3408 68.108ZM97.1815 68V62.168H98.1295V63.548H98.0095C98.1455 63.076 98.3815 62.72 98.7175 62.48C99.0535 62.232 99.4975 62.088 100.05 62.048L100.398 62.012L100.47 62.852L99.8575 62.924C99.3135 62.972 98.8935 63.148 98.5975 63.452C98.3095 63.748 98.1655 64.156 98.1655 64.676V68H97.1815ZM104.04 68.108C103.424 68.108 102.892 67.988 102.444 67.748C102.004 67.5 101.66 67.152 101.412 66.704C101.172 66.256 101.052 65.72 101.052 65.096C101.052 64.488 101.172 63.96 101.412 63.512C101.652 63.056 101.98 62.7 102.396 62.444C102.82 62.188 103.308 62.06 103.86 62.06C104.388 62.06 104.84 62.176 105.216 62.408C105.592 62.64 105.88 62.968 106.08 63.392C106.288 63.816 106.392 64.324 106.392 64.916V65.288H101.796V64.652H105.744L105.552 64.808C105.552 64.168 105.408 63.672 105.12 63.32C104.84 62.96 104.428 62.78 103.884 62.78C103.476 62.78 103.128 62.876 102.84 63.068C102.56 63.252 102.348 63.512 102.204 63.848C102.06 64.176 101.988 64.56 101.988 65V65.072C101.988 65.56 102.064 65.972 102.216 66.308C102.376 66.644 102.612 66.9 102.924 67.076C103.236 67.244 103.608 67.328 104.04 67.328C104.384 67.328 104.716 67.276 105.036 67.172C105.364 67.06 105.672 66.88 105.96 66.632L106.296 67.316C106.032 67.556 105.696 67.748 105.288 67.892C104.88 68.036 104.464 68.108 104.04 68.108ZM110.139 68.108C109.451 68.108 108.935 67.924 108.591 67.556C108.247 67.188 108.075 66.664 108.075 65.984V62.924H106.935V62.168H108.075V60.38H109.047V62.168H110.895V62.924H109.047V65.888C109.047 66.344 109.143 66.692 109.335 66.932C109.527 67.164 109.839 67.28 110.271 67.28C110.399 67.28 110.527 67.264 110.655 67.232C110.783 67.2 110.899 67.168 111.003 67.136L111.171 67.88C111.067 67.936 110.915 67.988 110.715 68.036C110.515 68.084 110.323 68.108 110.139 68.108ZM114.058 68.108C113.586 68.108 113.194 68.024 112.882 67.856C112.578 67.68 112.346 67.42 112.186 67.076C112.034 66.732 111.958 66.304 111.958 65.792V62.168H112.93V65.78C112.93 66.124 112.974 66.412 113.062 66.644C113.158 66.868 113.306 67.036 113.506 67.148C113.706 67.252 113.954 67.304 114.25 67.304C114.586 67.304 114.878 67.228 115.126 67.076C115.374 66.924 115.57 66.712 115.714 66.44C115.858 66.168 115.93 65.848 115.93 65.48V62.168H116.902V68H115.954V66.656H116.11C115.95 67.128 115.686 67.488 115.318 67.736C114.958 67.984 114.538 68.108 114.058 68.108ZM118.721 68V62.168H119.669V63.548H119.549C119.685 63.076 119.921 62.72 120.257 62.48C120.593 62.232 121.037 62.088 121.589 62.048L121.937 62.012L122.009 62.852L121.397 62.924C120.853 62.972 120.433 63.148 120.137 63.452C119.849 63.748 119.705 64.156 119.705 64.676V68H118.721ZM123.021 68V62.168H123.969V63.464H123.837C124.005 63 124.277 62.652 124.653 62.42C125.037 62.18 125.477 62.06 125.973 62.06C126.437 62.06 126.821 62.144 127.125 62.312C127.437 62.472 127.669 62.724 127.821 63.068C127.973 63.412 128.049 63.844 128.049 64.364V68H127.077V64.424C127.077 64.064 127.029 63.768 126.933 63.536C126.845 63.304 126.701 63.132 126.501 63.02C126.309 62.908 126.057 62.852 125.745 62.852C125.393 62.852 125.085 62.928 124.821 63.08C124.557 63.232 124.353 63.444 124.209 63.716C124.065 63.988 123.993 64.308 123.993 64.676V68H123.021ZM131.81 68.108C131.506 68.108 131.21 68.076 130.922 68.012C130.642 67.956 130.378 67.876 130.13 67.772C129.89 67.66 129.682 67.528 129.506 67.376L129.818 66.692C130.01 66.844 130.218 66.972 130.442 67.076C130.666 67.172 130.894 67.244 131.126 67.292C131.358 67.34 131.594 67.364 131.834 67.364C132.29 67.364 132.634 67.28 132.866 67.112C133.098 66.944 133.214 66.716 133.214 66.428C133.214 66.204 133.138 66.028 132.986 65.9C132.834 65.764 132.594 65.66 132.266 65.588L131.174 65.348C130.67 65.244 130.294 65.064 130.046 64.808C129.806 64.552 129.686 64.22 129.686 63.812C129.686 63.452 129.778 63.144 129.962 62.888C130.154 62.624 130.422 62.42 130.766 62.276C131.11 62.132 131.51 62.06 131.966 62.06C132.238 62.06 132.498 62.088 132.746 62.144C132.994 62.2 133.226 62.284 133.442 62.396C133.666 62.5 133.858 62.632 134.018 62.792L133.694 63.476C133.542 63.332 133.37 63.212 133.178 63.116C132.986 63.012 132.786 62.936 132.578 62.888C132.378 62.832 132.174 62.804 131.966 62.804C131.518 62.804 131.178 62.892 130.946 63.068C130.714 63.244 130.598 63.476 130.598 63.764C130.598 63.988 130.67 64.172 130.814 64.316C130.958 64.46 131.182 64.564 131.486 64.628L132.578 64.856C133.098 64.968 133.486 65.148 133.742 65.396C134.006 65.636 134.138 65.964 134.138 66.38C134.138 66.732 134.042 67.04 133.85 67.304C133.658 67.56 133.386 67.76 133.034 67.904C132.69 68.04 132.282 68.108 131.81 68.108ZM135.463 63.392V62.168H136.687V63.392H135.463ZM135.463 68V66.776H136.687V68H135.463Z" fill="#737682"/>
<g id="Toggle Button">
<rect x="210" y="56" width="28" height="16" rx="8" fill="#FBC942"/>
<circle id="Toggle" cx="230" cy="64" r="6" fill="white"/>
</g>
</g>
</g>
<path id="Line 345" d="M18 84H238.02" stroke="#EAEAEC" stroke-linecap="round"/>
<g id="Info Origin_3">
<g id="Main_3">
<path id="Time_3" d="M19.044 108V99.54H22.392C23.296 99.54 23.992 99.752 24.48 100.176C24.968 100.6 25.212 101.204 25.212 101.988C25.212 102.484 25.1 102.916 24.876 103.284C24.66 103.644 24.34 103.92 23.916 104.112C23.492 104.296 22.984 104.388 22.392 104.388L22.512 104.232H22.752C23.064 104.232 23.336 104.312 23.568 104.472C23.8 104.632 24.012 104.888 24.204 105.24L25.692 108H24.612L23.148 105.288C23.028 105.064 22.892 104.888 22.74 104.76C22.596 104.632 22.428 104.544 22.236 104.496C22.052 104.448 21.828 104.424 21.564 104.424H20.028V108H19.044ZM20.028 103.644H22.248C22.904 103.644 23.4 103.508 23.736 103.236C24.072 102.956 24.24 102.54 24.24 101.988C24.24 101.452 24.072 101.048 23.736 100.776C23.4 100.496 22.904 100.356 22.248 100.356H20.028V103.644ZM29.4384 108.108C28.8224 108.108 28.2904 107.988 27.8424 107.748C27.4024 107.5 27.0584 107.152 26.8104 106.704C26.5704 106.256 26.4504 105.72 26.4504 105.096C26.4504 104.488 26.5704 103.96 26.8104 103.512C27.0504 103.056 27.3784 102.7 27.7944 102.444C28.2184 102.188 28.7064 102.06 29.2584 102.06C29.7864 102.06 30.2384 102.176 30.6144 102.408C30.9904 102.64 31.2784 102.968 31.4784 103.392C31.6864 103.816 31.7904 104.324 31.7904 104.916V105.288H27.1944V104.652H31.1424L30.9504 104.808C30.9504 104.168 30.8064 103.672 30.5184 103.32C30.2384 102.96 29.8264 102.78 29.2824 102.78C28.8744 102.78 28.5264 102.876 28.2384 103.068C27.9584 103.252 27.7464 103.512 27.6024 103.848C27.4584 104.176 27.3864 104.56 27.3864 105V105.072C27.3864 105.56 27.4624 105.972 27.6144 106.308C27.7744 106.644 28.0104 106.9 28.3224 107.076C28.6344 107.244 29.0064 107.328 29.4384 107.328C29.7824 107.328 30.1144 107.276 30.4344 107.172C30.7624 107.06 31.0704 106.88 31.3584 106.632L31.6944 107.316C31.4304 107.556 31.0944 107.748 30.6864 107.892C30.2784 108.036 29.8624 108.108 29.4384 108.108ZM33.5092 108V102.924H32.3572V102.168H33.7732L33.5092 102.42V101.964C33.5092 101.188 33.7012 100.6 34.0852 100.2C34.4772 99.8 35.0772 99.576 35.8852 99.528L36.3532 99.504L36.4372 100.248L35.8852 100.284C35.5572 100.308 35.2892 100.38 35.0812 100.5C34.8732 100.62 34.7212 100.792 34.6252 101.016C34.5292 101.24 34.4812 101.516 34.4812 101.844V102.348L34.3372 102.168H36.1612V102.924H34.4812V108H33.5092ZM39.2573 108.108C38.7853 108.108 38.3933 108.024 38.0813 107.856C37.7773 107.68 37.5453 107.42 37.3853 107.076C37.2333 106.732 37.1573 106.304 37.1573 105.792V102.168H38.1293V105.78C38.1293 106.124 38.1733 106.412 38.2613 106.644C38.3573 106.868 38.5053 107.036 38.7053 107.148C38.9053 107.252 39.1533 107.304 39.4492 107.304C39.7853 107.304 40.0773 107.228 40.3253 107.076C40.5733 106.924 40.7693 106.712 40.9133 106.44C41.0573 106.168 41.1293 105.848 41.1293 105.48V102.168H42.1013V108H41.1533V106.656H41.3093C41.1493 107.128 40.8853 107.488 40.5173 107.736C40.1573 107.984 39.7373 108.108 39.2573 108.108ZM43.9198 108V102.168H44.8678V103.464H44.7358C44.9038 103 45.1758 102.652 45.5518 102.42C45.9358 102.18 46.3758 102.06 46.8718 102.06C47.3358 102.06 47.7198 102.144 48.0238 102.312C48.3358 102.472 48.5678 102.724 48.7198 103.068C48.8718 103.412 48.9478 103.844 48.9478 104.364V108H47.9758V104.424C47.9758 104.064 47.9278 103.768 47.8318 103.536C47.7438 103.304 47.5998 103.132 47.3998 103.02C47.2078 102.908 46.9558 102.852 46.6438 102.852C46.2918 102.852 45.9838 102.928 45.7198 103.08C45.4558 103.232 45.2518 103.444 45.1078 103.716C44.9638 103.988 44.8918 104.308 44.8918 104.676V108H43.9198ZM52.9601 108.108C52.4401 108.108 51.9841 107.984 51.5921 107.736C51.2081 107.488 50.9081 107.14 50.6921 106.692C50.4841 106.236 50.3801 105.7 50.3801 105.084C50.3801 104.46 50.4841 103.924 50.6921 103.476C50.9081 103.02 51.2081 102.672 51.5921 102.432C51.9841 102.184 52.4401 102.06 52.9601 102.06C53.4881 102.06 53.9401 102.192 54.3161 102.456C54.6921 102.72 54.9441 103.076 55.0721 103.524H54.9401V99.54H55.9121V108H54.9641V106.608H55.0841C54.9561 107.064 54.7001 107.428 54.3161 107.7C53.9401 107.972 53.4881 108.108 52.9601 108.108ZM53.1641 107.328C53.7161 107.328 54.1521 107.136 54.4721 106.752C54.8001 106.36 54.9641 105.804 54.9641 105.084C54.9641 104.356 54.8001 103.8 54.4721 103.416C54.1521 103.032 53.7161 102.84 53.1641 102.84C52.6201 102.84 52.1841 103.032 51.8561 103.416C51.5281 103.8 51.3641 104.356 51.3641 105.084C51.3641 105.804 51.5281 106.36 51.8561 106.752C52.1841 107.136 52.6201 107.328 53.1641 107.328ZM57.5802 103.392V102.168H58.8042V103.392H57.5802ZM57.5802 108V106.776H58.8042V108H57.5802Z" fill="#737682"/>
<path id="Departure_2" d="M186.656 108.108C186.056 108.108 185.512 108.008 185.024 107.808C184.536 107.608 184.116 107.316 183.764 106.932C183.42 106.548 183.156 106.092 182.972 105.564C182.788 105.028 182.696 104.428 182.696 103.764C182.696 103.1 182.788 102.504 182.972 101.976C183.156 101.44 183.42 100.984 183.764 100.608C184.108 100.224 184.524 99.932 185.012 99.732C185.5 99.532 186.048 99.432 186.656 99.432C187.256 99.432 187.8 99.532 188.288 99.732C188.776 99.932 189.192 100.22 189.536 100.596C189.888 100.972 190.156 101.428 190.34 101.964C190.524 102.492 190.616 103.088 190.616 103.752C190.616 104.416 190.524 105.016 190.34 105.552C190.156 106.088 189.888 106.548 189.536 106.932C189.192 107.316 188.776 107.608 188.288 107.808C187.8 108.008 187.256 108.108 186.656 108.108ZM186.656 107.028C187.216 107.028 187.692 106.9 188.084 106.644C188.484 106.388 188.788 106.016 188.996 105.528C189.212 105.04 189.32 104.452 189.32 103.764C189.32 103.076 189.216 102.488 189.008 102C188.8 101.512 188.496 101.144 188.096 100.896C187.704 100.64 187.224 100.512 186.656 100.512C186.096 100.512 185.616 100.64 185.216 100.896C184.824 101.144 184.52 101.512 184.304 102C184.096 102.488 183.992 103.076 183.992 103.764C183.992 104.444 184.096 105.032 184.304 105.528C184.52 106.016 184.824 106.388 185.216 106.644C185.616 106.9 186.096 107.028 186.656 107.028ZM192.157 108V102.144H193.333V103.392H193.201C193.377 102.944 193.653 102.608 194.029 102.384C194.405 102.152 194.837 102.036 195.325 102.036C195.789 102.036 196.173 102.124 196.477 102.3C196.789 102.468 197.021 102.728 197.173 103.08C197.325 103.424 197.401 103.86 197.401 104.388V108H196.189V104.46C196.189 104.124 196.145 103.852 196.057 103.644C195.969 103.428 195.837 103.268 195.661 103.164C195.485 103.06 195.257 103.008 194.977 103.008C194.657 103.008 194.373 103.076 194.125 103.212C193.885 103.348 193.697 103.544 193.561 103.8C193.433 104.056 193.369 104.352 193.369 104.688V108H192.157ZM202.355 108V99.54H205.859C206.475 99.54 206.995 99.644 207.419 99.852C207.843 100.052 208.163 100.344 208.379 100.728C208.603 101.112 208.715 101.576 208.715 102.12C208.715 102.664 208.603 103.132 208.379 103.524C208.163 103.908 207.843 104.204 207.419 104.412C206.995 104.612 206.475 104.712 205.859 104.712H203.603V108H202.355ZM203.603 103.716H205.679C206.279 103.716 206.731 103.584 207.035 103.32C207.347 103.048 207.503 102.648 207.503 102.12C207.503 101.6 207.347 101.208 207.035 100.944C206.731 100.672 206.279 100.536 205.679 100.536H203.603V103.716ZM209.814 100.788V99.528H211.23V100.788H209.814ZM209.922 108V102.144H211.134V108H209.922ZM215.42 108.108C214.82 108.108 214.3 107.984 213.86 107.736C213.428 107.48 213.092 107.124 212.852 106.668C212.612 106.204 212.492 105.66 212.492 105.036C212.492 104.42 212.612 103.888 212.852 103.44C213.092 102.992 213.428 102.648 213.86 102.408C214.3 102.16 214.82 102.036 215.42 102.036C215.788 102.036 216.152 102.1 216.512 102.228C216.872 102.348 217.168 102.524 217.4 102.756L217.016 103.608C216.8 103.4 216.556 103.248 216.284 103.152C216.012 103.048 215.756 102.996 215.516 102.996C214.948 102.996 214.508 103.176 214.196 103.536C213.892 103.888 213.74 104.392 213.74 105.048C213.74 105.704 213.892 106.22 214.196 106.596C214.508 106.964 214.948 107.148 215.516 107.148C215.756 107.148 216.012 107.1 216.284 107.004C216.556 106.9 216.8 106.744 217.016 106.536L217.4 107.4C217.168 107.616 216.868 107.788 216.5 107.916C216.14 108.044 215.78 108.108 215.42 108.108ZM218.442 108V99.54H219.654V104.7H219.678L222.222 102.144H223.722L220.638 105.24V104.676L223.938 108H222.426L219.678 105.324H219.654V108H218.442ZM226.717 108.108C226.245 108.108 225.849 108.02 225.529 107.844C225.217 107.668 224.981 107.408 224.821 107.064C224.669 106.712 224.593 106.272 224.593 105.744V102.144H225.805V105.756C225.805 106.068 225.845 106.328 225.925 106.536C226.013 106.744 226.145 106.896 226.321 106.992C226.505 107.088 226.733 107.136 227.005 107.136C227.309 107.136 227.577 107.068 227.809 106.932C228.041 106.796 228.221 106.6 228.349 106.344C228.477 106.088 228.541 105.792 228.541 105.456V102.144H229.753V108H228.577V106.716H228.733C228.573 107.164 228.317 107.508 227.965 107.748C227.613 107.988 227.197 108.108 226.717 108.108ZM231.461 110.16V102.144H232.649V103.464H232.517C232.645 103.032 232.897 102.688 233.273 102.432C233.649 102.168 234.093 102.036 234.605 102.036C235.125 102.036 235.577 102.16 235.961 102.408C236.353 102.656 236.653 103.004 236.861 103.452C237.077 103.9 237.185 104.44 237.185 105.072C237.185 105.688 237.077 106.228 236.861 106.692C236.653 107.148 236.357 107.5 235.973 107.748C235.589 107.988 235.133 108.108 234.605 108.108C234.101 108.108 233.661 107.98 233.285 107.724C232.909 107.468 232.657 107.128 232.529 106.704H232.673V110.16H231.461ZM234.305 107.172C234.809 107.172 235.209 106.992 235.505 106.632C235.809 106.272 235.961 105.752 235.961 105.072C235.961 104.384 235.809 103.864 235.505 103.512C235.209 103.16 234.809 102.984 234.305 102.984C233.809 102.984 233.409 103.16 233.105 103.512C232.801 103.864 232.649 104.384 232.649 105.072C232.649 105.752 232.801 106.272 233.105 106.632C233.409 106.992 233.809 107.172 234.305 107.172Z" fill="#444050"/>
</g>
</g>
</g>
</g>
</g>
</g>
</svg>
