<svg width="17" height="17" viewBox="0 0 17 17" fill="none" xmlns="http://www.w3.org/2000/svg">
<rect x="15.7773" y="0.64846" width="15.1297" height="15.1297" rx="7.56484" transform="rotate(90 15.7773 0.64846)" fill="#FBC942"/>
<rect x="15.7773" y="0.64846" width="15.1297" height="15.1297" rx="7.56484" transform="rotate(90 15.7773 0.64846)" stroke="#FEF2D2" stroke-width="1.29683"/>
<path d="M5.32344 4.193C4.84518 3.95418 4.33506 4.44472 4.55701 4.93104C5.07924 6.07535 5.69643 7.41722 5.94745 7.96252C6.02022 8.1206 6.01684 8.30109 5.9389 8.45669C5.65398 9.02551 4.93405 10.4784 4.40793 11.6742C4.20417 12.1373 4.66948 12.557 5.12215 12.3309L12.351 8.72109C12.771 8.51136 12.771 7.91206 12.351 7.70233L5.32344 4.193Z" fill="white"/>
</svg>
