<svg width="338" height="280" viewBox="0 0 338 280" fill="none" xmlns="http://www.w3.org/2000/svg">
<rect x="0.5" y="0.5" width="336.333" height="279" rx="11.5" fill="#F5F5F6"/>
<rect x="0.5" y="0.5" width="336.333" height="279" rx="11.5" stroke="#EAEAEC"/>
<rect x="40.668" y="27" width="256" height="226" rx="12" fill="white"/>
<path d="M59.688 57L60.108 54.876H59.136V54.048H60.264L60.78 51.396H59.388V50.568H60.924L61.332 48.54H62.22L61.812 50.568H63.54L63.948 48.54H64.836L64.428 50.568H65.4V51.396H64.272L63.756 54.048H65.148V54.876H63.612L63.192 57H62.304L62.724 54.876H60.996L60.576 57H59.688ZM61.152 54.048H62.868L63.384 51.396H61.668L61.152 54.048ZM70.8073 57.108C69.8873 57.108 69.1113 56.936 68.4793 56.592C67.8473 56.24 67.3673 55.74 67.0393 55.092C66.7193 54.444 66.5593 53.672 66.5593 52.776C66.5593 51.88 66.7233 51.108 67.0513 50.46C67.3873 49.812 67.8633 49.312 68.4793 48.96C69.1033 48.608 69.8513 48.432 70.7233 48.432C71.1233 48.432 71.5033 48.472 71.8633 48.552C72.2233 48.624 72.5553 48.736 72.8593 48.888C73.1713 49.04 73.4433 49.228 73.6753 49.452L73.2313 50.424C72.8553 50.104 72.4633 49.876 72.0553 49.74C71.6553 49.596 71.2113 49.524 70.7233 49.524C69.7873 49.524 69.0753 49.808 68.5873 50.376C68.0993 50.936 67.8553 51.736 67.8553 52.776C67.8553 53.84 68.1073 54.648 68.6113 55.2C69.1153 55.752 69.8633 56.028 70.8553 56.028C71.2153 56.028 71.5673 55.996 71.9113 55.932C72.2633 55.86 72.5993 55.76 72.9193 55.632L72.6673 56.256V53.46H70.6033V52.524H73.7113V56.508C73.4793 56.628 73.1993 56.732 72.8713 56.82C72.5513 56.908 72.2113 56.976 71.8513 57.024C71.4993 57.08 71.1513 57.108 70.8073 57.108ZM75.6246 57V48.54H79.1286C80.0406 48.54 80.7446 48.756 81.2406 49.188C81.7366 49.62 81.9846 50.232 81.9846 51.024C81.9846 51.536 81.8726 51.976 81.6486 52.344C81.4246 52.712 81.0966 52.992 80.6646 53.184C80.2406 53.376 79.7286 53.472 79.1286 53.472L79.2366 53.304H79.5486C79.8686 53.304 80.1446 53.384 80.3766 53.544C80.6166 53.704 80.8326 53.96 81.0246 54.312L82.4886 57H81.1206L79.6566 54.3C79.5446 54.092 79.4206 53.932 79.2846 53.82C79.1566 53.7 79.0046 53.62 78.8286 53.58C78.6606 53.532 78.4606 53.508 78.2286 53.508H76.8726V57H75.6246ZM76.8726 52.572H78.9246C79.5326 52.572 79.9926 52.444 80.3046 52.188C80.6166 51.932 80.7726 51.552 80.7726 51.048C80.7726 50.552 80.6166 50.176 80.3046 49.92C79.9926 49.664 79.5326 49.536 78.9246 49.536H76.8726V52.572ZM86.2811 57L82.5491 48.54H83.8811L87.0731 55.944H86.6291L89.8091 48.54H91.0811L87.3491 57H86.2811ZM91.2775 54.288V53.304H94.7335V54.288H91.2775ZM99.314 57.108C98.946 57.108 98.586 57.068 98.234 56.988C97.89 56.908 97.566 56.796 97.262 56.652C96.958 56.508 96.694 56.332 96.47 56.124L96.89 55.164C97.274 55.468 97.662 55.692 98.054 55.836C98.446 55.98 98.858 56.052 99.29 56.052C99.842 56.052 100.274 55.904 100.586 55.608C100.898 55.312 101.054 54.916 101.054 54.42C101.054 53.916 100.906 53.504 100.61 53.184C100.314 52.864 99.902 52.704 99.374 52.704C98.998 52.704 98.662 52.78 98.366 52.932C98.078 53.084 97.818 53.316 97.586 53.628H96.722V48.54H101.762V49.584H97.934V52.632H97.598C97.814 52.328 98.098 52.092 98.45 51.924C98.81 51.756 99.206 51.672 99.638 51.672C100.174 51.672 100.638 51.784 101.03 52.008C101.422 52.232 101.726 52.548 101.942 52.956C102.158 53.356 102.266 53.824 102.266 54.36C102.266 54.904 102.146 55.384 101.906 55.8C101.666 56.208 101.326 56.528 100.886 56.76C100.446 56.992 99.922 57.108 99.314 57.108ZM106.377 57.108C105.721 57.108 105.169 56.94 104.721 56.604C104.273 56.268 103.933 55.78 103.701 55.14C103.469 54.492 103.353 53.7 103.353 52.764C103.353 51.812 103.469 51.016 103.701 50.376C103.933 49.736 104.273 49.252 104.721 48.924C105.169 48.596 105.721 48.432 106.377 48.432C107.041 48.432 107.597 48.596 108.045 48.924C108.493 49.244 108.829 49.724 109.053 50.364C109.285 51.004 109.401 51.8 109.401 52.752C109.401 53.688 109.285 54.48 109.053 55.128C108.821 55.776 108.481 56.268 108.033 56.604C107.585 56.94 107.033 57.108 106.377 57.108ZM106.377 56.076C106.993 56.076 107.445 55.808 107.733 55.272C108.029 54.736 108.177 53.896 108.177 52.752C108.177 51.608 108.029 50.776 107.733 50.256C107.445 49.728 106.993 49.464 106.377 49.464C105.769 49.464 105.317 49.728 105.021 50.256C104.725 50.776 104.577 51.608 104.577 52.752C104.577 53.896 104.725 54.736 105.021 55.272C105.317 55.808 105.769 56.076 106.377 56.076ZM112.961 57.108C112.673 57.108 112.377 57.072 112.073 57C111.777 56.92 111.497 56.804 111.233 56.652C110.969 56.5 110.737 56.324 110.537 56.124L110.969 55.176C111.265 55.464 111.585 55.684 111.929 55.836C112.273 55.98 112.621 56.052 112.973 56.052C113.349 56.052 113.681 55.984 113.969 55.848C114.257 55.712 114.497 55.508 114.689 55.236C114.889 54.964 115.037 54.628 115.133 54.228C115.237 53.82 115.289 53.352 115.289 52.824V51.804H115.409C115.353 52.228 115.217 52.6 115.001 52.92C114.793 53.24 114.521 53.484 114.185 53.652C113.857 53.82 113.485 53.904 113.069 53.904C112.581 53.904 112.145 53.788 111.761 53.556C111.385 53.324 111.085 53.004 110.861 52.596C110.645 52.188 110.537 51.728 110.537 51.216C110.537 50.672 110.653 50.192 110.885 49.776C111.125 49.352 111.449 49.024 111.857 48.792C112.265 48.552 112.737 48.432 113.273 48.432C113.961 48.432 114.541 48.596 115.013 48.924C115.485 49.244 115.845 49.716 116.093 50.34C116.349 50.964 116.477 51.712 116.477 52.584C116.477 53.552 116.337 54.372 116.057 55.044C115.777 55.716 115.377 56.228 114.857 56.58C114.337 56.932 113.705 57.108 112.961 57.108ZM113.357 52.884C113.677 52.884 113.961 52.812 114.209 52.668C114.457 52.524 114.649 52.324 114.785 52.068C114.929 51.804 115.001 51.5 115.001 51.156C115.001 50.82 114.929 50.524 114.785 50.268C114.649 50.004 114.457 49.8 114.209 49.656C113.961 49.504 113.677 49.428 113.357 49.428C113.029 49.428 112.741 49.504 112.493 49.656C112.253 49.8 112.061 50.004 111.917 50.268C111.781 50.524 111.713 50.82 111.713 51.156C111.713 51.5 111.781 51.804 111.917 52.068C112.061 52.324 112.253 52.524 112.493 52.668C112.741 52.812 113.029 52.884 113.357 52.884ZM120.768 57.108C119.8 57.108 119.044 56.9 118.5 56.484C117.964 56.068 117.696 55.488 117.696 54.744C117.696 54.344 117.776 53.992 117.936 53.688C118.096 53.376 118.32 53.124 118.608 52.932C118.896 52.74 119.228 52.62 119.604 52.572V52.788C119.26 52.716 118.96 52.584 118.704 52.392C118.448 52.192 118.248 51.948 118.104 51.66C117.968 51.364 117.9 51.04 117.9 50.688C117.9 49.984 118.16 49.432 118.68 49.032C119.2 48.632 119.896 48.432 120.768 48.432C121.648 48.432 122.348 48.632 122.868 49.032C123.388 49.432 123.648 49.984 123.648 50.688C123.648 51.04 123.576 51.364 123.432 51.66C123.296 51.948 123.1 52.192 122.844 52.392C122.588 52.584 122.288 52.712 121.944 52.776V52.572C122.328 52.62 122.66 52.744 122.94 52.944C123.22 53.136 123.44 53.384 123.6 53.688C123.76 53.992 123.84 54.344 123.84 54.744C123.84 55.488 123.568 56.068 123.024 56.484C122.488 56.9 121.736 57.108 120.768 57.108ZM120.768 56.124C121.4 56.124 121.876 56.004 122.196 55.764C122.516 55.516 122.676 55.148 122.676 54.66C122.676 54.172 122.516 53.808 122.196 53.568C121.876 53.328 121.4 53.208 120.768 53.208C120.144 53.208 119.668 53.328 119.34 53.568C119.02 53.808 118.86 54.172 118.86 54.66C118.86 55.148 119.02 55.516 119.34 55.764C119.668 56.004 120.144 56.124 120.768 56.124ZM120.768 52.224C121.304 52.224 121.72 52.1 122.016 51.852C122.32 51.596 122.472 51.248 122.472 50.808C122.472 50.376 122.32 50.036 122.016 49.788C121.72 49.54 121.304 49.416 120.768 49.416C120.232 49.416 119.816 49.54 119.52 49.788C119.224 50.036 119.076 50.376 119.076 50.808C119.076 51.248 119.224 51.596 119.52 51.852C119.816 52.1 120.232 52.224 120.768 52.224ZM127.963 57.108C126.995 57.108 126.239 56.9 125.695 56.484C125.159 56.068 124.891 55.488 124.891 54.744C124.891 54.344 124.971 53.992 125.131 53.688C125.291 53.376 125.515 53.124 125.803 52.932C126.091 52.74 126.423 52.62 126.799 52.572V52.788C126.455 52.716 126.155 52.584 125.899 52.392C125.643 52.192 125.443 51.948 125.299 51.66C125.163 51.364 125.095 51.04 125.095 50.688C125.095 49.984 125.355 49.432 125.875 49.032C126.395 48.632 127.091 48.432 127.963 48.432C128.843 48.432 129.543 48.632 130.063 49.032C130.583 49.432 130.843 49.984 130.843 50.688C130.843 51.04 130.771 51.364 130.627 51.66C130.491 51.948 130.295 52.192 130.039 52.392C129.783 52.584 129.483 52.712 129.139 52.776V52.572C129.523 52.62 129.855 52.744 130.135 52.944C130.415 53.136 130.635 53.384 130.795 53.688C130.955 53.992 131.035 54.344 131.035 54.744C131.035 55.488 130.763 56.068 130.219 56.484C129.683 56.9 128.931 57.108 127.963 57.108ZM127.963 56.124C128.595 56.124 129.071 56.004 129.391 55.764C129.711 55.516 129.871 55.148 129.871 54.66C129.871 54.172 129.711 53.808 129.391 53.568C129.071 53.328 128.595 53.208 127.963 53.208C127.339 53.208 126.863 53.328 126.535 53.568C126.215 53.808 126.055 54.172 126.055 54.66C126.055 55.148 126.215 55.516 126.535 55.764C126.863 56.004 127.339 56.124 127.963 56.124ZM127.963 52.224C128.499 52.224 128.915 52.1 129.211 51.852C129.515 51.596 129.667 51.248 129.667 50.808C129.667 50.376 129.515 50.036 129.211 49.788C128.915 49.54 128.499 49.416 127.963 49.416C127.427 49.416 127.011 49.54 126.715 49.788C126.419 50.036 126.271 50.376 126.271 50.808C126.271 51.248 126.419 51.596 126.715 51.852C127.011 52.1 127.427 52.224 127.963 52.224Z" fill="#444050"/>
<rect x="192.668" y="43" width="86" height="20" rx="10" fill="#FFF1F1"/>
<path d="M201.625 57V49.245H206.597V50.191H202.78V52.633H206.366V53.59H202.78V57H201.625ZM209.279 57.099C208.898 57.099 208.557 57.0257 208.256 56.879C207.955 56.7323 207.717 56.5343 207.541 56.285C207.372 56.0283 207.288 55.746 207.288 55.438C207.288 55.0347 207.391 54.7193 207.596 54.492C207.809 54.2573 208.15 54.0887 208.619 53.986C209.096 53.8833 209.726 53.832 210.511 53.832H211.094V54.536H210.533C210.137 54.536 209.803 54.5507 209.532 54.58C209.261 54.602 209.041 54.646 208.872 54.712C208.711 54.7707 208.593 54.855 208.52 54.965C208.447 55.075 208.41 55.2107 208.41 55.372C208.41 55.6433 208.505 55.8633 208.696 56.032C208.894 56.2007 209.162 56.285 209.499 56.285C209.778 56.285 210.023 56.219 210.236 56.087C210.449 55.955 210.617 55.779 210.742 55.559C210.867 55.339 210.929 55.086 210.929 54.8V53.546C210.929 53.1353 210.834 52.842 210.643 52.666C210.46 52.4827 210.159 52.391 209.741 52.391C209.433 52.391 209.121 52.4387 208.806 52.534C208.498 52.622 208.183 52.765 207.86 52.963L207.508 52.16C207.713 52.028 207.941 51.9143 208.19 51.819C208.447 51.7163 208.714 51.6393 208.993 51.588C209.272 51.5367 209.543 51.511 209.807 51.511C210.298 51.511 210.705 51.588 211.028 51.742C211.358 51.896 211.607 52.1307 211.776 52.446C211.945 52.7613 212.029 53.1683 212.029 53.667V57H210.984V55.812H211.05C210.984 56.0687 210.867 56.296 210.698 56.494C210.537 56.6847 210.335 56.835 210.093 56.945C209.858 57.0477 209.587 57.099 209.279 57.099ZM213.621 57V49.245H214.754V53.964H214.787L217.108 51.61H218.494L215.678 54.459V53.953L218.703 57H217.295L214.787 54.536H214.754V57H213.621ZM221.867 57.099C221.273 57.099 220.759 56.989 220.327 56.769C219.894 56.5417 219.56 56.219 219.326 55.801C219.098 55.383 218.985 54.888 218.985 54.316C218.985 53.7587 219.095 53.271 219.315 52.853C219.542 52.435 219.854 52.1087 220.25 51.874C220.653 51.632 221.119 51.511 221.647 51.511C222.153 51.511 222.585 51.621 222.945 51.841C223.304 52.061 223.583 52.3727 223.781 52.776C223.979 53.172 224.078 53.6487 224.078 54.206V54.58H219.865V53.876H223.297L223.121 54.041C223.121 53.491 222.996 53.0693 222.747 52.776C222.497 52.4753 222.142 52.325 221.68 52.325C221.335 52.325 221.042 52.402 220.8 52.556C220.565 52.71 220.382 52.9263 220.25 53.205C220.125 53.4837 220.063 53.8173 220.063 54.206V54.283C220.063 54.7083 220.132 55.064 220.272 55.35C220.411 55.636 220.616 55.8523 220.888 55.999C221.159 56.1383 221.493 56.208 221.889 56.208C222.189 56.208 222.49 56.164 222.791 56.076C223.091 55.9807 223.374 55.8303 223.638 55.625L223.979 56.406C223.722 56.626 223.403 56.7983 223.022 56.923C222.64 57.0403 222.255 57.099 221.867 57.099ZM227.645 57L231.099 49.245H232.078L235.532 57H234.355L233.409 54.8L233.926 55.13H229.24L229.757 54.8L228.833 57H227.645ZM231.572 50.532L229.911 54.459L229.636 54.184H233.53L233.266 54.459L231.605 50.532H231.572ZM238.683 57.099C238.001 57.099 237.491 56.9267 237.154 56.582C236.817 56.23 236.648 55.724 236.648 55.064V52.49H235.603V51.61H236.67V50.004H237.781V51.61H239.508V52.49H237.792V54.987C237.792 55.3683 237.873 55.658 238.034 55.856C238.203 56.054 238.474 56.153 238.848 56.153C238.973 56.153 239.094 56.1383 239.211 56.109C239.328 56.0797 239.446 56.0467 239.563 56.01L239.739 56.868C239.614 56.9413 239.453 56.9963 239.255 57.033C239.057 57.077 238.866 57.099 238.683 57.099ZM242.668 57.099C241.986 57.099 241.477 56.9267 241.139 56.582C240.802 56.23 240.633 55.724 240.633 55.064V52.49H239.588V51.61H240.655V50.004H241.766V51.61H243.493V52.49H241.777V54.987C241.777 55.3683 241.858 55.658 242.019 55.856C242.188 56.054 242.459 56.153 242.833 56.153C242.958 56.153 243.079 56.1383 243.196 56.109C243.314 56.0797 243.431 56.0467 243.548 56.01L243.724 56.868C243.6 56.9413 243.438 56.9963 243.24 57.033C243.042 57.077 242.852 57.099 242.668 57.099ZM247.057 57.099C246.463 57.099 245.95 56.989 245.517 56.769C245.084 56.5417 244.751 56.219 244.516 55.801C244.289 55.383 244.175 54.888 244.175 54.316C244.175 53.7587 244.285 53.271 244.505 52.853C244.732 52.435 245.044 52.1087 245.44 51.874C245.843 51.632 246.309 51.511 246.837 51.511C247.343 51.511 247.776 51.621 248.135 51.841C248.494 52.061 248.773 52.3727 248.971 52.776C249.169 53.172 249.268 53.6487 249.268 54.206V54.58H245.055V53.876H248.487L248.311 54.041C248.311 53.491 248.186 53.0693 247.937 52.776C247.688 52.4753 247.332 52.325 246.87 52.325C246.525 52.325 246.232 52.402 245.99 52.556C245.755 52.71 245.572 52.9263 245.44 53.205C245.315 53.4837 245.253 53.8173 245.253 54.206V54.283C245.253 54.7083 245.323 55.064 245.462 55.35C245.601 55.636 245.807 55.8523 246.078 55.999C246.349 56.1383 246.683 56.208 247.079 56.208C247.38 56.208 247.68 56.164 247.981 56.076C248.282 55.9807 248.564 55.8303 248.828 55.625L249.169 56.406C248.912 56.626 248.593 56.7983 248.212 56.923C247.831 57.0403 247.446 57.099 247.057 57.099ZM250.564 57V51.61H251.653V52.765H251.565C251.66 52.501 251.792 52.2773 251.961 52.094C252.129 51.9107 252.335 51.7677 252.577 51.665C252.819 51.5623 253.083 51.511 253.369 51.511C253.816 51.511 254.183 51.621 254.469 51.841C254.755 52.0537 254.949 52.3727 255.052 52.798H254.931C255.07 52.4093 255.305 52.0977 255.635 51.863C255.972 51.6283 256.368 51.511 256.823 51.511C257.233 51.511 257.574 51.5917 257.846 51.753C258.117 51.907 258.319 52.1453 258.451 52.468C258.59 52.7907 258.66 53.1977 258.66 53.689V57H257.527V53.744C257.527 53.2967 257.45 52.9667 257.296 52.754C257.142 52.534 256.878 52.424 256.504 52.424C256.232 52.424 255.994 52.49 255.789 52.622C255.591 52.7467 255.437 52.9263 255.327 53.161C255.224 53.3957 255.173 53.6743 255.173 53.997V57H254.04V53.744C254.04 53.2967 253.959 52.9667 253.798 52.754C253.644 52.534 253.387 52.424 253.028 52.424C252.749 52.424 252.511 52.49 252.313 52.622C252.115 52.754 251.961 52.9373 251.851 53.172C251.748 53.4067 251.697 53.678 251.697 53.986V57H250.564ZM260.274 58.98V51.61H261.363V52.809H261.286C261.411 52.4057 261.645 52.0903 261.99 51.863C262.335 51.6283 262.742 51.511 263.211 51.511C263.695 51.511 264.117 51.6247 264.476 51.852C264.835 52.0793 265.114 52.402 265.312 52.82C265.51 53.238 265.609 53.733 265.609 54.305C265.609 54.8697 265.51 55.3647 265.312 55.79C265.114 56.208 264.835 56.5307 264.476 56.758C264.124 56.9853 263.702 57.099 263.211 57.099C262.749 57.099 262.349 56.9853 262.012 56.758C261.675 56.5233 261.44 56.219 261.308 55.845H261.407V58.98H260.274ZM262.925 56.219C263.394 56.219 263.768 56.054 264.047 55.724C264.326 55.3867 264.465 54.9137 264.465 54.305C264.465 53.6817 264.326 53.2087 264.047 52.886C263.768 52.5633 263.394 52.402 262.925 52.402C262.456 52.402 262.082 52.5633 261.803 52.886C261.532 53.2087 261.396 53.6817 261.396 54.305C261.396 54.9137 261.535 55.3867 261.814 55.724C262.093 56.054 262.463 56.219 262.925 56.219ZM269.191 57.099C268.509 57.099 267.999 56.9267 267.662 56.582C267.325 56.23 267.156 55.724 267.156 55.064V52.49H266.111V51.61H267.178V50.004H268.289V51.61H270.016V52.49H268.3V54.987C268.3 55.3683 268.381 55.658 268.542 55.856C268.711 56.054 268.982 56.153 269.356 56.153C269.481 56.153 269.602 56.1383 269.719 56.109C269.836 56.0797 269.954 56.0467 270.071 56.01L270.247 56.868C270.122 56.9413 269.961 56.9963 269.763 57.033C269.565 57.077 269.374 57.099 269.191 57.099Z" fill="#E64449"/>
<path d="M58.668 75H278.688" stroke="#EAEAEC" stroke-linecap="round"/>
<path d="M63.372 99.108C62.54 99.108 61.828 98.932 61.236 98.58C60.644 98.228 60.188 97.728 59.868 97.08C59.556 96.432 59.4 95.66 59.4 94.764C59.4 93.868 59.556 93.1 59.868 92.46C60.188 91.812 60.644 91.312 61.236 90.96C61.828 90.608 62.54 90.432 63.372 90.432C63.956 90.432 64.496 90.524 64.992 90.708C65.488 90.892 65.904 91.16 66.24 91.512L65.856 92.316C65.488 91.972 65.104 91.724 64.704 91.572C64.312 91.412 63.876 91.332 63.396 91.332C62.444 91.332 61.716 91.632 61.212 92.232C60.708 92.832 60.456 93.676 60.456 94.764C60.456 95.852 60.708 96.7 61.212 97.308C61.716 97.908 62.444 98.208 63.396 98.208C63.876 98.208 64.312 98.132 64.704 97.98C65.104 97.82 65.488 97.568 65.856 97.224L66.24 98.028C65.904 98.372 65.488 98.64 64.992 98.832C64.496 99.016 63.956 99.108 63.372 99.108ZM69.6563 99.108C69.0883 99.108 68.5963 98.984 68.1803 98.736C67.7643 98.488 67.4403 98.14 67.2083 97.692C66.9843 97.236 66.8723 96.7 66.8723 96.084C66.8723 95.468 66.9843 94.936 67.2083 94.488C67.4403 94.032 67.7643 93.68 68.1803 93.432C68.5963 93.184 69.0883 93.06 69.6563 93.06C70.2243 93.06 70.7163 93.184 71.1323 93.432C71.5483 93.68 71.8683 94.032 72.0923 94.488C72.3243 94.936 72.4403 95.468 72.4403 96.084C72.4403 96.7 72.3243 97.236 72.0923 97.692C71.8683 98.14 71.5483 98.488 71.1323 98.736C70.7163 98.984 70.2243 99.108 69.6563 99.108ZM69.6563 98.328C70.2083 98.328 70.6443 98.136 70.9643 97.752C71.2923 97.36 71.4563 96.8 71.4563 96.072C71.4563 95.352 71.2923 94.8 70.9643 94.416C70.6443 94.032 70.2083 93.84 69.6563 93.84C69.1123 93.84 68.6763 94.032 68.3483 94.416C68.0203 94.8 67.8563 95.352 67.8563 96.072C67.8563 96.8 68.0203 97.36 68.3483 97.752C68.6763 98.136 69.1123 98.328 69.6563 98.328ZM75.9643 99.108C75.4923 99.108 75.1003 99.024 74.7883 98.856C74.4843 98.68 74.2523 98.42 74.0923 98.076C73.9403 97.732 73.8643 97.304 73.8643 96.792V93.168H74.8363V96.78C74.8363 97.124 74.8803 97.412 74.9683 97.644C75.0643 97.868 75.2123 98.036 75.4123 98.148C75.6123 98.252 75.8603 98.304 76.1563 98.304C76.4923 98.304 76.7843 98.228 77.0323 98.076C77.2803 97.924 77.4763 97.712 77.6203 97.44C77.7643 97.168 77.8363 96.848 77.8363 96.48V93.168H78.8083V99H77.8603V97.656H78.0163C77.8563 98.128 77.5923 98.488 77.2243 98.736C76.8643 98.984 76.4443 99.108 75.9643 99.108ZM80.6268 99V93.168H81.5748V94.548H81.4548C81.5908 94.076 81.8268 93.72 82.1628 93.48C82.4988 93.232 82.9428 93.088 83.4948 93.048L83.8428 93.012L83.9148 93.852L83.3028 93.924C82.7588 93.972 82.3388 94.148 82.0428 94.452C81.7548 94.748 81.6108 95.156 81.6108 95.676V99H80.6268ZM84.8076 91.716V90.624H86.0076V91.716H84.8076ZM84.9276 99V93.168H85.8996V99H84.9276ZM90.3447 99.108C89.7287 99.108 89.1967 98.988 88.7487 98.748C88.3087 98.5 87.9647 98.152 87.7167 97.704C87.4767 97.256 87.3567 96.72 87.3567 96.096C87.3567 95.488 87.4767 94.96 87.7167 94.512C87.9567 94.056 88.2847 93.7 88.7007 93.444C89.1247 93.188 89.6127 93.06 90.1647 93.06C90.6927 93.06 91.1447 93.176 91.5207 93.408C91.8967 93.64 92.1847 93.968 92.3847 94.392C92.5927 94.816 92.6967 95.324 92.6967 95.916V96.288H88.1007V95.652H92.0487L91.8567 95.808C91.8567 95.168 91.7127 94.672 91.4247 94.32C91.1447 93.96 90.7327 93.78 90.1887 93.78C89.7807 93.78 89.4327 93.876 89.1447 94.068C88.8647 94.252 88.6527 94.512 88.5087 94.848C88.3647 95.176 88.2927 95.56 88.2927 96V96.072C88.2927 96.56 88.3687 96.972 88.5207 97.308C88.6807 97.644 88.9167 97.9 89.2287 98.076C89.5407 98.244 89.9127 98.328 90.3447 98.328C90.6887 98.328 91.0207 98.276 91.3407 98.172C91.6687 98.06 91.9767 97.88 92.2647 97.632L92.6007 98.316C92.3367 98.556 92.0007 98.748 91.5927 98.892C91.1847 99.036 90.7687 99.108 90.3447 99.108ZM94.1034 99V93.168H95.0514V94.548H94.9314C95.0674 94.076 95.3034 93.72 95.6394 93.48C95.9754 93.232 96.4194 93.088 96.9714 93.048L97.3194 93.012L97.3914 93.852L96.7794 93.924C96.2354 93.972 95.8154 94.148 95.5194 94.452C95.2314 94.748 95.0874 95.156 95.0874 95.676V99H94.1034ZM101.642 99V90.54H102.47L105.902 96.984H105.542L108.95 90.54H109.778V99H108.866V91.86H109.154L106.046 97.692H105.398L102.254 91.848H102.542V99H101.642ZM113.588 99.108C113.188 99.108 112.828 99.032 112.508 98.88C112.196 98.72 111.948 98.504 111.764 98.232C111.58 97.96 111.488 97.656 111.488 97.32C111.488 96.888 111.596 96.548 111.812 96.3C112.036 96.052 112.4 95.876 112.904 95.772C113.416 95.668 114.112 95.616 114.992 95.616H115.532V96.252H115.004C114.516 96.252 114.108 96.268 113.78 96.3C113.452 96.332 113.192 96.388 113 96.468C112.808 96.548 112.672 96.652 112.592 96.78C112.512 96.908 112.472 97.068 112.472 97.26C112.472 97.588 112.584 97.856 112.808 98.064C113.04 98.272 113.352 98.376 113.744 98.376C114.064 98.376 114.344 98.3 114.584 98.148C114.832 97.996 115.024 97.788 115.16 97.524C115.304 97.26 115.376 96.956 115.376 96.612V95.244C115.376 94.748 115.276 94.392 115.076 94.176C114.876 93.952 114.548 93.84 114.092 93.84C113.74 93.84 113.4 93.892 113.072 93.996C112.744 94.092 112.408 94.252 112.064 94.476L111.728 93.768C111.936 93.624 112.172 93.5 112.436 93.396C112.7 93.284 112.976 93.2 113.264 93.144C113.552 93.088 113.828 93.06 114.092 93.06C114.596 93.06 115.012 93.144 115.34 93.312C115.668 93.472 115.912 93.72 116.072 94.056C116.232 94.384 116.312 94.808 116.312 95.328V99H115.4V97.644H115.508C115.444 97.948 115.32 98.208 115.136 98.424C114.96 98.64 114.74 98.808 114.476 98.928C114.212 99.048 113.916 99.108 113.588 99.108ZM118.115 99V93.168H119.063V94.548H118.943C119.079 94.076 119.315 93.72 119.651 93.48C119.987 93.232 120.431 93.088 120.983 93.048L121.331 93.012L121.403 93.852L120.791 93.924C120.247 93.972 119.827 94.148 119.531 94.452C119.243 94.748 119.099 95.156 119.099 95.676V99H118.115ZM122.416 99V90.54H123.388V95.76H123.412L126.112 93.168H127.348L124.144 96.24V95.712L127.6 99H126.364L123.412 96.264H123.388V99H122.416ZM130.892 99.108C130.276 99.108 129.744 98.988 129.296 98.748C128.856 98.5 128.512 98.152 128.264 97.704C128.024 97.256 127.904 96.72 127.904 96.096C127.904 95.488 128.024 94.96 128.264 94.512C128.504 94.056 128.832 93.7 129.248 93.444C129.672 93.188 130.16 93.06 130.712 93.06C131.24 93.06 131.692 93.176 132.068 93.408C132.444 93.64 132.732 93.968 132.932 94.392C133.14 94.816 133.244 95.324 133.244 95.916V96.288H128.648V95.652H132.596L132.404 95.808C132.404 95.168 132.26 94.672 131.972 94.32C131.692 93.96 131.28 93.78 130.736 93.78C130.328 93.78 129.98 93.876 129.692 94.068C129.412 94.252 129.2 94.512 129.056 94.848C128.912 95.176 128.84 95.56 128.84 96V96.072C128.84 96.56 128.916 96.972 129.068 97.308C129.228 97.644 129.464 97.9 129.776 98.076C130.088 98.244 130.46 98.328 130.892 98.328C131.236 98.328 131.568 98.276 131.888 98.172C132.216 98.06 132.524 97.88 132.812 97.632L133.148 98.316C132.884 98.556 132.548 98.748 132.14 98.892C131.732 99.036 131.316 99.108 130.892 99.108ZM136.87 99.108C136.35 99.108 135.894 98.984 135.502 98.736C135.118 98.488 134.818 98.14 134.602 97.692C134.394 97.236 134.29 96.7 134.29 96.084C134.29 95.46 134.394 94.924 134.602 94.476C134.818 94.02 135.118 93.672 135.502 93.432C135.894 93.184 136.35 93.06 136.87 93.06C137.398 93.06 137.85 93.192 138.226 93.456C138.602 93.72 138.854 94.076 138.982 94.524H138.85V90.54H139.822V99H138.874V97.608H138.994C138.866 98.064 138.61 98.428 138.226 98.7C137.85 98.972 137.398 99.108 136.87 99.108ZM137.074 98.328C137.626 98.328 138.062 98.136 138.382 97.752C138.71 97.36 138.874 96.804 138.874 96.084C138.874 95.356 138.71 94.8 138.382 94.416C138.062 94.032 137.626 93.84 137.074 93.84C136.53 93.84 136.094 94.032 135.766 94.416C135.438 94.8 135.274 95.356 135.274 96.084C135.274 96.804 135.438 97.36 135.766 97.752C136.094 98.136 136.53 98.328 137.074 98.328ZM141.49 94.392V93.168H142.714V94.392H141.49ZM141.49 99V97.776H142.714V99H141.49Z" fill="#737682"/>
<path d="M182.444 99.108C181.588 99.108 180.856 98.932 180.248 98.58C179.64 98.228 179.172 97.728 178.844 97.08C178.524 96.424 178.364 95.652 178.364 94.764C178.364 93.876 178.524 93.108 178.844 92.46C179.172 91.812 179.64 91.312 180.248 90.96C180.856 90.608 181.588 90.432 182.444 90.432C183.02 90.432 183.556 90.524 184.052 90.708C184.556 90.884 184.976 91.14 185.312 91.476L184.88 92.472C184.512 92.144 184.132 91.908 183.74 91.764C183.356 91.612 182.936 91.536 182.48 91.536C181.568 91.536 180.872 91.816 180.392 92.376C179.912 92.936 179.672 93.732 179.672 94.764C179.672 95.796 179.912 96.596 180.392 97.164C180.872 97.724 181.568 98.004 182.48 98.004C182.936 98.004 183.356 97.932 183.74 97.788C184.132 97.636 184.512 97.396 184.88 97.068L185.312 98.064C184.976 98.4 184.556 98.66 184.052 98.844C183.556 99.02 183.02 99.108 182.444 99.108ZM188.577 99.108C188.105 99.108 187.709 99.02 187.389 98.844C187.077 98.668 186.841 98.408 186.681 98.064C186.529 97.712 186.453 97.272 186.453 96.744V93.144H187.665V96.756C187.665 97.068 187.705 97.328 187.785 97.536C187.873 97.744 188.005 97.896 188.181 97.992C188.365 98.088 188.593 98.136 188.865 98.136C189.169 98.136 189.437 98.068 189.669 97.932C189.901 97.796 190.081 97.6 190.209 97.344C190.337 97.088 190.401 96.792 190.401 96.456V93.144H191.613V99H190.437V97.716H190.593C190.433 98.164 190.177 98.508 189.825 98.748C189.473 98.988 189.057 99.108 188.577 99.108ZM195.373 99.108C195.061 99.108 194.757 99.08 194.461 99.024C194.165 98.968 193.893 98.888 193.645 98.784C193.397 98.68 193.177 98.552 192.985 98.4L193.333 97.584C193.533 97.72 193.745 97.84 193.969 97.944C194.193 98.04 194.425 98.112 194.665 98.16C194.913 98.208 195.153 98.232 195.385 98.232C195.809 98.232 196.129 98.156 196.345 98.004C196.561 97.852 196.669 97.648 196.669 97.392C196.669 97.184 196.597 97.024 196.453 96.912C196.309 96.792 196.093 96.7 195.805 96.636L194.665 96.408C194.169 96.304 193.793 96.12 193.537 95.856C193.281 95.592 193.153 95.256 193.153 94.848C193.153 94.48 193.253 94.16 193.453 93.888C193.653 93.616 193.933 93.408 194.293 93.264C194.653 93.112 195.069 93.036 195.541 93.036C195.813 93.036 196.077 93.064 196.333 93.12C196.589 93.176 196.829 93.256 197.053 93.36C197.285 93.464 197.481 93.596 197.641 93.756L197.293 94.572C197.141 94.436 196.965 94.32 196.765 94.224C196.573 94.128 196.373 94.056 196.165 94.008C195.957 93.952 195.749 93.924 195.541 93.924C195.117 93.924 194.797 94.004 194.581 94.164C194.373 94.316 194.269 94.524 194.269 94.788C194.269 94.988 194.333 95.152 194.461 95.28C194.589 95.408 194.789 95.5 195.061 95.556L196.201 95.784C196.721 95.888 197.113 96.064 197.377 96.312C197.649 96.56 197.785 96.896 197.785 97.32C197.785 97.688 197.685 98.008 197.485 98.28C197.285 98.552 197.001 98.76 196.633 98.904C196.273 99.04 195.853 99.108 195.373 99.108ZM201.571 99.108C200.843 99.108 200.295 98.92 199.927 98.544C199.567 98.168 199.387 97.624 199.387 96.912V94.08H198.247V93.144H199.387V91.38H200.599V93.144H202.411V94.08H200.599V96.816C200.599 97.24 200.687 97.56 200.863 97.776C201.047 97.992 201.343 98.1 201.751 98.1C201.871 98.1 201.991 98.084 202.111 98.052C202.239 98.02 202.363 97.988 202.483 97.956L202.675 98.868C202.555 98.94 202.387 98.996 202.171 99.036C201.963 99.084 201.763 99.108 201.571 99.108ZM205.943 99.108C205.351 99.108 204.839 98.984 204.407 98.736C203.983 98.488 203.651 98.136 203.411 97.68C203.171 97.224 203.051 96.688 203.051 96.072C203.051 95.448 203.171 94.912 203.411 94.464C203.651 94.008 203.983 93.656 204.407 93.408C204.839 93.16 205.351 93.036 205.943 93.036C206.527 93.036 207.031 93.16 207.455 93.408C207.887 93.656 208.223 94.008 208.463 94.464C208.703 94.92 208.823 95.456 208.823 96.072C208.823 96.688 208.703 97.224 208.463 97.68C208.223 98.136 207.887 98.488 207.455 98.736C207.031 98.984 206.527 99.108 205.943 99.108ZM205.931 98.172C206.435 98.172 206.839 97.992 207.143 97.632C207.447 97.272 207.599 96.752 207.599 96.072C207.599 95.384 207.447 94.864 207.143 94.512C206.839 94.16 206.435 93.984 205.931 93.984C205.435 93.984 205.035 94.16 204.731 94.512C204.427 94.864 204.275 95.384 204.275 96.072C204.275 96.752 204.427 97.272 204.731 97.632C205.035 97.992 205.435 98.172 205.931 98.172ZM210.208 99V93.144H211.384V94.392H211.252C211.356 94.104 211.5 93.86 211.684 93.66C211.868 93.46 212.088 93.308 212.344 93.204C212.608 93.092 212.896 93.036 213.208 93.036C213.696 93.036 214.092 93.152 214.396 93.384C214.7 93.616 214.908 93.972 215.02 94.452H214.852C215.004 94.012 215.264 93.668 215.632 93.42C216 93.164 216.428 93.036 216.916 93.036C217.364 93.036 217.732 93.124 218.02 93.3C218.308 93.468 218.524 93.728 218.668 94.08C218.812 94.424 218.884 94.86 218.884 95.388V99H217.672V95.448C217.672 94.952 217.584 94.588 217.408 94.356C217.24 94.124 216.96 94.008 216.568 94.008C216.28 94.008 216.028 94.076 215.812 94.212C215.596 94.348 215.428 94.548 215.308 94.812C215.196 95.068 215.14 95.372 215.14 95.724V99H213.928V95.448C213.928 94.952 213.844 94.588 213.676 94.356C213.508 94.124 213.228 94.008 212.836 94.008C212.54 94.008 212.284 94.076 212.068 94.212C211.86 94.348 211.7 94.548 211.588 94.812C211.476 95.068 211.42 95.372 211.42 95.724V99H210.208ZM223.327 99.108C222.687 99.108 222.135 98.988 221.671 98.748C221.215 98.5 220.859 98.152 220.603 97.704C220.355 97.248 220.231 96.708 220.231 96.084C220.231 95.476 220.355 94.944 220.603 94.488C220.851 94.032 221.191 93.676 221.623 93.42C222.055 93.164 222.547 93.036 223.099 93.036C223.643 93.036 224.107 93.156 224.491 93.396C224.883 93.628 225.183 93.96 225.391 94.392C225.599 94.824 225.703 95.34 225.703 95.94V96.348H221.191V95.604H224.887L224.683 95.772C224.683 95.172 224.551 94.708 224.287 94.38C224.023 94.052 223.643 93.888 223.147 93.888C222.771 93.888 222.451 93.976 222.187 94.152C221.931 94.328 221.735 94.572 221.599 94.884C221.463 95.196 221.395 95.56 221.395 95.976V96.048C221.395 96.512 221.467 96.904 221.611 97.224C221.763 97.536 221.983 97.772 222.271 97.932C222.559 98.092 222.915 98.172 223.339 98.172C223.675 98.172 224.003 98.12 224.323 98.016C224.651 97.904 224.959 97.732 225.247 97.5L225.607 98.34C225.343 98.58 225.003 98.768 224.587 98.904C224.171 99.04 223.751 99.108 223.327 99.108ZM227.024 99V93.144H228.2V94.548H228.08C228.208 94.068 228.436 93.704 228.764 93.456C229.1 93.208 229.544 93.064 230.096 93.024L230.492 93L230.576 94.032L229.844 94.104C229.324 94.152 228.928 94.316 228.656 94.596C228.384 94.876 228.248 95.26 228.248 95.748V99H227.024ZM234.785 99V90.54H238.289C239.201 90.54 239.905 90.756 240.401 91.188C240.897 91.62 241.145 92.232 241.145 93.024C241.145 93.536 241.033 93.976 240.809 94.344C240.585 94.712 240.257 94.992 239.825 95.184C239.401 95.376 238.889 95.472 238.289 95.472L238.397 95.304H238.709C239.029 95.304 239.305 95.384 239.537 95.544C239.777 95.704 239.993 95.96 240.185 96.312L241.649 99H240.281L238.817 96.3C238.705 96.092 238.581 95.932 238.445 95.82C238.317 95.7 238.165 95.62 237.989 95.58C237.821 95.532 237.621 95.508 237.389 95.508H236.033V99H234.785ZM236.033 94.572H238.085C238.693 94.572 239.153 94.444 239.465 94.188C239.777 93.932 239.933 93.552 239.933 93.048C239.933 92.552 239.777 92.176 239.465 91.92C239.153 91.664 238.693 91.536 238.085 91.536H236.033V94.572ZM245.381 99.108C244.741 99.108 244.189 98.988 243.725 98.748C243.269 98.5 242.913 98.152 242.657 97.704C242.409 97.248 242.285 96.708 242.285 96.084C242.285 95.476 242.409 94.944 242.657 94.488C242.905 94.032 243.245 93.676 243.677 93.42C244.109 93.164 244.601 93.036 245.153 93.036C245.697 93.036 246.161 93.156 246.545 93.396C246.937 93.628 247.237 93.96 247.445 94.392C247.653 94.824 247.757 95.34 247.757 95.94V96.348H243.245V95.604H246.941L246.737 95.772C246.737 95.172 246.605 94.708 246.341 94.38C246.077 94.052 245.697 93.888 245.201 93.888C244.825 93.888 244.505 93.976 244.241 94.152C243.985 94.328 243.789 94.572 243.653 94.884C243.517 95.196 243.449 95.56 243.449 95.976V96.048C243.449 96.512 243.521 96.904 243.665 97.224C243.817 97.536 244.037 97.772 244.325 97.932C244.613 98.092 244.969 98.172 245.393 98.172C245.729 98.172 246.057 98.12 246.377 98.016C246.705 97.904 247.013 97.732 247.301 97.5L247.661 98.34C247.397 98.58 247.057 98.768 246.641 98.904C246.225 99.04 245.805 99.108 245.381 99.108ZM249.415 99V94.08H248.275V93.144H249.763L249.415 93.468V93.036C249.415 92.236 249.619 91.632 250.027 91.224C250.443 90.808 251.079 90.576 251.935 90.528L252.463 90.492L252.547 91.404L251.995 91.44C251.667 91.456 251.403 91.52 251.203 91.632C251.003 91.744 250.855 91.904 250.759 92.112C250.671 92.312 250.627 92.564 250.627 92.868V93.336L250.459 93.144H252.271V94.08H250.627V99H249.415ZM255.315 99.108C254.843 99.108 254.447 99.02 254.127 98.844C253.815 98.668 253.579 98.408 253.419 98.064C253.267 97.712 253.191 97.272 253.191 96.744V93.144H254.403V96.756C254.403 97.068 254.443 97.328 254.523 97.536C254.611 97.744 254.743 97.896 254.919 97.992C255.103 98.088 255.331 98.136 255.603 98.136C255.907 98.136 256.175 98.068 256.407 97.932C256.639 97.796 256.819 97.6 256.947 97.344C257.075 97.088 257.139 96.792 257.139 96.456V93.144H258.351V99H257.175V97.716H257.331C257.171 98.164 256.915 98.508 256.563 98.748C256.211 98.988 255.795 99.108 255.315 99.108ZM262.111 99.108C261.799 99.108 261.495 99.08 261.199 99.024C260.903 98.968 260.631 98.888 260.383 98.784C260.135 98.68 259.915 98.552 259.723 98.4L260.071 97.584C260.271 97.72 260.483 97.84 260.707 97.944C260.931 98.04 261.163 98.112 261.403 98.16C261.651 98.208 261.891 98.232 262.123 98.232C262.547 98.232 262.867 98.156 263.083 98.004C263.299 97.852 263.407 97.648 263.407 97.392C263.407 97.184 263.335 97.024 263.191 96.912C263.047 96.792 262.831 96.7 262.543 96.636L261.403 96.408C260.907 96.304 260.531 96.12 260.275 95.856C260.019 95.592 259.891 95.256 259.891 94.848C259.891 94.48 259.991 94.16 260.191 93.888C260.391 93.616 260.671 93.408 261.031 93.264C261.391 93.112 261.807 93.036 262.279 93.036C262.551 93.036 262.815 93.064 263.071 93.12C263.327 93.176 263.567 93.256 263.791 93.36C264.023 93.464 264.219 93.596 264.379 93.756L264.031 94.572C263.879 94.436 263.703 94.32 263.503 94.224C263.311 94.128 263.111 94.056 262.903 94.008C262.695 93.952 262.487 93.924 262.279 93.924C261.855 93.924 261.535 94.004 261.319 94.164C261.111 94.316 261.007 94.524 261.007 94.788C261.007 94.988 261.071 95.152 261.199 95.28C261.327 95.408 261.527 95.5 261.799 95.556L262.939 95.784C263.459 95.888 263.851 96.064 264.115 96.312C264.387 96.56 264.523 96.896 264.523 97.32C264.523 97.688 264.423 98.008 264.223 98.28C264.023 98.552 263.739 98.76 263.371 98.904C263.011 99.04 262.591 99.108 262.111 99.108ZM268.62 99.108C267.98 99.108 267.428 98.988 266.964 98.748C266.508 98.5 266.152 98.152 265.896 97.704C265.648 97.248 265.524 96.708 265.524 96.084C265.524 95.476 265.648 94.944 265.896 94.488C266.144 94.032 266.484 93.676 266.916 93.42C267.348 93.164 267.84 93.036 268.392 93.036C268.936 93.036 269.4 93.156 269.784 93.396C270.176 93.628 270.476 93.96 270.684 94.392C270.892 94.824 270.996 95.34 270.996 95.94V96.348H266.484V95.604H270.18L269.976 95.772C269.976 95.172 269.844 94.708 269.58 94.38C269.316 94.052 268.936 93.888 268.44 93.888C268.064 93.888 267.744 93.976 267.48 94.152C267.224 94.328 267.028 94.572 266.892 94.884C266.756 95.196 266.688 95.56 266.688 95.976V96.048C266.688 96.512 266.76 96.904 266.904 97.224C267.056 97.536 267.276 97.772 267.564 97.932C267.852 98.092 268.208 98.172 268.632 98.172C268.968 98.172 269.296 98.12 269.616 98.016C269.944 97.904 270.252 97.732 270.54 97.5L270.9 98.34C270.636 98.58 270.296 98.768 269.88 98.904C269.464 99.04 269.044 99.108 268.62 99.108ZM274.549 99.108C274.037 99.108 273.585 98.988 273.193 98.748C272.809 98.5 272.509 98.148 272.293 97.692C272.077 97.228 271.969 96.688 271.969 96.072C271.969 95.44 272.077 94.9 272.293 94.452C272.509 94.004 272.809 93.656 273.193 93.408C273.585 93.16 274.037 93.036 274.549 93.036C275.061 93.036 275.501 93.164 275.869 93.42C276.245 93.668 276.497 94.004 276.625 94.428H276.493V90.54H277.705V99H276.517V97.68H276.637C276.509 98.112 276.257 98.46 275.881 98.724C275.513 98.98 275.069 99.108 274.549 99.108ZM274.861 98.172C275.357 98.172 275.757 97.992 276.061 97.632C276.365 97.272 276.517 96.752 276.517 96.072C276.517 95.384 276.365 94.864 276.061 94.512C275.757 94.16 275.357 93.984 274.861 93.984C274.357 93.984 273.953 94.16 273.649 94.512C273.345 94.864 273.193 95.384 273.193 96.072C273.193 96.752 273.345 97.272 273.649 97.632C273.953 97.992 274.357 98.172 274.861 98.172Z" fill="#444050"/>
<path d="M58.668 115H278.688" stroke="#EAEAEC" stroke-linecap="round"/>
<path d="M63.576 139.108C62.672 139.108 61.908 138.936 61.284 138.592C60.668 138.248 60.2 137.752 59.88 137.104C59.56 136.456 59.4 135.68 59.4 134.776C59.4 133.88 59.56 133.108 59.88 132.46C60.2 131.812 60.66 131.312 61.26 130.96C61.86 130.608 62.584 130.432 63.432 130.432C63.832 130.432 64.208 130.472 64.56 130.552C64.92 130.632 65.252 130.752 65.556 130.912C65.868 131.064 66.14 131.256 66.372 131.488L65.988 132.28C65.604 131.944 65.208 131.7 64.8 131.548C64.392 131.396 63.932 131.32 63.42 131.32C62.452 131.32 61.712 131.62 61.2 132.22C60.696 132.82 60.444 133.672 60.444 134.776C60.444 135.896 60.704 136.752 61.224 137.344C61.752 137.936 62.544 138.232 63.6 138.232C63.984 138.232 64.36 138.196 64.728 138.124C65.096 138.044 65.444 137.936 65.772 137.8L65.556 138.364V135.376H63.408V134.596H66.408V138.508C66.192 138.62 65.924 138.724 65.604 138.82C65.284 138.908 64.948 138.976 64.596 139.024C64.244 139.08 63.904 139.108 63.576 139.108ZM68.419 139V130.54H71.767C72.375 130.54 72.887 130.64 73.303 130.84C73.727 131.032 74.047 131.32 74.263 131.704C74.479 132.08 74.587 132.54 74.587 133.084C74.587 133.612 74.479 134.068 74.263 134.452C74.047 134.836 73.727 135.128 73.303 135.328C72.887 135.528 72.375 135.628 71.767 135.628H69.403V139H68.419ZM69.403 134.8H71.647C72.295 134.8 72.783 134.656 73.111 134.368C73.447 134.072 73.615 133.644 73.615 133.084C73.615 132.516 73.447 132.088 73.111 131.8C72.783 131.504 72.295 131.356 71.647 131.356H69.403V134.8ZM78.7488 139.108C78.3088 139.108 77.8928 139.068 77.5008 138.988C77.1168 138.908 76.7608 138.796 76.4328 138.652C76.1128 138.5 75.8208 138.316 75.5568 138.1L75.9048 137.308C76.1768 137.508 76.4528 137.68 76.7327 137.824C77.0208 137.96 77.3288 138.064 77.6568 138.136C77.9928 138.2 78.3568 138.232 78.7488 138.232C79.4688 138.232 80.0008 138.1 80.3448 137.836C80.6968 137.564 80.8728 137.208 80.8728 136.768C80.8728 136.536 80.8168 136.336 80.7048 136.168C80.6008 136 80.4248 135.856 80.1768 135.736C79.9368 135.616 79.6208 135.516 79.2288 135.436L77.9808 135.184C77.2288 135.024 76.6648 134.764 76.2888 134.404C75.9208 134.036 75.7368 133.548 75.7368 132.94C75.7368 132.436 75.8648 131.996 76.1208 131.62C76.3848 131.244 76.7488 130.952 77.2128 130.744C77.6848 130.536 78.2208 130.432 78.8208 130.432C79.2048 130.432 79.5688 130.472 79.9128 130.552C80.2568 130.632 80.5728 130.752 80.8608 130.912C81.1568 131.064 81.4168 131.252 81.6408 131.476L81.2928 132.244C80.9328 131.916 80.5528 131.68 80.1528 131.536C79.7528 131.384 79.3048 131.308 78.8088 131.308C78.3848 131.308 78.0168 131.372 77.7048 131.5C77.4008 131.628 77.1608 131.816 76.9848 132.064C76.8168 132.304 76.7327 132.584 76.7327 132.904C76.7327 133.288 76.8488 133.592 77.0808 133.816C77.3208 134.04 77.7088 134.204 78.2448 134.308L79.4928 134.572C80.3008 134.74 80.8968 134.996 81.2808 135.34C81.6728 135.676 81.8688 136.136 81.8688 136.72C81.8688 137.184 81.7408 137.6 81.4848 137.968C81.2368 138.328 80.8768 138.608 80.4048 138.808C79.9408 139.008 79.3888 139.108 78.7488 139.108ZM88.1816 139.108C87.7816 139.108 87.4216 139.032 87.1016 138.88C86.7896 138.72 86.5416 138.504 86.3576 138.232C86.1736 137.96 86.0816 137.656 86.0816 137.32C86.0816 136.888 86.1896 136.548 86.4056 136.3C86.6296 136.052 86.9936 135.876 87.4976 135.772C88.0096 135.668 88.7056 135.616 89.5856 135.616H90.1256V136.252H89.5976C89.1096 136.252 88.7016 136.268 88.3736 136.3C88.0456 136.332 87.7856 136.388 87.5936 136.468C87.4016 136.548 87.2656 136.652 87.1856 136.78C87.1056 136.908 87.0656 137.068 87.0656 137.26C87.0656 137.588 87.1776 137.856 87.4016 138.064C87.6336 138.272 87.9456 138.376 88.3376 138.376C88.6576 138.376 88.9376 138.3 89.1776 138.148C89.4256 137.996 89.6176 137.788 89.7536 137.524C89.8976 137.26 89.9696 136.956 89.9696 136.612V135.244C89.9696 134.748 89.8696 134.392 89.6696 134.176C89.4696 133.952 89.1416 133.84 88.6856 133.84C88.3336 133.84 87.9936 133.892 87.6656 133.996C87.3376 134.092 87.0016 134.252 86.6576 134.476L86.3216 133.768C86.5296 133.624 86.7656 133.5 87.0296 133.396C87.2936 133.284 87.5696 133.2 87.8576 133.144C88.1456 133.088 88.4216 133.06 88.6856 133.06C89.1896 133.06 89.6056 133.144 89.9336 133.312C90.2616 133.472 90.5056 133.72 90.6656 134.056C90.8256 134.384 90.9056 134.808 90.9056 135.328V139H89.9936V137.644H90.1016C90.0376 137.948 89.9136 138.208 89.7296 138.424C89.5536 138.64 89.3336 138.808 89.0696 138.928C88.8056 139.048 88.5096 139.108 88.1816 139.108ZM95.0489 139.108C94.3609 139.108 93.8449 138.924 93.5009 138.556C93.1569 138.188 92.9849 137.664 92.9849 136.984V133.924H91.8449V133.168H92.9849V131.38H93.9569V133.168H95.8049V133.924H93.9569V136.888C93.9569 137.344 94.0529 137.692 94.2449 137.932C94.4369 138.164 94.7489 138.28 95.1809 138.28C95.3089 138.28 95.4369 138.264 95.5649 138.232C95.6929 138.2 95.8089 138.168 95.9129 138.136L96.0809 138.88C95.9769 138.936 95.8249 138.988 95.6249 139.036C95.4249 139.084 95.2329 139.108 95.0489 139.108ZM99.8302 133.06V132.208C99.8302 131.984 99.8502 131.776 99.8902 131.584C99.9382 131.392 100.014 131.204 100.118 131.02C100.23 130.828 100.374 130.644 100.55 130.468L101.018 130.816C100.882 130.968 100.774 131.112 100.694 131.248C100.614 131.384 100.558 131.516 100.526 131.644C100.494 131.772 100.478 131.904 100.478 132.04L100.19 131.836H101.054V133.06H99.8302ZM101.822 133.06V132.208C101.822 131.984 101.842 131.776 101.882 131.584C101.93 131.392 102.006 131.204 102.11 131.02C102.222 130.828 102.366 130.644 102.542 130.468L103.01 130.816C102.874 130.968 102.766 131.112 102.686 131.248C102.606 131.384 102.55 131.516 102.518 131.644C102.486 131.772 102.47 131.904 102.47 132.04L102.182 131.836H103.046V133.06H101.822ZM106.545 139.108C106.145 139.108 105.785 139.032 105.465 138.88C105.153 138.72 104.905 138.504 104.721 138.232C104.537 137.96 104.445 137.656 104.445 137.32C104.445 136.888 104.553 136.548 104.769 136.3C104.993 136.052 105.357 135.876 105.861 135.772C106.373 135.668 107.069 135.616 107.949 135.616H108.489V136.252H107.961C107.473 136.252 107.065 136.268 106.737 136.3C106.409 136.332 106.149 136.388 105.957 136.468C105.765 136.548 105.629 136.652 105.549 136.78C105.469 136.908 105.429 137.068 105.429 137.26C105.429 137.588 105.541 137.856 105.765 138.064C105.997 138.272 106.309 138.376 106.701 138.376C107.021 138.376 107.301 138.3 107.541 138.148C107.789 137.996 107.981 137.788 108.117 137.524C108.261 137.26 108.333 136.956 108.333 136.612V135.244C108.333 134.748 108.233 134.392 108.033 134.176C107.833 133.952 107.505 133.84 107.049 133.84C106.697 133.84 106.357 133.892 106.029 133.996C105.701 134.092 105.365 134.252 105.021 134.476L104.685 133.768C104.893 133.624 105.129 133.5 105.393 133.396C105.657 133.284 105.933 133.2 106.221 133.144C106.509 133.088 106.785 133.06 107.049 133.06C107.553 133.06 107.969 133.144 108.297 133.312C108.625 133.472 108.869 133.72 109.029 134.056C109.189 134.384 109.269 134.808 109.269 135.328V139H108.357V137.644H108.465C108.401 137.948 108.277 138.208 108.093 138.424C107.917 138.64 107.697 138.808 107.433 138.928C107.169 139.048 106.873 139.108 106.545 139.108ZM113.412 139.108C112.724 139.108 112.208 138.924 111.864 138.556C111.52 138.188 111.348 137.664 111.348 136.984V133.924H110.208V133.168H111.348V131.38H112.32V133.168H114.168V133.924H112.32V136.888C112.32 137.344 112.416 137.692 112.608 137.932C112.8 138.164 113.112 138.28 113.544 138.28C113.672 138.28 113.8 138.264 113.928 138.232C114.056 138.2 114.172 138.168 114.276 138.136L114.444 138.88C114.34 138.936 114.188 138.988 113.988 139.036C113.788 139.084 113.596 139.108 113.412 139.108ZM117.455 139.108C116.767 139.108 116.251 138.924 115.907 138.556C115.563 138.188 115.391 137.664 115.391 136.984V133.924H114.251V133.168H115.391V131.38H116.363V133.168H118.211V133.924H116.363V136.888C116.363 137.344 116.459 137.692 116.651 137.932C116.843 138.164 117.155 138.28 117.587 138.28C117.715 138.28 117.843 138.264 117.971 138.232C118.099 138.2 118.215 138.168 118.319 138.136L118.487 138.88C118.383 138.936 118.231 138.988 118.031 139.036C117.831 139.084 117.639 139.108 117.455 139.108ZM121.88 139.108C121.264 139.108 120.732 138.988 120.284 138.748C119.844 138.5 119.5 138.152 119.252 137.704C119.012 137.256 118.892 136.72 118.892 136.096C118.892 135.488 119.012 134.96 119.252 134.512C119.492 134.056 119.82 133.7 120.236 133.444C120.66 133.188 121.148 133.06 121.7 133.06C122.228 133.06 122.68 133.176 123.056 133.408C123.432 133.64 123.72 133.968 123.92 134.392C124.128 134.816 124.232 135.324 124.232 135.916V136.288H119.636V135.652H123.584L123.392 135.808C123.392 135.168 123.248 134.672 122.96 134.32C122.68 133.96 122.268 133.78 121.724 133.78C121.316 133.78 120.968 133.876 120.68 134.068C120.4 134.252 120.188 134.512 120.044 134.848C119.9 135.176 119.828 135.56 119.828 136V136.072C119.828 136.56 119.904 136.972 120.056 137.308C120.216 137.644 120.452 137.9 120.764 138.076C121.076 138.244 121.448 138.328 121.88 138.328C122.224 138.328 122.556 138.276 122.876 138.172C123.204 138.06 123.512 137.88 123.8 137.632L124.136 138.316C123.872 138.556 123.536 138.748 123.128 138.892C122.72 139.036 122.304 139.108 121.88 139.108ZM125.663 139V133.168H126.611V134.464H126.479C126.575 134.168 126.715 133.916 126.899 133.708C127.091 133.492 127.315 133.332 127.571 133.228C127.835 133.116 128.123 133.06 128.435 133.06C128.931 133.06 129.331 133.18 129.635 133.42C129.947 133.652 130.155 134.016 130.259 134.512H130.079C130.223 134.064 130.479 133.712 130.847 133.456C131.223 133.192 131.659 133.06 132.155 133.06C132.595 133.06 132.955 133.144 133.235 133.312C133.523 133.48 133.739 133.736 133.883 134.08C134.027 134.416 134.099 134.844 134.099 135.364V139H133.127V135.412C133.127 134.876 133.035 134.484 132.851 134.236C132.667 133.98 132.355 133.852 131.915 133.852C131.603 133.852 131.327 133.928 131.087 134.08C130.855 134.232 130.675 134.448 130.547 134.728C130.427 135 130.367 135.324 130.367 135.7V139H129.395V135.412C129.395 134.876 129.299 134.484 129.107 134.236C128.923 133.98 128.615 133.852 128.183 133.852C127.863 133.852 127.587 133.928 127.355 134.08C127.123 134.232 126.943 134.448 126.815 134.728C126.695 135 126.635 135.324 126.635 135.7V139H125.663ZM135.916 141.16V133.168H136.864V134.548H136.744C136.872 134.092 137.124 133.732 137.5 133.468C137.884 133.196 138.34 133.06 138.868 133.06C139.388 133.06 139.84 133.184 140.224 133.432C140.616 133.672 140.916 134.02 141.124 134.476C141.34 134.924 141.448 135.46 141.448 136.084C141.448 136.7 141.34 137.236 141.124 137.692C140.916 138.14 140.62 138.488 140.236 138.736C139.852 138.984 139.396 139.108 138.868 139.108C138.34 139.108 137.888 138.976 137.512 138.712C137.136 138.44 136.88 138.08 136.744 137.632H136.888V141.16H135.916ZM138.664 138.328C139.216 138.328 139.652 138.136 139.972 137.752C140.3 137.36 140.464 136.804 140.464 136.084C140.464 135.356 140.3 134.8 139.972 134.416C139.652 134.032 139.216 133.84 138.664 133.84C138.12 133.84 137.684 134.032 137.356 134.416C137.028 134.8 136.864 135.356 136.864 136.084C136.864 136.804 137.028 137.36 137.356 137.752C137.684 138.136 138.12 138.328 138.664 138.328ZM145.193 139.108C144.505 139.108 143.989 138.924 143.645 138.556C143.301 138.188 143.129 137.664 143.129 136.984V133.924H141.989V133.168H143.129V131.38H144.101V133.168H145.949V133.924H144.101V136.888C144.101 137.344 144.197 137.692 144.389 137.932C144.581 138.164 144.893 138.28 145.325 138.28C145.453 138.28 145.581 138.264 145.709 138.232C145.837 138.2 145.953 138.168 146.057 138.136L146.225 138.88C146.121 138.936 145.969 138.988 145.769 139.036C145.569 139.084 145.377 139.108 145.193 139.108ZM147.338 133.144L146.894 132.784C147.038 132.64 147.146 132.5 147.218 132.364C147.298 132.228 147.35 132.096 147.374 131.968C147.406 131.84 147.422 131.708 147.422 131.572L147.722 131.764H146.846V130.54H148.07V131.404C148.07 131.62 148.046 131.828 147.998 132.028C147.958 132.22 147.886 132.408 147.782 132.592C147.678 132.776 147.53 132.96 147.338 133.144ZM149.33 133.144L148.886 132.784C149.03 132.64 149.138 132.5 149.21 132.364C149.29 132.228 149.342 132.096 149.366 131.968C149.398 131.84 149.414 131.708 149.414 131.572L149.714 131.764H148.838V130.54H150.062V131.404C150.062 131.62 150.038 131.828 149.99 132.028C149.95 132.22 149.878 132.408 149.774 132.592C149.67 132.776 149.522 132.96 149.33 133.144ZM151.428 134.392V133.168H152.652V134.392H151.428ZM151.428 139V137.776H152.652V139H151.428Z" fill="#737682"/>
<path d="M209.688 139V138.076L212.508 135.052C212.772 134.764 212.984 134.5 213.144 134.26C213.304 134.012 213.42 133.776 213.492 133.552C213.572 133.32 213.612 133.088 213.612 132.856C213.612 132.408 213.476 132.068 213.204 131.836C212.932 131.604 212.532 131.488 212.004 131.488C211.596 131.488 211.208 131.564 210.84 131.716C210.48 131.868 210.136 132.1 209.808 132.412L209.364 131.464C209.684 131.152 210.092 130.904 210.588 130.72C211.084 130.528 211.6 130.432 212.136 130.432C212.72 130.432 213.212 130.524 213.612 130.708C214.02 130.884 214.328 131.144 214.536 131.488C214.744 131.832 214.848 132.252 214.848 132.748C214.848 133.004 214.816 133.256 214.752 133.504C214.696 133.744 214.604 133.984 214.476 134.224C214.356 134.464 214.2 134.712 214.008 134.968C213.824 135.224 213.6 135.488 213.336 135.76L210.924 138.304V137.956H215.184V139H209.688ZM216.571 139V137.572H217.999V139H216.571ZM223.079 139V137.284H219.275V136.36L223.295 130.54H224.315V136.24H225.551V137.284H224.315V139H223.079ZM223.079 136.24V132.028H223.403L220.283 136.576V136.24H223.079ZM229.911 139V130.54H231.123V135.7H231.147L233.691 133.144H235.191L232.107 136.24V135.676L235.407 139H233.895L231.147 136.324H231.123V139H229.911ZM236.122 139V133.144H237.298V134.392H237.166C237.27 134.104 237.414 133.86 237.598 133.66C237.782 133.46 238.002 133.308 238.258 133.204C238.522 133.092 238.81 133.036 239.122 133.036C239.61 133.036 240.006 133.152 240.31 133.384C240.614 133.616 240.822 133.972 240.934 134.452H240.766C240.918 134.012 241.178 133.668 241.546 133.42C241.914 133.164 242.342 133.036 242.83 133.036C243.278 133.036 243.646 133.124 243.934 133.3C244.222 133.468 244.438 133.728 244.582 134.08C244.726 134.424 244.798 134.86 244.798 135.388V139H243.586V135.448C243.586 134.952 243.498 134.588 243.322 134.356C243.154 134.124 242.874 134.008 242.482 134.008C242.194 134.008 241.942 134.076 241.726 134.212C241.51 134.348 241.342 134.548 241.222 134.812C241.11 135.068 241.054 135.372 241.054 135.724V139H239.842V135.448C239.842 134.952 239.758 134.588 239.59 134.356C239.422 134.124 239.142 134.008 238.75 134.008C238.454 134.008 238.198 134.076 237.982 134.212C237.774 134.348 237.614 134.548 237.502 134.812C237.39 135.068 237.334 135.372 237.334 135.724V139H236.122ZM251.517 139.108C251.109 139.108 250.741 139.028 250.413 138.868C250.093 138.708 249.841 138.492 249.657 138.22C249.473 137.948 249.381 137.64 249.381 137.296C249.381 136.864 249.489 136.524 249.705 136.276C249.929 136.02 250.293 135.84 250.797 135.736C251.309 135.624 251.997 135.568 252.861 135.568H253.425V136.312H252.873C252.441 136.312 252.077 136.328 251.781 136.36C251.485 136.392 251.249 136.444 251.073 136.516C250.897 136.58 250.769 136.672 250.689 136.792C250.617 136.912 250.581 137.056 250.581 137.224C250.581 137.528 250.685 137.776 250.893 137.968C251.101 138.152 251.389 138.244 251.757 138.244C252.053 138.244 252.313 138.176 252.537 138.04C252.761 137.896 252.937 137.704 253.065 137.464C253.201 137.224 253.269 136.948 253.269 136.636V135.256C253.269 134.8 253.173 134.472 252.981 134.272C252.789 134.072 252.473 133.972 252.033 133.972C251.697 133.972 251.361 134.024 251.025 134.128C250.689 134.224 250.345 134.38 249.993 134.596L249.621 133.744C249.829 133.6 250.069 133.476 250.341 133.372C250.613 133.268 250.897 133.188 251.193 133.132C251.497 133.068 251.789 133.036 252.069 133.036C252.605 133.036 253.045 133.12 253.389 133.288C253.741 133.456 254.001 133.712 254.169 134.056C254.337 134.4 254.421 134.844 254.421 135.388V139H253.281V137.692H253.389C253.325 137.988 253.205 138.244 253.029 138.46C252.861 138.668 252.649 138.828 252.393 138.94C252.137 139.052 251.845 139.108 251.517 139.108ZM257.616 139L255.384 133.144H256.632L258.348 137.98H258.06L259.824 133.144H260.76L262.488 137.98H262.224L263.952 133.144H265.14L262.908 139H261.804L259.956 134.008H260.556L258.72 139H257.616ZM267.935 139.108C267.527 139.108 267.159 139.028 266.831 138.868C266.511 138.708 266.259 138.492 266.075 138.22C265.891 137.948 265.799 137.64 265.799 137.296C265.799 136.864 265.907 136.524 266.123 136.276C266.347 136.02 266.711 135.84 267.215 135.736C267.727 135.624 268.415 135.568 269.279 135.568H269.843V136.312H269.291C268.859 136.312 268.495 136.328 268.199 136.36C267.903 136.392 267.667 136.444 267.491 136.516C267.315 136.58 267.187 136.672 267.107 136.792C267.035 136.912 266.999 137.056 266.999 137.224C266.999 137.528 267.103 137.776 267.311 137.968C267.519 138.152 267.807 138.244 268.175 138.244C268.471 138.244 268.731 138.176 268.955 138.04C269.179 137.896 269.355 137.704 269.483 137.464C269.619 137.224 269.687 136.948 269.687 136.636V135.256C269.687 134.8 269.591 134.472 269.399 134.272C269.207 134.072 268.891 133.972 268.451 133.972C268.115 133.972 267.779 134.024 267.443 134.128C267.107 134.224 266.763 134.38 266.411 134.596L266.039 133.744C266.247 133.6 266.487 133.476 266.759 133.372C267.031 133.268 267.315 133.188 267.611 133.132C267.915 133.068 268.207 133.036 268.487 133.036C269.023 133.036 269.463 133.12 269.807 133.288C270.159 133.456 270.419 133.712 270.587 134.056C270.755 134.4 270.839 134.844 270.839 135.388V139H269.699V137.692H269.807C269.743 137.988 269.623 138.244 269.447 138.46C269.279 138.668 269.067 138.828 268.811 138.94C268.555 139.052 268.263 139.108 267.935 139.108ZM273.05 141.16L274.202 138.592V139.108L271.646 133.144H272.942L274.91 138.004H274.574L276.566 133.144H277.814L274.322 141.16H273.05Z" fill="#444050"/>
<path d="M58.668 155H278.688" stroke="#EAEAEC" stroke-linecap="round"/>
<path d="M63.372 179.108C62.54 179.108 61.828 178.932 61.236 178.58C60.644 178.228 60.188 177.728 59.868 177.08C59.556 176.432 59.4 175.66 59.4 174.764C59.4 173.868 59.556 173.1 59.868 172.46C60.188 171.812 60.644 171.312 61.236 170.96C61.828 170.608 62.54 170.432 63.372 170.432C63.956 170.432 64.496 170.524 64.992 170.708C65.488 170.892 65.904 171.16 66.24 171.512L65.856 172.316C65.488 171.972 65.104 171.724 64.704 171.572C64.312 171.412 63.876 171.332 63.396 171.332C62.444 171.332 61.716 171.632 61.212 172.232C60.708 172.832 60.456 173.676 60.456 174.764C60.456 175.852 60.708 176.7 61.212 177.308C61.716 177.908 62.444 178.208 63.396 178.208C63.876 178.208 64.312 178.132 64.704 177.98C65.104 177.82 65.488 177.568 65.856 177.224L66.24 178.028C65.904 178.372 65.488 178.64 64.992 178.832C64.496 179.016 63.956 179.108 63.372 179.108ZM69.3027 179.108C68.9027 179.108 68.5427 179.032 68.2227 178.88C67.9107 178.72 67.6627 178.504 67.4787 178.232C67.2947 177.96 67.2027 177.656 67.2027 177.32C67.2027 176.888 67.3107 176.548 67.5267 176.3C67.7507 176.052 68.1147 175.876 68.6187 175.772C69.1307 175.668 69.8267 175.616 70.7067 175.616H71.2467V176.252H70.7187C70.2307 176.252 69.8227 176.268 69.4947 176.3C69.1667 176.332 68.9067 176.388 68.7147 176.468C68.5227 176.548 68.3867 176.652 68.3067 176.78C68.2267 176.908 68.1867 177.068 68.1867 177.26C68.1867 177.588 68.2987 177.856 68.5227 178.064C68.7547 178.272 69.0667 178.376 69.4587 178.376C69.7787 178.376 70.0587 178.3 70.2987 178.148C70.5467 177.996 70.7387 177.788 70.8747 177.524C71.0187 177.26 71.0907 176.956 71.0907 176.612V175.244C71.0907 174.748 70.9907 174.392 70.7907 174.176C70.5907 173.952 70.2627 173.84 69.8067 173.84C69.4547 173.84 69.1147 173.892 68.7867 173.996C68.4587 174.092 68.1227 174.252 67.7787 174.476L67.4427 173.768C67.6507 173.624 67.8867 173.5 68.1507 173.396C68.4147 173.284 68.6907 173.2 68.9787 173.144C69.2667 173.088 69.5427 173.06 69.8067 173.06C70.3107 173.06 70.7267 173.144 71.0547 173.312C71.3827 173.472 71.6267 173.72 71.7867 174.056C71.9467 174.384 72.0267 174.808 72.0267 175.328V179H71.1147V177.644H71.2227C71.1587 177.948 71.0347 178.208 70.8507 178.424C70.6747 178.64 70.4547 178.808 70.1907 178.928C69.9267 179.048 69.6307 179.108 69.3027 179.108ZM75.618 179.108C75.026 179.108 74.578 178.932 74.274 178.58C73.978 178.228 73.83 177.724 73.83 177.068V170.54H74.802V176.996C74.802 177.276 74.838 177.512 74.91 177.704C74.99 177.896 75.106 178.04 75.258 178.136C75.41 178.232 75.598 178.28 75.822 178.28C75.918 178.28 76.01 178.276 76.098 178.268C76.194 178.252 76.282 178.232 76.362 178.208L76.338 179.024C76.21 179.048 76.086 179.068 75.966 179.084C75.854 179.1 75.738 179.108 75.618 179.108ZM79.1688 179.108C78.5768 179.108 78.1288 178.932 77.8248 178.58C77.5288 178.228 77.3808 177.724 77.3808 177.068V170.54H78.3528V176.996C78.3528 177.276 78.3888 177.512 78.4608 177.704C78.5408 177.896 78.6568 178.04 78.8088 178.136C78.9608 178.232 79.1488 178.28 79.3728 178.28C79.4688 178.28 79.5608 178.276 79.6488 178.268C79.7448 178.252 79.8328 178.232 79.9128 178.208L79.8888 179.024C79.7608 179.048 79.6368 179.068 79.5168 179.084C79.4048 179.1 79.2888 179.108 79.1688 179.108ZM84.1456 179V170.54H85.1296V178.136H89.4376V179H84.1456ZM92.8946 179.108C92.3266 179.108 91.8346 178.984 91.4186 178.736C91.0026 178.488 90.6786 178.14 90.4466 177.692C90.2226 177.236 90.1106 176.7 90.1106 176.084C90.1106 175.468 90.2226 174.936 90.4466 174.488C90.6786 174.032 91.0026 173.68 91.4186 173.432C91.8346 173.184 92.3266 173.06 92.8946 173.06C93.4626 173.06 93.9546 173.184 94.3706 173.432C94.7866 173.68 95.1066 174.032 95.3306 174.488C95.5626 174.936 95.6786 175.468 95.6786 176.084C95.6786 176.7 95.5626 177.236 95.3306 177.692C95.1066 178.14 94.7866 178.488 94.3706 178.736C93.9546 178.984 93.4626 179.108 92.8946 179.108ZM92.8946 178.328C93.4466 178.328 93.8826 178.136 94.2026 177.752C94.5306 177.36 94.6946 176.8 94.6946 176.072C94.6946 175.352 94.5306 174.8 94.2026 174.416C93.8826 174.032 93.4466 173.84 92.8946 173.84C92.3506 173.84 91.9146 174.032 91.5866 174.416C91.2586 174.8 91.0946 175.352 91.0946 176.072C91.0946 176.8 91.2586 177.36 91.5866 177.752C91.9146 178.136 92.3506 178.328 92.8946 178.328ZM99.7186 181.268C99.2146 181.268 98.7386 181.2 98.2906 181.064C97.8506 180.936 97.4586 180.74 97.1146 180.476L97.4386 179.768C97.6786 179.936 97.9146 180.072 98.1466 180.176C98.3866 180.288 98.6306 180.368 98.8786 180.416C99.1346 180.464 99.3986 180.488 99.6706 180.488C100.239 180.488 100.667 180.336 100.955 180.032C101.251 179.728 101.399 179.288 101.399 178.712V177.356H101.519C101.399 177.82 101.143 178.188 100.751 178.46C100.367 178.732 99.9146 178.868 99.3946 178.868C98.8586 178.868 98.3946 178.748 98.0026 178.508C97.6106 178.26 97.3066 177.916 97.0906 177.476C96.8826 177.036 96.7786 176.528 96.7786 175.952C96.7786 175.376 96.8826 174.872 97.0906 174.44C97.3066 174 97.6106 173.66 98.0026 173.42C98.3946 173.18 98.8586 173.06 99.3946 173.06C99.9226 173.06 100.379 173.196 100.763 173.468C101.147 173.732 101.395 174.092 101.507 174.548H101.399V173.168H102.347V178.58C102.347 179.172 102.247 179.668 102.047 180.068C101.855 180.468 101.563 180.768 101.171 180.968C100.779 181.168 100.295 181.268 99.7186 181.268ZM99.5746 178.076C100.135 178.076 100.579 177.884 100.907 177.5C101.235 177.116 101.399 176.6 101.399 175.952C101.399 175.304 101.235 174.792 100.907 174.416C100.579 174.032 100.135 173.84 99.5746 173.84C99.0226 173.84 98.5826 174.032 98.2546 174.416C97.9266 174.792 97.7626 175.304 97.7626 175.952C97.7626 176.6 97.9266 177.116 98.2546 177.5C98.5826 177.884 99.0226 178.076 99.5746 178.076ZM106.75 181.268C106.246 181.268 105.77 181.2 105.322 181.064C104.882 180.936 104.49 180.74 104.146 180.476L104.47 179.768C104.71 179.936 104.946 180.072 105.178 180.176C105.418 180.288 105.662 180.368 105.91 180.416C106.166 180.464 106.43 180.488 106.702 180.488C107.27 180.488 107.698 180.336 107.986 180.032C108.282 179.728 108.43 179.288 108.43 178.712V177.356H108.55C108.43 177.82 108.174 178.188 107.782 178.46C107.398 178.732 106.946 178.868 106.426 178.868C105.89 178.868 105.426 178.748 105.034 178.508C104.642 178.26 104.338 177.916 104.122 177.476C103.914 177.036 103.81 176.528 103.81 175.952C103.81 175.376 103.914 174.872 104.122 174.44C104.338 174 104.642 173.66 105.034 173.42C105.426 173.18 105.89 173.06 106.426 173.06C106.954 173.06 107.41 173.196 107.794 173.468C108.178 173.732 108.426 174.092 108.538 174.548H108.43V173.168H109.378V178.58C109.378 179.172 109.278 179.668 109.078 180.068C108.886 180.468 108.594 180.768 108.202 180.968C107.81 181.168 107.326 181.268 106.75 181.268ZM106.606 178.076C107.166 178.076 107.61 177.884 107.938 177.5C108.266 177.116 108.43 176.6 108.43 175.952C108.43 175.304 108.266 174.792 107.938 174.416C107.61 174.032 107.166 173.84 106.606 173.84C106.054 173.84 105.614 174.032 105.286 174.416C104.958 174.792 104.794 175.304 104.794 175.952C104.794 176.6 104.958 177.116 105.286 177.5C105.614 177.884 106.054 178.076 106.606 178.076ZM113.829 179.108C113.213 179.108 112.681 178.988 112.233 178.748C111.793 178.5 111.449 178.152 111.201 177.704C110.961 177.256 110.841 176.72 110.841 176.096C110.841 175.488 110.961 174.96 111.201 174.512C111.441 174.056 111.769 173.7 112.185 173.444C112.609 173.188 113.097 173.06 113.649 173.06C114.177 173.06 114.629 173.176 115.005 173.408C115.381 173.64 115.669 173.968 115.869 174.392C116.077 174.816 116.181 175.324 116.181 175.916V176.288H111.585V175.652H115.533L115.341 175.808C115.341 175.168 115.197 174.672 114.909 174.32C114.629 173.96 114.217 173.78 113.673 173.78C113.265 173.78 112.917 173.876 112.629 174.068C112.349 174.252 112.137 174.512 111.993 174.848C111.849 175.176 111.777 175.56 111.777 176V176.072C111.777 176.56 111.853 176.972 112.005 177.308C112.165 177.644 112.401 177.9 112.713 178.076C113.025 178.244 113.397 178.328 113.829 178.328C114.173 178.328 114.505 178.276 114.825 178.172C115.153 178.06 115.461 177.88 115.749 177.632L116.085 178.316C115.821 178.556 115.485 178.748 115.077 178.892C114.669 179.036 114.253 179.108 113.829 179.108ZM119.808 179.108C119.288 179.108 118.832 178.984 118.44 178.736C118.056 178.488 117.756 178.14 117.54 177.692C117.332 177.236 117.228 176.7 117.228 176.084C117.228 175.46 117.332 174.924 117.54 174.476C117.756 174.02 118.056 173.672 118.44 173.432C118.832 173.184 119.288 173.06 119.808 173.06C120.336 173.06 120.788 173.192 121.164 173.456C121.54 173.72 121.792 174.076 121.92 174.524H121.788V170.54H122.76V179H121.812V177.608H121.932C121.804 178.064 121.548 178.428 121.164 178.7C120.788 178.972 120.336 179.108 119.808 179.108ZM120.012 178.328C120.564 178.328 121 178.136 121.32 177.752C121.648 177.36 121.812 176.804 121.812 176.084C121.812 175.356 121.648 174.8 121.32 174.416C121 174.032 120.564 173.84 120.012 173.84C119.468 173.84 119.032 174.032 118.704 174.416C118.376 174.8 118.212 175.356 118.212 176.084C118.212 176.804 118.376 177.36 118.704 177.752C119.032 178.136 119.468 178.328 120.012 178.328ZM124.428 174.392V173.168H125.652V174.392H124.428ZM124.428 179V177.776H125.652V179H124.428Z" fill="#737682"/>
<path d="M249.652 179V170.54H250.6L255.748 177.332H255.448V170.54H256.6V179H255.676L250.528 172.208H250.804V179H249.652ZM260.982 179.108C260.39 179.108 259.878 178.984 259.446 178.736C259.022 178.488 258.69 178.136 258.45 177.68C258.21 177.224 258.09 176.688 258.09 176.072C258.09 175.448 258.21 174.912 258.45 174.464C258.69 174.008 259.022 173.656 259.446 173.408C259.878 173.16 260.39 173.036 260.982 173.036C261.566 173.036 262.07 173.16 262.494 173.408C262.926 173.656 263.262 174.008 263.502 174.464C263.742 174.92 263.862 175.456 263.862 176.072C263.862 176.688 263.742 177.224 263.502 177.68C263.262 178.136 262.926 178.488 262.494 178.736C262.07 178.984 261.566 179.108 260.982 179.108ZM260.97 178.172C261.474 178.172 261.878 177.992 262.182 177.632C262.486 177.272 262.638 176.752 262.638 176.072C262.638 175.384 262.486 174.864 262.182 174.512C261.878 174.16 261.474 173.984 260.97 173.984C260.474 173.984 260.074 174.16 259.77 174.512C259.466 174.864 259.314 175.384 259.314 176.072C259.314 176.752 259.466 177.272 259.77 177.632C260.074 177.992 260.474 178.172 260.97 178.172ZM265.223 179V173.144H266.399V174.392H266.267C266.443 173.944 266.719 173.608 267.095 173.384C267.471 173.152 267.903 173.036 268.391 173.036C268.855 173.036 269.239 173.124 269.543 173.3C269.855 173.468 270.087 173.728 270.239 174.08C270.391 174.424 270.467 174.86 270.467 175.388V179H269.255V175.46C269.255 175.124 269.211 174.852 269.123 174.644C269.035 174.428 268.903 174.268 268.727 174.164C268.551 174.06 268.323 174.008 268.043 174.008C267.723 174.008 267.439 174.076 267.191 174.212C266.951 174.348 266.763 174.544 266.627 174.8C266.499 175.056 266.435 175.352 266.435 175.688V179H265.223ZM274.885 179.108C274.245 179.108 273.693 178.988 273.229 178.748C272.773 178.5 272.417 178.152 272.161 177.704C271.913 177.248 271.789 176.708 271.789 176.084C271.789 175.476 271.913 174.944 272.161 174.488C272.409 174.032 272.749 173.676 273.181 173.42C273.613 173.164 274.105 173.036 274.657 173.036C275.201 173.036 275.665 173.156 276.049 173.396C276.441 173.628 276.741 173.96 276.949 174.392C277.157 174.824 277.261 175.34 277.261 175.94V176.348H272.749V175.604H276.445L276.241 175.772C276.241 175.172 276.109 174.708 275.845 174.38C275.581 174.052 275.201 173.888 274.705 173.888C274.329 173.888 274.009 173.976 273.745 174.152C273.489 174.328 273.293 174.572 273.157 174.884C273.021 175.196 272.953 175.56 272.953 175.976V176.048C272.953 176.512 273.025 176.904 273.169 177.224C273.321 177.536 273.541 177.772 273.829 177.932C274.117 178.092 274.473 178.172 274.897 178.172C275.233 178.172 275.561 178.12 275.881 178.016C276.209 177.904 276.517 177.732 276.805 177.5L277.165 178.34C276.901 178.58 276.561 178.768 276.145 178.904C275.729 179.04 275.309 179.108 274.885 179.108Z" fill="#444050"/>
<rect x="58.668" y="203" width="220" height="34" rx="8" fill="#FEF2D2"/>
<path fill-rule="evenodd" clip-rule="evenodd" d="M74.168 214.499C74.4441 214.499 74.668 214.723 74.668 214.999V225.499C74.668 225.775 74.4441 225.999 74.168 225.999C73.8919 225.999 73.668 225.775 73.668 225.499V214.999C73.668 214.723 73.8919 214.499 74.168 214.499Z" fill="#BD8125"/>
<path fill-rule="evenodd" clip-rule="evenodd" d="M82.3757 215.345C83.1596 215.426 83.971 215.272 84.868 214.599C85.0195 214.485 85.2222 214.467 85.3916 214.552C85.561 214.636 85.668 214.809 85.668 214.999V222.499C85.668 222.656 85.5939 222.804 85.468 222.899C84.365 223.726 83.3014 223.946 82.2728 223.84C81.2906 223.738 80.3563 223.338 79.505 222.973L79.471 222.958C78.5813 222.577 77.7775 222.237 76.9603 222.152C76.1764 222.071 75.365 222.226 74.468 222.899C74.2471 223.064 73.9337 223.02 73.768 222.799C73.6023 222.578 73.6471 222.264 73.868 222.099C74.971 221.272 76.0346 221.051 77.0632 221.158C78.0454 221.259 78.9797 221.66 79.831 222.025L79.865 222.039C80.7546 222.421 81.5585 222.761 82.3757 222.845C83.1009 222.92 83.8497 222.793 84.668 222.241V215.9C83.8483 216.314 83.0506 216.42 82.2728 216.34C81.2906 216.238 80.3563 215.838 79.505 215.473L79.471 215.458C78.5813 215.077 77.7775 214.737 76.9603 214.652C76.1764 214.571 75.365 214.726 74.468 215.399C74.2471 215.564 73.9337 215.52 73.768 215.299C73.6023 215.078 73.6471 214.764 73.868 214.599C74.971 213.772 76.0346 213.551 77.0632 213.658C78.0454 213.759 78.9797 214.16 79.831 214.525L79.865 214.539C80.7546 214.921 81.5585 215.261 82.3757 215.345Z" fill="#BD8125"/>
<path d="M92.8121 224V215.54H98.1881V216.548H94.0601V219.248H97.9361V220.256H94.0601V224H92.8121ZM101.233 224.108C100.593 224.108 100.113 223.928 99.7927 223.568C99.4807 223.2 99.3247 222.672 99.3247 221.984V215.54H100.537V221.912C100.537 222.168 100.573 222.388 100.645 222.572C100.717 222.748 100.825 222.88 100.969 222.968C101.113 223.056 101.293 223.1 101.509 223.1C101.605 223.1 101.697 223.096 101.785 223.088C101.873 223.08 101.957 223.064 102.037 223.04L102.013 224.012C101.877 224.044 101.745 224.068 101.617 224.084C101.489 224.1 101.361 224.108 101.233 224.108ZM104.865 224.108C104.457 224.108 104.089 224.028 103.761 223.868C103.441 223.708 103.189 223.492 103.005 223.22C102.821 222.948 102.729 222.64 102.729 222.296C102.729 221.864 102.837 221.524 103.053 221.276C103.277 221.02 103.641 220.84 104.145 220.736C104.657 220.624 105.345 220.568 106.209 220.568H106.773V221.312H106.221C105.789 221.312 105.425 221.328 105.129 221.36C104.833 221.392 104.597 221.444 104.421 221.516C104.245 221.58 104.117 221.672 104.037 221.792C103.965 221.912 103.929 222.056 103.929 222.224C103.929 222.528 104.033 222.776 104.241 222.968C104.449 223.152 104.737 223.244 105.105 223.244C105.401 223.244 105.661 223.176 105.885 223.04C106.109 222.896 106.285 222.704 106.413 222.464C106.549 222.224 106.617 221.948 106.617 221.636V220.256C106.617 219.8 106.521 219.472 106.329 219.272C106.137 219.072 105.821 218.972 105.381 218.972C105.045 218.972 104.709 219.024 104.373 219.128C104.037 219.224 103.693 219.38 103.341 219.596L102.969 218.744C103.177 218.6 103.417 218.476 103.689 218.372C103.961 218.268 104.245 218.188 104.541 218.132C104.845 218.068 105.137 218.036 105.417 218.036C105.953 218.036 106.393 218.12 106.737 218.288C107.089 218.456 107.349 218.712 107.517 219.056C107.685 219.4 107.769 219.844 107.769 220.388V224H106.629V222.692H106.737C106.673 222.988 106.553 223.244 106.377 223.46C106.209 223.668 105.997 223.828 105.741 223.94C105.485 224.052 105.193 224.108 104.865 224.108ZM112.09 226.268C111.562 226.268 111.07 226.204 110.614 226.076C110.158 225.948 109.754 225.756 109.402 225.5L109.774 224.636C110.006 224.788 110.242 224.916 110.482 225.02C110.73 225.132 110.978 225.212 111.226 225.26C111.482 225.308 111.742 225.332 112.006 225.332C112.566 225.332 112.986 225.188 113.266 224.9C113.546 224.62 113.686 224.204 113.686 223.652V222.428H113.794C113.674 222.868 113.422 223.216 113.038 223.472C112.654 223.728 112.21 223.856 111.706 223.856C111.178 223.856 110.718 223.736 110.326 223.496C109.934 223.248 109.63 222.908 109.414 222.476C109.198 222.036 109.09 221.524 109.09 220.94C109.09 220.356 109.198 219.848 109.414 219.416C109.63 218.984 109.934 218.648 110.326 218.408C110.718 218.16 111.178 218.036 111.706 218.036C112.218 218.036 112.662 218.164 113.038 218.42C113.422 218.676 113.67 219.024 113.782 219.464H113.686V218.144H114.862V223.508C114.862 224.116 114.758 224.624 114.55 225.032C114.342 225.448 114.03 225.756 113.614 225.956C113.206 226.164 112.698 226.268 112.09 226.268ZM111.994 222.908C112.514 222.908 112.922 222.732 113.218 222.38C113.522 222.028 113.674 221.548 113.674 220.94C113.674 220.34 113.522 219.864 113.218 219.512C112.922 219.16 112.514 218.984 111.994 218.984C111.482 218.984 111.074 219.16 110.77 219.512C110.466 219.864 110.314 220.34 110.314 220.94C110.314 221.548 110.466 222.028 110.77 222.38C111.074 222.732 111.482 222.908 111.994 222.908ZM119.215 226.268C118.687 226.268 118.195 226.204 117.739 226.076C117.283 225.948 116.879 225.756 116.527 225.5L116.899 224.636C117.131 224.788 117.367 224.916 117.607 225.02C117.855 225.132 118.103 225.212 118.351 225.26C118.607 225.308 118.867 225.332 119.131 225.332C119.691 225.332 120.111 225.188 120.391 224.9C120.671 224.62 120.811 224.204 120.811 223.652V222.428H120.919C120.799 222.868 120.547 223.216 120.163 223.472C119.779 223.728 119.335 223.856 118.831 223.856C118.303 223.856 117.843 223.736 117.451 223.496C117.059 223.248 116.755 222.908 116.539 222.476C116.323 222.036 116.215 221.524 116.215 220.94C116.215 220.356 116.323 219.848 116.539 219.416C116.755 218.984 117.059 218.648 117.451 218.408C117.843 218.16 118.303 218.036 118.831 218.036C119.343 218.036 119.787 218.164 120.163 218.42C120.547 218.676 120.795 219.024 120.907 219.464H120.811V218.144H121.987V223.508C121.987 224.116 121.883 224.624 121.675 225.032C121.467 225.448 121.155 225.756 120.739 225.956C120.331 226.164 119.823 226.268 119.215 226.268ZM119.119 222.908C119.639 222.908 120.047 222.732 120.343 222.38C120.647 222.028 120.799 221.548 120.799 220.94C120.799 220.34 120.647 219.864 120.343 219.512C120.047 219.16 119.639 218.984 119.119 218.984C118.607 218.984 118.199 219.16 117.895 219.512C117.591 219.864 117.439 220.34 117.439 220.94C117.439 221.548 117.591 222.028 117.895 222.38C118.199 222.732 118.607 222.908 119.119 222.908ZM126.436 224.108C125.796 224.108 125.244 223.988 124.78 223.748C124.324 223.5 123.968 223.152 123.712 222.704C123.464 222.248 123.34 221.708 123.34 221.084C123.34 220.476 123.464 219.944 123.712 219.488C123.96 219.032 124.3 218.676 124.732 218.42C125.164 218.164 125.656 218.036 126.208 218.036C126.752 218.036 127.216 218.156 127.6 218.396C127.992 218.628 128.292 218.96 128.5 219.392C128.708 219.824 128.812 220.34 128.812 220.94V221.348H124.3V220.604H127.996L127.792 220.772C127.792 220.172 127.66 219.708 127.396 219.38C127.132 219.052 126.752 218.888 126.256 218.888C125.88 218.888 125.56 218.976 125.296 219.152C125.04 219.328 124.844 219.572 124.708 219.884C124.572 220.196 124.504 220.56 124.504 220.976V221.048C124.504 221.512 124.576 221.904 124.72 222.224C124.872 222.536 125.092 222.772 125.38 222.932C125.668 223.092 126.024 223.172 126.448 223.172C126.784 223.172 127.112 223.12 127.432 223.016C127.76 222.904 128.068 222.732 128.356 222.5L128.716 223.34C128.452 223.58 128.112 223.768 127.696 223.904C127.28 224.04 126.86 224.108 126.436 224.108ZM132.365 224.108C131.853 224.108 131.401 223.988 131.009 223.748C130.625 223.5 130.325 223.148 130.109 222.692C129.893 222.228 129.785 221.688 129.785 221.072C129.785 220.44 129.893 219.9 130.109 219.452C130.325 219.004 130.625 218.656 131.009 218.408C131.401 218.16 131.853 218.036 132.365 218.036C132.877 218.036 133.317 218.164 133.685 218.42C134.061 218.668 134.313 219.004 134.441 219.428H134.309V215.54H135.521V224H134.333V222.68H134.453C134.325 223.112 134.073 223.46 133.697 223.724C133.329 223.98 132.885 224.108 132.365 224.108ZM132.677 223.172C133.173 223.172 133.573 222.992 133.877 222.632C134.181 222.272 134.333 221.752 134.333 221.072C134.333 220.384 134.181 219.864 133.877 219.512C133.573 219.16 133.173 218.984 132.677 218.984C132.173 218.984 131.769 219.16 131.465 219.512C131.161 219.864 131.009 220.384 131.009 221.072C131.009 221.752 131.161 222.272 131.465 222.632C131.769 222.992 132.173 223.172 132.677 223.172ZM140.363 221.288V220.304H143.819V221.288H140.363ZM150.904 224.108C150.392 224.108 149.94 223.988 149.548 223.748C149.164 223.5 148.864 223.148 148.648 222.692C148.432 222.228 148.324 221.688 148.324 221.072C148.324 220.44 148.432 219.9 148.648 219.452C148.864 219.004 149.164 218.656 149.548 218.408C149.94 218.16 150.392 218.036 150.904 218.036C151.416 218.036 151.856 218.164 152.224 218.42C152.6 218.668 152.852 219.004 152.98 219.428H152.848V215.54H154.06V224H152.872V222.68H152.992C152.864 223.112 152.612 223.46 152.236 223.724C151.868 223.98 151.424 224.108 150.904 224.108ZM151.216 223.172C151.712 223.172 152.112 222.992 152.416 222.632C152.72 222.272 152.872 221.752 152.872 221.072C152.872 220.384 152.72 219.864 152.416 219.512C152.112 219.16 151.712 218.984 151.216 218.984C150.712 218.984 150.308 219.16 150.004 219.512C149.7 219.864 149.548 220.384 149.548 221.072C149.548 221.752 149.7 222.272 150.004 222.632C150.308 222.992 150.712 223.172 151.216 223.172ZM155.654 216.788V215.528H157.07V216.788H155.654ZM155.762 224V218.144H156.974V224H155.762ZM160.732 224.108C160.42 224.108 160.116 224.08 159.82 224.024C159.524 223.968 159.252 223.888 159.004 223.784C158.756 223.68 158.536 223.552 158.344 223.4L158.692 222.584C158.892 222.72 159.104 222.84 159.328 222.944C159.552 223.04 159.784 223.112 160.024 223.16C160.272 223.208 160.512 223.232 160.744 223.232C161.168 223.232 161.488 223.156 161.704 223.004C161.92 222.852 162.028 222.648 162.028 222.392C162.028 222.184 161.956 222.024 161.812 221.912C161.668 221.792 161.452 221.7 161.164 221.636L160.024 221.408C159.528 221.304 159.152 221.12 158.896 220.856C158.64 220.592 158.512 220.256 158.512 219.848C158.512 219.48 158.612 219.16 158.812 218.888C159.012 218.616 159.292 218.408 159.652 218.264C160.012 218.112 160.428 218.036 160.9 218.036C161.172 218.036 161.436 218.064 161.692 218.12C161.948 218.176 162.188 218.256 162.412 218.36C162.644 218.464 162.84 218.596 163 218.756L162.652 219.572C162.5 219.436 162.324 219.32 162.124 219.224C161.932 219.128 161.732 219.056 161.524 219.008C161.316 218.952 161.108 218.924 160.9 218.924C160.476 218.924 160.156 219.004 159.94 219.164C159.732 219.316 159.628 219.524 159.628 219.788C159.628 219.988 159.692 220.152 159.82 220.28C159.948 220.408 160.148 220.5 160.42 220.556L161.56 220.784C162.08 220.888 162.472 221.064 162.736 221.312C163.008 221.56 163.144 221.896 163.144 222.32C163.144 222.688 163.044 223.008 162.844 223.28C162.644 223.552 162.36 223.76 161.992 223.904C161.632 224.04 161.212 224.108 160.732 224.108ZM164.493 226.16V218.144H165.681V219.464H165.549C165.677 219.032 165.929 218.688 166.305 218.432C166.681 218.168 167.125 218.036 167.637 218.036C168.157 218.036 168.609 218.16 168.993 218.408C169.385 218.656 169.685 219.004 169.893 219.452C170.109 219.9 170.217 220.44 170.217 221.072C170.217 221.688 170.109 222.228 169.893 222.692C169.685 223.148 169.389 223.5 169.005 223.748C168.621 223.988 168.165 224.108 167.637 224.108C167.133 224.108 166.693 223.98 166.317 223.724C165.941 223.468 165.689 223.128 165.561 222.704H165.705V226.16H164.493ZM167.337 223.172C167.841 223.172 168.241 222.992 168.537 222.632C168.841 222.272 168.993 221.752 168.993 221.072C168.993 220.384 168.841 219.864 168.537 219.512C168.241 219.16 167.841 218.984 167.337 218.984C166.841 218.984 166.441 219.16 166.137 219.512C165.833 219.864 165.681 220.384 165.681 221.072C165.681 221.752 165.833 222.272 166.137 222.632C166.441 222.992 166.841 223.172 167.337 223.172ZM173.67 224.108C173.198 224.108 172.802 224.02 172.482 223.844C172.17 223.668 171.934 223.408 171.774 223.064C171.622 222.712 171.546 222.272 171.546 221.744V218.144H172.758V221.756C172.758 222.068 172.798 222.328 172.878 222.536C172.966 222.744 173.098 222.896 173.274 222.992C173.458 223.088 173.686 223.136 173.958 223.136C174.262 223.136 174.53 223.068 174.762 222.932C174.994 222.796 175.174 222.6 175.302 222.344C175.43 222.088 175.494 221.792 175.494 221.456V218.144H176.706V224H175.53V222.716H175.686C175.526 223.164 175.27 223.508 174.918 223.748C174.566 223.988 174.15 224.108 173.67 224.108ZM180.911 224.108C180.183 224.108 179.635 223.92 179.267 223.544C178.907 223.168 178.727 222.624 178.727 221.912V219.08H177.587V218.144H178.727V216.38H179.939V218.144H181.751V219.08H179.939V221.816C179.939 222.24 180.027 222.56 180.203 222.776C180.387 222.992 180.683 223.1 181.09 223.1C181.211 223.1 181.331 223.084 181.451 223.052C181.579 223.02 181.703 222.988 181.823 222.956L182.015 223.868C181.895 223.94 181.727 223.996 181.511 224.036C181.303 224.084 181.103 224.108 180.911 224.108ZM185.487 224.108C184.847 224.108 184.295 223.988 183.831 223.748C183.375 223.5 183.019 223.152 182.763 222.704C182.515 222.248 182.391 221.708 182.391 221.084C182.391 220.476 182.515 219.944 182.763 219.488C183.011 219.032 183.351 218.676 183.783 218.42C184.215 218.164 184.707 218.036 185.259 218.036C185.803 218.036 186.267 218.156 186.651 218.396C187.043 218.628 187.343 218.96 187.551 219.392C187.759 219.824 187.863 220.34 187.863 220.94V221.348H183.351V220.604H187.047L186.843 220.772C186.843 220.172 186.711 219.708 186.447 219.38C186.183 219.052 185.803 218.888 185.307 218.888C184.931 218.888 184.611 218.976 184.347 219.152C184.091 219.328 183.895 219.572 183.759 219.884C183.623 220.196 183.555 220.56 183.555 220.976V221.048C183.555 221.512 183.627 221.904 183.771 222.224C183.923 222.536 184.143 222.772 184.431 222.932C184.719 223.092 185.075 223.172 185.499 223.172C185.835 223.172 186.163 223.12 186.483 223.016C186.811 222.904 187.119 222.732 187.407 222.5L187.767 223.34C187.503 223.58 187.163 223.768 186.747 223.904C186.331 224.04 185.911 224.108 185.487 224.108ZM191.416 224.108C190.904 224.108 190.452 223.988 190.06 223.748C189.676 223.5 189.376 223.148 189.16 222.692C188.944 222.228 188.836 221.688 188.836 221.072C188.836 220.44 188.944 219.9 189.16 219.452C189.376 219.004 189.676 218.656 190.06 218.408C190.452 218.16 190.904 218.036 191.416 218.036C191.928 218.036 192.368 218.164 192.736 218.42C193.112 218.668 193.364 219.004 193.492 219.428H193.36V215.54H194.572V224H193.384V222.68H193.504C193.376 223.112 193.124 223.46 192.748 223.724C192.38 223.98 191.936 224.108 191.416 224.108ZM191.728 223.172C192.224 223.172 192.624 222.992 192.928 222.632C193.232 222.272 193.384 221.752 193.384 221.072C193.384 220.384 193.232 219.864 192.928 219.512C192.624 219.16 192.224 218.984 191.728 218.984C191.224 218.984 190.82 219.16 190.516 219.512C190.212 219.864 190.06 220.384 190.06 221.072C190.06 221.752 190.212 222.272 190.516 222.632C190.82 222.992 191.224 223.172 191.728 223.172ZM201.01 224L198.778 218.144H200.026L201.742 222.98H201.454L203.218 218.144H204.154L205.882 222.98H205.618L207.346 218.144H208.534L206.302 224H205.198L203.35 219.008H203.95L202.114 224H201.01ZM209.467 216.788V215.528H210.883V216.788H209.467ZM209.575 224V218.144H210.787V224H209.575ZM214.989 224.108C214.261 224.108 213.713 223.92 213.345 223.544C212.985 223.168 212.805 222.624 212.805 221.912V219.08H211.665V218.144H212.805V216.38H214.017V218.144H215.829V219.08H214.017V221.816C214.017 222.24 214.105 222.56 214.281 222.776C214.465 222.992 214.761 223.1 215.169 223.1C215.289 223.1 215.409 223.084 215.529 223.052C215.657 223.02 215.781 222.988 215.901 222.956L216.093 223.868C215.973 223.94 215.805 223.996 215.589 224.036C215.381 224.084 215.181 224.108 214.989 224.108ZM216.875 224V215.54H218.087V219.392H217.919C218.095 218.944 218.371 218.608 218.747 218.384C219.123 218.152 219.555 218.036 220.043 218.036C220.507 218.036 220.891 218.124 221.195 218.3C221.507 218.468 221.739 218.728 221.891 219.08C222.043 219.424 222.119 219.86 222.119 220.388V224H220.907V220.46C220.907 220.124 220.863 219.852 220.775 219.644C220.687 219.428 220.555 219.268 220.379 219.164C220.203 219.06 219.975 219.008 219.695 219.008C219.375 219.008 219.091 219.076 218.843 219.212C218.603 219.348 218.415 219.544 218.279 219.8C218.151 220.056 218.087 220.352 218.087 220.688V224H216.875ZM229.522 224.108C228.922 224.108 228.402 223.984 227.962 223.736C227.53 223.48 227.194 223.124 226.954 222.668C226.714 222.204 226.594 221.66 226.594 221.036C226.594 220.42 226.714 219.888 226.954 219.44C227.194 218.992 227.53 218.648 227.962 218.408C228.402 218.16 228.922 218.036 229.522 218.036C229.89 218.036 230.254 218.1 230.614 218.228C230.974 218.348 231.27 218.524 231.502 218.756L231.118 219.608C230.902 219.4 230.658 219.248 230.386 219.152C230.114 219.048 229.858 218.996 229.618 218.996C229.05 218.996 228.61 219.176 228.298 219.536C227.994 219.888 227.842 220.392 227.842 221.048C227.842 221.704 227.994 222.22 228.298 222.596C228.61 222.964 229.05 223.148 229.618 223.148C229.858 223.148 230.114 223.1 230.386 223.004C230.658 222.9 230.902 222.744 231.118 222.536L231.502 223.4C231.27 223.616 230.97 223.788 230.602 223.916C230.242 224.044 229.882 224.108 229.522 224.108ZM234.97 224.108C234.378 224.108 233.866 223.984 233.434 223.736C233.01 223.488 232.678 223.136 232.438 222.68C232.198 222.224 232.078 221.688 232.078 221.072C232.078 220.448 232.198 219.912 232.438 219.464C232.678 219.008 233.01 218.656 233.434 218.408C233.866 218.16 234.378 218.036 234.97 218.036C235.554 218.036 236.058 218.16 236.482 218.408C236.914 218.656 237.25 219.008 237.49 219.464C237.73 219.92 237.85 220.456 237.85 221.072C237.85 221.688 237.73 222.224 237.49 222.68C237.25 223.136 236.914 223.488 236.482 223.736C236.058 223.984 235.554 224.108 234.97 224.108ZM234.958 223.172C235.462 223.172 235.866 222.992 236.17 222.632C236.474 222.272 236.626 221.752 236.626 221.072C236.626 220.384 236.474 219.864 236.17 219.512C235.866 219.16 235.462 218.984 234.958 218.984C234.462 218.984 234.062 219.16 233.758 219.512C233.454 219.864 233.302 220.384 233.302 221.072C233.302 221.752 233.454 222.272 233.758 222.632C234.062 222.992 234.462 223.172 234.958 223.172ZM241.299 224.108C240.827 224.108 240.431 224.02 240.111 223.844C239.799 223.668 239.563 223.408 239.403 223.064C239.251 222.712 239.175 222.272 239.175 221.744V218.144H240.387V221.756C240.387 222.068 240.427 222.328 240.507 222.536C240.595 222.744 240.727 222.896 240.903 222.992C241.087 223.088 241.315 223.136 241.587 223.136C241.891 223.136 242.159 223.068 242.391 222.932C242.623 222.796 242.803 222.6 242.931 222.344C243.059 222.088 243.123 221.792 243.123 221.456V218.144H244.335V224H243.159V222.716H243.315C243.155 223.164 242.899 223.508 242.547 223.748C242.195 223.988 241.779 224.108 241.299 224.108ZM246.043 224V218.144H247.219V219.548H247.099C247.227 219.068 247.455 218.704 247.783 218.456C248.119 218.208 248.563 218.064 249.115 218.024L249.511 218L249.595 219.032L248.863 219.104C248.343 219.152 247.947 219.316 247.675 219.596C247.403 219.876 247.267 220.26 247.267 220.748V224H246.043ZM250.412 216.788V215.528H251.828V216.788H250.412ZM250.52 224V218.144H251.732V224H250.52ZM256.186 224.108C255.546 224.108 254.994 223.988 254.53 223.748C254.074 223.5 253.718 223.152 253.462 222.704C253.214 222.248 253.09 221.708 253.09 221.084C253.09 220.476 253.214 219.944 253.462 219.488C253.71 219.032 254.05 218.676 254.482 218.42C254.914 218.164 255.406 218.036 255.958 218.036C256.502 218.036 256.966 218.156 257.35 218.396C257.742 218.628 258.042 218.96 258.25 219.392C258.458 219.824 258.562 220.34 258.562 220.94V221.348H254.05V220.604H257.746L257.542 220.772C257.542 220.172 257.41 219.708 257.146 219.38C256.882 219.052 256.502 218.888 256.006 218.888C255.63 218.888 255.31 218.976 255.046 219.152C254.79 219.328 254.594 219.572 254.458 219.884C254.322 220.196 254.254 220.56 254.254 220.976V221.048C254.254 221.512 254.326 221.904 254.47 222.224C254.622 222.536 254.842 222.772 255.13 222.932C255.418 223.092 255.774 223.172 256.198 223.172C256.534 223.172 256.862 223.12 257.182 223.016C257.51 222.904 257.818 222.732 258.106 222.5L258.466 223.34C258.202 223.58 257.862 223.768 257.446 223.904C257.03 224.04 256.61 224.108 256.186 224.108ZM259.883 224V218.144H261.059V219.548H260.939C261.067 219.068 261.295 218.704 261.623 218.456C261.959 218.208 262.403 218.064 262.955 218.024L263.351 218L263.435 219.032L262.703 219.104C262.183 219.152 261.787 219.316 261.515 219.596C261.243 219.876 261.107 220.26 261.107 220.748V224H259.883Z" fill="#BD8125"/>
</svg>
