<svg width="338" height="280" viewBox="0 0 338 280" fill="none" xmlns="http://www.w3.org/2000/svg">
<rect x="0.5" y="0.5" width="336.333" height="279" rx="11.5" fill="#F5F5F6"/>
<rect x="0.5" y="0.5" width="336.333" height="279" rx="11.5" stroke="#EAEAEC"/>
<rect x="40.668" y="21" width="256" height="238" rx="12" fill="white"/>
<path d="M62.504 51L59.046 41.13H60.53L63.428 49.656H62.91L65.892 41.13H66.998L69.924 49.656H69.462L72.388 41.13H73.802L70.316 51H69.098L66.27 42.894H66.578L63.722 51H62.504ZM75.1659 51V41.13H76.5799V45.624H76.3839C76.5892 45.1013 76.9112 44.7093 77.3499 44.448C77.7885 44.1773 78.2925 44.042 78.8619 44.042C79.4032 44.042 79.8512 44.1447 80.2059 44.35C80.5699 44.546 80.8405 44.8493 81.0179 45.26C81.1952 45.6613 81.2839 46.17 81.2839 46.786V51H79.8699V46.87C79.8699 46.478 79.8185 46.1607 79.7159 45.918C79.6132 45.666 79.4592 45.4793 79.2539 45.358C79.0485 45.2367 78.7825 45.176 78.4559 45.176C78.0825 45.176 77.7512 45.2553 77.4619 45.414C77.1819 45.5727 76.9625 45.8013 76.8039 46.1C76.6545 46.3987 76.5799 46.744 76.5799 47.136V51H75.1659ZM86.4383 51.126C85.6916 51.126 85.0476 50.986 84.5063 50.706C83.9743 50.4167 83.5589 50.0107 83.2603 49.488C82.9709 48.956 82.8263 48.326 82.8263 47.598C82.8263 46.8887 82.9709 46.268 83.2603 45.736C83.5496 45.204 83.9463 44.7887 84.4503 44.49C84.9543 44.1913 85.5283 44.042 86.1723 44.042C86.8069 44.042 87.3483 44.182 87.7963 44.462C88.2536 44.7327 88.6036 45.12 88.8463 45.624C89.0889 46.128 89.2103 46.73 89.2103 47.43V47.906H83.9463V47.038H88.2583L88.0203 47.234C88.0203 46.534 87.8663 45.9927 87.5583 45.61C87.2503 45.2273 86.8069 45.036 86.2283 45.036C85.7896 45.036 85.4163 45.1387 85.1083 45.344C84.8096 45.5493 84.5809 45.834 84.4223 46.198C84.2636 46.562 84.1843 46.9867 84.1843 47.472V47.556C84.1843 48.0973 84.2683 48.5547 84.4363 48.928C84.6136 49.292 84.8703 49.5673 85.2063 49.754C85.5423 49.9407 85.9576 50.034 86.4523 50.034C86.8443 50.034 87.2269 49.9733 87.6003 49.852C87.9829 49.7213 88.3423 49.5207 88.6783 49.25L89.0983 50.23C88.7903 50.51 88.3936 50.7293 87.9083 50.888C87.4229 51.0467 86.9329 51.126 86.4383 51.126ZM90.7518 51V44.168H92.1238V45.624H91.9698C92.1751 45.1013 92.4971 44.7093 92.9358 44.448C93.3745 44.1773 93.8785 44.042 94.4478 44.042C94.9891 44.042 95.4371 44.1447 95.7918 44.35C96.1558 44.546 96.4265 44.8493 96.6038 45.26C96.7811 45.6613 96.8698 46.17 96.8698 46.786V51H95.4558V46.87C95.4558 46.478 95.4045 46.1607 95.3018 45.918C95.1991 45.666 95.0451 45.4793 94.8398 45.358C94.6345 45.2367 94.3685 45.176 94.0418 45.176C93.6685 45.176 93.3371 45.2553 93.0478 45.414C92.7678 45.5727 92.5485 45.8013 92.3898 46.1C92.2405 46.3987 92.1658 46.744 92.1658 47.136V51H90.7518ZM104.89 51.126C104.526 51.126 104.171 51.0933 103.826 51.028C103.481 50.9627 103.163 50.8693 102.874 50.748C102.585 50.6267 102.328 50.4773 102.104 50.3L102.51 49.348C102.743 49.5067 102.991 49.6467 103.252 49.768C103.513 49.88 103.784 49.964 104.064 50.02C104.353 50.076 104.633 50.104 104.904 50.104C105.399 50.104 105.772 50.0153 106.024 49.838C106.276 49.6607 106.402 49.4227 106.402 49.124C106.402 48.8813 106.318 48.6947 106.15 48.564C105.982 48.424 105.73 48.3167 105.394 48.242L104.064 47.976C103.485 47.8547 103.047 47.64 102.748 47.332C102.449 47.024 102.3 46.632 102.3 46.156C102.3 45.7267 102.417 45.3533 102.65 45.036C102.883 44.7187 103.21 44.476 103.63 44.308C104.05 44.1307 104.535 44.042 105.086 44.042C105.403 44.042 105.711 44.0747 106.01 44.14C106.309 44.2053 106.589 44.2987 106.85 44.42C107.121 44.5413 107.349 44.6953 107.536 44.882L107.13 45.834C106.953 45.6753 106.747 45.54 106.514 45.428C106.29 45.316 106.057 45.232 105.814 45.176C105.571 45.1107 105.329 45.078 105.086 45.078C104.591 45.078 104.218 45.1713 103.966 45.358C103.723 45.5353 103.602 45.778 103.602 46.086C103.602 46.3193 103.677 46.5107 103.826 46.66C103.975 46.8093 104.209 46.9167 104.526 46.982L105.856 47.248C106.463 47.3693 106.92 47.5747 107.228 47.864C107.545 48.1533 107.704 48.5453 107.704 49.04C107.704 49.4693 107.587 49.8427 107.354 50.16C107.121 50.4773 106.789 50.72 106.36 50.888C105.94 51.0467 105.45 51.126 104.89 51.126ZM109.277 51V41.13H110.691V45.624H110.495C110.701 45.1013 111.023 44.7093 111.461 44.448C111.9 44.1773 112.404 44.042 112.973 44.042C113.515 44.042 113.963 44.1447 114.317 44.35C114.681 44.546 114.952 44.8493 115.129 45.26C115.307 45.6613 115.395 46.17 115.395 46.786V51H113.981V46.87C113.981 46.478 113.93 46.1607 113.827 45.918C113.725 45.666 113.571 45.4793 113.365 45.358C113.16 45.2367 112.894 45.176 112.567 45.176C112.194 45.176 111.863 45.2553 111.573 45.414C111.293 45.5727 111.074 45.8013 110.915 46.1C110.766 46.3987 110.691 46.744 110.691 47.136V51H109.277ZM120.312 51.126C119.621 51.126 119.024 50.9813 118.52 50.692C118.025 50.4027 117.638 49.992 117.358 49.46C117.078 48.928 116.938 48.3027 116.938 47.584C116.938 46.856 117.078 46.2307 117.358 45.708C117.638 45.176 118.025 44.7653 118.52 44.476C119.024 44.1867 119.621 44.042 120.312 44.042C120.993 44.042 121.581 44.1867 122.076 44.476C122.58 44.7653 122.972 45.176 123.252 45.708C123.532 46.24 123.672 46.8653 123.672 47.584C123.672 48.3027 123.532 48.928 123.252 49.46C122.972 49.992 122.58 50.4027 122.076 50.692C121.581 50.9813 120.993 51.126 120.312 51.126ZM120.298 50.034C120.886 50.034 121.357 49.824 121.712 49.404C122.066 48.984 122.244 48.3773 122.244 47.584C122.244 46.7813 122.066 46.1747 121.712 45.764C121.357 45.3533 120.886 45.148 120.298 45.148C119.719 45.148 119.252 45.3533 118.898 45.764C118.543 46.1747 118.366 46.7813 118.366 47.584C118.366 48.3773 118.543 48.984 118.898 49.404C119.252 49.824 119.719 50.034 120.298 50.034ZM127.696 51.126C127.145 51.126 126.683 51.0233 126.31 50.818C125.946 50.6127 125.67 50.3093 125.484 49.908C125.306 49.4973 125.218 48.984 125.218 48.368V44.168H126.632V48.382C126.632 48.746 126.678 49.0493 126.772 49.292C126.874 49.5347 127.028 49.712 127.234 49.824C127.448 49.936 127.714 49.992 128.032 49.992C128.386 49.992 128.699 49.9127 128.97 49.754C129.24 49.5953 129.45 49.3667 129.6 49.068C129.749 48.7693 129.824 48.424 129.824 48.032V44.168H131.238V51H129.866V49.502H130.048C129.861 50.0247 129.562 50.426 129.152 50.706C128.741 50.986 128.256 51.126 127.696 51.126ZM135.456 51.126C134.71 51.126 134.15 50.916 133.776 50.496C133.412 50.0667 133.23 49.4507 133.23 48.648V41.13H134.644V48.564C134.644 48.8627 134.686 49.1193 134.77 49.334C134.854 49.5393 134.98 49.6933 135.148 49.796C135.316 49.8987 135.526 49.95 135.778 49.95C135.89 49.95 135.998 49.9453 136.1 49.936C136.203 49.9267 136.301 49.908 136.394 49.88L136.366 51.014C136.208 51.0513 136.054 51.0793 135.904 51.098C135.755 51.1167 135.606 51.126 135.456 51.126ZM140.045 51.126C139.448 51.126 138.921 50.986 138.463 50.706C138.015 50.4167 137.665 50.006 137.413 49.474C137.161 48.9327 137.035 48.3027 137.035 47.584C137.035 46.8467 137.161 46.2167 137.413 45.694C137.665 45.1713 138.015 44.7653 138.463 44.476C138.921 44.1867 139.448 44.042 140.045 44.042C140.643 44.042 141.156 44.1913 141.585 44.49C142.024 44.7793 142.318 45.1713 142.467 45.666H142.313V41.13H143.727V51H142.341V49.46H142.481C142.332 49.964 142.038 50.37 141.599 50.678C141.17 50.9767 140.652 51.126 140.045 51.126ZM140.409 50.034C140.988 50.034 141.455 49.824 141.809 49.404C142.164 48.984 142.341 48.3773 142.341 47.584C142.341 46.7813 142.164 46.1747 141.809 45.764C141.455 45.3533 140.988 45.148 140.409 45.148C139.821 45.148 139.35 45.3533 138.995 45.764C138.641 46.1747 138.463 46.7813 138.463 47.584C138.463 48.3773 138.641 48.984 138.995 49.404C139.35 49.824 139.821 50.034 140.409 50.034ZM151.238 51L148.634 44.168H150.09L152.092 49.81H151.756L153.814 44.168H154.906L156.922 49.81H156.614L158.63 44.168H160.016L157.412 51H156.124L153.968 45.176H154.668L152.526 51H151.238ZM164.313 51.126C163.567 51.126 162.923 50.986 162.381 50.706C161.849 50.4167 161.434 50.0107 161.135 49.488C160.846 48.956 160.701 48.326 160.701 47.598C160.701 46.8887 160.846 46.268 161.135 45.736C161.425 45.204 161.821 44.7887 162.325 44.49C162.829 44.1913 163.403 44.042 164.047 44.042C164.682 44.042 165.223 44.182 165.671 44.462C166.129 44.7327 166.479 45.12 166.721 45.624C166.964 46.128 167.085 46.73 167.085 47.43V47.906H161.821V47.038H166.133L165.895 47.234C165.895 46.534 165.741 45.9927 165.433 45.61C165.125 45.2273 164.682 45.036 164.103 45.036C163.665 45.036 163.291 45.1387 162.983 45.344C162.685 45.5493 162.456 45.834 162.297 46.198C162.139 46.562 162.059 46.9867 162.059 47.472V47.556C162.059 48.0973 162.143 48.5547 162.311 48.928C162.489 49.292 162.745 49.5673 163.081 49.754C163.417 49.9407 163.833 50.034 164.327 50.034C164.719 50.034 165.102 49.9733 165.475 49.852C165.858 49.7213 166.217 49.5207 166.553 49.25L166.973 50.23C166.665 50.51 166.269 50.7293 165.783 50.888C165.298 51.0467 164.808 51.126 164.313 51.126ZM174.909 51.126C174.311 51.126 173.784 50.986 173.327 50.706C172.879 50.4167 172.529 50.006 172.277 49.474C172.025 48.9327 171.899 48.3027 171.899 47.584C171.899 46.8467 172.025 46.2167 172.277 45.694C172.529 45.1713 172.879 44.7653 173.327 44.476C173.784 44.1867 174.311 44.042 174.909 44.042C175.506 44.042 176.019 44.1913 176.449 44.49C176.887 44.7793 177.181 45.1713 177.331 45.666H177.177V41.13H178.591V51H177.205V49.46H177.345C177.195 49.964 176.901 50.37 176.463 50.678C176.033 50.9767 175.515 51.126 174.909 51.126ZM175.273 50.034C175.851 50.034 176.318 49.824 176.673 49.404C177.027 48.984 177.205 48.3773 177.205 47.584C177.205 46.7813 177.027 46.1747 176.673 45.764C176.318 45.3533 175.851 45.148 175.273 45.148C174.685 45.148 174.213 45.3533 173.859 45.764C173.504 46.1747 173.327 46.7813 173.327 47.584C173.327 48.3773 173.504 48.984 173.859 49.404C174.213 49.824 174.685 50.034 175.273 50.034ZM183.782 51.126C183.035 51.126 182.391 50.986 181.85 50.706C181.318 50.4167 180.903 50.0107 180.604 49.488C180.315 48.956 180.17 48.326 180.17 47.598C180.17 46.8887 180.315 46.268 180.604 45.736C180.893 45.204 181.29 44.7887 181.794 44.49C182.298 44.1913 182.872 44.042 183.516 44.042C184.151 44.042 184.692 44.182 185.14 44.462C185.597 44.7327 185.947 45.12 186.19 45.624C186.433 46.128 186.554 46.73 186.554 47.43V47.906H181.29V47.038H185.602L185.364 47.234C185.364 46.534 185.21 45.9927 184.902 45.61C184.594 45.2273 184.151 45.036 183.572 45.036C183.133 45.036 182.76 45.1387 182.452 45.344C182.153 45.5493 181.925 45.834 181.766 46.198C181.607 46.562 181.528 46.9867 181.528 47.472V47.556C181.528 48.0973 181.612 48.5547 181.78 48.928C181.957 49.292 182.214 49.5673 182.55 49.754C182.886 49.9407 183.301 50.034 183.796 50.034C184.188 50.034 184.571 49.9733 184.944 49.852C185.327 49.7213 185.686 49.5207 186.022 49.25L186.442 50.23C186.134 50.51 185.737 50.7293 185.252 50.888C184.767 51.0467 184.277 51.126 183.782 51.126ZM190.322 51.126C189.575 51.126 189.015 50.916 188.642 50.496C188.278 50.0667 188.096 49.4507 188.096 48.648V41.13H189.51V48.564C189.51 48.8627 189.552 49.1193 189.636 49.334C189.72 49.5393 189.846 49.6933 190.014 49.796C190.182 49.8987 190.392 49.95 190.644 49.95C190.756 49.95 190.863 49.9453 190.966 49.936C191.068 49.9267 191.166 49.908 191.26 49.88L191.232 51.014C191.073 51.0513 190.919 51.0793 190.77 51.098C190.62 51.1167 190.471 51.126 190.322 51.126ZM192.249 42.586V41.116H193.901V42.586H192.249ZM192.375 51V44.168H193.789V51H192.375ZM197.781 51L194.841 44.168H196.367L198.649 49.838H198.257L200.595 44.168H202.037L199.055 51H197.781ZM206.136 51.126C205.389 51.126 204.745 50.986 204.204 50.706C203.672 50.4167 203.256 50.0107 202.958 49.488C202.668 48.956 202.524 48.326 202.524 47.598C202.524 46.8887 202.668 46.268 202.958 45.736C203.247 45.204 203.644 44.7887 204.148 44.49C204.652 44.1913 205.226 44.042 205.87 44.042C206.504 44.042 207.046 44.182 207.494 44.462C207.951 44.7327 208.301 45.12 208.544 45.624C208.786 46.128 208.908 46.73 208.908 47.43V47.906H203.644V47.038H207.956L207.718 47.234C207.718 46.534 207.564 45.9927 207.256 45.61C206.948 45.2273 206.504 45.036 205.926 45.036C205.487 45.036 205.114 45.1387 204.806 45.344C204.507 45.5493 204.278 45.834 204.12 46.198C203.961 46.562 203.882 46.9867 203.882 47.472V47.556C203.882 48.0973 203.966 48.5547 204.134 48.928C204.311 49.292 204.568 49.5673 204.904 49.754C205.24 49.9407 205.655 50.034 206.15 50.034C206.542 50.034 206.924 49.9733 207.298 49.852C207.68 49.7213 208.04 49.5207 208.376 49.25L208.796 50.23C208.488 50.51 208.091 50.7293 207.606 50.888C207.12 51.0467 206.63 51.126 206.136 51.126ZM210.449 51V44.168H211.821V45.806H211.681C211.83 45.246 212.096 44.8213 212.479 44.532C212.871 44.2427 213.389 44.0747 214.033 44.028L214.495 44L214.593 45.204L213.739 45.288C213.132 45.344 212.67 45.5353 212.353 45.862C212.036 46.1887 211.877 46.6367 211.877 47.206V51H210.449ZM217.226 48.27V47.78C217.226 47.4813 217.263 47.1967 217.338 46.926C217.412 46.646 217.534 46.366 217.702 46.086C217.87 45.806 218.094 45.5073 218.374 45.19C218.598 44.938 218.77 44.714 218.892 44.518C219.022 44.322 219.116 44.1353 219.172 43.958C219.228 43.7713 219.256 43.58 219.256 43.384C219.256 43.1507 219.2 42.95 219.088 42.782C218.976 42.6047 218.812 42.4693 218.598 42.376C218.383 42.2827 218.122 42.236 217.814 42.236C217.319 42.236 216.857 42.3293 216.428 42.516C215.998 42.6933 215.592 42.9593 215.21 43.314L214.706 42.208C214.958 41.9653 215.252 41.7553 215.588 41.578C215.933 41.3913 216.302 41.2513 216.694 41.158C217.086 41.0553 217.487 41.004 217.898 41.004C218.458 41.004 218.948 41.0973 219.368 41.284C219.788 41.4707 220.114 41.732 220.348 42.068C220.581 42.404 220.698 42.8007 220.698 43.258C220.698 43.5473 220.656 43.8227 220.572 44.084C220.488 44.3453 220.352 44.6113 220.166 44.882C219.988 45.1433 219.736 45.4327 219.41 45.75C219.12 46.0393 218.887 46.3053 218.71 46.548C218.532 46.7907 218.402 47.0193 218.318 47.234C218.243 47.4487 218.192 47.668 218.164 47.892L218.108 48.27H217.226ZM216.834 51V49.334H218.5V51H216.834Z" fill="black"/>
<rect x="58.668" y="71" width="220" height="34" rx="8" fill="#EBEBED"/>
<path d="M76.1105 92V84.584H73.1105V83.54H80.3465V84.584H77.3465V92H76.1105ZM82.8687 92.108C82.2767 92.108 81.7647 91.984 81.3327 91.736C80.9087 91.488 80.5767 91.136 80.3367 90.68C80.0967 90.224 79.9767 89.688 79.9767 89.072C79.9767 88.448 80.0967 87.912 80.3367 87.464C80.5767 87.008 80.9087 86.656 81.3327 86.408C81.7647 86.16 82.2767 86.036 82.8687 86.036C83.4527 86.036 83.9567 86.16 84.3807 86.408C84.8127 86.656 85.1487 87.008 85.3887 87.464C85.6287 87.92 85.7487 88.456 85.7487 89.072C85.7487 89.688 85.6287 90.224 85.3887 90.68C85.1487 91.136 84.8127 91.488 84.3807 91.736C83.9567 91.984 83.4527 92.108 82.8687 92.108ZM82.8567 91.172C83.3607 91.172 83.7647 90.992 84.0687 90.632C84.3727 90.272 84.5247 89.752 84.5247 89.072C84.5247 88.384 84.3727 87.864 84.0687 87.512C83.7647 87.16 83.3607 86.984 82.8567 86.984C82.3607 86.984 81.9607 87.16 81.6567 87.512C81.3527 87.864 81.2007 88.384 81.2007 89.072C81.2007 89.752 81.3527 90.272 81.6567 90.632C81.9607 90.992 82.3607 91.172 82.8567 91.172ZM87.1338 92V86.144H88.3098V87.392H88.1778C88.2818 87.104 88.4258 86.86 88.6098 86.66C88.7938 86.46 89.0138 86.308 89.2698 86.204C89.5338 86.092 89.8218 86.036 90.1338 86.036C90.6218 86.036 91.0178 86.152 91.3218 86.384C91.6258 86.616 91.8338 86.972 91.9458 87.452H91.7778C91.9298 87.012 92.1898 86.668 92.5578 86.42C92.9258 86.164 93.3538 86.036 93.8418 86.036C94.2898 86.036 94.6578 86.124 94.9458 86.3C95.2338 86.468 95.4498 86.728 95.5938 87.08C95.7378 87.424 95.8098 87.86 95.8098 88.388V92H94.5978V88.448C94.5978 87.952 94.5098 87.588 94.3338 87.356C94.1658 87.124 93.8858 87.008 93.4938 87.008C93.2058 87.008 92.9538 87.076 92.7378 87.212C92.5218 87.348 92.3538 87.548 92.2338 87.812C92.1218 88.068 92.0658 88.372 92.0658 88.724V92H90.8538V88.448C90.8538 87.952 90.7698 87.588 90.6018 87.356C90.4338 87.124 90.1538 87.008 89.7618 87.008C89.4658 87.008 89.2098 87.076 88.9938 87.212C88.7858 87.348 88.6258 87.548 88.5138 87.812C88.4018 88.068 88.3458 88.372 88.3458 88.724V92H87.1338ZM100.048 92.108C99.4563 92.108 98.9443 91.984 98.5123 91.736C98.0883 91.488 97.7563 91.136 97.5163 90.68C97.2763 90.224 97.1563 89.688 97.1563 89.072C97.1563 88.448 97.2763 87.912 97.5163 87.464C97.7563 87.008 98.0883 86.656 98.5123 86.408C98.9443 86.16 99.4563 86.036 100.048 86.036C100.632 86.036 101.136 86.16 101.56 86.408C101.992 86.656 102.328 87.008 102.568 87.464C102.808 87.92 102.928 88.456 102.928 89.072C102.928 89.688 102.808 90.224 102.568 90.68C102.328 91.136 101.992 91.488 101.56 91.736C101.136 91.984 100.632 92.108 100.048 92.108ZM100.036 91.172C100.54 91.172 100.944 90.992 101.248 90.632C101.552 90.272 101.704 89.752 101.704 89.072C101.704 88.384 101.552 87.864 101.248 87.512C100.944 87.16 100.54 86.984 100.036 86.984C99.5403 86.984 99.1403 87.16 98.8363 87.512C98.5323 87.864 98.3803 88.384 98.3803 89.072C98.3803 89.752 98.5323 90.272 98.8363 90.632C99.1403 90.992 99.5403 91.172 100.036 91.172ZM104.29 92V86.144H105.466V87.548H105.346C105.474 87.068 105.702 86.704 106.03 86.456C106.366 86.208 106.81 86.064 107.362 86.024L107.758 86L107.842 87.032L107.11 87.104C106.59 87.152 106.194 87.316 105.922 87.596C105.65 87.876 105.514 88.26 105.514 88.748V92H104.29ZM108.766 92V86.144H109.942V87.548H109.822C109.95 87.068 110.178 86.704 110.506 86.456C110.842 86.208 111.286 86.064 111.838 86.024L112.234 86L112.318 87.032L111.586 87.104C111.066 87.152 110.67 87.316 110.398 87.596C110.126 87.876 109.99 88.26 109.99 88.748V92H108.766ZM115.705 92.108C115.113 92.108 114.601 91.984 114.169 91.736C113.745 91.488 113.413 91.136 113.173 90.68C112.933 90.224 112.813 89.688 112.813 89.072C112.813 88.448 112.933 87.912 113.173 87.464C113.413 87.008 113.745 86.656 114.169 86.408C114.601 86.16 115.113 86.036 115.705 86.036C116.289 86.036 116.793 86.16 117.217 86.408C117.649 86.656 117.985 87.008 118.225 87.464C118.465 87.92 118.585 88.456 118.585 89.072C118.585 89.688 118.465 90.224 118.225 90.68C117.985 91.136 117.649 91.488 117.217 91.736C116.793 91.984 116.289 92.108 115.705 92.108ZM115.693 91.172C116.197 91.172 116.601 90.992 116.905 90.632C117.209 90.272 117.361 89.752 117.361 89.072C117.361 88.384 117.209 87.864 116.905 87.512C116.601 87.16 116.197 86.984 115.693 86.984C115.197 86.984 114.797 87.16 114.493 87.512C114.189 87.864 114.037 88.384 114.037 89.072C114.037 89.752 114.189 90.272 114.493 90.632C114.797 90.992 115.197 91.172 115.693 91.172ZM121.424 92L119.192 86.144H120.44L122.156 90.98H121.868L123.632 86.144H124.568L126.296 90.98H126.032L127.76 86.144H128.948L126.716 92H125.612L123.764 87.008H124.364L122.528 92H121.424ZM129.871 93.476L129.343 93.068C129.503 92.9 129.623 92.744 129.703 92.6C129.791 92.456 129.851 92.312 129.883 92.168C129.923 92.024 129.943 91.88 129.943 91.736L130.207 92H129.259V90.572H130.687V91.544C130.687 91.784 130.659 92.012 130.603 92.228C130.555 92.444 130.471 92.652 130.351 92.852C130.239 93.06 130.079 93.268 129.871 93.476ZM138.919 92V90.284H135.115V89.36L139.135 83.54H140.155V89.24H141.391V90.284H140.155V92H138.919ZM138.919 89.24V85.028H139.243L136.123 89.576V89.24H138.919ZM142.586 89.288V88.304H146.042V89.288H142.586ZM148.091 92L152.219 84.116V84.584H147.635V83.54H153.359V84.464L149.459 92H148.091ZM158.222 92V83.54H161.726C162.342 83.54 162.862 83.644 163.286 83.852C163.71 84.052 164.03 84.344 164.246 84.728C164.47 85.112 164.582 85.576 164.582 86.12C164.582 86.664 164.47 87.132 164.246 87.524C164.03 87.908 163.71 88.204 163.286 88.412C162.862 88.612 162.342 88.712 161.726 88.712H159.47V92H158.222ZM159.47 87.716H161.546C162.146 87.716 162.598 87.584 162.902 87.32C163.214 87.048 163.37 86.648 163.37 86.12C163.37 85.6 163.214 85.208 162.902 84.944C162.598 84.672 162.146 84.536 161.546 84.536H159.47V87.716ZM165.946 92V83.54H166.99L170.314 89.732H169.942L173.242 83.54H174.262V92H173.146V85.304H173.41L170.494 90.704H169.738L166.786 85.292H167.074V92H165.946Z" fill="black"/>
<rect x="59.168" y="113.5" width="219" height="33" rx="7.5" stroke="#E1E1E4"/>
<path d="M75.9289 134V126.584H72.9289V125.54H80.1649V126.584H77.1649V134H75.9289ZM81.0688 134V125.54H82.2808V129.392H82.1128C82.2888 128.944 82.5648 128.608 82.9408 128.384C83.3168 128.152 83.7488 128.036 84.2368 128.036C84.7008 128.036 85.0848 128.124 85.3888 128.3C85.7008 128.468 85.9328 128.728 86.0848 129.08C86.2368 129.424 86.3128 129.86 86.3128 130.388V134H85.1008V130.46C85.1008 130.124 85.0568 129.852 84.9688 129.644C84.8808 129.428 84.7488 129.268 84.5728 129.164C84.3968 129.06 84.1688 129.008 83.8888 129.008C83.5688 129.008 83.2848 129.076 83.0368 129.212C82.7968 129.348 82.6088 129.544 82.4728 129.8C82.3448 130.056 82.2808 130.352 82.2808 130.688V134H81.0688ZM87.8749 126.788V125.528H89.2909V126.788H87.8749ZM87.9829 134V128.144H89.1949V134H87.9829ZM92.9528 134.108C92.6408 134.108 92.3368 134.08 92.0408 134.024C91.7448 133.968 91.4728 133.888 91.2248 133.784C90.9768 133.68 90.7568 133.552 90.5648 133.4L90.9128 132.584C91.1128 132.72 91.3248 132.84 91.5488 132.944C91.7728 133.04 92.0048 133.112 92.2448 133.16C92.4928 133.208 92.7328 133.232 92.9648 133.232C93.3888 133.232 93.7088 133.156 93.9248 133.004C94.1408 132.852 94.2488 132.648 94.2488 132.392C94.2488 132.184 94.1768 132.024 94.0328 131.912C93.8888 131.792 93.6728 131.7 93.3848 131.636L92.2448 131.408C91.7488 131.304 91.3728 131.12 91.1168 130.856C90.8608 130.592 90.7328 130.256 90.7328 129.848C90.7328 129.48 90.8328 129.16 91.0328 128.888C91.2328 128.616 91.5128 128.408 91.8728 128.264C92.2328 128.112 92.6488 128.036 93.1208 128.036C93.3928 128.036 93.6568 128.064 93.9128 128.12C94.1688 128.176 94.4088 128.256 94.6328 128.36C94.8648 128.464 95.0608 128.596 95.2208 128.756L94.8728 129.572C94.7208 129.436 94.5448 129.32 94.3448 129.224C94.1528 129.128 93.9528 129.056 93.7448 129.008C93.5368 128.952 93.3288 128.924 93.1208 128.924C92.6968 128.924 92.3768 129.004 92.1608 129.164C91.9528 129.316 91.8488 129.524 91.8488 129.788C91.8488 129.988 91.9128 130.152 92.0408 130.28C92.1688 130.408 92.3688 130.5 92.6408 130.556L93.7808 130.784C94.3008 130.888 94.6928 131.064 94.9568 131.312C95.2288 131.56 95.3648 131.896 95.3648 132.32C95.3648 132.688 95.2648 133.008 95.0648 133.28C94.8648 133.552 94.5808 133.76 94.2128 133.904C93.8528 134.04 93.4328 134.108 92.9528 134.108ZM101.45 134L99.2177 128.144H100.466L102.182 132.98H101.894L103.658 128.144H104.594L106.322 132.98H106.058L107.786 128.144H108.974L106.742 134H105.638L103.79 129.008H104.39L102.554 134H101.45ZM112.657 134.108C112.017 134.108 111.465 133.988 111.001 133.748C110.545 133.5 110.189 133.152 109.933 132.704C109.685 132.248 109.561 131.708 109.561 131.084C109.561 130.476 109.685 129.944 109.933 129.488C110.181 129.032 110.521 128.676 110.953 128.42C111.385 128.164 111.877 128.036 112.429 128.036C112.973 128.036 113.437 128.156 113.821 128.396C114.213 128.628 114.513 128.96 114.721 129.392C114.929 129.824 115.033 130.34 115.033 130.94V131.348H110.521V130.604H114.217L114.013 130.772C114.013 130.172 113.881 129.708 113.617 129.38C113.353 129.052 112.973 128.888 112.477 128.888C112.101 128.888 111.781 128.976 111.517 129.152C111.261 129.328 111.065 129.572 110.929 129.884C110.793 130.196 110.725 130.56 110.725 130.976V131.048C110.725 131.512 110.797 131.904 110.941 132.224C111.093 132.536 111.313 132.772 111.601 132.932C111.889 133.092 112.245 133.172 112.669 133.172C113.005 133.172 113.333 133.12 113.653 133.016C113.981 132.904 114.289 132.732 114.577 132.5L114.937 133.34C114.673 133.58 114.333 133.768 113.917 133.904C113.501 134.04 113.081 134.108 112.657 134.108ZM119.102 134.108C118.462 134.108 117.91 133.988 117.446 133.748C116.99 133.5 116.634 133.152 116.378 132.704C116.13 132.248 116.006 131.708 116.006 131.084C116.006 130.476 116.13 129.944 116.378 129.488C116.626 129.032 116.966 128.676 117.398 128.42C117.83 128.164 118.322 128.036 118.874 128.036C119.418 128.036 119.882 128.156 120.266 128.396C120.658 128.628 120.958 128.96 121.166 129.392C121.374 129.824 121.478 130.34 121.478 130.94V131.348H116.966V130.604H120.662L120.458 130.772C120.458 130.172 120.326 129.708 120.062 129.38C119.798 129.052 119.418 128.888 118.922 128.888C118.546 128.888 118.226 128.976 117.962 129.152C117.706 129.328 117.51 129.572 117.374 129.884C117.238 130.196 117.17 130.56 117.17 130.976V131.048C117.17 131.512 117.242 131.904 117.386 132.224C117.538 132.536 117.758 132.772 118.046 132.932C118.334 133.092 118.69 133.172 119.114 133.172C119.45 133.172 119.778 133.12 120.098 133.016C120.426 132.904 120.734 132.732 121.022 132.5L121.382 133.34C121.118 133.58 120.778 133.768 120.362 133.904C119.946 134.04 119.526 134.108 119.102 134.108ZM122.799 134V125.54H124.011V130.7H124.035L126.579 128.144H128.079L124.995 131.24V130.676L128.295 134H126.783L124.035 131.324H124.011V134H122.799ZM131.606 134.108C130.966 134.108 130.414 133.988 129.95 133.748C129.494 133.5 129.138 133.152 128.882 132.704C128.634 132.248 128.51 131.708 128.51 131.084C128.51 130.476 128.634 129.944 128.882 129.488C129.13 129.032 129.47 128.676 129.902 128.42C130.334 128.164 130.826 128.036 131.378 128.036C131.922 128.036 132.386 128.156 132.77 128.396C133.162 128.628 133.462 128.96 133.67 129.392C133.878 129.824 133.982 130.34 133.982 130.94V131.348H129.47V130.604H133.166L132.962 130.772C132.962 130.172 132.83 129.708 132.566 129.38C132.302 129.052 131.922 128.888 131.426 128.888C131.05 128.888 130.73 128.976 130.466 129.152C130.21 129.328 130.014 129.572 129.878 129.884C129.742 130.196 129.674 130.56 129.674 130.976V131.048C129.674 131.512 129.746 131.904 129.89 132.224C130.042 132.536 130.262 132.772 130.55 132.932C130.838 133.092 131.194 133.172 131.618 133.172C131.954 133.172 132.282 133.12 132.602 133.016C132.93 132.904 133.238 132.732 133.526 132.5L133.886 133.34C133.622 133.58 133.282 133.768 132.866 133.904C132.45 134.04 132.03 134.108 131.606 134.108ZM135.303 134V128.144H136.479V129.392H136.347C136.523 128.944 136.799 128.608 137.175 128.384C137.551 128.152 137.983 128.036 138.471 128.036C138.935 128.036 139.319 128.124 139.623 128.3C139.935 128.468 140.167 128.728 140.319 129.08C140.471 129.424 140.547 129.86 140.547 130.388V134H139.335V130.46C139.335 130.124 139.291 129.852 139.203 129.644C139.115 129.428 138.983 129.268 138.807 129.164C138.631 129.06 138.403 129.008 138.123 129.008C137.803 129.008 137.519 129.076 137.271 129.212C137.031 129.348 136.843 129.544 136.707 129.8C136.579 130.056 136.515 130.352 136.515 130.688V134H135.303ZM144.449 134.108C143.937 134.108 143.485 133.988 143.093 133.748C142.709 133.5 142.409 133.148 142.193 132.692C141.977 132.228 141.869 131.688 141.869 131.072C141.869 130.44 141.977 129.9 142.193 129.452C142.409 129.004 142.709 128.656 143.093 128.408C143.485 128.16 143.937 128.036 144.449 128.036C144.961 128.036 145.401 128.164 145.769 128.42C146.145 128.668 146.397 129.004 146.525 129.428H146.393V125.54H147.605V134H146.417V132.68H146.537C146.409 133.112 146.157 133.46 145.781 133.724C145.413 133.98 144.969 134.108 144.449 134.108ZM144.761 133.172C145.257 133.172 145.657 132.992 145.961 132.632C146.265 132.272 146.417 131.752 146.417 131.072C146.417 130.384 146.265 129.864 145.961 129.512C145.657 129.16 145.257 128.984 144.761 128.984C144.257 128.984 143.853 129.16 143.549 129.512C143.245 129.864 143.093 130.384 143.093 131.072C143.093 131.752 143.245 132.272 143.549 132.632C143.853 132.992 144.257 133.172 144.761 133.172Z" fill="#6D6B77"/>
<rect x="59.168" y="155.5" width="219" height="33" rx="7.5" stroke="#E1E1E4"/>
<path d="M73.9215 176V167.54H77.4255C78.0415 167.54 78.5615 167.644 78.9855 167.852C79.4095 168.052 79.7295 168.344 79.9455 168.728C80.1695 169.112 80.2815 169.576 80.2815 170.12C80.2815 170.664 80.1695 171.132 79.9455 171.524C79.7295 171.908 79.4095 172.204 78.9855 172.412C78.5615 172.612 78.0415 172.712 77.4255 172.712H75.1695V176H73.9215ZM75.1695 171.716H77.2455C77.8455 171.716 78.2975 171.584 78.6015 171.32C78.9135 171.048 79.0695 170.648 79.0695 170.12C79.0695 169.6 78.9135 169.208 78.6015 168.944C78.2975 168.672 77.8455 168.536 77.2455 168.536H75.1695V171.716ZM81.3807 168.788V167.528H82.7967V168.788H81.3807ZM81.4887 176V170.144H82.7007V176H81.4887ZM86.9867 176.108C86.3867 176.108 85.8667 175.984 85.4267 175.736C84.9947 175.48 84.6587 175.124 84.4187 174.668C84.1787 174.204 84.0587 173.66 84.0587 173.036C84.0587 172.42 84.1787 171.888 84.4187 171.44C84.6587 170.992 84.9947 170.648 85.4267 170.408C85.8667 170.16 86.3867 170.036 86.9867 170.036C87.3547 170.036 87.7187 170.1 88.0787 170.228C88.4387 170.348 88.7347 170.524 88.9667 170.756L88.5827 171.608C88.3667 171.4 88.1227 171.248 87.8507 171.152C87.5787 171.048 87.3227 170.996 87.0827 170.996C86.5147 170.996 86.0747 171.176 85.7627 171.536C85.4587 171.888 85.3067 172.392 85.3067 173.048C85.3067 173.704 85.4587 174.22 85.7627 174.596C86.0747 174.964 86.5147 175.148 87.0827 175.148C87.3227 175.148 87.5787 175.1 87.8507 175.004C88.1227 174.9 88.3667 174.744 88.5827 174.536L88.9667 175.4C88.7347 175.616 88.4347 175.788 88.0667 175.916C87.7067 176.044 87.3467 176.108 86.9867 176.108ZM90.0083 176V167.54H91.2203V172.7H91.2443L93.7883 170.144H95.2883L92.2043 173.24V172.676L95.5043 176H93.9923L91.2443 173.324H91.2203V176H90.0083ZM101.22 176.108C100.812 176.108 100.444 176.028 100.116 175.868C99.7961 175.708 99.5441 175.492 99.3601 175.22C99.1761 174.948 99.0841 174.64 99.0841 174.296C99.0841 173.864 99.1921 173.524 99.4081 173.276C99.6321 173.02 99.9961 172.84 100.5 172.736C101.012 172.624 101.7 172.568 102.564 172.568H103.128V173.312H102.576C102.144 173.312 101.78 173.328 101.484 173.36C101.188 173.392 100.952 173.444 100.776 173.516C100.6 173.58 100.472 173.672 100.392 173.792C100.32 173.912 100.284 174.056 100.284 174.224C100.284 174.528 100.388 174.776 100.596 174.968C100.804 175.152 101.092 175.244 101.46 175.244C101.756 175.244 102.016 175.176 102.24 175.04C102.464 174.896 102.64 174.704 102.768 174.464C102.904 174.224 102.972 173.948 102.972 173.636V172.256C102.972 171.8 102.876 171.472 102.684 171.272C102.492 171.072 102.176 170.972 101.736 170.972C101.4 170.972 101.064 171.024 100.728 171.128C100.392 171.224 100.048 171.38 99.6961 171.596L99.3241 170.744C99.5321 170.6 99.7721 170.476 100.044 170.372C100.316 170.268 100.6 170.188 100.896 170.132C101.2 170.068 101.492 170.036 101.772 170.036C102.308 170.036 102.748 170.12 103.092 170.288C103.444 170.456 103.704 170.712 103.872 171.056C104.04 171.4 104.124 171.844 104.124 172.388V176H102.984V174.692H103.092C103.028 174.988 102.908 175.244 102.732 175.46C102.564 175.668 102.352 175.828 102.096 175.94C101.84 176.052 101.548 176.108 101.22 176.108ZM111.178 176.108C110.666 176.108 110.214 175.988 109.822 175.748C109.438 175.5 109.138 175.148 108.922 174.692C108.706 174.228 108.598 173.688 108.598 173.072C108.598 172.44 108.706 171.9 108.922 171.452C109.138 171.004 109.438 170.656 109.822 170.408C110.214 170.16 110.666 170.036 111.178 170.036C111.69 170.036 112.13 170.164 112.498 170.42C112.874 170.668 113.126 171.004 113.254 171.428H113.122V167.54H114.334V176H113.146V174.68H113.266C113.138 175.112 112.886 175.46 112.51 175.724C112.142 175.98 111.698 176.108 111.178 176.108ZM111.49 175.172C111.986 175.172 112.386 174.992 112.69 174.632C112.994 174.272 113.146 173.752 113.146 173.072C113.146 172.384 112.994 171.864 112.69 171.512C112.386 171.16 111.986 170.984 111.49 170.984C110.986 170.984 110.582 171.16 110.278 171.512C109.974 171.864 109.822 172.384 109.822 173.072C109.822 173.752 109.974 174.272 110.278 174.632C110.582 174.992 110.986 175.172 111.49 175.172ZM117.908 176.108C117.5 176.108 117.132 176.028 116.804 175.868C116.484 175.708 116.232 175.492 116.048 175.22C115.864 174.948 115.772 174.64 115.772 174.296C115.772 173.864 115.88 173.524 116.096 173.276C116.32 173.02 116.684 172.84 117.188 172.736C117.7 172.624 118.388 172.568 119.252 172.568H119.816V173.312H119.264C118.832 173.312 118.468 173.328 118.172 173.36C117.876 173.392 117.64 173.444 117.464 173.516C117.288 173.58 117.16 173.672 117.08 173.792C117.008 173.912 116.972 174.056 116.972 174.224C116.972 174.528 117.076 174.776 117.284 174.968C117.492 175.152 117.78 175.244 118.148 175.244C118.444 175.244 118.704 175.176 118.928 175.04C119.152 174.896 119.328 174.704 119.456 174.464C119.592 174.224 119.66 173.948 119.66 173.636V172.256C119.66 171.8 119.564 171.472 119.372 171.272C119.18 171.072 118.864 170.972 118.424 170.972C118.088 170.972 117.752 171.024 117.416 171.128C117.08 171.224 116.736 171.38 116.384 171.596L116.012 170.744C116.22 170.6 116.46 170.476 116.732 170.372C117.004 170.268 117.288 170.188 117.584 170.132C117.888 170.068 118.18 170.036 118.46 170.036C118.996 170.036 119.436 170.12 119.78 170.288C120.132 170.456 120.392 170.712 120.56 171.056C120.728 171.4 120.812 171.844 120.812 172.388V176H119.672V174.692H119.78C119.716 174.988 119.596 175.244 119.42 175.46C119.252 175.668 119.04 175.828 118.784 175.94C118.528 176.052 118.236 176.108 117.908 176.108ZM124.977 176.108C124.249 176.108 123.701 175.92 123.333 175.544C122.973 175.168 122.793 174.624 122.793 173.912V171.08H121.653V170.144H122.793V168.38H124.005V170.144H125.817V171.08H124.005V173.816C124.005 174.24 124.093 174.56 124.269 174.776C124.453 174.992 124.749 175.1 125.157 175.1C125.277 175.1 125.397 175.084 125.517 175.052C125.645 175.02 125.769 174.988 125.889 174.956L126.081 175.868C125.961 175.94 125.793 175.996 125.577 176.036C125.369 176.084 125.169 176.108 124.977 176.108ZM129.553 176.108C128.913 176.108 128.361 175.988 127.897 175.748C127.441 175.5 127.085 175.152 126.829 174.704C126.581 174.248 126.457 173.708 126.457 173.084C126.457 172.476 126.581 171.944 126.829 171.488C127.077 171.032 127.417 170.676 127.849 170.42C128.281 170.164 128.773 170.036 129.325 170.036C129.869 170.036 130.333 170.156 130.717 170.396C131.109 170.628 131.409 170.96 131.617 171.392C131.825 171.824 131.929 172.34 131.929 172.94V173.348H127.417V172.604H131.113L130.909 172.772C130.909 172.172 130.777 171.708 130.513 171.38C130.249 171.052 129.869 170.888 129.373 170.888C128.997 170.888 128.677 170.976 128.413 171.152C128.157 171.328 127.961 171.572 127.825 171.884C127.689 172.196 127.621 172.56 127.621 172.976V173.048C127.621 173.512 127.693 173.904 127.837 174.224C127.989 174.536 128.209 174.772 128.497 174.932C128.785 175.092 129.141 175.172 129.565 175.172C129.901 175.172 130.229 175.12 130.549 175.016C130.877 174.904 131.185 174.732 131.473 174.5L131.833 175.34C131.569 175.58 131.229 175.768 130.813 175.904C130.397 176.04 129.977 176.108 129.553 176.108Z" fill="#6D6B77"/>
<rect x="58.668" y="209" width="220" height="34" rx="8" fill="black"/>
<path d="M139.155 230.108C138.299 230.108 137.567 229.932 136.959 229.58C136.351 229.228 135.883 228.728 135.555 228.08C135.235 227.424 135.075 226.652 135.075 225.764C135.075 224.876 135.235 224.108 135.555 223.46C135.883 222.812 136.351 222.312 136.959 221.96C137.567 221.608 138.299 221.432 139.155 221.432C139.731 221.432 140.267 221.524 140.763 221.708C141.267 221.884 141.687 222.14 142.023 222.476L141.591 223.472C141.223 223.144 140.843 222.908 140.451 222.764C140.067 222.612 139.647 222.536 139.191 222.536C138.279 222.536 137.583 222.816 137.103 223.376C136.623 223.936 136.383 224.732 136.383 225.764C136.383 226.796 136.623 227.596 137.103 228.164C137.583 228.724 138.279 229.004 139.191 229.004C139.647 229.004 140.067 228.932 140.451 228.788C140.843 228.636 141.223 228.396 141.591 228.068L142.023 229.064C141.687 229.4 141.267 229.66 140.763 229.844C140.267 230.02 139.731 230.108 139.155 230.108ZM145.462 230.108C144.87 230.108 144.358 229.984 143.926 229.736C143.502 229.488 143.17 229.136 142.93 228.68C142.69 228.224 142.57 227.688 142.57 227.072C142.57 226.448 142.69 225.912 142.93 225.464C143.17 225.008 143.502 224.656 143.926 224.408C144.358 224.16 144.87 224.036 145.462 224.036C146.046 224.036 146.55 224.16 146.974 224.408C147.406 224.656 147.742 225.008 147.982 225.464C148.222 225.92 148.342 226.456 148.342 227.072C148.342 227.688 148.222 228.224 147.982 228.68C147.742 229.136 147.406 229.488 146.974 229.736C146.55 229.984 146.046 230.108 145.462 230.108ZM145.45 229.172C145.954 229.172 146.358 228.992 146.662 228.632C146.966 228.272 147.118 227.752 147.118 227.072C147.118 226.384 146.966 225.864 146.662 225.512C146.358 225.16 145.954 224.984 145.45 224.984C144.954 224.984 144.554 225.16 144.25 225.512C143.946 225.864 143.794 226.384 143.794 227.072C143.794 227.752 143.946 228.272 144.25 228.632C144.554 228.992 144.954 229.172 145.45 229.172ZM149.704 230V224.144H150.88V225.392H150.748C150.924 224.944 151.2 224.608 151.576 224.384C151.952 224.152 152.384 224.036 152.872 224.036C153.336 224.036 153.72 224.124 154.024 224.3C154.336 224.468 154.568 224.728 154.72 225.08C154.872 225.424 154.948 225.86 154.948 226.388V230H153.736V226.46C153.736 226.124 153.692 225.852 153.604 225.644C153.516 225.428 153.384 225.268 153.208 225.164C153.032 225.06 152.804 225.008 152.524 225.008C152.204 225.008 151.92 225.076 151.672 225.212C151.432 225.348 151.244 225.544 151.108 225.8C150.98 226.056 150.916 226.352 150.916 226.688V230H149.704ZM156.966 230V225.08H155.826V224.144H157.314L156.966 224.468V224.036C156.966 223.236 157.17 222.632 157.578 222.224C157.994 221.808 158.63 221.576 159.486 221.528L159.966 221.504L160.038 222.416L159.546 222.44C159.218 222.456 158.954 222.52 158.754 222.632C158.554 222.744 158.406 222.904 158.31 223.112C158.222 223.312 158.178 223.564 158.178 223.868V224.288V224.144H161.91V230H160.698V225.08H158.178V230H156.966ZM160.59 222.788V221.528H162.006V222.788H160.59ZM163.602 230V224.144H164.778V225.548H164.658C164.786 225.068 165.014 224.704 165.342 224.456C165.678 224.208 166.122 224.064 166.674 224.024L167.07 224L167.154 225.032L166.422 225.104C165.902 225.152 165.506 225.316 165.234 225.596C164.962 225.876 164.826 226.26 164.826 226.748V230H163.602ZM168.103 230V224.144H169.279V225.392H169.147C169.251 225.104 169.395 224.86 169.579 224.66C169.763 224.46 169.983 224.308 170.239 224.204C170.503 224.092 170.791 224.036 171.103 224.036C171.591 224.036 171.987 224.152 172.291 224.384C172.595 224.616 172.803 224.972 172.915 225.452H172.747C172.899 225.012 173.159 224.668 173.527 224.42C173.895 224.164 174.323 224.036 174.811 224.036C175.259 224.036 175.627 224.124 175.915 224.3C176.203 224.468 176.419 224.728 176.563 225.08C176.707 225.424 176.779 225.86 176.779 226.388V230H175.567V226.448C175.567 225.952 175.479 225.588 175.303 225.356C175.135 225.124 174.855 225.008 174.463 225.008C174.175 225.008 173.923 225.076 173.707 225.212C173.491 225.348 173.323 225.548 173.203 225.812C173.091 226.068 173.035 226.372 173.035 226.724V230H171.823V226.448C171.823 225.952 171.739 225.588 171.571 225.356C171.403 225.124 171.123 225.008 170.731 225.008C170.435 225.008 170.179 225.076 169.963 225.212C169.755 225.348 169.595 225.548 169.483 225.812C169.371 226.068 169.315 226.372 169.315 226.724V230H168.103ZM184.577 230.108C184.137 230.108 183.717 230.072 183.317 230C182.925 229.92 182.561 229.808 182.225 229.664C181.897 229.512 181.605 229.332 181.349 229.124L181.745 228.14C182.017 228.34 182.297 228.508 182.585 228.644C182.873 228.78 183.181 228.884 183.509 228.956C183.837 229.02 184.193 229.052 184.577 229.052C185.257 229.052 185.757 228.932 186.077 228.692C186.405 228.444 186.569 228.124 186.569 227.732C186.569 227.516 186.517 227.332 186.413 227.18C186.317 227.028 186.157 226.9 185.933 226.796C185.709 226.684 185.417 226.592 185.057 226.52L183.773 226.256C183.013 226.096 182.445 225.832 182.069 225.464C181.701 225.096 181.517 224.6 181.517 223.976C181.517 223.464 181.653 223.016 181.925 222.632C182.197 222.248 182.569 221.952 183.041 221.744C183.521 221.536 184.073 221.432 184.697 221.432C185.081 221.432 185.445 221.472 185.789 221.552C186.141 221.624 186.465 221.736 186.761 221.888C187.065 222.04 187.329 222.224 187.553 222.44L187.145 223.388C186.801 223.084 186.429 222.86 186.029 222.716C185.629 222.564 185.181 222.488 184.685 222.488C184.293 222.488 183.949 222.548 183.653 222.668C183.365 222.788 183.141 222.956 182.981 223.172C182.829 223.388 182.753 223.644 182.753 223.94C182.753 224.276 182.861 224.544 183.077 224.744C183.293 224.944 183.653 225.096 184.157 225.2L185.429 225.464C186.229 225.632 186.825 225.892 187.217 226.244C187.609 226.596 187.805 227.064 187.805 227.648C187.805 228.136 187.673 228.568 187.409 228.944C187.145 229.312 186.773 229.6 186.293 229.808C185.813 230.008 185.241 230.108 184.577 230.108ZM190.998 230.108C190.358 230.108 189.878 229.928 189.558 229.568C189.246 229.2 189.09 228.672 189.09 227.984V221.54H190.302V227.912C190.302 228.168 190.338 228.388 190.41 228.572C190.482 228.748 190.59 228.88 190.734 228.968C190.878 229.056 191.058 229.1 191.274 229.1C191.37 229.1 191.462 229.096 191.55 229.088C191.638 229.08 191.722 229.064 191.802 229.04L191.778 230.012C191.642 230.044 191.51 230.068 191.382 230.084C191.254 230.1 191.126 230.108 190.998 230.108ZM195.244 230.108C194.652 230.108 194.14 229.984 193.708 229.736C193.284 229.488 192.952 229.136 192.712 228.68C192.472 228.224 192.352 227.688 192.352 227.072C192.352 226.448 192.472 225.912 192.712 225.464C192.952 225.008 193.284 224.656 193.708 224.408C194.14 224.16 194.652 224.036 195.244 224.036C195.828 224.036 196.332 224.16 196.756 224.408C197.188 224.656 197.524 225.008 197.764 225.464C198.004 225.92 198.124 226.456 198.124 227.072C198.124 227.688 198.004 228.224 197.764 228.68C197.524 229.136 197.188 229.488 196.756 229.736C196.332 229.984 195.828 230.108 195.244 230.108ZM195.232 229.172C195.736 229.172 196.14 228.992 196.444 228.632C196.748 228.272 196.9 227.752 196.9 227.072C196.9 226.384 196.748 225.864 196.444 225.512C196.14 225.16 195.736 224.984 195.232 224.984C194.736 224.984 194.336 225.16 194.032 225.512C193.728 225.864 193.576 226.384 193.576 227.072C193.576 227.752 193.728 228.272 194.032 228.632C194.336 228.992 194.736 229.172 195.232 229.172ZM201.922 230.108C201.194 230.108 200.646 229.92 200.278 229.544C199.918 229.168 199.738 228.624 199.738 227.912V225.08H198.598V224.144H199.738V222.38H200.95V224.144H202.762V225.08H200.95V227.816C200.95 228.24 201.038 228.56 201.214 228.776C201.398 228.992 201.694 229.1 202.102 229.1C202.222 229.1 202.342 229.084 202.462 229.052C202.59 229.02 202.714 228.988 202.834 228.956L203.026 229.868C202.906 229.94 202.738 229.996 202.522 230.036C202.314 230.084 202.114 230.108 201.922 230.108Z" fill="white"/>
</svg>
