<svg width="338" height="280" viewBox="0 0 338 280" fill="none" xmlns="http://www.w3.org/2000/svg">
<rect x="0.5" y="0.5" width="336.333" height="279" rx="11.5" fill="#F5F5F6"/>
<rect x="0.5" y="0.5" width="336.333" height="279" rx="11.5" stroke="#EAEAEC"/>
<rect x="51.5" y="150.5" width="265" height="97" rx="7.5" fill="white"/>
<rect x="51.5" y="150.5" width="265" height="97" rx="7.5" stroke="#CBF2DC"/>
<rect x="71" y="185" width="28" height="28" rx="8" fill="#EEFBF3"/>
<path d="M84.9987 192.332C81.3187 192.332 78.332 195.319 78.332 198.999C78.332 202.679 81.3187 205.665 84.9987 205.665C88.6787 205.665 91.6654 202.679 91.6654 198.999C91.6654 195.319 88.6787 192.332 84.9987 192.332ZM83.192 201.859L80.7987 199.465C80.5387 199.205 80.5387 198.785 80.7987 198.525C81.0587 198.265 81.4787 198.265 81.7387 198.525L83.6654 200.445L88.252 195.859C88.512 195.599 88.932 195.599 89.192 195.859C89.452 196.119 89.452 196.539 89.192 196.799L84.132 201.859C83.8787 202.119 83.452 202.119 83.192 201.859Z" fill="#28C76F"/>
<path d="M113.014 186L117.48 176.13H118.95L123.416 186H121.596L120.406 183.228L121.162 183.718H115.254L116.01 183.228L114.834 186H113.014ZM118.194 178.076L116.234 182.738L115.87 182.29H120.546L120.196 182.738L118.222 178.076H118.194ZM126.806 186.14C126.237 186.14 125.765 186.037 125.392 185.832C125.019 185.617 124.739 185.3 124.552 184.88C124.375 184.46 124.286 183.937 124.286 183.312V179.154H126.036V183.34C126.036 183.657 126.078 183.923 126.162 184.138C126.255 184.353 126.391 184.511 126.568 184.614C126.755 184.717 126.988 184.768 127.268 184.768C127.585 184.768 127.861 184.698 128.094 184.558C128.337 184.409 128.523 184.203 128.654 183.942C128.794 183.671 128.864 183.359 128.864 183.004V179.154H130.614V186H128.906V184.572H129.102C128.906 185.076 128.607 185.463 128.206 185.734C127.814 186.005 127.347 186.14 126.806 186.14ZM135.571 186.14C134.657 186.14 133.975 185.911 133.527 185.454C133.079 184.997 132.855 184.329 132.855 183.452V180.47H131.539V179.154H132.855V177.11H134.605V179.154H136.677V180.47H134.605V183.354C134.605 183.802 134.703 184.138 134.899 184.362C135.095 184.586 135.413 184.698 135.851 184.698C135.982 184.698 136.117 184.684 136.257 184.656C136.397 184.619 136.542 184.581 136.691 184.544L136.957 185.832C136.789 185.925 136.575 186 136.313 186.056C136.061 186.112 135.814 186.14 135.571 186.14ZM140.862 186.14C140.153 186.14 139.537 185.995 139.014 185.706C138.491 185.417 138.085 185.006 137.796 184.474C137.507 183.933 137.362 183.298 137.362 182.57C137.362 181.842 137.507 181.212 137.796 180.68C138.085 180.148 138.491 179.737 139.014 179.448C139.537 179.159 140.153 179.014 140.862 179.014C141.571 179.014 142.187 179.159 142.71 179.448C143.233 179.737 143.639 180.148 143.928 180.68C144.217 181.212 144.362 181.842 144.362 182.57C144.362 183.298 144.217 183.933 143.928 184.474C143.639 185.006 143.233 185.417 142.71 185.706C142.187 185.995 141.571 186.14 140.862 186.14ZM140.862 184.81C141.385 184.81 141.805 184.623 142.122 184.25C142.439 183.867 142.598 183.307 142.598 182.57C142.598 181.823 142.439 181.268 142.122 180.904C141.805 180.531 141.385 180.344 140.862 180.344C140.339 180.344 139.919 180.531 139.602 180.904C139.285 181.268 139.126 181.823 139.126 182.57C139.126 183.307 139.285 183.867 139.602 184.25C139.919 184.623 140.339 184.81 140.862 184.81ZM149.622 182.948V181.548H153.794V182.948H149.622ZM164.184 186.14C163.157 186.14 162.275 185.935 161.538 185.524C160.81 185.104 160.25 184.516 159.858 183.76C159.466 182.995 159.27 182.094 159.27 181.058C159.27 180.022 159.466 179.126 159.858 178.37C160.25 177.614 160.81 177.031 161.538 176.62C162.275 176.2 163.157 175.99 164.184 175.99C164.846 175.99 165.472 176.093 166.06 176.298C166.657 176.503 167.147 176.797 167.53 177.18L166.942 178.608C166.522 178.253 166.092 177.997 165.654 177.838C165.215 177.67 164.744 177.586 164.24 177.586C163.241 177.586 162.48 177.889 161.958 178.496C161.435 179.093 161.174 179.947 161.174 181.058C161.174 182.169 161.435 183.027 161.958 183.634C162.48 184.241 163.241 184.544 164.24 184.544C164.744 184.544 165.215 184.465 165.654 184.306C166.092 184.138 166.522 183.877 166.942 183.522L167.53 184.95C167.147 185.323 166.657 185.617 166.06 185.832C165.472 186.037 164.846 186.14 164.184 186.14ZM171.555 186.14C170.846 186.14 170.23 185.995 169.707 185.706C169.185 185.417 168.779 185.006 168.489 184.474C168.2 183.933 168.055 183.298 168.055 182.57C168.055 181.842 168.2 181.212 168.489 180.68C168.779 180.148 169.185 179.737 169.707 179.448C170.23 179.159 170.846 179.014 171.555 179.014C172.265 179.014 172.881 179.159 173.403 179.448C173.926 179.737 174.332 180.148 174.621 180.68C174.911 181.212 175.055 181.842 175.055 182.57C175.055 183.298 174.911 183.933 174.621 184.474C174.332 185.006 173.926 185.417 173.403 185.706C172.881 185.995 172.265 186.14 171.555 186.14ZM171.555 184.81C172.078 184.81 172.498 184.623 172.815 184.25C173.133 183.867 173.291 183.307 173.291 182.57C173.291 181.823 173.133 181.268 172.815 180.904C172.498 180.531 172.078 180.344 171.555 180.344C171.033 180.344 170.613 180.531 170.295 180.904C169.978 181.268 169.819 181.823 169.819 182.57C169.819 183.307 169.978 183.867 170.295 184.25C170.613 184.623 171.033 184.81 171.555 184.81ZM176.5 186V179.154H178.208V180.806H178.068C178.199 180.246 178.455 179.821 178.838 179.532C179.221 179.233 179.729 179.061 180.364 179.014L180.896 178.972L181.008 180.456L180 180.554C179.431 180.61 179.001 180.787 178.712 181.086C178.423 181.375 178.278 181.786 178.278 182.318V186H176.5ZM181.982 186V179.154H183.69V180.806H183.55C183.681 180.246 183.938 179.821 184.32 179.532C184.703 179.233 185.212 179.061 185.846 179.014L186.378 178.972L186.49 180.456L185.482 180.554C184.913 180.61 184.484 180.787 184.194 181.086C183.905 181.375 183.76 181.786 183.76 182.318V186H181.982ZM190.729 186.14C189.955 186.14 189.287 185.995 188.727 185.706C188.167 185.417 187.733 185.006 187.425 184.474C187.127 183.942 186.977 183.312 186.977 182.584C186.977 181.875 187.122 181.254 187.411 180.722C187.71 180.19 188.116 179.775 188.629 179.476C189.152 179.168 189.745 179.014 190.407 179.014C191.061 179.014 191.621 179.154 192.087 179.434C192.554 179.714 192.913 180.111 193.165 180.624C193.427 181.137 193.557 181.749 193.557 182.458V182.976H188.391V181.968H192.325L192.101 182.178C192.101 181.543 191.961 181.058 191.681 180.722C191.401 180.377 191 180.204 190.477 180.204C190.085 180.204 189.749 180.297 189.469 180.484C189.199 180.661 188.989 180.918 188.839 181.254C188.699 181.581 188.629 181.973 188.629 182.43V182.528C188.629 183.041 188.709 183.466 188.867 183.802C189.026 184.138 189.264 184.39 189.581 184.558C189.899 184.726 190.291 184.81 190.757 184.81C191.14 184.81 191.523 184.754 191.905 184.642C192.288 184.521 192.638 184.334 192.955 184.082L193.445 185.258C193.119 185.529 192.708 185.743 192.213 185.902C191.719 186.061 191.224 186.14 190.729 186.14ZM198.107 186.14C197.389 186.14 196.763 185.995 196.231 185.706C195.699 185.407 195.289 184.987 194.999 184.446C194.71 183.905 194.565 183.27 194.565 182.542C194.565 181.814 194.71 181.189 194.999 180.666C195.289 180.134 195.699 179.728 196.231 179.448C196.763 179.159 197.389 179.014 198.107 179.014C198.546 179.014 198.98 179.084 199.409 179.224C199.839 179.364 200.193 179.56 200.473 179.812L199.955 181.03C199.713 180.815 199.437 180.652 199.129 180.54C198.831 180.428 198.541 180.372 198.261 180.372C197.655 180.372 197.183 180.563 196.847 180.946C196.521 181.319 196.357 181.856 196.357 182.556C196.357 183.247 196.521 183.793 196.847 184.194C197.183 184.586 197.655 184.782 198.261 184.782C198.532 184.782 198.821 184.726 199.129 184.614C199.437 184.502 199.713 184.334 199.955 184.11L200.473 185.342C200.193 185.585 199.834 185.781 199.395 185.93C198.966 186.07 198.537 186.14 198.107 186.14ZM204.71 186.14C203.795 186.14 203.114 185.911 202.666 185.454C202.218 184.997 201.994 184.329 201.994 183.452V180.47H200.678V179.154H201.994V177.11H203.744V179.154H205.816V180.47H203.744V183.354C203.744 183.802 203.842 184.138 204.038 184.362C204.234 184.586 204.551 184.698 204.99 184.698C205.121 184.698 205.256 184.684 205.396 184.656C205.536 184.619 205.681 184.581 205.83 184.544L206.096 185.832C205.928 185.925 205.713 186 205.452 186.056C205.2 186.112 204.953 186.14 204.71 186.14ZM210.253 186.14C209.478 186.14 208.811 185.995 208.251 185.706C207.691 185.417 207.257 185.006 206.949 184.474C206.65 183.942 206.501 183.312 206.501 182.584C206.501 181.875 206.645 181.254 206.935 180.722C207.233 180.19 207.639 179.775 208.153 179.476C208.675 179.168 209.268 179.014 209.931 179.014C210.584 179.014 211.144 179.154 211.611 179.434C212.077 179.714 212.437 180.111 212.689 180.624C212.95 181.137 213.081 181.749 213.081 182.458V182.976H207.915V181.968H211.849L211.625 182.178C211.625 181.543 211.485 181.058 211.205 180.722C210.925 180.377 210.523 180.204 210.001 180.204C209.609 180.204 209.273 180.297 208.993 180.484C208.722 180.661 208.512 180.918 208.363 181.254C208.223 181.581 208.153 181.973 208.153 182.43V182.528C208.153 183.041 208.232 183.466 208.391 183.802C208.549 184.138 208.787 184.39 209.105 184.558C209.422 184.726 209.814 184.81 210.281 184.81C210.663 184.81 211.046 184.754 211.429 184.642C211.811 184.521 212.161 184.334 212.479 184.082L212.969 185.258C212.642 185.529 212.231 185.743 211.737 185.902C211.242 186.061 210.747 186.14 210.253 186.14ZM217.099 186.14C216.501 186.14 215.974 185.995 215.517 185.706C215.069 185.417 214.719 185.006 214.467 184.474C214.215 183.933 214.089 183.298 214.089 182.57C214.089 181.833 214.215 181.203 214.467 180.68C214.719 180.148 215.069 179.737 215.517 179.448C215.974 179.159 216.501 179.014 217.099 179.014C217.668 179.014 218.163 179.154 218.583 179.434C219.012 179.714 219.301 180.083 219.451 180.54H219.297V176.13H221.047V186H219.339V184.544H219.465C219.325 185.029 219.04 185.417 218.611 185.706C218.181 185.995 217.677 186.14 217.099 186.14ZM217.589 184.81C218.111 184.81 218.531 184.623 218.849 184.25C219.166 183.867 219.325 183.307 219.325 182.57C219.325 181.823 219.166 181.268 218.849 180.904C218.531 180.531 218.111 180.344 217.589 180.344C217.066 180.344 216.646 180.531 216.329 180.904C216.011 181.268 215.853 181.823 215.853 182.57C215.853 183.307 216.011 183.867 216.329 184.25C216.646 184.623 217.066 184.81 217.589 184.81ZM225.739 186L230.205 176.13H231.675L236.141 186H234.321L233.131 183.228L233.887 183.718H227.979L228.735 183.228L227.559 186H225.739ZM230.919 178.076L228.959 182.738L228.595 182.29H233.271L232.921 182.738L230.947 178.076H230.919ZM239.616 186.14C239.019 186.14 238.492 185.995 238.034 185.706C237.586 185.417 237.236 185.006 236.984 184.474C236.732 183.933 236.606 183.298 236.606 182.57C236.606 181.833 236.732 181.203 236.984 180.68C237.236 180.148 237.586 179.737 238.034 179.448C238.492 179.159 239.019 179.014 239.616 179.014C240.186 179.014 240.68 179.154 241.1 179.434C241.53 179.714 241.819 180.083 241.968 180.54H241.814V176.13H243.564V186H241.856V184.544H241.982C241.842 185.029 241.558 185.417 241.128 185.706C240.699 185.995 240.195 186.14 239.616 186.14ZM240.106 184.81C240.629 184.81 241.049 184.623 241.366 184.25C241.684 183.867 241.842 183.307 241.842 182.57C241.842 181.823 241.684 181.268 241.366 180.904C241.049 180.531 240.629 180.344 240.106 180.344C239.584 180.344 239.164 180.531 238.846 180.904C238.529 181.268 238.37 181.823 238.37 182.57C238.37 183.307 238.529 183.867 238.846 184.25C239.164 184.623 239.584 184.81 240.106 184.81ZM248.011 186.14C247.413 186.14 246.886 185.995 246.429 185.706C245.981 185.417 245.631 185.006 245.379 184.474C245.127 183.933 245.001 183.298 245.001 182.57C245.001 181.833 245.127 181.203 245.379 180.68C245.631 180.148 245.981 179.737 246.429 179.448C246.886 179.159 247.413 179.014 248.011 179.014C248.58 179.014 249.075 179.154 249.495 179.434C249.924 179.714 250.213 180.083 250.363 180.54H250.209V176.13H251.959V186H250.251V184.544H250.377C250.237 185.029 249.952 185.417 249.523 185.706C249.093 185.995 248.589 186.14 248.011 186.14ZM248.501 184.81C249.023 184.81 249.443 184.623 249.761 184.25C250.078 183.867 250.237 183.307 250.237 182.57C250.237 181.823 250.078 181.268 249.761 180.904C249.443 180.531 249.023 180.344 248.501 180.344C247.978 180.344 247.558 180.531 247.241 180.904C246.923 181.268 246.765 181.823 246.765 182.57C246.765 183.307 246.923 183.867 247.241 184.25C247.558 184.623 247.978 184.81 248.501 184.81ZM253.773 186V179.154H255.481V180.806H255.341C255.472 180.246 255.729 179.821 256.111 179.532C256.494 179.233 257.003 179.061 257.637 179.014L258.169 178.972L258.281 180.456L257.273 180.554C256.704 180.61 256.275 180.787 255.985 181.086C255.696 181.375 255.551 181.786 255.551 182.318V186H253.773ZM262.52 186.14C261.746 186.14 261.078 185.995 260.518 185.706C259.958 185.417 259.524 185.006 259.216 184.474C258.918 183.942 258.768 183.312 258.768 182.584C258.768 181.875 258.913 181.254 259.202 180.722C259.501 180.19 259.907 179.775 260.42 179.476C260.943 179.168 261.536 179.014 262.198 179.014C262.852 179.014 263.412 179.154 263.878 179.434C264.345 179.714 264.704 180.111 264.956 180.624C265.218 181.137 265.348 181.749 265.348 182.458V182.976H260.182V181.968H264.116L263.892 182.178C263.892 181.543 263.752 181.058 263.472 180.722C263.192 180.377 262.791 180.204 262.268 180.204C261.876 180.204 261.54 180.297 261.26 180.484C260.99 180.661 260.78 180.918 260.63 181.254C260.49 181.581 260.42 181.973 260.42 182.43V182.528C260.42 183.041 260.5 183.466 260.658 183.802C260.817 184.138 261.055 184.39 261.372 184.558C261.69 184.726 262.082 184.81 262.548 184.81C262.931 184.81 263.314 184.754 263.696 184.642C264.079 184.521 264.429 184.334 264.746 184.082L265.236 185.258C264.91 185.529 264.499 185.743 264.004 185.902C263.51 186.061 263.015 186.14 262.52 186.14ZM269.24 186.14C268.858 186.14 268.484 186.107 268.12 186.042C267.766 185.977 267.439 185.888 267.14 185.776C266.842 185.655 266.58 185.505 266.356 185.328L266.804 184.18C267.038 184.329 267.29 184.46 267.56 184.572C267.831 184.684 268.111 184.768 268.4 184.824C268.69 184.88 268.974 184.908 269.254 184.908C269.702 184.908 270.034 184.833 270.248 184.684C270.472 184.525 270.584 184.32 270.584 184.068C270.584 183.853 270.51 183.69 270.36 183.578C270.22 183.457 270.006 183.368 269.716 183.312L268.316 183.046C267.738 182.934 267.294 182.724 266.986 182.416C266.688 182.099 266.538 181.693 266.538 181.198C266.538 180.75 266.66 180.363 266.902 180.036C267.154 179.709 267.5 179.457 267.938 179.28C268.377 179.103 268.881 179.014 269.45 179.014C269.777 179.014 270.094 179.047 270.402 179.112C270.71 179.168 271 179.257 271.27 179.378C271.55 179.49 271.793 179.639 271.998 179.826L271.522 180.974C271.345 180.825 271.14 180.699 270.906 180.596C270.673 180.484 270.43 180.4 270.178 180.344C269.936 180.279 269.698 180.246 269.464 180.246C269.007 180.246 268.666 180.325 268.442 180.484C268.228 180.643 268.12 180.853 268.12 181.114C268.12 181.31 268.186 181.473 268.316 181.604C268.447 181.735 268.648 181.823 268.918 181.87L270.318 182.136C270.925 182.248 271.382 182.453 271.69 182.752C272.008 183.051 272.166 183.452 272.166 183.956C272.166 184.413 272.045 184.805 271.802 185.132C271.56 185.459 271.219 185.711 270.78 185.888C270.342 186.056 269.828 186.14 269.24 186.14ZM276.076 186.14C275.693 186.14 275.32 186.107 274.956 186.042C274.601 185.977 274.275 185.888 273.976 185.776C273.677 185.655 273.416 185.505 273.192 185.328L273.64 184.18C273.873 184.329 274.125 184.46 274.396 184.572C274.667 184.684 274.947 184.768 275.236 184.824C275.525 184.88 275.81 184.908 276.09 184.908C276.538 184.908 276.869 184.833 277.084 184.684C277.308 184.525 277.42 184.32 277.42 184.068C277.42 183.853 277.345 183.69 277.196 183.578C277.056 183.457 276.841 183.368 276.552 183.312L275.152 183.046C274.573 182.934 274.13 182.724 273.822 182.416C273.523 182.099 273.374 181.693 273.374 181.198C273.374 180.75 273.495 180.363 273.738 180.036C273.99 179.709 274.335 179.457 274.774 179.28C275.213 179.103 275.717 179.014 276.286 179.014C276.613 179.014 276.93 179.047 277.238 179.112C277.546 179.168 277.835 179.257 278.106 179.378C278.386 179.49 278.629 179.639 278.834 179.826L278.358 180.974C278.181 180.825 277.975 180.699 277.742 180.596C277.509 180.484 277.266 180.4 277.014 180.344C276.771 180.279 276.533 180.246 276.3 180.246C275.843 180.246 275.502 180.325 275.278 180.484C275.063 180.643 274.956 180.853 274.956 181.114C274.956 181.31 275.021 181.473 275.152 181.604C275.283 181.735 275.483 181.823 275.754 181.87L277.154 182.136C277.761 182.248 278.218 182.453 278.526 182.752C278.843 183.051 279.002 183.452 279.002 183.956C279.002 184.413 278.881 184.805 278.638 185.132C278.395 185.459 278.055 185.711 277.616 185.888C277.177 186.056 276.664 186.14 276.076 186.14Z" fill="black"/>
<path d="M113.984 206V197.54H119.36V198.548H115.232V201.248H119.108V202.256H115.232V206H113.984ZM122.405 206.108C121.765 206.108 121.285 205.928 120.965 205.568C120.653 205.2 120.497 204.672 120.497 203.984V197.54H121.709V203.912C121.709 204.168 121.745 204.388 121.817 204.572C121.889 204.748 121.997 204.88 122.141 204.968C122.285 205.056 122.465 205.1 122.681 205.1C122.777 205.1 122.869 205.096 122.957 205.088C123.045 205.08 123.129 205.064 123.209 205.04L123.185 206.012C123.049 206.044 122.917 206.068 122.789 206.084C122.661 206.1 122.533 206.108 122.405 206.108ZM126.037 206.108C125.629 206.108 125.261 206.028 124.933 205.868C124.613 205.708 124.361 205.492 124.177 205.22C123.993 204.948 123.901 204.64 123.901 204.296C123.901 203.864 124.009 203.524 124.225 203.276C124.449 203.02 124.813 202.84 125.317 202.736C125.829 202.624 126.517 202.568 127.381 202.568H127.945V203.312H127.393C126.961 203.312 126.597 203.328 126.301 203.36C126.005 203.392 125.769 203.444 125.593 203.516C125.417 203.58 125.289 203.672 125.209 203.792C125.137 203.912 125.101 204.056 125.101 204.224C125.101 204.528 125.205 204.776 125.413 204.968C125.621 205.152 125.909 205.244 126.277 205.244C126.573 205.244 126.833 205.176 127.057 205.04C127.281 204.896 127.457 204.704 127.585 204.464C127.721 204.224 127.789 203.948 127.789 203.636V202.256C127.789 201.8 127.693 201.472 127.501 201.272C127.309 201.072 126.993 200.972 126.553 200.972C126.217 200.972 125.881 201.024 125.545 201.128C125.209 201.224 124.865 201.38 124.513 201.596L124.141 200.744C124.349 200.6 124.589 200.476 124.861 200.372C125.133 200.268 125.417 200.188 125.713 200.132C126.017 200.068 126.309 200.036 126.589 200.036C127.125 200.036 127.565 200.12 127.909 200.288C128.261 200.456 128.521 200.712 128.689 201.056C128.857 201.4 128.941 201.844 128.941 202.388V206H127.801V204.692H127.909C127.845 204.988 127.725 205.244 127.549 205.46C127.381 205.668 127.169 205.828 126.913 205.94C126.657 206.052 126.365 206.108 126.037 206.108ZM133.106 206.108C132.378 206.108 131.83 205.92 131.462 205.544C131.102 205.168 130.922 204.624 130.922 203.912V201.08H129.782V200.144H130.922V198.38H132.134V200.144H133.946V201.08H132.134V203.816C132.134 204.24 132.222 204.56 132.398 204.776C132.582 204.992 132.878 205.1 133.286 205.1C133.406 205.1 133.526 205.084 133.646 205.052C133.774 205.02 133.898 204.988 134.018 204.956L134.21 205.868C134.09 205.94 133.922 205.996 133.706 206.036C133.498 206.084 133.298 206.108 133.106 206.108ZM141.661 206V204.284H137.857V203.36L141.877 197.54H142.897V203.24H144.133V204.284H142.897V206H141.661ZM141.661 203.24V199.028H141.985L138.865 203.576V203.24H141.661ZM145.808 207.476L145.28 207.068C145.44 206.9 145.56 206.744 145.64 206.6C145.728 206.456 145.788 206.312 145.82 206.168C145.86 206.024 145.88 205.88 145.88 205.736L146.144 206H145.196V204.572H146.624V205.544C146.624 205.784 146.596 206.012 146.54 206.228C146.492 206.444 146.408 206.652 146.288 206.852C146.176 207.06 146.016 207.268 145.808 207.476ZM158.585 206.108C157.665 206.108 156.889 205.936 156.257 205.592C155.625 205.24 155.145 204.74 154.817 204.092C154.497 203.444 154.337 202.672 154.337 201.776C154.337 200.88 154.501 200.108 154.829 199.46C155.165 198.812 155.641 198.312 156.257 197.96C156.881 197.608 157.629 197.432 158.501 197.432C158.901 197.432 159.281 197.472 159.641 197.552C160.001 197.624 160.333 197.736 160.637 197.888C160.949 198.04 161.221 198.228 161.453 198.452L161.009 199.424C160.633 199.104 160.241 198.876 159.833 198.74C159.433 198.596 158.989 198.524 158.501 198.524C157.565 198.524 156.853 198.808 156.365 199.376C155.877 199.936 155.633 200.736 155.633 201.776C155.633 202.84 155.885 203.648 156.389 204.2C156.893 204.752 157.641 205.028 158.633 205.028C158.993 205.028 159.345 204.996 159.689 204.932C160.041 204.86 160.377 204.76 160.697 204.632L160.445 205.256V202.46H158.381V201.524H161.489V205.508C161.257 205.628 160.977 205.732 160.649 205.82C160.329 205.908 159.989 205.976 159.629 206.024C159.277 206.08 158.929 206.108 158.585 206.108ZM163.27 206V200.144H164.446V201.548H164.326C164.454 201.068 164.682 200.704 165.01 200.456C165.346 200.208 165.79 200.064 166.342 200.024L166.738 200L166.822 201.032L166.09 201.104C165.57 201.152 165.174 201.316 164.902 201.596C164.63 201.876 164.494 202.26 164.494 202.748V206H163.27ZM170.413 206.108C169.773 206.108 169.221 205.988 168.757 205.748C168.301 205.5 167.945 205.152 167.689 204.704C167.441 204.248 167.317 203.708 167.317 203.084C167.317 202.476 167.441 201.944 167.689 201.488C167.937 201.032 168.277 200.676 168.709 200.42C169.141 200.164 169.633 200.036 170.185 200.036C170.729 200.036 171.193 200.156 171.577 200.396C171.969 200.628 172.269 200.96 172.477 201.392C172.685 201.824 172.789 202.34 172.789 202.94V203.348H168.277V202.604H171.973L171.769 202.772C171.769 202.172 171.637 201.708 171.373 201.38C171.109 201.052 170.729 200.888 170.233 200.888C169.857 200.888 169.537 200.976 169.273 201.152C169.017 201.328 168.821 201.572 168.685 201.884C168.549 202.196 168.481 202.56 168.481 202.976V203.048C168.481 203.512 168.553 203.904 168.697 204.224C168.849 204.536 169.069 204.772 169.357 204.932C169.645 205.092 170.001 205.172 170.425 205.172C170.761 205.172 171.089 205.12 171.409 205.016C171.737 204.904 172.045 204.732 172.333 204.5L172.693 205.34C172.429 205.58 172.089 205.768 171.673 205.904C171.257 206.04 170.837 206.108 170.413 206.108ZM176.858 206.108C176.218 206.108 175.666 205.988 175.202 205.748C174.746 205.5 174.39 205.152 174.134 204.704C173.886 204.248 173.762 203.708 173.762 203.084C173.762 202.476 173.886 201.944 174.134 201.488C174.382 201.032 174.722 200.676 175.154 200.42C175.586 200.164 176.078 200.036 176.63 200.036C177.174 200.036 177.638 200.156 178.022 200.396C178.414 200.628 178.714 200.96 178.922 201.392C179.13 201.824 179.234 202.34 179.234 202.94V203.348H174.722V202.604H178.418L178.214 202.772C178.214 202.172 178.082 201.708 177.818 201.38C177.554 201.052 177.174 200.888 176.678 200.888C176.302 200.888 175.982 200.976 175.718 201.152C175.462 201.328 175.266 201.572 175.13 201.884C174.994 202.196 174.926 202.56 174.926 202.976V203.048C174.926 203.512 174.998 203.904 175.142 204.224C175.294 204.536 175.514 204.772 175.802 204.932C176.09 205.092 176.446 205.172 176.87 205.172C177.206 205.172 177.534 205.12 177.854 205.016C178.182 204.904 178.49 204.732 178.778 204.5L179.138 205.34C178.874 205.58 178.534 205.768 178.118 205.904C177.702 206.04 177.282 206.108 176.858 206.108ZM180.555 206V200.144H181.731V201.392H181.599C181.775 200.944 182.051 200.608 182.427 200.384C182.803 200.152 183.235 200.036 183.723 200.036C184.187 200.036 184.571 200.124 184.875 200.3C185.187 200.468 185.419 200.728 185.571 201.08C185.723 201.424 185.799 201.86 185.799 202.388V206H184.587V202.46C184.587 202.124 184.543 201.852 184.455 201.644C184.367 201.428 184.235 201.268 184.059 201.164C183.883 201.06 183.655 201.008 183.375 201.008C183.055 201.008 182.771 201.076 182.523 201.212C182.283 201.348 182.095 201.544 181.959 201.8C181.831 202.056 181.767 202.352 181.767 202.688V206H180.555ZM189.902 206L193.67 197.54H194.702L198.482 206H197.21L196.178 203.6L196.742 203.936H191.63L192.182 203.6L191.162 206H189.902ZM194.174 198.92L192.362 203.216L192.062 202.928H196.298L196.022 203.216L194.198 198.92H194.174ZM199.457 208.16V200.144H200.645V201.464H200.513C200.641 201.032 200.893 200.688 201.269 200.432C201.645 200.168 202.089 200.036 202.601 200.036C203.121 200.036 203.573 200.16 203.957 200.408C204.349 200.656 204.649 201.004 204.857 201.452C205.073 201.9 205.181 202.44 205.181 203.072C205.181 203.688 205.073 204.228 204.857 204.692C204.649 205.148 204.353 205.5 203.969 205.748C203.585 205.988 203.129 206.108 202.601 206.108C202.097 206.108 201.657 205.98 201.281 205.724C200.905 205.468 200.653 205.128 200.525 204.704H200.669V208.16H199.457ZM202.301 205.172C202.805 205.172 203.205 204.992 203.501 204.632C203.805 204.272 203.957 203.752 203.957 203.072C203.957 202.384 203.805 201.864 203.501 201.512C203.205 201.16 202.805 200.984 202.301 200.984C201.805 200.984 201.405 201.16 201.101 201.512C200.797 201.864 200.645 202.384 200.645 203.072C200.645 203.752 200.797 204.272 201.101 204.632C201.405 204.992 201.805 205.172 202.301 205.172ZM208.419 206.108C208.011 206.108 207.643 206.028 207.315 205.868C206.995 205.708 206.743 205.492 206.559 205.22C206.375 204.948 206.283 204.64 206.283 204.296C206.283 203.864 206.391 203.524 206.607 203.276C206.831 203.02 207.195 202.84 207.699 202.736C208.211 202.624 208.899 202.568 209.763 202.568H210.327V203.312H209.775C209.343 203.312 208.979 203.328 208.683 203.36C208.387 203.392 208.151 203.444 207.975 203.516C207.799 203.58 207.671 203.672 207.591 203.792C207.519 203.912 207.483 204.056 207.483 204.224C207.483 204.528 207.587 204.776 207.795 204.968C208.003 205.152 208.291 205.244 208.659 205.244C208.955 205.244 209.215 205.176 209.439 205.04C209.663 204.896 209.839 204.704 209.967 204.464C210.103 204.224 210.171 203.948 210.171 203.636V202.256C210.171 201.8 210.075 201.472 209.883 201.272C209.691 201.072 209.375 200.972 208.935 200.972C208.599 200.972 208.263 201.024 207.927 201.128C207.591 201.224 207.247 201.38 206.895 201.596L206.523 200.744C206.731 200.6 206.971 200.476 207.243 200.372C207.515 200.268 207.799 200.188 208.095 200.132C208.399 200.068 208.691 200.036 208.971 200.036C209.507 200.036 209.947 200.12 210.291 200.288C210.643 200.456 210.903 200.712 211.071 201.056C211.239 201.4 211.323 201.844 211.323 202.388V206H210.183V204.692H210.291C210.227 204.988 210.107 205.244 209.931 205.46C209.763 205.668 209.551 205.828 209.295 205.94C209.039 206.052 208.747 206.108 208.419 206.108ZM212.993 206V200.144H214.169V201.548H214.049C214.177 201.068 214.405 200.704 214.733 200.456C215.069 200.208 215.513 200.064 216.065 200.024L216.461 200L216.545 201.032L215.813 201.104C215.293 201.152 214.897 201.316 214.625 201.596C214.353 201.876 214.217 202.26 214.217 202.748V206H212.993ZM220.293 206.108C219.565 206.108 219.017 205.92 218.649 205.544C218.289 205.168 218.109 204.624 218.109 203.912V201.08H216.969V200.144H218.109V198.38H219.321V200.144H221.133V201.08H219.321V203.816C219.321 204.24 219.409 204.56 219.585 204.776C219.769 204.992 220.065 205.1 220.473 205.1C220.593 205.1 220.713 205.084 220.833 205.052C220.961 205.02 221.085 204.988 221.205 204.956L221.397 205.868C221.277 205.94 221.109 205.996 220.893 206.036C220.685 206.084 220.485 206.108 220.293 206.108ZM222.204 206V200.144H223.38V201.392H223.248C223.352 201.104 223.496 200.86 223.68 200.66C223.864 200.46 224.084 200.308 224.34 200.204C224.604 200.092 224.892 200.036 225.204 200.036C225.692 200.036 226.088 200.152 226.392 200.384C226.696 200.616 226.904 200.972 227.016 201.452H226.848C227 201.012 227.26 200.668 227.628 200.42C227.996 200.164 228.424 200.036 228.912 200.036C229.36 200.036 229.728 200.124 230.016 200.3C230.304 200.468 230.52 200.728 230.664 201.08C230.808 201.424 230.88 201.86 230.88 202.388V206H229.668V202.448C229.668 201.952 229.58 201.588 229.404 201.356C229.236 201.124 228.956 201.008 228.564 201.008C228.276 201.008 228.024 201.076 227.808 201.212C227.592 201.348 227.424 201.548 227.304 201.812C227.192 202.068 227.136 202.372 227.136 202.724V206H225.924V202.448C225.924 201.952 225.84 201.588 225.672 201.356C225.504 201.124 225.224 201.008 224.832 201.008C224.536 201.008 224.28 201.076 224.064 201.212C223.856 201.348 223.696 201.548 223.584 201.812C223.472 202.068 223.416 202.372 223.416 202.724V206H222.204ZM235.323 206.108C234.683 206.108 234.131 205.988 233.667 205.748C233.211 205.5 232.855 205.152 232.599 204.704C232.351 204.248 232.227 203.708 232.227 203.084C232.227 202.476 232.351 201.944 232.599 201.488C232.847 201.032 233.187 200.676 233.619 200.42C234.051 200.164 234.543 200.036 235.095 200.036C235.639 200.036 236.103 200.156 236.487 200.396C236.879 200.628 237.179 200.96 237.387 201.392C237.595 201.824 237.699 202.34 237.699 202.94V203.348H233.187V202.604H236.883L236.679 202.772C236.679 202.172 236.547 201.708 236.283 201.38C236.019 201.052 235.639 200.888 235.143 200.888C234.767 200.888 234.447 200.976 234.183 201.152C233.927 201.328 233.731 201.572 233.595 201.884C233.459 202.196 233.391 202.56 233.391 202.976V203.048C233.391 203.512 233.463 203.904 233.607 204.224C233.759 204.536 233.979 204.772 234.267 204.932C234.555 205.092 234.911 205.172 235.335 205.172C235.671 205.172 235.999 205.12 236.319 205.016C236.647 204.904 236.955 204.732 237.243 204.5L237.603 205.34C237.339 205.58 236.999 205.768 236.583 205.904C236.167 206.04 235.747 206.108 235.323 206.108ZM239.02 206V200.144H240.196V201.392H240.064C240.24 200.944 240.516 200.608 240.892 200.384C241.268 200.152 241.7 200.036 242.188 200.036C242.652 200.036 243.036 200.124 243.34 200.3C243.652 200.468 243.884 200.728 244.036 201.08C244.188 201.424 244.264 201.86 244.264 202.388V206H243.052V202.46C243.052 202.124 243.008 201.852 242.92 201.644C242.832 201.428 242.7 201.268 242.524 201.164C242.348 201.06 242.12 201.008 241.84 201.008C241.52 201.008 241.236 201.076 240.988 201.212C240.748 201.348 240.56 201.544 240.424 201.8C240.296 202.056 240.232 202.352 240.232 202.688V206H239.02ZM248.43 206.108C247.702 206.108 247.154 205.92 246.786 205.544C246.426 205.168 246.246 204.624 246.246 203.912V201.08H245.106V200.144H246.246V198.38H247.458V200.144H249.27V201.08H247.458V203.816C247.458 204.24 247.546 204.56 247.722 204.776C247.906 204.992 248.202 205.1 248.61 205.1C248.73 205.1 248.85 205.084 248.97 205.052C249.098 205.02 249.222 204.988 249.342 204.956L249.534 205.868C249.414 205.94 249.246 205.996 249.03 206.036C248.822 206.084 248.622 206.108 248.43 206.108ZM252.369 206.108C252.057 206.108 251.753 206.08 251.457 206.024C251.161 205.968 250.889 205.888 250.641 205.784C250.393 205.68 250.173 205.552 249.981 205.4L250.329 204.584C250.529 204.72 250.741 204.84 250.965 204.944C251.189 205.04 251.421 205.112 251.661 205.16C251.909 205.208 252.149 205.232 252.381 205.232C252.805 205.232 253.125 205.156 253.341 205.004C253.557 204.852 253.665 204.648 253.665 204.392C253.665 204.184 253.593 204.024 253.449 203.912C253.305 203.792 253.089 203.7 252.801 203.636L251.661 203.408C251.165 203.304 250.789 203.12 250.533 202.856C250.277 202.592 250.149 202.256 250.149 201.848C250.149 201.48 250.249 201.16 250.449 200.888C250.649 200.616 250.929 200.408 251.289 200.264C251.649 200.112 252.065 200.036 252.537 200.036C252.809 200.036 253.073 200.064 253.329 200.12C253.585 200.176 253.825 200.256 254.049 200.36C254.281 200.464 254.477 200.596 254.637 200.756L254.289 201.572C254.137 201.436 253.961 201.32 253.761 201.224C253.569 201.128 253.369 201.056 253.161 201.008C252.953 200.952 252.745 200.924 252.537 200.924C252.113 200.924 251.793 201.004 251.577 201.164C251.369 201.316 251.265 201.524 251.265 201.788C251.265 201.988 251.329 202.152 251.457 202.28C251.585 202.408 251.785 202.5 252.057 202.556L253.197 202.784C253.717 202.888 254.109 203.064 254.373 203.312C254.645 203.56 254.781 203.896 254.781 204.32C254.781 204.688 254.681 205.008 254.481 205.28C254.281 205.552 253.997 205.76 253.629 205.904C253.269 206.04 252.849 206.108 252.369 206.108ZM256.539 207.476L256.011 207.068C256.171 206.9 256.291 206.744 256.371 206.6C256.459 206.456 256.519 206.312 256.551 206.168C256.591 206.024 256.611 205.88 256.611 205.736L256.875 206H255.927V204.572H257.355V205.544C257.355 205.784 257.327 206.012 257.271 206.228C257.223 206.444 257.139 206.652 257.019 206.852C256.907 207.06 256.747 207.268 256.539 207.476ZM114.008 222V213.54H115.052L118.376 219.732H118.004L121.304 213.54H122.324V222H121.208V215.304H121.472L118.556 220.704H117.8L114.848 215.292H115.136V222H114.008ZM126.06 222.108C125.652 222.108 125.284 222.028 124.956 221.868C124.636 221.708 124.384 221.492 124.2 221.22C124.016 220.948 123.924 220.64 123.924 220.296C123.924 219.864 124.032 219.524 124.248 219.276C124.472 219.02 124.836 218.84 125.34 218.736C125.852 218.624 126.54 218.568 127.404 218.568H127.968V219.312H127.416C126.984 219.312 126.62 219.328 126.324 219.36C126.028 219.392 125.792 219.444 125.616 219.516C125.44 219.58 125.312 219.672 125.232 219.792C125.16 219.912 125.124 220.056 125.124 220.224C125.124 220.528 125.228 220.776 125.436 220.968C125.644 221.152 125.932 221.244 126.3 221.244C126.596 221.244 126.856 221.176 127.08 221.04C127.304 220.896 127.48 220.704 127.608 220.464C127.744 220.224 127.812 219.948 127.812 219.636V218.256C127.812 217.8 127.716 217.472 127.524 217.272C127.332 217.072 127.016 216.972 126.576 216.972C126.24 216.972 125.904 217.024 125.568 217.128C125.232 217.224 124.888 217.38 124.536 217.596L124.164 216.744C124.372 216.6 124.612 216.476 124.884 216.372C125.156 216.268 125.44 216.188 125.736 216.132C126.04 216.068 126.332 216.036 126.612 216.036C127.148 216.036 127.588 216.12 127.932 216.288C128.284 216.456 128.544 216.712 128.712 217.056C128.88 217.4 128.964 217.844 128.964 218.388V222H127.824V220.692H127.932C127.868 220.988 127.748 221.244 127.572 221.46C127.404 221.668 127.192 221.828 126.936 221.94C126.68 222.052 126.388 222.108 126.06 222.108ZM132.541 222.108C131.901 222.108 131.421 221.928 131.101 221.568C130.789 221.2 130.633 220.672 130.633 219.984V213.54H131.845V219.912C131.845 220.168 131.881 220.388 131.953 220.572C132.025 220.748 132.133 220.88 132.277 220.968C132.421 221.056 132.601 221.1 132.817 221.1C132.913 221.1 133.005 221.096 133.093 221.088C133.181 221.08 133.265 221.064 133.345 221.04L133.321 222.012C133.185 222.044 133.053 222.068 132.925 222.084C132.797 222.1 132.669 222.108 132.541 222.108ZM135.877 222L133.357 216.144H134.665L136.621 221.004H136.285L138.289 216.144H139.525L136.969 222H135.877ZM140.287 214.788V213.528H141.703V214.788H140.287ZM140.395 222V216.144H141.607V222H140.395ZM143.913 224.16L145.065 221.592V222.108L142.509 216.144H143.805L145.773 221.004H145.437L147.429 216.144H148.677L145.185 224.16H143.913ZM151.302 222.108C150.894 222.108 150.526 222.028 150.198 221.868C149.878 221.708 149.626 221.492 149.442 221.22C149.258 220.948 149.166 220.64 149.166 220.296C149.166 219.864 149.274 219.524 149.49 219.276C149.714 219.02 150.078 218.84 150.582 218.736C151.094 218.624 151.782 218.568 152.646 218.568H153.21V219.312H152.658C152.226 219.312 151.862 219.328 151.566 219.36C151.27 219.392 151.034 219.444 150.858 219.516C150.682 219.58 150.554 219.672 150.474 219.792C150.402 219.912 150.366 220.056 150.366 220.224C150.366 220.528 150.47 220.776 150.678 220.968C150.886 221.152 151.174 221.244 151.542 221.244C151.838 221.244 152.098 221.176 152.322 221.04C152.546 220.896 152.722 220.704 152.85 220.464C152.986 220.224 153.054 219.948 153.054 219.636V218.256C153.054 217.8 152.958 217.472 152.766 217.272C152.574 217.072 152.258 216.972 151.818 216.972C151.482 216.972 151.146 217.024 150.81 217.128C150.474 217.224 150.13 217.38 149.778 217.596L149.406 216.744C149.614 216.6 149.854 216.476 150.126 216.372C150.398 216.268 150.682 216.188 150.978 216.132C151.282 216.068 151.574 216.036 151.854 216.036C152.39 216.036 152.83 216.12 153.174 216.288C153.526 216.456 153.786 216.712 153.954 217.056C154.122 217.4 154.206 217.844 154.206 218.388V222H153.066V220.692H153.174C153.11 220.988 152.99 221.244 152.814 221.46C152.646 221.668 152.434 221.828 152.178 221.94C151.922 222.052 151.63 222.108 151.302 222.108ZM159.16 222V213.54H160.108L165.256 220.332H164.956V213.54H166.108V222H165.184L160.036 215.208H160.312V222H159.16ZM169.818 222.108C169.41 222.108 169.042 222.028 168.714 221.868C168.394 221.708 168.142 221.492 167.958 221.22C167.774 220.948 167.682 220.64 167.682 220.296C167.682 219.864 167.79 219.524 168.006 219.276C168.23 219.02 168.594 218.84 169.098 218.736C169.61 218.624 170.298 218.568 171.162 218.568H171.726V219.312H171.174C170.742 219.312 170.378 219.328 170.082 219.36C169.786 219.392 169.55 219.444 169.374 219.516C169.198 219.58 169.07 219.672 168.99 219.792C168.918 219.912 168.882 220.056 168.882 220.224C168.882 220.528 168.986 220.776 169.194 220.968C169.402 221.152 169.69 221.244 170.058 221.244C170.354 221.244 170.614 221.176 170.838 221.04C171.062 220.896 171.238 220.704 171.366 220.464C171.502 220.224 171.57 219.948 171.57 219.636V218.256C171.57 217.8 171.474 217.472 171.282 217.272C171.09 217.072 170.774 216.972 170.334 216.972C169.998 216.972 169.662 217.024 169.326 217.128C168.99 217.224 168.646 217.38 168.294 217.596L167.922 216.744C168.13 216.6 168.37 216.476 168.642 216.372C168.914 216.268 169.198 216.188 169.494 216.132C169.798 216.068 170.09 216.036 170.37 216.036C170.906 216.036 171.346 216.12 171.69 216.288C172.042 216.456 172.302 216.712 172.47 217.056C172.638 217.4 172.722 217.844 172.722 218.388V222H171.582V220.692H171.69C171.626 220.988 171.506 221.244 171.33 221.46C171.162 221.668 170.95 221.828 170.694 221.94C170.438 222.052 170.146 222.108 169.818 222.108ZM177.043 224.268C176.515 224.268 176.023 224.204 175.567 224.076C175.111 223.948 174.707 223.756 174.355 223.5L174.727 222.636C174.959 222.788 175.195 222.916 175.435 223.02C175.683 223.132 175.931 223.212 176.179 223.26C176.435 223.308 176.695 223.332 176.959 223.332C177.519 223.332 177.939 223.188 178.219 222.9C178.499 222.62 178.639 222.204 178.639 221.652V220.428H178.747C178.627 220.868 178.375 221.216 177.991 221.472C177.607 221.728 177.163 221.856 176.659 221.856C176.131 221.856 175.671 221.736 175.279 221.496C174.887 221.248 174.583 220.908 174.367 220.476C174.151 220.036 174.043 219.524 174.043 218.94C174.043 218.356 174.151 217.848 174.367 217.416C174.583 216.984 174.887 216.648 175.279 216.408C175.671 216.16 176.131 216.036 176.659 216.036C177.171 216.036 177.615 216.164 177.991 216.42C178.375 216.676 178.623 217.024 178.735 217.464H178.639V216.144H179.815V221.508C179.815 222.116 179.711 222.624 179.503 223.032C179.295 223.448 178.983 223.756 178.567 223.956C178.159 224.164 177.651 224.268 177.043 224.268ZM176.947 220.908C177.467 220.908 177.875 220.732 178.171 220.38C178.475 220.028 178.627 219.548 178.627 218.94C178.627 218.34 178.475 217.864 178.171 217.512C177.875 217.16 177.467 216.984 176.947 216.984C176.435 216.984 176.027 217.16 175.723 217.512C175.419 217.864 175.267 218.34 175.267 218.94C175.267 219.548 175.419 220.028 175.723 220.38C176.027 220.732 176.435 220.908 176.947 220.908ZM183.388 222.108C182.98 222.108 182.612 222.028 182.284 221.868C181.964 221.708 181.712 221.492 181.528 221.22C181.344 220.948 181.252 220.64 181.252 220.296C181.252 219.864 181.36 219.524 181.576 219.276C181.8 219.02 182.164 218.84 182.668 218.736C183.18 218.624 183.868 218.568 184.732 218.568H185.296V219.312H184.744C184.312 219.312 183.948 219.328 183.652 219.36C183.356 219.392 183.12 219.444 182.944 219.516C182.768 219.58 182.64 219.672 182.56 219.792C182.488 219.912 182.452 220.056 182.452 220.224C182.452 220.528 182.556 220.776 182.764 220.968C182.972 221.152 183.26 221.244 183.628 221.244C183.924 221.244 184.184 221.176 184.408 221.04C184.632 220.896 184.808 220.704 184.936 220.464C185.072 220.224 185.14 219.948 185.14 219.636V218.256C185.14 217.8 185.044 217.472 184.852 217.272C184.66 217.072 184.344 216.972 183.904 216.972C183.568 216.972 183.232 217.024 182.896 217.128C182.56 217.224 182.216 217.38 181.864 217.596L181.492 216.744C181.7 216.6 181.94 216.476 182.212 216.372C182.484 216.268 182.768 216.188 183.064 216.132C183.368 216.068 183.66 216.036 183.94 216.036C184.476 216.036 184.916 216.12 185.26 216.288C185.612 216.456 185.872 216.712 186.04 217.056C186.208 217.4 186.292 217.844 186.292 218.388V222H185.152V220.692H185.26C185.196 220.988 185.076 221.244 184.9 221.46C184.732 221.668 184.52 221.828 184.264 221.94C184.008 222.052 183.716 222.108 183.388 222.108ZM187.961 222V216.144H189.137V217.548H189.017C189.145 217.068 189.373 216.704 189.701 216.456C190.037 216.208 190.481 216.064 191.033 216.024L191.429 216L191.513 217.032L190.781 217.104C190.261 217.152 189.865 217.316 189.593 217.596C189.321 217.876 189.185 218.26 189.185 218.748V222H187.961ZM192.648 223.476L192.12 223.068C192.28 222.9 192.4 222.744 192.48 222.6C192.568 222.456 192.628 222.312 192.66 222.168C192.7 222.024 192.72 221.88 192.72 221.736L192.984 222H192.036V220.572H193.464V221.544C193.464 221.784 193.436 222.012 193.38 222.228C193.332 222.444 193.248 222.652 193.128 222.852C193.016 223.06 192.856 223.268 192.648 223.476ZM197.304 222.096L197.208 221.076L197.988 221.028C198.252 221.004 198.468 220.94 198.636 220.836C198.804 220.724 198.932 220.572 199.02 220.38C199.116 220.188 199.164 219.956 199.164 219.684V213.54H200.4V219.684C200.4 220.164 200.316 220.576 200.148 220.92C199.98 221.264 199.728 221.528 199.392 221.712C199.064 221.896 198.656 222.008 198.168 222.048L197.304 222.096ZM204.107 222.108C203.699 222.108 203.331 222.028 203.003 221.868C202.683 221.708 202.431 221.492 202.247 221.22C202.063 220.948 201.971 220.64 201.971 220.296C201.971 219.864 202.079 219.524 202.295 219.276C202.519 219.02 202.883 218.84 203.387 218.736C203.899 218.624 204.587 218.568 205.451 218.568H206.015V219.312H205.463C205.031 219.312 204.667 219.328 204.371 219.36C204.075 219.392 203.839 219.444 203.663 219.516C203.487 219.58 203.359 219.672 203.279 219.792C203.207 219.912 203.171 220.056 203.171 220.224C203.171 220.528 203.275 220.776 203.483 220.968C203.691 221.152 203.979 221.244 204.347 221.244C204.643 221.244 204.903 221.176 205.127 221.04C205.351 220.896 205.527 220.704 205.655 220.464C205.791 220.224 205.859 219.948 205.859 219.636V218.256C205.859 217.8 205.763 217.472 205.571 217.272C205.379 217.072 205.063 216.972 204.623 216.972C204.287 216.972 203.951 217.024 203.615 217.128C203.279 217.224 202.935 217.38 202.583 217.596L202.211 216.744C202.419 216.6 202.659 216.476 202.931 216.372C203.203 216.268 203.487 216.188 203.783 216.132C204.087 216.068 204.379 216.036 204.659 216.036C205.195 216.036 205.635 216.12 205.979 216.288C206.331 216.456 206.591 216.712 206.759 217.056C206.927 217.4 207.011 217.844 207.011 218.388V222H205.871V220.692H205.979C205.915 220.988 205.795 221.244 205.619 221.46C205.451 221.668 205.239 221.828 204.983 221.94C204.727 222.052 204.435 222.108 204.107 222.108ZM208.572 214.788V213.528H209.988V214.788H208.572ZM208.68 222V216.144H209.892V222H208.68ZM211.598 224.16V216.144H212.786V217.464H212.654C212.782 217.032 213.034 216.688 213.41 216.432C213.786 216.168 214.23 216.036 214.742 216.036C215.262 216.036 215.714 216.16 216.098 216.408C216.49 216.656 216.79 217.004 216.998 217.452C217.214 217.9 217.322 218.44 217.322 219.072C217.322 219.688 217.214 220.228 216.998 220.692C216.79 221.148 216.494 221.5 216.11 221.748C215.726 221.988 215.27 222.108 214.742 222.108C214.238 222.108 213.798 221.98 213.422 221.724C213.046 221.468 212.794 221.128 212.666 220.704H212.81V224.16H211.598ZM214.442 221.172C214.946 221.172 215.346 220.992 215.642 220.632C215.946 220.272 216.098 219.752 216.098 219.072C216.098 218.384 215.946 217.864 215.642 217.512C215.346 217.16 214.946 216.984 214.442 216.984C213.946 216.984 213.546 217.16 213.242 217.512C212.938 217.864 212.786 218.384 212.786 219.072C212.786 219.752 212.938 220.272 213.242 220.632C213.546 220.992 213.946 221.172 214.442 221.172ZM220.776 222.108C220.304 222.108 219.908 222.02 219.588 221.844C219.276 221.668 219.04 221.408 218.88 221.064C218.728 220.712 218.652 220.272 218.652 219.744V216.144H219.864V219.756C219.864 220.068 219.904 220.328 219.984 220.536C220.072 220.744 220.204 220.896 220.38 220.992C220.564 221.088 220.792 221.136 221.064 221.136C221.368 221.136 221.636 221.068 221.868 220.932C222.1 220.796 222.28 220.6 222.408 220.344C222.536 220.088 222.6 219.792 222.6 219.456V216.144H223.812V222H222.636V220.716H222.792C222.632 221.164 222.376 221.508 222.024 221.748C221.672 221.988 221.256 222.108 220.776 222.108ZM225.52 222V216.144H226.696V217.548H226.576C226.704 217.068 226.932 216.704 227.26 216.456C227.596 216.208 228.04 216.064 228.592 216.024L228.988 216L229.072 217.032L228.34 217.104C227.82 217.152 227.424 217.316 227.152 217.596C226.88 217.876 226.744 218.26 226.744 218.748V222H225.52ZM235.765 222.108C235.389 222.108 235.021 222.072 234.661 222C234.309 221.92 233.977 221.808 233.665 221.664C233.361 221.512 233.093 221.332 232.861 221.124L233.293 220.164C233.669 220.468 234.057 220.692 234.457 220.836C234.857 220.98 235.281 221.052 235.729 221.052C236.113 221.052 236.437 220.996 236.701 220.884C236.965 220.772 237.161 220.608 237.289 220.392C237.425 220.176 237.493 219.916 237.493 219.612C237.493 219.156 237.341 218.816 237.037 218.592C236.741 218.36 236.309 218.244 235.741 218.244H234.433V217.2H235.621C235.965 217.2 236.257 217.144 236.497 217.032C236.737 216.912 236.921 216.748 237.049 216.54C237.185 216.324 237.253 216.064 237.253 215.76C237.253 215.352 237.117 215.04 236.845 214.824C236.581 214.6 236.193 214.488 235.681 214.488C235.249 214.488 234.849 214.564 234.481 214.716C234.113 214.868 233.765 215.1 233.437 215.412L233.005 214.464C233.333 214.136 233.741 213.884 234.229 213.708C234.725 213.524 235.241 213.432 235.777 213.432C236.337 213.432 236.817 213.52 237.217 213.696C237.625 213.872 237.933 214.124 238.141 214.452C238.357 214.78 238.465 215.172 238.465 215.628C238.465 216.14 238.321 216.584 238.033 216.96C237.753 217.328 237.365 217.572 236.869 217.692V217.56C237.261 217.624 237.593 217.752 237.865 217.944C238.137 218.136 238.345 218.38 238.489 218.676C238.633 218.972 238.705 219.312 238.705 219.696C238.705 220.192 238.585 220.624 238.345 220.992C238.113 221.352 237.777 221.628 237.337 221.82C236.897 222.012 236.373 222.108 235.765 222.108ZM243.092 222.108C242.436 222.108 241.884 221.94 241.436 221.604C240.988 221.268 240.648 220.78 240.416 220.14C240.184 219.492 240.068 218.7 240.068 217.764C240.068 216.812 240.184 216.016 240.416 215.376C240.648 214.736 240.988 214.252 241.436 213.924C241.884 213.596 242.436 213.432 243.092 213.432C243.756 213.432 244.312 213.596 244.76 213.924C245.208 214.244 245.544 214.724 245.768 215.364C246 216.004 246.116 216.8 246.116 217.752C246.116 218.688 246 219.48 245.768 220.128C245.536 220.776 245.196 221.268 244.748 221.604C244.3 221.94 243.748 222.108 243.092 222.108ZM243.092 221.076C243.708 221.076 244.16 220.808 244.448 220.272C244.744 219.736 244.892 218.896 244.892 217.752C244.892 216.608 244.744 215.776 244.448 215.256C244.16 214.728 243.708 214.464 243.092 214.464C242.484 214.464 242.032 214.728 241.736 215.256C241.44 215.776 241.292 216.608 241.292 217.752C241.292 218.896 241.44 219.736 241.736 220.272C242.032 220.808 242.484 221.076 243.092 221.076ZM247.708 222V221.076L250.528 218.052C250.792 217.764 251.004 217.5 251.164 217.26C251.324 217.012 251.44 216.776 251.512 216.552C251.592 216.32 251.632 216.088 251.632 215.856C251.632 215.408 251.496 215.068 251.224 214.836C250.952 214.604 250.552 214.488 250.024 214.488C249.616 214.488 249.228 214.564 248.86 214.716C248.5 214.868 248.156 215.1 247.828 215.412L247.384 214.464C247.704 214.152 248.112 213.904 248.608 213.72C249.104 213.528 249.62 213.432 250.156 213.432C250.74 213.432 251.232 213.524 251.632 213.708C252.04 213.884 252.348 214.144 252.556 214.488C252.764 214.832 252.868 215.252 252.868 215.748C252.868 216.004 252.836 216.256 252.772 216.504C252.716 216.744 252.624 216.984 252.496 217.224C252.376 217.464 252.22 217.712 252.028 217.968C251.844 218.224 251.62 218.488 251.356 218.76L248.944 221.304V220.956H253.204V222H247.708ZM257.483 222.108C256.827 222.108 256.275 221.94 255.827 221.604C255.379 221.268 255.039 220.78 254.807 220.14C254.575 219.492 254.459 218.7 254.459 217.764C254.459 216.812 254.575 216.016 254.807 215.376C255.039 214.736 255.379 214.252 255.827 213.924C256.275 213.596 256.827 213.432 257.483 213.432C258.147 213.432 258.703 213.596 259.151 213.924C259.599 214.244 259.935 214.724 260.159 215.364C260.391 216.004 260.507 216.8 260.507 217.752C260.507 218.688 260.391 219.48 260.159 220.128C259.927 220.776 259.587 221.268 259.139 221.604C258.691 221.94 258.139 222.108 257.483 222.108ZM257.483 221.076C258.099 221.076 258.551 220.808 258.839 220.272C259.135 219.736 259.283 218.896 259.283 217.752C259.283 216.608 259.135 215.776 258.839 215.256C258.551 214.728 258.099 214.464 257.483 214.464C256.875 214.464 256.423 214.728 256.127 215.256C255.831 215.776 255.683 216.608 255.683 217.752C255.683 218.896 255.831 219.736 256.127 220.272C256.423 220.808 256.875 221.076 257.483 221.076ZM262.482 222V220.956H264.402V214.596H265.026L262.902 215.916L262.398 214.992L264.762 213.54H265.638V220.956H267.438V222H262.482ZM269.473 222L273.601 214.116V214.584H269.017V213.54H274.741V214.464L270.841 222H269.473Z" fill="#737682"/>
<g opacity="0.7">
<rect x="20.168" y="32.5" width="265" height="81" rx="7.5" fill="white"/>
<rect x="20.168" y="32.5" width="265" height="81" rx="7.5" stroke="#FFE8D2"/>
<rect x="39.668" y="59" width="28" height="28" rx="8" fill="#FFF0E1"/>
<path d="M53.6667 69.6654C54.0333 69.6654 54.3333 69.9654 54.3333 70.332V72.9987C54.3333 73.3654 54.0333 73.6654 53.6667 73.6654C53.3 73.6654 53 73.3654 53 72.9987V70.332C53 69.9654 53.3 69.6654 53.6667 69.6654ZM53.66 66.332C49.98 66.332 47 69.3187 47 72.9987C47 76.6787 49.98 79.6654 53.66 79.6654C57.3467 79.6654 60.3333 76.6787 60.3333 72.9987C60.3333 69.3187 57.3467 66.332 53.66 66.332ZM53.6667 78.332C50.72 78.332 48.3333 75.9454 48.3333 72.9987C48.3333 70.052 50.72 67.6654 53.6667 67.6654C56.6133 67.6654 59 70.052 59 72.9987C59 75.9454 56.6133 78.332 53.6667 78.332ZM54.3333 76.332H53V74.9987H54.3333V76.332Z" fill="#E68F3C"/>
<path d="M82.746 68V58.13H87.03C87.758 58.13 88.374 58.2513 88.878 58.494C89.382 58.7367 89.7646 59.0867 90.026 59.544C90.2873 60.0013 90.418 60.5567 90.418 61.21C90.418 61.854 90.2873 62.4093 90.026 62.876C89.7646 63.3333 89.382 63.688 88.878 63.94C88.374 64.1827 87.758 64.304 87.03 64.304H84.538V68H82.746ZM84.538 62.89H86.75C87.3846 62.89 87.8653 62.75 88.192 62.47C88.5186 62.1807 88.682 61.7607 88.682 61.21C88.682 60.6593 88.5186 60.244 88.192 59.964C87.8653 59.684 87.3846 59.544 86.75 59.544H84.538V62.89ZM91.5741 68V61.154H93.2821V62.806H93.1421C93.2727 62.246 93.5294 61.8213 93.9121 61.532C94.2947 61.2333 94.8034 61.0607 95.4381 61.014L95.9701 60.972L96.0821 62.456L95.0741 62.554C94.5047 62.61 94.0754 62.7873 93.7861 63.086C93.4967 63.3753 93.3521 63.786 93.3521 64.318V68H91.5741ZM100.321 68.14C99.5464 68.14 98.8791 67.9953 98.3191 67.706C97.7591 67.4167 97.3251 67.006 97.0171 66.474C96.7184 65.942 96.5691 65.312 96.5691 64.584C96.5691 63.8747 96.7138 63.254 97.0031 62.722C97.3018 62.19 97.7078 61.7747 98.2211 61.476C98.7438 61.168 99.3364 61.014 99.9991 61.014C100.652 61.014 101.212 61.154 101.679 61.434C102.146 61.714 102.505 62.1107 102.757 62.624C103.018 63.1373 103.149 63.7487 103.149 64.458V64.976H97.9831V63.968H101.917L101.693 64.178C101.693 63.5433 101.553 63.058 101.273 62.722C100.993 62.3767 100.592 62.204 100.069 62.204C99.6771 62.204 99.3411 62.2973 99.0611 62.484C98.7904 62.6613 98.5804 62.918 98.4311 63.254C98.2911 63.5807 98.2211 63.9727 98.2211 64.43V64.528C98.2211 65.0413 98.3004 65.466 98.4591 65.802C98.6178 66.138 98.8558 66.39 99.1731 66.558C99.4904 66.726 99.8824 66.81 100.349 66.81C100.732 66.81 101.114 66.754 101.497 66.642C101.88 66.5207 102.23 66.334 102.547 66.082L103.037 67.258C102.71 67.5287 102.3 67.7433 101.805 67.902C101.31 68.0607 100.816 68.14 100.321 68.14ZM106.442 68L103.474 61.154H105.336L107.45 66.46H107.03L109.214 61.154H110.964L107.954 68H106.442ZM111.696 59.684V57.976H113.656V59.684H111.696ZM111.808 68V61.154H113.558V68H111.808ZM118.499 68.14C117.789 68.14 117.173 67.9953 116.651 67.706C116.128 67.4167 115.722 67.006 115.433 66.474C115.143 65.9327 114.999 65.298 114.999 64.57C114.999 63.842 115.143 63.212 115.433 62.68C115.722 62.148 116.128 61.7373 116.651 61.448C117.173 61.1587 117.789 61.014 118.499 61.014C119.208 61.014 119.824 61.1587 120.347 61.448C120.869 61.7373 121.275 62.148 121.565 62.68C121.854 63.212 121.999 63.842 121.999 64.57C121.999 65.298 121.854 65.9327 121.565 66.474C121.275 67.006 120.869 67.4167 120.347 67.706C119.824 67.9953 119.208 68.14 118.499 68.14ZM118.499 66.81C119.021 66.81 119.441 66.6233 119.759 66.25C120.076 65.8673 120.235 65.3073 120.235 64.57C120.235 63.8233 120.076 63.268 119.759 62.904C119.441 62.5307 119.021 62.344 118.499 62.344C117.976 62.344 117.556 62.5307 117.239 62.904C116.921 63.268 116.763 63.8233 116.763 64.57C116.763 65.3073 116.921 65.8673 117.239 66.25C117.556 66.6233 117.976 66.81 118.499 66.81ZM125.921 68.14C125.352 68.14 124.881 68.0373 124.507 67.832C124.134 67.6173 123.854 67.3 123.667 66.88C123.49 66.46 123.401 65.9373 123.401 65.312V61.154H125.151V65.34C125.151 65.6573 125.193 65.9233 125.277 66.138C125.371 66.3527 125.506 66.5113 125.683 66.614C125.87 66.7167 126.103 66.768 126.383 66.768C126.701 66.768 126.976 66.698 127.209 66.558C127.452 66.4087 127.639 66.2033 127.769 65.942C127.909 65.6713 127.979 65.3587 127.979 65.004V61.154H129.729V68H128.021V66.572H128.217C128.021 67.076 127.723 67.4633 127.321 67.734C126.929 68.0047 126.463 68.14 125.921 68.14ZM134.057 68.14C133.674 68.14 133.301 68.1073 132.937 68.042C132.582 67.9767 132.255 67.888 131.957 67.776C131.658 67.6547 131.397 67.5053 131.173 67.328L131.621 66.18C131.854 66.3293 132.106 66.46 132.377 66.572C132.647 66.684 132.927 66.768 133.217 66.824C133.506 66.88 133.791 66.908 134.071 66.908C134.519 66.908 134.85 66.8333 135.065 66.684C135.289 66.5253 135.401 66.32 135.401 66.068C135.401 65.8533 135.326 65.69 135.177 65.578C135.037 65.4567 134.822 65.368 134.533 65.312L133.133 65.046C132.554 64.934 132.111 64.724 131.803 64.416C131.504 64.0987 131.355 63.6927 131.355 63.198C131.355 62.75 131.476 62.3627 131.719 62.036C131.971 61.7093 132.316 61.4573 132.755 61.28C133.193 61.1027 133.697 61.014 134.267 61.014C134.593 61.014 134.911 61.0467 135.219 61.112C135.527 61.168 135.816 61.2567 136.087 61.378C136.367 61.49 136.609 61.6393 136.815 61.826L136.339 62.974C136.161 62.8247 135.956 62.6987 135.723 62.596C135.489 62.484 135.247 62.4 134.995 62.344C134.752 62.2787 134.514 62.246 134.281 62.246C133.823 62.246 133.483 62.3253 133.259 62.484C133.044 62.6427 132.937 62.8527 132.937 63.114C132.937 63.31 133.002 63.4733 133.133 63.604C133.263 63.7347 133.464 63.8233 133.735 63.87L135.135 64.136C135.741 64.248 136.199 64.4533 136.507 64.752C136.824 65.0507 136.983 65.452 136.983 65.956C136.983 66.4133 136.861 66.8053 136.619 67.132C136.376 67.4587 136.035 67.7107 135.597 67.888C135.158 68.056 134.645 68.14 134.057 68.14ZM141.264 68L145.73 58.13H147.2L151.666 68H149.846L148.656 65.228L149.412 65.718H143.504L144.26 65.228L143.084 68H141.264ZM146.444 60.076L144.484 64.738L144.12 64.29H148.796L148.446 64.738L146.472 60.076H146.444ZM155.142 68.14C154.544 68.14 154.017 67.9953 153.56 67.706C153.112 67.4167 152.762 67.006 152.51 66.474C152.258 65.9327 152.132 65.298 152.132 64.57C152.132 63.8327 152.258 63.2027 152.51 62.68C152.762 62.148 153.112 61.7373 153.56 61.448C154.017 61.1587 154.544 61.014 155.142 61.014C155.711 61.014 156.206 61.154 156.626 61.434C157.055 61.714 157.344 62.0827 157.494 62.54H157.34V58.13H159.09V68H157.382V66.544H157.508C157.368 67.0293 157.083 67.4167 156.654 67.706C156.224 67.9953 155.72 68.14 155.142 68.14ZM155.632 66.81C156.154 66.81 156.574 66.6233 156.892 66.25C157.209 65.8673 157.368 65.3073 157.368 64.57C157.368 63.8233 157.209 63.268 156.892 62.904C156.574 62.5307 156.154 62.344 155.632 62.344C155.109 62.344 154.689 62.5307 154.372 62.904C154.054 63.268 153.896 63.8233 153.896 64.57C153.896 65.3073 154.054 65.8673 154.372 66.25C154.689 66.6233 155.109 66.81 155.632 66.81ZM163.536 68.14C162.939 68.14 162.411 67.9953 161.954 67.706C161.506 67.4167 161.156 67.006 160.904 66.474C160.652 65.9327 160.526 65.298 160.526 64.57C160.526 63.8327 160.652 63.2027 160.904 62.68C161.156 62.148 161.506 61.7373 161.954 61.448C162.411 61.1587 162.939 61.014 163.536 61.014C164.105 61.014 164.6 61.154 165.02 61.434C165.449 61.714 165.739 62.0827 165.888 62.54H165.734V58.13H167.484V68H165.776V66.544H165.902C165.762 67.0293 165.477 67.4167 165.048 67.706C164.619 67.9953 164.115 68.14 163.536 68.14ZM164.026 66.81C164.549 66.81 164.969 66.6233 165.286 66.25C165.603 65.8673 165.762 65.3073 165.762 64.57C165.762 63.8233 165.603 63.268 165.286 62.904C164.969 62.5307 164.549 62.344 164.026 62.344C163.503 62.344 163.083 62.5307 162.766 62.904C162.449 63.268 162.29 63.8233 162.29 64.57C162.29 65.3073 162.449 65.8673 162.766 66.25C163.083 66.6233 163.503 66.81 164.026 66.81ZM169.299 68V61.154H171.007V62.806H170.867C170.997 62.246 171.254 61.8213 171.637 61.532C172.019 61.2333 172.528 61.0607 173.163 61.014L173.695 60.972L173.807 62.456L172.799 62.554C172.229 62.61 171.8 62.7873 171.511 63.086C171.221 63.3753 171.077 63.786 171.077 64.318V68H169.299ZM178.046 68.14C177.271 68.14 176.604 67.9953 176.044 67.706C175.484 67.4167 175.05 67.006 174.742 66.474C174.443 65.942 174.294 65.312 174.294 64.584C174.294 63.8747 174.438 63.254 174.728 62.722C175.026 62.19 175.432 61.7747 175.946 61.476C176.468 61.168 177.061 61.014 177.724 61.014C178.377 61.014 178.937 61.154 179.404 61.434C179.87 61.714 180.23 62.1107 180.482 62.624C180.743 63.1373 180.874 63.7487 180.874 64.458V64.976H175.708V63.968H179.642L179.418 64.178C179.418 63.5433 179.278 63.058 178.998 62.722C178.718 62.3767 178.316 62.204 177.794 62.204C177.402 62.204 177.066 62.2973 176.786 62.484C176.515 62.6613 176.305 62.918 176.156 63.254C176.016 63.5807 175.946 63.9727 175.946 64.43V64.528C175.946 65.0413 176.025 65.466 176.184 65.802C176.342 66.138 176.58 66.39 176.898 66.558C177.215 66.726 177.607 66.81 178.074 66.81C178.456 66.81 178.839 66.754 179.222 66.642C179.604 66.5207 179.954 66.334 180.272 66.082L180.762 67.258C180.435 67.5287 180.024 67.7433 179.53 67.902C179.035 68.0607 178.54 68.14 178.046 68.14ZM184.766 68.14C184.383 68.14 184.01 68.1073 183.646 68.042C183.291 67.9767 182.964 67.888 182.666 67.776C182.367 67.6547 182.106 67.5053 181.882 67.328L182.33 66.18C182.563 66.3293 182.815 66.46 183.086 66.572C183.356 66.684 183.636 66.768 183.926 66.824C184.215 66.88 184.5 66.908 184.78 66.908C185.228 66.908 185.559 66.8333 185.774 66.684C185.998 66.5253 186.11 66.32 186.11 66.068C186.11 65.8533 186.035 65.69 185.886 65.578C185.746 65.4567 185.531 65.368 185.242 65.312L183.842 65.046C183.263 64.934 182.82 64.724 182.512 64.416C182.213 64.0987 182.064 63.6927 182.064 63.198C182.064 62.75 182.185 62.3627 182.428 62.036C182.68 61.7093 183.025 61.4573 183.464 61.28C183.902 61.1027 184.406 61.014 184.976 61.014C185.302 61.014 185.62 61.0467 185.928 61.112C186.236 61.168 186.525 61.2567 186.796 61.378C187.076 61.49 187.318 61.6393 187.524 61.826L187.048 62.974C186.87 62.8247 186.665 62.6987 186.432 62.596C186.198 62.484 185.956 62.4 185.704 62.344C185.461 62.2787 185.223 62.246 184.99 62.246C184.532 62.246 184.192 62.3253 183.968 62.484C183.753 62.6427 183.646 62.8527 183.646 63.114C183.646 63.31 183.711 63.4733 183.842 63.604C183.972 63.7347 184.173 63.8233 184.444 63.87L185.844 64.136C186.45 64.248 186.908 64.4533 187.216 64.752C187.533 65.0507 187.692 65.452 187.692 65.956C187.692 66.4133 187.57 66.8053 187.328 67.132C187.085 67.4587 186.744 67.7107 186.306 67.888C185.867 68.056 185.354 68.14 184.766 68.14ZM191.602 68.14C191.219 68.14 190.846 68.1073 190.482 68.042C190.127 67.9767 189.8 67.888 189.502 67.776C189.203 67.6547 188.942 67.5053 188.718 67.328L189.166 66.18C189.399 66.3293 189.651 66.46 189.922 66.572C190.192 66.684 190.472 66.768 190.762 66.824C191.051 66.88 191.336 66.908 191.616 66.908C192.064 66.908 192.395 66.8333 192.61 66.684C192.834 66.5253 192.946 66.32 192.946 66.068C192.946 65.8533 192.871 65.69 192.722 65.578C192.582 65.4567 192.367 65.368 192.078 65.312L190.678 65.046C190.099 64.934 189.656 64.724 189.348 64.416C189.049 64.0987 188.9 63.6927 188.9 63.198C188.9 62.75 189.021 62.3627 189.264 62.036C189.516 61.7093 189.861 61.4573 190.3 61.28C190.738 61.1027 191.242 61.014 191.812 61.014C192.138 61.014 192.456 61.0467 192.764 61.112C193.072 61.168 193.361 61.2567 193.632 61.378C193.912 61.49 194.154 61.6393 194.36 61.826L193.884 62.974C193.706 62.8247 193.501 62.6987 193.268 62.596C193.034 62.484 192.792 62.4 192.54 62.344C192.297 62.2787 192.059 62.246 191.826 62.246C191.368 62.246 191.028 62.3253 190.804 62.484C190.589 62.6427 190.482 62.8527 190.482 63.114C190.482 63.31 190.547 63.4733 190.678 63.604C190.808 63.7347 191.009 63.8233 191.28 63.87L192.68 64.136C193.286 64.248 193.744 64.4533 194.052 64.752C194.369 65.0507 194.528 65.452 194.528 65.956C194.528 66.4133 194.406 66.8053 194.164 67.132C193.921 67.4587 193.58 67.7107 193.142 67.888C192.703 68.056 192.19 68.14 191.602 68.14Z" fill="black"/>
<path d="M82.652 88V79.54H88.028V80.548H83.9V83.248H87.776V84.256H83.9V88H82.652ZM91.0725 88.108C90.4325 88.108 89.9525 87.928 89.6325 87.568C89.3205 87.2 89.1645 86.672 89.1645 85.984V79.54H90.3765V85.912C90.3765 86.168 90.4125 86.388 90.4845 86.572C90.5565 86.748 90.6645 86.88 90.8085 86.968C90.9525 87.056 91.1325 87.1 91.3485 87.1C91.4445 87.1 91.5365 87.096 91.6245 87.088C91.7125 87.08 91.7965 87.064 91.8765 87.04L91.8525 88.012C91.7165 88.044 91.5845 88.068 91.4565 88.084C91.3285 88.1 91.2005 88.108 91.0725 88.108ZM94.7045 88.108C94.2965 88.108 93.9285 88.028 93.6005 87.868C93.2805 87.708 93.0285 87.492 92.8445 87.22C92.6605 86.948 92.5685 86.64 92.5685 86.296C92.5685 85.864 92.6765 85.524 92.8925 85.276C93.1165 85.02 93.4805 84.84 93.9845 84.736C94.4965 84.624 95.1845 84.568 96.0485 84.568H96.6125V85.312H96.0605C95.6285 85.312 95.2645 85.328 94.9685 85.36C94.6725 85.392 94.4365 85.444 94.2605 85.516C94.0845 85.58 93.9565 85.672 93.8765 85.792C93.8045 85.912 93.7685 86.056 93.7685 86.224C93.7685 86.528 93.8725 86.776 94.0805 86.968C94.2885 87.152 94.5765 87.244 94.9445 87.244C95.2405 87.244 95.5005 87.176 95.7245 87.04C95.9485 86.896 96.1245 86.704 96.2525 86.464C96.3885 86.224 96.4565 85.948 96.4565 85.636V84.256C96.4565 83.8 96.3605 83.472 96.1685 83.272C95.9765 83.072 95.6605 82.972 95.2205 82.972C94.8845 82.972 94.5485 83.024 94.2125 83.128C93.8765 83.224 93.5325 83.38 93.1805 83.596L92.8085 82.744C93.0165 82.6 93.2565 82.476 93.5285 82.372C93.8005 82.268 94.0845 82.188 94.3805 82.132C94.6845 82.068 94.9765 82.036 95.2565 82.036C95.7925 82.036 96.2325 82.12 96.5765 82.288C96.9285 82.456 97.1885 82.712 97.3565 83.056C97.5245 83.4 97.6085 83.844 97.6085 84.388V88H96.4685V86.692H96.5765C96.5125 86.988 96.3925 87.244 96.2165 87.46C96.0485 87.668 95.8365 87.828 95.5805 87.94C95.3245 88.052 95.0325 88.108 94.7045 88.108ZM101.774 88.108C101.046 88.108 100.498 87.92 100.13 87.544C99.7698 87.168 99.5898 86.624 99.5898 85.912V83.08H98.4498V82.144H99.5898V80.38H100.802V82.144H102.614V83.08H100.802V85.816C100.802 86.24 100.89 86.56 101.066 86.776C101.25 86.992 101.546 87.1 101.954 87.1C102.074 87.1 102.194 87.084 102.314 87.052C102.442 87.02 102.566 86.988 102.686 86.956L102.878 87.868C102.758 87.94 102.59 87.996 102.374 88.036C102.166 88.084 101.966 88.108 101.774 88.108ZM110.329 88V86.284H106.525V85.36L110.545 79.54H111.565V85.24H112.801V86.284H111.565V88H110.329ZM110.329 85.24V81.028H110.653L107.533 85.576V85.24H110.329ZM114.476 89.476L113.948 89.068C114.108 88.9 114.228 88.744 114.308 88.6C114.396 88.456 114.456 88.312 114.488 88.168C114.528 88.024 114.548 87.88 114.548 87.736L114.812 88H113.864V86.572H115.292V87.544C115.292 87.784 115.264 88.012 115.208 88.228C115.16 88.444 115.076 88.652 114.956 88.852C114.844 89.06 114.684 89.268 114.476 89.476ZM127.253 88.108C126.333 88.108 125.557 87.936 124.925 87.592C124.293 87.24 123.813 86.74 123.485 86.092C123.165 85.444 123.005 84.672 123.005 83.776C123.005 82.88 123.169 82.108 123.497 81.46C123.833 80.812 124.309 80.312 124.925 79.96C125.549 79.608 126.297 79.432 127.169 79.432C127.569 79.432 127.949 79.472 128.309 79.552C128.669 79.624 129.001 79.736 129.305 79.888C129.617 80.04 129.889 80.228 130.121 80.452L129.677 81.424C129.301 81.104 128.909 80.876 128.501 80.74C128.101 80.596 127.657 80.524 127.169 80.524C126.233 80.524 125.521 80.808 125.033 81.376C124.545 81.936 124.301 82.736 124.301 83.776C124.301 84.84 124.553 85.648 125.057 86.2C125.561 86.752 126.309 87.028 127.301 87.028C127.661 87.028 128.013 86.996 128.357 86.932C128.709 86.86 129.045 86.76 129.365 86.632L129.113 87.256V84.46H127.049V83.524H130.157V87.508C129.925 87.628 129.645 87.732 129.317 87.82C128.997 87.908 128.657 87.976 128.297 88.024C127.945 88.08 127.597 88.108 127.253 88.108ZM131.938 88V82.144H133.114V83.548H132.994C133.122 83.068 133.35 82.704 133.678 82.456C134.014 82.208 134.458 82.064 135.01 82.024L135.406 82L135.49 83.032L134.758 83.104C134.238 83.152 133.842 83.316 133.57 83.596C133.298 83.876 133.162 84.26 133.162 84.748V88H131.938ZM139.08 88.108C138.44 88.108 137.888 87.988 137.424 87.748C136.968 87.5 136.612 87.152 136.356 86.704C136.108 86.248 135.984 85.708 135.984 85.084C135.984 84.476 136.108 83.944 136.356 83.488C136.604 83.032 136.944 82.676 137.376 82.42C137.808 82.164 138.3 82.036 138.852 82.036C139.396 82.036 139.86 82.156 140.244 82.396C140.636 82.628 140.936 82.96 141.144 83.392C141.352 83.824 141.456 84.34 141.456 84.94V85.348H136.944V84.604H140.64L140.436 84.772C140.436 84.172 140.304 83.708 140.04 83.38C139.776 83.052 139.396 82.888 138.9 82.888C138.524 82.888 138.204 82.976 137.94 83.152C137.684 83.328 137.488 83.572 137.352 83.884C137.216 84.196 137.148 84.56 137.148 84.976V85.048C137.148 85.512 137.22 85.904 137.364 86.224C137.516 86.536 137.736 86.772 138.024 86.932C138.312 87.092 138.668 87.172 139.092 87.172C139.428 87.172 139.756 87.12 140.076 87.016C140.404 86.904 140.712 86.732 141 86.5L141.36 87.34C141.096 87.58 140.756 87.768 140.34 87.904C139.924 88.04 139.504 88.108 139.08 88.108ZM145.526 88.108C144.886 88.108 144.334 87.988 143.87 87.748C143.414 87.5 143.058 87.152 142.802 86.704C142.554 86.248 142.43 85.708 142.43 85.084C142.43 84.476 142.554 83.944 142.802 83.488C143.05 83.032 143.39 82.676 143.822 82.42C144.254 82.164 144.746 82.036 145.298 82.036C145.842 82.036 146.306 82.156 146.69 82.396C147.082 82.628 147.382 82.96 147.59 83.392C147.798 83.824 147.902 84.34 147.902 84.94V85.348H143.39V84.604H147.086L146.882 84.772C146.882 84.172 146.75 83.708 146.486 83.38C146.222 83.052 145.842 82.888 145.346 82.888C144.97 82.888 144.65 82.976 144.386 83.152C144.13 83.328 143.934 83.572 143.798 83.884C143.662 84.196 143.594 84.56 143.594 84.976V85.048C143.594 85.512 143.666 85.904 143.81 86.224C143.962 86.536 144.182 86.772 144.47 86.932C144.758 87.092 145.114 87.172 145.538 87.172C145.874 87.172 146.202 87.12 146.522 87.016C146.85 86.904 147.158 86.732 147.446 86.5L147.806 87.34C147.542 87.58 147.202 87.768 146.786 87.904C146.37 88.04 145.95 88.108 145.526 88.108ZM149.223 88V82.144H150.399V83.392H150.267C150.443 82.944 150.719 82.608 151.095 82.384C151.471 82.152 151.903 82.036 152.391 82.036C152.855 82.036 153.239 82.124 153.543 82.3C153.855 82.468 154.087 82.728 154.239 83.08C154.391 83.424 154.467 83.86 154.467 84.388V88H153.255V84.46C153.255 84.124 153.211 83.852 153.123 83.644C153.035 83.428 152.903 83.268 152.727 83.164C152.551 83.06 152.323 83.008 152.043 83.008C151.723 83.008 151.439 83.076 151.191 83.212C150.951 83.348 150.763 83.544 150.627 83.8C150.499 84.056 150.435 84.352 150.435 84.688V88H149.223ZM158.57 88L162.338 79.54H163.37L167.15 88H165.878L164.846 85.6L165.41 85.936H160.298L160.85 85.6L159.83 88H158.57ZM162.842 80.92L161.03 85.216L160.73 84.928H164.966L164.69 85.216L162.866 80.92H162.842ZM168.125 90.16V82.144H169.313V83.464H169.181C169.309 83.032 169.561 82.688 169.937 82.432C170.313 82.168 170.757 82.036 171.269 82.036C171.789 82.036 172.241 82.16 172.625 82.408C173.017 82.656 173.317 83.004 173.525 83.452C173.741 83.9 173.849 84.44 173.849 85.072C173.849 85.688 173.741 86.228 173.525 86.692C173.317 87.148 173.021 87.5 172.637 87.748C172.253 87.988 171.797 88.108 171.269 88.108C170.765 88.108 170.325 87.98 169.949 87.724C169.573 87.468 169.321 87.128 169.193 86.704H169.337V90.16H168.125ZM170.969 87.172C171.473 87.172 171.873 86.992 172.169 86.632C172.473 86.272 172.625 85.752 172.625 85.072C172.625 84.384 172.473 83.864 172.169 83.512C171.873 83.16 171.473 82.984 170.969 82.984C170.473 82.984 170.073 83.16 169.769 83.512C169.465 83.864 169.313 84.384 169.313 85.072C169.313 85.752 169.465 86.272 169.769 86.632C170.073 86.992 170.473 87.172 170.969 87.172ZM177.653 88.108C176.925 88.108 176.377 87.92 176.009 87.544C175.649 87.168 175.469 86.624 175.469 85.912V83.08H174.329V82.144H175.469V80.38H176.681V82.144H178.493V83.08H176.681V85.816C176.681 86.24 176.769 86.56 176.945 86.776C177.129 86.992 177.425 87.1 177.833 87.1C177.953 87.1 178.073 87.084 178.193 87.052C178.321 87.02 178.445 86.988 178.565 86.956L178.757 87.868C178.637 87.94 178.469 87.996 178.253 88.036C178.045 88.084 177.845 88.108 177.653 88.108ZM180.195 89.476L179.667 89.068C179.827 88.9 179.947 88.744 180.027 88.6C180.115 88.456 180.175 88.312 180.207 88.168C180.247 88.024 180.267 87.88 180.267 87.736L180.531 88H179.583V86.572H181.011V87.544C181.011 87.784 180.983 88.012 180.927 88.228C180.879 88.444 180.795 88.652 180.675 88.852C180.563 89.06 180.403 89.268 180.195 89.476ZM184.851 88.096L184.755 87.076L185.535 87.028C185.799 87.004 186.015 86.94 186.183 86.836C186.351 86.724 186.479 86.572 186.567 86.38C186.663 86.188 186.711 85.956 186.711 85.684V79.54H187.947V85.684C187.947 86.164 187.863 86.576 187.695 86.92C187.527 87.264 187.275 87.528 186.939 87.712C186.611 87.896 186.203 88.008 185.715 88.048L184.851 88.096ZM191.654 88.108C191.246 88.108 190.878 88.028 190.55 87.868C190.23 87.708 189.978 87.492 189.794 87.22C189.61 86.948 189.518 86.64 189.518 86.296C189.518 85.864 189.626 85.524 189.842 85.276C190.066 85.02 190.43 84.84 190.934 84.736C191.446 84.624 192.134 84.568 192.998 84.568H193.562V85.312H193.01C192.578 85.312 192.214 85.328 191.918 85.36C191.622 85.392 191.386 85.444 191.21 85.516C191.034 85.58 190.906 85.672 190.826 85.792C190.754 85.912 190.718 86.056 190.718 86.224C190.718 86.528 190.822 86.776 191.03 86.968C191.238 87.152 191.526 87.244 191.894 87.244C192.19 87.244 192.45 87.176 192.674 87.04C192.898 86.896 193.074 86.704 193.202 86.464C193.338 86.224 193.406 85.948 193.406 85.636V84.256C193.406 83.8 193.31 83.472 193.118 83.272C192.926 83.072 192.61 82.972 192.17 82.972C191.834 82.972 191.498 83.024 191.162 83.128C190.826 83.224 190.482 83.38 190.13 83.596L189.758 82.744C189.966 82.6 190.206 82.476 190.478 82.372C190.75 82.268 191.034 82.188 191.33 82.132C191.634 82.068 191.926 82.036 192.206 82.036C192.742 82.036 193.182 82.12 193.526 82.288C193.878 82.456 194.138 82.712 194.306 83.056C194.474 83.4 194.558 83.844 194.558 84.388V88H193.418V86.692H193.526C193.462 86.988 193.342 87.244 193.166 87.46C192.998 87.668 192.786 87.828 192.53 87.94C192.274 88.052 191.982 88.108 191.654 88.108ZM196.119 80.788V79.528H197.535V80.788H196.119ZM196.227 88V82.144H197.439V88H196.227ZM199.145 90.16V82.144H200.333V83.464H200.201C200.329 83.032 200.581 82.688 200.957 82.432C201.333 82.168 201.777 82.036 202.289 82.036C202.809 82.036 203.261 82.16 203.645 82.408C204.037 82.656 204.337 83.004 204.545 83.452C204.761 83.9 204.869 84.44 204.869 85.072C204.869 85.688 204.761 86.228 204.545 86.692C204.337 87.148 204.041 87.5 203.657 87.748C203.273 87.988 202.817 88.108 202.289 88.108C201.785 88.108 201.345 87.98 200.969 87.724C200.593 87.468 200.341 87.128 200.213 86.704H200.357V90.16H199.145ZM201.989 87.172C202.493 87.172 202.893 86.992 203.189 86.632C203.493 86.272 203.645 85.752 203.645 85.072C203.645 84.384 203.493 83.864 203.189 83.512C202.893 83.16 202.493 82.984 201.989 82.984C201.493 82.984 201.093 83.16 200.789 83.512C200.485 83.864 200.333 84.384 200.333 85.072C200.333 85.752 200.485 86.272 200.789 86.632C201.093 86.992 201.493 87.172 201.989 87.172ZM208.323 88.108C207.851 88.108 207.455 88.02 207.135 87.844C206.823 87.668 206.587 87.408 206.427 87.064C206.275 86.712 206.199 86.272 206.199 85.744V82.144H207.411V85.756C207.411 86.068 207.451 86.328 207.531 86.536C207.619 86.744 207.751 86.896 207.927 86.992C208.111 87.088 208.339 87.136 208.611 87.136C208.915 87.136 209.183 87.068 209.415 86.932C209.647 86.796 209.827 86.6 209.955 86.344C210.083 86.088 210.147 85.792 210.147 85.456V82.144H211.359V88H210.183V86.716H210.339C210.179 87.164 209.923 87.508 209.571 87.748C209.219 87.988 208.803 88.108 208.323 88.108ZM213.067 88V82.144H214.243V83.548H214.123C214.251 83.068 214.479 82.704 214.807 82.456C215.143 82.208 215.587 82.064 216.139 82.024L216.535 82L216.619 83.032L215.887 83.104C215.367 83.152 214.971 83.316 214.699 83.596C214.427 83.876 214.291 84.26 214.291 84.748V88H213.067ZM223.312 88.108C222.936 88.108 222.568 88.072 222.208 88C221.856 87.92 221.524 87.808 221.212 87.664C220.908 87.512 220.64 87.332 220.408 87.124L220.84 86.164C221.216 86.468 221.604 86.692 222.004 86.836C222.404 86.98 222.828 87.052 223.276 87.052C223.66 87.052 223.984 86.996 224.248 86.884C224.512 86.772 224.708 86.608 224.836 86.392C224.972 86.176 225.04 85.916 225.04 85.612C225.04 85.156 224.888 84.816 224.584 84.592C224.288 84.36 223.856 84.244 223.288 84.244H221.98V83.2H223.168C223.512 83.2 223.804 83.144 224.044 83.032C224.284 82.912 224.468 82.748 224.596 82.54C224.732 82.324 224.8 82.064 224.8 81.76C224.8 81.352 224.664 81.04 224.392 80.824C224.128 80.6 223.74 80.488 223.228 80.488C222.796 80.488 222.396 80.564 222.028 80.716C221.66 80.868 221.312 81.1 220.984 81.412L220.552 80.464C220.88 80.136 221.288 79.884 221.776 79.708C222.272 79.524 222.788 79.432 223.324 79.432C223.884 79.432 224.364 79.52 224.764 79.696C225.172 79.872 225.48 80.124 225.688 80.452C225.904 80.78 226.012 81.172 226.012 81.628C226.012 82.14 225.868 82.584 225.58 82.96C225.3 83.328 224.912 83.572 224.416 83.692V83.56C224.808 83.624 225.14 83.752 225.412 83.944C225.684 84.136 225.892 84.38 226.036 84.676C226.18 84.972 226.252 85.312 226.252 85.696C226.252 86.192 226.132 86.624 225.892 86.992C225.66 87.352 225.324 87.628 224.884 87.82C224.444 88.012 223.92 88.108 223.312 88.108ZM230.639 88.108C229.983 88.108 229.431 87.94 228.983 87.604C228.535 87.268 228.195 86.78 227.963 86.14C227.731 85.492 227.615 84.7 227.615 83.764C227.615 82.812 227.731 82.016 227.963 81.376C228.195 80.736 228.535 80.252 228.983 79.924C229.431 79.596 229.983 79.432 230.639 79.432C231.303 79.432 231.859 79.596 232.307 79.924C232.755 80.244 233.091 80.724 233.315 81.364C233.547 82.004 233.663 82.8 233.663 83.752C233.663 84.688 233.547 85.48 233.315 86.128C233.083 86.776 232.743 87.268 232.295 87.604C231.847 87.94 231.295 88.108 230.639 88.108ZM230.639 87.076C231.255 87.076 231.707 86.808 231.995 86.272C232.291 85.736 232.439 84.896 232.439 83.752C232.439 82.608 232.291 81.776 231.995 81.256C231.707 80.728 231.255 80.464 230.639 80.464C230.031 80.464 229.579 80.728 229.283 81.256C228.987 81.776 228.839 82.608 228.839 83.752C228.839 84.896 228.987 85.736 229.283 86.272C229.579 86.808 230.031 87.076 230.639 87.076ZM235.254 88V87.076L238.074 84.052C238.338 83.764 238.55 83.5 238.71 83.26C238.87 83.012 238.986 82.776 239.058 82.552C239.138 82.32 239.178 82.088 239.178 81.856C239.178 81.408 239.042 81.068 238.77 80.836C238.498 80.604 238.098 80.488 237.57 80.488C237.162 80.488 236.774 80.564 236.406 80.716C236.046 80.868 235.702 81.1 235.374 81.412L234.93 80.464C235.25 80.152 235.658 79.904 236.154 79.72C236.65 79.528 237.166 79.432 237.702 79.432C238.286 79.432 238.778 79.524 239.178 79.708C239.586 79.884 239.894 80.144 240.102 80.488C240.31 80.832 240.414 81.252 240.414 81.748C240.414 82.004 240.382 82.256 240.318 82.504C240.262 82.744 240.17 82.984 240.042 83.224C239.922 83.464 239.766 83.712 239.574 83.968C239.39 84.224 239.166 84.488 238.902 84.76L236.49 87.304V86.956H240.75V88H235.254ZM245.03 88.108C244.374 88.108 243.822 87.94 243.374 87.604C242.926 87.268 242.586 86.78 242.354 86.14C242.122 85.492 242.006 84.7 242.006 83.764C242.006 82.812 242.122 82.016 242.354 81.376C242.586 80.736 242.926 80.252 243.374 79.924C243.822 79.596 244.374 79.432 245.03 79.432C245.694 79.432 246.25 79.596 246.698 79.924C247.146 80.244 247.482 80.724 247.706 81.364C247.938 82.004 248.054 82.8 248.054 83.752C248.054 84.688 247.938 85.48 247.706 86.128C247.474 86.776 247.134 87.268 246.686 87.604C246.238 87.94 245.686 88.108 245.03 88.108ZM245.03 87.076C245.646 87.076 246.098 86.808 246.386 86.272C246.682 85.736 246.83 84.896 246.83 83.752C246.83 82.608 246.682 81.776 246.386 81.256C246.098 80.728 245.646 80.464 245.03 80.464C244.422 80.464 243.97 80.728 243.674 81.256C243.378 81.776 243.23 82.608 243.23 83.752C243.23 84.896 243.378 85.736 243.674 86.272C243.97 86.808 244.422 87.076 245.03 87.076ZM250.029 88V86.956H251.949V80.596H252.573L250.449 81.916L249.945 80.992L252.309 79.54H253.185V86.956H254.985V88H250.029ZM257.02 88L261.148 80.116V80.584H256.564V79.54H262.288V80.464L258.388 88H257.02Z" fill="#737682"/>
</g>
<path d="M152.668 109.5C150.168 109.5 148.168 111.5 148.168 114C148.168 116.5 150.168 118.5 152.668 118.5C155.168 118.5 157.168 116.5 157.168 114C157.168 111.5 155.168 109.5 152.668 109.5Z" fill="white"/>
<path d="M152.668 118.5C155.168 118.5 157.168 116.5 157.168 114C157.168 111.5 155.168 109.5 152.668 109.5C150.168 109.5 148.168 111.5 148.168 114C148.168 116.5 150.168 118.5 152.668 118.5ZM152.668 118.5C152.668 125.956 158.712 132 166.168 132H168.334C176.986 132 184 139.014 184 147.666V150" stroke="#444050" stroke-width="2"/>
</svg>
